<svg width="32" height="32" viewBox="0 0 32 32" fill="none" xmlns="http://www.w3.org/2000/svg">
<path d="M28.6108 3.27352C28.4559 3.13973 28.2674 3.05075 28.0656 3.01617C27.8638 2.98159 27.6565 3.00271 27.4658 3.07727L2.1333 12.991C1.77429 13.1306 1.47033 13.3831 1.26721 13.7104C1.06409 14.0377 0.972783 14.4221 1.00705 14.8058C1.04131 15.1895 1.19929 15.5516 1.4572 15.8378C1.7151 16.1239 2.05898 16.3185 2.43705 16.3923L9.0008 17.681V24.9998C8.99951 25.3984 9.11798 25.7883 9.34086 26.1188C9.56373 26.4493 9.88074 26.7053 10.2508 26.8535C10.6203 27.0044 11.0266 27.0406 11.417 26.9575C11.8073 26.8743 12.1636 26.6756 12.4396 26.3873L15.6046 23.1048L20.6258 27.4998C20.9881 27.8211 21.4553 27.9989 21.9396 27.9998C22.1518 27.9996 22.3626 27.9663 22.5646 27.901C22.8945 27.7963 23.1912 27.607 23.4252 27.352C23.6593 27.0969 23.8224 26.785 23.8983 26.4473L28.9721 4.37477C29.0174 4.17571 29.0078 3.96805 28.9442 3.77405C28.8805 3.58005 28.7653 3.40702 28.6108 3.27352ZM20.9683 7.77352L9.76955 15.7935L3.56955 14.5773L20.9683 7.77352ZM11.0008 24.9998V19.0648L14.0996 21.7823L11.0008 24.9998ZM21.9421 25.9998L11.6071 16.9373L26.4821 6.27602L21.9421 25.9998Z" fill="#111111"/>
</svg>
