<svg width="16" height="16" viewBox="0 0 16 16" fill="none" xmlns="http://www.w3.org/2000/svg">
<path d="M15 6.33189H13.2069L10.5 3.32556C10.4075 3.22198 10.2973 3.13986 10.176 3.08397C10.0546 3.02808 9.9245 2.99954 9.79313 3.00001H2.7675C2.60325 3.00034 2.4416 3.04561 2.29684 3.13181C2.15207 3.21801 2.02866 3.34248 1.9375 3.49423L0.08375 6.579C0.0292824 6.67042 0.000163036 6.77758 0 6.8872L0 10.2191C0 10.5136 0.105357 10.7961 0.292893 11.0044C0.48043 11.2127 0.734784 11.3297 1 11.3297H2.0625C2.17265 11.8075 2.42285 12.231 2.77366 12.5334C3.12446 12.8358 3.55591 13 4 13C4.44409 13 4.87554 12.8358 5.22635 12.5334C5.57715 12.231 5.82735 11.8075 5.9375 11.3297H10.0625C10.1727 11.8075 10.4229 12.231 10.7737 12.5334C11.1245 12.8358 11.5559 13 12 13C12.4441 13 12.8755 12.8358 13.2263 12.5334C13.5772 12.231 13.8273 11.8075 13.9375 11.3297H15C15.2652 11.3297 15.5196 11.2127 15.7071 11.0044C15.8946 10.7961 16 10.5136 16 10.2191V7.44251C16 7.14796 15.8946 6.86546 15.7071 6.65718C15.5196 6.4489 15.2652 6.33189 15 6.33189ZM2.7675 4.11063H9.79313L11.7931 6.33189H1.4375L2.7675 4.11063ZM4 11.885C3.80222 11.885 3.60888 11.8199 3.44443 11.6978C3.27998 11.5758 3.15181 11.4024 3.07612 11.1994C3.00043 10.9965 2.98063 10.7732 3.01921 10.5577C3.0578 10.3423 3.15304 10.1444 3.29289 9.98906C3.43275 9.83374 3.61093 9.72796 3.80491 9.68511C3.99889 9.64225 4.19996 9.66425 4.38268 9.74831C4.56541 9.83237 4.72159 9.97472 4.83147 10.1574C4.94135 10.34 5 10.5547 5 10.7744C5 11.0689 4.89464 11.3514 4.70711 11.5597C4.51957 11.768 4.26522 11.885 4 11.885ZM12 11.885C11.8022 11.885 11.6089 11.8199 11.4444 11.6978C11.28 11.5758 11.1518 11.4024 11.0761 11.1994C11.0004 10.9965 10.9806 10.7732 11.0192 10.5577C11.0578 10.3423 11.153 10.1444 11.2929 9.98906C11.4327 9.83374 11.6109 9.72796 11.8049 9.68511C11.9989 9.64225 12.2 9.66425 12.3827 9.74831C12.5654 9.83237 12.7216 9.97472 12.8315 10.1574C12.9414 10.34 13 10.5547 13 10.7744C13 11.0689 12.8946 11.3514 12.7071 11.5597C12.5196 11.768 12.2652 11.885 12 11.885ZM15 10.2191H13.9375C13.8273 9.74128 13.5772 9.31778 13.2263 9.01536C12.8755 8.71294 12.4441 8.54878 12 8.54878C11.5559 8.54878 11.1245 8.71294 10.7737 9.01536C10.4229 9.31778 10.1727 9.74128 10.0625 10.2191H5.9375C5.82735 9.74128 5.57715 9.31778 5.22635 9.01536C4.87554 8.71294 4.44409 8.54878 4 8.54878C3.55591 8.54878 3.12446 8.71294 2.77366 9.01536C2.42285 9.31778 2.17265 9.74128 2.0625 10.2191H1V7.44251H15V10.2191Z" fill="#111111"/>
</svg>
