<svg width="16" height="16" viewBox="0 0 16 16" fill="none" xmlns="http://www.w3.org/2000/svg">
<path d="M15.4199 6.5H14.7449L13.0087 2.59375C12.9301 2.41702 12.802 2.26686 12.6398 2.16148C12.4776 2.05609 12.2883 2 12.0949 2H4.74492C4.55151 2 4.36225 2.05609 4.20007 2.16148C4.03789 2.26686 3.90975 2.41702 3.83117 2.59375L2.09492 6.5H1.41992C1.28731 6.5 1.16014 6.55268 1.06637 6.64645C0.9726 6.74021 0.919922 6.86739 0.919922 7C0.919922 7.13261 0.9726 7.25979 1.06637 7.35355C1.16014 7.44732 1.28731 7.5 1.41992 7.5H1.91992V12.5C1.91992 12.7652 2.02528 13.0196 2.21282 13.2071C2.40035 13.3946 2.65471 13.5 2.91992 13.5H4.41992C4.68514 13.5 4.93949 13.3946 5.12703 13.2071C5.31456 13.0196 5.41992 12.7652 5.41992 12.5V11.5H11.4199V12.5C11.4199 12.7652 11.5253 13.0196 11.7128 13.2071C11.9004 13.3946 12.1547 13.5 12.4199 13.5H13.9199C14.1851 13.5 14.4395 13.3946 14.627 13.2071C14.8146 13.0196 14.9199 12.7652 14.9199 12.5V7.5H15.4199C15.5525 7.5 15.6797 7.44732 15.7735 7.35355C15.8672 7.25979 15.9199 7.13261 15.9199 7C15.9199 6.86739 15.8672 6.74021 15.7735 6.64645C15.6797 6.55268 15.5525 6.5 15.4199 6.5ZM4.74492 3H12.0949L13.6505 6.5H3.1893L4.74492 3ZM4.41992 12.5H2.91992V11.5H4.41992V12.5ZM12.4199 12.5V11.5H13.9199V12.5H12.4199ZM13.9199 10.5H2.91992V7.5H13.9199V10.5ZM3.91992 9C3.91992 8.86739 3.9726 8.74021 4.06637 8.64645C4.16014 8.55268 4.28731 8.5 4.41992 8.5H5.41992C5.55253 8.5 5.67971 8.55268 5.77348 8.64645C5.86724 8.74021 5.91992 8.86739 5.91992 9C5.91992 9.13261 5.86724 9.25979 5.77348 9.35355C5.67971 9.44732 5.55253 9.5 5.41992 9.5H4.41992C4.28731 9.5 4.16014 9.44732 4.06637 9.35355C3.9726 9.25979 3.91992 9.13261 3.91992 9ZM10.9199 9C10.9199 8.86739 10.9726 8.74021 11.0664 8.64645C11.1601 8.55268 11.2873 8.5 11.4199 8.5H12.4199C12.5525 8.5 12.6797 8.55268 12.7735 8.64645C12.8672 8.74021 12.9199 8.86739 12.9199 9C12.9199 9.13261 12.8672 9.25979 12.7735 9.35355C12.6797 9.44732 12.5525 9.5 12.4199 9.5H11.4199C11.2873 9.5 11.1601 9.44732 11.0664 9.35355C10.9726 9.25979 10.9199 9.13261 10.9199 9Z" fill="black"/>
</svg>
