<svg width="19" height="19" viewBox="0 0 19 19" fill="none" xmlns="http://www.w3.org/2000/svg">
<path d="M12.5716 5.78604C12.5716 5.91318 12.5339 6.03746 12.4632 6.14318C12.3926 6.24889 12.2922 6.33128 12.1747 6.37994C12.0573 6.42859 11.928 6.44132 11.8033 6.41652C11.6786 6.39172 11.5641 6.33049 11.4742 6.24059C11.3842 6.15069 11.323 6.03614 11.2982 5.91145C11.2734 5.78675 11.2861 5.6575 11.3348 5.54003C11.3835 5.42257 11.4659 5.32217 11.5716 5.25154C11.6773 5.1809 11.8016 5.1432 11.9287 5.1432C12.0992 5.1432 12.2627 5.21093 12.3833 5.33148C12.5038 5.45204 12.5716 5.61555 12.5716 5.78604ZM14.8215 10.0223C14.0137 11.1387 12.811 11.8908 11.2484 12.2583C10.1727 12.5112 8.91592 12.5797 7.49203 12.4688C7.57774 13.1052 7.69774 13.7756 7.85202 14.4798C7.87624 14.5908 7.85543 14.7068 7.79416 14.8024C7.73289 14.8981 7.63617 14.9655 7.52524 14.9898C7.495 14.9966 7.4641 15 7.4331 15C7.3354 14.9999 7.24065 14.9665 7.16456 14.9052C7.08847 14.8439 7.0356 14.7585 7.01472 14.663C6.84008 13.8645 6.70776 13.1035 6.61776 12.3799C5.89563 12.2903 5.1353 12.158 4.33674 11.983C4.28176 11.9709 4.2297 11.9481 4.18352 11.9159C4.13735 11.8838 4.09796 11.8428 4.06762 11.7954C4.00634 11.6996 3.9856 11.5835 4.00996 11.4724C4.03433 11.3614 4.10181 11.2646 4.19755 11.2033C4.29329 11.142 4.40945 11.1213 4.52049 11.1457C5.22404 11.2999 5.89367 11.4201 6.52937 11.5062C6.41741 10.0834 6.48759 8.82772 6.7399 7.75311C7.10739 6.19049 7.86005 4.98785 8.97592 4.17895C9.73233 3.6304 11.0796 2.98113 13.1753 3.00042C14.3104 3.01167 15.3626 3.23238 15.5222 3.32612C15.5848 3.363 15.6369 3.41516 15.6738 3.47772C15.7676 3.63843 15.9883 4.68786 15.9995 5.823C16.0113 6.98117 15.8163 8.64879 14.8215 10.0223ZM13.5487 10.1723C12.3828 9.94098 11.3118 9.36879 10.4715 8.52824C9.63109 7.68769 9.05914 6.6166 8.82807 5.45069C7.62381 6.75029 7.14489 8.81111 7.39453 11.6037C10.1882 11.8544 12.2501 11.376 13.5492 10.1723H13.5487ZM14.9522 4.04824C14.2611 3.90706 13.5564 3.84399 12.8512 3.86021C11.5473 3.8945 10.4561 4.20788 9.59626 4.79179C9.71313 5.97526 10.2366 7.08165 11.0774 7.92261C11.9183 8.76357 13.0246 9.28712 14.2081 9.40412C14.7926 8.54701 15.106 7.45312 15.1402 6.14924C15.1564 5.44407 15.0934 4.73932 14.9522 4.04824Z" fill="#111111"/>
</svg>
