<svg width="16" height="16" viewBox="0 0 16 16" fill="none" xmlns="http://www.w3.org/2000/svg">
<path d="M13.0038 11.5H9.50005C9.36745 11.5 9.24027 11.5527 9.1465 11.6464C9.05273 11.7402 9.00005 11.8674 9.00005 12V12.75C9.00005 13.3471 9.23727 13.9198 9.65952 14.3421C10.0818 14.7643 10.6545 15.0016 11.2516 15.0016C11.8488 15.0016 12.4215 14.7643 12.8437 14.3421C13.266 13.9198 13.5032 13.3471 13.5032 12.75V12C13.5032 11.8675 13.4506 11.7404 13.357 11.6467C13.2633 11.5529 13.1363 11.5002 13.0038 11.5ZM12.5038 12.75C12.5038 13.0815 12.3721 13.3995 12.1377 13.6339C11.9033 13.8683 11.5853 14 11.2538 14C10.9223 14 10.6043 13.8683 10.3699 13.6339C10.1355 13.3995 10.0038 13.0815 10.0038 12.75V12.5H12.5038V12.75ZM6.50005 10H3.00005C2.86745 10 2.74027 10.0527 2.6465 10.1464C2.55273 10.2402 2.50005 10.3674 2.50005 10.5V11.25C2.50005 11.8467 2.73711 12.419 3.15906 12.841C3.58102 13.2629 4.15332 13.5 4.75005 13.5C5.34679 13.5 5.91909 13.2629 6.34104 12.841C6.763 12.419 7.00005 11.8467 7.00005 11.25V10.5C7.00005 10.3674 6.94738 10.2402 6.85361 10.1464C6.75984 10.0527 6.63266 10 6.50005 10ZM6.00005 11.25C6.00005 11.5815 5.86836 11.8995 5.63394 12.1339C5.39952 12.3683 5.08157 12.5 4.75005 12.5C4.41853 12.5 4.10059 12.3683 3.86617 12.1339C3.63175 11.8995 3.50005 11.5815 3.50005 11.25V11H6.00005V11.25ZM4.75005 1C4.02255 1 3.31693 1.64437 2.76255 2.8125C1.89193 4.64875 1.60255 7.375 2.78068 8.8125C2.82766 8.86984 2.88679 8.91601 2.95381 8.94768C3.02083 8.97936 3.09405 8.99573 3.16818 8.99562H6.32755C6.40168 8.99573 6.4749 8.97936 6.54192 8.94768C6.60894 8.91601 6.66808 8.86984 6.71505 8.8125C7.89318 7.375 7.6038 4.64687 6.73318 2.8125C6.17818 1.64437 5.47318 1 4.75005 1ZM6.07193 8H3.4238C2.7113 6.86875 2.97318 4.70625 3.66693 3.24312C4.0713 2.38875 4.51068 2 4.75005 2C4.98943 2 5.4263 2.38875 5.8313 3.24312C6.52255 4.70625 6.78443 6.86875 6.07193 8ZM9.67255 10.5H12.8319C12.9061 10.5001 12.9793 10.4837 13.0463 10.4521C13.1133 10.4204 13.1725 10.3742 13.2194 10.3169C14.3976 8.87937 14.1082 6.15125 13.2376 4.31687C12.6832 3.14437 11.9776 2.5 11.2501 2.5C10.5226 2.5 9.81943 3.14437 9.26443 4.3125C8.3938 6.14875 8.10443 8.875 9.28255 10.3125C9.32952 10.3708 9.3889 10.4179 9.45637 10.4503C9.52384 10.4828 9.59769 10.4997 9.67255 10.5ZM10.1726 4.74312C10.5763 3.88875 11.0157 3.5 11.2501 3.5C11.4844 3.5 11.9263 3.88875 12.3307 4.74312C13.0244 6.20625 13.2863 8.36812 12.5744 9.5H9.92818C9.21568 8.36875 9.47755 6.20625 10.1713 4.74312H10.1726Z" fill="black"/>
</svg>
