<svg width="16" height="16" viewBox="0 0 16 16" fill="none" xmlns="http://www.w3.org/2000/svg">
<path d="M7.5 6.45047V11.0005C7.5 11.1331 7.55268 11.2603 7.64645 11.354C7.74021 11.4478 7.86739 11.5005 8 11.5005C8.13261 11.5005 8.25979 11.4478 8.35355 11.354C8.44732 11.2603 8.5 11.1331 8.5 11.0005V6.45047C9.10702 6.32656 9.64641 5.98167 10.0136 5.48267C10.3808 4.98367 10.5496 4.36611 10.4873 3.7497C10.4251 3.1333 10.1361 2.56198 9.67658 2.1465C9.21701 1.73102 8.61954 1.50098 8 1.50098C7.38046 1.50098 6.78299 1.73102 6.32342 2.1465C5.86385 2.56198 5.57493 3.1333 5.51266 3.7497C5.45039 4.36611 5.61921 4.98367 5.9864 5.48267C6.35359 5.98167 6.89298 6.32656 7.5 6.45047ZM8 2.50047C8.29667 2.50047 8.58668 2.58844 8.83335 2.75326C9.08003 2.91808 9.27229 3.15235 9.38582 3.42644C9.49935 3.70053 9.52906 4.00213 9.47118 4.2931C9.4133 4.58407 9.27044 4.85135 9.06066 5.06113C8.85088 5.27091 8.58361 5.41377 8.29264 5.47164C8.00166 5.52952 7.70006 5.49982 7.42597 5.38629C7.15189 5.27275 6.91762 5.0805 6.7528 4.83382C6.58797 4.58715 6.5 4.29714 6.5 4.00047C6.5 3.60264 6.65804 3.22111 6.93934 2.93981C7.22064 2.6585 7.60218 2.50047 8 2.50047ZM15 11.0005C15 12.9492 11.3931 14.0005 8 14.0005C4.60687 14.0005 1 12.9492 1 11.0005C1 10.5167 1.23812 9.80484 2.375 9.16234C3.14125 8.72859 4.195 8.39547 5.42312 8.19859C5.48809 8.18833 5.55444 8.19097 5.61838 8.20635C5.68232 8.22173 5.74261 8.24956 5.7958 8.28824C5.84899 8.32692 5.89405 8.3757 5.92838 8.43179C5.96272 8.48788 5.98568 8.55019 5.99594 8.61515C6.0062 8.68012 6.00356 8.74647 5.98818 8.81041C5.9728 8.87435 5.94497 8.93464 5.90629 8.98783C5.86761 9.04102 5.81883 9.08607 5.76274 9.12041C5.70664 9.15475 5.64434 9.17771 5.57937 9.18797C4.48312 9.36422 3.51687 9.66484 2.86562 10.0348C2.31562 10.3442 2 10.6967 2 11.0005C2 11.8355 4.2825 13.0005 8 13.0005C11.7175 13.0005 14 11.8355 14 11.0005C14 10.6967 13.6844 10.3442 13.1344 10.0323C12.4806 9.66234 11.5169 9.36172 10.4206 9.18547C10.3543 9.1768 10.2904 9.15491 10.2326 9.12108C10.1749 9.08726 10.1245 9.0422 10.0846 8.98856C10.0446 8.93492 10.0157 8.8738 9.99979 8.80882C9.98385 8.74384 9.98111 8.67633 9.99173 8.61027C10.0024 8.54421 10.0261 8.48096 10.0617 8.42426C10.0972 8.36756 10.1437 8.31856 10.1985 8.28017C10.2533 8.24178 10.3152 8.21478 10.3807 8.20077C10.4461 8.18675 10.5137 8.18601 10.5794 8.19859C11.8075 8.39547 12.8612 8.72859 13.6275 9.16234C14.7619 9.80484 15 10.5167 15 11.0005Z" fill="black"/>
</svg>
