<svg width="16" height="16" viewBox="0 0 16 16" fill="none" xmlns="http://www.w3.org/2000/svg">
<path d="M13.4981 7.21052C13.36 7.21089 13.222 7.2242 13.0857 7.25033L12.722 6.15467C12.9766 6.087 13.2369 6.05277 13.4981 6.05263C13.6307 6.05263 13.7579 5.99163 13.8517 5.88306C13.9454 5.77449 13.9981 5.62723 13.9981 5.47368C13.9981 5.32014 13.9454 5.17288 13.8517 5.0643C13.7579 4.95573 13.6307 4.89474 13.4981 4.89474H12.3033L11.4652 2.37125C11.429 2.26196 11.3649 2.16798 11.2816 2.1017C11.1982 2.03542 11.0995 1.99996 10.9984 2H8.9986C8.866 2 8.73884 2.061 8.64508 2.16957C8.55132 2.27814 8.49864 2.4254 8.49864 2.57895C8.49864 2.73249 8.55132 2.87975 8.64508 2.98832C8.73884 3.0969 8.866 3.15789 8.9986 3.15789H10.6553L11.2321 4.89474H9.49855C8.34241 4.89474 7.405 5.20664 6.78819 5.79644C6.64304 5.93204 6.46803 6.01792 6.28295 6.0444C6.09786 6.07087 5.91007 6.03687 5.74079 5.94625C5.07961 5.59816 1.94492 4.12256 1.6687 3.99737L1.31186 3.83526C1.21242 3.78492 1.10715 3.75176 0.99939 3.73684C0.882833 3.73717 0.770037 3.78464 0.680501 3.87106C0.590966 3.95748 0.530319 4.07741 0.509044 4.21012C0.48777 4.34282 0.507206 4.47997 0.563991 4.59784C0.620776 4.71571 0.711343 4.80691 0.820033 4.85566C0.84878 4.86868 3.76912 6.18 5.32771 6.99993C5.66767 7.17903 6.044 7.24485 6.41447 7.19001C6.78494 7.13517 7.13488 6.96184 7.425 6.68947C7.72872 6.4 8.33554 6.05263 9.49917 6.05263H10.6753C9.94549 6.73108 9.41731 7.657 9.16483 8.70059C9.10434 8.94024 8.97802 9.15051 8.80502 9.29952C8.63202 9.44853 8.42178 9.52815 8.20617 9.52631H4.949C4.8251 8.82344 4.48025 8.19889 3.9813 7.77372C3.48235 7.34856 2.86484 7.15308 2.2485 7.22518C1.63216 7.29728 1.0609 7.63183 0.645457 8.16396C0.230017 8.69609 0 9.3879 0 10.1053C0 10.8226 0.230017 11.5144 0.645457 12.0466C1.0609 12.5787 1.63216 12.9132 2.2485 12.9853C2.86484 13.0574 3.48235 12.862 3.9813 12.4368C4.48025 12.0116 4.8251 11.3871 4.949 10.6842H8.20617C8.63979 10.6853 9.06191 10.5227 9.40856 10.2211C9.75522 9.9194 10.0075 9.49512 10.1272 9.0125C10.2519 8.49914 10.4629 8.01934 10.7481 7.60059C11.0332 7.18184 11.3869 6.83238 11.7889 6.57223L12.1527 7.66717C11.6459 8.04275 11.2732 8.61735 11.1028 9.28552C10.9324 9.9537 10.9759 10.6706 11.2252 11.3047C11.4745 11.9388 11.9128 12.4474 12.4599 12.7374C13.007 13.0273 13.626 13.0791 14.2033 12.8831C14.7806 12.6872 15.2776 12.2567 15.6029 11.6707C15.9283 11.0846 16.0602 10.3824 15.9745 9.69281C15.8888 9.00323 15.5912 8.37258 15.1363 7.91661C14.6814 7.46064 14.0998 7.20994 13.4981 7.21052ZM2.49924 10.6842H3.91285C3.79491 11.0705 3.56285 11.3961 3.25768 11.6034C2.9525 11.8107 2.59386 11.8864 2.24515 11.8171C1.89644 11.7478 1.5801 11.538 1.35205 11.2247C1.124 10.9115 0.998927 10.515 0.998927 10.1053C0.998927 9.69554 1.124 9.29902 1.35205 8.98577C1.5801 8.67252 1.89644 8.46271 2.24515 8.39343C2.59386 8.32415 2.9525 8.39985 3.25768 8.60716C3.56285 8.81446 3.79491 9.14003 3.91285 9.52631H2.49924C2.36665 9.52631 2.23948 9.58731 2.14572 9.69588C2.05196 9.80445 1.99929 9.95171 1.99929 10.1053C1.99929 10.2588 2.05196 10.4061 2.14572 10.5146C2.23948 10.6232 2.36665 10.6842 2.49924 10.6842ZM13.4981 11.8421C13.1918 11.8417 12.8929 11.7326 12.6417 11.5296C12.3904 11.3265 12.1989 11.0393 12.0929 10.7064C11.9868 10.3736 11.9714 10.0111 12.0485 9.66779C12.1257 9.32446 12.2918 9.01673 12.5245 8.78598L13.0313 10.313C13.0789 10.4563 13.1737 10.5719 13.2949 10.6344C13.4161 10.6968 13.5537 10.7009 13.6775 10.6459C13.8013 10.5908 13.9012 10.481 13.9551 10.3406C14.009 10.2003 14.0125 10.0409 13.965 9.89756L13.4575 8.36842H13.4981C13.8959 8.36842 14.2774 8.5514 14.5587 8.87713C14.84 9.20285 14.998 9.64462 14.998 10.1053C14.998 10.5659 14.84 11.0077 14.5587 11.3334C14.2774 11.6591 13.8959 11.8421 13.4981 11.8421Z" fill="black"/>
</svg>
