<svg width="16" height="16" viewBox="0 0 16 16" fill="none" xmlns="http://www.w3.org/2000/svg">
<path d="M10.2498 5C10.5959 5 10.9343 4.89737 11.222 4.70507C11.5098 4.51278 11.7341 4.23947 11.8666 3.9197C11.999 3.59993 12.0337 3.24806 11.9662 2.90859C11.8987 2.56913 11.732 2.25731 11.4872 2.01256C11.2425 1.76782 10.9307 1.60115 10.5912 1.53363C10.2517 1.4661 9.89987 1.50076 9.5801 1.63321C9.26033 1.76566 8.98702 1.98997 8.79473 2.27775C8.60244 2.56554 8.4998 2.90388 8.4998 3.25C8.4998 3.71413 8.68417 4.15925 9.01236 4.48744C9.34055 4.81563 9.78567 5 10.2498 5ZM10.2498 2.5C10.3981 2.5 10.5431 2.54399 10.6665 2.6264C10.7898 2.70881 10.8859 2.82594 10.9427 2.96299C10.9995 3.10003 11.0143 3.25083 10.9854 3.39632C10.9565 3.5418 10.885 3.67544 10.7801 3.78033C10.6752 3.88522 10.5416 3.95665 10.3961 3.98559C10.2506 4.01453 10.0998 3.99968 9.96279 3.94291C9.82574 3.88614 9.70861 3.79002 9.6262 3.66668C9.54379 3.54334 9.4998 3.39834 9.4998 3.25C9.4998 3.05109 9.57882 2.86032 9.71947 2.71967C9.86012 2.57902 10.0509 2.5 10.2498 2.5ZM15.9298 12.245L12.5198 6.49C12.4319 6.34008 12.3061 6.2159 12.155 6.1299C12.004 6.04391 11.833 5.99911 11.6592 6C11.4854 5.99909 11.3145 6.04389 11.1636 6.12989C11.0126 6.2159 10.887 6.34009 10.7992 6.49L9.16418 9.25L6.36168 4.49375C6.27337 4.34366 6.14739 4.21924 5.99623 4.13279C5.84506 4.04635 5.67394 4.00087 5.4998 4.00087C5.32566 4.00087 5.15454 4.04635 5.00337 4.13279C4.85221 4.21924 4.72623 4.34366 4.63792 4.49375L0.0691742 12.2463C0.0244536 12.3222 0.000593582 12.4086 1.09329e-05 12.4967C-0.000571716 12.5848 0.0221437 12.6715 0.0658563 12.748C0.109569 12.8245 0.172726 12.8881 0.24893 12.9324C0.325135 12.9766 0.41168 13 0.499799 13H15.4998C15.5881 13 15.6747 12.9766 15.751 12.9323C15.8273 12.8879 15.8905 12.8241 15.9342 12.7475C15.9779 12.6708 16.0005 12.5839 15.9997 12.4956C15.9989 12.4074 15.9748 12.3209 15.9298 12.245ZM5.4998 5L6.97293 7.5H4.02667L5.4998 5ZM1.3748 12L3.4373 8.5H7.5623L8.73355 10.4875L9.6248 12H1.3748ZM10.7854 12L9.74417 10.2325L11.6592 7L14.6248 12H10.7854Z" fill="black"/>
</svg>
