<svg width="16" height="16" viewBox="0 0 16 16" fill="none" xmlns="http://www.w3.org/2000/svg">
<path d="M10.6602 4.95652C11.0028 4.95652 11.3377 4.8405 11.6226 4.62313C11.9075 4.40575 12.1295 4.09679 12.2606 3.73531C12.3918 3.37383 12.4261 2.97607 12.3592 2.59232C12.2924 2.20858 12.1274 1.85609 11.8851 1.57942C11.6428 1.30276 11.3342 1.11434 10.9981 1.03801C10.6621 0.961681 10.3138 1.00086 9.99723 1.15059C9.68069 1.30032 9.41014 1.55388 9.21978 1.8792C9.02943 2.20452 8.92783 2.587 8.92783 2.97826C8.92783 3.50293 9.11035 4.00611 9.43522 4.3771C9.7601 4.7481 10.2007 4.95652 10.6602 4.95652ZM10.6602 2.13044C10.807 2.13044 10.9506 2.18016 11.0726 2.27332C11.1947 2.36648 11.2899 2.49889 11.3461 2.65381C11.4023 2.80873 11.417 2.9792 11.3883 3.14366C11.3597 3.30813 11.289 3.4592 11.1851 3.57777C11.0813 3.69634 10.949 3.77708 10.805 3.8098C10.661 3.84251 10.5117 3.82572 10.3761 3.76155C10.2404 3.69738 10.1244 3.58871 10.0429 3.44929C9.96128 3.30986 9.91774 3.14595 9.91774 2.97826C9.91774 2.7534 9.99596 2.53776 10.1352 2.37876C10.2744 2.21976 10.4633 2.13044 10.6602 2.13044ZM2.01828 4.23305C2.03648 4.16179 2.06679 4.09532 2.10749 4.03744C2.14818 3.97957 2.19846 3.93141 2.25545 3.89572C2.31244 3.86003 2.37503 3.8375 2.43964 3.82944C2.50425 3.82137 2.56963 3.82791 2.63202 3.8487L6.94802 5.28647L7.58651 4.55663C7.63248 4.50408 7.68706 4.46239 7.74715 4.43395C7.80724 4.4055 7.87164 4.39086 7.93669 4.39086C8.00173 4.39086 8.06614 4.4055 8.12623 4.43395C8.18631 4.46239 8.2409 4.50408 8.28687 4.55663L10.1225 6.65218H12.3925C12.5238 6.65218 12.6497 6.71173 12.7425 6.81773C12.8353 6.92372 12.8875 7.06749 12.8875 7.21739C12.8875 7.3673 12.8353 7.51106 12.7425 7.61706C12.6497 7.72306 12.5238 7.78261 12.3925 7.78261H9.91774C9.85272 7.78267 9.78833 7.7681 9.72825 7.73973C9.66816 7.71136 9.61356 7.66976 9.56756 7.61729L9.22047 7.21739L2.35299 4.93109C2.22788 4.88864 2.12251 4.79148 2.05982 4.66074C1.99713 4.53001 1.9822 4.37629 2.01828 4.23305ZM14.647 13.1691C14.1222 13.5696 13.5268 13.8338 12.9028 13.943C12.2789 14.0523 11.6415 14.004 11.0357 13.8015L1.36556 10.5854C1.30207 10.5657 1.24265 10.5319 1.19076 10.4857C1.13887 10.4395 1.09556 10.382 1.06336 10.3165C1.03116 10.251 1.01072 10.1788 1.00322 10.1042C0.995729 10.0296 1.00134 9.95401 1.01972 9.88189C1.03809 9.80976 1.06888 9.74255 1.11027 9.68417C1.15166 9.62579 1.20282 9.57741 1.26077 9.54187C1.31872 9.50633 1.38229 9.48434 1.44777 9.47718C1.51324 9.47002 1.57931 9.47783 1.64212 9.50017L6.34418 11.0637L7.98309 9.19565L5.32705 8.32593C5.26453 8.30551 5.20614 8.27124 5.15522 8.22506C5.1043 8.17888 5.06184 8.1217 5.03027 8.05678C4.96651 7.92567 4.95098 7.77101 4.98708 7.62682C5.00495 7.55543 5.03496 7.48875 5.0754 7.4306C5.11584 7.37245 5.16592 7.32397 5.22276 7.28792C5.33757 7.21511 5.47301 7.19737 5.59927 7.23859L9.06394 8.36902C9.14684 8.39605 9.22211 8.44733 9.28231 8.51778C9.34251 8.58824 9.38556 8.67543 9.40718 8.77072C9.42881 8.86601 9.42827 8.9661 9.40561 9.06108C9.38296 9.15606 9.33897 9.24263 9.27801 9.31223L7.42812 11.4247L11.3129 12.7163C11.7799 12.8725 12.2713 12.9097 12.7523 12.8255C13.2334 12.7413 13.6924 12.5376 14.097 12.2288C14.1511 12.1876 14.2117 12.1589 14.2755 12.1445C14.3392 12.1301 14.4049 12.1301 14.4686 12.1447C14.5323 12.1592 14.593 12.1879 14.647 12.2292C14.701 12.2705 14.7474 12.3235 14.7834 12.3853C14.8195 12.447 14.8446 12.5163 14.8572 12.5891C14.8699 12.6619 14.8698 12.7368 14.8571 12.8096C14.8444 12.8824 14.8192 12.9516 14.7831 13.0133C14.7469 13.075 14.7011 13.1279 14.647 13.1691Z" fill="#111111"/>
</svg>
