<svg width="16" height="16" viewBox="0 0 16 16" fill="none" xmlns="http://www.w3.org/2000/svg">
<path d="M11.5 1.5H4.5C3.96957 1.5 3.46086 1.71071 3.08579 2.08579C2.71071 2.46086 2.5 2.96957 2.5 3.5V11.5C2.5 12.0304 2.71071 12.5391 3.08579 12.9142C3.46086 13.2893 3.96957 13.5 4.5 13.5H5L4.1 14.7C4.0606 14.7525 4.03194 14.8123 4.01564 14.8759C3.99935 14.9395 3.99574 15.0057 4.00503 15.0707C4.01431 15.1357 4.03631 15.1982 4.06976 15.2547C4.10322 15.3112 4.14747 15.3606 4.2 15.4C4.25253 15.4394 4.3123 15.4681 4.37591 15.4844C4.43952 15.5007 4.50571 15.5043 4.57071 15.495C4.63571 15.4857 4.69825 15.4637 4.75475 15.4302C4.81125 15.3968 4.8606 15.3525 4.9 15.3L6.25 13.5H9.75L11.1 15.3C11.1796 15.4061 11.298 15.4762 11.4293 15.495C11.5606 15.5137 11.6939 15.4796 11.8 15.4C11.9061 15.3204 11.9762 15.202 11.995 15.0707C12.0137 14.9394 11.9796 14.8061 11.9 14.7L11 13.5H11.5C12.0304 13.5 12.5391 13.2893 12.9142 12.9142C13.2893 12.5391 13.5 12.0304 13.5 11.5V3.5C13.5 2.96957 13.2893 2.46086 12.9142 2.08579C12.5391 1.71071 12.0304 1.5 11.5 1.5ZM4.5 2.5H11.5C11.7652 2.5 12.0196 2.60536 12.2071 2.79289C12.3946 2.98043 12.5 3.23478 12.5 3.5V7.5H3.5V3.5C3.5 3.23478 3.60536 2.98043 3.79289 2.79289C3.98043 2.60536 4.23478 2.5 4.5 2.5ZM11.5 12.5H4.5C4.23478 12.5 3.98043 12.3946 3.79289 12.2071C3.60536 12.0196 3.5 11.7652 3.5 11.5V8.5H12.5V11.5C12.5 11.7652 12.3946 12.0196 12.2071 12.2071C12.0196 12.3946 11.7652 12.5 11.5 12.5ZM6 10.75C6 10.8983 5.95601 11.0433 5.8736 11.1667C5.79119 11.29 5.67406 11.3861 5.53701 11.4429C5.39997 11.4997 5.24917 11.5145 5.10368 11.4856C4.9582 11.4567 4.82456 11.3852 4.71967 11.2803C4.61478 11.1754 4.54335 11.0418 4.51441 10.8963C4.48547 10.7508 4.50032 10.6 4.55709 10.463C4.61386 10.3259 4.70999 10.2088 4.83332 10.1264C4.95666 10.044 5.10166 10 5.25 10C5.44891 10 5.63968 10.079 5.78033 10.2197C5.92098 10.3603 6 10.5511 6 10.75ZM11.5 10.75C11.5 10.8983 11.456 11.0433 11.3736 11.1667C11.2912 11.29 11.1741 11.3861 11.037 11.4429C10.9 11.4997 10.7492 11.5145 10.6037 11.4856C10.4582 11.4567 10.3246 11.3852 10.2197 11.2803C10.1148 11.1754 10.0433 11.0418 10.0144 10.8963C9.98547 10.7508 10.0003 10.6 10.0571 10.463C10.1139 10.3259 10.21 10.2088 10.3333 10.1264C10.4567 10.044 10.6017 10 10.75 10C10.9489 10 11.1397 10.079 11.2803 10.2197C11.421 10.3603 11.5 10.5511 11.5 10.75Z" fill="black"/>
</svg>
