<svg width="16" height="16" viewBox="0 0 16 16" fill="none" xmlns="http://www.w3.org/2000/svg">
<path d="M10.25 5C10.5961 5 10.9345 4.89737 11.2222 4.70507C11.51 4.51278 11.7343 4.23947 11.8668 3.9197C11.9992 3.59993 12.0339 3.24806 11.9664 2.90859C11.8989 2.56913 11.7322 2.25731 11.4874 2.01256C11.2427 1.76782 10.9309 1.60115 10.5914 1.53363C10.2519 1.4661 9.90008 1.50076 9.58031 1.63321C9.26054 1.76566 8.98722 1.98997 8.79493 2.27775C8.60264 2.56554 8.5 2.90388 8.5 3.25C8.5 3.71413 8.68438 4.15925 9.01256 4.48744C9.34075 4.81563 9.78587 5 10.25 5ZM10.25 2.5C10.3983 2.5 10.5433 2.54399 10.6667 2.6264C10.79 2.70881 10.8861 2.82594 10.9429 2.96299C10.9997 3.10003 11.0145 3.25083 10.9856 3.39632C10.9567 3.5418 10.8852 3.67544 10.7803 3.78033C10.6754 3.88522 10.5418 3.95665 10.3963 3.98559C10.2508 4.01453 10.1 3.99968 9.96299 3.94291C9.82594 3.88614 9.70881 3.79002 9.6264 3.66668C9.54399 3.54334 9.5 3.39834 9.5 3.25C9.5 3.05109 9.57902 2.86032 9.71967 2.71967C9.86032 2.57902 10.0511 2.5 10.25 2.5ZM12.5 8.5C12.0055 8.5 11.5222 8.64662 11.1111 8.92133C10.7 9.19603 10.3795 9.58648 10.1903 10.0433C10.0011 10.5001 9.95158 11.0028 10.048 11.4877C10.1445 11.9727 10.3826 12.4181 10.7322 12.7678C11.0819 13.1174 11.5273 13.3555 12.0123 13.452C12.4972 13.5484 12.9999 13.4989 13.4567 13.3097C13.9135 13.1205 14.304 12.8001 14.5787 12.3889C14.8534 11.9778 15 11.4945 15 11C15 10.337 14.7366 9.70108 14.2678 9.23223C13.7989 8.76339 13.163 8.5 12.5 8.5ZM12.5 12.5C12.2033 12.5 11.9133 12.412 11.6666 12.2472C11.42 12.0824 11.2277 11.8481 11.1142 11.574C11.0007 11.2999 10.9709 10.9983 11.0288 10.7074C11.0867 10.4164 11.2296 10.1491 11.4393 9.93934C11.6491 9.72956 11.9164 9.5867 12.2074 9.52882C12.4983 9.47095 12.7999 9.50065 13.074 9.61418C13.3481 9.72771 13.5824 9.91997 13.7472 10.1666C13.912 10.4133 14 10.7033 14 11C14 11.3978 13.842 11.7794 13.5607 12.0607C13.2794 12.342 12.8978 12.5 12.5 12.5ZM3.5 8.5C3.00555 8.5 2.5222 8.64662 2.11108 8.92133C1.69995 9.19603 1.37952 9.58648 1.1903 10.0433C1.00108 10.5001 0.951575 11.0028 1.04804 11.4877C1.1445 11.9727 1.3826 12.4181 1.73223 12.7678C2.08187 13.1174 2.52732 13.3555 3.01228 13.452C3.49723 13.5484 3.99989 13.4989 4.45671 13.3097C4.91353 13.1205 5.30397 12.8001 5.57868 12.3889C5.85338 11.9778 6 11.4945 6 11C6 10.6717 5.93534 10.3466 5.8097 10.0433C5.68406 9.73998 5.49992 9.46438 5.26777 9.23223C5.03562 9.00009 4.76002 8.81594 4.45671 8.6903C4.1534 8.56467 3.82831 8.5 3.5 8.5ZM3.5 12.5C3.20333 12.5 2.91332 12.412 2.66665 12.2472C2.41997 12.0824 2.22771 11.8481 2.11418 11.574C2.00065 11.2999 1.97095 10.9983 2.02882 10.7074C2.0867 10.4164 2.22956 10.1491 2.43934 9.93934C2.64912 9.72956 2.91639 9.5867 3.20737 9.52882C3.49834 9.47095 3.79994 9.50065 4.07403 9.61418C4.34812 9.72771 4.58238 9.91997 4.74721 10.1666C4.91203 10.4133 5 10.7033 5 11C5 11.3978 4.84197 11.7794 4.56066 12.0607C4.27936 12.342 3.89783 12.5 3.5 12.5ZM12 7.5H9.5C9.43432 7.50005 9.36927 7.48716 9.30858 7.46207C9.24788 7.43698 9.19272 7.40017 9.14625 7.35375L7.5 5.70688L6.20688 7L8.35375 9.14625C8.40017 9.19272 8.43698 9.24788 8.46207 9.30858C8.48716 9.36927 8.50005 9.43432 8.5 9.5V12.5C8.5 12.6326 8.44732 12.7598 8.35356 12.8536C8.25979 12.9473 8.13261 13 8 13C7.86739 13 7.74022 12.9473 7.64645 12.8536C7.55268 12.7598 7.5 12.6326 7.5 12.5V9.70688L5.14625 7.35375C5.09976 7.30732 5.06288 7.25217 5.03772 7.19147C5.01256 7.13077 4.99961 7.06571 4.99961 7C4.99961 6.93429 5.01256 6.86923 5.03772 6.80853C5.06288 6.74783 5.09976 6.69269 5.14625 6.64625L7.14625 4.64625C7.19269 4.59976 7.24783 4.56288 7.30853 4.53772C7.36923 4.51256 7.43429 4.49961 7.5 4.49961C7.56571 4.49961 7.63077 4.51256 7.69147 4.53772C7.75217 4.56288 7.80732 4.59976 7.85375 4.64625L9.70688 6.5H12C12.1326 6.5 12.2598 6.55268 12.3536 6.64645C12.4473 6.74022 12.5 6.86739 12.5 7C12.5 7.13261 12.4473 7.25979 12.3536 7.35355C12.2598 7.44732 12.1326 7.5 12 7.5Z" fill="black"/>
</svg>
