<svg width="16" height="16" viewBox="0 0 16 16" fill="none" xmlns="http://www.w3.org/2000/svg">
<path d="M3.54265 13H11.4574C12.4858 13 13 12.6832 13 12.0497C13 11.6616 12.8741 11.2479 12.6222 10.8083C12.3704 10.3688 12.0062 9.95402 11.5298 9.56399C11.0534 9.17397 10.4762 8.8562 9.79823 8.61069C9.12033 8.36518 8.3553 8.24242 7.50317 8.24242C6.64684 8.24242 5.87971 8.36518 5.20178 8.61069C4.52386 8.8562 3.94667 9.17397 3.47024 9.56399C2.9938 9.95402 2.62965 10.3688 2.37779 10.8083C2.12593 11.2479 2 11.6616 2 12.0497C2 12.6832 2.51422 13 3.54265 13ZM3.24671 12.1031C3.16276 12.1031 3.10294 12.0913 3.06726 12.0675C3.03158 12.0437 3.01374 12.0002 3.01374 11.9369C3.01374 11.6953 3.11134 11.4152 3.30653 11.0964C3.50172 10.7776 3.79031 10.4698 4.1723 10.1728C4.55429 9.8758 5.02443 9.62929 5.58272 9.43329C6.14102 9.23728 6.78116 9.13928 7.50317 9.13928C8.22515 9.13928 8.86425 9.23728 9.42046 9.43329C9.97664 9.62929 10.4457 9.8758 10.8277 10.1728C11.2097 10.4698 11.4983 10.7776 11.6935 11.0964C11.8887 11.4152 11.9863 11.6953 11.9863 11.9369C11.9863 12.0002 11.9685 12.0437 11.9328 12.0675C11.8971 12.0913 11.8394 12.1031 11.7596 12.1031H3.24671ZM7.50317 7.50594C8.00269 7.50594 8.45814 7.37923 8.86951 7.12581C9.28087 6.87239 9.60934 6.53483 9.85491 6.11312C10.1005 5.69141 10.2233 5.22516 10.2233 4.71437C10.2233 4.20753 10.1015 3.74919 9.85806 3.33936C9.6146 2.92953 9.28719 2.60385 8.87583 2.36231C8.46444 2.12077 8.00689 2 7.50317 2C7.00364 2 6.54819 2.12275 6.13682 2.36825C5.72544 2.61375 5.39697 2.9424 5.15141 3.35421C4.90585 3.76602 4.78307 4.22336 4.78307 4.72624C4.78307 5.23308 4.90585 5.69736 5.15141 6.11906C5.39697 6.54077 5.72544 6.87734 6.13682 7.12878C6.54819 7.38022 7.00364 7.50594 7.50317 7.50594ZM7.50317 6.60907C7.19674 6.60907 6.91444 6.52493 6.65628 6.35664C6.39812 6.18835 6.19034 5.96166 6.03292 5.67657C5.87551 5.39147 5.7968 5.07469 5.7968 4.72624C5.7968 4.38175 5.87446 4.07191 6.02978 3.79671C6.18509 3.52151 6.39183 3.30274 6.64998 3.14039C6.90814 2.97804 7.19254 2.89687 7.50317 2.89687C7.81799 2.89687 8.10448 2.97606 8.36264 3.13445C8.62082 3.29283 8.82651 3.50963 8.9797 3.78483C9.1329 4.06003 9.2095 4.36987 9.2095 4.71437C9.2095 5.06282 9.13184 5.38058 8.97654 5.66766C8.82124 5.95474 8.61451 6.18341 8.35634 6.35367C8.09818 6.52394 7.81379 6.60907 7.50317 6.60907Z" fill="#111111"/>
</svg>
