<svg width="24" height="24" viewBox="0 0 24 24" fill="none" xmlns="http://www.w3.org/2000/svg">
<path d="M15.8571 7.125C16.4505 7.125 17.0305 6.94539 17.5239 6.60888C18.0172 6.27236 18.4017 5.79407 18.6288 5.23447C18.8558 4.67487 18.9153 4.0591 18.7995 3.46504C18.6837 2.87097 18.398 2.32529 17.9785 1.89699C17.5589 1.46869 17.0244 1.17701 16.4424 1.05885C15.8605 0.940679 15.2573 1.00133 14.7091 1.23312C14.1609 1.46491 13.6924 1.85744 13.3627 2.36107C13.0331 2.86469 12.8571 3.4568 12.8571 4.0625C12.8571 4.87473 13.1732 5.65368 13.7358 6.22801C14.2984 6.80234 15.0615 7.125 15.8571 7.125ZM15.8571 2.75C16.1114 2.75 16.36 2.82698 16.5714 2.9712C16.7829 3.11542 16.9477 3.3204 17.045 3.56023C17.1423 3.80006 17.1678 4.06396 17.1182 4.31856C17.0685 4.57316 16.9461 4.80702 16.7663 4.99058C16.5865 5.17413 16.3574 5.29914 16.108 5.34978C15.8586 5.40042 15.6001 5.37443 15.3651 5.27509C15.1302 5.17575 14.9294 5.00753 14.7881 4.79169C14.6468 4.57585 14.5714 4.32209 14.5714 4.0625C14.5714 3.7144 14.7069 3.38056 14.948 3.13442C15.1891 2.88828 15.5162 2.75 15.8571 2.75ZM19.7143 13.25C18.8667 13.25 18.0381 13.5066 17.3333 13.9873C16.6285 14.4681 16.0792 15.1513 15.7548 15.9508C15.4304 16.7502 15.3456 17.6299 15.5109 18.4785C15.6763 19.3272 16.0845 20.1067 16.6838 20.7186C17.2832 21.3304 18.0468 21.7471 18.8782 21.9159C19.7095 22.0847 20.5712 21.9981 21.3544 21.667C22.1375 21.3358 22.8068 20.7751 23.2777 20.0556C23.7486 19.3362 24 18.4903 24 17.625C24 16.4647 23.5485 15.3519 22.7447 14.5314C21.941 13.7109 20.8509 13.25 19.7143 13.25ZM19.7143 20.25C19.2057 20.25 18.7085 20.096 18.2857 19.8076C17.8628 19.5192 17.5332 19.1092 17.3386 18.6295C17.144 18.1499 17.093 17.6221 17.1923 17.1129C17.2915 16.6037 17.5364 16.136 17.896 15.7688C18.2556 15.4017 18.7138 15.1517 19.2126 15.0504C19.7114 14.9492 20.2285 15.0011 20.6983 15.1998C21.1682 15.3985 21.5698 15.7349 21.8524 16.1666C22.1349 16.5983 22.2857 17.1058 22.2857 17.625C22.2857 18.3212 22.0148 18.9889 21.5326 19.4812C21.0503 19.9734 20.3963 20.25 19.7143 20.25ZM4.28572 13.25C3.43808 13.25 2.60948 13.5066 1.9047 13.9873C1.19992 14.4681 0.650608 15.1513 0.326232 15.9508C0.00185693 16.7502 -0.0830145 17.6299 0.0823507 18.4785C0.247716 19.3272 0.655891 20.1067 1.25526 20.7186C1.85463 21.3304 2.61827 21.7471 3.44961 21.9159C4.28096 22.0847 5.14268 21.9981 5.92579 21.667C6.7089 21.3358 7.37824 20.7751 7.84916 20.0556C8.32008 19.3362 8.57143 18.4903 8.57143 17.625C8.57143 17.0505 8.46058 16.4816 8.2452 15.9508C8.02982 15.42 7.71414 14.9377 7.31617 14.5314C6.91821 14.1252 6.44575 13.8029 5.92579 13.583C5.40582 13.3632 4.84852 13.25 4.28572 13.25ZM4.28572 20.25C3.77714 20.25 3.27998 20.096 2.85711 19.8076C2.43424 19.5192 2.10465 19.1092 1.91003 18.6295C1.7154 18.1499 1.66448 17.6221 1.7637 17.1129C1.86292 16.6037 2.10782 16.136 2.46744 15.7688C2.82706 15.4017 3.28525 15.1517 3.78406 15.0504C4.28286 14.9492 4.79989 15.0011 5.26976 15.1998C5.73963 15.3985 6.14123 15.7349 6.42378 16.1666C6.70633 16.5983 6.85714 17.1058 6.85714 17.625C6.85714 18.3212 6.58623 18.9889 6.10399 19.4812C5.62175 19.9734 4.9677 20.25 4.28572 20.25ZM18.8571 11.5H14.5714C14.4588 11.5001 14.3473 11.4775 14.2433 11.4336C14.1392 11.3897 14.0447 11.3253 13.965 11.2441L11.1429 8.36203L8.92607 10.625L12.6064 14.3809C12.686 14.4623 12.7491 14.5588 12.7921 14.665C12.8351 14.7712 12.8572 14.8851 12.8571 15V20.25C12.8571 20.4821 12.7668 20.7046 12.6061 20.8687C12.4453 21.0328 12.2273 21.125 12 21.125C11.7727 21.125 11.5547 21.0328 11.3939 20.8687C11.2332 20.7046 11.1429 20.4821 11.1429 20.25V15.362L7.10786 11.2441C7.02816 11.1628 6.96494 11.0663 6.92181 10.9601C6.87867 10.8538 6.85647 10.74 6.85647 10.625C6.85647 10.51 6.87867 10.3962 6.92181 10.2899C6.96494 10.1837 7.02816 10.0872 7.10786 10.0059L10.5364 6.50594C10.616 6.42458 10.7106 6.36004 10.8146 6.31601C10.9187 6.27198 11.0302 6.24931 11.1429 6.24931C11.2555 6.24931 11.367 6.27198 11.4711 6.31601C11.5751 6.36004 11.6697 6.42458 11.7493 6.50594L14.9261 9.75H18.8571C19.0845 9.75 19.3025 9.84219 19.4632 10.0063C19.624 10.1704 19.7143 10.3929 19.7143 10.625C19.7143 10.8571 19.624 11.0796 19.4632 11.2437C19.3025 11.4078 19.0845 11.5 18.8571 11.5Z" fill="#111111"/>
</svg>
