<svg width="16" height="16" viewBox="0 0 16 16" fill="none" xmlns="http://www.w3.org/2000/svg">
<path d="M9.7804 5C10.2049 5 10.6199 4.8827 10.9729 4.66294C11.3258 4.44318 11.601 4.13082 11.7634 3.76537C11.9259 3.39991 11.9684 2.99778 11.8856 2.60982C11.8027 2.22186 11.5983 1.86549 11.2981 1.58579C10.998 1.30608 10.6155 1.1156 10.1991 1.03843C9.78278 0.96126 9.35121 1.00087 8.95901 1.15224C8.5668 1.30362 8.23158 1.55996 7.99573 1.88886C7.75988 2.21776 7.634 2.60444 7.634 3C7.634 3.53043 7.86014 4.03914 8.26266 4.41421C8.66519 4.78929 9.21114 5 9.7804 5ZM9.7804 2C9.99266 2 10.2002 2.05865 10.3766 2.16853C10.5531 2.27841 10.6907 2.43459 10.7719 2.61732C10.8531 2.80004 10.8744 3.00111 10.833 3.19509C10.7916 3.38907 10.6894 3.56725 10.5393 3.70711C10.3892 3.84696 10.198 3.9422 9.98977 3.98079C9.78159 4.01937 9.5658 3.99957 9.3697 3.92388C9.1736 3.84819 9.00599 3.72002 8.88807 3.55557C8.77014 3.39112 8.7072 3.19778 8.7072 3C8.7072 2.73478 8.82027 2.48043 9.02153 2.29289C9.2228 2.10536 9.49577 2 9.7804 2ZM13 9V14.5C13 14.6326 12.9435 14.7598 12.8428 14.8536C12.7422 14.9473 12.6057 15 12.4634 15C12.3211 15 12.1846 14.9473 12.084 14.8536C11.9833 14.7598 11.9268 14.6326 11.9268 14.5V9.47875C10.1996 9.33813 9.62277 8.50875 9.10965 7.76875C8.91849 7.49437 8.73671 7.23312 8.49725 7.00688L7.59845 8.9325L10.0936 10.5931C10.1629 10.6395 10.2193 10.7006 10.2581 10.7714C10.297 10.8421 10.3172 10.9205 10.317 11V14.5C10.317 14.6326 10.2605 14.7598 10.1598 14.8536C10.0592 14.9473 9.92271 15 9.7804 15C9.63808 15 9.5016 14.9473 9.40096 14.8536C9.30033 14.7598 9.2438 14.6326 9.2438 14.5V11.2575L7.15978 9.87L4.90673 14.6994C4.86503 14.7887 4.79622 14.8648 4.70875 14.9182C4.62128 14.9716 4.51897 15 4.4144 15C4.34071 15.0002 4.26782 14.9859 4.20043 14.9581C4.0701 14.9052 3.96766 14.8062 3.9156 14.6829C3.86353 14.5596 3.8661 14.4221 3.92274 14.3006L7.78089 6.03125C7.81018 5.96852 7.85298 5.91205 7.90663 5.86535C7.96028 5.81865 8.02365 5.7827 8.09281 5.75973C8.16198 5.73677 8.23546 5.72727 8.30872 5.73183C8.38198 5.73639 8.45345 5.75491 8.51872 5.78625C8.71149 5.88 8.89162 5.99476 9.05532 6.12812C9.48259 6.47312 9.76028 6.8725 10.0051 7.225C10.5202 7.965 10.8918 8.5 12.46 8.5C12.5308 8.49959 12.6009 8.51222 12.6664 8.53716C12.7319 8.5621 12.7915 8.59887 12.8416 8.64534C12.8918 8.69181 12.9317 8.74707 12.9588 8.80793C12.986 8.8688 13 8.93408 13 9ZM4.4144 9.5C4.51939 9.49995 4.62206 9.47121 4.70969 9.41733C4.79732 9.36345 4.86606 9.2868 4.9074 9.19687L6.5172 5.69688C6.57317 5.57504 6.57494 5.43747 6.52212 5.31442C6.46929 5.19136 6.3662 5.09289 6.23548 5.04063L4.35738 4.29063C4.22663 4.23847 4.07899 4.23682 3.94693 4.28604C3.81487 4.33527 3.70918 4.43133 3.6531 4.55312L2.0433 8.05312C1.98732 8.17496 1.98555 8.31253 2.03838 8.43558C2.0912 8.55864 2.1943 8.65711 2.32501 8.70937L4.20311 9.45937C4.26986 9.4861 4.34174 9.49993 4.4144 9.5ZM3.24126 7.9875L4.42781 5.40625L5.31991 5.7625L4.13268 8.34312L3.24126 7.9875Z" fill="#111111"/>
</svg>
