<svg width="24" height="24" viewBox="0 0 24 24" fill="none" xmlns="http://www.w3.org/2000/svg">
<path d="M1.30385 23.5651C1.45 23.5651 1.6 23.5409 1.75385 23.4926C1.9077 23.4443 2.07692 23.3681 2.26154 23.264L8.13462 20.2088L14.5154 23.6654C14.9308 23.8885 15.3615 24 15.8077 24C16.2308 24 16.6154 23.9034 16.9616 23.7101L22.9962 20.3984C23.3423 20.2125 23.5961 19.9839 23.7577 19.7126C23.9192 19.4412 24 19.1197 24 18.7481V3.72833C24 3.31948 23.8865 3.00355 23.6596 2.78054C23.4327 2.55753 23.1115 2.44602 22.6962 2.44602C22.55 2.44602 22.4 2.47018 22.2461 2.5185C22.0923 2.56682 21.9192 2.6393 21.727 2.73593L15.6115 6.02534L9.34616 2.31222C8.99231 2.10407 8.60385 2 8.18077 2C7.75 2 7.35384 2.10407 6.99231 2.31222L0.992308 5.61277C0.653846 5.79861 0.403846 6.02719 0.242308 6.29853C0.0807692 6.56985 0 6.89508 0 7.2742V22.2716C0 22.6879 0.113462 23.0076 0.340385 23.2306C0.567308 23.4536 0.888463 23.5651 1.30385 23.5651ZM7.38462 18.4358L2.18077 21.2012C2.10385 21.2383 2.04616 21.2569 2.00769 21.2569C1.9077 21.2569 1.8577 21.1975 1.8577 21.0786V7.70907C1.8577 7.57526 1.88654 7.45818 1.94423 7.35782C2.00192 7.25747 2.1 7.17013 2.23846 7.09579L6.96923 4.41966C7.04615 4.38249 7.1173 4.34532 7.18269 4.30815C7.24808 4.27099 7.31539 4.23382 7.38462 4.19665V18.4358ZM9.24231 18.6143V4.43082C9.30385 4.46055 9.36539 4.49214 9.42693 4.52559C9.48846 4.55904 9.55 4.59436 9.61154 4.63153L14.7577 7.66447V21.6026C14.6731 21.558 14.5885 21.5153 14.5039 21.4744C14.4193 21.4335 14.3346 21.3908 14.2499 21.3462L9.24231 18.6143ZM16.6154 21.8034V7.55296L21.8192 4.80993C21.8962 4.77276 21.95 4.75418 21.9808 4.75418C22.0346 4.75418 22.075 4.76905 22.102 4.79878C22.1288 4.82851 22.1423 4.87311 22.1423 4.93259V18.302C22.1423 18.4358 22.1134 18.5548 22.0558 18.6588C21.9981 18.763 21.9001 18.8522 21.7616 18.9265L17.1347 21.5245C17.05 21.5766 16.9634 21.625 16.875 21.6696C16.7865 21.7142 16.7 21.7588 16.6154 21.8034Z" fill="#111111"/>
</svg>
