<svg width="24" height="24" viewBox="0 0 24 24" fill="none" xmlns="http://www.w3.org/2000/svg">
<path d="M15.1508 14.3734L15.3353 14.1725C15.5704 13.9164 15.7383 13.6026 15.809 13.2592L15.8507 13.0568V10.3689C15.8508 9.47205 17.0124 9.1797 17.466 9.90615L18.1934 11.0683L18.2535 11.164L18.3 11.1482V9.2C18.3 8.95997 18.1797 8.74752 17.989 8.62031L17.4079 8.23271L17.695 7.8H16.5507C15.3911 7.80004 14.4515 8.73942 14.4515 9.9V10.95H12.0022V9.2C12.0021 9.09817 11.9795 8.99769 11.9366 8.90537C11.8935 8.81291 11.8306 8.7304 11.7527 8.66475C11.6748 8.59924 11.5836 8.55121 11.4854 8.52461C11.3872 8.498 11.2842 8.49367 11.1839 8.51094L11.1778 8.51162C10.8803 8.56021 10.6029 8.86736 10.6029 9.27725V10.95H9.72791C9.50428 10.95 9.30425 10.9953 9.1455 11.0683L8.76065 11.2453L8.42501 10.9855C8.19387 10.807 7.93472 10.6891 7.7011 10.6424L7.69631 10.6417L7.69153 10.6403C7.30246 10.5566 6.82322 10.5991 6.37017 10.9062C5.96128 11.1884 5.71891 11.7409 5.70436 12.1504L5.70368 12.1586V12.1661C5.6782 12.6096 5.80728 13.0045 5.94019 13.3296L6.30318 14.1041L6.31069 14.1205L6.31753 14.1369C6.42723 14.4063 6.51178 14.7472 6.44536 15.165C6.62444 14.9289 6.76574 14.5891 6.78305 14.2784L6.78373 14.2634L6.7851 14.249C6.82657 13.8219 6.7614 13.492 6.73451 13.0979C6.71073 12.8283 6.72308 12.5915 6.77758 12.3869L8.15363 12.5482C8.16108 12.8242 8.24022 13.0936 8.38331 13.3296C8.52641 13.5656 8.72872 13.7602 8.96982 13.8942L9.58505 14.236L8.5255 16.1166L8.51182 16.1398C8.50981 16.1431 8.49154 16.1754 8.49884 16.28L8.91855 18.3H9.2747L8.91514 16.483L8.86592 16.2308L8.99033 16.0065L10.0143 14.1684L13.5963 14.7658C13.7397 14.7873 13.8387 14.8 13.9265 14.8V15.5C13.853 15.5 13.7796 15.4949 13.707 15.487L13.4931 15.4583L10.3855 14.9401L9.60214 16.347L10.1271 19H8.34982L7.80363 16.375C7.78264 16.165 7.80378 15.9548 7.91574 15.7728L8.6294 14.5061C8.28198 14.3129 7.99063 14.0326 7.78449 13.6926C7.57835 13.3526 7.46435 12.9642 7.45364 12.5667C7.42565 12.6717 7.41214 12.826 7.43313 13.05C7.45412 13.3579 7.53059 13.8128 7.48167 14.3167C7.45368 14.8206 7.22313 15.3388 6.92934 15.6818L6.81518 15.8056C6.54579 16.0835 6.25533 16.2854 5.94908 16.4447L5.45964 15.9553C5.57598 15.6674 5.69184 15.406 5.73785 15.1623L5.75358 15.0591C5.79556 14.8001 5.74647 14.5898 5.6695 14.4008L5.29831 13.6099C5.15138 13.2529 4.96939 12.7347 5.00437 12.1258C5.02543 11.5309 5.35456 10.7542 5.97711 10.3272C6.60683 9.90029 7.28571 9.83711 7.8385 9.95605C8.14478 10.0173 8.45659 10.1537 8.73604 10.3464L8.85361 10.4318C9.11242 10.3129 9.41319 10.25 9.72791 10.25H9.90291V9.27725C9.90291 8.62099 10.3212 8.01344 10.9385 7.84785L11.0643 7.82119C11.2652 7.78652 11.4718 7.79591 11.6686 7.84922C11.8653 7.90253 12.0479 7.99823 12.2038 8.12949C12.3598 8.2608 12.4856 8.42455 12.5716 8.60938C12.6577 8.79426 12.7021 8.99606 12.7022 9.2V10.25H13.7515V9.9C13.7515 8.35303 15.0043 7.10004 16.5507 7.1H19L18.3773 8.03789C18.7551 8.28989 19 8.717 19 9.2V11.65L18.2795 11.8947C18.2206 12.3116 18.0132 12.6936 17.6957 12.97C17.3783 13.2465 16.9716 13.3991 16.5507 13.4H16.4947C16.3967 13.876 16.1656 14.3032 15.8507 14.6462V19H14.1015V15.5H13.9265V14.8H14.8014V18.3H15.1508V14.3734ZM12.0022 6.05C12.0022 5.85539 11.8462 5.7 11.6522 5.7C11.4583 5.70013 11.3029 5.85548 11.3029 6.05C11.3029 6.24452 11.4583 6.39987 11.6522 6.4V7.1C11.1077 7.09988 10.6619 6.68759 10.6084 6.15732L10.6029 6.05C10.6029 5.46908 11.0715 5.00013 11.6522 5C12.233 5 12.7022 5.469 12.7022 6.05L12.6967 6.15732C12.6432 6.68768 12.1968 7.1 11.6522 7.1V6.4C11.8462 6.4 12.0022 6.24461 12.0022 6.05ZM16.5507 12.7C17.0953 12.7 17.5417 12.2877 17.5952 11.7573L17.6007 11.65V11.4401L16.9294 10.3689L16.8727 10.278C16.7817 10.131 16.5508 10.194 16.5507 10.3689V12.7Z" fill="#111111"/>
</svg>
