<svg width="24" height="24" viewBox="0 0 24 24" fill="none" xmlns="http://www.w3.org/2000/svg">
<path d="M16.0229 7.39131C16.5912 7.39131 17.1467 7.20389 17.6192 6.85274C18.0917 6.5016 18.46 6.00251 18.6775 5.41858C18.895 4.83465 18.9519 4.19211 18.841 3.57221C18.7301 2.95232 18.4565 2.38291 18.0546 1.93599C17.6528 1.48907 17.1408 1.18471 16.5834 1.06141C16.0261 0.9381 15.4483 1.00138 14.9233 1.24326C14.3983 1.48513 13.9495 1.89472 13.6338 2.42024C13.3181 2.94577 13.1495 3.56361 13.1495 4.19565C13.1495 5.04319 13.4523 5.85602 13.9911 6.45532C14.53 7.05462 15.2608 7.39131 16.0229 7.39131ZM16.0229 2.82609C16.2664 2.82609 16.5045 2.90641 16.707 3.0569C16.9095 3.20739 17.0674 3.42129 17.1606 3.67154C17.2538 3.9218 17.2782 4.19717 17.2307 4.46284C17.1831 4.72851 17.0659 4.97255 16.8936 5.16408C16.7214 5.35562 16.502 5.48606 16.2631 5.5389C16.0242 5.59175 15.7766 5.56463 15.5516 5.46097C15.3266 5.35731 15.1343 5.18177 14.999 4.95654C14.8637 4.73132 14.7914 4.46653 14.7914 4.19565C14.7914 3.83242 14.9212 3.48407 15.1521 3.22723C15.3831 2.97038 15.6963 2.82609 16.0229 2.82609ZM1.68898 6.22261C1.71916 6.10751 1.76944 6.00014 1.83694 5.90664C1.90443 5.81314 1.98782 5.73535 2.08235 5.6777C2.17688 5.62004 2.28069 5.58366 2.38787 5.57063C2.49504 5.5576 2.60347 5.56817 2.70696 5.60174L9.8657 7.9243L10.9247 6.74533C11.001 6.66044 11.0915 6.59309 11.1912 6.54714C11.2909 6.5012 11.3977 6.47755 11.5056 6.47755C11.6135 6.47755 11.7203 6.5012 11.8199 6.54714C11.9196 6.59309 12.0101 6.66044 12.0864 6.74533L15.1311 10.1304H18.8962C19.114 10.1304 19.3228 10.2266 19.4767 10.3979C19.6307 10.5691 19.7172 10.8013 19.7172 11.0435C19.7172 11.2856 19.6307 11.5179 19.4767 11.6891C19.3228 11.8603 19.114 11.9565 18.8962 11.9565H14.7914C14.6836 11.9566 14.5768 11.9331 14.4771 11.8873C14.3775 11.8414 14.2869 11.7742 14.2106 11.6895L13.6349 11.0435L2.24415 7.35022C2.03662 7.28165 1.86185 7.12469 1.75788 6.91351C1.6539 6.70232 1.62914 6.454 1.68898 6.22261ZM22.6357 20.6578C21.7651 21.3048 20.7776 21.7315 19.7427 21.908C18.7078 22.0845 17.6506 22.0064 16.6458 21.6793L0.606341 16.4841C0.501033 16.4524 0.402467 16.3976 0.316403 16.323C0.230339 16.2485 0.158504 16.1556 0.105095 16.0498C0.0516862 15.9439 0.0177758 15.8274 0.00534566 15.7068C-0.00708446 15.5863 0.00221496 15.4642 0.0327005 15.3477C0.063186 15.2312 0.114246 15.1226 0.182896 15.0283C0.251547 14.934 0.33641 14.8558 0.432527 14.7984C0.528644 14.741 0.634086 14.7055 0.74269 14.6939C0.851294 14.6823 0.960883 14.695 1.06505 14.731L8.86414 17.2567L11.5825 14.2391L7.17707 12.8342C7.07337 12.8012 6.97653 12.7458 6.89207 12.6713C6.80761 12.5967 6.73719 12.5043 6.68482 12.3994C6.57907 12.1876 6.5533 11.9378 6.61318 11.7049C6.64283 11.5895 6.69261 11.4818 6.75968 11.3879C6.82676 11.294 6.90981 11.2156 7.0041 11.1574C7.19453 11.0398 7.41917 11.0111 7.6286 11.0777L13.3753 12.9038C13.5128 12.9475 13.6376 13.0303 13.7375 13.1441C13.8373 13.2579 13.9087 13.3988 13.9446 13.5527C13.9805 13.7066 13.9796 13.8683 13.942 14.0217C13.9044 14.1752 13.8315 14.315 13.7304 14.4275L10.662 17.84L17.1055 19.9263C17.8802 20.1786 18.6952 20.2388 19.4931 20.1028C20.291 19.9667 21.0523 19.6376 21.7234 19.1388C21.8131 19.0722 21.9137 19.026 22.0194 19.0027C22.1252 18.9793 22.234 18.9794 22.3398 19.0029C22.4455 19.0264 22.546 19.0728 22.6356 19.1395C22.7252 19.2062 22.8021 19.2918 22.862 19.3916C22.9218 19.4913 22.9634 19.6032 22.9843 19.7208C23.0053 19.8384 23.0052 19.9595 22.9841 20.0771C22.963 20.1946 22.9213 20.3064 22.8613 20.4061C22.8014 20.5057 22.7243 20.5913 22.6347 20.6578H22.6357Z" fill="black"/>
</svg>
