<svg width="24" height="24" viewBox="0 0 24 24" fill="none" xmlns="http://www.w3.org/2000/svg">
<path d="M23.9353 17.6953L17.9353 4.19531C17.8764 4.06276 17.7803 3.95015 17.6586 3.87111C17.537 3.79207 17.3951 3.75 17.25 3.75H6.74999C6.60619 3.75024 6.46549 3.79181 6.34465 3.86976C6.22381 3.94772 6.12793 4.05877 6.06843 4.18969V4.19531V4.20656L0.0646787 17.6953C0.0139116 17.8095 -0.00751847 17.9346 0.00233557 18.0591C0.0121896 18.1837 0.0530154 18.3039 0.121104 18.4086C0.189192 18.5134 0.282384 18.5995 0.392213 18.6592C0.502042 18.7188 0.625026 18.75 0.749991 18.75H23.25C23.375 18.75 23.4979 18.7188 23.6078 18.6592C23.7176 18.5995 23.8108 18.5134 23.8789 18.4086C23.947 18.3039 23.9878 18.1837 23.9976 18.0591C24.0075 17.9346 23.9861 17.8095 23.9353 17.6953ZM5.99999 17.25H1.90405L5.99999 8.03437V17.25ZM7.49999 17.25V8.03437L11.5959 17.25H7.49999ZM13.2375 17.25L7.90405 5.25H16.7625L22.0959 17.25H13.2375Z" fill="black"/>
</svg>
