<svg width="16" height="16" viewBox="0 0 16 16" fill="none" xmlns="http://www.w3.org/2000/svg">
<path d="M15.9569 12.2969L11.9569 3.29688C11.9176 3.20851 11.8535 3.13343 11.7724 3.08074C11.6913 3.02805 11.5967 3 11.5 3H4.5C4.40413 3.00016 4.31033 3.02787 4.22977 3.07984C4.14921 3.13181 4.08529 3.20585 4.04562 3.29312V3.29688V3.30437L0.0431192 12.2969C0.00927442 12.373 -0.00501232 12.4564 0.00155705 12.5394C0.00812642 12.6225 0.0353437 12.7026 0.0807358 12.7724C0.126128 12.8423 0.188256 12.8997 0.261476 12.9394C0.334695 12.9792 0.416684 13 0.499994 13H15.5C15.5833 13 15.6653 12.9792 15.7385 12.9394C15.8117 12.8997 15.8739 12.8423 15.9193 12.7724C15.9647 12.7026 15.9919 12.6225 15.9984 12.5394C16.005 12.4564 15.9907 12.373 15.9569 12.2969ZM4 12H1.26937L4 5.85625V12ZM5 12V5.85625L7.73063 12H5ZM8.825 12L5.26937 4H11.175L14.7306 12H8.825Z" fill="#111111"/>
</svg>
