<svg width="22" height="24" viewBox="0 0 22 24" fill="none" xmlns="http://www.w3.org/2000/svg">
<path d="M12.0371 8.85185C12.3849 8.85185 12.7249 8.7389 13.0141 8.52728C13.3034 8.31565 13.5288 8.01486 13.6619 7.66295C13.795 7.31103 13.8298 6.92379 13.762 6.5502C13.6941 6.1766 13.5266 5.83344 13.2807 5.56409C13.0347 5.29475 12.7213 5.11132 12.3802 5.03701C12.039 4.96269 11.6854 5.00083 11.364 5.1466C11.0427 5.29237 10.768 5.53922 10.5747 5.85594C10.3815 6.17266 10.2783 6.54501 10.2783 6.92593C10.2783 7.43671 10.4636 7.92658 10.7935 8.28776C11.1233 8.64894 11.5706 8.85185 12.0371 8.85185ZM12.0371 5.96296C12.211 5.96296 12.381 6.01944 12.5256 6.12525C12.6702 6.23106 12.7829 6.38146 12.8495 6.55742C12.916 6.73337 12.9334 6.92699 12.8995 7.11379C12.8656 7.30059 12.7818 7.47217 12.6589 7.60684C12.5359 7.74152 12.3792 7.83323 12.2086 7.87039C12.038 7.90754 11.8612 7.88847 11.7005 7.81559C11.5399 7.7427 11.4025 7.61928 11.3059 7.46092C11.2093 7.30256 11.1577 7.11638 11.1577 6.92593C11.1577 6.67053 11.2503 6.4256 11.4153 6.24501C11.5802 6.06442 11.8038 5.96296 12.0371 5.96296ZM15.7364 12.0224C15.7029 12.0393 15.3248 12.2198 14.6553 12.2198C13.8941 12.2198 12.7565 11.9863 11.3198 11.0161C11.1012 11.6959 10.8173 12.3483 10.4729 12.9625C11.0914 13.171 11.6733 13.4927 12.1937 13.914C13.2418 14.7891 13.7958 16.035 13.7958 17.5185C13.7958 17.6462 13.7494 17.7687 13.667 17.859C13.5845 17.9493 13.4727 18 13.3561 18C13.2395 18 13.1276 17.9493 13.0452 17.859C12.9627 17.7687 12.9164 17.6462 12.9164 17.5185C12.9164 15.0088 11.0099 14.1054 9.94089 13.7961C9.91066 13.8382 9.87933 13.8809 9.848 13.9225C8.76859 15.3549 7.41603 16.1 5.91123 16.1C5.73983 16.1008 5.5685 16.0922 5.39791 16.0741C5.2813 16.0613 5.17409 15.9983 5.09988 15.899C5.02567 15.7997 4.99053 15.6721 5.00219 15.5444C5.01386 15.4167 5.07136 15.2994 5.16206 15.2181C5.25276 15.1368 5.36923 15.0983 5.48584 15.1111C6.9104 15.2664 8.14974 14.6603 9.16815 13.3056C9.8546 12.3944 10.3223 11.2827 10.5559 10.4769C8.41685 9.11366 7.05055 10.274 7.03571 10.2867C6.99092 10.3285 6.9389 10.3601 6.88275 10.3796C6.8266 10.399 6.76745 10.4059 6.70881 10.3999C6.65018 10.3938 6.59326 10.3749 6.54142 10.3443C6.48959 10.3136 6.44391 10.2719 6.40708 10.2216C6.37025 10.1713 6.34303 10.1133 6.32704 10.0513C6.31105 9.98919 6.3066 9.92424 6.31397 9.86025C6.32135 9.79626 6.34038 9.73455 6.36995 9.67877C6.39952 9.623 6.43902 9.57429 6.48611 9.53556C6.56855 9.46333 8.53171 7.79019 11.4056 9.93097C13.9046 11.7913 15.3588 11.1533 15.3726 11.1461C15.4252 11.1189 15.4823 11.1034 15.5405 11.1005C15.5987 11.0976 15.6569 11.1074 15.7116 11.1294C15.7663 11.1513 15.8164 11.185 15.8592 11.2283C15.9019 11.2717 15.9363 11.3239 15.9605 11.382C15.9846 11.44 15.998 11.5027 15.9998 11.5665C16.0016 11.6303 15.9918 11.6938 15.971 11.7534C15.9502 11.813 15.9188 11.8674 15.8786 11.9136C15.8385 11.9598 15.7903 11.9968 15.737 12.0224H15.7364Z" fill="#111111"/>
</svg>
