<svg width="16" height="16" viewBox="0 0 16 16" fill="none" xmlns="http://www.w3.org/2000/svg">
<path d="M7.38481 9.85349C5.73863 9.35591 3.83011 9.92019 2.16215 10.5572L1 9.06475L3.13964 8.57033L5.3134 5.80393C5.47451 5.59815 5.64565 5.52892 5.84831 5.68032L9.30566 8.1518L10.8472 8.04716L9.88777 7.15693C9.36202 6.76522 9.89987 5.84598 10.4256 6.23769L12.3887 7.94253L15 7.59069C14.2926 9.98554 10.8044 12.5988 8.42051 11.8783C7.71298 11.6644 7.80782 11.2651 7.90266 10.8659C7.9975 10.4666 8.09234 10.0674 7.38481 9.85349Z" stroke="#111111"/>
<path d="M6.74602 3.14774C6.52167 3.29394 6.35796 3.53471 6.29088 3.81709C6.22381 4.09946 6.25887 4.40032 6.38836 4.65347C6.51785 4.90661 6.73116 5.09132 6.98135 5.16694C7.23155 5.24257 7.49815 5.20292 7.72249 5.05672C7.94683 4.91053 8.11055 4.66976 8.17762 4.38738C8.2447 4.105 8.20963 3.80415 8.08014 3.551C7.95066 3.29785 7.73735 3.11315 7.48715 3.03753C7.23696 2.9619 6.97036 3.00155 6.74602 3.14774Z" stroke="#111111"/>
</svg>
