<svg width="16" height="16" viewBox="0 0 16 16" fill="none" xmlns="http://www.w3.org/2000/svg">
<path d="M14.825 9.99171C14.7833 9.87524 14.7342 9.76151 14.6781 9.6512L12.0787 3.73945C12.0542 3.68251 12.0189 3.63077 11.975 3.587C11.7893 3.4013 11.5688 3.25399 11.3261 3.15348C11.0834 3.05298 10.8233 3.00125 10.5606 3.00125C10.2979 3.00125 10.0378 3.05298 9.79515 3.15348C9.55247 3.25399 9.33197 3.4013 9.14625 3.587C9.05281 3.68051 9.00023 3.80721 9 3.93938V5.50135H7V3.93938C7.00005 3.87372 6.98716 3.8087 6.96207 3.74802C6.93697 3.68734 6.90017 3.6322 6.85375 3.58575C6.66803 3.40005 6.44753 3.25274 6.20485 3.15223C5.96217 3.05173 5.70206 3 5.43938 3C5.17669 3 4.91658 3.05173 4.6739 3.15223C4.43122 3.25274 4.21072 3.40005 4.025 3.58575C3.98105 3.62952 3.94584 3.68126 3.92125 3.7382L1.32188 9.64995C1.2658 9.76026 1.21675 9.87399 1.175 9.99046C1.02781 10.4022 0.97245 10.841 1.01279 11.2764C1.05313 11.7117 1.1882 12.133 1.40853 12.5106C1.62886 12.8883 1.92913 13.2132 2.2883 13.4627C2.64747 13.7121 3.05686 13.8801 3.48778 13.9547C3.91871 14.0294 4.36075 14.0089 4.78294 13.8948C5.20513 13.7807 5.59726 13.5757 5.93186 13.2942C6.26646 13.0127 6.53543 12.6614 6.71994 12.265C6.90446 11.8686 7.00004 11.4367 7 10.9995V6.50102H9V10.9995C8.99978 11.4367 9.09521 11.8688 9.2796 12.2653C9.46398 12.6618 9.73288 13.0132 10.0674 13.2948C10.402 13.5765 10.7941 13.7816 11.2163 13.8959C11.6385 14.0101 12.0806 14.0306 12.5116 13.9561C12.9426 13.8815 13.3521 13.7136 13.7113 13.4642C14.0706 13.2148 14.3709 12.8898 14.5913 12.5122C14.8117 12.1345 14.9468 11.7132 14.9872 11.2778C15.0276 10.8424 14.9722 10.4035 14.825 9.99171ZM4.79438 4.23616C4.96108 4.09584 5.16906 4.01381 5.38669 4.00253C5.60432 3.99125 5.81968 4.05135 6 4.17368V8.7665C5.60963 8.41609 5.13399 8.17438 4.62074 8.06561C4.10749 7.95683 3.57466 7.9848 3.07563 8.14671L4.79438 4.23616ZM4 12.9988C3.60444 12.9988 3.21776 12.8816 2.88886 12.6619C2.55996 12.4422 2.30362 12.1299 2.15224 11.7646C2.00087 11.3993 1.96126 10.9973 2.03843 10.6094C2.1156 10.2216 2.30608 9.86537 2.58579 9.58576C2.86549 9.30615 3.22186 9.11573 3.60982 9.03859C3.99778 8.96144 4.39991 9.00104 4.76537 9.15236C5.13082 9.30369 5.44318 9.55995 5.66294 9.88873C5.8827 10.2175 6 10.6041 6 10.9995C6 11.5298 5.78929 12.0383 5.41421 12.4132C5.03914 12.7882 4.53043 12.9988 4 12.9988ZM10 4.17305C10.1803 4.05072 10.3957 3.99062 10.6133 4.0019C10.8309 4.01318 11.0389 4.09522 11.2056 4.23553L12.9244 8.14546C12.4253 7.98363 11.8924 7.95576 11.3792 8.06465C10.8659 8.17354 10.3903 8.41536 10 8.76588V4.17305ZM12 12.9988C11.6044 12.9988 11.2178 12.8816 10.8889 12.6619C10.56 12.4422 10.3036 12.1299 10.1522 11.7646C10.0009 11.3993 9.96126 10.9973 10.0384 10.6094C10.1156 10.2216 10.3061 9.86537 10.5858 9.58576C10.8655 9.30615 11.2219 9.11573 11.6098 9.03859C11.9978 8.96144 12.3999 9.00104 12.7654 9.15236C13.1308 9.30369 13.4432 9.55995 13.6629 9.88873C13.8827 10.2175 14 10.6041 14 10.9995C14 11.5298 13.7893 12.0383 13.4142 12.4132C13.0391 12.7882 12.5304 12.9988 12 12.9988Z" fill="#111111"/>
</svg>
