<svg width="16" height="16" viewBox="0 0 16 16" fill="none" xmlns="http://www.w3.org/2000/svg">
<path d="M8.5 13.6667C8.85898 13.6667 9.15 13.6667 9.15 13V1.66667C9.15 1.29848 8.85898 1 8.5 1C8.14101 1 7.85 1.29848 7.85 1.66667V13C7.85 13.6667 8.14101 13.6667 8.5 13.6667ZM8.5 13.6667H11.1C11.459 13.6667 11.75 13.9651 11.75 14.3333C11.75 14.7015 11.459 15 11.1 15H5.9C5.54101 15 5.25 14.7015 5.25 14.3333C5.25 13.9651 5.54101 13.6667 5.9 13.6667H8.5ZM9.475 2.33333C9.11601 2.33333 9.15 2.63181 9.15 3V5.33333C9.15 5.70152 9.15 6.33333 9.15 6.33333H13.5521C13.7781 6.33333 13.9879 6.21294 14.1061 6.01539L14.904 4.68206C15.032 4.46812 15.032 4.19855 14.904 3.98461L14.1061 2.65128C13.9879 2.45373 13.7781 2.33333 13.5521 2.33333H9.475ZM9.15 5V3.66667H13.1884L13.5873 4.33333L13.1884 5H9.15ZM3.44787 7C3.22188 7 3.01211 7.12039 2.89389 7.31794L2.09602 8.65128C1.96799 8.86522 1.96799 9.13478 2.09602 9.34872L2.89389 10.6821C3.01211 10.8796 3.22188 11 3.44787 11H7.525C7.88399 11 7.85 10.7015 7.85 10.3333V7.66667C7.85 7.29848 7.88399 7 7.525 7H3.44787ZM3.41266 9L3.8116 8.33333H7.85V9.66667H3.8116L3.41266 9Z" stroke="#111111" stroke-width="0.75" stroke-linecap="round" stroke-linejoin="round"/>
</svg>
