<svg width="24" height="24" viewBox="0 0 24 24" fill="none" xmlns="http://www.w3.org/2000/svg">
<path d="M22.5 8.99783H19.8103L15.75 4.48834C15.6112 4.33297 15.446 4.20979 15.264 4.12595C15.082 4.04212 14.8867 3.99931 14.6897 4.00001H4.15125C3.90487 4.00052 3.66239 4.06842 3.44525 4.19772C3.22811 4.32701 3.04299 4.51373 2.90625 4.74135L0.125625 9.3685C0.0439236 9.50563 0.000244554 9.66637 0 9.8308L0 14.8286C0 15.2705 0.158035 15.6942 0.43934 16.0066C0.720644 16.319 1.10218 16.4946 1.5 16.4946H3.09375C3.25898 17.2113 3.63428 17.8465 4.16048 18.3001C4.68669 18.7538 5.33387 19 6 19C6.66613 19 7.31331 18.7538 7.83952 18.3001C8.36572 17.8465 8.74102 17.2113 8.90625 16.4946H15.0938C15.259 17.2113 15.6343 17.8465 16.1605 18.3001C16.6867 18.7538 17.3339 19 18 19C18.6661 19 19.3133 18.7538 19.8395 18.3001C20.3657 17.8465 20.741 17.2113 20.9062 16.4946H22.5C22.8978 16.4946 23.2794 16.319 23.5607 16.0066C23.842 15.6942 24 15.2705 24 14.8286V10.6638C24 10.2219 23.842 9.79819 23.5607 9.48577C23.2794 9.17335 22.8978 8.99783 22.5 8.99783ZM4.15125 5.66595H14.6897L17.6897 8.99783H2.15625L4.15125 5.66595ZM6 17.3275C5.70333 17.3275 5.41332 17.2298 5.16665 17.0468C4.91997 16.8637 4.72771 16.6035 4.61418 16.2991C4.50065 15.9947 4.47094 15.6597 4.52882 15.3366C4.5867 15.0134 4.72956 14.7166 4.93934 14.4836C5.14912 14.2506 5.41639 14.0919 5.70736 14.0277C5.99834 13.9634 6.29994 13.9964 6.57403 14.1225C6.84811 14.2486 7.08238 14.4621 7.2472 14.736C7.41203 15.01 7.5 15.3321 7.5 15.6616C7.5 16.1034 7.34196 16.5272 7.06066 16.8396C6.77936 17.152 6.39782 17.3275 6 17.3275ZM18 17.3275C17.7033 17.3275 17.4133 17.2298 17.1666 17.0468C16.92 16.8637 16.7277 16.6035 16.6142 16.2991C16.5007 15.9947 16.4709 15.6597 16.5288 15.3366C16.5867 15.0134 16.7296 14.7166 16.9393 14.4836C17.1491 14.2506 17.4164 14.0919 17.7074 14.0277C17.9983 13.9634 18.2999 13.9964 18.574 14.1225C18.8481 14.2486 19.0824 14.4621 19.2472 14.736C19.412 15.01 19.5 15.3321 19.5 15.6616C19.5 16.1034 19.342 16.5272 19.0607 16.8396C18.7794 17.152 18.3978 17.3275 18 17.3275ZM22.5 14.8286H20.9062C20.741 14.1119 20.3657 13.4767 19.8395 13.023C19.3133 12.5694 18.6661 12.3232 18 12.3232C17.3339 12.3232 16.6867 12.5694 16.1605 13.023C15.6343 13.4767 15.259 14.1119 15.0938 14.8286H8.90625C8.74102 14.1119 8.36572 13.4767 7.83952 13.023C7.31331 12.5694 6.66613 12.3232 6 12.3232C5.33387 12.3232 4.68669 12.5694 4.16048 13.023C3.63428 13.4767 3.25898 14.1119 3.09375 14.8286H1.5V10.6638H22.5V14.8286Z" fill="black"/>
</svg>
