<svg width="25" height="24" viewBox="0 0 25 24" fill="none" xmlns="http://www.w3.org/2000/svg">
<path d="M21.0909 12.0526C20.8749 12.0532 20.6594 12.0738 20.4464 12.1141L19.8781 10.4209C20.2759 10.3163 20.6827 10.2634 21.0909 10.2632C21.298 10.2632 21.4967 10.1689 21.6432 10.0011C21.7897 9.8333 21.872 9.60572 21.872 9.36842C21.872 9.13112 21.7897 8.90354 21.6432 8.73574C21.4967 8.56795 21.298 8.47368 21.0909 8.47368H19.2239L17.9144 4.57375C17.8577 4.40485 17.7577 4.25961 17.6275 4.15718C17.4972 4.05475 17.343 3.99994 17.185 4H14.0603C13.8531 4 13.6544 4.09427 13.5079 4.26206C13.3614 4.42986 13.2791 4.65744 13.2791 4.89474C13.2791 5.13204 13.3614 5.35961 13.5079 5.52741C13.6544 5.69521 13.8531 5.78947 14.0603 5.78947H16.6489L17.5502 8.47368H14.8415C13.035 8.47368 11.5703 8.95572 10.6065 9.86723C10.3797 10.0768 10.1063 10.2095 9.81711 10.2504C9.52791 10.2913 9.23449 10.2388 8.96999 10.0987C7.93689 9.56079 3.03894 7.28033 2.60734 7.08684L2.04978 6.83631C1.89441 6.75852 1.72991 6.70727 1.56155 6.68421C1.37943 6.68471 1.20318 6.75808 1.06328 6.89164C0.923384 7.02519 0.828623 7.21054 0.795382 7.41563C0.762141 7.62073 0.792509 7.83268 0.881236 8.01485C0.969963 8.19701 1.11147 8.33795 1.2813 8.41329C1.32622 8.43342 5.88924 10.46 8.32455 11.7272C8.85573 12.004 9.44376 12.1057 10.0226 12.0209C10.6015 11.9362 11.1483 11.6683 11.6016 11.2474C12.0761 10.8 13.0243 10.2632 14.8425 10.2632H16.6802C15.5398 11.3117 14.7145 12.7426 14.32 14.3555C14.2255 14.7258 14.0282 15.0508 13.7578 15.2811C13.4875 15.5114 13.159 15.6344 12.8221 15.6316H7.73281C7.53922 14.5453 7.00039 13.5801 6.22078 12.923C5.44117 12.266 4.47632 11.9639 3.51329 12.0753C2.55026 12.1867 1.65765 12.7037 1.00853 13.5261C0.359402 14.3485 0 15.4177 0 16.5263C0 17.635 0.359402 18.7041 1.00853 19.5265C1.65765 20.3489 2.55026 20.8659 3.51329 20.9773C4.47632 21.0888 5.44117 20.7867 6.22078 20.1296C7.00039 19.4725 7.53922 18.5073 7.73281 17.421H12.8221C13.4997 17.4228 14.1592 17.1715 14.7009 16.7053C15.2425 16.2391 15.6367 15.5834 15.8238 14.8375C16.0187 14.0441 16.3483 13.3026 16.7939 12.6555C17.2394 12.0083 17.7921 11.4682 18.4202 11.0662L18.9885 12.7583C18.1968 13.3388 17.6143 14.2268 17.3481 15.2594C17.0819 16.2921 17.1498 17.4 17.5393 18.38C17.9288 19.3599 18.6138 20.146 19.4686 20.5941C20.3234 21.0422 21.2906 21.1222 22.1926 20.8194C23.0947 20.5166 23.8712 19.8513 24.3796 18.9456C24.888 18.0399 25.0941 16.9546 24.9601 15.8889C24.8262 14.8232 24.3612 13.8485 23.6504 13.1439C22.9397 12.4392 22.0309 12.0517 21.0909 12.0526ZM3.90506 17.421H6.11383C5.92955 18.018 5.56695 18.5212 5.09012 18.8416C4.61328 19.1619 4.05291 19.2789 3.50805 19.1719C2.96318 19.0648 2.46891 18.7405 2.11258 18.2564C1.75626 17.7723 1.56082 17.1595 1.56082 16.5263C1.56082 15.8931 1.75626 15.2803 2.11258 14.7962C2.46891 14.3121 2.96318 13.9878 3.50805 13.8808C4.05291 13.7737 4.61328 13.8907 5.09012 14.2111C5.56695 14.5314 5.92955 15.0346 6.11383 15.6316H3.90506C3.69788 15.6316 3.49919 15.7258 3.35269 15.8936C3.20619 16.0614 3.12389 16.289 3.12389 16.5263C3.12389 16.7636 3.20619 16.9912 3.35269 17.159C3.49919 17.3268 3.69788 17.421 3.90506 17.421ZM21.0909 19.2105C20.6122 19.2098 20.1451 19.0413 19.7526 18.7275C19.36 18.4137 19.0608 17.9698 18.8951 17.4554C18.7294 16.941 18.7052 16.3808 18.8258 15.8502C18.9464 15.3196 19.2059 14.844 19.5695 14.4874L20.3614 16.8473C20.4358 17.0689 20.5839 17.2476 20.7732 17.344C20.9626 17.4405 21.1776 17.4469 21.3711 17.3618C21.5646 17.2766 21.7206 17.107 21.8048 16.8901C21.889 16.6732 21.8946 16.4269 21.8203 16.2053L21.0274 13.8421H21.0909C21.7124 13.8421 22.3085 14.1249 22.748 14.6283C23.1875 15.1317 23.4344 15.8144 23.4344 16.5263C23.4344 17.2382 23.1875 17.9209 22.748 18.4243C22.3085 18.9277 21.7124 19.2105 21.0909 19.2105Z" fill="#111111"/>
</svg>
