<svg width="24" height="24" viewBox="0 0 24 24" fill="none" xmlns="http://www.w3.org/2000/svg">
<path d="M21.2581 6.46911C21.2126 6.35666 21.1405 6.25693 21.048 6.17846C20.9555 6.09999 20.8453 6.04513 20.727 6.01859C20.6086 5.99204 20.4856 5.9946 20.3684 6.02604C20.2513 6.05748 20.1435 6.11687 20.0543 6.19911L16.2762 9.68567L14.6609 9.3388L14.314 7.72348L17.8006 3.94536C17.8828 3.85619 17.9422 3.74841 17.9736 3.63126C18.0051 3.5141 18.0076 3.39107 17.9811 3.27271C17.9545 3.15435 17.8997 3.0442 17.8212 2.9517C17.7428 2.85919 17.643 2.7871 17.5306 2.74161C16.5058 2.32708 15.395 2.17056 14.2956 2.28581C13.1962 2.40106 12.1419 2.78456 11.2254 3.40259C10.3089 4.02063 9.55822 4.8543 9.0393 5.83034C8.52038 6.80639 8.24911 7.89494 8.24933 9.00036C8.24811 9.93381 8.43961 10.8575 8.81183 11.7135L3.16714 16.5941C3.15308 16.6054 3.13995 16.6185 3.12683 16.6307C2.56415 17.1933 2.24805 17.9565 2.24805 18.7522C2.24805 19.1462 2.32565 19.5364 2.47643 19.9004C2.62722 20.2644 2.84822 20.5952 3.12683 20.8738C3.40543 21.1524 3.73619 21.3734 4.10021 21.5242C4.46423 21.675 4.85438 21.7526 5.24839 21.7526C6.04413 21.7526 6.80728 21.4365 7.36995 20.8738C7.38214 20.8616 7.39526 20.8475 7.40651 20.8344L12.2862 15.1879C13.3141 15.6391 14.4383 15.8268 15.5571 15.734C16.6758 15.6413 17.7537 15.271 18.6933 14.6567C19.6329 14.0423 20.4044 13.2034 20.938 12.2157C21.4716 11.2281 21.7505 10.1229 21.7493 9.00036C21.7508 8.13278 21.584 7.27316 21.2581 6.46911ZM14.9993 14.2504C14.1116 14.2491 13.2386 14.0234 12.4615 13.5941C12.311 13.5109 12.1364 13.482 11.9671 13.5123C11.7978 13.5425 11.644 13.6299 11.5315 13.76L6.29089 19.8294C6.0073 20.0989 5.62967 20.2468 5.23853 20.2418C4.84739 20.2368 4.47367 20.0792 4.19707 19.8026C3.92047 19.526 3.76286 19.1523 3.75785 18.7612C3.75285 18.37 3.90083 17.9924 4.17026 17.7088L10.235 12.4691C10.3653 12.3566 10.4529 12.2026 10.4831 12.0331C10.5133 11.8636 10.4843 11.6888 10.4009 11.5382C9.92279 10.6735 9.69842 9.69138 9.75357 8.70484C9.80873 7.7183 10.1412 6.76735 10.7127 5.96131C11.2842 5.15528 12.0715 4.52688 12.9842 4.14837C13.8969 3.76986 14.8979 3.6566 15.8721 3.82161L12.9471 6.9913C12.8658 7.07958 12.8068 7.18612 12.7751 7.30195C12.7435 7.41778 12.7401 7.53951 12.7653 7.65692L13.2959 10.1254C13.3262 10.2665 13.3967 10.396 13.4988 10.4981C13.6009 10.6002 13.7303 10.6706 13.8715 10.701L16.3418 11.2316C16.4592 11.2568 16.581 11.2534 16.6968 11.2218C16.8126 11.1901 16.9192 11.1311 17.0075 11.0497L20.1771 8.12473C20.3035 8.87755 20.2644 9.64886 20.0624 10.385C19.8605 11.1212 19.5006 11.8045 19.0078 12.3875C18.5151 12.9705 17.9012 13.4391 17.209 13.7608C16.5167 14.0825 15.7627 14.2496 14.9993 14.2504Z" fill="black"/>
</svg>
