<svg width="24" height="25" viewBox="0 0 24 25" fill="none" xmlns="http://www.w3.org/2000/svg">
<path d="M3.36578 25H20.6343C22.8781 25 24 24.2801 24 22.8402C24 21.9583 23.7253 21.0179 23.1758 20.0189C22.6263 19.02 21.8318 18.0773 20.7923 17.1909C19.7528 16.3045 18.4935 15.5823 17.0143 15.0243C15.5353 14.4663 13.8661 14.1873 12.0069 14.1873C10.1386 14.1873 8.46482 14.4663 6.98571 15.0243C5.5066 15.5823 4.24729 16.3045 3.20779 17.1909C2.1683 18.0773 1.37379 19.02 0.824273 20.0189C0.274758 21.0179 0 21.9583 0 22.8402C0 24.2801 1.12193 25 3.36578 25ZM2.72009 22.9617C2.53692 22.9617 2.40641 22.9347 2.32856 22.8807C2.25072 22.8267 2.2118 22.7277 2.2118 22.5838C2.2118 22.0348 2.42474 21.3981 2.85061 20.6736C3.27649 19.9492 3.90614 19.2495 4.73957 18.5746C5.573 17.8995 6.59876 17.3393 7.81685 16.8938C9.03494 16.4484 10.4316 16.2256 12.0069 16.2256C13.5821 16.2256 14.9765 16.4484 16.1901 16.8938C17.4036 17.3393 18.427 17.8995 19.2605 18.5746C20.0939 19.2495 20.7236 19.9492 21.1495 20.6736C21.5754 21.3981 21.7883 22.0348 21.7883 22.5838C21.7883 22.7277 21.7494 22.8267 21.6715 22.8807C21.5937 22.9347 21.4677 22.9617 21.2937 22.9617H2.72009ZM12.0069 12.5135C13.0968 12.5135 14.0905 12.2255 14.988 11.6496C15.8855 11.0736 16.6022 10.3064 17.138 9.348C17.6738 8.38958 17.9417 7.32992 17.9417 6.16901C17.9417 5.0171 17.6761 3.97543 17.1449 3.044C16.6137 2.11258 15.8993 1.37239 15.0018 0.823434C14.1042 0.274478 13.1059 0 12.0069 0C10.917 0 9.92333 0.278977 9.02579 0.836932C8.12824 1.39489 7.41158 2.14183 6.87581 3.07776C6.34004 4.01368 6.07215 5.05309 6.07215 6.19601C6.07215 7.34792 6.34004 8.40308 6.87581 9.36151C7.41158 10.3199 8.12824 11.0849 9.02579 11.6563C9.92333 12.2278 10.917 12.5135 12.0069 12.5135ZM12.0069 10.4752C11.3383 10.4752 10.7224 10.2839 10.1592 9.90146C9.5959 9.51899 9.14255 9.00378 8.7991 8.35584C8.45566 7.70788 8.28394 6.98794 8.28394 6.19601C8.28394 5.41307 8.45337 4.70888 8.79224 4.08343C9.13111 3.45798 9.58217 2.96077 10.1454 2.5918C10.7087 2.22283 11.3292 2.03834 12.0069 2.03834C12.6938 2.03834 13.3189 2.21833 13.8821 2.57829C14.4454 2.93826 14.8942 3.43097 15.2284 4.05643C15.5627 4.68188 15.7298 5.38607 15.7298 6.16901C15.7298 6.96095 15.5604 7.68314 15.2215 8.33559C14.8827 8.98804 14.4317 9.50774 13.8684 9.89471C13.3051 10.2817 12.6846 10.4752 12.0069 10.4752Z" fill="#111111"/>
</svg>
