<svg width="24" height="24" viewBox="0 0 24 24" fill="none" xmlns="http://www.w3.org/2000/svg">
<path d="M22.1538 12C22.1538 6.39219 17.6078 1.84615 12 1.84615C6.39219 1.84615 1.84615 6.39219 1.84615 12C1.84615 17.6078 6.39219 22.1538 12 22.1538C17.6078 22.1538 22.1538 17.6078 22.1538 12ZM24 12C24 18.6274 18.6274 24 12 24C5.37258 24 0 18.6274 0 12C0 5.37258 5.37258 0 12 0C18.6274 0 24 5.37258 24 12Z" fill="black"/>
<path d="M12.5208 22.8062C12.2165 23.0646 11.7835 23.0646 11.4792 22.8062L12 22.1151L12.5208 22.8062ZM15.3333 11.5C15.3333 8.15539 14.3508 5.66191 13.377 4.00777C12.889 3.17895 12.4026 2.56005 12.0431 2.15307C12.0287 2.13673 12.014 2.12121 12 2.10556C11.986 2.12121 11.9713 2.13673 11.9569 2.15307C11.5974 2.56005 11.111 3.17895 10.623 4.00777C9.64918 5.66191 8.66667 8.15539 8.66667 11.5C8.66667 14.8446 9.64918 17.3381 10.623 18.9922C11.111 19.821 11.5974 20.4399 11.9569 20.8469C11.9712 20.8631 11.9861 20.8781 12 20.8936C12.0139 20.8781 12.0288 20.8631 12.0431 20.8469C12.4026 20.4399 12.889 19.821 13.377 18.9922C14.3508 17.3381 15.3333 14.8446 15.3333 11.5ZM17 11.5C17 15.2319 15.8991 18.0462 14.7897 19.9304C14.2362 20.8705 13.6807 21.5788 13.259 22.0563C13.0479 22.2953 12.8698 22.4776 12.7414 22.6023C12.6772 22.6646 12.625 22.7126 12.5876 22.7466C12.5689 22.7635 12.5541 22.7773 12.5428 22.7872C12.5372 22.792 12.5326 22.7961 12.529 22.7992L12.5216 22.8044V22.8053C12.5213 22.8056 12.5206 22.8058 12 22.1151C11.4794 22.8058 11.4787 22.8056 11.4784 22.8053V22.8044L11.471 22.7992C11.4674 22.7961 11.4628 22.792 11.4572 22.7872C11.4459 22.7773 11.4311 22.7635 11.4124 22.7466C11.375 22.7126 11.3228 22.6646 11.2586 22.6023C11.1302 22.4776 10.9521 22.2953 10.741 22.0563C10.3193 21.5788 9.76384 20.8705 9.21029 19.9304C8.10088 18.0462 7 15.2319 7 11.5C7 7.76811 8.10088 4.95384 9.21029 3.06962C9.76384 2.12951 10.3193 1.42122 10.741 0.943669C10.9521 0.704689 11.1302 0.522386 11.2586 0.397711C11.3228 0.335395 11.375 0.28737 11.4124 0.253447C11.4311 0.236526 11.4459 0.222709 11.4572 0.212846C11.4628 0.207961 11.4674 0.203905 11.471 0.200752L11.4784 0.195569V0.194705C11.4787 0.194414 11.4794 0.194178 12 0.884927L11.4792 0.193841C11.7835 -0.0646137 12.2165 -0.0646137 12.5208 0.193841L12 0.884927C12.5206 0.194178 12.5213 0.194414 12.5216 0.194705V0.195569L12.529 0.200752C12.5326 0.203905 12.5372 0.207961 12.5428 0.212846C12.5541 0.222709 12.5689 0.236526 12.5876 0.253447C12.625 0.28737 12.6772 0.335395 12.7414 0.397711C12.8698 0.522386 13.0479 0.704689 13.259 0.943669C13.6807 1.42122 14.2362 2.12951 14.7897 3.06962C15.8991 4.95384 17 7.76811 17 11.5Z" fill="black"/>
<path d="M22.107 6.99902C22.6002 6.99902 23 7.44674 23 7.99902C23 8.55131 22.6002 8.99902 22.107 8.99902H1.89305C1.39983 8.99902 1 8.55131 1 7.99902C1 7.44674 1.39983 6.99902 1.89305 6.99902H22.107Z" fill="black"/>
<path d="M22.107 14.999C22.6002 14.999 23 15.4467 23 15.999C23 16.5513 22.6002 16.999 22.107 16.999H1.89305C1.39983 16.999 1 16.5513 1 15.999C1 15.4467 1.39983 14.999 1.89305 14.999H22.107Z" fill="black"/>
</svg>
