<svg width="18" height="24" viewBox="0 0 18 24" fill="none" xmlns="http://www.w3.org/2000/svg">
<path d="M11.5152 7.11111C12.0844 7.11111 12.6408 6.90258 13.1141 6.51189C13.5873 6.1212 13.9562 5.5659 14.174 4.91621C14.3918 4.26652 14.4488 3.55161 14.3378 2.8619C14.2267 2.17219 13.9526 1.53865 13.5502 1.0414C13.1477 0.544146 12.6349 0.205512 12.0766 0.0683206C11.5184 -0.0688713 10.9397 0.00154055 10.4139 0.270652C9.88799 0.539764 9.43852 0.995488 9.12229 1.5802C8.80607 2.1649 8.63728 2.85233 8.63728 3.55556C8.63728 4.49855 8.94049 5.40292 9.4802 6.06971C10.0199 6.73651 10.7519 7.11111 11.5152 7.11111ZM11.5152 1.77778C11.7998 1.77778 12.078 1.88204 12.3146 2.07739C12.5512 2.27273 12.7357 2.55038 12.8446 2.87523C12.9535 3.20008 12.982 3.55753 12.9265 3.90238C12.871 4.24724 12.7339 4.56401 12.5327 4.81264C12.3314 5.06126 12.075 5.23058 11.7959 5.29918C11.5168 5.36777 11.2274 5.33257 10.9645 5.19801C10.7016 5.06345 10.4768 4.83559 10.3187 4.54324C10.1606 4.25088 10.0762 3.90717 10.0762 3.55556C10.0762 3.08406 10.2278 2.63188 10.4977 2.29848C10.7675 1.96508 11.1335 1.77778 11.5152 1.77778ZM17.5687 12.9644C17.5138 12.9956 16.895 13.3289 15.7996 13.3289C14.5541 13.3289 12.6924 12.8978 10.3415 11.1067C9.98373 12.3616 9.51917 13.5661 8.95565 14.7C9.9678 15.085 10.9199 15.6789 11.7715 16.4567C13.4865 18.0722 14.3931 20.3722 14.3931 23.1111C14.3931 23.3469 14.3173 23.573 14.1823 23.7397C14.0474 23.9064 13.8644 24 13.6736 24C13.4828 24 13.2998 23.9064 13.1649 23.7397C13.0299 23.573 12.9541 23.3469 12.9541 23.1111C12.9541 18.4778 9.83431 16.81 8.08508 16.2389C8.03562 16.3167 7.98436 16.3956 7.9331 16.4722C6.16679 19.1167 3.9535 20.4922 1.4911 20.4922C1.21063 20.4938 0.93028 20.4779 0.651118 20.4444C0.460301 20.4209 0.28488 20.3046 0.163445 20.1212C0.0420104 19.9379 -0.015491 19.7024 0.00359067 19.4667C0.0226723 19.2309 0.116774 19.0142 0.265194 18.8642C0.413615 18.7141 0.604196 18.6431 0.795012 18.6667C3.12611 18.9533 5.15413 17.8344 6.82061 15.3333C7.94389 13.6511 8.70923 11.5989 9.09145 10.1111C5.59121 7.59445 3.35544 9.73667 3.33116 9.76C3.25787 9.83732 3.17275 9.89566 3.08086 9.93155C2.98897 9.96745 2.89218 9.98017 2.79624 9.96897C2.70029 9.95776 2.60715 9.92285 2.52233 9.86632C2.43751 9.80978 2.36275 9.73277 2.30249 9.63985C2.24223 9.54693 2.19769 9.44 2.17152 9.32541C2.14535 9.21082 2.13808 9.0909 2.15014 8.97277C2.1622 8.85464 2.19335 8.74071 2.24174 8.63773C2.29012 8.53476 2.35476 8.44485 2.43182 8.37333C2.56672 8.24 5.77917 5.15111 10.4818 9.10333C14.5711 12.5378 16.9508 11.36 16.9733 11.3467C17.0595 11.2964 17.1529 11.2677 17.2481 11.2624C17.3434 11.2571 17.4385 11.2753 17.528 11.3158C17.6175 11.3563 17.6996 11.4184 17.7695 11.4984C17.8395 11.5785 17.8958 11.6749 17.9353 11.7821C17.9748 11.8892 17.9967 12.0051 17.9997 12.1228C18.0026 12.2405 17.9866 12.3578 17.9526 12.4678C17.9186 12.5778 17.8672 12.6783 17.8014 12.7636C17.7357 12.8489 17.6569 12.9171 17.5696 12.9644H17.5687Z" fill="#5856D6"/>
</svg>
