<svg preserveAspectRatio="none" width="100%" height="100%" overflow="visible" style="display: block;" viewBox="0 0 161 175" fill="none" xmlns="http://www.w3.org/2000/svg">
<g id="freepik--Character--inject-144">
<path id="Vector" d="M80.6045 45.2602C74.2445 60.6172 58.9765 73.7414 41.8857 74.8046C32.0729 75.4159 22.4997 72.4788 13.7514 68.2392C13.1526 67.9468 12.6204 68.8439 13.2258 69.1363C26.8838 75.7814 42.5576 78.7319 56.7745 72.0336C65.9419 67.7142 73.2799 60.0723 78.4823 51.5133C79.6795 49.6034 80.7271 47.6039 81.6157 45.5327C81.8685 44.9147 80.8573 44.6422 80.6045 45.2602Z" fill="var(--fill-0, #69320A)"/>
<g id="Group" opacity="0.5">
<path id="Vector_2" d="M80.6045 45.2602C74.2445 60.6172 58.9765 73.7414 41.8857 74.8046C32.0729 75.4159 22.4997 72.4788 13.7514 68.2392C13.1526 67.9468 12.6204 68.8439 13.2258 69.1363C26.8838 75.7814 42.5576 78.7319 56.7745 72.0336C65.9419 67.7142 73.2799 60.0723 78.4823 51.5133C79.6795 49.6034 80.7271 47.6039 81.6157 45.5327C81.8685 44.9147 80.8573 44.6422 80.6045 45.2602Z" fill="var(--fill-0, black)"/>
</g>
<path id="Vector_3" d="M109.371 110.163C109.371 110.163 115.917 111.379 117.447 116.948C118.977 122.517 122.769 133.089 123.009 138.691C123.315 146.001 119.503 160.261 114.32 166.694C109.138 173.126 109.471 174.987 109.471 174.987H119.051L119.782 171.392C119.782 171.392 119.077 167.259 121.179 166.076C121.824 165.748 122.394 165.29 122.852 164.73C123.31 164.171 123.646 163.522 123.84 162.826C125.011 158.082 127.553 148.971 130.726 144.944C135.117 139.382 129.083 118.217 133.54 107.492C137.997 96.7668 109.777 104.595 109.777 104.595L109.371 110.163Z" fill="var(--fill-0, #69320A)"/>
<path id="Vector_4" opacity="0.3" d="M109.371 110.163C109.371 110.163 115.917 111.379 117.447 116.948C118.977 122.517 122.769 133.089 123.009 138.691C123.315 146.001 119.503 160.261 114.32 166.694C109.138 173.126 109.471 174.987 109.471 174.987H119.051L119.782 171.392C119.782 171.392 119.077 167.259 121.179 166.076C121.824 165.748 122.394 165.29 122.852 164.73C123.31 164.171 123.646 163.522 123.84 162.826C125.011 158.082 127.553 148.971 130.726 144.944C135.117 139.382 129.083 118.217 133.54 107.492C137.997 96.7668 109.777 104.595 109.777 104.595L109.371 110.163Z" fill="var(--fill-0, white)"/>
<path id="Vector_5" opacity="0.5" d="M122.45 151.39C122.308 150.846 121.987 150.366 121.539 150.028C120.009 156.281 117.407 162.866 114.327 166.694C109.145 173.133 109.477 174.987 109.477 174.987H119.057L119.789 171.392C119.789 171.392 119.084 167.258 121.186 166.076C121.831 165.748 122.4 165.289 122.858 164.73C123.316 164.171 123.653 163.522 123.847 162.826C124.867 158.504 126.208 154.264 127.859 150.141C126.049 150.141 122.836 152.799 122.45 151.39Z" fill="var(--fill-0, white)"/>
<path id="Vector_6" opacity="0.1" d="M109.757 104.601L109.377 110.163C109.377 110.163 115.924 111.38 117.454 116.948C117.747 118.005 118.119 119.241 118.532 120.583C121.253 118.869 127.659 114.895 132.203 112.609C132.434 110.853 132.881 109.132 133.533 107.485C137.978 96.7735 109.757 104.601 109.757 104.601Z" fill="var(--fill-0, black)"/>
<path id="Vector_7" d="M34.6475 128.138C38.2999 120.516 58.2713 124.151 64.8309 112.855L49.9687 106.123C49.9687 106.123 26.5179 117.725 26.9836 127.461C27.3961 136.133 33.6895 138.757 36.0579 145.25C36.3342 146.005 36.7693 146.692 37.3339 147.265C37.8985 147.838 38.5795 148.284 39.331 148.572C41.8331 149.563 43.9954 151.254 45.558 153.443C48.2699 153.511 50.9673 153.029 53.488 152.028L48.1658 143.907C48.1658 143.907 44.9193 151.33 42.1318 141.356C42.0786 141.356 33.011 131.534 34.6475 128.138Z" fill="var(--fill-0, #69320A)"/>
<path id="Vector_8" opacity="0.3" d="M34.6475 128.138C38.2999 120.516 58.2713 124.151 64.8309 112.855L49.9687 106.123C49.9687 106.123 26.5179 117.725 26.9836 127.461C27.3961 136.133 33.6895 138.757 36.0579 145.25C36.3342 146.005 36.7693 146.692 37.3339 147.265C37.8985 147.838 38.5795 148.284 39.331 148.572C41.8331 149.563 43.9954 151.254 45.558 153.443C48.2699 153.511 50.9673 153.029 53.488 152.028L48.1658 143.907C48.1658 143.907 44.9193 151.33 42.1318 141.356C42.0786 141.356 33.011 131.534 34.6475 128.138Z" fill="var(--fill-0, white)"/>
<path id="Vector_9" opacity="0.5" d="M45.558 153.417C48.2681 153.492 50.9655 153.02 53.488 152.028L48.1659 143.907C48.1659 143.907 44.9193 151.33 42.1318 141.356C42.1318 141.356 37.8741 136.757 35.7186 132.763C35.2263 134.092 35.2197 136.751 33.5232 135.907C32.3304 135.351 30.9845 135.215 29.7046 135.521C31.8401 138.791 34.6875 141.302 36.1111 145.23C36.3875 145.985 36.8226 146.672 37.3872 147.245C37.9518 147.819 38.6328 148.264 39.3843 148.552C41.866 149.55 44.0088 151.238 45.558 153.417Z" fill="var(--fill-0, white)"/>
<path id="Vector_10" d="M53.488 152.028L48.1659 143.907C48.1659 143.907 47.1746 146.173 45.8108 146.519C46.5559 147.708 47.4939 149.841 47.9131 153.343C49.8262 153.182 51.705 152.739 53.488 152.028Z" fill="var(--fill-0, #263238)"/>
<path id="Vector_11" opacity="0.1" d="M49.9688 106.103C49.9688 106.103 47.3077 107.432 43.8616 109.505C45.1056 112.529 47.9064 117.619 53.4415 120.616C58.0984 119.201 62.3827 117.054 64.8309 112.835L49.9688 106.103Z" fill="var(--fill-0, black)"/>
<path id="Vector_12" d="M10.1456 50.9485C10.1456 50.9485 6.22713 42.25 6.65955 40.2498C7.09198 38.2496 11.1435 44.3831 13.4254 44.8416C15.7072 45.3001 14.6694 50.9485 10.1456 50.9485Z" fill="var(--fill-0, #69320A)"/>
<path id="Vector_13" opacity="0.3" d="M10.1456 50.9485C10.1456 50.9485 6.22713 42.25 6.65955 40.2498C7.09198 38.2496 11.1435 44.3831 13.4254 44.8416C15.7072 45.3001 14.6694 50.9485 10.1456 50.9485Z" fill="var(--fill-0, white)"/>
<path id="Vector_14" d="M24.7816 63.3748C24.7816 63.3748 40.4487 77.2898 45.1522 97.6439L70.6521 68.0796C70.6521 68.0796 62.9149 65.2887 51.4257 54.3308C39.9365 43.3729 25.999 40.4159 16.7717 43.034L21.2956 62.5309L24.7816 63.3748Z" fill="var(--fill-0, #69320A)"/>
<path id="Vector_15" opacity="0.4" d="M24.7816 63.3748C24.7816 63.3748 40.4487 77.2898 45.1522 97.6439L70.6521 68.0796C70.6521 68.0796 62.9149 65.2887 51.4257 54.3308C39.9365 43.3729 25.999 40.4159 16.7717 43.034L21.2956 62.5309L24.7816 63.3748Z" fill="var(--fill-0, white)"/>
<path id="Vector_16" opacity="0.1" d="M24.3558 51.8386L22.6128 56.7494L22.3799 62.7832L24.7816 63.3746C27.6972 66.1193 30.3683 69.112 32.7648 72.319C30.2035 56.9089 24.3558 51.8386 24.3558 51.8386Z" fill="var(--fill-0, black)"/>
<path id="Vector_17" d="M16.6786 43.0207C16.6786 43.0207 9.51358 43.858 6.03421 58.3045C6.03421 58.3045 -0.618506 71.2825 0.0467651 74.1133C0.712037 76.9442 2.2089 80.918 7.7107 77.8479C7.7107 77.8479 10.0391 79.1038 11.3763 76.9375C12.7135 74.7712 16.0332 69.7873 17.7031 69.1228C19.3729 68.4583 39.5173 61.6603 16.6786 43.0207Z" fill="var(--fill-0, #69320A)"/>
<path id="Vector_18" opacity="0.4" d="M16.6786 43.0207C16.6786 43.0207 9.51358 43.858 6.03421 58.3045C6.03421 58.3045 -0.618506 71.2825 0.0467651 74.1133C0.712037 76.9442 2.2089 80.918 7.7107 77.8479C7.7107 77.8479 10.0391 79.1038 11.3763 76.9375C12.7135 74.7712 16.0332 69.7873 17.7031 69.1228C19.3729 68.4583 39.5173 61.6603 16.6786 43.0207Z" fill="var(--fill-0, white)"/>
<path id="Vector_19" d="M12.5539 57.7728C12.6337 58.3642 12.3809 58.9024 11.9884 58.9423C11.5959 58.9822 11.21 58.5502 11.1369 57.9522C11.0637 57.3541 11.3098 56.8291 11.7023 56.7826C12.0949 56.7361 12.4807 57.1481 12.5539 57.7728Z" fill="var(--fill-0, #263238)"/>
<path id="Vector_20" d="M13.8512 55.879C13.7932 55.9054 13.7293 55.9156 13.666 55.9086C13.6028 55.9015 13.5426 55.8775 13.4919 55.8391C13.1636 55.5548 12.7714 55.3537 12.3487 55.2531C11.9259 55.1524 11.4851 55.1551 11.0637 55.261C10.9772 55.2884 10.8834 55.2807 10.8025 55.2397C10.7217 55.1987 10.6601 55.1276 10.6312 55.0417C10.6038 54.9554 10.6115 54.8617 10.6525 54.7809C10.6936 54.7001 10.7648 54.6387 10.8508 54.6098C11.3801 54.4679 11.9357 54.4542 12.4714 54.5698C13.0071 54.6853 13.5075 54.9269 13.931 55.2743C14.0009 55.3326 14.0454 55.4157 14.0553 55.5061C14.0653 55.5966 14.0398 55.6873 13.9842 55.7594L13.8512 55.879Z" fill="var(--fill-0, #263238)"/>
<path id="Vector_21" opacity="0.5" d="M12.7668 74.7713C12.2478 73.1233 10.8973 70.8507 7.34479 69.8871C1.46379 68.2923 7.71735 64.3318 8.48906 61.9861C9.26078 59.6403 12.5539 51.2874 11.1501 49.4599C10.9574 49.2727 10.7234 49.1331 10.467 49.0523C10.2105 48.9715 9.93868 48.9518 9.67324 48.9948C7.98856 51.9016 6.76333 55.0509 6.04086 58.3312C6.04086 58.3312 -0.611854 71.3092 0.053418 74.14C0.71869 76.9709 2.21555 80.9447 7.71734 77.8746C7.71734 77.8746 10.0458 79.1305 11.383 76.9642C11.7023 76.3795 12.2013 75.6153 12.7668 74.7713Z" fill="var(--fill-0, white)"/>
<path id="Vector_22" d="M2.48929 76.6782C2.48929 76.6782 0.571667 73.2028 1.7036 71.8073C2.83554 70.4119 1.79016 74.5252 2.48929 76.6782Z" fill="var(--fill-0, #263238)"/>
<path id="Vector_23" opacity="0.5" d="M2.48929 76.6782C2.48929 76.6782 0.571667 73.2028 1.7036 71.8073C2.83554 70.4119 1.79016 74.5252 2.48929 76.6782Z" fill="var(--fill-0, white)"/>
<path id="Vector_24" d="M8.48906 76.3793C8.47949 76.3165 8.48747 76.2522 8.51212 76.1936C8.53677 76.135 8.57713 76.0843 8.62877 76.0471C8.98957 75.8067 9.28728 75.4832 9.49683 75.1039C9.70638 74.7246 9.82164 74.3006 9.83291 73.8675C9.82928 73.7751 9.86211 73.6851 9.92434 73.6167C9.98656 73.5484 10.0732 73.5072 10.1655 73.502C10.2569 73.4983 10.3461 73.5302 10.4144 73.5909C10.4826 73.6517 10.5246 73.7365 10.5314 73.8276C10.5208 74.3753 10.3802 74.9127 10.1211 75.3956C9.86203 75.8785 9.49194 76.2931 9.04124 76.6053C8.96586 76.6578 8.8729 76.6789 8.78218 76.664C8.69146 76.6491 8.61015 76.5994 8.55559 76.5255L8.48906 76.3793Z" fill="var(--fill-0, #263238)"/>
<path id="Vector_25" d="M13.7248 42.416C13.7248 42.416 4.75024 44.9345 4.66376 48.2438C4.57727 51.5531 8.84832 46.4164 8.84832 46.4164C8.84832 46.4164 6.2338 55.3275 9.19426 55.2013C13.0196 55.0285 10.9506 48.3302 13.7248 46.2436C16.4989 44.157 13.7248 42.416 13.7248 42.416Z" fill="var(--fill-0, #263238)"/>
<path id="Vector_26" d="M13.0262 48.2437C13.0262 48.2437 9.10777 39.5452 9.54019 37.545C9.97262 35.5448 14.0241 41.6783 16.306 42.1368C18.5879 42.5953 17.5634 48.2437 13.0262 48.2437Z" fill="var(--fill-0, #69320A)"/>
<path id="Vector_27" opacity="0.4" d="M13.0262 48.2437C13.0262 48.2437 9.10777 39.5452 9.54019 37.545C9.97262 35.5448 14.0241 41.6783 16.306 42.1368C18.5879 42.5953 17.5634 48.2437 13.0262 48.2437Z" fill="var(--fill-0, white)"/>
<path id="Vector_28" opacity="0.5" d="M10.7177 40.17C10.7117 40.1321 10.719 40.0932 10.7384 40.06C10.7578 40.0268 10.7882 40.0014 10.8243 39.9881C10.8604 39.9748 10.9 39.9744 10.9364 39.9869C10.9727 39.9995 11.0036 40.0243 11.0237 40.0571C11.9218 41.9642 13.4653 44.7884 14.9621 45.3732C17.2706 46.3035 13.7247 48.6227 12.5672 45.9513C11.8242 44.0669 11.2064 42.1356 10.7177 40.17Z" fill="var(--fill-0, black)"/>
<path id="Vector_29" opacity="0.1" d="M52.2772 80.4198C48.3314 82.1066 44.7911 84.6144 41.8923 87.776C43.2712 90.9617 44.3621 94.2642 45.1522 97.644L47.3276 95.1189C52.0045 87.889 57.4796 78.3199 52.2772 80.4198Z" fill="var(--fill-0, black)"/>
<path id="Vector_30" d="M135.17 73.8608C139.138 75.5083 143.401 76.3292 147.697 76.273C154.902 76.1933 162.333 87.4901 160.796 103.917C159.938 113.147 159.286 120.423 159.206 124.995C159.14 128.564 159.692 130.478 158.98 130.458C157.35 130.404 156.379 123.726 156.379 123.726C156.279 126.081 156.317 128.439 156.492 130.79C156.811 134.651 157.556 138.591 156.399 138.339C154.17 137.847 152.228 121.56 152.228 121.56C151.862 122.748 151.639 123.974 151.562 125.215C151.469 127.241 151.848 129.308 150.93 129.162C149.174 128.883 148.163 117.599 149.493 108.329C151.057 97.4511 153.911 79.9478 141.217 79.3032L135.17 73.8608Z" fill="var(--fill-0, #263238)"/>
<path id="Vector_31" d="M67.2724 67.7405C73.3032 68.178 79.2033 69.7116 84.6826 72.2658C84.6826 72.2658 97.223 76.439 130.66 72.2658C130.66 72.2658 156.778 76.0934 147.025 105.85C147.025 105.85 54.0335 132.484 45.6777 105.85C37.3219 79.2167 67.2724 67.7405 67.2724 67.7405Z" fill="var(--fill-0, #69320A)"/>
<path id="Vector_32" opacity="0.4" d="M67.2724 67.7405C73.3032 68.178 79.2033 69.7116 84.6826 72.2658C84.6826 72.2658 97.223 76.439 130.66 72.2658C130.66 72.2658 156.778 76.0934 147.025 105.85C147.025 105.85 54.0335 132.484 45.6777 105.85C37.3219 79.2167 67.2724 67.7405 67.2724 67.7405Z" fill="var(--fill-0, white)"/>
<path id="Vector_33" d="M152.78 162.826C152.361 158.208 151.695 149.223 152.367 144.652C153.292 138.345 151.902 135.561 146.559 127.906C141.217 120.251 156.539 94.8461 146.559 82.8516C136.58 70.8571 122.676 94.5072 122.676 94.5072L113.622 107.844C113.622 107.844 122.676 107.731 128.138 118.284C133.6 128.836 142.308 136.89 145.548 143.907C147.797 148.778 148.801 160.52 145.548 165.364C142.295 170.209 139.747 171.624 139.514 174.987H148.828C148.828 174.987 148.056 170.388 151.203 167.172C151.765 166.605 152.198 165.923 152.47 165.172C152.742 164.422 152.848 163.621 152.78 162.826Z" fill="var(--fill-0, #69320A)"/>
<path id="Vector_34" opacity="0.4" d="M152.78 162.826C152.361 158.208 151.695 149.223 152.367 144.652C153.292 138.345 151.902 135.561 146.559 127.906C141.217 120.251 156.539 94.8461 146.559 82.8516C136.58 70.8571 122.676 94.5072 122.676 94.5072L113.622 107.844C113.622 107.844 122.676 107.731 128.138 118.284C133.6 128.836 142.308 136.89 145.548 143.907C147.797 148.778 148.801 160.52 145.548 165.364C142.295 170.209 139.747 171.624 139.514 174.987H148.828C148.828 174.987 148.056 170.388 151.203 167.172C151.765 166.605 152.198 165.923 152.47 165.172C152.742 164.422 152.848 163.621 152.78 162.826Z" fill="var(--fill-0, white)"/>
<path id="Vector_35" d="M76.3933 68.7642C76.3933 68.7642 68.4101 80.8583 74.4774 85.9884C80.5446 91.1184 107.302 90.4207 112.704 85.9884C118.106 81.5561 115.485 73.3626 115.485 73.3626C115.485 73.3626 98.4804 74.4723 84.9554 71.8076C84.9554 71.7811 78.4224 68.7775 76.3933 68.7642Z" fill="var(--fill-0, #263238)"/>
<path id="Vector_36" opacity="0.5" d="M76.3933 68.7642C76.3933 68.7642 68.4101 80.8583 74.4774 85.9884C80.5446 91.1184 107.302 90.4207 112.704 85.9884C118.106 81.5561 115.485 73.3626 115.485 73.3626C115.485 73.3626 98.4804 74.4723 84.9554 71.8076C84.9554 71.7811 78.4224 68.7775 76.3933 68.7642Z" fill="var(--fill-0, white)"/>
<path id="Vector_37" opacity="0.1" d="M84.2635 117.38C67.7049 115.3 66.9664 107.798 66.9664 107.798L63.2476 114.257L62.8684 116.782C69.0953 117.779 76.4798 117.872 84.2635 117.38Z" fill="var(--fill-0, black)"/>
<path id="Vector_38" d="M74.484 67.7407C71.7896 71.7676 69.215 77.0439 69.5477 82.0277C70.0932 90.3076 79.7796 90.7395 86.1795 91.3309C94.2625 92.0486 103.882 92.4739 111.56 89.3374C117.886 86.7524 118.665 78.9577 117.727 72.8441C117.321 70.1861 113.289 71.3157 113.695 73.9539C113.609 73.3757 113.762 75.4357 113.762 75.9474C113.827 78.3134 113.487 80.6731 112.757 82.9248C111.945 85.038 109.876 85.5829 107.774 86.1743C101.121 87.922 93.8035 87.7426 87.0443 87.2109C82.2943 86.8388 73.0736 87.0714 73.7389 80.2867C74.1247 76.6119 76.054 72.9039 78.0831 69.8605C79.58 67.621 75.9609 65.5278 74.4773 67.7539L74.484 67.7407Z" fill="var(--fill-0, #69320A)"/>
<g id="Group_2" opacity="0.3">
<path id="Vector_39" d="M74.484 67.7407C71.7896 71.7676 69.215 77.0439 69.5477 82.0277C70.0932 90.3076 79.7796 90.7395 86.1795 91.3309C94.2625 92.0486 103.882 92.4739 111.56 89.3374C117.886 86.7524 118.665 78.9577 117.727 72.8441C117.321 70.1861 113.289 71.3157 113.695 73.9539C113.609 73.3757 113.762 75.4357 113.762 75.9474C113.827 78.3134 113.487 80.6731 112.757 82.9248C111.945 85.038 109.876 85.5829 107.774 86.1743C101.121 87.922 93.8035 87.7426 87.0443 87.2109C82.2943 86.8388 73.0736 87.0714 73.7389 80.2867C74.1247 76.6119 76.054 72.9039 78.0831 69.8605C79.58 67.621 75.9609 65.5278 74.4773 67.7539L74.484 67.7407Z" fill="var(--fill-0, white)"/>
</g>
<path id="Vector_40" d="M70.499 102.627L48.891 105.179C48.891 105.179 58.9699 140.664 54.8785 165.245C54.8785 165.245 49.3301 170.813 48.7447 174.754H58.0585L60.3736 170.694C60.3736 170.694 58.5907 168.82 60.5931 166.095C61.4592 164.879 61.8861 163.406 61.8039 161.915C61.3582 152.008 60.806 117.991 70.499 102.627Z" fill="var(--fill-0, #69320A)"/>
<path id="Vector_41" opacity="0.4" d="M70.499 102.627L48.891 105.179C48.891 105.179 58.9699 140.664 54.8785 165.245C54.8785 165.245 49.3301 170.813 48.7447 174.754H58.0585L60.3736 170.694C60.3736 170.694 58.5907 168.82 60.5931 166.095C61.4592 164.879 61.8861 163.406 61.8039 161.915C61.3582 152.008 60.806 117.991 70.499 102.627Z" fill="var(--fill-0, white)"/>
<path id="Vector_42" opacity="0.5" d="M58.1982 148.692C57.6992 147.363 56.6148 147.542 55.7633 147.948C56.0313 153.723 55.726 159.51 54.8518 165.225C54.8518 165.225 49.3035 170.794 48.718 174.734H58.0318L60.347 170.674C60.347 170.674 58.5641 168.8 60.5665 166.076C61.4326 164.86 61.8595 163.386 61.7773 161.896C61.6775 159.344 61.5644 155.191 61.6176 150.174C60.4401 149.509 58.91 150.619 58.1982 148.692Z" fill="var(--fill-0, white)"/>
<path id="Vector_43" d="M51.0598 169.817C49.9355 171.425 48.9442 173.212 48.718 174.754H58.0318L59.6218 171.97C56.6216 172.073 53.6532 171.327 51.0598 169.817Z" fill="var(--fill-0, #263238)"/>
<path id="Vector_44" opacity="0.5" d="M152.78 162.826C152.267 157.748 152.045 152.645 152.115 147.542C151.023 148.313 149.959 150.28 149.201 148.964C148.535 147.815 147.624 148.439 146.999 149.111C147.99 154.633 147.883 161.823 145.508 165.378C142.262 170.249 139.707 171.638 139.474 175H148.788C148.788 175 148.016 170.402 151.163 167.185C151.734 166.62 152.175 165.937 152.454 165.184C152.734 164.431 152.845 163.626 152.78 162.826Z" fill="var(--fill-0, white)"/>
<path id="Vector_45" d="M141.696 170.322C140.439 171.883 139.607 173.139 139.481 174.973H148.795C148.672 173.997 148.688 173.008 148.841 172.036C146.389 171.816 143.982 171.238 141.696 170.322Z" fill="var(--fill-0, #263238)"/>
<path id="Vector_46" d="M111.899 169.93C109.238 173.777 109.477 174.987 109.477 174.987H119.057L119.722 171.764C117.048 171.481 114.42 170.865 111.899 169.93Z" fill="var(--fill-0, #263238)"/>
<path id="Vector_47" d="M75.0827 88.3538H73.6524V125.434H75.0827V88.3538Z" fill="var(--fill-0, #69320A)"/>
<path id="Vector_48" d="M75.0162 124.125H73.7256C73.4059 124.125 73.1468 124.384 73.1468 124.703V134.112C73.1468 134.432 73.4059 134.691 73.7256 134.691H75.0162C75.3359 134.691 75.595 134.432 75.595 134.112V124.703C75.595 124.384 75.3359 124.125 75.0162 124.125Z" fill="var(--fill-0, #263238)"/>
<path id="Vector_49" opacity="0.5" d="M75.0162 124.125H73.7256C73.4059 124.125 73.1468 124.384 73.1468 124.703V134.112C73.1468 134.432 73.4059 134.691 73.7256 134.691H75.0162C75.3359 134.691 75.595 134.432 75.595 134.112V124.703C75.595 124.384 75.3359 124.125 75.0162 124.125Z" fill="var(--fill-0, white)"/>
<path id="Vector_50" d="M2.72117 66.1459C7.25167 66.8104 11.0238 69.3821 13.9975 72.791C14.8823 73.8077 16.3526 72.3259 15.4744 71.3158C12.3011 67.6875 8.12317 64.8434 3.27334 64.1457C1.9428 63.9596 1.39063 65.9731 2.72117 66.1392V66.1459Z" fill="var(--fill-0, #69320A)"/>
<path id="Vector_51" d="M10.0325 68.4051C16.4989 64.5908 22.992 59.6734 27.2763 53.4535C28.0414 52.3438 26.2252 51.2938 25.4735 52.3969C21.3887 58.3178 15.1285 62.976 8.98137 66.6043C8.75513 66.7497 8.59381 66.9768 8.53102 67.2381C8.46823 67.4994 8.50882 67.7749 8.64434 68.007C8.77985 68.2392 8.99983 68.4102 9.25844 68.4843C9.51705 68.5585 9.79433 68.5301 10.0325 68.4051Z" fill="var(--fill-0, #69320A)"/>
<path id="Vector_52" d="M20.7567 45.2468C23.1653 47.8168 24.8582 50.9719 25.667 54.3983C26.4759 57.8247 26.3724 61.4029 25.367 64.7769C24.9811 66.0661 26.9969 66.6176 27.3628 65.3351C28.4648 61.6052 28.5699 57.6521 27.6677 53.869C26.7655 50.0859 24.8874 46.6047 22.2203 43.7716C21.2889 42.8014 19.812 44.2766 20.7434 45.2468H20.7567Z" fill="var(--fill-0, #69320A)"/>
<g id="Group_3" opacity="0.3">
<path id="Vector_53" d="M2.72117 66.1458C7.25167 66.8103 11.0238 69.382 13.9975 72.791C14.8823 73.8077 16.3526 72.3258 15.4744 71.3157C12.3011 67.6875 8.12317 64.8433 3.27334 64.1456C1.9428 63.9595 1.39063 65.973 2.72117 66.1392V66.1458Z" fill="var(--fill-0, black)"/>
<path id="Vector_54" d="M10.0325 68.4051C16.4989 64.5908 22.992 59.6734 27.2763 53.4535C28.0414 52.3438 26.2252 51.2938 25.4735 52.3969C21.3887 58.3178 15.1285 62.976 8.98137 66.6043C8.75512 66.7497 8.5938 66.9768 8.53101 67.2381C8.46822 67.4994 8.50882 67.7749 8.64433 68.007C8.77985 68.2392 8.99983 68.4102 9.25844 68.4843C9.51704 68.5585 9.79432 68.5301 10.0325 68.4051Z" fill="var(--fill-0, black)"/>
<path id="Vector_55" d="M20.7567 45.2468C23.1653 47.8168 24.8582 50.9719 25.667 54.3983C26.4759 57.8247 26.3724 61.4029 25.367 64.7769C24.9812 66.0661 26.9969 66.6176 27.3628 65.3351C28.4648 61.6052 28.5699 57.6521 27.6677 53.869C26.7655 50.0859 24.8874 46.6047 22.2203 43.7716C21.2889 42.8014 19.812 44.2766 20.7434 45.2468H20.7567Z" fill="var(--fill-0, black)"/>
</g>
<path id="Vector_56" d="M16.306 42.1369C20.8299 44.8814 30.2368 61.0025 28.8397 50.6759C28.8397 50.6759 39.524 62.6372 36.3906 52.1844C36.3906 52.1844 43.183 53.1546 46.3697 63.202C48.6915 70.5117 50.0885 60.3047 50.0885 60.3047C50.0885 60.3047 59.4888 79.4561 58.3312 67.8403C58.3312 67.8403 63.2077 74.7978 65.4097 73.0568C67.7847 71.1895 64.5981 69.3488 63.3208 64.0127C62.0435 58.6767 57.6327 58.2049 57.6327 58.2049C57.6327 58.2049 50.2016 49.2871 49.0441 50.8952C49.0441 50.8952 37.9007 40.6883 35.1133 43.0074C35.1133 43.0074 24.1962 39.0668 25.5932 41.5056C25.5932 41.5189 13.9111 40.6883 16.306 42.1369Z" fill="var(--fill-0, #263238)"/>
<path id="Vector_57" d="M92.4863 52.2641C87.4768 52.8555 82.6003 50.4965 81.6157 45.2601C81.4893 44.5956 80.4848 44.8813 80.6045 45.5325C81.6756 51.1942 87.0177 53.9519 92.4863 53.3074C93.1515 53.2343 93.1515 52.191 92.4863 52.2641Z" fill="var(--fill-0, #69320A)"/>
<g id="Group_4" opacity="0.5">
<path id="Vector_58" d="M92.4863 52.2641C87.4768 52.8555 82.6003 50.4965 81.6157 45.2601C81.4893 44.5956 80.4848 44.8813 80.6045 45.5325C81.6756 51.1942 87.0177 53.9519 92.4863 53.3074C93.1515 53.2343 93.1515 52.191 92.4863 52.2641Z" fill="var(--fill-0, black)"/>
</g>
<path id="Vector_59" d="M10.3452 68.6844C26.0988 82.3601 50.3214 88.5069 69.2018 77.9212C79.3937 72.2063 86.9712 62.9031 92.9387 53.055C93.0008 52.9357 93.0147 52.7971 92.9775 52.6678C92.9403 52.5386 92.8549 52.4285 92.7388 52.3603C92.6228 52.2921 92.485 52.271 92.3538 52.3014C92.2226 52.3317 92.1081 52.4112 92.0339 52.5234C82.607 68.0797 68.4434 81.9348 49.217 82.3801C37.7943 82.6459 26.5978 78.393 17.1043 72.3127C15.0051 71.0019 13.004 69.5406 11.1169 67.9401C10.6113 67.5016 9.86619 68.2392 10.3785 68.6844H10.3452Z" fill="var(--fill-0, #69320A)"/>
<g id="Group_5" opacity="0.5">
<path id="Vector_60" d="M10.3452 68.6844C26.0988 82.3601 50.3214 88.5069 69.2018 77.9212C79.3937 72.2063 86.9712 62.9031 92.9387 53.055C93.0008 52.9357 93.0147 52.7971 92.9775 52.6678C92.9403 52.5386 92.8549 52.4285 92.7388 52.3603C92.6228 52.2921 92.485 52.271 92.3538 52.3014C92.2226 52.3317 92.1081 52.4112 92.0339 52.5234C82.607 68.0797 68.4434 81.9348 49.217 82.3801C37.7943 82.6459 26.5978 78.393 17.1043 72.3127C15.0051 71.0019 13.004 69.5406 11.1169 67.9401C10.6113 67.5016 9.86619 68.2392 10.3785 68.6844H10.3452Z" fill="var(--fill-0, black)"/>
</g>
<path id="Vector_61" d="M74.6969 127.248C73.3065 129.062 71.4703 132.086 67.0928 133.488C66.1349 133.793 67.1261 136.146 69.4413 135.641C73.2799 134.837 71.5369 134.644 74.81 133.999C77.5842 133.454 79.5933 133.175 81.8286 132.777L82.0016 132.723C82.0988 132.686 82.1873 132.629 82.2612 132.556C82.3352 132.482 82.3931 132.394 82.4312 132.298C82.4694 132.201 82.487 132.097 82.4829 131.993C82.4788 131.889 82.4531 131.787 82.4074 131.693L80.212 126.557L77.5842 114.104L70.3128 115.692L74.6969 127.248Z" fill="var(--fill-0, #69320A)"/>
<path id="Vector_62" d="M91.2688 57.6734L89.9715 62.5709C89.9715 62.5709 61.7308 77.1902 61.0588 86.3804C60.4867 94.2018 68.3768 111.167 70.5123 116.815C70.7092 117.273 71.0588 117.648 71.5016 117.877C71.9443 118.106 72.4529 118.175 72.9406 118.071L76.3268 117.447C76.8393 117.367 77.3009 117.092 77.6138 116.679C77.9267 116.266 78.0664 115.748 78.0033 115.234C76.9455 109.22 73.0404 92.5139 75.0695 89.4904C76.5264 87.3307 88.4614 81.5162 98.4138 78.6721C105.067 76.7782 110.389 76.4592 112.724 72.6914C115.385 68.4319 112.198 62.5775 110.229 59.0423C109.655 58.0978 109.262 57.0543 109.071 55.9656L91.2688 57.6734Z" fill="var(--fill-0, #263238)"/>
<path id="Vector_63" d="M96.6908 18.3137C96.6908 18.3137 96.8039 23.5833 98.986 23.3574C101.168 23.1315 99.618 26.2082 101.647 26.2613C103.676 26.3145 106.364 24.9921 107.914 26.2613C109.464 27.5305 111.573 24.9323 111.686 23.1248C111.799 21.3173 104.92 15.7354 104.92 15.7354L98.966 10.0737L96.1053 17.0246L96.6908 18.3137Z" fill="var(--fill-0, #263238)"/>
<path id="Vector_64" opacity="0.4" d="M96.6908 18.3137C96.6908 18.3137 96.8039 23.5833 98.986 23.3574C101.168 23.1315 99.618 26.2082 101.647 26.2613C103.676 26.3145 106.364 24.9921 107.914 26.2613C109.464 27.5305 111.573 24.9323 111.686 23.1248C111.799 21.3173 104.92 15.7354 104.92 15.7354L98.966 10.0737L96.1053 17.0246L96.6908 18.3137Z" fill="var(--fill-0, black)"/>
<path id="Vector_65" d="M101.388 7.51553C101.388 7.51553 103.017 9.24992 102.179 9.74166C101.341 10.2334 99.884 6.79785 99.884 6.79785H100.902L101.388 7.51553Z" fill="var(--fill-0, #263238)"/>
<path id="Vector_66" opacity="0.4" d="M101.388 7.51553C101.388 7.51553 103.017 9.24992 102.179 9.74166C101.341 10.2334 99.884 6.79785 99.884 6.79785H100.902L101.388 7.51553Z" fill="var(--fill-0, white)"/>
<path id="Vector_67" d="M99.0192 13.8289C99.4849 17.1514 100.45 21.8961 103.344 23.2185C103.344 23.2185 104.321 26.4281 96.6908 32.8805C91.9541 29.4383 92.9919 26.0825 92.9919 26.0825C96.1918 24.0557 95.9058 23.1254 94.8014 20.9525L99.0192 13.8289Z" fill="var(--fill-0, #FFD6C9)"/>
<path id="Vector_68" opacity="0.2" d="M98.2142 18.7197C97.9857 18.0817 97.6175 17.5028 97.1365 17.0251L94.8147 20.9524C95.1321 21.5046 95.3737 22.0969 95.5332 22.7134C96.7906 22.0356 98.4205 20.2348 98.2142 18.7197Z" fill="var(--fill-0, black)"/>
<path id="Vector_69" d="M100.603 8.97099C100.915 13.7223 101.141 15.7225 99.0658 18.4403C95.939 22.5404 90.0248 21.8759 88.3017 17.3173C86.7516 13.204 86.5055 6.1003 90.8963 3.66153C91.8608 3.11322 92.9499 2.82075 94.0596 2.81197C95.1694 2.80319 96.263 3.07841 97.2361 3.61138C98.2092 4.14436 99.0295 4.91735 99.6188 5.85671C100.208 6.79607 100.547 7.8705 100.603 8.97765V8.97099Z" fill="var(--fill-0, #FFD6C9)"/>
<path id="Vector_70" d="M93.2322 11.157C93.2788 11.5425 93.1123 11.8814 92.866 11.9146C92.6196 11.9478 92.3732 11.6554 92.32 11.2501C92.2667 10.8447 92.4398 10.5324 92.6862 10.4992C92.9325 10.4659 93.1656 10.7916 93.2322 11.157Z" fill="var(--fill-0, #263238)"/>
<path id="Vector_71" d="M88.8946 11.7154C88.9412 12.1075 88.7747 12.4331 88.5284 12.4729C88.282 12.5128 88.029 12.2138 87.9824 11.8084C87.9358 11.4031 88.1022 11.0908 88.3486 11.0642C88.5949 11.0376 88.8413 11.33 88.8946 11.7154Z" fill="var(--fill-0, #263238)"/>
<path id="Vector_72" d="M88.4622 11.0842L87.5034 10.9377C87.5034 10.9377 88.0826 11.6036 88.4622 11.0842Z" fill="var(--fill-0, #263238)"/>
<path id="Vector_73" d="M90.3241 12.2405C90.0929 13.171 89.7347 14.0654 89.2597 14.8985C89.4739 15.0124 89.71 15.079 89.9522 15.0939C90.1943 15.1088 90.4369 15.0716 90.6634 14.9849L90.3241 12.2405Z" fill="var(--fill-0, #A24E3F)"/>
<path id="Vector_74" d="M92.9453 16.1877C92.7618 16.2381 92.5751 16.2758 92.3865 16.3007C92.3567 16.3047 92.3264 16.2974 92.3018 16.2801C92.2771 16.2629 92.2599 16.237 92.2534 16.2076C92.2515 16.177 92.2615 16.1468 92.2814 16.1232C92.3012 16.0997 92.3293 16.0847 92.3599 16.0814C92.8389 16.0317 93.2995 15.8698 93.7041 15.6089C94.1087 15.3479 94.4459 14.9953 94.6883 14.5796C94.7025 14.5532 94.7261 14.5331 94.7545 14.5232C94.7828 14.5134 94.8138 14.5145 94.8413 14.5264C94.8678 14.5406 94.8879 14.5642 94.8978 14.5925C94.9076 14.6208 94.9065 14.6518 94.8946 14.6793C94.6851 15.0465 94.4051 15.3688 94.0706 15.6277C93.7361 15.8866 93.3537 16.0769 92.9453 16.1877Z" fill="var(--fill-0, #263238)"/>
<path id="Vector_75" d="M94.8679 10.0607C94.8222 10.0761 94.7726 10.076 94.7269 10.0603C94.6812 10.0447 94.6419 10.0145 94.6151 9.97432C94.3698 9.69756 94.0702 9.47398 93.7349 9.3174C93.3997 9.16082 93.0358 9.07455 92.6659 9.06393C92.6059 9.06393 92.5484 9.04013 92.5059 8.99775C92.4635 8.95538 92.4397 8.89792 92.4397 8.83799C92.4397 8.77807 92.4635 8.7206 92.5059 8.67823C92.5484 8.63586 92.6059 8.61206 92.6659 8.61206C93.1112 8.61832 93.5498 8.72074 93.9517 8.9123C94.3537 9.10385 94.7093 9.38001 94.9943 9.7218C95.0276 9.77123 95.0399 9.83177 95.0287 9.89026C95.0175 9.94875 94.9836 10.0005 94.9345 10.0341C94.9155 10.0496 94.8923 10.0588 94.8679 10.0607Z" fill="var(--fill-0, #263238)"/>
<path id="Vector_76" d="M87.337 9.88131C87.2974 9.89149 87.2557 9.89135 87.2161 9.88088C87.1765 9.87041 87.1403 9.84996 87.1108 9.8215C87.0686 9.77915 87.0449 9.72181 87.0449 9.66203C87.0449 9.60224 87.0686 9.54489 87.1108 9.50254C87.3567 9.22454 87.6676 9.01168 88.0159 8.88297C88.3641 8.75426 88.7389 8.71371 89.1066 8.76493C89.1626 8.77472 89.2126 8.80581 89.2461 8.85166C89.2796 8.89751 89.294 8.95456 89.2863 9.01079C89.275 9.06857 89.2415 9.11965 89.193 9.15316C89.1446 9.18668 89.0849 9.19997 89.0268 9.19022C88.7427 9.1633 88.4562 9.20339 88.1905 9.30727C87.9247 9.41115 87.6871 9.5759 87.4967 9.78828C87.4556 9.83648 87.3993 9.86929 87.337 9.88131Z" fill="var(--fill-0, #263238)"/>
<path id="Vector_77" d="M92.8131 10.5925L91.8543 10.446C91.8543 10.446 92.4136 11.052 92.8131 10.5925Z" fill="var(--fill-0, #263238)"/>
<path id="Vector_78" d="M102.545 44.4028C97.4847 46.9625 91.7766 47.9617 86.1462 47.2735L81.3962 47.8715C81.1817 47.8984 80.9638 47.8742 80.7605 47.801C80.5571 47.7277 80.374 47.6074 80.2261 47.4499C80.0782 47.2925 79.9697 47.1023 79.9094 46.8949C79.8491 46.6875 79.8388 46.4689 79.8793 46.2568L80.2852 44.1303C80.3169 43.9525 80.3846 43.783 80.4841 43.6322C80.5836 43.4814 80.7129 43.3524 80.8639 43.2532L81.8485 42.5886C82.0429 42.4591 82.2671 42.3814 82.5 42.3627C82.7329 42.3441 82.9666 42.3853 83.1791 42.4823L86.2593 44.2101C86.2593 44.2101 93.5108 43.2864 97.9747 39.9106L102.545 44.4028Z" fill="var(--fill-0, #FFD6C9)"/>
<path id="Vector_79" d="M100.935 21.4904C102.765 21.012 104.98 22.042 106.018 27.0856C107.754 35.4585 107.129 44.5557 100.875 45.7386L97.3161 39.9772C97.3161 39.9772 99.4517 37.3723 97.9282 30.767C96.5511 24.7931 98.6134 22.1018 100.935 21.4904Z" fill="var(--fill-0, #69320A)"/>
<path id="Vector_80" opacity="0.3" d="M100.935 21.4904C102.765 21.012 104.98 22.042 106.018 27.0856C107.754 35.4585 107.129 44.5557 100.875 45.7386L97.3161 39.9772C97.3161 39.9772 99.4517 37.3723 97.9282 30.767C96.5511 24.7931 98.6134 22.1018 100.935 21.4904Z" fill="var(--fill-0, black)"/>
<path id="Vector_81" d="M90.8763 58.4375L109.105 56.2513C109.105 56.2513 107.282 44.3232 109.105 37.9505C110.928 31.5778 105.007 19.7428 101.121 20.6731C97.2363 21.6034 90.8697 27.4977 90.8697 27.4977C90.8697 27.4977 86.7649 36.1364 87.4502 40.2231C88.1354 44.3099 92.473 53.4603 90.8763 58.4375Z" fill="var(--fill-0, #424449)"/>
<path id="Vector_82" d="M90.7432 27.8699C91.6746 27.5841 92.9586 27.5376 93.3245 29.272C93.3245 29.272 96.1053 22.8328 102.638 20.9323C102.17 20.6883 101.633 20.611 101.115 20.713C97.2429 21.6234 90.863 27.5376 90.863 27.5376C90.863 27.5376 90.8164 27.624 90.7432 27.8699Z" fill="var(--fill-0, #69320A)"/>
<path id="Vector_83" d="M90.7432 27.8699C91.6746 27.5841 92.9586 27.5376 93.3245 29.272C93.3245 29.272 96.1053 22.8328 102.638 20.9323C102.17 20.6883 101.633 20.611 101.115 20.713C97.2429 21.6234 90.863 27.5376 90.863 27.5376C90.863 27.5376 90.8164 27.624 90.7432 27.8699Z" fill="var(--fill-0, white)"/>
<path id="Vector_84" d="M111.047 45.0273C111.047 45.0273 105.2 52.2705 96.1785 55.726L90.8563 56.1447C90.6064 56.1598 90.3591 56.0869 90.1574 55.9388C89.9556 55.7907 89.8122 55.5767 89.752 55.334L88.8273 51.9184C88.7475 51.629 88.7808 51.3202 88.9204 51.0545L89.426 50.0976C89.4908 49.9696 89.5811 49.8562 89.6915 49.7644C89.8018 49.6726 89.9298 49.6043 90.0676 49.5638C90.2053 49.5234 90.3499 49.5115 90.4925 49.529C90.635 49.5465 90.7724 49.593 90.8963 49.6656L95.48 52.4234C95.48 52.4234 102.366 48.3433 104.86 42.9607L111.047 45.0273Z" fill="var(--fill-0, #FFD6C9)"/>
<path id="Vector_85" d="M99.1523 23.949C100.583 22.62 103.051 22.5136 106.297 26.8197C111.673 33.9699 115.252 42.9541 110.149 47.114L104.308 43.3462C104.308 43.3462 105.047 39.8243 100.662 34.2556C96.7307 29.1987 97.3361 25.6568 99.1523 23.949Z" fill="var(--fill-0, #69320A)"/>
<path id="Vector_86" d="M99.1523 23.949C100.583 22.62 103.051 22.5136 106.297 26.8197C111.673 33.9699 115.252 42.9541 110.149 47.114L104.308 43.3462C104.308 43.3462 105.047 39.8243 100.662 34.2556C96.7307 29.1987 97.3361 25.6568 99.1523 23.949Z" fill="var(--fill-0, white)"/>
<path id="Vector_87" d="M95.0342 6.39923C95.0342 6.39923 95.2404 13.8152 97.03 12.7985C98.8196 11.7818 98.7797 13.5561 99.904 13.6491C101.028 13.7421 100.476 18.0282 102 18.2342C103.523 18.4402 102.066 21.59 103.643 22.7131C105.22 23.8361 107.302 23.5504 107.967 25.1585C108.632 26.7666 111.101 25.524 111.959 24.0488C113.123 22.0552 112.045 22.0552 112.624 20.1746C113.875 16.3005 108.872 18.6861 108.386 15.4034C107.774 11.2834 105.133 13.3368 104.335 11.516C103.39 9.34303 101.58 9.456 100.543 6.81123C99.5048 4.16646 95.0342 6.39923 95.0342 6.39923Z" fill="var(--fill-0, #263238)"/>
<path id="Vector_88" d="M97.9614 16.9319L97.7419 16.1677C98.3729 16.0317 98.9638 15.7516 99.4682 15.3492C99.9727 14.9468 100.377 14.4332 100.649 13.8485C101.78 11.1572 99.7377 7.31634 99.7178 7.27647L100.416 6.89771C100.509 7.07048 102.665 11.1107 101.381 14.1542C101.067 14.8514 100.594 15.4656 100.001 15.9479C99.4071 16.4301 98.7087 16.7671 97.9614 16.9319Z" fill="var(--fill-0, #69320A)"/>
<g id="Group_6" opacity="0.4">
<path id="Vector_89" d="M97.9614 16.9319L97.7419 16.1677C98.3729 16.0317 98.9638 15.7516 99.4682 15.3492C99.9727 14.9468 100.377 14.4332 100.649 13.8485C101.78 11.1572 99.7377 7.31634 99.7178 7.27647L100.416 6.89771C100.509 7.07048 102.665 11.1107 101.381 14.1542C101.067 14.8514 100.594 15.4656 100.001 15.9479C99.4071 16.4301 98.7087 16.7671 97.9614 16.9319Z" fill="var(--fill-0, black)"/>
</g>
<path id="Vector_90" d="M101.587 12.4331C101.399 13.3174 100.868 14.0914 100.11 14.5861C99.0991 15.2506 98.2409 14.4 98.2276 13.257C98.2276 12.2337 98.7465 10.6588 99.904 10.4594C100.106 10.4315 100.311 10.4437 100.508 10.4956C100.704 10.5474 100.889 10.6378 101.05 10.7614C101.212 10.8851 101.347 11.0395 101.449 11.2158C101.55 11.3921 101.615 11.5868 101.64 11.7885C101.67 12.0046 101.652 12.2246 101.587 12.4331Z" fill="var(--fill-0, #FFD6C9)"/>
<path id="Vector_91" d="M97.6887 6.67847L96.9369 6.94427C96.9369 7.01072 99.2654 13.5894 97.0633 17.6961C96.6513 18.4675 96.077 19.1406 95.38 19.6694C94.6829 20.1982 93.8796 20.5701 93.0251 20.7595L92.0139 20.8725C92.79 21.1138 93.6066 21.1974 94.4155 21.1184C95.8453 20.5218 97.0218 19.4454 97.7419 18.0749C100.137 13.6226 97.7951 6.95756 97.6887 6.67847Z" fill="var(--fill-0, #69320A)"/>
<path id="Vector_92" opacity="0.4" d="M97.6887 6.67847L96.9369 6.94427C96.9369 7.01072 99.2654 13.5894 97.0633 17.6961C96.6513 18.4675 96.077 19.1406 95.38 19.6694C94.6829 20.1982 93.8796 20.5701 93.0251 20.7595L92.0139 20.8725C92.79 21.1138 93.6066 21.1974 94.4155 21.1184C95.8453 20.5218 97.0218 19.4454 97.7419 18.0749C100.137 13.6226 97.7951 6.95756 97.6887 6.67847Z" fill="var(--fill-0, black)"/>
<path id="Vector_93" d="M86.6652 7.51553C86.6652 7.51553 90.5969 5.69476 95.9457 7.51553C95.9457 7.51553 100.004 7.10353 101.414 7.51553C101.414 7.51553 100.05 0.591284 93.431 0.936832C87.8161 1.22922 86.6652 7.51553 86.6652 7.51553Z" fill="var(--fill-0, #263238)"/>
<path id="Vector_94" opacity="0.2" d="M86.6652 7.51553C86.6652 7.51553 90.5969 5.69476 95.9457 7.51553C95.9457 7.51553 100.004 7.10353 101.414 7.51553C101.414 7.51553 100.05 0.591284 93.431 0.936832C87.8161 1.22922 86.6652 7.51553 86.6652 7.51553Z" fill="var(--fill-0, white)"/>
<path id="Vector_95" d="M86.6651 7.51547C86.6651 7.51547 83.3787 9.91437 88.5878 9.70173C93.7968 9.48908 95.9457 7.51547 95.9457 7.51547C95.9457 7.51547 92.2135 2.56483 86.6651 7.51547Z" fill="var(--fill-0, #263238)"/>
<path id="Vector_96" opacity="0.4" d="M86.6651 7.51547C86.6651 7.51547 83.3787 9.91437 88.5878 9.70173C93.7968 9.48908 95.9457 7.51547 95.9457 7.51547C95.9457 7.51547 92.2135 2.56483 86.6651 7.51547Z" fill="var(--fill-0, white)"/>
<path id="Vector_97" d="M96.5444 1.03664C96.5444 1.61477 95.5332 0.970197 94.2825 0.970197C93.0318 0.970197 92.0206 1.63471 92.0206 1.03664C92.0206 0.438578 93.0318 0 94.2825 0C95.5332 0 96.5444 0.465159 96.5444 1.03664Z" fill="var(--fill-0, #263238)"/>
</g>
</svg>
