<svg preserveAspectRatio="none" width="100%" height="100%" overflow="visible" style="display: block;" viewBox="0 0 118 164" fill="none" xmlns="http://www.w3.org/2000/svg">
<g id="freepik--character-2--inject-19">
<path id="Vector" d="M83.5338 83.4392C83.5009 83.1212 83.3505 82.8268 83.1118 82.6133C82.8731 82.3997 82.5633 82.2824 82.2426 82.2841H72.5018C72.3118 82.2845 72.1242 82.3268 71.9526 82.408C71.7809 82.4893 71.6294 82.6074 71.5091 82.7539C71.3887 82.9005 71.3023 83.0718 71.2562 83.2555C71.2102 83.4393 71.2055 83.6309 71.2425 83.8167C71.2998 84.1135 71.4612 84.3804 71.6977 84.5695C71.9343 84.7587 72.2306 84.8577 72.5337 84.8491H82.2472C82.427 84.8486 82.6048 84.8107 82.7692 84.738C82.9335 84.6653 83.0809 84.5592 83.202 84.4266C83.323 84.294 83.415 84.1377 83.4721 83.9677C83.5292 83.7977 83.5502 83.6177 83.5338 83.4392Z" fill="var(--fill-0, #263238)"/>
<path id="Vector_2" d="M104.781 160.453C104.692 161.059 104.785 161.678 105.049 162.232C105.312 162.785 105.735 163.248 106.263 163.562C106.79 163.876 107.4 164.027 108.014 163.996C108.627 163.965 109.218 163.753 109.711 163.387C110.204 163.021 110.577 162.517 110.783 161.94C110.989 161.363 111.018 160.737 110.867 160.143C110.717 159.549 110.393 159.013 109.936 158.603C109.48 158.193 108.912 157.926 108.303 157.838C107.488 157.72 106.66 157.929 105.999 158.419C105.339 158.909 104.901 159.641 104.781 160.453Z" fill="var(--fill-0, #263238)"/>
<path id="Vector_3" d="M107.208 160.922L105.315 157.02L106.31 156.387L108.144 160.462L107.208 160.922Z" fill="var(--fill-0, #455A64)"/>
<path id="Vector_4" d="M89.6612 112.882L77.8947 82.2797L75.6591 83.3984L87.0606 113.724L89.6612 112.882Z" fill="var(--fill-0, #263238)"/>
<path id="Vector_5" d="M116.83 153.305L99.4458 160.19C99.1354 160.313 98.7888 160.308 98.4821 160.176C98.1754 160.044 97.9339 159.796 97.8105 159.487L80.5202 116.111C79.8669 114.472 79.8935 112.642 80.5941 111.022C81.2947 109.403 82.6119 108.128 84.256 107.476L91.5827 104.575C93.2267 103.923 95.0629 103.95 96.6874 104.648C98.3118 105.347 99.5914 106.66 100.245 108.298L117.535 151.675C117.658 151.984 117.653 152.33 117.521 152.635C117.389 152.941 117.14 153.182 116.83 153.305Z" fill="var(--fill-0, #FF725E)"/>
<path id="Vector_6" d="M97.7914 159.685C97.7914 159.685 97.764 159.594 97.7002 159.421L97.4127 158.652L96.2813 155.701L92.0701 144.872C90.2771 140.301 88.151 134.867 85.7876 128.823L82.0692 119.349C81.7499 118.531 81.4214 117.703 81.0974 116.866C80.7539 116.048 80.6282 115.155 80.7324 114.274C80.8447 113.376 81.1978 112.525 81.7546 111.81C82.3114 111.096 83.0513 110.544 83.8962 110.214C84.7411 109.883 85.6599 109.786 86.5556 109.932C87.4514 110.078 88.291 110.463 88.9859 111.045C89.6603 111.622 90.1768 112.361 90.4869 113.192L91.4633 115.679C92.759 118.963 94.0092 122.128 95.1954 125.148L101.533 141.175C103.358 145.723 104.804 149.411 105.826 151.971L107.003 154.905C107.14 155.228 107.24 155.482 107.318 155.664C107.395 155.846 107.432 155.919 107.432 155.919C107.432 155.919 107.404 155.828 107.341 155.651L107.053 154.882C106.793 154.2 106.41 153.208 105.922 151.935L101.711 141.106L95.4281 125.057C94.2464 122.037 93.0008 118.867 91.7097 115.584C91.3903 114.761 91.0618 113.933 90.7333 113.096C90.4143 112.215 89.872 111.432 89.1593 110.822C88.4272 110.208 87.5426 109.803 86.5987 109.649C85.6548 109.494 84.6866 109.596 83.7962 109.945C82.9058 110.293 82.1262 110.875 81.5396 111.628C80.953 112.381 80.5811 113.278 80.4633 114.224C80.3529 115.151 80.4849 116.091 80.8465 116.953L81.8229 119.459C83.1186 122.738 84.3687 125.907 85.5549 128.923C87.9365 134.944 90.0855 140.379 91.8876 144.927L96.1809 155.728L97.3626 158.657C97.4949 158.984 97.5998 159.234 97.6774 159.416C97.7099 159.508 97.748 159.598 97.7914 159.685Z" fill="var(--fill-0, #263238)"/>
<path id="Vector_7" d="M96.669 128.859C96.7055 128.977 98.9776 128.081 101.747 126.867C104.516 125.653 106.729 124.566 106.693 124.452C106.656 124.339 104.38 125.225 101.615 126.444C98.8499 127.663 96.6325 128.741 96.669 128.859Z" fill="var(--fill-0, #263238)"/>
<path id="Vector_8" d="M81.2936 82.2795L79.2633 78.2774C79.0358 77.8302 78.6556 77.4786 78.1912 77.2859L74.9975 75.958L66.3927 64.3245L65.5806 73.2338L71.0555 78.8686C71.0555 78.8686 74.491 86.0815 77.2969 85.7132C77.2273 85.0632 77.0354 84.4321 76.7312 83.8531C75.8187 82.2795 76.7905 82.2795 76.9182 82.2886H79.2679L81.2936 82.2795Z" fill="var(--fill-0, #FFBE9D)"/>
<path id="Vector_9" d="M67.2458 76.1261C67.5059 76.5126 69.632 79.3869 69.632 79.3869L75.659 75.0164L73.469 72.8834L67.2458 76.1261Z" fill="var(--fill-0, #FF725E)"/>
<path id="Vector_10" d="M76.7494 83.8533C76.7494 83.8533 78.3189 84.7629 78.5151 85.4997V85.9544L76.6354 85.6816L76.7494 83.8533Z" fill="var(--fill-0, #FFBE9D)"/>
<path id="Vector_11" d="M78.8528 84.708C78.5745 84.4911 78.3576 84.2059 78.2231 83.8803C78.1626 83.716 78.1655 83.5352 78.2313 83.373C78.297 83.2107 78.421 83.0787 78.579 83.0025C78.9029 82.8934 79.236 83.1253 79.4915 83.3573C79.8122 83.6435 80.1168 83.9472 80.404 84.2668C80.54 84.3832 80.6464 84.53 80.7146 84.6951C80.7828 84.8603 80.8108 85.0393 80.7964 85.2173C80.7542 85.3555 80.6702 85.4774 80.5558 85.5661C80.4415 85.6548 80.3024 85.7062 80.1576 85.7131C80.012 85.7162 79.8672 85.6896 79.7322 85.6348C79.5973 85.5801 79.475 85.4983 79.3729 85.3947C79.1696 85.1905 79.0071 84.9498 78.8938 84.6852" fill="var(--fill-0, #FFBE9D)"/>
<path id="Vector_12" d="M80.445 84.5718C80.1668 84.3549 79.9499 84.0697 79.8154 83.7441C79.7549 83.5799 79.7578 83.3991 79.8236 83.2368C79.8893 83.0746 80.0133 82.9426 80.1713 82.8664C80.4952 82.7572 80.8283 82.9892 81.0838 83.2211C81.4045 83.5074 81.7091 83.811 81.9963 84.1307C82.1323 84.247 82.2387 84.3938 82.3069 84.559C82.3751 84.7242 82.4031 84.9031 82.3886 85.0812C82.3465 85.2194 82.2624 85.3412 82.1481 85.43C82.0337 85.5187 81.8947 85.57 81.7499 85.5769C81.6043 85.5798 81.4596 85.553 81.3247 85.4983C81.1897 85.4435 81.0674 85.362 80.9652 85.2585C80.7619 85.0544 80.5993 84.8136 80.4861 84.5491" fill="var(--fill-0, #FFBE9D)"/>
<path id="Vector_13" d="M75.6591 77.7408C75.6591 77.6862 76.0651 77.7044 76.5351 78.1092C76.7536 78.3753 76.9362 78.6689 77.078 78.9824C77.2904 79.363 77.3975 79.7931 77.3882 80.2285C77.3228 80.6567 77.1537 81.0626 76.8955 81.411C76.7209 81.6913 76.5944 81.9987 76.5214 82.3205C76.4552 82.6189 76.4336 82.9254 76.4575 83.2301C76.3784 83.0879 76.3287 82.9313 76.3115 82.7696C76.2942 82.6079 76.3097 82.4443 76.3571 82.2887C76.412 81.9438 76.5312 81.6122 76.7084 81.3109C76.9403 80.9856 77.0962 80.6126 77.1647 80.2194C77.1698 79.8242 77.0774 79.4337 76.8955 79.0824C76.7754 78.7802 76.6224 78.4919 76.4392 78.2229C76.2824 78.0681 76.1042 77.9364 75.91 77.8318C75.8281 77.7968 75.7443 77.7664 75.6591 77.7408Z" fill="var(--fill-0, #EB996E)"/>
<path id="Vector_14" d="M10.7309 36.6915L4.33435 57.0751L23.1499 76.6629L40.3914 72.1968L10.7309 36.6915Z" fill="var(--fill-0, #F5F5F5)"/>
<path id="Vector_15" d="M10.7263 36.6869L10.8723 36.8552L11.3057 37.3645L12.9847 39.3565L19.2398 46.7923L40.4871 72.124L40.6058 72.265L40.4278 72.3105L30.7098 74.83L23.1864 76.7765H23.1179L23.0723 76.7265L4.2659 57.1524L4.2294 57.1114V57.0614C6.2095 50.8172 7.83373 45.719 8.96065 42.1716C9.51727 40.4162 9.95527 39.0472 10.2564 38.1104L10.594 37.0553C10.6716 36.8233 10.7081 36.7051 10.7081 36.7051C10.4891 37.4191 8.23979 44.7094 4.40734 57.116L4.38452 57.025L23.2137 76.5809L23.0997 76.5491L30.6231 74.598L40.3411 72.0785L40.2818 72.2695L19.2262 46.9469L12.9939 39.4429L11.3149 37.41L10.8586 36.8824L10.7263 36.6869Z" fill="var(--fill-0, #263238)"/>
<path id="Vector_16" d="M11.3149 50.1353C11.5538 49.7651 11.8652 49.4468 12.2305 49.1995C12.5958 48.9522 13.0074 48.781 13.4407 48.696C13.8739 48.6111 14.3199 48.6142 14.752 48.7053C15.184 48.7963 15.5931 48.9733 15.9549 49.2257C17.132 50.1353 17.6749 51.8498 19.0893 52.3046C20.1113 52.6321 21.2382 52.1546 22.283 52.341C23.5194 52.5639 24.441 53.7054 24.7969 54.8878C25.1528 56.0703 25.057 57.3755 24.9566 58.6262L18.8383 58.7081L11.3149 50.1353Z" fill="var(--fill-0, #E0E0E0)"/>
<path id="Vector_17" d="M0 38.5518L39.6476 79.2781L23.492 77.6454L0.894242 53.8645L0 38.5518Z" fill="var(--fill-0, #F5F5F5)"/>
<path id="Vector_18" d="M0.00457764 38.5518C0.0410772 39.1476 0.369571 44.3867 0.971814 53.86V53.8099C6.75243 59.8768 14.6592 68.1676 23.597 77.5681L23.524 77.5317L35.9201 78.7778L39.6796 79.1599L39.5838 79.36C17.538 56.6205 0.898818 39.4568 0.0273912 38.5518L39.7526 79.1962L39.9807 79.4282L39.6568 79.3963L35.8928 79.0143L23.5012 77.7591H23.4601L23.4282 77.7318C14.504 68.3131 6.62012 59.9951 0.857752 53.9236V53.8964C0.310259 44.3913 0.0319523 39.1476 0.00457764 38.5518Z" fill="var(--fill-0, #263238)"/>
<path id="Vector_19" d="M15.5169 54.7376C14.2941 56.1429 14.4721 58.3759 15.5169 59.9268C16.5617 61.4776 18.2863 62.4145 20.0291 63.083C21.4389 63.6242 23.1772 63.9653 24.3452 63.0102" fill="var(--fill-0, #E0E0E0)"/>
<path id="Vector_20" d="M13.4547 52.5227C13.5277 52.8638 13.0989 53.1185 12.7521 53.0867C12.4054 53.0548 12.086 52.8593 11.7347 52.8411C10.7811 52.7865 10.261 53.9144 9.4854 54.4647C9.01762 54.7693 8.4492 54.8803 7.90068 54.7742C7.35216 54.668 6.86668 54.3531 6.54719 53.8962C6.02707 53.0912 6.04075 51.8997 5.21951 51.4039C4.73582 51.1683 4.18211 51.1181 3.66372 51.263C3.15044 51.4053 2.6168 51.4607 2.08512 51.4267C1.82009 51.4023 1.57156 51.2877 1.38129 51.1022C1.19103 50.9167 1.07062 50.6715 1.04031 50.4079L0.752884 49.9532L0.0776367 38.7108L13.4547 52.5227Z" fill="var(--fill-0, #E0E0E0)"/>
<path id="Vector_21" d="M32.7766 78.4547C32.98 78.5062 33.1919 78.5156 33.3991 78.4823C33.6063 78.4491 33.8044 78.3739 33.9814 78.2614C34.1583 78.149 34.3103 78.0016 34.428 77.8283C34.5456 77.6551 34.6264 77.4597 34.6654 77.2541C34.7162 76.8028 34.5918 76.3493 34.3178 75.9865C34.0437 75.6238 33.6409 75.3792 33.1918 75.3031C32.3842 75.1985 31.5493 75.6669 30.7737 75.4259C29.8886 75.1484 29.5236 74.1252 29.3 73.2292C29.0765 72.3333 28.7617 71.31 27.9039 70.9553C26.485 70.3823 24.9885 72.1969 23.5057 71.7967C22.4062 71.501 21.9818 70.1821 21.1195 69.4408C20.7706 69.1461 20.3517 68.9454 19.9029 68.8579C19.454 68.7703 18.9901 68.7988 18.5555 68.9406C18.1607 69.0368 17.8026 69.2453 17.5247 69.5409C17.2469 69.8365 17.0612 70.2062 16.9905 70.6051L23.5376 77.486L32.7766 78.4547Z" fill="var(--fill-0, #E0E0E0)"/>
<path id="Vector_22" d="M21.9362 147.283L20.3074 156.642C20.3074 156.642 10.2153 158.134 9.74536 159.826L27.84 163.628L30.979 149.147L21.9362 147.283Z" fill="var(--fill-0, #FF725E)"/>
<g id="Group" opacity="0.6">
<path id="Vector_23" d="M26.0698 157.038C26.2326 157.127 26.3566 157.273 26.4181 157.447C26.4795 157.622 26.4741 157.813 26.4029 157.984C26.3192 158.149 26.1752 158.276 26.0003 158.339C25.8254 158.401 25.6331 158.395 25.463 158.32C25.2904 158.225 25.1592 158.07 25.0952 157.884C25.0311 157.699 25.0386 157.496 25.1162 157.315C25.2215 157.151 25.3863 157.035 25.5761 156.99C25.7659 156.945 25.9658 156.975 26.1337 157.074" fill="var(--fill-0, white)"/>
</g>
<path id="Vector_24" opacity="0.6" d="M27.84 163.637L28.1685 162.209L10.667 159.089C10.667 159.089 9.79102 159.271 9.75452 159.853L27.84 163.637Z" fill="var(--fill-0, white)"/>
<path id="Vector_25" d="M20.0337 156.487C20.0337 156.578 20.4535 156.71 20.8276 157.083C21.2017 157.456 21.3568 157.879 21.4435 157.861C21.5302 157.843 21.5074 157.306 21.0466 156.86C20.5858 156.415 20.0337 156.405 20.0337 156.487Z" fill="var(--fill-0, #263238)"/>
<path id="Vector_26" d="M17.9714 156.874C17.9349 156.956 18.2863 157.183 18.5053 157.62C18.7243 158.057 18.7288 158.466 18.8201 158.484C18.9113 158.502 19.071 158.029 18.7836 157.474C18.4961 156.92 17.9897 156.788 17.9714 156.874Z" fill="var(--fill-0, #263238)"/>
<path id="Vector_27" d="M16.4161 158.911C16.4937 158.948 16.7084 158.534 16.5851 158.002C16.4617 157.47 16.0872 157.192 16.0324 157.26C15.9776 157.329 16.1786 157.638 16.2791 158.074C16.3795 158.511 16.3293 158.884 16.4161 158.911Z" fill="var(--fill-0, #263238)"/>
<path id="Vector_28" d="M20.6451 154.395C20.6451 154.486 21.1013 154.45 21.5895 154.586C22.0777 154.723 22.4336 154.964 22.502 154.9C22.5705 154.837 22.2556 154.445 21.6762 154.286C21.0968 154.127 20.6132 154.318 20.6451 154.395Z" fill="var(--fill-0, #263238)"/>
<path id="Vector_29" opacity="0.3" d="M21.6169 149.138L21.3249 150.803L30.2353 152.59L30.5638 151.103L21.6169 149.138Z" fill="var(--fill-0, black)"/>
<path id="Vector_30" d="M21.0055 152.513C21.2876 152.655 21.6026 152.719 21.918 152.699C22.2581 152.712 22.5986 152.682 22.9308 152.608C23.1256 152.565 23.3175 152.51 23.5057 152.444C23.6197 152.41 23.7275 152.358 23.8251 152.29C23.895 152.239 23.9466 152.168 23.9721 152.086C23.9976 152.004 23.9957 151.916 23.9665 151.835C23.9343 151.765 23.8862 151.703 23.8261 151.654C23.766 151.605 23.6954 151.57 23.6198 151.553C23.506 151.528 23.3891 151.521 23.273 151.53C22.7238 151.546 22.188 151.703 21.7172 151.985C21.2154 152.285 21.0009 152.581 21.0283 152.608C21.0557 152.635 21.3249 152.412 21.8176 152.181C22.2759 151.97 22.7729 151.855 23.2776 151.844C23.4783 151.844 23.6426 151.867 23.6745 151.962C23.7065 152.058 23.6745 152.012 23.6335 152.062C23.5607 152.109 23.4825 152.147 23.4008 152.176C23.2243 152.241 23.0446 152.297 22.8624 152.344C22.5517 152.425 22.2339 152.477 21.9134 152.499C21.6108 152.483 21.3075 152.487 21.0055 152.513Z" fill="var(--fill-0, #263238)"/>
<path id="Vector_31" d="M21.0967 152.658C21.1241 152.681 21.3659 152.403 21.521 151.839C21.6046 151.508 21.6324 151.166 21.6032 150.825C21.5887 150.621 21.5504 150.42 21.4891 150.225C21.4653 150.096 21.4088 149.975 21.325 149.874C21.2411 149.773 21.1327 149.695 21.01 149.647C20.9289 149.635 20.8458 149.644 20.7695 149.674C20.6932 149.705 20.6265 149.755 20.5766 149.82C20.5078 149.917 20.4526 150.022 20.4124 150.134C20.3382 150.328 20.2951 150.532 20.2846 150.739C20.2632 151.089 20.3274 151.438 20.4717 151.758C20.7272 152.299 21.0739 152.481 21.0876 152.453C21.1013 152.426 20.8549 152.181 20.6815 151.671C20.5785 151.38 20.5411 151.069 20.5721 150.762C20.5913 150.584 20.6343 150.41 20.6998 150.243C20.7682 150.061 20.8732 149.92 20.9416 149.957C21.01 149.993 21.156 150.148 21.1971 150.316C21.2553 150.486 21.2981 150.661 21.3249 150.839C21.369 151.151 21.369 151.468 21.3249 151.78C21.2154 152.331 21.0511 152.658 21.0967 152.658Z" fill="var(--fill-0, #263238)"/>
<path id="Vector_32" d="M81.394 147.851L77.484 142.757L77.2787 142.494L70.5992 147.437L76.7722 154.195L76.5487 161.04C73.1086 161.922 72.593 163.637 72.593 163.637H79.7378L86.2302 151.176L81.394 147.851Z" fill="var(--fill-0, #FF725E)"/>
<path id="Vector_33" opacity="0.6" d="M86.2439 151.166L79.7515 163.627L72.6068 163.637L73.4097 162.563L79.2223 162.24L85.2128 150.461L86.2439 151.166Z" fill="var(--fill-0, white)"/>
<path id="Vector_34" d="M76.6034 157.902C76.6582 157.975 77.0597 157.743 77.6209 157.756C78.182 157.77 78.579 158.002 78.6337 157.929C78.6885 157.856 78.3006 157.474 77.6254 157.442C76.9502 157.411 76.5304 157.847 76.6034 157.902Z" fill="var(--fill-0, #263238)"/>
<path id="Vector_35" d="M76.7175 156.205C76.7905 156.255 77.1053 155.837 77.6756 155.723C78.2459 155.61 78.7022 155.873 78.7478 155.801C78.7934 155.728 78.693 155.646 78.4923 155.537C78.2213 155.404 77.9137 155.363 77.6174 155.423C77.3211 155.482 77.0528 155.637 76.8544 155.864C76.7129 156.046 76.681 156.187 76.7175 156.205Z" fill="var(--fill-0, #263238)"/>
<path id="Vector_36" d="M76.6719 154.022C76.7495 154.063 76.9913 153.649 77.4886 153.476C77.9859 153.304 78.433 153.476 78.4695 153.386C78.506 153.295 78.4011 153.254 78.2004 153.181C77.9364 153.086 77.6477 153.086 77.3837 153.181C77.1215 153.276 76.8985 153.455 76.7495 153.69C76.64 153.877 76.6309 154.022 76.6719 154.022Z" fill="var(--fill-0, #263238)"/>
<path id="Vector_37" d="M74.7557 152.34C74.8424 152.367 75.0432 151.962 75.4857 151.676C75.9283 151.389 76.3708 151.348 76.3982 151.257C76.4256 151.166 75.8644 151.053 75.3306 151.416C74.7968 151.78 74.669 152.331 74.7557 152.34Z" fill="var(--fill-0, #263238)"/>
<path id="Vector_38" d="M73.8249 150.875C73.8614 150.898 74.0941 150.612 74.4454 150.13L75.0522 149.275C75.1888 149.099 75.2994 148.904 75.3807 148.697C75.4052 148.622 75.4142 148.544 75.4072 148.465C75.4001 148.387 75.3771 148.311 75.3396 148.242C75.2959 148.168 75.232 148.108 75.1553 148.068C75.0786 148.029 74.9922 148.012 74.9062 148.019C74.6551 148.067 74.4235 148.187 74.2401 148.365C74.0645 148.505 73.9108 148.671 73.7838 148.856C73.5809 149.167 73.4528 149.52 73.4097 149.889C73.335 150.22 73.3922 150.567 73.5694 150.857C73.5713 150.544 73.5911 150.231 73.6287 149.92C73.6966 149.594 73.83 149.284 74.0211 149.011C74.1334 148.854 74.2652 148.712 74.4135 148.588C74.5537 148.46 74.7227 148.368 74.9062 148.319C74.9332 148.316 74.9607 148.321 74.9851 148.333C75.0095 148.345 75.0297 148.364 75.0431 148.388C75.0668 148.452 75.0668 148.523 75.0431 148.588C74.9693 148.763 74.876 148.929 74.7648 149.084C74.5823 149.388 74.3998 149.684 74.2173 149.993C74.0401 150.264 73.9076 150.562 73.8249 150.875Z" fill="var(--fill-0, #263238)"/>
<path id="Vector_39" d="M73.5695 151.089C73.6014 151.089 73.5695 150.711 73.1862 150.284C72.9227 150 72.5737 149.809 72.1918 149.74C71.8099 149.671 71.4159 149.728 71.0692 149.902C71.0328 149.934 71.0038 149.973 70.9841 150.017C70.9644 150.061 70.9545 150.108 70.9552 150.157C70.9597 150.239 70.99 150.319 71.0419 150.384C71.116 150.47 71.2021 150.545 71.2974 150.607C71.4559 150.719 71.6256 150.815 71.8038 150.893C72.1014 151.03 72.4185 151.119 72.7437 151.157C73.0402 151.22 73.349 151.192 73.6288 151.075C73.6288 151.025 73.2911 151.048 72.7801 150.939C72.4853 150.874 72.2 150.772 71.9315 150.634C71.7719 150.554 71.6193 150.462 71.4753 150.357C71.4056 150.313 71.3426 150.259 71.2882 150.197C71.2563 150.134 71.2882 150.152 71.2882 150.134C71.3524 150.095 71.4237 150.068 71.4981 150.056C71.5855 150.038 71.6738 150.024 71.7627 150.016C71.9324 150.005 72.1028 150.017 72.2692 150.052C72.5548 150.116 72.8198 150.251 73.0402 150.443C73.4143 150.78 73.5193 151.107 73.5695 151.089Z" fill="var(--fill-0, #263238)"/>
<path id="Vector_40" opacity="0.6" d="M80.5409 150.953C80.5409 151.12 80.5907 151.284 80.6839 151.423C80.7771 151.562 80.9097 151.67 81.0648 151.734C81.2198 151.798 81.3905 151.815 81.5551 151.782C81.7197 151.75 81.8709 151.669 81.9896 151.551C82.1082 151.433 82.1891 151.282 82.2218 151.118C82.2546 150.954 82.2377 150.784 82.1735 150.629C82.1093 150.475 82.0005 150.342 81.861 150.249C81.7214 150.156 81.5573 150.107 81.3895 150.107C81.1644 150.107 80.9486 150.196 80.7894 150.355C80.6303 150.513 80.5409 150.728 80.5409 150.953Z" fill="var(--fill-0, white)"/>
<path id="Vector_41" opacity="0.3" d="M71.2335 148.115L72.6067 149.62L78.3782 143.921L77.5753 142.88L71.2335 148.115Z" fill="var(--fill-0, black)"/>
<path id="Vector_42" d="M53.4673 29.5057C57.2854 28.1832 61.407 27.9967 65.3296 28.9691C67.0679 29.4011 68.8336 30.1197 69.9468 31.5204C71.2654 33.1759 71.4296 35.4316 71.6349 37.5373C72.0473 41.8203 72.8381 46.0587 73.9983 50.2031C74.9655 53.6504 76.1882 57.025 76.7129 60.5859C77.2376 64.1469 76.9958 67.9171 75.1845 71.0097C72.3923 75.7759 66.4566 77.8815 60.9223 77.9771C58.0115 78.0225 55.0276 77.5996 52.4453 76.2534C49.8629 74.9072 47.714 72.556 47.0844 69.7226" fill="var(--fill-0, #FF725E)"/>
<g id="Group_2" opacity="0.5">
<path id="Vector_43" d="M53.4673 29.5057C57.2854 28.1832 61.407 27.9967 65.3296 28.9691C67.0679 29.4011 68.8336 30.1197 69.9468 31.5204C71.2654 33.1759 71.4296 35.4316 71.6349 37.5373C72.0473 41.8203 72.8381 46.0587 73.9983 50.2031C74.9655 53.6504 76.1882 57.025 76.7129 60.5859C77.2376 64.1469 76.9958 67.9171 75.1845 71.0097C72.3923 75.7759 66.4566 77.8815 60.9223 77.9771C58.0115 78.0225 55.0276 77.5996 52.4453 76.2534C49.8629 74.9072 47.714 72.556 47.0844 69.7226" fill="var(--fill-0, black)"/>
</g>
<path id="Vector_44" d="M61.0775 33.8719C61.6768 34.3938 62.2087 34.9881 62.6606 35.641C63.1303 36.3657 63.5422 37.126 63.8925 37.915C64.3215 38.8947 64.8137 39.8457 65.3661 40.762C65.9339 41.6903 66.716 42.47 67.6474 43.0359C68.4259 43.4997 69.3424 43.6782 70.2388 43.5407C70.8393 43.4551 71.402 43.1975 71.8585 42.7994C71.9799 42.6903 72.0872 42.5666 72.1779 42.431C72.2417 42.3401 72.2691 42.29 72.26 42.2855C72.2509 42.281 72.1049 42.4583 71.8038 42.7085C71.3454 43.0552 70.8015 43.272 70.2297 43.3361C69.383 43.4364 68.5272 43.2472 67.8025 42.7994C66.9157 42.2418 66.1708 41.4868 65.6262 40.5937C65.0813 39.6874 64.5892 38.7505 64.1525 37.7876C63.7845 36.9925 63.3463 36.2315 62.8431 35.5137C62.5013 35.0274 62.0945 34.5898 61.6341 34.213C61.4695 34.0683 61.2813 33.9529 61.0775 33.8719Z" fill="var(--fill-0, #E0E0E0)"/>
<path id="Vector_45" d="M49.704 31.1521L68.0346 29.0186C70.4347 28.7392 72.1532 26.5733 71.873 24.1808L71.4756 20.7884C71.1953 18.3959 69.0225 16.6828 66.6223 16.9622L48.2917 19.0958C45.8916 19.3751 44.1731 21.5411 44.4533 23.9336L44.8507 27.326C45.131 29.7185 47.3039 31.4315 49.704 31.1521Z" fill="var(--fill-0, #455A64)"/>
<path id="Vector_46" d="M66.3151 17.2541C66.3151 17.2541 66.2604 17.2177 66.1418 17.1813C65.9665 17.1314 65.7856 17.1039 65.6034 17.0994C64.9218 17.1022 64.2605 17.3311 63.7237 17.7498C62.9019 18.3263 62.2498 19.1114 61.8348 20.0237C61.371 21.1518 61.1924 22.3762 61.3147 23.5893C61.3808 24.8131 61.8113 25.9895 62.5511 26.9684C63.1586 27.7678 63.9932 28.3667 64.9464 28.6875C65.5805 28.9052 66.2553 28.9798 66.9219 28.9058C67.1029 28.8859 67.2816 28.8493 67.4557 28.7966C67.5744 28.7602 67.6337 28.7375 67.6291 28.7284C67.6246 28.7193 67.3736 28.7648 66.9128 28.7921C66.2664 28.8201 65.6209 28.718 65.0148 28.4919C64.1157 28.1609 63.3336 27.5743 62.7655 26.8046C62.0741 25.8596 61.6731 24.7346 61.6113 23.5665C61.4858 22.4021 61.6423 21.2246 62.0675 20.1329C62.4569 19.2591 63.0649 18.4996 63.8332 17.9272C64.3299 17.5177 64.9423 17.2729 65.5852 17.2268C66.0596 17.195 66.3106 17.2814 66.3151 17.2541Z" fill="var(--fill-0, #263238)"/>
<path id="Vector_47" d="M55.8398 18.1772L58.6685 17.8998C57.9123 18.1303 57.2645 18.6242 56.8435 19.2914C56.4334 19.9548 56.169 20.6972 56.0679 21.4699C55.5614 24.7125 57.2906 28.1962 60.0692 29.9517L57.7879 30.2518C57.7879 30.2518 51.2636 24.4442 55.8215 18.1772" fill="var(--fill-0, #263238)"/>
<path id="Vector_48" d="M52.6369 24.1441C53.3659 24.3452 54.132 24.3735 54.8739 24.2265C55.6158 24.0795 56.3129 23.7615 56.9093 23.2978C57.5058 22.8341 57.985 22.2376 58.3087 21.5561C58.6324 20.8747 58.7915 20.1271 58.7734 19.3734C58.7414 17.9772 58.1027 16.5491 58.5407 15.2166C58.8418 14.307 59.6083 13.5885 59.8684 12.6652C60.2516 11.2781 59.4121 9.88194 58.6137 8.6904C58.1383 7.89869 57.5462 7.18273 56.8572 6.56653C56.5104 6.25956 56.1001 6.0324 55.6554 5.90115C55.2107 5.76989 54.7425 5.73776 54.2839 5.80704" fill="var(--fill-0, #263238)"/>
<path id="Vector_49" d="M39.6796 5.92972C39.7571 6.98483 39.0591 7.93078 38.3519 8.72212C37.6447 9.51345 36.8645 10.3457 36.7094 11.3917C36.4402 13.2518 38.2652 14.9755 37.8911 16.8174C37.6858 17.8042 36.8782 18.5956 36.7322 19.5916C36.5862 20.5875 37.1109 21.5017 37.7542 22.2339C38.3975 22.9661 39.1777 23.5982 39.748 24.3714C40.2895 25.2455 40.7478 26.1682 41.1167 27.1274C41.4851 28.0937 42.1553 28.9164 43.0284 29.4741C44.3971 30.2109 46.2951 29.8652 47.3353 31.0067C48.3756 32.1483 49.5801 32.2802 50.821 33.1124" fill="var(--fill-0, #263238)"/>
<path id="Vector_50" d="M55.9994 7.54431C56.0268 6.58926 55.1371 5.84795 54.2429 5.49776C53.3486 5.14758 52.3495 5.01114 51.551 4.47449C50.8439 4.0197 50.3694 3.26475 49.7717 2.65534C49.0326 1.91236 48.1089 1.37822 47.095 1.10746C46.081 0.836691 45.0132 0.839006 44.0004 1.11416C42.9877 1.38931 42.0663 1.92745 41.3305 2.67362C40.5946 3.41979 40.0705 4.34726 39.8119 5.36133C39.4697 6.72569 39.7024 8.34019 40.7837 9.24977C42.0383 10.3003 43.8953 10.0684 45.5012 9.74094C47.1072 9.41349 48.9231 9.09059 50.2644 10.032C51.072 10.5959 51.5328 11.5192 52.0301 12.3742C52.5274 13.2292 53.1433 14.0978 54.0786 14.4162C55.0139 14.7345 56.2823 14.1842 56.3188 13.2019" fill="var(--fill-0, #263238)"/>
<path id="Vector_51" d="M52.1898 7.74422C52.5902 7.7864 52.96 7.97737 53.2254 8.27909C53.4909 8.58082 53.6327 8.97116 53.6224 9.37236L52.6643 31.0385C52.6232 33.5989 48.8729 35.0361 46.1217 34.9724C43.3478 34.9087 43.2565 33.5489 43.2246 31.1158C43.1653 27.05 43.1698 25.5219 43.1698 25.5446C43.1698 25.5674 39.6613 24.958 38.945 20.3964C38.5891 18.1225 38.7123 14.4069 38.9131 11.3689C39.091 8.64015 40.916 5.27927 43.6535 5.57033L52.1898 7.74422Z" fill="var(--fill-0, #FFBE9D)"/>
<path id="Vector_52" d="M39.78 13.9749C39.7775 14.1277 39.8355 14.2754 39.9413 14.386C40.0472 14.4966 40.1924 14.5613 40.3457 14.5661C40.4198 14.571 40.4941 14.5612 40.5644 14.5373C40.6347 14.5134 40.6995 14.4758 40.7551 14.4267C40.8107 14.3777 40.856 14.3181 40.8883 14.2514C40.9206 14.1848 40.9393 14.1124 40.9434 14.0385C40.9459 13.8864 40.8886 13.7394 40.7837 13.6289C40.6788 13.5184 40.5347 13.4532 40.3822 13.4473C40.3078 13.4417 40.2329 13.4511 40.1621 13.4747C40.0913 13.4983 40.026 13.5358 39.9699 13.5849C39.9138 13.6341 39.8681 13.6939 39.8355 13.7608C39.8029 13.8278 39.784 13.9005 39.78 13.9749Z" fill="var(--fill-0, #263238)"/>
<path id="Vector_53" d="M39.716 13.302C39.789 13.3793 40.2362 13.0519 40.8658 13.0564C41.4954 13.061 41.9608 13.3748 42.0292 13.2975C42.0976 13.2201 41.9881 13.1246 41.7874 12.9791C41.5187 12.7949 41.2009 12.6952 40.8749 12.6926C40.5476 12.6918 40.2284 12.7936 39.9624 12.9836C39.748 13.1337 39.6795 13.2702 39.716 13.302Z" fill="var(--fill-0, #263238)"/>
<path id="Vector_54" d="M46.067 14.1341C46.0646 14.287 46.1225 14.4346 46.2284 14.5453C46.3342 14.6559 46.4795 14.7206 46.6328 14.7253C46.707 14.7315 46.7817 14.7228 46.8525 14.6997C46.9233 14.6766 46.9887 14.6395 47.0448 14.5908C47.101 14.542 47.1468 14.4825 47.1794 14.4157C47.2121 14.349 47.231 14.2764 47.235 14.2023C47.2376 14.0498 47.1804 13.9022 47.0756 13.791C46.9708 13.6798 46.8267 13.6136 46.6738 13.6065C46.5991 13.601 46.5241 13.6103 46.453 13.6338C46.3819 13.6574 46.3163 13.6948 46.2598 13.7439C46.2034 13.793 46.1573 13.8527 46.1242 13.9197C46.0911 13.9867 46.0717 14.0596 46.067 14.1341Z" fill="var(--fill-0, #263238)"/>
<path id="Vector_55" d="M45.9256 13.4336C45.9986 13.5109 46.4411 13.1835 47.0753 13.188C47.7095 13.1926 48.1657 13.5064 48.2342 13.4291C48.3026 13.3518 48.1977 13.2563 47.9924 13.1107C47.7253 12.9234 47.4065 12.8233 47.0799 12.8242C46.7521 12.8203 46.432 12.9224 46.1674 13.1153C45.9621 13.2608 45.8891 13.4018 45.9256 13.4336Z" fill="var(--fill-0, #263238)"/>
<path id="Vector_56" d="M43.6216 18.0998C43.2887 17.9937 42.9439 17.9295 42.595 17.9088C42.4353 17.9088 42.2848 17.8633 42.2574 17.7541C42.2409 17.5879 42.2777 17.4208 42.3623 17.2766L42.846 16.0532C43.288 15.0218 43.648 13.9574 43.9227 12.8697C43.8497 12.8424 43.252 14.2341 42.5905 15.9714C42.4262 16.4262 42.2756 16.8127 42.1342 17.2038C42.0308 17.3959 42 17.6187 42.0475 17.8314C42.0711 17.8881 42.107 17.9388 42.1528 17.9797C42.1986 18.0206 42.2531 18.0508 42.3121 18.0679C42.4013 18.0929 42.4933 18.1067 42.5859 18.1089C42.9303 18.1469 43.2779 18.1438 43.6216 18.0998Z" fill="var(--fill-0, #263238)"/>
<path id="Vector_57" d="M43.1699 25.5445C45.3221 25.5887 47.4446 25.0377 49.3018 23.9527C49.3018 23.9527 47.7871 27.0589 43.2246 26.6224L43.1699 25.5445Z" fill="var(--fill-0, #EB996E)"/>
<path id="Vector_58" d="M43.8862 19.6143C44.0075 19.4646 44.1648 19.3478 44.3434 19.2747C44.522 19.2016 44.7162 19.1744 44.9081 19.1959C45.0473 19.2097 45.1823 19.251 45.3053 19.3174C45.4282 19.3837 45.5367 19.4738 45.6244 19.5824C45.7084 19.6877 45.7579 19.8162 45.766 19.9505C45.7742 20.0847 45.7407 20.2182 45.6701 20.3328C45.5684 20.445 45.4356 20.5243 45.2885 20.5608C45.1414 20.5972 44.9867 20.5891 44.8443 20.5375C44.5454 20.4323 44.2708 20.2684 44.0367 20.0554C43.9651 20.0062 43.9045 19.9427 43.8588 19.869C43.8339 19.8353 43.8206 19.7947 43.8206 19.753C43.8206 19.7112 43.8339 19.6706 43.8588 19.637" fill="var(--fill-0, #EB996E)"/>
<path id="Vector_59" d="M45.4785 18.5363C45.3781 18.5363 45.3736 19.214 44.785 19.696C44.1964 20.1781 43.4664 20.1053 43.4619 20.2008C43.4573 20.2964 43.6261 20.3327 43.9181 20.3418C44.3201 20.35 44.7118 20.2145 45.0222 19.9598C45.323 19.7185 45.5164 19.3689 45.5606 18.9866C45.6017 18.7046 45.5059 18.5318 45.4785 18.5363Z" fill="var(--fill-0, #263238)"/>
<path id="Vector_60" d="M45.6427 12.3331C45.702 12.5014 46.3362 12.4241 47.0753 12.5151C47.8145 12.606 48.4167 12.8061 48.5125 12.656C48.5581 12.5787 48.4532 12.4195 48.2114 12.2513C47.8914 12.0452 47.5272 11.9175 47.1483 11.8783C46.7694 11.8329 46.385 11.8765 46.026 12.0057C45.7522 12.1285 45.6153 12.2513 45.6427 12.3331Z" fill="var(--fill-0, #263238)"/>
<path id="Vector_61" d="M39.9533 11.4824C40.0628 11.6234 40.5008 11.4824 41.021 11.4824C41.5411 11.4824 41.9882 11.578 42.0886 11.4279C42.1342 11.3597 42.0658 11.2141 41.8741 11.0777C41.6142 10.9143 41.3113 10.8318 41.0042 10.8407C40.697 10.8496 40.3995 10.9495 40.1495 11.1277C39.967 11.2642 39.9032 11.4142 39.9533 11.4824Z" fill="var(--fill-0, #263238)"/>
<path id="Vector_62" d="M55.3836 22.7479C54.7513 22.8749 54.0977 22.8501 53.4769 22.6755C52.8561 22.5009 52.2859 22.1816 51.8133 21.7439C51.3408 21.3063 50.9796 20.7628 50.7594 20.1584C50.5393 19.554 50.4666 18.9061 50.5474 18.2682C50.6934 17.1494 51.2956 15.9943 50.9078 14.9482C50.3923 13.5475 48.4213 13.1291 47.8966 11.7192C47.5955 10.9052 47.8692 9.95466 47.5225 9.15878C47.1758 8.3629 46.4093 7.97633 45.6382 7.69891C44.8452 7.49501 44.0892 7.16812 43.398 6.73021C42.7502 6.22994 42.3487 5.28399 42.7639 4.58361C46.1824 4.98951 49.5399 5.80177 52.7647 7.00309C53.5084 7.28051 54.2932 7.61705 54.7357 8.27649C55.1783 8.93594 55.192 9.8819 55.1418 10.7233L54.5669 23.0025" fill="var(--fill-0, #263238)"/>
<path id="Vector_63" d="M57.8472 26.5405C57.8452 26.1496 57.7645 25.7629 57.61 25.4036C57.4207 24.9876 57.1563 24.6099 56.8298 24.2893C56.3912 23.8716 55.893 23.5206 55.3516 23.2479C54.7539 22.925 54.0649 22.6294 53.3623 22.2292C52.5882 21.8189 51.9354 21.2136 51.4689 20.4737C51.2243 20.0599 51.0922 19.5896 51.0857 19.1093C51.1057 18.6216 51.1745 18.1371 51.291 17.6631C51.4181 17.1966 51.4506 16.7096 51.3868 16.2305C51.3372 15.9948 51.2358 15.773 51.0898 15.5812C50.9438 15.3893 50.757 15.232 50.5427 15.1208C50.0865 14.8661 49.6302 14.707 49.1512 14.4887C48.6609 14.2907 48.2469 13.9417 47.9695 13.4927C47.7387 13.0471 47.6198 12.5524 47.6228 12.051C47.6228 11.5735 47.6228 11.1141 47.6228 10.6866C47.6337 10.2594 47.5719 9.83351 47.4403 9.42686C47.3073 9.05422 47.0659 8.72961 46.7468 8.49454C46.1289 8.09909 45.4391 7.82867 44.7165 7.69866C44.1049 7.5773 43.5205 7.34615 42.9919 7.01648C42.593 6.74611 42.301 6.3457 42.1661 5.88405C42.073 5.59728 42.073 5.28854 42.1661 5.00177C42.2017 4.90535 42.2542 4.81602 42.3212 4.73799C42.3212 4.73799 42.271 4.8335 42.2117 5.01996C42.1347 5.29665 42.1442 5.59019 42.2391 5.86132C42.3822 6.29082 42.6668 6.65946 43.0466 6.90733C43.5697 7.21449 44.1425 7.42841 44.7393 7.53949C45.4876 7.66399 46.2039 7.93445 46.8472 8.33537C47.1995 8.5916 47.4678 8.94607 47.6182 9.35409C47.7596 9.78245 47.8289 10.2312 47.8235 10.6821C47.8235 11.1369 47.8235 11.5917 47.8235 12.0464C47.8224 12.511 47.9319 12.9693 48.1429 13.3835C48.3975 13.7933 48.7762 14.1118 49.2242 14.2931C49.6804 14.5068 50.1686 14.6615 50.6386 14.9343C50.8745 15.073 51.0844 15.2515 51.259 15.4619C51.4263 15.6782 51.5404 15.9305 51.5921 16.1987C51.661 16.7096 51.6268 17.2291 51.4917 17.7267C51.3763 18.1841 51.3075 18.6518 51.2864 19.1229C51.2883 19.5675 51.4079 20.0036 51.6332 20.3873C52.0768 21.0984 52.6977 21.6828 53.4353 22.0836C54.1197 22.4838 54.8041 22.7885 55.4063 23.1251C55.9568 23.4124 56.46 23.782 56.8982 24.2211C57.2287 24.5573 57.4905 24.9543 57.6693 25.3899C57.7815 25.6646 57.8418 25.9575 57.8472 26.254C57.853 26.3312 57.853 26.4088 57.8472 26.486C57.8563 26.5133 57.8518 26.5405 57.8472 26.5405Z" fill="var(--fill-0, #263238)"/>
<path id="Vector_64" d="M44.5112 29.6695C44.441 29.7042 44.3654 29.7273 44.2877 29.7377C44.1947 29.7602 44.1001 29.7754 44.0048 29.7832C43.8765 29.8024 43.7468 29.8116 43.617 29.8104C42.775 29.8113 41.9532 29.554 41.2628 29.0737C40.7803 28.7484 40.3753 28.3214 40.0765 27.823C39.758 27.2416 39.5507 26.6062 39.4652 25.9493C39.3828 25.2492 39.1823 24.568 38.8721 23.9346C38.5162 23.3024 37.8546 22.884 37.257 22.3428C36.6462 21.8151 36.2476 21.0849 36.1346 20.2872C36.0282 19.5458 36.1779 18.7905 36.5589 18.1451C36.9304 17.6193 37.2497 17.0588 37.5125 16.4715C37.6913 15.9468 37.7581 15.3907 37.7086 14.8388C37.6181 14.0305 37.4234 13.2371 37.1292 12.4785C37.0146 12.2007 36.9156 11.9167 36.8326 11.628C36.8801 11.6905 36.9185 11.7594 36.9467 11.8327C37.0106 11.9736 37.1064 12.1783 37.2159 12.4466C37.5485 13.2042 37.7712 14.005 37.8774 14.8252C37.9392 15.4028 37.8786 15.9869 37.6995 16.5397C37.4413 17.1413 37.1234 17.7157 36.7505 18.2543C36.3973 18.8581 36.2621 19.5643 36.3673 20.2553C36.4725 20.9993 36.8454 21.6798 37.4166 22.17C37.9869 22.6885 38.6804 23.125 39.0728 23.8163C39.396 24.473 39.6014 25.1811 39.6796 25.9084C39.7552 26.5441 39.947 27.1606 40.2454 27.7275C40.5239 28.2078 40.9037 28.6221 41.3586 28.9418C42.0174 29.4184 42.8035 29.6891 43.617 29.7195C44.1919 29.7331 44.5067 29.6422 44.5112 29.6695Z" fill="var(--fill-0, #263238)"/>
<path id="Vector_65" d="M57.8245 7.93065C57.8688 7.98343 57.8959 8.04851 57.902 8.11711C57.9118 8.2154 57.9011 8.31465 57.8705 8.40859C57.8398 8.50253 57.79 8.58911 57.7241 8.66286C57.6228 8.78409 57.4977 8.88335 57.3564 8.95453C57.2152 9.02571 57.0608 9.06729 56.9028 9.07671C56.495 9.05191 56.0984 8.93363 55.744 8.73108C55.3348 8.50319 54.8795 8.36954 54.4117 8.33996C53.868 8.32565 53.3245 8.37449 52.7921 8.4855C52.1916 8.61512 51.581 8.69272 50.9671 8.71743C50.2764 8.74473 49.6026 8.49964 49.0919 8.03525C48.6335 7.55103 48.2685 6.98677 48.0152 6.37072C47.7819 5.81868 47.4881 5.29401 47.1392 4.80626C46.8414 4.40723 46.4333 4.10347 45.9649 3.93221C45.4965 3.76096 44.9881 3.72964 44.5021 3.8421C43.8399 4.01763 43.2702 4.43908 42.9098 5.02001C42.7832 5.23707 42.6704 5.46188 42.5722 5.69309C42.5722 5.69309 42.5722 5.62487 42.6087 5.49753C42.6588 5.31308 42.7324 5.13579 42.8277 4.96998C43.1183 4.43424 43.5866 4.01573 44.1525 3.78595C44.7183 3.55618 45.3467 3.52941 45.9302 3.71021C46.4757 3.87983 46.9543 4.21538 47.2989 4.66982C47.6616 5.16809 47.9677 5.70501 48.2114 6.27067C48.456 6.8589 48.8053 7.39816 49.2425 7.86243C49.7074 8.2879 50.3228 8.512 50.9534 8.4855C51.5546 8.46237 52.1528 8.38935 52.7419 8.26719C53.2914 8.15858 53.852 8.11583 54.4117 8.13985C54.9034 8.18828 55.3783 8.34352 55.8033 8.59464C56.1338 8.79445 56.5047 8.91871 56.8892 8.95847C57.031 8.95412 57.1706 8.92173 57.2999 8.86318C57.4291 8.80463 57.5454 8.72108 57.642 8.61738C57.7053 8.55417 57.7553 8.47895 57.789 8.39615C57.8227 8.31335 57.8394 8.22465 57.8381 8.13531C57.8245 7.99432 57.788 7.9352 57.8245 7.93065Z" fill="var(--fill-0, #455A64)"/>
<path id="Vector_66" d="M55.2375 6.61641C54.4828 6.44369 53.8111 6.01626 53.3363 5.40651C52.8615 4.79676 52.6127 4.04216 52.632 3.2705C52.6513 2.49885 52.9376 1.75757 53.4424 1.17219C53.9471 0.586816 54.6393 0.193329 55.4018 0.0583637C55.762 -0.0297849 56.1395 -0.0178935 56.4934 0.092749C56.8473 0.203391 57.1641 0.408556 57.4092 0.68597C57.829 1.25446 57.8016 2.10491 58.3217 2.5688C58.8418 3.03268 59.7726 2.85077 60.5117 3.02359C61.0782 3.18464 61.5689 3.54094 61.8965 4.02902C62.224 4.51709 62.3671 5.10523 62.3002 5.68864C62.2072 6.26857 61.9631 6.81403 61.5925 7.27052C61.2218 7.72701 60.7374 8.07855 60.1878 8.29003C59.0743 8.69501 57.8571 8.71742 56.7294 8.3537C55.6112 7.99232 54.5487 7.47805 53.5722 6.82561" fill="var(--fill-0, #263238)"/>
<path id="Vector_67" d="M60.7352 3.31913C60.6919 3.62031 60.5777 3.90702 60.4022 4.15594C60.0224 4.78722 59.4968 5.31892 58.8692 5.70677C58.2416 6.09716 57.5303 6.33404 56.7933 6.39805C56.4879 6.44514 56.1757 6.42181 55.8808 6.32983C55.8808 6.2889 56.2276 6.32983 56.7614 6.22978C57.4592 6.12412 58.1283 5.8781 58.7278 5.50666C59.3256 5.13196 59.8422 4.64177 60.2471 4.06498C60.5619 3.62384 60.6987 3.30549 60.7352 3.31913Z" fill="var(--fill-0, #455A64)"/>
<path id="Vector_68" d="M58.3171 8.36281C57.7293 7.59059 56.9918 6.94391 56.1486 6.46112C55.3053 5.97832 54.3733 5.66925 53.408 5.55221C53.6957 5.4964 53.9916 5.4964 54.2794 5.55221C55.6921 5.7587 56.9737 6.49171 57.8655 7.60331C58.0673 7.82246 58.2211 8.08112 58.3171 8.36281Z" fill="var(--fill-0, #FF725E)"/>
<path id="Vector_69" d="M25.0706 57.8939L17.6749 56.4659L19.0071 58.3533L15.8499 59.9269L13.2083 58.6944C13.4136 59.2324 13.6718 59.7488 13.9793 60.2361C14.5587 61.1957 15.348 61.9688 15.8317 62.0052C15.9938 62.6695 16.3309 63.2787 16.808 63.7698C17.2373 64.1964 17.7704 64.5044 18.355 64.6639C18.9397 64.8233 19.5558 64.8287 20.1432 64.6794L25.1117 62.8875L25.0706 57.8939Z" fill="var(--fill-0, #FFBE9D)"/>
<path id="Vector_70" d="M17.611 61.5912C17.4888 61.7438 17.3341 61.8673 17.1582 61.9531C16.9823 62.0388 16.7894 62.0845 16.5936 62.0869C16.4016 62.1269 16.2033 62.1252 16.012 62.082C15.8207 62.0389 15.641 61.9552 15.4849 61.8368C15.5123 61.7686 15.9822 61.9232 16.5662 61.8368C17.1502 61.7504 17.5745 61.5321 17.611 61.5912Z" fill="var(--fill-0, #EB996E)"/>
<path id="Vector_71" d="M18.5874 63.1602C18.633 63.2057 18.3137 63.5605 17.7662 63.7014C17.6075 63.7627 17.4372 63.788 17.2675 63.7754C17.0978 63.7628 16.9331 63.7127 16.7852 63.6287C16.7852 63.5605 17.2415 63.6014 17.6977 63.474C18.154 63.3467 18.5327 63.1102 18.5874 63.1602Z" fill="var(--fill-0, #EB996E)"/>
<path id="Vector_72" d="M20.4443 57.6073C20.2421 57.7528 20.0267 57.8792 19.801 57.9848C19.4041 58.2076 18.8885 58.5806 18.3091 58.9808C17.813 59.3394 17.2612 59.6144 16.6757 59.7948C16.4342 59.8856 16.1724 59.9092 15.9184 59.8631C15.9184 59.8267 16.2012 59.7949 16.6256 59.6357C17.1734 59.4119 17.6938 59.1266 18.1768 58.7852C18.6673 58.4295 19.1843 58.1117 19.7234 57.8347C19.9431 57.705 20.1897 57.6272 20.4443 57.6073Z" fill="var(--fill-0, #EB996E)"/>
<path id="Vector_73" d="M65.3068 70.1324C65.3068 70.1324 65.5578 70.2916 66.1874 71.4058C68.1173 74.8394 68.8975 83.0666 61.6249 90.4114C52.2172 99.8983 41.1989 115.425 41.1989 115.425L32.5302 151.881L19.4634 149.056L26.1976 111.168L44.6618 77.0224L65.3068 70.1324Z" fill="var(--fill-0, #263238)"/>
<path id="Vector_74" d="M79.7196 140.688L59.5901 109.981L53.4856 83.4755L37.9368 91.0932L45.734 117.994L70.613 148.883L79.7196 140.688Z" fill="var(--fill-0, #263238)"/>
<path id="Vector_75" d="M32.5393 151.88C32.5424 151.819 32.5532 151.758 32.5713 151.699C32.5987 151.571 32.6352 151.398 32.6808 151.176C32.7903 150.721 32.9408 150.034 33.137 149.17L34.8479 141.811C36.3125 135.59 38.3336 127.017 40.5692 117.548C40.7426 116.812 40.916 116.079 41.0802 115.397V115.365C46.7833 108.089 51.9799 101.654 55.8033 97.083C57.7195 94.809 59.2844 92.9899 60.3931 91.7438C60.936 91.1207 61.3831 90.6568 61.6797 90.3385L62.0173 89.9792C62.0949 89.8973 62.1359 89.8564 62.1405 89.8609C62.1092 89.9077 62.0742 89.9518 62.0356 89.9928L61.7116 90.3657C61.4287 90.6977 60.9953 91.1707 60.4569 91.8029C59.3711 93.0535 57.829 94.8909 55.931 97.1876C52.1396 101.785 46.9658 108.239 41.2673 115.511V115.466C41.1076 116.148 40.9342 116.88 40.7563 117.617L35.0122 141.852C34.2594 144.94 33.6435 147.446 33.2283 149.193C33.0138 150.048 32.8496 150.721 32.731 151.185C32.6762 151.407 32.6306 151.576 32.5987 151.703C32.5845 151.764 32.5646 151.823 32.5393 151.88Z" fill="var(--fill-0, #455A64)"/>
<path id="Vector_76" d="M56.1454 79.8235C56.0525 79.9005 55.9456 79.9592 55.8306 79.9964C55.529 80.1265 55.2159 80.2285 54.8953 80.3011C53.8285 80.5437 52.7173 80.5111 51.6666 80.2063C50.616 79.9015 49.6607 79.3346 48.8912 78.5592C48.6596 78.3264 48.4489 78.0738 48.2615 77.8043C48.1338 77.6087 48.0745 77.495 48.0882 77.4859C48.1019 77.4768 48.4075 77.8861 49.0007 78.4364C49.7759 79.155 50.709 79.6829 51.7253 79.9783C52.7416 80.2736 53.8131 80.3281 54.8543 80.1373C55.6618 79.9918 56.1318 79.7871 56.1454 79.8235Z" fill="var(--fill-0, #455A64)"/>
<path id="Vector_77" d="M67.2459 71.7056C59.3711 75.8396 46.5917 78.3091 42.5037 76.631L42.3623 61.5093C42.3623 61.5093 36.7642 52.3089 36.7414 48.8298C36.7094 43.8271 42.9737 32.3801 42.9737 32.3801L52.3769 29.8651C54.2703 29.8249 56.1435 30.2596 57.8244 31.1294C59.583 32.1008 61.014 33.5692 61.9371 35.3496C62.8602 37.13 63.2342 39.1429 63.0119 41.1347L60.644 56.1791L67.2459 71.7056Z" fill="var(--fill-0, #FF725E)"/>
<g id="Group_3" opacity="0.3">
<path id="Vector_78" d="M57.1538 31.1158C57.7013 31.0339 57.902 31.9208 57.5142 32.3119C57.1264 32.703 56.5105 32.7212 55.9675 32.803C53.5175 33.1851 51.6241 35.2771 50.7344 37.5829C49.8447 39.8886 49.758 42.4082 49.612 44.8595C49.466 47.3108 49.2242 49.8622 48.0608 52.0497C46.9745 50.1301 46.3307 47.9935 46.176 45.7949C46.0213 43.5964 46.3597 41.3911 47.1666 39.3392C47.9735 37.2873 49.2286 35.4402 50.8409 33.932C52.4532 32.4239 54.3821 31.2925 56.4877 30.6201" fill="var(--fill-0, black)"/>
</g>
<path id="Vector_79" d="M57.8244 31.1296C57.8244 31.1296 56.4557 28.9056 51.9297 29.8698C48.9003 30.5156 42.2756 36.8599 44.1234 47.0517C45.9712 57.2435 50.926 60.8545 50.926 60.8545C50.926 60.8545 46.3636 45.2507 48.9003 38.4426C49.5643 36.5205 50.7499 34.8195 52.3253 33.5285C53.9006 32.2376 55.8042 31.4072 57.8244 31.1296Z" fill="var(--fill-0, #263238)"/>
<g id="Group_4" opacity="0.3">
<path id="Vector_80" d="M42.5356 64.7202C44.4108 65.3205 46.2084 66.0845 48.1611 66.3301C50.1151 66.6498 52.1193 66.4409 53.9646 65.7252C56.4694 64.661 58.3308 62.3871 59.2889 59.8448C60.2471 57.3026 60.3794 54.5192 60.1239 51.8133C58.413 53.9235 58.6183 57.0479 57.1628 59.3446C56.2504 60.7771 54.7676 61.7549 53.2437 62.5281C49.9094 64.1262 46.2323 64.8836 42.5356 64.7338" fill="var(--fill-0, black)"/>
</g>
<path id="Vector_81" d="M48.1748 49.271C48.1748 49.271 47.5634 60.7499 61.6112 58.4669L63.0256 61.7868C63.0256 61.7868 48.2569 64.8976 46.1445 52.6911L48.1748 49.271Z" fill="var(--fill-0, #263238)"/>
<path id="Vector_82" d="M60.9771 35.0043C61.5682 35.8799 61.9666 36.8705 62.1459 37.9107C62.3252 38.9509 62.2814 40.0172 62.0173 41.0393L58.5179 56.6522C57.0169 61.0455 52.7327 63.7151 50.0683 64.0698L25.1163 66.703V57.4208L48.2798 53.9917L49.3657 41.3486C49.4615 39.6477 50.301 36.5915 51.3868 35.2726C52.6004 33.8036 54.4665 31.8026 57.5142 32.3119C59.3802 32.6212 60.1741 33.8628 60.9771 35.0043Z" fill="var(--fill-0, #FF725E)"/>
<path id="Vector_83" d="M61.6979 41.6488C61.7017 41.766 61.694 41.8832 61.6751 41.999C61.6478 42.2309 61.6067 42.5675 61.5474 43.0041C61.4288 43.8772 61.2463 45.1325 60.968 46.6787C60.6896 48.225 60.3338 50.0669 59.8638 52.0907C59.6312 53.1004 59.3802 54.1646 59.0745 55.2742C58.7758 56.4104 58.3663 57.5148 57.8518 58.5715C57.332 59.6343 56.617 60.5907 55.7439 61.3912C54.93 62.1333 54.0068 62.7468 53.0065 63.2103C51.3099 63.9681 49.4978 64.437 47.6456 64.5974C46.0716 64.7566 44.7941 64.7657 43.9135 64.7748H42.8961C42.7792 64.7854 42.6617 64.7854 42.5448 64.7748C42.6607 64.7542 42.7784 64.7451 42.8961 64.7475L43.909 64.7066C44.7895 64.6702 46.067 64.6338 47.6274 64.4519C49.4548 64.2721 51.24 63.7927 52.9107 63.0329C53.8915 62.581 54.7976 61.9829 55.5979 61.2593C56.4461 60.4722 57.142 59.5364 57.651 58.4987C58.157 57.4556 58.5619 56.3668 58.8601 55.247C59.1658 54.1646 59.4213 53.1049 59.6631 52.0953C60.1193 50.076 60.5208 48.2478 60.8128 46.706C61.1048 45.1643 61.3193 43.9136 61.4653 43.0677C61.5383 42.6539 61.593 42.3219 61.6341 42.0717C61.6446 41.9293 61.6659 41.788 61.6979 41.6488Z" fill="var(--fill-0, #263238)"/>
<path id="Vector_84" d="M48.9514 56.6522C48.6913 56.2307 48.5016 55.7699 48.3896 55.2879C48.1997 54.8349 48.0855 54.3541 48.0516 53.8644C48.5028 54.7331 48.8112 55.6681 48.9651 56.634L48.9514 56.6522Z" fill="var(--fill-0, #263238)"/>
<path id="Vector_85" d="M50.3694 56.2973C49.8766 56.0671 49.4416 55.7299 49.0964 55.3104C48.6956 54.9457 48.3835 54.4946 48.184 53.9915C48.5737 54.3541 48.9395 54.7415 49.2789 55.1512C49.6683 55.5079 50.0327 55.8908 50.3694 56.2973Z" fill="var(--fill-0, #263238)"/>
<path id="Vector_86" d="M27.288 57.1024L27.3929 57.0752L27.7031 57.016L28.8985 56.8205L33.3378 56.1247L48.2433 53.878L48.1429 53.9826C48.225 53.1185 48.3117 52.2089 48.403 51.2812C48.6995 48.0021 49.0143 44.8777 49.1694 42.0262C49.2774 40.6705 49.5376 39.3311 49.9451 38.0332C50.2723 36.8842 50.8277 35.8124 51.5784 34.8815C53.0566 33.2761 54.7128 32.4256 55.931 32.271C56.3963 32.205 56.8693 32.2142 57.3317 32.2983C57.4868 32.3301 57.6054 32.3665 57.683 32.3892L57.8016 32.4302C57.1925 32.2908 56.5624 32.2677 55.9447 32.362C54.7584 32.5393 53.1433 33.3989 51.7062 34.9952C50.9791 35.9116 50.4452 36.9651 50.1367 38.0923C49.7389 39.3774 49.4879 40.7032 49.3884 42.0444C49.247 44.8959 48.9322 48.0249 48.6356 51.3039C48.5489 52.2135 48.4623 53.123 48.3756 54.0053V54.0963H48.2843L33.3469 56.2702L28.8985 56.8887L27.694 57.0479L27.3838 57.0843L27.288 57.1024Z" fill="var(--fill-0, #263238)"/>
<path id="Vector_87" d="M41.5694 64.6654C41.5055 64.6654 41.2406 62.5688 40.9802 59.972C40.7199 57.3751 40.5601 55.2558 40.624 55.2467C40.9034 56.8014 41.1016 58.3695 41.2177 59.9447C41.4161 61.5112 41.5335 63.0868 41.5694 64.6654Z" fill="var(--fill-0, #FAFAFA)"/>
<path id="Vector_88" d="M59.8365 50.5718C59.3084 50.6171 58.7778 50.6247 58.2487 50.5945C57.2678 50.5945 55.9173 50.5399 54.4209 50.4853C52.9244 50.4308 51.5739 50.3671 50.5975 50.308C50.0686 50.2995 49.541 50.2524 49.0189 50.167C49.5466 50.1154 50.0775 50.1063 50.6066 50.1397C51.583 50.1397 52.9381 50.1943 54.43 50.2489C55.9219 50.3034 57.2724 50.3671 58.2533 50.4262C58.7841 50.4325 59.3135 50.4812 59.8365 50.5718Z" fill="var(--fill-0, #FAFAFA)"/>
<path id="Vector_89" d="M43.9956 47.6021C43.6572 47.6889 43.3094 47.7347 42.96 47.7385C42.3212 47.784 41.4316 47.8158 40.4506 47.7977C39.4697 47.7795 38.58 47.7112 37.9413 47.6385C37.5929 47.623 37.248 47.5634 36.9147 47.4611C37.2606 47.427 37.6091 47.427 37.955 47.4611C38.5937 47.4929 39.4788 47.5293 40.4552 47.5475C41.4315 47.5657 42.3167 47.5475 42.9554 47.5475C43.3031 47.5274 43.652 47.5457 43.9956 47.6021Z" fill="var(--fill-0, #FAFAFA)"/>
<path id="Vector_90" d="M46.0578 36.8142C46.0213 36.8734 45.0632 36.3595 43.8222 35.9047C42.5813 35.4499 41.541 35.1725 41.541 35.1042C43.1632 35.3016 44.7132 35.8884 46.0578 36.8142Z" fill="var(--fill-0, #FAFAFA)"/>
<path id="Vector_91" d="M64.1799 65.1885C64.117 65.2332 64.0478 65.2684 63.9746 65.2931L63.3724 65.5387C62.8522 65.7524 62.0858 66.0344 61.1322 66.3664C58.6438 67.2205 56.111 67.9401 53.5449 68.5221C50.9787 69.1177 48.3819 69.5732 45.7659 69.8864C44.7622 70.0001 43.9409 70.0775 43.3843 70.1138L42.7364 70.1502C42.6609 70.1622 42.5839 70.1622 42.5083 70.1502C42.5804 70.1252 42.6556 70.1099 42.7319 70.1048L43.3752 70.0229C43.9363 69.9592 44.7439 69.8592 45.7476 69.7227C47.7414 69.4499 50.4926 68.9996 53.5038 68.3174C56.515 67.6352 59.1749 66.8439 61.0911 66.2209C62.0493 65.9116 62.8249 65.6524 63.3724 65.4659L63.9883 65.2613C64.0498 65.2312 64.1139 65.2068 64.1799 65.1885Z" fill="var(--fill-0, #FAFAFA)"/>
<path id="Vector_92" d="M62.6926 37.9923C62.6926 38.056 60.0007 38.0242 56.6838 37.915C53.3669 37.8059 50.6842 37.6694 50.6842 37.6058C50.6842 37.5421 53.376 37.5739 56.6929 37.6785C60.0098 37.7831 62.6926 37.9241 62.6926 37.9923Z" fill="var(--fill-0, #FAFAFA)"/>
<path id="Vector_93" d="M30.5414 66.0163C30.3655 64.5063 30.268 62.9884 30.2491 61.4684C30.1499 59.9545 30.1316 58.4364 30.1943 56.9205C30.3701 58.4305 30.4677 59.9485 30.4866 61.4684C30.5858 62.9823 30.6041 64.5004 30.5414 66.0163Z" fill="var(--fill-0, #FAFAFA)"/>
</g>
</svg>
