<svg preserveAspectRatio="none" width="100%" height="100%" overflow="visible" style="display: block;" viewBox="0 0 91 177" fill="none" xmlns="http://www.w3.org/2000/svg">
<g id="freepik--character-1--inject-19">
<path id="Vector" d="M63.7203 32.2687C67.8016 31.514 72.015 31.955 75.8497 33.5383C77.5504 34.2461 79.2373 35.2463 80.1541 36.8401C81.2451 38.7216 81.0709 41.0415 80.9472 43.2108C80.7074 47.6302 80.8608 52.0621 81.4056 56.4545C81.864 60.108 82.5837 63.7614 82.5699 67.4148C82.5562 71.0683 81.731 74.9135 79.4161 77.7815C75.8451 82.1976 69.487 83.4398 63.8303 82.6862C60.8598 82.2935 57.894 81.4075 55.469 79.6447C53.044 77.882 51.2287 75.1647 51.0225 72.1872" fill="var(--fill-0, #455A64)"/>
<path id="Vector_2" d="M70.7889 37.8675C71.3176 38.4906 71.7672 39.1763 72.1274 39.909C72.4994 40.7161 72.806 41.5515 73.0442 42.4073C73.3305 43.4684 73.6842 44.5102 74.1031 45.5266C74.5399 46.5606 75.2189 47.4752 76.0835 48.1938C76.8042 48.7842 77.7083 49.107 78.6414 49.1073C79.2611 49.1133 79.8693 48.9404 80.3925 48.6095C80.5323 48.5176 80.6602 48.4086 80.7729 48.2852C80.8509 48.203 80.8875 48.1527 80.8784 48.1482C80.8692 48.1436 80.695 48.2989 80.3283 48.509C79.8095 48.7916 79.2229 48.9274 78.6322 48.9017C77.7554 48.8748 76.9136 48.5529 76.2439 47.9883C75.4286 47.2875 74.7882 46.4071 74.3736 45.417C73.9569 44.4124 73.5987 43.3846 73.3009 42.3388C73.048 41.4746 72.7198 40.6341 72.32 39.8268C72.0452 39.2822 71.6983 38.7769 71.2885 38.3242C71.1493 38.1448 70.9803 37.9903 70.7889 37.8675Z" fill="var(--fill-0, #263238)"/>
<path id="Vector_3" d="M72.4071 82.4031C72.4423 82.287 72.4654 82.1676 72.4758 82.0468C72.5125 81.7789 72.5583 81.4318 72.6133 81.0056C72.7279 80.0923 72.8792 78.7953 73.0717 77.1786C73.4156 73.9408 73.8281 69.4653 74.1857 64.5149C74.5432 59.5645 74.7587 55.0707 74.8779 51.8146C74.9375 50.1888 74.9741 48.8736 74.9879 47.9648C74.9879 47.5355 74.9879 47.1884 74.9879 46.919C75.0019 46.7976 75.0019 46.675 74.9879 46.5536C74.9621 46.6722 74.9483 46.7931 74.9466 46.9144C74.9466 47.1884 74.9054 47.5309 74.8779 47.9602C74.8274 48.9055 74.7587 50.2116 74.6716 51.8055C74.4974 55.057 74.2407 59.5416 73.8923 64.492C73.5439 69.4425 73.1543 73.9179 72.8655 77.1558C72.7234 78.7496 72.6088 80.0512 72.5262 80.9919C72.4896 81.4212 72.4621 81.7683 72.4437 82.0377C72.4173 82.1577 72.405 82.2803 72.4071 82.4031Z" fill="var(--fill-0, #263238)"/>
<path id="Vector_4" d="M74.2178 62.5693C74.2178 62.647 75.9872 62.8936 78.2013 62.9484C80.4154 63.0032 82.2032 62.8571 82.1986 62.7749C82.194 62.6926 80.4108 62.7064 78.2105 62.647C76.0101 62.5876 74.2269 62.4826 74.2178 62.5693Z" fill="var(--fill-0, #263238)"/>
<path id="Vector_5" d="M75.6572 62.7658C75.4783 63.0043 75.3532 63.2785 75.2904 63.5696C75.1911 63.8686 75.1114 64.1737 75.0521 64.483C75.0018 64.6871 75.0018 64.9002 75.0521 65.1042C75.0868 65.2286 75.156 65.3408 75.2516 65.428C75.3472 65.5152 75.4655 65.5739 75.593 65.5974C75.6649 65.6084 75.7383 65.6034 75.808 65.5829C75.8777 65.5623 75.942 65.5268 75.9964 65.4787C76.0945 65.3915 76.1606 65.2741 76.1843 65.1453C76.2162 64.9456 76.2162 64.7421 76.1843 64.5424C76.1523 64.2209 76.0909 63.9029 76.001 63.5925C75.9471 63.2974 75.8246 63.019 75.6434 62.7795C75.6614 63.072 75.7121 63.3615 75.7947 63.6427C75.8497 63.9447 75.8865 64.2497 75.9047 64.5561C75.9303 64.7257 75.9303 64.8981 75.9047 65.0676C75.868 65.2229 75.7718 65.3097 75.648 65.2914C75.3317 65.2366 75.2629 64.8347 75.3271 64.5196C75.3913 64.2045 75.4417 63.8573 75.4967 63.6062C75.5856 63.3339 75.6395 63.0515 75.6572 62.7658Z" fill="var(--fill-0, #263238)"/>
<path id="Vector_6" d="M59.5301 33.3774L78.7131 34.008C81.1397 34.0878 83.1718 32.1926 83.2518 29.775L83.3749 26.0593C83.455 23.6417 81.5528 21.6171 79.1262 21.5374L59.9432 20.9067C57.5166 20.827 55.4846 22.7222 55.4045 25.1398L55.2814 28.8554C55.2013 31.2731 57.1036 33.2976 59.5301 33.3774Z" fill="var(--fill-0, #263238)"/>
<path id="Vector_7" d="M78.6689 21.7744C78.6689 21.7744 78.6185 21.7287 78.5039 21.6739C78.3336 21.5945 78.1531 21.5392 77.9675 21.5095C77.275 21.4061 76.5678 21.538 75.9597 21.884C75.0368 22.3399 74.2533 23.0338 73.6906 23.8935C73.0441 24.9685 72.674 26.1859 72.6134 27.4377C72.4925 28.6926 72.7494 29.955 73.3514 31.064C73.8464 31.97 74.6035 32.7068 75.5242 33.1786C76.1361 33.4954 76.8109 33.6732 77.5 33.6992C77.6868 33.707 77.874 33.6978 78.0592 33.6718C78.1244 33.6701 78.1885 33.6545 78.2472 33.6261C78.2472 33.5987 77.9813 33.6261 77.5091 33.5805C76.847 33.513 76.2058 33.3109 75.6251 32.9867C74.7611 32.5141 74.0551 31.7996 73.5943 30.9315C73.0347 29.8647 72.7989 28.6586 72.9159 27.4605C72.9745 26.2566 73.3202 25.0839 73.9244 24.0397C74.4554 23.212 75.191 22.5342 76.0606 22.0713C76.6281 21.7252 77.2903 21.5655 77.9538 21.6145C78.4214 21.6648 78.6597 21.8018 78.6689 21.7744Z" fill="var(--fill-0, #455A64)"/>
<path id="Vector_8" d="M67.8734 21.1163L70.7889 21.2625C69.9875 21.3847 69.257 21.79 68.7306 22.4043C68.2111 23.0157 67.8282 23.7303 67.6075 24.5006C66.5944 27.6976 67.8184 31.5249 70.358 33.7308L67.9972 33.6943C67.9972 33.6943 62.2534 26.7887 67.8551 21.1163" fill="var(--fill-0, #455A64)"/>
<path id="Vector_9" d="M53.6262 15.6455C52.4343 12.773 52.3701 7.78603 54.19 5.14185C56.0099 2.49767 59.4204 0.785117 62.5513 0.118364C63.0666 -0.0394545 63.6176 -0.0394545 64.1328 0.118364C64.3838 0.212441 64.59 0.397111 64.7106 0.635697C64.8312 0.874282 64.8573 1.14933 64.7838 1.4062C65.3922 0.990115 66.0662 0.678319 66.7778 0.483709C67.1356 0.383036 67.5129 0.372048 67.876 0.451724C68.2391 0.531401 68.5768 0.69927 68.859 0.94039C68.995 1.06441 69.1046 1.21442 69.1813 1.3815C69.2579 1.54857 69.3001 1.72929 69.3052 1.91292C69.3103 2.09655 69.2784 2.27933 69.2111 2.4504C69.1439 2.62146 69.0429 2.77731 68.914 2.90868C69.3552 2.74569 69.8347 2.71563 70.2929 2.82225C70.7511 2.92887 71.1677 3.16745 71.4907 3.50827C71.8138 3.84909 72.029 4.27708 72.1096 4.73891C72.1902 5.20074 72.1327 5.67599 71.9441 6.10545C71.5153 6.98494 70.9208 7.7741 70.193 8.42995C69.5374 9.03277 69.4274 9.65385 69.5374 10.5352" fill="var(--fill-0, #263238)"/>
<path id="Vector_10" d="M54.3734 10.3802L53.5482 27.9533C53.5141 28.6616 53.6248 29.3694 53.8738 30.0337C54.1228 30.698 54.5048 31.3049 54.9967 31.8175C55.4885 32.3301 56.0798 32.7377 56.7347 33.0155C57.3896 33.2933 58.0944 33.4355 58.8062 33.4335C60.1535 33.4266 61.4468 32.9043 62.4185 31.9745C63.3903 31.0446 63.9663 29.7783 64.0274 28.4374C64.087 27.113 64.142 26.0078 64.1557 25.8754C64.1557 25.8754 68.6665 25.6653 69.1982 21.2538C69.4549 19.1211 69.6291 14.6867 69.7345 10.6725C69.7902 8.59336 69.058 6.56956 67.6836 5.00398C66.3092 3.4384 64.3934 2.44585 62.3175 2.22391L61.8912 2.17824C57.2613 1.9499 54.4742 5.74948 54.3734 10.3802Z" fill="var(--fill-0, #FFBE9D)"/>
<path id="Vector_11" d="M64.1833 25.8113C62.1324 25.6308 60.1822 24.8453 58.5815 23.5551C58.5815 23.5551 59.4663 26.3182 63.9311 26.3959L64.1833 25.8113Z" fill="var(--fill-0, #EB996E)"/>
<path id="Vector_12" d="M68.1531 13.4901C68.1368 13.6553 68.0561 13.8076 67.9284 13.9144C67.8008 14.0211 67.6362 14.0737 67.47 14.061C67.3889 14.0587 67.3091 14.0402 67.2354 14.0065C67.1616 13.9729 67.0954 13.9248 67.0407 13.8651C66.9859 13.8055 66.9438 13.7355 66.9167 13.6593C66.8897 13.5831 66.8783 13.5022 66.8833 13.4216C66.8996 13.2572 66.9795 13.1056 67.1062 12.999C67.2329 12.8924 67.3963 12.8392 67.5617 12.8507C67.6428 12.8536 67.7225 12.8725 67.7962 12.9063C67.8699 12.9401 67.9362 12.9881 67.9912 13.0476C68.0461 13.107 68.0888 13.1767 68.1165 13.2527C68.1443 13.3286 68.1567 13.4093 68.1531 13.4901Z" fill="var(--fill-0, #263238)"/>
<path id="Vector_13" d="M68.5611 12.7365C68.474 12.8095 68.0339 12.4076 67.3509 12.3345C66.6679 12.2615 66.1361 12.5492 66.0719 12.4579C66.0078 12.3665 66.1315 12.2752 66.3699 12.1427C66.6865 11.9717 67.0481 11.9016 67.4059 11.9418C67.7609 11.979 68.0948 12.1277 68.3594 12.3665C68.5519 12.5309 68.6115 12.7045 68.5611 12.7365Z" fill="var(--fill-0, #263238)"/>
<path id="Vector_14" d="M61.4283 12.9877C61.412 13.1521 61.332 13.3037 61.2053 13.4103C61.0786 13.5169 60.9152 13.5701 60.7498 13.5586C60.6687 13.5557 60.589 13.5368 60.5153 13.503C60.4416 13.4692 60.3754 13.4212 60.3204 13.3617C60.2654 13.3023 60.2228 13.2326 60.195 13.1566C60.1672 13.0807 60.1548 13 60.1585 12.9192C60.1736 12.7544 60.2533 12.6021 60.3802 12.4952C60.5072 12.3884 60.6712 12.3357 60.8369 12.3483C60.9184 12.35 60.9987 12.3681 61.073 12.4015C61.1473 12.4349 61.214 12.4828 61.2693 12.5426C61.3245 12.6023 61.367 12.6725 61.3944 12.749C61.4217 12.8255 61.4332 12.9067 61.4283 12.9877Z" fill="var(--fill-0, #263238)"/>
<path id="Vector_15" d="M61.85 12.143C61.7629 12.2161 61.3228 11.8142 60.6398 11.7411C59.9568 11.668 59.4204 11.9558 59.3563 11.8644C59.2921 11.7731 59.4204 11.6863 59.6542 11.5493C59.9726 11.3788 60.3355 11.3087 60.6948 11.3483C61.0492 11.3877 61.3825 11.5361 61.6483 11.7731C61.8362 11.9558 61.8912 12.111 61.85 12.143Z" fill="var(--fill-0, #263238)"/>
<path id="Vector_16" d="M63.7799 17.4452C64.1506 17.3687 64.5297 17.341 64.9076 17.363C65.0818 17.363 65.2514 17.363 65.2926 17.2351C65.3284 17.0581 65.3076 16.8745 65.2331 16.7099L64.8617 15.3398C64.3483 13.385 63.9999 11.7819 64.0779 11.7637C64.1558 11.7454 64.6371 13.3119 65.1505 15.2712C65.2697 15.728 65.3889 16.2121 65.4989 16.6414C65.5798 16.8642 65.5798 17.1082 65.4989 17.331C65.4682 17.39 65.4239 17.441 65.3698 17.4799C65.3157 17.5188 65.2531 17.5444 65.1872 17.5548C65.0883 17.5681 64.9881 17.5681 64.8892 17.5548C64.5163 17.5667 64.1433 17.5298 63.7799 17.4452Z" fill="var(--fill-0, #263238)"/>
<path id="Vector_17" d="M61.7354 17.7004C61.8454 17.7004 61.7675 18.4403 62.3451 19.034C62.9227 19.6278 63.7203 19.6278 63.7203 19.7328C63.7203 19.8379 63.5323 19.8561 63.1977 19.8287C62.7629 19.7893 62.3566 19.5965 62.0517 19.2852C61.7592 18.9892 61.5946 18.5908 61.5933 18.1754C61.5704 17.8648 61.6712 17.6913 61.7354 17.7004Z" fill="var(--fill-0, #263238)"/>
<path id="Vector_18" d="M62.313 9.50322C62.2259 9.68134 61.5566 9.50322 60.7453 9.53062C59.9339 9.55803 59.2646 9.68591 59.1775 9.53062C59.1408 9.44385 59.2692 9.284 59.5488 9.13328C59.9196 8.94648 60.3298 8.85095 60.7453 8.85468C61.1597 8.8507 61.5693 8.94296 61.9417 9.12415C62.2213 9.2566 62.3543 9.41645 62.313 9.50322Z" fill="var(--fill-0, #263238)"/>
<path id="Vector_19" d="M68.5244 10.7456C68.3869 10.8872 67.9376 10.6771 67.3738 10.6086C66.8099 10.5401 66.3195 10.6086 66.2278 10.4259C66.1865 10.3437 66.2782 10.1975 66.5028 10.0742C66.8002 9.93408 67.1322 9.88362 67.458 9.92906C67.7838 9.97451 68.0891 10.1139 68.3364 10.33C68.5381 10.5081 68.584 10.6771 68.5244 10.7456Z" fill="var(--fill-0, #263238)"/>
<path id="Vector_20" d="M54.4009 13.6912C54.3275 13.6501 51.4533 12.4672 51.2196 15.4952C50.9858 18.5232 54.0938 18.135 54.1029 18.0482C54.1121 17.9614 54.4009 13.6912 54.4009 13.6912Z" fill="var(--fill-0, #FFBE9D)"/>
<path id="Vector_21" d="M53.2457 16.8285C53.2457 16.8285 53.1907 16.8605 53.0945 16.897C52.9676 16.946 52.827 16.946 52.7002 16.897C52.513 16.7579 52.3664 16.5716 52.2753 16.3573C52.1843 16.143 52.1522 15.9084 52.1822 15.6776C52.1951 15.4173 52.2655 15.1631 52.3885 14.9332C52.4244 14.8413 52.4818 14.7594 52.556 14.6943C52.6301 14.6291 52.7189 14.5826 52.8148 14.5586C52.8771 14.547 52.9416 14.5576 52.9969 14.5885C53.0522 14.6193 53.0948 14.6686 53.1174 14.7276C53.154 14.8144 53.1174 14.8738 53.1449 14.8783C53.1724 14.8829 53.2136 14.8327 53.1999 14.7094C53.1873 14.6328 53.1504 14.5624 53.0945 14.5084C53.0152 14.4384 52.9114 14.4023 52.8057 14.4079C52.6791 14.4233 52.5586 14.4708 52.4559 14.546C52.3531 14.6212 52.2715 14.7215 52.2189 14.8372C52.068 15.0894 51.9829 15.3751 51.9714 15.6685C51.9343 15.9372 51.978 16.2109 52.0972 16.4548C52.2163 16.6987 52.4055 16.9019 52.6406 17.0386C52.721 17.0689 52.8072 17.0809 52.8928 17.0738C52.9785 17.0667 53.0615 17.0406 53.1357 16.9975C53.232 16.9016 53.2549 16.8331 53.2457 16.8285Z" fill="var(--fill-0, #EB996E)"/>
<path id="Vector_22" d="M72.1274 5.10104C72.1824 9.05619 67.1996 10.3259 65.2513 7.96921C64.3345 6.87766 63.5782 5.53948 62.2717 4.98229C61.8247 4.80923 61.3474 4.72695 60.868 4.74028C60.3886 4.75361 59.9167 4.86229 59.48 5.05993H59.4525C58.1506 5.61256 57.298 7.00097 56.9955 8.38025C56.5783 10.303 56.7571 12.034 56.1153 13.7832C56.0493 14.0454 55.8978 14.2784 55.6844 14.4454C55.2994 14.6783 54.7676 14.4089 54.5063 14.0481C54.1056 13.4355 53.8937 12.7195 53.8966 11.9883C53.7553 10.3355 53.9454 8.6712 54.4559 7.09231C54.9739 5.50922 55.946 4.11199 57.2522 3.07322C58.9359 1.83517 61.0361 1.29649 63.1106 1.57063C65.1782 1.8584 67.1026 2.78669 68.6114 4.22414C69.3406 4.85663 69.9 5.66036 70.2388 6.56252" fill="var(--fill-0, #263238)"/>
<path id="Vector_23" d="M69.0699 2.69424C69.2125 2.67527 69.3576 2.69256 69.4916 2.74448C69.8646 2.8689 70.195 3.0952 70.4451 3.39758C70.8316 3.83726 71.0577 4.39408 71.0869 4.97781C71.0922 5.69794 70.8292 6.39444 70.3488 6.93255C69.8873 7.4705 69.2839 7.86915 68.6069 8.08347C68.0621 8.25732 67.4919 8.33913 66.92 8.32553C66.5383 8.31864 66.1579 8.27891 65.7831 8.20679C65.6423 8.19331 65.5053 8.15299 65.3797 8.08804C65.3797 8.04693 65.9711 8.17938 66.9154 8.16111C67.4673 8.15052 68.0145 8.05659 68.5381 7.88252C69.1707 7.66675 69.734 7.2868 70.1701 6.78184C70.6125 6.28714 70.86 5.6495 70.8668 4.98695C70.8527 4.44607 70.6611 3.92471 70.3213 3.50263C70.0945 3.21357 69.7958 2.98846 69.455 2.84952C69.2212 2.73078 69.0699 2.71707 69.0699 2.69424Z" fill="var(--fill-0, #455A64)"/>
<path id="Vector_24" d="M67.1445 1.15039C67.1445 1.15039 67.2591 1.12298 67.4333 1.22346C67.5498 1.29977 67.648 1.40072 67.7209 1.51913C67.7938 1.63753 67.8396 1.77049 67.8551 1.90853C67.8848 2.31474 67.7713 2.71855 67.5342 3.05032C67.2836 3.45811 66.9748 3.82735 66.6174 4.14643C65.9658 4.7318 65.178 5.14619 64.3254 5.35216C63.9802 5.45903 63.6164 5.49325 63.2573 5.45264C63.2573 5.40697 63.6607 5.3887 64.2795 5.19231C65.0827 4.94786 65.8227 4.5317 66.4478 3.97288C66.7914 3.6683 67.0949 3.32147 67.3508 2.94071C67.5716 2.65023 67.6907 2.29571 67.6901 1.93137C67.6824 1.81101 67.651 1.69335 67.5975 1.58518C67.5439 1.477 67.4695 1.38046 67.3783 1.3011C67.2362 1.19149 67.14 1.16866 67.1445 1.15039Z" fill="var(--fill-0, #455A64)"/>
<path id="Vector_25" d="M54.2542 44.3022L55.6799 33.9173L35.1937 38.0274L16.5504 31.5745L11.5125 36.735L31.3523 46.9144C33.1218 47.7563 35.1157 48.0108 37.0411 47.6406L54.2542 44.3022Z" fill="var(--fill-0, #FFBE9D)"/>
<path id="Vector_26" d="M16.5504 31.5749C16.5504 31.5749 9.42218 28.177 8.96377 28.0582C8.6108 27.9669 3.22912 27.6837 0.776654 27.5558C0.584434 27.5542 0.398553 27.6243 0.255537 27.7522C0.112522 27.8802 0.0227123 28.0568 0.00375564 28.2474C-0.015201 28.438 0.038067 28.6287 0.153091 28.7822C0.268115 28.9356 0.436578 29.0407 0.625379 29.0767H0.71706C2.09228 29.1909 5.09942 29.8759 5.09942 29.8759L3.7242 33.0729C3.65755 33.2313 3.64616 33.4074 3.69187 33.573C3.73759 33.7387 3.83775 33.8842 3.97632 33.9864L8.12489 37.0418C8.66809 37.2879 9.26677 37.387 9.86066 37.3293C10.4546 37.2716 11.0227 37.059 11.5079 36.713L13.3415 37.0875L16.5504 31.5749Z" fill="var(--fill-0, #FFBE9D)"/>
<path id="Vector_27" d="M3.71045 33.2732C3.8388 33.8715 5.26903 35.1001 6.35545 35.1001C6.59505 35.104 6.82795 35.0213 7.01097 34.8672C7.09783 34.7862 7.15858 34.6813 7.18552 34.5658C7.21245 34.4503 7.20435 34.3295 7.16224 34.2186C7.08573 34.0822 6.97721 33.9662 6.84594 33.8807L4.43473 31.9944" fill="var(--fill-0, #FFBE9D)"/>
<path id="Vector_28" d="M4.43472 31.9944C4.794 32.1858 5.13335 32.4123 5.44779 32.6704L6.50671 33.4605C6.70841 33.6158 6.91011 33.7482 7.13014 33.9492C7.1934 34.0077 7.24424 34.0783 7.27967 34.1567C7.3151 34.2352 7.3344 34.3199 7.33642 34.4059C7.33692 34.5719 7.2803 34.7331 7.17598 34.8626C7.07061 34.9809 6.93926 35.0733 6.79217 35.1327C6.64508 35.1921 6.48621 35.2169 6.32793 35.2051C6.05386 35.1912 5.78485 35.1262 5.53489 35.0133C5.11983 34.8352 4.73723 34.5898 4.40263 34.2871C4.17437 34.0865 3.97807 33.8524 3.82046 33.5929C3.71502 33.4011 3.71044 33.2732 3.72419 33.2732C3.73794 33.2732 3.77462 33.3783 3.89839 33.5427C4.07753 33.7721 4.28377 33.9791 4.51265 34.1593C4.84681 34.4297 5.21904 34.6497 5.6174 34.8124C5.84587 34.9078 6.08958 34.9619 6.3371 34.9722C6.45794 34.9813 6.57929 34.9631 6.69203 34.9188C6.80477 34.8745 6.90597 34.8053 6.98804 34.7164C7.06153 34.6331 7.10206 34.526 7.10206 34.415C7.10206 34.3041 7.06153 34.1969 6.98804 34.1136C6.81384 33.9492 6.58005 33.7893 6.39669 33.6569L5.35153 32.8028C5.01769 32.5669 4.71032 32.2959 4.43472 31.9944Z" fill="var(--fill-0, #EB996E)"/>
<path id="Vector_29" d="M9.47717 35.1185C9.47717 35.1185 9.31673 35.0363 9.17004 34.808C8.97849 34.5049 8.87094 34.1566 8.85833 33.7986C8.83986 33.4433 8.91408 33.0893 9.07378 32.771C9.20213 32.529 9.33048 32.4148 9.3534 32.4331C9.19861 32.8742 9.11205 33.3362 9.0967 33.8032C9.15486 34.2585 9.2832 34.7022 9.47717 35.1185Z" fill="var(--fill-0, #EB996E)"/>
<path id="Vector_30" d="M6.61675 33.4791C6.71567 33.6648 6.87586 33.8108 7.07029 33.8925C7.26472 33.9742 7.48148 33.9866 7.684 33.9275C7.88652 33.8685 8.06241 33.7417 8.18198 33.5685C8.30155 33.3952 8.35749 33.1862 8.34036 32.9767C8.29953 32.7222 8.2069 32.4786 8.06815 32.2611C7.92941 32.0435 7.74749 31.8565 7.53356 31.7116L5.75037 30.1039" fill="var(--fill-0, #FFBE9D)"/>
<path id="Vector_31" d="M5.75037 30.0856C6.02075 30.2429 6.27155 30.4315 6.49757 30.6474L7.2631 31.3005C7.59694 31.5637 7.90402 31.8589 8.17991 32.182C8.32183 32.3665 8.41626 32.5829 8.45496 32.8122C8.49112 33.0342 8.449 33.2617 8.33577 33.4562C8.24777 33.6209 8.11527 33.7578 7.95326 33.8514C7.79124 33.9451 7.60617 33.9917 7.41896 33.986C7.17357 33.9742 6.94143 33.8716 6.76803 33.6982C6.64884 33.5749 6.62134 33.4836 6.63051 33.479C6.63967 33.4745 6.70385 33.5384 6.82762 33.6297C7.00092 33.7543 7.20987 33.82 7.42355 33.817C7.57355 33.812 7.71945 33.7669 7.84603 33.6866C7.97262 33.6063 8.07526 33.4936 8.14324 33.3603C8.22066 33.1917 8.24714 33.0044 8.21946 32.8211C8.19179 32.6378 8.11114 32.4665 7.98738 32.3281C7.72384 32.0221 7.43727 31.7366 7.13017 31.474L6.39672 30.7798C6.15061 30.5788 5.93316 30.3452 5.75037 30.0856Z" fill="var(--fill-0, #EB996E)"/>
<path id="Vector_32" d="M9.6743 29.8161C8.23601 30.1585 6.86287 30.7307 5.60825 31.5105C5.528 31.5495 5.46453 31.616 5.42947 31.6978C5.39279 31.8165 5.48448 31.9307 5.58074 32.0083C5.97576 32.2747 6.45661 32.3839 6.92845 32.3144C7.39305 32.2406 7.86131 32.1918 8.33117 32.1682C9.14713 32.1682 9.89892 32.5747 10.6874 32.7939C11.4758 33.0131 12.4293 33.004 12.9794 32.392" fill="var(--fill-0, #FFBE9D)"/>
<path id="Vector_33" d="M12.9703 32.392C12.9703 32.392 12.9703 32.4377 12.8969 32.5016C12.81 32.5951 12.7096 32.6752 12.599 32.7391C12.1792 32.9667 11.6964 33.0517 11.2238 32.9812C10.5507 32.8655 9.89058 32.6851 9.25261 32.4422C8.88345 32.3276 8.49768 32.2751 8.11118 32.2869C7.70778 32.3098 7.29063 32.4103 6.83223 32.4377C6.37505 32.491 5.91371 32.3809 5.53036 32.1271C5.41903 32.0564 5.33751 31.9476 5.30115 31.8211C5.28315 31.7416 5.29626 31.6583 5.33783 31.5882C5.37403 31.5338 5.42079 31.4872 5.47535 31.4512C5.65413 31.337 5.81915 31.2456 5.98876 31.1497C6.57544 30.8155 7.18872 30.5298 7.82238 30.2957C8.25216 30.136 8.69156 30.0033 9.138 29.8983C9.3001 29.8487 9.46816 29.8211 9.63767 29.8161C9.63767 29.8572 8.94548 30.0171 7.88198 30.451C7.2608 30.7059 6.65742 31.0019 6.07586 31.337C5.91542 31.4329 5.74122 31.5379 5.58536 31.6384C5.51202 31.6932 5.4891 31.7252 5.50285 31.7709C5.52962 31.8416 5.57973 31.9012 5.64496 31.9398C5.98672 32.1566 6.39334 32.2486 6.79556 32.2002C7.22187 32.1728 7.64819 32.0769 8.0745 32.0586C8.48793 32.0466 8.90036 32.1053 9.29386 32.2321C9.91815 32.4801 10.5622 32.6757 11.2192 32.8167C11.6576 32.8915 12.1083 32.8375 12.5165 32.6615C12.6727 32.5802 12.8242 32.4903 12.9703 32.392Z" fill="var(--fill-0, #EB996E)"/>
<path id="Vector_34" d="M35.51 41.6079C35.1107 40.4276 35.074 39.1554 35.4046 37.9542C35.4734 37.9542 35.4046 38.7854 35.4046 39.781C35.4046 40.7767 35.5788 41.5942 35.51 41.6079Z" fill="var(--fill-0, #EB996E)"/>
<path id="Vector_35" d="M53.4383 29.0992L47.6257 35.6251C47.6257 35.6251 44.5177 58.1623 44.2977 59.9342C44.0776 61.7062 43.4863 67.3599 43.4863 68.908C43.4863 70.4562 42.1982 81.5215 42.1982 81.5215C42.1982 81.5215 66.865 86.6272 70.9952 81.5215L69.7071 72.0454L70.8256 48.5401C70.8256 48.5401 72.6592 32.2229 64.0412 28.4461C64.0274 28.437 58.5816 31.7114 53.4383 29.0992Z" fill="var(--fill-0, #FF725E)"/>
<path id="Vector_36" d="M68.0018 30.748C68.0018 30.748 66.3011 29.0766 60.8644 30.4786C55.1389 31.9537 52.118 37.2923 53.5299 52.3993C54.7035 64.8666 59.6496 66.6568 59.6496 66.6568C59.6496 66.6568 56.9405 47.8553 57.408 39.9913C57.9948 30.0585 67.9926 32.5291 67.9926 32.5291C69.4228 32.0815 68.0018 30.748 68.0018 30.748Z" fill="var(--fill-0, #263238)"/>
<path id="Vector_37" d="M53.4383 29.0994L48.4142 30.4786L37.1099 37.3744L40.3279 47.5584L46.9656 46.8323L53.4383 29.0994Z" fill="var(--fill-0, #FF725E)"/>
<path id="Vector_38" d="M46.8968 36.1687C46.9655 36.1687 46.6767 39.8221 46.2596 44.2976C45.8424 48.7731 45.4482 52.4174 45.384 52.4082C45.3199 52.3991 45.6041 48.7548 46.0212 44.2793C46.4384 39.8039 46.8326 36.1641 46.8968 36.1687Z" fill="var(--fill-0, #263238)"/>
<path id="Vector_39" d="M69.9088 67.8213C69.9088 67.8213 68.3044 72.959 62.6339 64.4739C56.9634 55.9887 57.7565 59.7838 57.7565 59.7838L56.5967 61.1538C56.5967 61.1538 62.8356 75.1511 69.8354 72.959L69.9088 67.8213Z" fill="var(--fill-0, #263238)"/>
<path id="Vector_40" opacity="0.3" d="M46.6676 38.6165L42.1982 47.3534L45.8929 46.9515L46.6676 38.6165Z" fill="var(--fill-0, black)"/>
<g id="Group" opacity="0.3">
<path id="Vector_41" d="M44.6185 61.8112C47.908 65.3777 51.7932 68.3491 56.1016 70.5932C57.9031 71.5339 59.8972 72.3605 61.9142 72.1002C64.1328 71.8171 66.0398 70.2187 67.0804 68.2504C68.121 66.2821 67.9972 65.3322 68.231 63.1219C68.506 60.6832 68.506 57.4271 68.6344 55.2031C68.6344 54.8103 68.6619 54.3536 68.6619 53.9198C68.6618 53.45 68.8139 52.9927 69.0955 52.6159C69.3771 52.2391 69.7733 51.9628 70.225 51.8282C70.225 51.8282 68.8498 51.1934 67.9651 51.3213C67.0804 51.4491 66.3744 52.2027 65.9023 52.979C63.3856 57.112 64.4812 63.1721 59.6817 65.7661C58.0954 66.5738 56.2863 66.8386 54.5338 66.5196C50.6053 65.8802 47.5982 63.3228 44.701 60.802" fill="var(--fill-0, black)"/>
</g>
<path id="Vector_42" d="M50.0461 53.2585C51.2486 53.2585 52.2235 50.3386 52.2235 46.7366C52.2235 43.1347 51.2486 40.2148 50.0461 40.2148C48.8435 40.2148 47.8687 43.1347 47.8687 46.7366C47.8687 50.3386 48.8435 53.2585 50.0461 53.2585Z" fill="var(--fill-0, #FAFAFA)"/>
<path id="Vector_43" d="M51.192 160.158L51.6917 170.894C51.6917 170.894 40.9054 175.004 40.8 177L61.7308 176.785L61.6437 160.025L51.192 160.158Z" fill="var(--fill-0, #FF725E)"/>
<g id="Group_2" opacity="0.6">
<path id="Vector_44" d="M58.1736 169.926C58.3747 169.985 58.5469 170.116 58.6576 170.294C58.7683 170.472 58.8097 170.683 58.7741 170.889C58.7218 171.093 58.5935 171.269 58.4154 171.381C58.2372 171.493 58.0228 171.533 57.816 171.492C57.6033 171.427 57.4218 171.286 57.3054 171.097C57.189 170.908 57.1457 170.683 57.1834 170.465C57.2611 170.259 57.4153 170.09 57.6141 169.994C57.8128 169.898 58.041 169.882 58.2515 169.949" fill="var(--fill-0, white)"/>
</g>
<path id="Vector_45" opacity="0.6" d="M61.7354 176.785V175.114L41.6297 175.936C41.6297 175.936 40.7129 176.347 40.8137 177L61.7354 176.785Z" fill="var(--fill-0, white)"/>
<path id="Vector_46" d="M51.3662 170.794C51.3662 170.894 51.8842 170.935 52.3885 171.25C52.8927 171.565 53.1678 171.995 53.264 171.954C53.3603 171.913 53.1998 171.328 52.5764 170.949C51.953 170.57 51.3433 170.698 51.3662 170.794Z" fill="var(--fill-0, #263238)"/>
<path id="Vector_47" d="M49.1843 171.721C49.1613 171.821 49.606 171.99 49.9544 172.415C50.3028 172.84 50.4128 173.296 50.5136 173.292C50.6145 173.287 50.6741 172.707 50.2294 172.187C49.7848 171.666 49.1843 171.625 49.1843 171.721Z" fill="var(--fill-0, #263238)"/>
<path id="Vector_48" d="M47.9832 174.351C48.0749 174.351 48.2124 173.863 47.942 173.305C47.6715 172.748 47.1948 172.534 47.1535 172.62C47.1123 172.707 47.4102 173 47.6119 173.461C47.8136 173.922 47.8595 174.342 47.9832 174.351Z" fill="var(--fill-0, #263238)"/>
<path id="Vector_49" d="M51.5267 168.332C51.5725 168.428 52.0401 168.282 52.6177 168.332C53.1953 168.382 53.6445 168.542 53.6995 168.455C53.7545 168.369 53.3145 167.999 52.6315 167.976C51.9484 167.953 51.4763 168.259 51.5267 168.332Z" fill="var(--fill-0, #263238)"/>
<path id="Vector_50" opacity="0.3" d="M51.3112 162.286L51.3983 164.199L61.685 163.998L61.6804 162.272L51.3112 162.286Z" fill="var(--fill-0, black)"/>
<path id="Vector_51" d="M51.4671 166.168C51.8106 166.262 52.1734 166.262 52.5169 166.168C52.893 166.095 53.2592 165.979 53.6079 165.82C53.815 165.726 54.0156 165.617 54.2084 165.496C54.3227 165.428 54.4275 165.345 54.5201 165.25C54.5847 165.175 54.6236 165.083 54.631 164.985C54.6385 164.887 54.614 164.789 54.5614 164.706C54.509 164.634 54.44 164.576 54.3602 164.536C54.2804 164.496 54.1922 164.476 54.103 164.478C53.9692 164.476 53.8361 164.496 53.7087 164.537C53.486 164.591 53.2694 164.668 53.0624 164.765C52.7092 164.926 52.3841 165.142 52.0997 165.405C51.6184 165.862 51.458 166.241 51.4946 166.263C51.5313 166.286 51.7743 165.971 52.2648 165.597C52.5472 165.382 52.8551 165.202 53.1816 165.062C53.3771 164.985 53.5777 164.921 53.7821 164.871C54.0021 164.811 54.1946 164.811 54.2405 164.907C54.2863 165.003 54.2405 164.957 54.2176 165.026C54.1512 165.097 54.0738 165.157 53.9884 165.204C53.8112 165.322 53.6275 165.43 53.4383 165.528C53.115 165.691 52.7774 165.824 52.4298 165.926C52.1036 165.984 51.782 166.065 51.4671 166.168Z" fill="var(--fill-0, #263238)"/>
<path id="Vector_52" d="M51.6 166.309C51.7979 166.011 51.8914 165.657 51.8659 165.3C51.8809 164.913 51.8281 164.527 51.7101 164.158C51.6423 163.939 51.5517 163.728 51.4396 163.528C51.3819 163.391 51.2895 163.271 51.1714 163.179C51.0533 163.088 50.9136 163.029 50.7657 163.007C50.6718 163.006 50.5797 163.033 50.5018 163.085C50.4239 163.138 50.364 163.212 50.3303 163.3C50.2766 163.422 50.241 163.551 50.2248 163.683C50.1879 163.916 50.1879 164.154 50.2248 164.387C50.2864 164.778 50.4439 165.148 50.6832 165.465C51.0958 165.999 51.5267 166.118 51.5313 166.081C51.5359 166.045 51.2104 165.839 50.8895 165.323C50.7066 165.026 50.5908 164.692 50.5503 164.346C50.5231 164.144 50.5231 163.94 50.5503 163.738C50.5824 163.519 50.6649 163.336 50.7474 163.359C50.8299 163.382 51.0316 163.523 51.1187 163.697C51.2241 163.878 51.3131 164.067 51.3846 164.263C51.5026 164.598 51.5736 164.946 51.5955 165.3C51.6505 165.912 51.545 166.296 51.6 166.309Z" fill="var(--fill-0, #263238)"/>
<path id="Vector_53" d="M71.4902 153.645L79.9524 160.308C79.9524 160.308 75.9964 171.118 77.4403 172.501L91 156.618L78.238 145.69L71.4902 153.645Z" fill="var(--fill-0, #FF725E)"/>
<g id="Group_3" opacity="0.6">
<path id="Vector_54" d="M83.4547 154.81C83.6318 154.696 83.8446 154.652 84.0526 154.684C84.2606 154.717 84.4491 154.825 84.5823 154.988C84.7019 155.16 84.7509 155.371 84.7194 155.579C84.6879 155.786 84.5782 155.973 84.4127 156.102C84.2239 156.219 83.999 156.263 83.7797 156.227C83.5605 156.191 83.3619 156.077 83.2209 155.906C83.1132 155.713 83.0851 155.486 83.1424 155.273C83.1997 155.06 83.338 154.877 83.528 154.764" fill="var(--fill-0, white)"/>
</g>
<path id="Vector_55" opacity="0.6" d="M91 156.614L89.7302 155.522L77.1653 171.186C77.1653 171.186 76.8719 172.154 77.4404 172.497L91 156.614Z" fill="var(--fill-0, white)"/>
<path id="Vector_56" d="M79.6499 160.496C79.7324 160.56 80.1083 160.199 80.6767 160.039C81.2451 159.879 81.7539 159.943 81.7815 159.847C81.809 159.751 81.2635 159.482 80.5713 159.701C79.8791 159.92 79.5674 160.45 79.6499 160.496Z" fill="var(--fill-0, #263238)"/>
<path id="Vector_57" d="M78.921 162.747C78.9806 162.829 79.3794 162.605 79.957 162.619C80.5346 162.633 80.9242 162.857 80.9838 162.774C81.0434 162.692 80.6492 162.272 79.9616 162.267C79.274 162.263 78.8477 162.683 78.921 162.747Z" fill="var(--fill-0, #263238)"/>
<path id="Vector_58" d="M80.1128 165.387C80.1908 165.332 79.8928 164.893 79.2969 164.733C78.701 164.574 78.2242 164.788 78.2609 164.875C78.2976 164.962 78.7193 164.934 79.2052 165.076C79.6911 165.218 80.0395 165.46 80.1128 165.387Z" fill="var(--fill-0, #263238)"/>
<path id="Vector_59" d="M77.8942 158.76C77.9904 158.787 78.1876 158.344 78.591 157.929C78.9943 157.513 79.4253 157.294 79.3932 157.194C79.3611 157.093 78.8018 157.194 78.3342 157.687C77.8667 158.18 77.7796 158.746 77.8942 158.76Z" fill="var(--fill-0, #263238)"/>
<path id="Vector_60" opacity="0.3" d="M73.168 154.957L74.6761 156.149L81.268 148.279L79.957 147.151L73.168 154.957Z" fill="var(--fill-0, black)"/>
<path id="Vector_61" d="M76.2118 157.386C76.2393 157.413 76.551 157.148 76.8857 156.587C77.0806 156.256 77.2345 155.903 77.3441 155.536C77.4067 155.319 77.4557 155.097 77.4908 154.874C77.5101 154.742 77.5101 154.608 77.4908 154.477C77.4771 154.379 77.4322 154.289 77.3628 154.219C77.2934 154.149 77.2033 154.103 77.1057 154.088C77.02 154.083 76.9342 154.097 76.8547 154.129C76.7753 154.162 76.7043 154.212 76.6473 154.276C76.56 154.376 76.4875 154.488 76.4318 154.609C76.3308 154.815 76.2465 155.029 76.1797 155.248C76.0725 155.621 76.0245 156.008 76.0376 156.395C76.0141 156.75 76.1005 157.104 76.2851 157.409C76.3447 157.409 76.2531 157.011 76.2851 156.395C76.3205 155.826 76.4768 155.272 76.7436 154.769C76.8444 154.563 76.9636 154.422 77.0736 154.44C77.1836 154.458 77.1286 154.44 77.1515 154.531C77.1645 154.63 77.1645 154.73 77.1515 154.828C77.1224 155.037 77.0826 155.244 77.0323 155.449C76.9443 155.801 76.823 156.143 76.6702 156.472C76.493 156.764 76.3397 157.069 76.2118 157.386Z" fill="var(--fill-0, #263238)"/>
<path id="Vector_62" d="M76.4044 157.381C76.4365 157.381 76.2898 156.97 75.813 156.518C75.529 156.253 75.2019 156.039 74.8458 155.883C74.6333 155.791 74.4122 155.721 74.1857 155.673C74.0438 155.627 73.8924 155.619 73.7463 155.648C73.6001 155.678 73.4641 155.745 73.3514 155.842C73.2926 155.914 73.2554 156.001 73.2441 156.093C73.2327 156.185 73.2477 156.278 73.2872 156.363C73.3463 156.482 73.4219 156.593 73.5118 156.691C73.6668 156.869 73.8476 157.023 74.0482 157.148C74.3849 157.356 74.767 157.48 75.1621 157.509C75.8405 157.545 76.2118 157.303 76.1889 157.271C75.8578 157.295 75.5253 157.295 75.1942 157.271C74.8481 157.213 74.5184 157.083 74.2269 156.888C74.0559 156.774 73.9016 156.637 73.7685 156.481C73.6219 156.312 73.5393 156.134 73.6081 156.084C73.6828 156.04 73.7659 156.013 73.852 156.003C73.9382 155.994 74.0253 156.003 74.1078 156.029C74.3124 156.068 74.5133 156.125 74.7083 156.198C75.0361 156.33 75.3445 156.505 75.6251 156.719C76.1385 157.08 76.3585 157.413 76.4044 157.381Z" fill="var(--fill-0, #263238)"/>
<path id="Vector_63" d="M48.0245 114.736C48.0245 114.736 48.5838 89.0888 48.0245 89.0888C47.4653 89.0888 43.4955 86.8328 43.4955 86.8328L38.5355 124.943C38.5355 124.943 38.0771 129.222 43.4038 132.25C48.7305 135.277 72.4804 156.312 72.4804 156.312L80.53 146.544C80.53 146.544 64.8938 130.309 58.5266 124.943C53.4841 120.764 48.0245 114.736 48.0245 114.736Z" fill="var(--fill-0, #263238)"/>
<path id="Vector_64" d="M62.588 108.758L63.1335 104.698C63.1335 104.698 67.0483 96.4778 67.6076 92.9797C68.1668 89.4815 67.8001 81.9006 67.8001 81.9006H43.0691C43.0691 81.9006 43.1746 109.717 46.1588 117.522C46.1588 117.522 47.6715 132.455 47.8961 133.706C48.3545 136.364 50.0185 163.555 50.0185 163.555L62.4872 163.098C62.4872 163.098 63.569 138.1 62.7026 131.003C62.2763 127.486 62.0746 123.742 61.9783 120.645C61.8608 116.673 62.0646 112.698 62.588 108.758Z" fill="var(--fill-0, #263238)"/>
<path id="Vector_65" d="M43.743 90.016C43.7477 90.0554 43.7477 90.0952 43.743 90.1347C43.743 90.2306 43.743 90.3493 43.7659 90.4955C43.7659 90.8288 43.8026 91.2947 43.8301 91.8655C43.876 93.0666 43.9676 94.8065 44.0914 96.9529C44.3389 101.246 44.8019 107.169 45.4666 113.695C46.1313 120.221 46.8785 126.117 47.4057 130.387C47.667 132.506 47.8641 134.227 48.0245 135.442C48.0933 136.027 48.1483 136.483 48.185 136.812C48.185 136.958 48.2125 137.077 48.2216 137.173C48.2308 137.269 48.2216 137.296 48.2216 137.296C48.2066 137.258 48.1958 137.218 48.1895 137.177L48.1345 136.821L47.9283 135.451C47.7632 134.241 47.5249 132.519 47.2315 130.405C46.6631 126.139 45.9067 120.244 45.2237 113.713C44.5406 107.183 44.1097 101.255 43.9035 96.9575C43.798 94.8065 43.7384 93.0666 43.7201 91.8655C43.7201 91.2764 43.7201 90.8151 43.6972 90.4955V90.1393C43.7081 90.0967 43.7235 90.0554 43.743 90.016Z" fill="var(--fill-0, #455A64)"/>
<path id="Vector_66" d="M61.9555 122.938C61.9908 123.07 62.0154 123.204 62.0288 123.34C62.0655 123.623 62.1205 124.011 62.1892 124.5C62.313 125.514 62.4689 126.98 62.611 128.793C62.9044 132.423 63.1244 137.47 63.2069 143.005C63.2894 148.54 63.2069 153.595 62.9869 157.23C62.8952 159.057 62.776 160.518 62.6797 161.532C62.6247 162.021 62.5789 162.409 62.5468 162.697C62.5372 162.833 62.5172 162.969 62.4872 163.103C62.475 162.966 62.475 162.829 62.4872 162.692C62.5101 162.404 62.5376 162.016 62.5743 161.523C62.6431 160.509 62.7347 159.039 62.8081 157.221C62.9594 153.59 63.0235 148.544 62.9548 143.009C62.886 137.474 62.6797 132.432 62.4276 128.806C62.3084 126.98 62.1801 125.523 62.0838 124.509C62.0334 124.02 61.9921 123.632 61.9646 123.344C61.9503 123.209 61.9473 123.074 61.9555 122.938Z" fill="var(--fill-0, #455A64)"/>
<path id="Vector_67" d="M66.8191 30.1769C66.8191 30.1769 70.8668 31.2501 71.7286 37.26C72.5904 43.27 70.9952 44.9871 70.9952 44.9871C70.9952 44.9871 71.6507 33.7984 66.622 32.2731L66.8191 30.3961" fill="var(--fill-0, #263238)"/>
<path id="Vector_68" d="M39.2415 49.8054L18.3474 49.3989L18.5903 50.4082L39.1406 50.7097L39.2415 49.8054Z" fill="var(--fill-0, #263238)"/>
<path id="Vector_69" d="M64.5775 32.0632C63.7938 31.8726 62.9688 31.9449 62.2305 32.2687C60.539 32.9766 57.4401 35.0088 57.2201 40.7812L56.8625 50.0838L70.2251 51.8283C70.2251 51.8283 71.3619 33.8625 64.5775 32.0632Z" fill="var(--fill-0, #FF725E)"/>
<path id="Vector_70" d="M39.984 51.7734L56.945 56.8517L57.1971 50.0563L67.3462 51.5268L66.7778 62.5785C66.7202 64.1556 66.1438 65.6702 65.1374 66.8889C64.131 68.1077 62.7505 68.9632 61.2082 69.3237C59.4346 69.7367 57.5699 69.4676 55.987 68.5701L37.9854 58.3725L39.984 51.7734Z" fill="var(--fill-0, #FFBE9D)"/>
<path id="Vector_71" d="M70.2251 51.8282C70.2251 51.8282 70.2251 51.7688 70.2251 51.6683C70.2251 51.5679 70.2251 51.4035 70.2021 51.2117C70.2021 50.8052 70.17 50.2344 70.1425 49.5037C70.0967 48.0195 70.0279 45.9005 69.9454 43.2837C69.9042 41.9776 69.8629 40.5436 69.8217 39.0092C69.8217 38.6256 69.7987 38.2328 69.785 37.8355C69.785 37.6437 69.7483 37.4473 69.7254 37.2464C69.7025 37.0454 69.6566 36.8536 69.6016 36.6573C69.2637 35.3834 68.5258 34.2505 67.4958 33.424C66.4658 32.5974 65.1975 32.1206 63.8761 32.0631C62.9271 32.0539 61.9957 32.3188 61.1945 32.8257C60.367 33.351 59.6608 34.0452 59.1225 34.8625C58.3538 36.0378 57.8343 37.3572 57.596 38.7397C57.3617 40.0647 57.2223 41.4047 57.1788 42.7494C57.1055 45.3707 57.0367 47.8368 56.9726 50.0791L56.8855 49.9741L66.5441 51.2893L69.2578 51.6683L69.9867 51.8053L69.2853 51.7277L66.5853 51.3989L56.8442 50.1841H56.7571V50.0928C56.8121 47.8459 56.8534 45.3844 56.9405 42.7585C56.9771 41.4017 57.1135 40.0493 57.3485 38.7123C57.5912 37.2982 58.1233 35.9489 58.9116 34.7483C59.4684 33.9026 60.1998 33.1849 61.057 32.643C61.896 32.1112 62.8726 31.8351 63.867 31.8484C64.7983 31.8879 65.7097 32.13 66.5373 32.5575C67.3648 32.9851 68.0884 33.5879 68.6573 34.3236C69.1893 34.9991 69.5763 35.7763 69.7942 36.607C69.8446 36.808 69.8767 37.0135 69.9179 37.219C69.9592 37.4245 69.9592 37.6254 69.9775 37.8309C69.9775 38.2282 69.9775 38.6256 70.005 39.0137C70.0371 40.5664 70.0646 42.0141 70.0921 43.3339C70.138 45.9553 70.1746 48.0788 70.2021 49.563C70.2021 50.28 70.2021 50.8463 70.2251 51.2436V51.7003C70.2293 51.7428 70.2293 51.7857 70.2251 51.8282Z" fill="var(--fill-0, #263238)"/>
<path id="Vector_72" d="M40.3279 51.9746L36.2572 48.974C35.5146 48.426 34.3594 48.5173 33.438 48.4579C31.6044 48.2935 28.611 49.3714 28.4964 49.5815L29.7249 50.5588L21.8129 50.3168C22.0844 50.8532 22.4967 51.3064 23.006 51.6281C23.5153 51.9497 24.1026 52.1279 24.7054 52.1436C24.7054 52.1436 24.9575 53.9248 27.2541 54.2628C27.2541 54.2628 27.8501 55.706 29.129 56.1262C29.129 56.1262 29.3811 57.7384 31.421 57.6516L38.3567 58.4235L40.3279 51.9746Z" fill="var(--fill-0, #FFBE9D)"/>
<path id="Vector_73" d="M29.647 52.422C28.8123 52.4945 27.9725 52.4853 27.1395 52.3946C26.303 52.3888 25.4692 52.3001 24.6504 52.1297C25.4838 52.0626 26.3216 52.0718 27.1533 52.1571C27.9909 52.169 28.8257 52.2576 29.647 52.422Z" fill="var(--fill-0, #EB996E)"/>
<path id="Vector_74" d="M31.6548 54.3217C30.9308 54.4389 30.1962 54.4787 29.4637 54.4404C28.7311 54.4787 27.9966 54.4389 27.2725 54.3217C27.9963 54.2018 28.7311 54.162 29.4637 54.2029C30.1962 54.162 30.9311 54.2018 31.6548 54.3217Z" fill="var(--fill-0, #EB996E)"/>
<path id="Vector_75" d="M33.8047 56.1118C33.081 56.2317 32.3461 56.2716 31.6136 56.2306C30.8825 56.2717 30.1492 56.2319 29.427 56.1118C30.1495 55.9945 30.8825 55.9547 31.6136 55.9931C32.3461 55.9548 33.0807 55.9946 33.8047 56.1118Z" fill="var(--fill-0, #EB996E)"/>
<path id="Vector_76" d="M58.0681 60.3001C57.7335 59.7892 57.48 59.23 57.3163 58.6422C57.0705 58.0826 56.9158 57.4874 56.8579 56.8793C57.1374 57.4166 57.3602 57.9814 57.5226 58.5646C57.7657 59.1221 57.9486 59.7039 58.0681 60.3001Z" fill="var(--fill-0, #EB996E)"/>
<path id="Vector_77" d="M59.2738 59.6424C58.8027 59.2075 58.3745 58.7289 57.9948 58.2129C57.5534 57.7502 57.1588 57.2454 56.8167 56.7057C57.3429 57.0895 57.8068 57.5516 58.1919 58.0759C58.6274 58.5426 58.9919 59.0704 59.2738 59.6424Z" fill="var(--fill-0, #EB996E)"/>
</g>
</svg>
