<svg preserveAspectRatio="none" width="100%" height="100%" overflow="visible" style="display: block;" viewBox="0 0 219.275 127.8" fill="none" xmlns="http://www.w3.org/2000/svg">
<g id="freepik--Car--inject-4">
<path id="Vector" d="M148.038 37.8347L148.576 41.5484L214.908 41.0099L214.289 36.764L213.67 36.6154L209.096 18.4494C209.096 18.4494 210.18 18.3875 210.18 16.6854C210.18 14.9833 207.493 15.1195 207.493 15.1195L146.954 14.6738L132.849 1.50888L130.515 0.790905L77.8121 0.5L74.7669 1.66362L13.2872 33.2298C12.0445 34.1542 11.2011 35.5178 10.929 37.0425C10.3781 39.7225 9.07216 55.8398 9.07216 55.8398L6.59638 77.9609L6.68304 80.5171L11.4118 108.029L16.0539 106.34C16.0539 106.34 17.137 87.3132 26.8173 81.2351C36.4976 75.1571 46.4069 77.8557 54.2118 95.4151L108.097 71.1773C108.097 71.1773 104.569 50.913 113.668 41.0099C122.766 31.1068 134.712 36.7206 138.134 39.4254L148.038 37.8347Z" fill="var(--fill-0, #2499B3)"/>
<path id="Vector_2" opacity="0.3" d="M92.6111 28.7858L77.8121 0.5L13.5904 33.1555C13.5904 33.1555 11.288 34.0282 10.8485 38.3918C10.4091 42.7553 6.4045 78.5489 6.4045 78.5489L11.2446 108.134L16.091 106.581C16.091 106.581 18.1397 82.7515 31.7317 78.976C45.3237 75.2004 54.3232 95.6565 54.3232 95.6565L108.221 70.843C108.221 70.843 105.559 57.4491 110.653 46.2462C115.747 35.0433 129.277 33.5888 137.132 39.4068L147.282 37.9461L141.712 14.5748L92.6111 28.7858Z" fill="var(--fill-0, black)"/>
<path id="Vector_3" d="M200.357 44.0365C200.357 44.0365 209.53 43.7022 215.212 54.6514C219.371 62.6419 220.163 73.2507 216.122 81.5321C211.585 90.8163 199.794 95.1489 190.07 92.4317C177.976 89.0399 173.903 72.0066 175.339 61.0884L200.357 44.0365Z" fill="var(--fill-0, #263238)" stroke="var(--stroke-0, #263238)" stroke-miterlimit="10"/>
<path id="Vector_4" opacity="0.3" d="M200.351 44.0056C200.351 44.0056 209.517 43.6775 215.205 54.6205C219.359 62.6172 220.157 73.2259 216.109 81.5012C211.572 90.7854 199.781 95.118 190.058 92.407C177.964 89.009 173.891 71.9819 175.327 61.0637L200.351 44.0056Z" fill="var(--fill-0, white)" stroke="var(--stroke-0, #263238)" stroke-miterlimit="10"/>
<path id="Vector_5" d="M117.27 67.9279C117.27 67.9279 124.895 67.6555 129.649 76.7602C133.109 83.4077 133.771 92.2338 130.404 99.1165C126.634 106.835 116.824 110.456 108.741 108.184C98.6829 105.362 95.2973 91.2064 96.4919 82.1141L117.27 67.9279Z" fill="var(--fill-0, #263238)"/>
<path id="Vector_6" opacity="0.3" d="M117.264 67.9093C117.264 67.9093 124.883 67.6369 129.643 76.7354C133.102 83.3829 133.765 92.209 130.398 99.0917C128.3 103.169 124.683 106.259 120.327 107.695C116.6 109.024 112.556 109.186 108.735 108.159C98.6706 105.337 95.2849 91.1816 96.4795 82.0955L117.264 67.9093Z" fill="var(--fill-0, #263238)"/>
<path id="Vector_7" d="M16.1405 106.469C16.5614 100.831 18.9257 82.4234 31.7441 78.9759C46.9268 74.8971 54.3356 95.6565 54.3356 95.6565L108.097 71.4558C108.097 71.4558 104.383 49.4956 114.875 40.0753C125.366 30.6549 138.128 39.4563 138.128 39.4563L147.295 37.9647" stroke="var(--stroke-0, #263238)" stroke-linecap="round" stroke-linejoin="round"/>
<path id="Vector_8" d="M139.249 91.4848C132.935 90.8948 126.756 90.5172 120.711 90.3522H120.433C116.391 86.4033 113.284 80.2758 112.17 73.096C110.072 59.603 115.784 47.515 124.932 46.0915C134.08 44.6679 143.191 54.4534 145.289 67.9402C146.806 77.6638 144.262 86.6818 139.249 91.4848Z" fill="var(--fill-0, #263238)"/>
<path id="Vector_9" d="M203.879 81.0802C200.456 87.542 195.133 89.5103 190.683 89.1265C184.976 88.6685 178.75 83.7046 177.066 78.2455C175.054 71.8208 174.968 64.474 174.968 64.474L154.97 73.5662C153.249 54.9979 145.345 48.0967 141.173 45.7137C139.808 44.9459 138.249 44.5931 136.686 44.6987C125.322 45.3919 114.862 45.8128 112.201 62.6481C111.521 67.6055 111.933 72.6515 113.409 77.4328C114.884 82.2141 117.387 86.615 120.742 90.3273C97.8591 89.6663 74.9774 91.6896 52.5654 96.3558C46.3264 83.3146 37.7664 78.6168 30.2462 81.9715C20.8383 86.168 19.4147 105.993 19.4147 105.993L15.9548 106.339C17.0441 94.1214 21.581 80.7708 34.028 78.4869C46.475 76.203 54.3232 95.644 54.3232 95.644L108.221 70.8305C107.02 65.0186 105.306 47.0692 116.527 38.305C125.384 31.3914 138.116 39.4191 138.116 39.4191L147.474 37.3271L148.576 41.5111L213.677 41.2017L197.801 51.9094C203.823 56.1677 210.619 68.3424 203.879 81.0802Z" fill="var(--fill-0, #263238)"/>
<path id="Vector_10" d="M8.26133 61.5898L6.4045 78.5489L10.0068 100.732C10.0068 100.732 0.82781 93.4159 0.0479399 81.4517C-0.73193 69.4875 8.26133 61.5898 8.26133 61.5898Z" fill="var(--fill-0, #263238)"/>
<path id="Vector_11" d="M11.3746 108.196L6.63971 78.6727L10.929 37.0487C11.0139 36.2296 11.3018 35.4447 11.7665 34.7649C12.2312 34.0851 12.8581 33.532 13.5905 33.1555L77.2798 0.5L129.692 0.75377C131.106 0.760529 132.465 1.30486 133.492 2.27637L146.435 14.4943" stroke="var(--stroke-0, #263238)" stroke-linecap="round" stroke-linejoin="round"/>
<path id="Vector_12" d="M38.2925 64.5483L6.6459 78.6665" stroke="var(--stroke-0, #263238)" stroke-linecap="round" stroke-linejoin="round"/>
<path id="Vector_13" d="M45.7384 61.2184L40.5207 63.5518" stroke="var(--stroke-0, #263238)" stroke-linecap="round" stroke-linejoin="round"/>
<path id="Vector_14" d="M57.8512 55.6355L52.6335 57.9628" stroke="var(--stroke-0, #263238)" stroke-linecap="round" stroke-linejoin="round"/>
<path id="Vector_15" d="M77.3603 0.543386L92.5059 28.5135L99.1967 66.1267L62.6356 82.4545" stroke="var(--stroke-0, #263238)" stroke-linecap="round" stroke-linejoin="round"/>
<path id="Vector_16" d="M45.0328 17.3106L49.5511 59.6216L58.8601 74.5877" stroke="var(--stroke-0, #263238)" stroke-linecap="round" stroke-linejoin="round"/>
<path id="Vector_17" d="M147.165 17.8303L208.527 18.4493C208.896 18.4492 209.255 18.3225 209.542 18.0903C209.706 17.955 209.841 17.7881 209.939 17.5996C210.038 17.411 210.097 17.2046 210.114 16.9926C210.13 16.7807 210.104 16.5675 210.037 16.3658C209.97 16.1642 209.862 15.9781 209.722 15.8188L209.573 15.6517C209.427 15.4855 209.247 15.3522 209.045 15.2605C208.843 15.1688 208.625 15.1207 208.403 15.1194L141.731 14.5561C141.43 14.556 141.13 14.5809 140.833 14.6304L96.3619 27.393" stroke="var(--stroke-0, #263238)" stroke-linecap="round" stroke-linejoin="round"/>
<path id="Vector_18" d="M147.617 37.5748L148.483 41.2946L214.908 40.9851L214.296 36.7392L147.617 37.5748Z" stroke="var(--stroke-0, #263238)" stroke-linecap="round" stroke-linejoin="round"/>
<path id="Vector_19" d="M153.639 37.2653L149.028 17.6138" stroke="var(--stroke-0, #263238)" stroke-miterlimit="10"/>
<path id="Vector_20" d="M151.782 37.3953L147.128 17.7562" stroke="var(--stroke-0, #263238)" stroke-miterlimit="10"/>
<path id="Vector_21" d="M213.404 36.5598L209.096 18.4743" stroke="var(--stroke-0, #263238)" stroke-miterlimit="10"/>
<path id="Vector_22" d="M207.376 18.3195L211.9 36.6897" stroke="var(--stroke-0, #263238)" stroke-miterlimit="10"/>
<path id="Vector_23" opacity="0.3" d="M162.861 18.0904L167.361 37.2962L153.633 37.2653L149.133 18.0532L162.861 18.0904Z" fill="var(--fill-0, black)"/>
<path id="Vector_24" d="M162.694 27.1146C163.437 30.1041 162.261 32.9636 160.07 33.5083C157.879 34.053 155.508 32.0662 154.772 29.0767C154.035 26.0872 155.205 23.2277 157.396 22.683C159.587 22.1383 161.958 24.1375 162.694 27.1146Z" fill="var(--fill-0, #263238)"/>
<path id="Vector_25" opacity="0.3" d="M195.932 18.3689L200.908 36.7949H211.696L207.487 18.7031L195.932 18.3689Z" fill="var(--fill-0, black)"/>
<path id="Vector_26" d="M206.881 26.8113C207.5 29.3614 206.509 31.8 204.64 32.2642C202.771 32.7284 200.747 31.0263 200.116 28.4825C199.484 25.9386 200.493 23.4938 202.356 23.0295C204.219 22.5653 206.249 24.2612 206.881 26.8113Z" fill="var(--fill-0, #263238)"/>
<path id="Vector_27" opacity="0.2" d="M161.958 27.3064C162.577 29.7389 161.599 32.0661 159.822 32.5118C158.046 32.9574 156.109 31.3358 155.49 28.9033C154.871 26.4709 155.842 24.1436 157.625 23.7042C159.408 23.2647 161.357 24.8802 161.958 27.3064Z" fill="var(--fill-0, white)"/>
<path id="Vector_28" opacity="0.2" d="M206.429 26.9227C206.98 29.1324 206.107 31.2553 204.492 31.6515C202.876 32.0476 201.118 30.5807 200.567 28.371C200.017 26.1614 200.889 24.0384 202.511 23.6485C204.133 23.2586 205.884 24.7131 206.429 26.9227Z" fill="var(--fill-0, white)"/>
<path id="Vector_29" d="M165.046 18.0532L166.235 23.1471L194.861 23.5804L193.437 18.3689H195.931L200.908 36.7949L198.296 36.832L196.024 28.4886L167.361 28.6743L169.354 37.2219L167.361 37.2962L162.861 18.0904L165.046 18.0532Z" stroke="var(--stroke-0, #263238)" stroke-linecap="round" stroke-linejoin="round"/>
<path id="Vector_30" d="M41.7648 30.327L41.8267 52.219L14.1041 65.9163L14.9026 42.3345C14.9247 41.5651 15.1514 40.8155 15.5594 40.1628C15.9673 39.5101 16.5417 38.9779 17.2236 38.6208L37.8035 27.9193C38.2173 27.7081 38.6783 27.6063 39.1426 27.6235C39.6068 27.6408 40.059 27.7765 40.456 28.0178C40.853 28.2591 41.1817 28.598 41.4107 29.0021C41.6398 29.4063 41.7617 29.8624 41.7648 30.327Z" fill="var(--fill-0, #263238)"/>
<path id="Vector_31" d="M88.7675 29.0272L52.6582 46.7476L49.5635 24.5646C49.4382 23.6687 49.5964 22.7561 50.0159 21.9546C50.4355 21.1532 51.0954 20.5032 51.9031 20.0958L73.3434 9.28906C74.3502 8.78117 75.5153 8.68584 76.5913 9.02332C77.6673 9.36079 78.5693 10.1045 79.1057 11.0964L88.7675 29.0272Z" fill="var(--fill-0, #263238)"/>
<path id="Vector_32" d="M143.81 14.55H141.334L96.3495 27.5169L86.0812 9.01045C85.8589 8.61582 85.7249 8.17756 85.6887 7.72604C85.6525 7.27452 85.7148 6.82052 85.8714 6.39547C86.028 5.97043 86.2751 5.5845 86.5956 5.26441C86.9161 4.94432 87.3024 4.69771 87.7276 4.54167C88.064 4.41428 88.4202 4.34723 88.7798 4.34361L130.67 3.87321H130.812C131.537 3.89341 132.231 4.16722 132.774 4.64689L143.816 14.55" fill="var(--fill-0, #263238)"/>
<path id="Vector_33" d="M144.12 14.5995L141.149 14.4014L138.425 15.3299C121.801 0.617549 103.325 6.22518 103.325 6.22518L106.785 12.9098C96.9932 4.43024 87.4863 6.37372 85.7408 7.265C85.7502 6.63185 85.9509 6.01634 86.3165 5.49936C86.6822 4.98237 87.1957 4.5881 87.7895 4.36835L130.874 3.70607H131.951L132.836 4.49833L144.12 14.5995Z" fill="var(--fill-0, white)"/>
<path id="Vector_34" opacity="0.2" d="M143.81 14.55H141.334L96.3495 27.5169L86.0812 9.01045C85.8589 8.61582 85.7249 8.17756 85.6887 7.72604C85.6525 7.27452 85.7148 6.82052 85.8714 6.39547C86.028 5.97043 86.2751 5.5845 86.5956 5.26441C86.9161 4.94432 87.3024 4.69771 87.7276 4.54167C88.064 4.41428 88.4202 4.34723 88.7798 4.34361L130.67 3.87321H130.812C131.537 3.89341 132.231 4.16722 132.774 4.64689L143.816 14.55" fill="var(--fill-0, white)"/>
<path id="Vector_35" d="M143.81 14.55H141.334L96.3495 27.5169L86.0812 9.01045C85.8589 8.61582 85.7249 8.17756 85.6887 7.72604C85.6525 7.27452 85.7148 6.82052 85.8714 6.39547C86.028 5.97043 86.2751 5.5845 86.5956 5.26441C86.9161 4.94432 87.3024 4.69771 87.7276 4.54167C88.064 4.41428 88.4202 4.34723 88.7798 4.34361L130.67 3.87321H130.812C131.537 3.89341 132.231 4.16722 132.774 4.64689L143.816 14.55" stroke="var(--stroke-0, #263238)" stroke-linecap="round" stroke-linejoin="round"/>
<path id="Vector_36" opacity="0.33" d="M141.83 57.0654L149.975 54.3482C152.931 60.2915 154.461 66.842 154.444 73.4798L145.847 74.7177C145.847 74.7177 145.549 65.3407 141.83 57.0654Z" fill="var(--fill-0, black)"/>
<path id="Vector_37" opacity="0.33" d="M202.684 57.121L214.246 52.9308C214.246 52.9308 221.673 63.7252 217.706 76.5187L205.079 78.487C205.079 78.487 209.554 67.476 202.684 57.121Z" fill="var(--fill-0, black)"/>
<path id="Vector_38" opacity="0.3" d="M26.8606 26.4584C26.8606 26.4584 15.7815 32.6479 13.3181 35.5136C10.8547 38.3793 8.17471 62.3944 8.17471 62.3944C8.17471 62.3944 9.80872 36.8877 11.975 34.5047C14.1413 32.1218 26.8606 26.4584 26.8606 26.4584Z" fill="var(--fill-0, black)"/>
<path id="Vector_39" opacity="0.3" d="M98.392 61.5898L55.92 81.1608C55.92 81.1608 45.6208 70.4469 31.5646 76.3516C31.5646 76.3516 47.1186 73.294 55.2454 85.871L99.1904 66.1266L98.392 61.5898Z" fill="var(--fill-0, black)"/>
<path id="Vector_40" opacity="0.3" d="M7.27722 75.3984L56.6876 53.1659L62.6356 53.7106L7.07916 78.2084L7.27722 75.3984Z" fill="var(--fill-0, black)"/>
<path id="Vector_41" opacity="0.3" d="M193.437 18.3689L194.861 23.5804L166.235 23.1471L165.046 18.0532L193.437 18.3689Z" fill="var(--fill-0, black)"/>
<path id="Vector_42" opacity="0.3" d="M196.024 28.4886L198.296 36.832L169.354 37.2219L167.361 28.6743L196.024 28.4886Z" fill="var(--fill-0, black)"/>
<path id="Vector_43" d="M131.623 94.5362C131.444 94.4743 131.834 89.4238 131.766 89.1081C131.171 86.3352 130.573 83.5624 129.971 80.7895C129.244 77.4142 128.516 74.0409 127.786 70.6697L125.595 60.5376L123.775 52.0952L122.704 47.1437C122.661 46.9332 122.618 46.729 122.568 46.5247L137.553 44.2099C137.553 44.2099 149.932 46.1286 153.528 64.5113C155.384 73.9068 154.537 79.923 153.354 83.4881C152.773 85.2397 152.215 87.0284 150.947 88.4396C147.375 92.3761 143.043 93.4593 136.575 94.1277C135.306 94.202 132.904 94.5053 131.623 94.5362Z" fill="var(--fill-0, #263238)" stroke="var(--stroke-0, #263238)" stroke-miterlimit="10"/>
<path id="Vector_44" opacity="0.3" d="M141.83 93.2365C139.354 93.9359 133.041 94.4063 132.898 94.3815L127.377 68.7944C126.436 64.4246 125.494 60.0507 124.549 55.6727C124.078 53.4899 123.606 51.303 123.131 49.1119C123.02 48.5858 122.908 48.0597 122.791 47.5336C122.642 46.8342 122.395 46.6176 123.094 46.4195C124.332 46.0605 125.805 46.0543 127.031 45.8006L132.508 44.8907C134.309 44.7793 136.222 44.1789 138.079 44.4018C139.248 44.5837 140.373 44.9825 141.396 45.5777C145.157 47.7302 148.212 50.9273 150.192 54.7815C152.717 59.4793 153.868 64.8331 154.419 70.1003C154.861 74.1446 154.625 78.2344 153.719 82.2007C153.162 84.596 152.166 87.4803 150.105 89.1576C147.357 91.3858 145.5 92.2028 141.83 93.2365Z" fill="var(--fill-0, white)" stroke="var(--stroke-0, #263238)" stroke-miterlimit="10"/>
<path id="Vector_45" d="M139.249 91.4848C134.916 95.6379 126.022 95.9412 120.711 90.3521C120.649 90.284 113.284 80.2695 112.17 73.0897C110.072 59.5967 115.784 47.5087 124.932 46.0852C134.08 44.6616 143.191 54.4471 145.289 67.9339C146.806 77.6637 144.262 86.6818 139.249 91.4848Z" fill="var(--fill-0, #263238)" stroke="var(--stroke-0, #263238)" stroke-miterlimit="10"/>
<path id="Vector_46" opacity="0.1" d="M139.372 91.5281C132.83 97.8104 122.333 93.1188 120.433 90.3273C116.391 86.3785 113.408 80.3066 112.294 73.1331C110.22 59.6401 115.908 47.5397 125.075 46.1285C134.241 44.7173 143.334 54.4904 145.432 67.9772C146.93 77.7256 144.367 86.7437 139.372 91.5281Z" fill="var(--fill-0, white)" stroke="var(--stroke-0, #263238)" stroke-miterlimit="10"/>
<path id="Vector_47" d="M133.071 81.6497C132.608 81.9607 132.107 82.2104 131.58 82.3925C126.95 83.977 121.726 79.6258 119.919 72.6751C118.112 65.7243 120.389 58.8169 125.019 57.2386C125.743 56.9908 126.508 56.8836 127.272 56.9229C131.233 57.1148 135.164 61.1194 136.68 66.9498C138.289 73.1083 136.68 79.2297 133.071 81.6497Z" fill="var(--fill-0, #263238)" stroke="var(--stroke-0, #263238)" stroke-miterlimit="10"/>
<path id="Vector_48" d="M133.121 81.9407C132.653 82.2601 132.146 82.5161 131.611 82.702C126.925 84.2989 121.64 79.8982 119.808 72.867C117.975 65.8358 120.284 58.8417 124.97 57.2448C125.701 56.9925 126.474 56.8832 127.247 56.923C131.258 57.121 135.232 61.1689 136.773 67.0736C138.407 73.3002 136.785 79.502 133.121 81.9407Z" fill="var(--fill-0, #263238)" stroke="var(--stroke-0, #263238)" stroke-miterlimit="10"/>
<path id="Vector_49" opacity="0.3" d="M133.189 81.9592C132.72 82.2743 132.212 82.528 131.679 82.7143C126.993 84.3174 121.708 79.9167 119.876 72.8793C118.044 65.8419 120.358 58.8602 125.038 57.2572C125.772 57.0067 126.547 56.8996 127.322 56.9415C131.332 57.1334 135.3 61.1813 136.841 67.086C138.469 73.3126 136.835 79.5144 133.189 81.9592Z" fill="var(--fill-0, white)" stroke="var(--stroke-0, #263238)" stroke-miterlimit="10"/>
<path id="Vector_50" d="M133.071 81.786C129.104 81.6003 125.174 77.5957 123.651 71.7591C122.042 65.6068 123.651 59.473 127.272 57.0653C131.233 57.2572 135.157 61.2556 136.68 67.0922C138.283 73.2445 136.68 79.3721 133.071 81.786Z" fill="var(--fill-0, #263238)"/>
<path id="Vector_51" d="M130.809 78.1333C133.618 77.4774 135.041 73.2838 133.987 68.7666C132.932 64.2493 129.8 61.1191 126.99 61.775C124.181 62.4308 122.758 66.6245 123.812 71.1417C124.867 75.6589 127.999 78.7892 130.809 78.1333Z" fill="var(--fill-0, #263238)" stroke="var(--stroke-0, #263238)" stroke-miterlimit="10"/>
<path id="Vector_52" opacity="0.4" d="M130.809 78.1333C133.618 77.4774 135.041 73.2838 133.987 68.7666C132.932 64.2493 129.8 61.1191 126.99 61.775C124.181 62.4308 122.758 66.6245 123.812 71.1417C124.867 75.6589 127.999 78.7892 130.809 78.1333Z" fill="var(--fill-0, white)"/>
<path id="Vector_53" d="M44.9647 125.985C46.4117 125.7 47.816 125.23 49.1426 124.586C55.0659 121.578 60.2836 118.106 62.3137 111.186C63.9106 105.671 63.0812 98.7512 61.5958 93.3231L54.1684 96.0279L51.6926 92.7846C51.6926 92.7846 57.9007 117.802 44.9647 125.985Z" fill="var(--fill-0, #263238)"/>
<path id="Vector_54" d="M53.3391 96.4363C53.3391 96.4363 44.3211 77.6638 31.8431 81.0803C19.3652 84.4969 19.2786 104.891 19.2786 104.891C19.2786 104.891 21.5315 129.29 40.5207 127.173C56.081 125.452 54.5893 104.514 53.3391 96.4363Z" fill="var(--fill-0, #263238)"/>
<path id="Vector_55" opacity="0.1" d="M49.0498 89.4113C46.246 85.1282 42.2414 81.7982 36.968 80.8513C35.2643 80.544 33.5137 80.6201 31.8431 81.0741C25.6537 82.7638 21.5686 88.9161 19.9841 94.6475C17.9292 102.075 19.9161 111.978 24.2301 118.601C27.9995 124.388 33.5143 128.021 40.5207 127.179C52.7696 125.7 55.6539 111.427 53.5619 100.806C52.7951 96.7557 51.2638 92.8885 49.0498 89.4113Z" fill="var(--fill-0, white)" stroke="var(--stroke-0, #263238)" stroke-miterlimit="10"/>
<path id="Vector_56" d="M41.412 115.655C40.9497 115.967 40.4481 116.216 39.9204 116.397C35.2907 117.982 30.0668 113.631 28.2594 106.68C26.4521 99.7292 28.7298 92.8217 33.3595 91.2434C34.0829 90.993 34.8482 90.8858 35.6125 90.9278C39.5799 91.1196 43.504 95.118 45.0267 100.955C46.6297 107.107 45.0205 113.235 41.412 115.655Z" fill="var(--fill-0, #263238)" stroke="var(--stroke-0, #263238)" stroke-miterlimit="10"/>
<path id="Vector_57" d="M41.4739 115.946C41.0073 116.265 40.4992 116.519 39.9636 116.701C35.2782 118.304 29.9924 113.903 28.1604 106.872C26.3283 99.8407 28.6432 92.8466 33.3224 91.2497C34.0553 90.9943 34.8313 90.8849 35.6063 90.9279C39.617 91.1259 43.5907 95.1738 45.1256 101.072C46.7535 107.305 45.1256 113.501 41.4739 115.946Z" fill="var(--fill-0, #263238)" stroke="var(--stroke-0, #263238)" stroke-miterlimit="10"/>
<path id="Vector_58" opacity="0.3" d="M41.5172 115.964C41.0488 116.28 40.5411 116.534 40.007 116.719C35.3216 118.316 30.0358 113.915 28.2037 106.884C26.3717 99.8529 28.6865 92.8651 33.3657 91.262C34.0991 91.0085 34.875 90.9013 35.6496 90.9463C39.6604 91.1382 43.634 95.1861 45.169 101.091C46.8092 107.317 45.1814 113.519 41.5172 115.964Z" fill="var(--fill-0, white)" stroke="var(--stroke-0, #263238)" stroke-miterlimit="10"/>
<path id="Vector_59" d="M41.2139 115.976C36.8194 115.791 32.1897 111.644 30.5124 105.795C28.7484 99.6425 30.5495 93.5088 34.5603 91.0887C40.0441 91.0887 43.2936 95.2666 44.9648 101.097C46.7288 107.243 45.2309 113.55 41.2139 115.976Z" fill="var(--fill-0, #263238)"/>
<path id="Vector_60" d="M43.504 102.539C44.5624 107.057 43.1389 111.254 40.3289 111.91C37.5188 112.566 34.387 109.434 33.3348 104.916C32.2826 100.398 33.7 96.2011 36.51 95.5451C39.32 94.889 42.4518 98.0208 43.504 102.539Z" fill="var(--fill-0, #263238)" stroke="var(--stroke-0, #263238)" stroke-miterlimit="10"/>
<path id="Vector_61" opacity="0.4" d="M39.0383 111.294C41.8478 110.638 43.2706 106.444 42.216 101.927C41.1615 97.4098 38.0291 94.2796 35.2195 94.9355C32.41 95.5913 30.9873 99.785 32.0418 104.302C33.0963 108.819 36.2287 111.95 39.0383 111.294Z" fill="var(--fill-0, white)"/>
<path id="Vector_62" d="M196.928 68.6271C198.098 75.2622 195.535 81.2598 191.197 82.0273C186.858 82.7948 182.401 78.0351 181.225 71.4C180.049 64.7649 182.624 58.7735 186.957 58.006C191.289 57.2385 195.758 61.9982 196.928 68.6271Z" fill="var(--fill-0, #263238)" stroke="var(--stroke-0, #263238)" stroke-miterlimit="10"/>
</g>
</svg>
