<svg preserveAspectRatio="none" width="100%" height="100%" overflow="visible" style="display: block;" viewBox="0 0 259 87.4907" fill="none" xmlns="http://www.w3.org/2000/svg">
<g id="freepik--clouds--inject-4">
<path id="Vector" d="M150 29.6951L235.396 29.5308C235.396 29.5308 234.129 23.5297 229.853 23.3715C225.577 23.2132 225.892 21.1013 225.892 17.8573C225.892 14.6133 221.771 11.5336 219.868 11.8561C219.868 11.8561 217.34 0 207.676 0C198.012 0 194.836 3.74917 193.73 9.09904C192.623 14.4489 189.448 15.4227 187.39 14.4489C185.332 13.4751 181.371 13.4751 180.42 18.1798C179.468 22.8846 177.726 24.0166 174.556 22.3976C171.386 20.7787 166.474 20.2857 164.446 23.694C162.418 27.1024 159.373 26.4511 157.154 25.6356C154.936 24.82 150.315 27.5832 150 29.6951Z" fill="var(--fill-0, #9BEDFF)"/>
<path id="Vector_2" d="M67.673 87.1504H0C0.303691 86.3256 0.870598 85.6298 1.60889 85.1758C2.34719 84.7218 3.21363 84.5361 4.06788 84.649C4.06788 84.649 1.62358 76.8037 8.76615 74.7283C12.4237 73.6632 16.9971 78.727 19.7447 77.6436C22.4923 76.5602 25.341 69.2506 30.9373 70.8391C34.5056 71.8555 35.695 76.0246 38.5378 76.0246C41.3805 76.0246 43.8129 74.077 45.609 76.9985C47.405 79.9199 48.6718 79.9138 53.4236 79.9138C58.1754 79.9138 59.0199 84.6672 59.0199 84.6672C59.0199 84.6672 65.5618 82.6161 67.673 87.1504Z" fill="var(--fill-0, #9BEDFF)"/>
<path id="Vector_3" d="M204.482 87.4907H259C258.756 86.8257 258.3 86.2646 257.705 85.8989C257.11 85.5331 256.411 85.3841 255.723 85.4761C255.723 85.4761 257.692 79.1524 251.941 77.4787C248.967 76.6266 245.304 80.7044 243.097 79.828C240.891 78.9516 238.607 73.0661 234.081 74.3503C231.179 75.1659 230.251 78.5255 227.956 78.5255C225.66 78.5255 223.703 76.9613 222.258 79.3107C220.813 81.66 219.79 81.66 215.966 81.66C212.142 81.66 211.458 85.4883 211.458 85.4883C211.458 85.4883 206.183 83.8328 204.482 87.4907Z" fill="var(--fill-0, #9BEDFF)"/>
</g>
</svg>
