<svg preserveAspectRatio="none" width="100%" height="100%" overflow="visible" style="display: block;" viewBox="0 0 260.5 53.6767" fill="none" xmlns="http://www.w3.org/2000/svg">
<g id="freepik--floor--inject-4">
<path id="Vector" d="M260.5 31.6104C222.949 15.2826 188.046 5.91183 158.275 2.71807C157.627 2.64793 156.977 2.58604 156.326 2.5324C150.012 1.94234 143.833 1.56477 137.788 1.39972H137.51C114.73 0.756469 91.9535 2.77552 69.6424 7.41586C66.0277 8.17097 62.5328 8.96529 59.1574 9.7988C53.9645 11.08 49.0686 12.4417 44.4946 13.8343C40.4921 15.0722 36.7393 16.3101 33.236 17.548C31.5855 18.1257 30.001 18.6992 28.4826 19.2686C10.9355 25.8109 1.07569 31.6475 1.07569 31.6475C64.7032 69.985 191.092 48.9285 240.774 37.8989C253.939 34.9341 260.5 31.6104 260.5 31.6104Z" fill="var(--fill-0, white)"/>
<path id="Vector_2" d="M95.5823 3.1143C95.4214 8.35057 101.846 10.9563 103.901 11.1606C116.113 12.3613 129.21 9.97219 140.115 15.5984C143.922 17.5605 147.196 20.4014 150.767 22.772C156.697 26.7085 163.4 29.3266 170.134 31.6291C181.56 35.5346 193.549 38.6541 205.581 37.6885C217.613 36.723 229.491 31.5362 235.755 21.2184C235.755 21.2184 159.816 -9.71023 95.5823 3.1143Z" fill="var(--fill-0, #263238)"/>
<path id="Vector_3" d="M259.955 31.5857C223.611 14.3295 189.099 5.81284 157.731 2.68098L155.781 2.4953C149.468 1.90937 143.289 1.5318 137.243 1.36262H136.965C114.174 0.723062 91.3872 2.74836 69.0668 7.39733C65.4521 8.15244 61.9571 8.94676 58.5818 9.78027C53.3889 11.0615 48.493 12.4232 43.919 13.8158C39.9165 15.0537 36.1637 16.2916 32.6604 17.5295C31.0099 18.103 29.4254 18.6766 27.9069 19.2501C10.3599 25.7924 0.500078 31.629 0.500078 31.629" stroke="var(--stroke-0, #263238)" stroke-linecap="round" stroke-linejoin="round"/>
</g>
</svg>
