<svg width="24" height="24" viewBox="0 0 24 24" fill="none" xmlns="http://www.w3.org/2000/svg">
<g clip-path="url(#clip0_3668_21504)">
<path d="M13.4943 19.7774C14.3642 19.2047 15.2269 18.6362 16.2535 18.5715C16.7401 18.5312 17.2288 18.6154 17.6763 18.8167C18.1238 19.018 18.5164 19.3302 18.8194 19.7255C19.6518 20.7995 20.8941 19.9508 19.975 18.7672C19.5223 18.1829 18.9393 17.7207 18.2757 17.4203C17.6122 17.1198 16.8881 16.9901 16.1653 17.0422C15.0422 17.112 14.134 17.6963 13.2272 18.2811C12.4906 18.7544 11.7535 19.2291 10.9009 19.4277C9.88877 19.6614 9.38632 18.9657 9.62009 18.0647L9.6247 18.0469C9.93102 16.8662 9.53951 15.9619 8.33386 15.6282C7.63224 15.4341 6.81439 15.6169 5.9941 15.7736C4.07608 16.1413 2.20868 16.7498 0.433431 17.5855C0.254654 17.6713 0.115816 17.8265 0.047047 18.0173C-0.0217225 18.2082 -0.0148745 18.4194 0.0661042 18.605C0.308917 19.1479 0.834412 19.0745 1.26916 18.8777C1.98835 18.5486 4.35187 17.525 6.21357 17.1696C6.98372 17.0227 7.57914 17.0051 7.95 17.1078C8.30797 17.2068 8.26882 17.3577 8.17746 17.7099C7.66559 19.6709 9.20236 21.3902 11.2252 20.9224C12.0486 20.73 12.7738 20.2536 13.4943 19.7774ZM3.51419 13.5016C6.04588 12.6164 8.9427 11.8323 11.4413 12.5237C12.5153 12.8209 12.3713 13.3757 12.2274 13.9306C12.0834 14.4854 11.9395 15.0402 13.0134 15.3374C16.6318 16.3387 21.9263 12.7072 23 9.3793L19.0364 9.86823L16.0568 7.49915C15.2588 6.95483 14.4424 8.23221 15.2404 8.77654L16.6967 10.0136L14.3569 10.159L9.10918 6.72463C8.80158 6.51423 8.54181 6.61044 8.29727 6.89639L4.99786 10.7406L1.75022 11.4277L3.51419 13.5016ZM9.78094 4.13544C9.88275 3.74304 10.1312 3.40846 10.4718 3.2053C10.8123 3.00215 11.2169 2.94705 11.5967 3.05215C11.9765 3.15724 12.3002 3.4139 12.4968 3.76568C12.6933 4.11746 12.7465 4.53553 12.6447 4.92793C12.5429 5.32033 12.2944 5.65491 11.9539 5.85806C11.6134 6.06122 11.2087 6.11631 10.829 6.01122C10.4492 5.90613 10.1254 5.64946 9.9289 5.29769C9.73236 4.94591 9.67914 4.52784 9.78094 4.13544Z" stroke="#111111" stroke-width="1.25"/>
</g>
<defs>
<clipPath id="clip0_3668_21504">
<rect width="24" height="24" fill="white"/>
</clipPath>
</defs>
</svg>
