<svg width="24" height="24" viewBox="0 0 24 24" fill="none" xmlns="http://www.w3.org/2000/svg">
<path d="M15.375 7.78261C15.8942 7.78261 16.4017 7.61304 16.8334 7.29534C17.2651 6.97764 17.6015 6.52608 17.8002 5.99776C17.9989 5.46944 18.0509 4.8881 17.9496 4.32724C17.8483 3.76638 17.5983 3.2512 17.2312 2.84684C16.864 2.44249 16.3963 2.16712 15.8871 2.05556C15.3779 1.944 14.8501 2.00125 14.3704 2.22009C13.8907 2.43892 13.4808 2.80951 13.1923 3.28498C12.9039 3.76046 12.7499 4.31946 12.7499 4.89131C12.7499 5.65813 13.0265 6.39354 13.5188 6.93577C14.0111 7.47799 14.6788 7.78261 15.375 7.78261ZM15.375 3.65218C15.5975 3.65218 15.815 3.72485 16 3.86101C16.185 3.99716 16.3292 4.19069 16.4144 4.41711C16.4995 4.64353 16.5218 4.89268 16.4784 5.13305C16.435 5.37342 16.3278 5.59421 16.1705 5.7675C16.0131 5.9408 15.8127 6.05881 15.5945 6.10663C15.3762 6.15444 15.15 6.1299 14.9444 6.03611C14.7389 5.94233 14.5632 5.7835 14.4396 5.57973C14.3159 5.37596 14.25 5.13638 14.25 4.89131C14.25 4.56267 14.3685 4.24749 14.5795 4.01511C14.7904 3.78273 15.0766 3.65218 15.375 3.65218ZM23.8951 19.7526L18.78 10.2443C18.6481 9.99665 18.4594 9.79149 18.2329 9.64941C18.0063 9.50732 17.7498 9.43331 17.4891 9.43478C17.2285 9.43328 16.9721 9.50729 16.7457 9.64939C16.5193 9.79148 16.3307 9.99667 16.1991 10.2443L13.7465 14.8043L9.54268 6.9462C9.41022 6.69823 9.22126 6.49266 8.9945 6.34983C8.76775 6.20701 8.51106 6.13187 8.24985 6.13187C7.98863 6.13187 7.73195 6.20701 7.50519 6.34983C7.27844 6.49266 7.08948 6.69823 6.95701 6.9462L0.103763 19.7547C0.036681 19.8801 0.000890389 20.0229 1.63996e-05 20.1684C-0.000857589 20.314 0.0332161 20.4573 0.0987862 20.5837C0.164356 20.7101 0.259094 20.8152 0.373402 20.8883C0.487711 20.9614 0.617531 20.9999 0.749712 21H23.2501C23.3825 21 23.5125 20.9614 23.627 20.8881C23.7414 20.8148 23.8362 20.7094 23.9017 20.5827C23.9672 20.456 24.0011 20.3125 24 20.1667C23.9988 20.0209 23.9626 19.878 23.8951 19.7526ZM8.24985 7.78261L10.4596 11.913H6.04012L8.24985 7.78261ZM2.06224 19.3478L5.15604 13.5652H11.3437L13.1006 16.8489L14.4375 19.3478H2.06224ZM16.1784 19.3478L14.6165 16.4276L17.4891 11.087L21.9376 19.3478H16.1784Z" fill="black"/>
</svg>
