<svg width="24" height="24" viewBox="0 0 24 24" fill="none" xmlns="http://www.w3.org/2000/svg">
<path d="M12 20C12.5523 20 13 20 13 19V2C13 1.44772 12.5523 1 12 1C11.4477 1 11 1.44772 11 2V19C11 20 11.4477 20 12 20ZM12 20H16C16.5523 20 17 20.4477 17 21C17 21.5523 16.5523 22 16 22H8C7.44772 22 7 21.5523 7 21C7 20.4477 7.44772 20 8 20H12ZM13.5 3C12.9477 3 13 3.44772 13 4V7.5C13 8.05228 13 9 13 9H19.7725C20.1202 9 20.4429 8.81941 20.6248 8.52309L21.8523 6.52309C22.0492 6.20217 22.0492 5.79783 21.8523 5.47691L20.6248 3.47691C20.4429 3.18059 20.1202 3 19.7725 3H13.5ZM13 7V5H19.2129L19.8267 6L19.2129 7H13ZM4.2275 10C3.87982 10 3.55709 10.1806 3.37522 10.4769L2.14772 12.4769C1.95076 12.7978 1.95076 13.2022 2.14772 13.5231L3.37522 15.5231C3.55709 15.8194 3.87982 16 4.2275 16H10.5C11.0523 16 11 15.5523 11 15V11C11 10.4477 11.0523 10 10.5 10H4.2275ZM4.17332 13L4.78707 12H11V14H4.78707L4.17332 13Z" stroke="#111111" stroke-linecap="round" stroke-linejoin="round"/>
</svg>
