<svg width="24" height="24" viewBox="0 0 24 24" fill="none" xmlns="http://www.w3.org/2000/svg">
<path d="M11.5 5.14291C10.6459 5.14291 9.81107 5.39426 9.10095 5.86519C8.39083 6.33611 7.83735 7.00546 7.51052 7.78858C7.18369 8.5717 7.09817 9.43342 7.26479 10.2648C7.43141 11.0961 7.84268 11.8598 8.44658 12.4592C9.05049 13.0585 9.81992 13.4667 10.6576 13.6321C11.4952 13.7974 12.3635 13.7126 13.1525 13.3882C13.9415 13.0638 14.6159 12.5145 15.0904 11.8097C15.5649 11.1049 15.8182 10.2763 15.8182 9.42867C15.8182 8.29201 15.3632 7.20191 14.5534 6.39818C13.7436 5.59444 12.6453 5.14291 11.5 5.14291ZM11.5 12.0001C10.9876 12.0001 10.4866 11.8493 10.0606 11.5668C9.6345 11.2842 9.30241 10.8826 9.10631 10.4127C8.91021 9.94285 8.8589 9.42581 8.95887 8.927C9.05885 8.42819 9.30561 7.97 9.66795 7.61037C10.0303 7.25075 10.492 7.00584 10.9945 6.90662C11.4971 6.8074 12.0181 6.85832 12.4915 7.05295C12.9649 7.24758 13.3696 7.57717 13.6543 8.00004C13.939 8.42292 14.0909 8.92008 14.0909 9.42867C14.0909 10.1107 13.8179 10.7647 13.3321 11.247C12.8462 11.7292 12.1872 12.0001 11.5 12.0001ZM11.5 0C8.98132 0.00283581 6.56662 0.997121 4.78564 2.76472C3.00466 4.53233 2.00286 6.9289 2 9.42867C2 12.793 3.56642 16.3587 6.53409 19.7413C7.86757 21.2697 9.36839 22.6461 11.0088 23.8449C11.154 23.9458 11.327 24 11.5043 24C11.6816 24 11.8546 23.9458 11.9998 23.8449C13.6372 22.6456 15.1351 21.2693 16.4659 19.7413C19.4293 16.3587 21 12.793 21 9.42867C20.9971 6.9289 19.9953 4.53233 18.2144 2.76472C16.4334 0.997121 14.0187 0.00283581 11.5 0ZM11.5 22.0716C9.71551 20.6788 3.72727 15.5627 3.72727 9.42867C3.72727 7.38269 4.54618 5.42051 6.00385 3.97379C7.46152 2.52706 9.43854 1.7143 11.5 1.7143C13.5615 1.7143 15.5385 2.52706 16.9961 3.97379C18.4538 5.42051 19.2727 7.38269 19.2727 9.42867C19.2727 15.5605 13.2845 20.6788 11.5 22.0716Z" fill="#111111"/>
</svg>
