<svg preserveAspectRatio="none" width="100%" height="100%" overflow="visible" style="display: block;" viewBox="0 0 47.0538 83.9438" fill="none" xmlns="http://www.w3.org/2000/svg">
<g id="freepik--character-2--inject-2">
<path id="Vector" d="M16.8143 24.2102C15.7445 25.5748 15.1817 27.2729 15.2231 29.011C15.3683 31.777 12.6215 39.0577 12.6215 40.8064C12.6707 42.2834 13.1762 43.7082 14.0675 44.8823C14.6485 45.6072 17.5405 44.0048 17.5405 44.0048C17.5405 44.0048 18.4056 38.1866 18.5508 36.8767C18.6961 35.5668 18.3867 25.8126 16.8143 24.2102Z" fill="var(--fill-0, #FFBE9D)"/>
<path id="Vector_2" d="M14.5853 45.3783C14.4408 45.3922 14.295 45.3725 14.1592 45.3207C14.0235 45.2689 13.9014 45.1863 13.8023 45.0794C12.8627 43.8514 12.3323 42.3559 12.2868 40.8064C12.4998 39.2756 12.855 37.7683 13.3477 36.3044C14.0675 33.7609 14.9705 30.5816 14.8947 29.0301C14.8391 27.2103 15.4277 25.4298 16.5554 24.0067C16.5834 23.9728 16.618 23.9451 16.6572 23.9254C16.6963 23.9057 16.7391 23.8944 16.7828 23.8923C16.8272 23.8902 16.8715 23.8977 16.9129 23.9141C16.9542 23.9306 16.9916 23.9556 17.0227 23.9876C18.7592 25.7363 18.9802 35.6686 18.8476 36.9085C18.715 38.1485 17.8689 43.814 17.831 44.0557C17.8236 44.1034 17.8056 44.1488 17.7783 44.1885C17.7509 44.2281 17.715 44.261 17.6731 44.2846C17.1174 44.5898 15.5956 45.3783 14.5853 45.3783ZM16.8143 24.738C15.9559 25.9875 15.5137 27.4793 15.5514 28.9983C15.6398 30.6515 14.7621 33.7482 13.9854 36.4761C13.5176 37.8869 13.1711 39.3357 12.9499 40.8064C12.9969 42.2101 13.4781 43.564 14.3264 44.6788C14.5348 44.9459 15.9114 44.5262 17.2627 43.8013C17.4016 42.8666 18.1214 38.0085 18.2477 36.8385C18.3614 35.5032 18.0772 26.8999 16.8143 24.738Z" fill="var(--fill-0, #263238)"/>
<path id="Vector_3" d="M15.2041 29.011C15.3115 31.0839 13.8086 35.6685 13.0383 38.5872C14.1244 37.6779 16.1008 36.7368 18.2162 39.2231C18.3614 38.2057 18.4814 37.3155 18.5319 36.8894C18.6771 35.5795 18.3867 25.8253 16.7954 24.2229C15.7283 25.5841 15.1657 27.2772 15.2041 29.011Z" fill="var(--fill-0, white)"/>
<path id="Vector_4" d="M18.2162 39.5283C18.1709 39.5279 18.1263 39.5181 18.085 39.4995C18.0437 39.4809 18.0066 39.4539 17.9762 39.4202C16.0819 37.2264 14.3643 37.8877 13.2403 38.8288C13.1859 38.8677 13.1208 38.8886 13.0541 38.8886C12.9873 38.8886 12.9222 38.8677 12.8678 38.8288C12.8118 38.7922 12.7688 38.7385 12.7449 38.6757C12.7211 38.6129 12.7177 38.544 12.7352 38.4791C12.912 37.8114 13.1204 37.0611 13.3666 36.2726C14.0865 33.7292 14.9895 30.5498 14.9137 29.0046C14.858 27.1848 15.4466 25.4044 16.5744 23.9813C16.6023 23.9474 16.637 23.9197 16.6761 23.9C16.7152 23.8803 16.758 23.869 16.8017 23.8668C16.8461 23.8648 16.8904 23.8723 16.9318 23.8887C16.9731 23.9051 17.0106 23.9302 17.0417 23.9622C18.7781 25.7108 18.9992 35.6431 18.8665 36.8831C18.816 37.3091 18.6961 38.212 18.5508 39.2294C18.5429 39.2907 18.517 39.3482 18.4765 39.3946C18.4361 39.441 18.3828 39.4743 18.3235 39.4901C18.2921 39.5129 18.2548 39.5262 18.2162 39.5283ZM15.3683 37.3027C15.8642 37.3198 16.3518 37.436 16.8028 37.6445C17.2537 37.853 17.659 38.1496 17.9951 38.5173C18.0962 37.7796 18.1783 37.1692 18.2162 36.8385C18.3614 35.5032 18.0583 26.8999 16.7954 24.757C15.9369 26.0066 15.4947 27.4984 15.5325 29.0174C15.6209 30.6706 14.7432 33.761 13.9665 36.4952C13.8339 36.9594 13.7076 37.4108 13.5876 37.8432C14.123 37.5071 14.7376 37.3206 15.3683 37.3027Z" fill="var(--fill-0, #263238)"/>
<path id="Vector_5" d="M23.2993 21.3043C23.2993 21.3043 18.9676 21.5968 17.2311 23.3454C15.4946 25.094 16.6502 28.7312 17.0859 32.8071C17.5216 36.8831 17.951 45.6136 18.6771 46.9234C19.4033 48.2333 22.289 48.8311 25.181 47.9408C28.0731 47.0506 36.7429 44.8887 36.7429 44.8887C36.7429 44.8887 36.8881 36.8831 37.3238 31.4972C37.7595 26.1114 36.4524 21.4505 33.8509 20.4331C31.2493 19.4157 25.181 19.5556 23.2993 21.3043Z" fill="var(--fill-0, white)"/>
<path id="Vector_6" d="M22.3964 48.6466C20.5336 48.6466 18.9676 48.0744 18.3993 47.0442C17.8941 46.135 17.5721 42.4469 17.1364 37.3345C17.0038 35.624 16.8712 34.0089 16.7449 32.8071C16.6439 31.866 16.5049 30.9504 16.3723 30.0665C15.924 27.1034 15.5388 24.5408 17.0038 23.072C18.6708 21.3996 22.4658 21.0117 23.173 20.9545C25.2821 19.1423 31.3819 19.0851 33.9708 20.0897C36.5598 21.0944 38.1005 25.7108 37.6396 31.4782C37.2102 36.7877 37.0586 44.7678 37.0586 44.8314C37.059 44.9022 37.0354 44.9709 36.9918 45.0264C36.9482 45.0819 36.8871 45.1208 36.8187 45.1366C36.7366 45.1366 28.1236 47.3304 25.2695 48.1888C24.3387 48.4802 23.371 48.6344 22.3964 48.6466ZM29.4938 20.0707C27.0691 20.0707 24.5496 20.5476 23.514 21.5077C23.4624 21.5568 23.3954 21.586 23.3246 21.5904C23.2804 21.5904 19.0813 21.8956 17.4521 23.5362C16.2334 24.7634 16.5996 27.1797 17.0227 29.9711C17.1553 30.8614 17.3006 31.7834 17.4016 32.7372C17.5279 33.9517 17.6542 35.5668 17.7931 37.2836C18.0962 41.0989 18.4751 45.8742 18.9486 46.739C19.5801 47.8391 22.2322 48.4686 25.0926 47.6038C27.6879 46.8217 35.0253 44.9586 36.4587 44.6025C36.4587 43.2227 36.6482 36.2472 37.0334 31.44C37.4691 26.0351 36.1241 21.6222 33.7624 20.6938C32.3841 20.2498 30.9402 20.0476 29.4938 20.0961V20.0707Z" fill="var(--fill-0, #263238)"/>
<path id="Vector_7" d="M22.289 20.7192C22.289 20.7192 20.5525 22.6269 21.2787 24.6489C22.0049 26.671 23.8803 29.4497 25.4715 28.5786C27.0628 27.7075 29.9485 23.0465 30.3842 20.573C30.8199 18.0995 29.3739 17.5145 27.9279 18.0995C26.4818 18.6845 22.289 20.7192 22.289 20.7192Z" fill="var(--fill-0, #FFBE9D)"/>
<path id="Vector_8" d="M24.8401 29.0619C24.6114 29.0585 24.3849 29.0155 24.1707 28.9347C22.8131 28.4069 21.5628 26.3912 21.0135 24.757C20.2368 22.5633 22.0112 20.5857 22.087 20.503C22.1125 20.4724 22.145 20.4484 22.1817 20.4331C22.3522 20.3504 26.3998 18.3792 27.8647 17.8006C28.2228 17.6187 28.6229 17.5375 29.023 17.5655C29.4231 17.5934 29.8083 17.7296 30.1379 17.9596C30.5673 18.3093 31.0283 19.0596 30.7694 20.6239C30.3274 23.1673 27.3848 27.93 25.7178 28.8584C25.4494 29.0063 25.1457 29.0768 24.8401 29.0619ZM22.4974 20.9736C22.2638 21.2534 20.9945 22.8812 21.5881 24.5408C22.1248 26.0606 23.2993 27.9109 24.4107 28.356C24.5574 28.4195 24.7164 28.4491 24.8759 28.4425C25.0355 28.4359 25.1916 28.3933 25.3326 28.3179C26.8733 27.4722 29.6707 22.8876 30.0874 20.5349C30.2579 19.5365 30.1253 18.8244 29.6959 18.4683C29.4514 18.3144 29.1709 18.2281 28.8827 18.218C28.5944 18.208 28.3087 18.2745 28.0541 18.4111C26.7155 18.9261 22.9962 20.7256 22.4974 20.9736Z" fill="var(--fill-0, #263238)"/>
<path id="Vector_9" d="M19.8327 4.2693C19.8327 4.2693 17.6668 6.45033 17.8057 8.08452C17.9447 9.7187 18.0962 10.8506 17.6668 11.5818C17.2374 12.3131 16.0756 12.7454 16.2208 13.1778C16.4988 13.702 16.8379 14.1909 17.2311 14.634C17.2311 14.634 17.0859 17.985 18.0962 19.0024C19.1065 20.0198 21.2534 19.8735 21.2534 19.8735C21.2534 19.8735 22.5542 26.5693 23.855 26.1369C25.1558 25.7045 28.1931 19.8735 28.6225 19.2949C29.0519 18.7163 29.0582 16.2364 29.0582 16.2364C30.2163 15.7658 31.2639 15.0565 32.1339 14.1542C33.0038 13.2519 33.6768 12.1764 34.1098 10.9968C35.8463 5.90986 30.7883 1.82756 28.9066 1.38881C27.7204 1.12016 26.5103 0.973162 25.2947 0.950061C25.2947 0.950061 24.5685 -0.0673254 21.506 0.517675C18.4435 1.10267 17.2311 2.52066 19.8327 4.2693Z" fill="var(--fill-0, #FFBE9D)"/>
<path id="Vector_10" d="M23.7603 26.4421C23.6221 26.4388 23.4872 26.3994 23.3688 26.3276C22.2259 25.6917 21.304 21.5204 21.0261 20.166C20.3947 20.166 18.7655 20.0834 17.8689 19.1932C16.8712 18.1885 16.8838 15.4097 16.9028 14.7421C16.5106 14.2977 16.1773 13.804 15.9114 13.2732C15.7661 12.8217 16.1766 12.5038 16.6123 12.1668C16.9111 11.9598 17.1736 11.704 17.389 11.4101C17.7363 10.8188 17.6479 9.82044 17.5152 8.4406V8.10996C17.389 6.71104 18.7781 5.00055 19.3717 4.3456C18.4309 3.63979 18.0267 2.93399 18.1657 2.23453C18.3551 1.2998 19.5485 0.574902 21.525 0.199739C24.1265 -0.302598 25.1558 0.333267 25.4842 0.632125C26.6762 0.663152 27.8626 0.810087 29.0266 1.07088C30.1821 1.3443 32.5185 2.88311 33.8761 5.34392C34.3754 6.19987 34.6857 7.15407 34.7859 8.14159C34.8861 9.12911 34.774 10.1268 34.4571 11.0667C34.0249 12.2605 33.3534 13.3518 32.4843 14.273C31.6153 15.1941 30.5672 15.9252 29.4055 16.4208C29.4055 17.1266 29.3234 18.8943 28.9066 19.4539C28.8182 19.5747 28.553 20.0262 28.2752 20.5539C26.6776 23.3263 25.0358 26.0605 24.0129 26.4039C23.9313 26.4306 23.846 26.4435 23.7603 26.4421ZM21.285 19.5238C21.3587 19.5241 21.4299 19.5503 21.4865 19.5979C21.543 19.6455 21.5812 19.7115 21.5944 19.7845C21.9986 21.8638 22.9268 25.3293 23.6845 25.7808C23.7477 25.7808 23.7729 25.7808 23.7856 25.7808C24.6696 25.4883 26.7976 21.7939 27.7069 20.2169C28.092 19.5493 28.2941 19.1932 28.4015 19.0533C28.6603 18.7099 28.774 17.1457 28.774 16.1855C28.774 16.1202 28.794 16.0564 28.8313 16.0029C28.8686 15.9495 28.9214 15.9089 28.9824 15.8866C30.0955 15.43 31.1028 14.7463 31.9406 13.8785C32.7785 13.0106 33.4289 11.9775 33.8509 10.8442C34.1441 9.98496 34.2479 9.07175 34.1552 8.16802C34.0625 7.26429 33.7755 6.39174 33.3141 5.61099C32.1017 3.41724 29.9548 1.90387 28.894 1.64952C27.7306 1.38678 26.5437 1.24404 25.3515 1.2235C25.301 1.22326 25.2513 1.21103 25.2063 1.18783C25.1613 1.16463 25.1224 1.1311 25.0926 1.08995C25.0926 1.08995 24.3854 0.256969 21.6513 0.778382C19.9905 1.09632 18.9234 1.67497 18.7908 2.3172C18.6961 2.7941 19.1381 3.38545 20.0537 3.98317C20.0914 4.01097 20.1231 4.04612 20.147 4.08654C20.1708 4.12697 20.1864 4.17183 20.1926 4.21844C20.1969 4.26528 20.1906 4.3125 20.1742 4.35655C20.1578 4.4006 20.1317 4.44034 20.0979 4.47278C19.5233 5.05142 18.0583 6.81914 18.1657 8.00822L18.1972 8.33886C18.3361 9.83951 18.4372 10.9269 17.9762 11.6899C17.7262 12.0561 17.4116 12.3729 17.048 12.6246C16.8631 12.7456 16.6989 12.8959 16.5618 13.0697C16.8353 13.5374 17.1547 13.9762 17.5152 14.3796C17.5653 14.4403 17.5922 14.517 17.591 14.5958C17.5532 15.4924 17.591 17.9723 18.3677 18.729C19.2644 19.6319 21.2787 19.5111 21.3039 19.5047L21.285 19.5238Z" fill="var(--fill-0, #263238)"/>
<path id="Vector_11" d="M28.9382 1.35703C27.752 1.08838 26.5419 0.941376 25.3263 0.918276C25.3263 0.918276 24.6001 -0.0991111 21.5376 0.485889C18.4751 1.07089 17.1995 2.52066 19.8011 4.2693C19.8011 4.2693 24.7138 4.56181 25.2947 5.72545C25.8756 6.88909 23.9939 7.76022 24.5685 9.21637C25.1432 10.6725 26.305 10.965 26.305 11.4038C26.305 11.8425 27.8963 9.80137 28.6161 10.6725C28.9991 11.2499 29.2154 11.9229 29.241 12.6167C29.2667 13.3104 29.1006 13.9978 28.7614 14.6022C28.0415 15.9121 27.3153 15.7658 27.3153 15.7658C27.8595 16.0439 28.4468 16.2266 29.0518 16.3063V16.2173C30.21 15.7467 31.2576 15.0375 32.1276 14.1352C32.9975 13.2328 33.6705 12.1574 34.1034 10.9777C35.8778 5.8717 30.8199 1.79578 28.9382 1.35703Z" fill="var(--fill-0, #263238)"/>
<path id="Vector_12" d="M29.0834 16.6179H29.0329C28.3907 16.5327 27.7674 16.3392 27.189 16.0456C27.1248 16.0072 27.0758 15.9475 27.0505 15.8768C27.0252 15.806 27.025 15.7286 27.0501 15.6577C27.077 15.5867 27.1277 15.5275 27.1935 15.4903C27.2592 15.4531 27.3359 15.4403 27.4101 15.4542C27.4732 15.4542 27.972 15.4543 28.5088 14.4496C28.8131 13.8997 28.9638 13.2771 28.9449 12.6479C28.926 12.0186 28.7382 11.4063 28.4014 10.876C28.1489 10.5708 27.5553 11.0032 27.0186 11.4228C26.6523 11.709 26.4503 11.8616 26.2166 11.7471C26.1587 11.7097 26.1103 11.6591 26.0752 11.5995C26.0401 11.5399 26.0194 11.4729 26.0146 11.4038C25.9151 11.2954 25.8051 11.1974 25.6862 11.1113C25.0751 10.656 24.5974 10.0431 24.3033 9.33718C24.1845 8.96566 24.1605 8.57002 24.2333 8.18667C24.3061 7.80332 24.4735 7.44458 24.7201 7.14344C25.0421 6.60295 25.2252 6.25322 25.0358 5.8717C24.6948 5.18496 21.7712 4.70806 19.8074 4.59996C19.7522 4.59275 19.6987 4.57551 19.6495 4.54908C18.494 3.77332 17.9888 2.9912 18.1404 2.2218C18.3298 1.28707 19.5233 0.562191 21.4997 0.187028C24.1013 -0.315308 25.1305 0.320556 25.4589 0.619415C26.651 0.650442 27.8373 0.797376 29.0013 1.05817C30.1569 1.33159 32.4932 2.8704 33.8509 5.33121C34.3501 6.18716 34.6604 7.14135 34.7606 8.12888C34.8609 9.1164 34.7487 10.1141 34.4318 11.054C34.0028 12.251 33.3326 13.3457 32.4632 14.2693C31.5939 15.1929 30.5442 15.9254 29.3802 16.4208C29.3625 16.4651 29.3343 16.5044 29.2981 16.5352C29.2387 16.5879 29.1625 16.6173 29.0834 16.6179ZM28.2309 15.7849C28.4204 15.8421 28.6414 15.8993 28.894 15.9502L28.9761 15.9057C30.0892 15.4491 31.0964 14.7654 31.9343 13.8975C32.7722 13.0297 33.4226 11.9966 33.8445 10.8633C34.1377 10.004 34.2416 9.09082 34.1489 8.18709C34.0562 7.28336 33.7692 6.41081 33.3078 5.63007C32.0954 3.43632 29.9485 1.92294 28.8876 1.6686C27.7243 1.40585 26.5373 1.26312 25.3452 1.24257C25.2947 1.24233 25.2449 1.2301 25.1999 1.20691C25.155 1.18371 25.1161 1.15018 25.0863 1.10903C25.0863 1.10903 24.3791 0.276045 21.6449 0.797458C19.9842 1.11539 18.9171 1.69404 18.7845 2.33627C18.6897 2.80046 19.1065 3.37273 19.959 3.95773C20.9756 4.02132 25.0106 4.35833 25.642 5.58555C26.0019 6.30409 25.642 6.92724 25.301 7.49316C24.96 8.05909 24.6696 8.51691 24.9348 9.12099C25.1867 9.72641 25.5997 10.2501 26.1282 10.6344C26.2837 10.7515 26.4257 10.8858 26.5513 11.035L26.6713 10.9396C27.2332 10.5008 28.2688 9.66783 28.9319 10.4881C29.3566 11.1154 29.5983 11.8501 29.6296 12.6087C29.6608 13.3674 29.4804 14.1196 29.1087 14.7802C28.8902 15.174 28.591 15.5165 28.2309 15.7849Z" fill="var(--fill-0, #263238)"/>
<path id="Vector_13" d="M22.7247 19.1423C22.6485 19.1417 22.5749 19.114 22.5171 19.0639C22.4593 19.0138 22.4209 18.9447 22.409 18.8689C22.4028 18.8274 22.405 18.7851 22.4154 18.7445C22.4258 18.704 22.4442 18.6659 22.4695 18.6327C22.4949 18.5994 22.5266 18.5717 22.5629 18.5511C22.5991 18.5305 22.6392 18.5174 22.6805 18.5128C24.5433 18.2393 26.3492 15.6132 26.3682 15.5878C26.3968 15.5451 26.4354 15.51 26.4805 15.4857C26.5256 15.4613 26.5759 15.4483 26.6271 15.4479H27.3469C27.4307 15.4479 27.511 15.4814 27.5702 15.541C27.6294 15.6006 27.6626 15.6815 27.6626 15.7658C27.6626 15.8502 27.6294 15.931 27.5702 15.9906C27.511 16.0503 27.4307 16.0838 27.3469 16.0838H26.7912C26.3682 16.6688 24.6569 18.8689 22.7689 19.1423H22.7247Z" fill="var(--fill-0, #263238)"/>
<path id="Vector_14" d="M32.6953 29.011L38.9151 41.0925C39.5527 41.8325 40.3596 42.4051 41.2661 42.7607C42.1726 43.1163 43.1515 43.2443 44.1182 43.1336C47.5849 42.8411 46.985 39.6109 45.8484 37.4553C42.2365 30.6134 39.9254 23.4662 37.1786 21.4441C34.4318 19.4221 32.127 21.5904 31.3945 22.3153" fill="var(--fill-0, white)"/>
<path id="Vector_15" d="M43.512 43.477C42.5919 43.4959 41.679 43.3089 40.8393 42.9296C39.9996 42.5502 39.254 41.9879 38.6562 41.2833L32.4175 29.1636C32.3792 29.0883 32.3717 29.001 32.3965 28.9203C32.4213 28.8395 32.4764 28.7717 32.5501 28.7312C32.6251 28.6943 32.7112 28.6876 32.791 28.7124C32.8708 28.7372 32.9382 28.7917 32.9795 28.8647L39.1929 40.9463C39.8001 41.63 40.5617 42.1567 41.4133 42.4821C42.265 42.8074 43.1819 42.9218 44.0867 42.8157C44.4956 42.829 44.901 42.7359 45.2638 42.5454C45.6265 42.355 45.9345 42.0736 46.1578 41.7284C46.7514 40.6347 46.2462 38.8797 45.5706 37.608C44.3077 35.2552 43.2216 32.8262 42.2428 30.6833C40.3485 26.5565 38.732 22.9957 36.9892 21.6985C35.2464 20.4013 33.4467 20.7002 31.6218 22.5442C31.5618 22.6029 31.4814 22.6357 31.3977 22.6357C31.314 22.6357 31.2336 22.6029 31.1735 22.5442C31.1439 22.5146 31.1204 22.4795 31.1044 22.4407C31.0884 22.402 31.0801 22.3604 31.0801 22.3185C31.0801 22.2765 31.0884 22.2349 31.1044 22.1962C31.1204 22.1574 31.1439 22.1223 31.1735 22.0927C33.7688 19.4793 35.9725 20.1851 37.3617 21.1898C39.2561 22.576 40.8978 26.2132 42.8174 30.4163C43.8404 32.6609 44.8949 34.9755 46.1262 37.3091C46.4925 37.9958 47.6101 40.374 46.7135 42.0336C46.4418 42.472 46.0627 42.8327 45.6126 43.081C45.1626 43.3293 44.6566 43.4569 44.1435 43.4516C43.9288 43.4707 43.7141 43.477 43.512 43.477Z" fill="var(--fill-0, #263238)"/>
<path id="Vector_16" d="M27.9279 43.7059C27.8695 43.7059 27.8122 43.6899 27.7622 43.6597C27.7121 43.6295 27.6712 43.5861 27.6437 43.5342C27.6058 43.4579 23.855 36.0373 19.8516 29.2844C15.8482 22.5315 4.81681 9.37533 4.70315 9.22272C4.64872 9.15864 4.6218 9.07541 4.62831 8.99133C4.63482 8.90726 4.67423 8.82925 4.73787 8.77444C4.80151 8.71963 4.88416 8.69251 4.96765 8.69907C5.05114 8.70563 5.12862 8.74533 5.18304 8.80941C5.2967 8.94294 16.3787 22.1627 20.3947 28.941C24.4107 35.7194 28.1804 43.1718 28.1804 43.2417C28.2001 43.2784 28.2122 43.3186 28.2162 43.36C28.2201 43.4014 28.2158 43.4432 28.2034 43.4829C28.191 43.5226 28.1709 43.5595 28.1442 43.5912C28.1175 43.623 28.0847 43.649 28.0478 43.6678C28.0106 43.688 27.9699 43.701 27.9279 43.7059Z" fill="var(--fill-0, #263238)"/>
<path id="Vector_17" d="M44.5476 40.0751C44.1858 39.4753 43.7034 38.9584 43.1314 38.5576C42.5594 38.1568 41.9104 37.881 41.2262 37.7478C39.054 37.4553 27.3343 35.2743 26.6271 35.128C25.9199 34.9818 24.4549 32.6545 23.8803 31.777C23.3056 30.8995 20.843 31.0521 20.1231 31.0521C19.4033 31.0521 19.397 32.5083 19.397 32.5083C19.5859 33.3188 19.8789 34.1011 20.2684 34.8355C20.5763 35.2175 20.9733 35.5167 21.4239 35.7067H22.1438C22.1438 35.7067 23.0089 37.6143 24.0381 37.8941C24.7953 38.0704 25.5761 38.1198 26.3492 38.0403C26.3492 38.0403 37.9111 43.4262 41.6682 43.4262C44.4024 43.4262 45.5643 43.1336 44.5476 40.0751Z" fill="var(--fill-0, #FFBE9D)"/>
<path id="Vector_18" d="M41.6556 43.7441C37.9932 43.7441 27.3848 38.8733 26.2798 38.3646C25.4951 38.4362 24.7042 38.3804 23.9371 38.1993C22.9836 37.9259 22.2132 36.5524 21.948 36.0246H21.4239C21.3842 36.0313 21.3437 36.0313 21.3039 36.0246C20.8106 35.8058 20.3772 35.4698 20.041 35.0454C19.6217 34.279 19.3113 33.457 19.1191 32.6036C19.1161 32.5783 19.1161 32.5527 19.1191 32.5273C19.1191 32.3429 19.1507 30.7533 20.161 30.7533H20.4326C22.0617 30.7533 23.6403 30.8169 24.1771 31.6308L24.3917 31.9487C24.8401 32.6354 26.2103 34.7338 26.7281 34.8419C27.5616 35.0072 39.2119 37.1756 41.302 37.4553C42.0362 37.5932 42.7332 37.886 43.347 38.3145C43.9608 38.743 44.4776 39.2975 44.8634 39.9416V39.9988C45.3369 41.4422 45.3622 42.3388 44.9391 42.9302C44.3771 43.6805 43.1205 43.7441 41.6556 43.7441ZM26.3366 37.7224C26.3803 37.7133 26.4255 37.7133 26.4692 37.7224C26.5829 37.7796 38.0121 43.0828 41.624 43.0828C43.1142 43.0828 44.0425 42.9874 44.3834 42.5041C44.7244 42.0209 44.6108 41.3596 44.2319 40.1832C43.8913 39.6326 43.4421 39.1583 42.912 38.7897C42.382 38.4211 41.7824 38.166 41.1504 38.0403C38.9782 37.7478 27.3659 35.5795 26.5324 35.4142C25.9009 35.2807 25.0358 34.1425 23.7919 32.2349L23.5835 31.9169C23.1604 31.281 21.1398 31.3192 20.3757 31.3256H20.0916C19.8137 31.3256 19.6875 32.0314 19.6811 32.4256C19.8538 33.1833 20.1256 33.9146 20.4894 34.6003C20.7506 34.9195 21.0812 35.174 21.4555 35.3442H22.087C22.1476 35.345 22.2068 35.3626 22.258 35.3952C22.3093 35.4277 22.3506 35.4739 22.3774 35.5287C22.5984 36.0183 23.3372 37.3409 24.0508 37.5444C24.7716 37.7056 25.5133 37.7506 26.2482 37.6779L26.3366 37.7224Z" fill="var(--fill-0, #263238)"/>
<path id="Vector_19" d="M33.4215 44.5898C33.4215 44.5898 28.2183 46.7708 25.181 46.9171C22.1438 47.0633 19.8327 46.3384 16.2208 44.8823C12.6089 43.4262 8.27082 42.1163 5.08831 44.2973C1.90581 46.4783 8.55498 71.9513 8.84545 73.5473C9.13591 75.1433 6.67958 76.4596 3.93277 77.477C1.18596 78.4944 -0.695764 79.3846 0.895489 80.3893C2.48674 81.3939 8.70021 80.6818 10.5819 80.6818C12.4637 80.6818 13.474 79.5181 13.474 77.9157C13.474 76.3133 12.4573 72.8288 12.4573 71.5125C12.4573 70.1963 12.7478 54.7701 12.7478 54.7701C12.7478 54.7701 18.9676 58.1211 24.7453 58.4072C30.5231 58.6934 34.4318 58.5535 36.5976 54.9163C38.7635 51.2791 37.8984 44.736 33.4215 44.5898Z" fill="var(--fill-0, #FFBE9D)"/>
<path id="Vector_20" d="M4.59579 81.2604C2.93508 81.2604 1.43855 81.1269 0.725009 80.6627C0.200906 80.332 -0.0390446 79.9568 0.00515685 79.5562C0.0935598 78.7233 1.41328 78.081 3.82542 77.1845C7.15316 75.9509 8.7381 74.7491 8.53604 73.6109C8.49815 73.401 8.33398 72.7143 8.10666 71.7605C3.93277 54.2169 2.91613 45.4037 4.91151 44.0366C8.18874 41.7856 12.5268 43.051 16.3344 44.5834C20.0032 46.0586 22.2574 46.739 25.1747 46.5991C28.092 46.4592 33.251 44.3164 33.3015 44.2973C33.3452 44.2882 33.3904 44.2882 33.4341 44.2973C34.2189 44.3129 34.9842 44.5461 35.646 44.9712C36.3077 45.3964 36.8402 45.9971 37.1849 46.7072C38.4478 49.0663 38.3278 52.6781 36.8755 55.1134C34.5896 58.9287 30.4094 59.0495 24.739 58.757C19.8516 58.5153 14.6358 56.0863 13.0635 55.3169C13.013 57.9939 12.7794 70.387 12.7794 71.5443C12.8625 72.502 13.0166 73.4521 13.2403 74.3866C13.5244 75.5558 13.7103 76.747 13.796 77.9475C13.796 79.8233 12.5331 81.0315 10.5882 81.0315C10.1462 81.0315 9.43269 81.076 8.61181 81.1205C7.34259 81.1714 5.92815 81.2604 4.59579 81.2604ZM9.14223 43.4516C7.76799 43.413 6.41498 43.7992 5.26513 44.558C4.09695 45.3656 3.74333 50.7132 8.71915 71.6142C8.9591 72.6126 9.11697 73.2739 9.15486 73.5218C9.5211 75.5312 6.40806 76.9301 4.04012 77.8076C3.04243 78.1828 0.693431 79.0476 0.630286 79.6516C0.630286 79.7852 0.769206 79.9632 1.06599 80.154C2.18365 80.8725 6.18073 80.6309 8.56761 80.491C9.40113 80.4401 10.121 80.3956 10.5819 80.3956C12.1921 80.3956 13.1583 79.4799 13.1583 77.9475C13.0702 76.7904 12.8907 75.6422 12.6215 74.5138C12.3823 73.5386 12.2218 72.5456 12.1416 71.5443C12.1416 70.2726 12.4321 54.9545 12.4321 54.7955C12.4346 54.7414 12.4504 54.6887 12.4779 54.6421C12.5054 54.5956 12.5439 54.5565 12.5899 54.5284C12.6377 54.5034 12.6908 54.4903 12.7446 54.4903C12.7985 54.4903 12.8516 54.5034 12.8994 54.5284C12.9625 54.5602 19.1191 57.8477 24.7643 58.1338C30.4095 58.42 34.236 58.3309 36.3261 54.7891C36.9913 53.613 37.3655 52.293 37.4172 50.9405C37.4688 49.588 37.1964 48.2429 36.6229 47.0188C36.3297 46.4194 35.882 45.9102 35.3266 45.5444C34.7713 45.1787 34.1286 44.9698 33.4657 44.9395C32.8342 45.2066 28.092 47.1269 25.1811 47.2668C22.1564 47.4194 19.839 46.7199 16.0882 45.2066C13.8402 44.2655 11.3965 43.4516 9.14223 43.4516Z" fill="var(--fill-0, #263238)"/>
<path id="Vector_21" d="M10.102 74.9716C9.59031 74.7884 9.04189 74.7338 8.50446 74.8127C7.75303 75.8555 5.92184 76.7203 3.93277 77.4833C1.18596 78.5007 -0.695764 79.3909 0.895489 80.3956C2.48674 81.4003 8.70021 80.6881 10.5819 80.6881C12.4637 80.6881 13.474 79.5245 13.474 77.9221C13.4484 77.2657 13.3682 76.6127 13.234 75.97C12.3058 76.1289 11.3397 76.2116 11.3397 76.2116C11.0553 75.6861 10.6253 75.2553 10.102 74.9716Z" fill="var(--fill-0, #266464)"/>
<path id="Vector_22" d="M4.59579 81.2604C2.93508 81.2604 1.43855 81.1269 0.725009 80.6627C0.200906 80.332 -0.0390446 79.9568 0.00515685 79.5562C0.0935598 78.7233 1.41328 78.081 3.82542 77.1845C6.23756 76.2879 7.61412 75.4613 8.24557 74.641C8.2735 74.604 8.30862 74.573 8.34878 74.5501C8.38894 74.5271 8.43332 74.5126 8.47921 74.5075C9.07509 74.4189 9.68354 74.4846 10.2473 74.6982C10.7619 74.9799 11.1965 75.3892 11.5102 75.8873C11.8385 75.8555 12.5205 75.7855 13.1772 75.6647C13.2183 75.6574 13.2604 75.6584 13.301 75.6676C13.3417 75.6768 13.3802 75.694 13.4143 75.7182C13.4483 75.7425 13.4773 75.7732 13.4994 75.8088C13.5216 75.8444 13.5366 75.884 13.5434 75.9254C13.681 76.5871 13.7634 77.2593 13.7897 77.9348C13.7897 79.8106 12.5268 81.0188 10.5819 81.0188C10.1399 81.0188 9.42638 81.0633 8.6055 81.1078C7.3426 81.1714 5.92815 81.2604 4.59579 81.2604ZM8.66865 75.1179C7.94248 76.0272 6.427 76.8983 4.04012 77.7822C3.04243 78.1573 0.693431 79.0221 0.630286 79.6262C0.630286 79.7597 0.769206 79.9378 1.06599 80.1285C2.18365 80.8471 6.18073 80.6054 8.56761 80.4656C9.40113 80.4147 10.121 80.3702 10.5819 80.3702C12.1921 80.3702 13.1583 79.4545 13.1583 77.9221C13.1413 77.388 13.0801 76.8562 12.9751 76.3324C12.1542 76.4596 11.3965 76.5232 11.3649 76.5295C11.3024 76.5344 11.2397 76.5207 11.1848 76.4902C11.1298 76.4597 11.0849 76.4137 11.0555 76.3578C10.804 75.893 10.4247 75.5111 9.96311 75.2578C9.54866 75.1088 9.10505 75.0609 8.66865 75.1179Z" fill="var(--fill-0, #263238)"/>
<path id="Vector_23" d="M35.7578 44.2973C35.7578 44.2973 35.3474 44.4944 34.7033 44.8251C34.2969 44.6817 33.8709 44.6023 33.4404 44.5898C33.4404 44.5898 28.2373 46.7708 25.2 46.9171C22.1627 47.0633 19.8516 46.3384 16.2397 44.8823C13.0825 43.6105 9.33798 42.4406 6.32596 43.6487L6.69852 43.8585C6.69852 43.8585 13.0572 43.4262 12.7667 54.7764C12.7667 54.7764 18.9865 58.1274 24.7643 58.4136C25.5283 58.4581 26.2482 58.4835 26.9491 58.5026V58.5344C26.9491 58.5344 32.8784 59.0177 35.4421 59.0177C38.0058 59.0177 40.0833 58.8587 40.5632 52.2393C41.0431 45.6199 35.7578 44.2973 35.7578 44.2973Z" fill="var(--fill-0, #263238)"/>
<path id="Vector_24" d="M35.4358 59.3356C32.91 59.3356 26.9744 58.8523 26.9175 58.8523C26.8757 58.8465 26.8352 58.8336 26.7976 58.8142C26.1345 58.8142 25.4463 58.7697 24.7327 58.7315C18.9423 58.4454 12.6657 55.0944 12.6026 55.0562C12.5506 55.0291 12.5072 54.988 12.477 54.9375C12.4469 54.887 12.4314 54.829 12.4321 54.7701C12.5457 50.4017 11.6933 47.2986 9.90628 45.5627C9.05696 44.7079 7.91171 44.2179 6.71115 44.1956C6.64966 44.2026 6.58758 44.1892 6.53434 44.1574L6.16179 43.9412C6.11118 43.9103 6.06978 43.8663 6.042 43.8137C6.01421 43.7611 6.00106 43.7019 6.00393 43.6424C6.00854 43.5831 6.02923 43.5262 6.06375 43.478C6.09827 43.4298 6.14529 43.3921 6.19968 43.3689C9.35692 42.0972 13.0888 43.2926 16.3471 44.6025C20.0158 46.0777 22.2701 46.7581 25.1874 46.6182C28.1047 46.4783 33.2636 44.3355 33.3141 44.3164C33.3579 44.3073 33.403 44.3073 33.4467 44.3164C33.8628 44.3279 34.2752 44.3985 34.6717 44.5262L35.6126 44.0557C35.6825 44.0337 35.7574 44.0337 35.8273 44.0557C35.8841 44.0557 41.3904 45.5309 40.8789 52.322C40.399 58.8206 38.3215 59.3356 35.4358 59.3356ZM27.088 58.2228C27.9342 58.2928 33.1121 58.6997 35.4358 58.6997C37.7595 58.6997 39.7738 58.6997 40.2474 52.2202C40.6705 46.3957 36.5093 44.8632 35.7642 44.6343L34.8233 45.1112C34.7833 45.1284 34.7404 45.1372 34.697 45.1372C34.6536 45.1372 34.6106 45.1284 34.5707 45.1112C34.2185 44.9875 33.8508 44.9147 33.4783 44.895C32.8469 45.1621 28.1047 47.0824 25.1937 47.2223C22.169 47.3749 19.8516 46.6754 16.1008 45.1621C13.3414 44.0493 10.222 43.0383 7.5194 43.5978C8.57884 43.8018 9.55448 44.3173 10.323 45.0794C12.2174 46.9171 13.1519 50.1092 13.0699 54.573C14.1054 55.1071 19.6495 57.8286 24.7643 58.0893C25.522 58.1211 26.2419 58.1529 26.9365 58.172C26.9903 58.1764 27.0423 58.1938 27.088 58.2228Z" fill="var(--fill-0, #263238)"/>
<path id="Vector_25" d="M39.1992 49.0981C39.1992 49.0981 38.6246 44.5898 35.7326 44.2973C32.8405 44.0048 30.9651 46.0459 29.9485 50.1219C28.9319 54.1978 28.5025 68.1678 27.3469 71.3726C26.1914 74.5774 24.7453 77.7758 23.4446 78.5007C22.1438 79.2256 18.6771 81.1269 18.6771 82.3159C18.6771 83.505 23.5898 83.4796 26.4818 83.6258C29.3739 83.7721 30.239 83.3333 30.5294 81.7182C30.8199 80.1031 30.239 77.3498 30.9651 75.6075C31.6913 73.8652 37.0334 60.9062 38.4794 56.684C39.3495 54.2567 39.5971 51.6474 39.1992 49.0981Z" fill="var(--fill-0, #FFBE9D)"/>
<path id="Vector_26" d="M27.4606 83.9438C27.1512 83.9438 26.8291 83.9438 26.4629 83.9438C26.0967 83.9438 25.6041 83.9056 25.1305 83.8866C21.0387 83.7212 18.3614 83.5241 18.3614 82.316C18.3614 81.1078 20.6599 79.7216 23.1415 78.3354L23.293 78.2527C24.297 77.6868 25.6357 75.2133 27.0501 71.29C27.6816 69.6113 28.0731 64.7914 28.4709 60.1305C28.8308 55.9401 29.1655 51.985 29.6454 50.071C30.7189 45.7471 32.8027 43.7123 35.7642 44.0048C38.7256 44.2973 39.4708 48.742 39.515 49.0918C39.9196 51.6886 39.6655 54.3463 38.7762 56.8176C37.3175 61.0906 31.8681 74.2722 31.2556 75.7601C30.8451 76.7521 30.8767 78.1129 30.9146 79.4291C30.9656 80.2224 30.9402 81.0188 30.8388 81.8072C30.5231 83.4987 29.4749 83.9438 27.4606 83.9438ZM35.2022 44.5898C32.809 44.5898 31.1925 46.4275 30.2579 50.1982C29.7906 52.0676 29.4433 56.1817 29.1023 60.1559C28.6982 64.8613 28.2815 69.6939 27.6437 71.4807C26.1345 75.6711 24.7706 78.1256 23.6024 78.7805L23.4509 78.8632C20.4894 80.5164 18.9929 81.6674 18.9929 82.2905C18.9929 82.9137 23.312 83.1489 25.1558 83.2252C25.6294 83.2252 26.084 83.257 26.4945 83.2825C29.3802 83.4224 29.9801 82.9772 30.22 81.6483C30.3113 80.9016 30.3325 80.148 30.2832 79.3973C30.2453 78.081 30.2074 76.5868 30.6683 75.4676C31.2998 73.986 36.7239 60.8426 38.1826 56.5696C39.036 54.2025 39.2878 51.6581 38.9151 49.1681C38.9151 49.1236 38.3341 44.9014 35.7578 44.6407C35.5738 44.6121 35.3882 44.5951 35.2022 44.5898Z" fill="var(--fill-0, #263238)"/>
<path id="Vector_27" d="M30.5294 81.7119C30.6301 80.6551 30.647 79.592 30.5799 78.5325C29.9773 78.4879 29.3795 78.3922 28.7929 78.2464C28.5671 77.4703 28.2265 76.7329 27.7826 76.059C26.9175 74.6028 24.8906 77.3689 24.8906 77.3689H24.5875C24.2946 77.8354 23.9046 78.2325 23.4446 78.5325C22.1438 79.2638 18.6771 81.1586 18.6771 82.3477C18.6771 83.5368 23.5898 83.5114 26.4818 83.6576C29.3739 83.8039 30.239 83.3079 30.5294 81.7119Z" fill="var(--fill-0, #266464)"/>
<path id="Vector_28" d="M27.4606 83.9438C27.1512 83.9438 26.8291 83.9438 26.4629 83.9438C26.0966 83.9438 25.6041 83.9056 25.1305 83.8866C21.0387 83.7212 18.3614 83.5241 18.3614 82.316C18.3614 81.1078 20.6599 79.7216 23.1415 78.3354L23.293 78.2527C23.7111 77.9687 24.0642 77.598 24.3286 77.1654C24.359 77.12 24.4006 77.0832 24.4492 77.0587C24.4979 77.0342 24.5521 77.0227 24.6064 77.0255H24.7453C25.099 76.5613 26.1914 75.2642 27.1701 75.3023C27.3546 75.3134 27.5331 75.3726 27.6881 75.474C27.843 75.5754 27.9692 75.7157 28.0541 75.8809C28.4626 76.5344 28.7972 77.2319 29.0518 77.9602C29.563 78.0795 30.0822 78.1602 30.6052 78.2019C30.6839 78.2067 30.7578 78.2417 30.8118 78.2996C30.8658 78.3575 30.8958 78.434 30.8957 78.5134V79.3782C30.9468 80.1779 30.9214 80.9807 30.8199 81.7755C30.5231 83.4987 29.4749 83.9438 27.4606 83.9438ZM24.7453 77.6487C24.4473 78.1024 24.0579 78.488 23.6024 78.7805L23.4509 78.8632C20.4894 80.5164 18.9929 81.6674 18.9929 82.2905C18.9929 82.9137 23.312 83.1489 25.1558 83.2252C25.6294 83.2252 26.084 83.257 26.4945 83.2825C29.3802 83.4224 29.9801 82.9772 30.22 81.6483C30.3112 80.8974 30.3323 80.1395 30.2832 79.3846C30.2832 79.1875 30.2832 78.9904 30.2832 78.7932C29.7575 78.7394 29.2363 78.648 28.7235 78.5198C28.6674 78.504 28.6167 78.4732 28.5767 78.4306C28.5367 78.3881 28.5088 78.3354 28.4962 78.2782C28.2762 77.5384 27.9485 76.8355 27.5237 76.1925C27.4906 76.1188 27.4387 76.0553 27.3732 76.0084C27.3078 75.9615 27.2312 75.9329 27.1512 75.9255C26.5765 75.9255 25.642 76.9047 25.181 77.5279C25.1515 77.5719 25.1107 77.607 25.0628 77.6294C25.015 77.6518 24.962 77.6607 24.9095 77.655L24.7453 77.6487Z" fill="var(--fill-0, #263238)"/>
<path id="Vector_29" d="M16.8143 42.9874C16.8143 42.9874 19.2707 44.5898 19.7064 46.0459C19.9821 47.0834 20.1284 48.1514 20.1421 49.2253C20.1421 49.2253 19.4159 50.249 19.2707 49.664C19.1255 49.079 18.8413 48.2079 18.8413 48.2079C18.8413 48.2079 19.2707 51.8451 18.9865 52.5763C18.8823 52.789 18.7241 52.9702 18.5281 53.1017C18.332 53.2332 18.105 53.3102 17.8699 53.325C17.6348 53.3399 17.4 53.292 17.1891 53.1862C16.9783 53.0804 16.7989 52.9205 16.6691 52.7226C15.804 51.6988 13.9223 48.0616 13.7771 46.4592C13.6318 44.8569 13.6381 42.6758 14.0675 42.5296" fill="var(--fill-0, #FFBE9D)"/>
<path id="Vector_30" d="M17.8183 53.6573C17.5466 53.6473 17.2802 53.5785 17.0373 53.4556C16.7943 53.3327 16.5804 53.1586 16.4102 52.9451C15.5577 51.9404 13.6066 48.2524 13.4487 46.5101C13.3098 45.0285 13.2025 42.4978 13.9476 42.2498C13.9873 42.2359 14.0295 42.2302 14.0715 42.2329C14.1135 42.2357 14.1545 42.2469 14.1922 42.2658C14.2298 42.2848 14.2633 42.3111 14.2907 42.3433C14.3181 42.3755 14.3389 42.4129 14.3517 42.4533C14.3759 42.5334 14.3684 42.6198 14.3307 42.6945C14.293 42.7692 14.2282 42.8263 14.1496 42.8539C14.0044 43.0446 13.9097 44.5898 14.0739 46.4529C14.2128 47.998 16.0945 51.5971 16.8901 52.5318C17.0128 52.6996 17.1772 52.832 17.3667 52.9157C17.5562 52.9994 17.7642 53.0314 17.9699 53.0087C18.1224 52.9877 18.267 52.9276 18.3898 52.8341C18.5126 52.7405 18.6093 52.6167 18.6708 52.4746C18.8602 52.004 18.6708 49.6386 18.5066 48.2651C18.4984 48.1866 18.5188 48.1078 18.5642 48.0434C18.6095 47.979 18.6766 47.9335 18.7529 47.9154C18.8289 47.8988 18.9083 47.9111 18.9759 47.9498C19.0434 47.9885 19.0945 48.051 19.1191 48.1252C19.1191 48.157 19.3717 48.8819 19.5233 49.4542C19.625 49.3589 19.718 49.2546 19.8011 49.1426C19.7835 48.1268 19.6435 47.1168 19.3843 46.1349C19.056 45.0349 17.2816 43.6805 16.6249 43.2545C16.5877 43.2331 16.5552 43.2043 16.5293 43.1698C16.5035 43.1353 16.4849 43.096 16.4747 43.054C16.4645 43.0121 16.4629 42.9685 16.4699 42.9259C16.477 42.8834 16.4926 42.8427 16.5158 42.8064C16.5389 42.7701 16.5692 42.7389 16.6048 42.7147C16.6403 42.6906 16.6803 42.674 16.7225 42.6659C16.7646 42.6579 16.8079 42.6586 16.8497 42.6679C16.8916 42.6773 16.9311 42.6951 16.9659 42.7203C17.0732 42.7903 19.5296 44.4054 19.9905 45.9506C20.2765 47.0252 20.4271 48.1318 20.4389 49.2444C20.4384 49.3111 20.4162 49.3759 20.3757 49.4288C20.1105 49.8103 19.7127 50.249 19.3338 50.1727C19.4454 51.0186 19.4241 51.877 19.2707 52.7162C19.1676 52.9586 19.0052 53.1709 18.7988 53.3332C18.5923 53.4955 18.3484 53.6026 18.0899 53.6446L17.8183 53.6573Z" fill="var(--fill-0, #263238)"/>
<path id="Vector_31" d="M6.8248 9.76322C6.8248 9.76322 5.23356 10.6344 5.23356 11.2194C5.23356 11.8044 7.25419 14.564 7.83513 14.7103C8.41606 14.8565 9.72948 14.4241 10.001 12.8027C10.2725 11.1812 7.98036 9.89039 7.98036 9.89039C7.92206 9.79364 7.84244 9.7117 7.74765 9.65091C7.65286 9.59011 7.54545 9.55211 7.43374 9.53981C7.32202 9.52752 7.20899 9.54126 7.10339 9.58C6.9978 9.61874 6.90248 9.68144 6.8248 9.76322Z" fill="var(--fill-0, white)"/>
<path id="Vector_32" d="M8.06876 15.06C7.96443 15.0607 7.86045 15.0479 7.75936 15.0219C7.06476 14.8502 4.91783 11.9697 4.91783 11.2066C4.91783 10.4436 6.11127 9.78229 6.648 9.48344C6.76828 9.37886 6.90943 9.30148 7.06193 9.25651C7.21443 9.21154 7.37474 9.20001 7.53203 9.22273C7.79957 9.28099 8.03724 9.43452 8.20137 9.65511C8.59918 9.89674 10.6135 11.2003 10.3104 12.8663C10.2591 13.2338 10.1313 13.5864 9.93545 13.9008C9.73959 14.2153 9.48006 14.4846 9.1738 14.6912C8.84711 14.9161 8.46417 15.0439 8.06876 15.06ZM7.3426 9.8586C7.21327 9.86942 7.09114 9.92308 6.9953 10.0112L6.9511 10.043C6.21862 10.4436 5.52402 11.0159 5.52402 11.2194C5.55559 11.7217 7.41837 14.2525 7.88564 14.3987C8.21134 14.439 8.54024 14.3551 8.80756 14.1634C9.04022 14.0026 9.23684 13.7944 9.38475 13.5524C9.53266 13.3104 9.62857 13.0398 9.66633 12.7582C9.91259 11.3974 7.82249 10.2147 7.77198 10.1829C7.72664 10.1531 7.68794 10.1141 7.65832 10.0684C7.59172 9.96235 7.48809 9.88523 7.36785 9.85223L7.3426 9.8586Z" fill="var(--fill-0, white)"/>
</g>
</svg>
