<svg preserveAspectRatio="none" width="100%" height="100%" overflow="visible" style="display: block;" viewBox="0 0 63.3778 105.402" fill="none" xmlns="http://www.w3.org/2000/svg">
<g id="freepik--character-3--inject-2">
<path id="Vector" d="M9.15355 95.7726C7.91616 96.9278 6.49447 97.865 4.94809 98.545C2.35915 99.6832 -0.558135 100.821 0.578474 102.125C1.71508 103.428 9.15356 103.104 10.6059 102.945C12.0582 102.786 15.6259 103.759 17.5518 102.615C19.4778 101.47 18.8147 99.0346 18.1833 97.7311C17.5518 96.4275 9.76606 95.7726 9.76606 95.7726H9.15355Z" fill="var(--fill-0, black)"/>
<g id="Vector_2">
</g>
<path id="Vector_3" d="M37.6319 59.6043C37.6319 59.6043 20.3176 55.5284 15.2976 55.5284C10.2775 55.5284 5.91422 55.0388 4.9481 60.9079C3.98198 66.7769 7.85908 81.599 8.98937 85.02C9.61251 86.8268 10.1001 88.6782 10.448 90.5585C10.448 90.5585 8.18112 91.5377 8.50316 92.5169C8.78135 93.5877 8.99226 94.6751 9.13461 95.7726C9.13461 95.7726 18.6821 99.8485 18.84 98.7039C18.9979 97.5594 17.8676 91.2134 17.8676 90.2342C17.8676 89.2549 17.5329 69.4667 17.5329 69.4667C17.5329 69.4667 24.8261 71.0055 32.4351 71.8194C40.0441 72.6333 42.9487 66.9359 42.3047 63.3496C41.6606 59.7633 37.6319 59.6043 37.6319 59.6043Z" fill="var(--fill-0, #263238)"/>
<path id="Vector_4" d="M18.4422 99.1936C16.5478 99.1936 10.8648 96.8408 9.02727 96.0524C8.97749 96.0305 8.934 95.9962 8.90088 95.9529C8.86775 95.9095 8.84607 95.8584 8.83782 95.8044C8.69116 94.7328 8.48029 93.671 8.20637 92.625C7.85908 91.5822 9.41244 90.7174 10.1007 90.3868C9.74956 88.6066 9.28126 86.852 8.6989 85.1345C7.55598 81.6881 3.64731 66.8723 4.63869 60.8633C5.58586 55.1405 9.58294 55.185 14.2304 55.2168H15.3039C20.2544 55.2168 36.6658 59.032 37.6824 59.2927C38.0866 59.2927 41.9889 59.687 42.6393 63.2987C42.7928 64.4181 42.6949 65.558 42.3528 66.6343C42.0108 67.7105 41.4333 68.6958 40.6629 69.5175C39.3179 70.9737 36.7984 72.6142 32.4225 72.1437C25.8807 71.4442 19.4904 70.1915 17.8991 69.8673C17.9496 72.7414 18.2275 89.3376 18.2275 90.2151C18.2275 90.5775 18.4169 91.8556 18.6127 93.21C18.9347 95.4546 19.3009 97.9981 19.1999 98.7294C19.1893 98.8073 19.1603 98.8814 19.1152 98.9456C19.0702 99.0098 19.0104 99.0622 18.941 99.0982C18.7863 99.1745 18.6139 99.2074 18.4422 99.1936ZM9.43771 95.5373C13.3338 97.1906 17.7918 98.7612 18.5558 98.5704C18.4587 96.8054 18.2605 95.0474 17.9623 93.3054C17.7476 91.8111 17.5708 90.6348 17.5708 90.2214C17.5708 89.2549 17.2424 69.6574 17.2361 69.4603C17.2346 69.4129 17.2441 69.3658 17.2638 69.3228C17.2836 69.2797 17.313 69.2419 17.3498 69.2123C17.3859 69.1813 17.4285 69.1589 17.4744 69.1468C17.5203 69.1347 17.5684 69.1332 17.615 69.1424C17.6907 69.1424 24.984 70.6875 32.4856 71.4951C36.5964 71.9338 38.9517 70.4205 40.1956 69.0661C40.8998 68.3174 41.4281 67.4191 41.7418 66.4374C42.0554 65.4558 42.1464 64.4158 42.0079 63.3941C41.4206 60.1067 37.7709 59.9159 37.6193 59.9095H37.5562C37.3857 59.8714 20.2229 55.8463 15.2976 55.8463H14.2241C9.69028 55.8145 6.11629 55.7891 5.25751 60.9651C4.29771 66.7706 8.20637 81.6436 9.29247 84.9246C9.92258 86.7493 10.4123 88.62 10.7574 90.5203C10.7682 90.5897 10.7554 90.6609 10.721 90.722C10.6866 90.7832 10.6327 90.8309 10.568 90.8573C9.76605 91.207 8.67365 91.9446 8.80626 92.4215C9.08416 93.4494 9.2951 94.4945 9.43771 95.55V95.5373Z" fill="var(--fill-0, #263238)"/>
<path id="Vector_5" d="M29.2526 23.6459C29.2526 23.6459 23.8916 27.2513 23.8916 29.2097V32.9741C23.8916 33.4701 20.8038 35.1043 21.29 36.5795L21.7762 38.0483C21.7762 38.0483 19.0168 39.8479 18.6885 41.1577C18.3601 42.4676 17.8739 44.4325 17.8739 44.4325C17.8739 44.4325 10.8901 49.0107 9.75345 52.9404C8.61684 56.8701 12.8412 59.1592 14.4641 59.1592C16.0869 59.1592 19.6609 53.4364 20.4755 52.8005C21.29 52.1646 22.2625 53.2901 23.7274 51.9866C24.6169 51.1268 25.1399 49.9526 25.1861 48.7119C25.6841 48.1911 26.2991 47.7985 26.9794 47.5673C27.8983 47.1135 28.6405 46.3638 29.0884 45.4371L31.2038 45.2718C31.2038 45.2718 34.942 56.7175 35.264 57.5505C35.5861 58.3834 37.5372 59.35 39.8168 59.35C42.0963 59.35 58.5014 62.1287 59.3159 61.1495C60.1305 60.1702 63.212 58.854 63.0541 56.8955C62.8963 54.937 61.425 54.6 60.7746 50.6767C60.1242 46.7534 58.1793 35.7846 57.2006 31.0411C56.4969 27.9751 55.1083 25.111 53.1403 22.6666C52.6034 21.533 51.8092 20.5424 50.822 19.7747C49.8348 19.007 48.6823 18.4839 47.4573 18.2474C43.5018 17.5974 39.444 18.2885 35.9207 20.2122C32.8266 21.8464 29.2526 23.6459 29.2526 23.6459Z" fill="var(--fill-0, #892E00)"/>
<path id="Vector_6" d="M57.9015 61.6773C55.925 61.6773 52.1427 61.2258 45.9797 60.4055C43.0814 60.0176 40.5808 59.6806 39.8168 59.6806C37.392 59.6806 35.3524 58.6441 34.9735 57.6776C34.6705 56.9146 31.5321 47.313 30.9765 45.5961L29.2905 45.7296C28.8057 46.6509 28.0398 47.391 27.1057 47.8407C26.5176 48.0688 25.9746 48.4004 25.5018 48.82C25.4303 50.11 24.8697 51.3232 23.9358 52.2091C23.6252 52.5073 23.2479 52.7259 22.8358 52.8466C22.4237 52.9672 21.9888 52.9863 21.5679 52.9023C21.1385 52.8577 20.9048 52.845 20.6775 53.0231C20.1941 53.5515 19.7469 54.1124 19.3388 54.7018C17.375 57.3152 15.6575 59.4771 14.4704 59.4771C13.2832 59.4771 11.3131 58.5361 10.2018 57.01C9.75352 56.4288 9.45162 55.747 9.32187 55.0229C9.19211 54.2987 9.23837 53.5536 9.45666 52.8514C10.5491 49.0743 16.6931 44.8458 17.6087 44.2354L18.3917 41.056C18.6885 39.8351 20.7154 38.3663 21.4037 37.8767L20.9932 36.6049C20.6017 35.4286 21.9278 34.3158 22.8876 33.5019C23.1415 33.3161 23.3744 33.1028 23.5822 32.866V29.1589C23.5822 27.0859 28.5201 23.7095 29.0821 23.3343H29.1137C29.1516 23.3343 32.7256 21.5157 35.7755 19.9006C39.3601 17.9357 43.4939 17.2329 47.5204 17.904C48.7904 18.143 49.9865 18.6804 51.0113 19.4726C52.0361 20.2649 52.8608 21.2895 53.4182 22.4632C55.4044 24.9298 56.8059 27.8199 57.5163 30.9139C58.4824 35.613 60.4399 46.6262 61.0966 50.5686C61.2968 52.0016 61.7914 53.3767 62.5489 54.6064C63.004 55.2599 63.2865 56.0192 63.3698 56.8129C63.5024 58.358 61.9617 59.4644 60.7241 60.3547C60.3038 60.6246 59.9142 60.9402 59.5622 61.2957C59.3791 61.5437 58.8234 61.6773 57.9015 61.6773ZM31.2038 44.9666C31.2697 44.9661 31.334 44.9868 31.3874 45.0257C31.4407 45.0646 31.4804 45.1196 31.5006 45.1828C31.5385 45.2972 35.2387 56.6284 35.5545 57.436C35.8197 58.0719 37.6067 59.0384 39.8168 59.0384C40.625 59.0384 43.0245 59.3563 46.0618 59.7696C50.6651 60.4055 58.3688 61.4165 59.0886 60.9333C59.4695 60.541 59.8931 60.1933 60.3515 59.8968C61.4565 59.102 62.8331 58.11 62.7384 56.9273C62.6579 56.2286 62.4038 55.5616 61.9996 54.9879C61.1988 53.6933 60.6761 52.2442 60.4652 50.7339C59.8337 46.7979 57.8573 35.7974 56.8912 31.111C56.19 28.1095 54.826 25.3057 52.9004 22.9083C52.8776 22.8825 52.8604 22.8522 52.8499 22.8193C52.3272 21.7375 51.5625 20.7927 50.6158 20.0589C49.6692 19.3252 48.5664 18.8226 47.3942 18.5907C43.5104 17.9419 39.5227 18.613 36.0596 20.4983C33.1171 22.0626 29.6883 23.7922 29.4105 23.932C27.9455 24.9176 24.2073 27.7473 24.2073 29.2161V32.9805C24.2073 33.2984 23.879 33.5718 23.2917 34.0678C22.5087 34.7037 21.3342 35.7147 21.5868 36.4841L22.073 37.953C22.0968 38.0197 22.0972 38.0927 22.0743 38.1597C22.0513 38.2268 22.0063 38.2839 21.9467 38.3218C21.2079 38.805 19.2378 40.2675 18.9979 41.2404L18.1833 44.5088C18.1625 44.586 18.1156 44.6534 18.0507 44.6995C17.9812 44.744 11.1489 49.2587 10.0565 53.0294C9.86111 53.6355 9.81649 54.2807 9.92659 54.9082C10.0367 55.5358 10.2981 56.1265 10.688 56.6284C11.6099 57.8424 12.9725 58.6383 14.4767 58.8413C15.4428 58.8413 17.6339 55.8972 18.84 54.3139C19.2739 53.6786 19.7597 53.0809 20.2923 52.5271C20.4869 52.3907 20.7079 52.2976 20.9408 52.2537C21.1738 52.2099 21.4134 52.2164 21.6436 52.2727C21.9802 52.3452 22.3294 52.3327 22.6599 52.2361C22.9905 52.1396 23.2922 51.9621 23.538 51.7195C24.3605 50.9222 24.8448 49.8353 24.8893 48.6864C24.8888 48.6225 24.9088 48.5601 24.9461 48.5084C24.984 48.4512 25.3629 47.9234 26.8405 47.2367C27.6899 46.8165 28.378 46.1258 28.798 45.2718C28.8203 45.2196 28.856 45.1744 28.9015 45.1409C28.9471 45.1073 29.0007 45.0867 29.0568 45.0811L31.1722 44.9221L31.2038 44.9666Z" fill="var(--fill-0, #263238)"/>
<path id="Vector_7" d="M27.2762 32.8787L31.2038 45.2528L25.3313 35.8101" fill="var(--fill-0, #892E00)"/>
<path id="Vector_8" d="M31.2038 45.5707C31.1495 45.5698 31.0963 45.5554 31.049 45.5288C31.0016 45.5022 30.9615 45.4641 30.9323 45.4181L25.0661 35.9818C25.0432 35.9466 25.0276 35.907 25.0203 35.8656C25.013 35.8242 25.0141 35.7817 25.0235 35.7407C25.0329 35.6997 25.0505 35.661 25.0752 35.627C25.0999 35.5931 25.1312 35.5645 25.1671 35.543C25.2019 35.521 25.2406 35.5061 25.2811 35.4993C25.3216 35.4925 25.363 35.4938 25.403 35.5033C25.443 35.5128 25.4806 35.5302 25.5139 35.5544C25.5471 35.5787 25.5752 35.6094 25.5965 35.6448L30.1366 42.9382L26.9794 32.9805C26.957 32.9014 26.9659 32.8166 27.0042 32.7439C27.0426 32.6713 27.1074 32.6165 27.185 32.591C27.2627 32.5654 27.3472 32.5712 27.4207 32.6071C27.4942 32.643 27.551 32.7061 27.5793 32.7833L31.5006 45.1446C31.525 45.2183 31.5218 45.2985 31.4915 45.3699C31.4613 45.4414 31.4061 45.4992 31.3364 45.5325C31.2952 45.5542 31.2501 45.5672 31.2038 45.5707Z" fill="var(--fill-0, #263238)"/>
<path id="Vector_9" d="M17.5645 47.8725C18.2318 48.5225 18.7512 49.3104 19.087 50.1821C19.4227 51.0537 19.5668 51.9882 19.5093 52.9213" fill="var(--fill-0, #892E00)"/>
<path id="Vector_10" d="M36.7227 35.4286C36.7227 35.4286 40.2967 25.6107 42.5699 22.9973C44.8431 20.3839 45.4935 19.7226 47.9309 19.7226C50.3683 19.7226 52.4836 22.9973 53.134 22.6667C53.7844 22.336 53.9486 21.0325 52.6478 19.7226C51.347 18.4127 48.9096 17.2681 45.6577 16.2825C42.4057 15.2969 38.3455 14.1587 35.2577 15.6467C32.1699 17.1346 29.0821 20.8862 29.2463 23.665C29.4105 26.4437 34.7715 35.7783 34.7715 35.7783L36.7227 35.4286Z" fill="var(--fill-0, #3A1909)"/>
<path id="Vector_11" d="M34.7778 36.0771C34.7227 36.0768 34.6686 36.062 34.621 36.0341C34.5734 36.0062 34.5338 35.9662 34.5063 35.9182C34.2852 35.5367 29.1011 26.4946 28.9369 23.665C28.7601 20.6764 32.0626 16.8039 35.1314 15.3414C38.4339 13.7645 42.8414 15.0998 45.7524 15.9773C49.1938 17.0138 51.587 18.1965 52.8751 19.4937C53.2315 19.7974 53.5121 20.1813 53.6941 20.6142C53.8762 21.0472 53.9547 21.5172 53.9233 21.9863C53.9005 22.1851 53.8314 22.3756 53.7217 22.5425C53.612 22.7093 53.4647 22.8477 53.2919 22.9464C52.8499 23.169 52.3384 22.7175 51.568 22.0371C50.6145 21.1914 49.3138 20.0342 47.9498 20.0342C45.6577 20.0342 45.0957 20.5874 42.8288 23.2135C40.5619 25.8397 37.0699 35.454 37.0384 35.5557C37.0173 35.6076 36.9838 35.6533 36.9408 35.6889C36.8978 35.7244 36.8467 35.7486 36.7921 35.7592L34.8409 36.0835L34.7778 36.0771ZM38.737 15.2588C37.5906 15.2204 36.45 15.4375 35.3966 15.8946C32.5109 17.2681 29.4042 20.8608 29.5683 23.6077C29.7136 26.0622 34.1842 34.0424 34.942 35.384L36.4953 35.1233C37.0005 33.7499 40.1956 25.2292 42.3362 22.762C44.6663 20.0787 45.3798 19.3792 47.9372 19.3792C49.5411 19.3792 50.9492 20.651 51.9722 21.5412C52.2856 21.8628 52.6454 22.135 53.0393 22.3487C53.1123 22.2897 53.1729 22.2165 53.2173 22.1335C53.2618 22.0505 53.2893 21.9594 53.2982 21.8655C53.3087 21.4959 53.2358 21.1287 53.0848 20.7916C52.9339 20.4546 52.7089 20.1564 52.4268 19.9197C51.2207 18.7052 48.9096 17.5733 45.5756 16.5623C43.6686 16.0155 41.1428 15.2588 38.737 15.2588Z" fill="var(--fill-0, #263238)"/>
<path id="Vector_12" d="M21.6121 9.08448L21.1258 13.3512L21.7573 15.9709C21.7573 15.9709 19.642 19.2457 20.2923 19.57C20.9427 19.8943 22.7297 20.7145 22.7297 20.7145C22.7297 20.7145 25.9817 25.6235 26.7963 25.9541C27.6108 26.2848 31.1849 23.01 31.1849 23.01C31.1849 23.01 35.0809 39.3709 36.2364 37.5714C37.392 35.7719 38.3518 23.6586 39.0022 19.9006C39.6526 16.1426 39.3242 14.9917 39.3242 14.9917C39.3242 14.9917 40.7892 6.31845 38.3518 2.8784C35.9144 -0.561657 31.0396 0.423943 29.903 0.754595C29.0663 1.01618 28.2513 1.3436 27.4656 1.73383C27.4656 1.73383 26.329 -0.396335 24.542 0.589263C23.615 1.01128 22.825 1.68786 22.2625 2.54139C22.2625 2.54139 18.3664 2.86568 18.8526 5.80976C19.3389 8.75383 21.6121 9.08448 21.6121 9.08448Z" fill="var(--fill-0, #FFBE9D)"/>
<path id="Vector_13" d="M36.0344 38.0166H35.9586C34.5947 37.7876 32.1383 28.2432 31.0207 23.595C29.7578 24.7141 27.5035 26.5709 26.6952 26.2402C25.887 25.9096 23.1907 21.9418 22.5403 20.9625C22.1741 20.7972 20.747 20.1359 20.1724 19.8498C20.1043 19.8152 20.0447 19.7659 19.9978 19.7054C19.9509 19.645 19.9177 19.5749 19.9008 19.5C19.6988 18.7497 20.9364 16.6895 21.4353 15.9074L20.8038 13.4211C20.7976 13.3832 20.7976 13.3445 20.8038 13.3067L21.2648 9.33247C20.5264 9.08363 19.8756 8.62433 19.3914 8.0103C18.9072 7.39628 18.6103 6.65394 18.5369 5.87335C18.46 5.50442 18.4631 5.12312 18.5459 4.75549C18.6287 4.38786 18.7893 4.04257 19.0168 3.74318C19.8819 2.62405 21.5426 2.31883 22.0667 2.24888C22.673 1.42246 23.4678 0.755086 24.3841 0.303123C24.6298 0.156209 24.9027 0.0612668 25.1861 0.0240955C25.4694 -0.0130758 25.7573 0.00830591 26.0322 0.0869295C26.6664 0.316612 27.2078 0.750118 27.573 1.32052C28.2944 0.970331 29.0418 0.676951 29.8083 0.443015C30.0545 0.366711 35.8197 -1.23568 38.6044 2.68763C41.0039 6.07682 39.7789 14.1333 39.64 14.9726C39.7031 15.2969 39.8799 16.6386 39.3053 19.9451C39.0969 21.1533 38.8633 23.1881 38.5854 25.5471C37.9856 30.6341 37.3225 36.4523 36.5016 37.7368C36.4536 37.8194 36.3856 37.8884 36.3038 37.9373C36.2221 37.9863 36.1294 38.0135 36.0344 38.0166ZM31.2038 22.6794C31.2329 22.6728 31.2631 22.6728 31.2922 22.6794C31.3446 22.6955 31.392 22.7251 31.4297 22.7652C31.4673 22.8053 31.4939 22.8546 31.5069 22.9083C33.0855 29.5277 35.163 36.5731 36.0028 37.3235C36.7353 35.9818 37.4425 29.9092 37.9666 25.4518C38.2381 23.0863 38.4781 21.0388 38.6928 19.818C39.3242 16.2253 39.0275 15.0617 39.0211 15.0489C39.0118 15.0028 39.0118 14.9552 39.0211 14.9091C39.0211 14.8264 40.4356 6.32481 38.0992 3.03736C35.5734 -0.523506 30.2187 0.964433 29.9977 1.03438C29.1781 1.29036 28.38 1.61142 27.6108 1.99454C27.5377 2.03076 27.4535 2.0371 27.3758 2.01221C27.2981 1.98732 27.233 1.93313 27.1941 1.861C26.8965 1.32558 26.4265 0.908383 25.8617 0.678293C25.6662 0.623197 25.4615 0.609439 25.2605 0.637892C25.0594 0.666344 24.8664 0.736388 24.6935 0.843616C23.8313 1.24908 23.0923 1.87911 22.5529 2.66856C22.5284 2.71799 22.4917 2.76029 22.4464 2.79145C22.4011 2.82261 22.3487 2.84159 22.294 2.8466C22.294 2.8466 20.3681 3.01829 19.5283 4.11834C19.3544 4.34827 19.2322 4.61347 19.17 4.89562C19.1079 5.17776 19.1073 5.47014 19.1684 5.75253C19.6104 8.4359 21.6436 8.76019 21.6626 8.76654C21.7033 8.77126 21.7428 8.78409 21.7785 8.80429C21.8143 8.82448 21.8458 8.85163 21.871 8.88418C21.8963 8.91672 21.9149 8.954 21.9257 8.99385C21.9365 9.03369 21.9394 9.07531 21.9341 9.11628L21.4542 13.313L22.0857 15.8565C22.0958 15.8987 22.0972 15.9425 22.0896 15.9852C22.0819 16.0279 22.0656 16.0685 22.0415 16.1045C21.1448 17.4907 20.4628 18.9087 20.5007 19.2838C21.1764 19.6208 22.8623 20.3902 22.8813 20.403C22.9361 20.4265 22.9824 20.4665 23.0139 20.5174C24.5862 22.8892 26.4805 25.4518 26.9289 25.6044C27.3772 25.757 29.1768 24.3835 30.9891 22.7175C31.0539 22.6796 31.13 22.666 31.2038 22.6794Z" fill="var(--fill-0, #263238)"/>
<path id="Vector_14" d="M38.3518 2.86568C35.9144 -0.568019 31.0396 0.411223 29.903 0.741875C29.0663 1.00346 28.2513 1.33089 27.4656 1.72112C27.4656 1.72112 26.329 -0.409045 24.542 0.576552C23.6134 1.00203 22.8232 1.68316 22.2625 2.54139C22.2625 2.54139 18.3664 2.86568 18.8526 5.80976C19.3389 8.75383 21.6121 9.08448 21.6121 9.08448L26.6637 8.76019C26.6637 8.76019 24.5546 11.5389 26.8278 12.1939C29.101 12.8488 30.0798 13.1731 30.0798 13.1731C30.0798 13.1731 30.0798 15.138 31.0522 15.3033C32.0247 15.4686 31.6837 13.3385 32.6751 12.5245C33.6664 11.7106 35.4408 11.8887 35.5987 13.9934C35.7565 16.0981 35.7629 17.1028 35.7629 17.1028C35.7629 17.1028 37.3478 17.5225 39.4126 15.6339C39.4105 15.4198 39.3851 15.2066 39.3369 14.9981C39.3369 14.9981 40.7892 6.30573 38.3518 2.86568Z" fill="var(--fill-0, #263238)"/>
<path id="Vector_15" d="M36.1733 17.4589C36.0035 17.4623 35.8339 17.4453 35.6681 17.408C35.6008 17.3909 35.5412 17.3515 35.4988 17.2961C35.4565 17.2408 35.4338 17.1727 35.4345 17.1028C35.4345 17.1028 35.4345 16.1045 35.2766 14.0188C35.2883 13.706 35.2129 13.3962 35.0589 13.1243C34.9049 12.8523 34.6785 12.6292 34.4052 12.48C34.1461 12.3873 33.8672 12.3649 33.5968 12.4151C33.3263 12.4654 33.0737 12.5864 32.8645 12.7662C32.506 13.1785 32.2736 13.6864 32.1951 14.2287C32.012 14.9091 31.7847 15.7548 30.9891 15.6149C29.9788 15.4495 29.7893 14.0061 29.7578 13.4084C29.3599 13.2812 28.3875 12.976 26.7268 12.4991C26.4545 12.4446 26.2007 12.3208 25.9895 12.1393C25.7783 11.9578 25.6169 11.7248 25.5207 11.4626C25.2682 10.6805 25.6975 9.71399 26.0385 9.11628L21.6184 9.40241H21.5679C21.5679 9.40241 19.042 9.00182 18.5432 5.86698C18.4663 5.49805 18.4694 5.11676 18.5522 4.74914C18.635 4.38151 18.7956 4.03621 19.0231 3.73682C19.8882 2.61769 21.5489 2.31247 22.073 2.24253C22.6793 1.4161 23.4741 0.748731 24.3904 0.296768C24.6361 0.149853 24.909 0.0549116 25.1924 0.0177403C25.4757 -0.019431 25.7636 0.00195071 26.0385 0.0805743C26.6727 0.310257 27.2141 0.743763 27.5792 1.31416C28.3007 0.963976 29.0481 0.670595 29.8146 0.43666C30.0609 0.360355 35.826 -1.24204 38.6107 2.68128C41.0102 6.07046 39.7852 14.1269 39.6463 14.9663C39.6823 15.1766 39.7055 15.389 39.7157 15.6022C39.7188 15.6495 39.7113 15.6968 39.6938 15.7408C39.6763 15.7848 39.6493 15.8244 39.6147 15.8565C38.7089 16.808 37.4799 17.3802 36.1733 17.4589ZM36.0659 16.823C36.5269 16.823 37.6572 16.7531 39.078 15.494C39.0673 15.3468 39.0483 15.2003 39.0211 15.0553C39.0116 15.0113 39.0116 14.9658 39.0211 14.9218C39.0211 14.8391 40.4356 6.33753 38.0992 3.05008C35.5734 -0.510785 30.2187 0.977143 29.9977 1.04709C29.1781 1.30307 28.38 1.62414 27.6108 2.00726C27.5377 2.04348 27.4535 2.04981 27.3758 2.02492C27.2981 2.00003 27.233 1.94585 27.1941 1.87372C26.8965 1.3383 26.4265 0.921093 25.8617 0.691004C25.6662 0.635908 25.4615 0.622159 25.2605 0.650612C25.0594 0.679064 24.8664 0.749108 24.6935 0.856336C23.8313 1.2618 23.0923 1.89183 22.5529 2.68128C22.5284 2.73071 22.4917 2.773 22.4464 2.80416C22.4011 2.83532 22.3487 2.85431 22.294 2.85932C22.294 2.85932 20.3681 3.03101 19.5283 4.13106C19.3544 4.36099 19.2322 4.62619 19.17 4.90834C19.1079 5.19048 19.1073 5.48286 19.1684 5.76525C19.5851 8.30873 21.391 8.72204 21.6373 8.77291L26.6384 8.44861C26.6986 8.44488 26.7587 8.45861 26.8114 8.48818C26.8641 8.51774 26.9073 8.5619 26.9359 8.61543C26.9645 8.66895 26.9772 8.7296 26.9726 8.79019C26.968 8.85078 26.9462 8.90878 26.9099 8.95731C26.6068 9.35155 25.887 10.5343 26.1269 11.2719C26.192 11.4368 26.2983 11.582 26.4354 11.6934C26.5726 11.8048 26.7361 11.8787 26.9099 11.9077C29.1642 12.5436 30.1619 12.8933 30.1682 12.8933C30.2316 12.9134 30.2871 12.9531 30.3267 13.0068C30.3664 13.0604 30.3883 13.1253 30.3892 13.1922C30.3892 13.7454 30.5597 14.9218 31.0964 15.0108C31.3111 15.0426 31.3995 14.8073 31.589 14.0824C31.6908 13.4097 31.9975 12.7854 32.4667 12.2956C32.7632 12.0379 33.1238 11.8663 33.5097 11.7991C33.8957 11.7318 34.2926 11.7716 34.6578 11.9141C35.0453 12.099 35.3711 12.3934 35.5953 12.7615C35.8195 13.1296 35.9326 13.5554 35.9207 13.987C36.0154 15.4686 36.0533 16.397 36.0912 16.823H36.0659Z" fill="var(--fill-0, #263238)"/>
<path id="Vector_16" d="M31.2038 22.9973L33.1486 21.0325L33.477 19.3919C33.477 19.3919 34.6136 19.3919 35.264 17.4335" fill="var(--fill-0, #FFBE9D)"/>
<path id="Vector_17" d="M31.2038 23.3153C31.1185 23.315 31.0367 23.2807 30.9765 23.2199C30.9182 23.1594 30.8856 23.0784 30.8856 22.9941C30.8856 22.9099 30.9182 22.8289 30.9765 22.7684L32.8708 20.8608L33.1802 19.322C33.1935 19.249 33.2317 19.183 33.2882 19.1354C33.3447 19.0878 33.416 19.0616 33.4896 19.0613C33.5212 19.0613 34.4179 19.0104 34.9798 17.319C35.0059 17.2389 35.0624 17.1725 35.137 17.1344C35.2115 17.0962 35.2981 17.0894 35.3777 17.1155C35.4562 17.1431 35.5211 17.2002 35.5588 17.2749C35.5964 17.3495 35.6039 17.436 35.5797 17.5161C35.0493 19.1121 34.1905 19.5445 33.7548 19.659L33.4707 21.077C33.4632 21.14 33.4342 21.1985 33.3886 21.2423L31.4374 23.2071C31.4082 23.2407 31.3723 23.2676 31.332 23.2862C31.2918 23.3048 31.2481 23.3147 31.2038 23.3153Z" fill="var(--fill-0, #263238)"/>
<path id="Vector_18" d="M15.6133 56.0752C15.1755 55.6688 14.6606 55.3557 14.0996 55.1547C13.5386 54.9536 12.943 54.8688 12.3487 54.9052C10.4038 55.0706 11.2121 58.0146 11.3763 60.4691C11.5787 62.6064 12.2448 64.6729 13.3274 66.5226C14.142 67.9978 16.2511 69.7973 17.5518 69.4666C18.8526 69.136 17.716 66.3572 17.716 65.2127V64.0681C17.716 64.0681 18.6885 66.033 19.503 65.8676C20.3176 65.7023 20.1345 64.8884 19.6609 64.0681C19.0886 63.0572 18.7903 61.9125 18.7958 60.7489C18.7958 59.4454 17.4003 57.5505 15.6133 56.0752Z" fill="var(--fill-0, #FFBE9D)"/>
<path id="Vector_19" d="M17.2298 69.8227C15.7459 69.8227 13.801 68.0359 13.0496 66.6752C11.9378 64.7875 11.2583 62.6738 11.0605 60.4882C11.029 60.0113 10.9721 59.5217 10.9153 59.032C10.7385 57.4424 10.568 55.9354 11.2247 55.1278C11.3608 54.9661 11.5287 54.8346 11.7178 54.7415C11.9069 54.6485 12.1131 54.596 12.3234 54.5873C12.9629 54.5463 13.604 54.6381 14.2068 54.8568C14.8097 55.0756 15.3614 55.4167 15.828 55.859C17.8234 57.506 19.1115 59.4326 19.1115 60.768C19.1003 61.8823 19.3836 62.9796 19.9324 63.9473C20.1176 64.1912 20.2469 64.4733 20.3113 64.7733C20.3757 65.0734 20.3736 65.3841 20.305 65.6832C20.2361 65.828 20.1325 65.9532 20.0035 66.0476C19.8745 66.142 19.7242 66.2025 19.5662 66.2237C18.9915 66.3445 18.4359 65.7977 18.0317 65.2445C18.0604 65.6733 18.1258 66.0988 18.2275 66.5162C18.499 67.8515 18.8589 69.5175 17.6276 69.8227C17.4955 69.839 17.3619 69.839 17.2298 69.8227ZM12.6771 55.1977C12.5782 55.1915 12.4791 55.1915 12.3803 55.1977C12.2531 55.1985 12.1275 55.2267 12.0121 55.2805C11.8966 55.3342 11.7939 55.4122 11.7109 55.5093C11.2247 56.107 11.3889 57.5441 11.5468 58.9367C11.6036 59.4326 11.6604 59.935 11.692 60.4182C11.8784 62.5108 12.5255 64.5353 13.5863 66.3445C14.3883 67.8007 16.3773 69.4094 17.4571 69.136C18.0886 68.977 17.8107 67.6481 17.5897 66.5925C17.4792 66.1355 17.4095 65.6695 17.3813 65.2V64.0554C17.3818 63.9841 17.4055 63.915 17.4489 63.8587C17.4923 63.8023 17.5529 63.762 17.6213 63.7438C17.6908 63.728 17.7636 63.7364 17.8278 63.7676C17.892 63.7988 17.9439 63.8509 17.9749 63.9155C18.3411 64.6468 19.0231 65.6133 19.4209 65.5433C19.6483 65.4988 19.6924 65.3971 19.7051 65.3653C19.7808 65.2 19.7051 64.8121 19.3767 64.2207C18.7745 63.1597 18.4588 61.9583 18.4611 60.7362C18.4611 59.617 17.1982 57.7984 15.3923 56.2851C14.6424 55.614 13.68 55.2331 12.6771 55.2104V55.1977Z" fill="var(--fill-0, #263238)"/>
<path id="Vector_20" d="M30.6734 55.6937C30.6734 55.6937 26.7899 56.5076 25.4955 58.1355C24.201 59.7633 23.879 64.4942 23.879 65.3017C23.879 66.1093 25.3313 68.5637 26.1395 68.2394C26.9478 67.9151 26.4679 66.2809 26.4679 66.2809L27.5982 63.5149C27.5982 63.5149 28.7285 64.6531 28.8927 63.3496C29.0569 62.0461 29.7009 61.5564 30.5092 59.9286C30.9432 59.1774 31.2184 58.3439 31.3174 57.4805L30.6734 55.6937Z" fill="var(--fill-0, #FFBE9D)"/>
<path id="Vector_21" d="M25.988 68.5828C25.7595 68.5774 25.5385 68.4995 25.3566 68.3603C24.4223 67.582 23.786 66.5007 23.5569 65.3017C23.5569 64.4878 23.8663 59.6679 25.2429 57.9383C26.6195 56.2088 30.4397 55.3949 30.6039 55.3949C30.6782 55.3782 30.7561 55.3898 30.8225 55.4273C30.8889 55.4649 30.9392 55.5258 30.9638 55.5983L31.5953 57.3851C31.6013 57.4231 31.6013 57.4617 31.5953 57.4996C31.4981 58.4099 31.212 59.2895 30.7554 60.0812C30.465 60.6726 30.1935 61.105 29.9598 61.4929C29.5474 62.0558 29.2746 62.7098 29.1642 63.4005C29.1074 63.871 28.9243 64.1635 28.6212 64.2653C28.4589 64.3028 28.2902 64.3022 28.1281 64.2636C27.9661 64.2251 27.815 64.1495 27.6866 64.0427L26.7584 66.3128C26.872 66.7515 27.1562 68.1695 26.2216 68.5446C26.1465 68.5707 26.0675 68.5836 25.988 68.5828ZM30.4713 56.0625C29.5873 56.2787 26.7584 57.0481 25.7417 58.3326C24.5799 59.7951 24.1947 64.2398 24.1947 65.3271C24.4239 66.315 24.9564 67.2049 25.7165 67.8706C25.8491 67.9596 25.9627 67.9978 26.0259 67.9724C26.43 67.8134 26.2911 66.8278 26.1648 66.4081C26.1397 66.3383 26.1397 66.2618 26.1648 66.1919L27.3014 63.4259C27.32 63.3772 27.3506 63.3341 27.3904 63.3007C27.4302 63.2673 27.4778 63.2447 27.5287 63.2351C27.5792 63.2245 27.6315 63.2265 27.681 63.2409C27.7306 63.2553 27.7758 63.2817 27.8129 63.3178C28.0339 63.5404 28.3496 63.7248 28.4444 63.6866C28.5391 63.6485 28.5327 63.5976 28.5643 63.3432C28.6818 62.5595 28.985 61.8157 29.4484 61.1749C29.7259 60.7347 29.9809 60.2806 30.2124 59.8142C30.6002 59.1154 30.8631 58.3535 30.9891 57.5632L30.4713 56.0625Z" fill="var(--fill-0, #263238)"/>
<path id="Vector_22" d="M36.8174 72.9639C36.8174 72.9639 52.029 75.8953 56.3923 75.571C60.7556 75.2467 63.3383 69.8482 62.3785 65.3017C61.4187 60.7552 58.0088 58.784 52.9951 58.6251C47.9814 58.4661 32.7887 56.3423 29.0442 58.6251C25.2997 60.9078 25.3566 71.9847 36.8174 72.9639Z" fill="var(--fill-0, #263238)"/>
<path id="Vector_23" d="M55.6219 75.9144C50.5703 75.9144 37.5562 73.4281 36.7795 73.2755C29.2021 72.6396 27.2446 67.8198 26.771 65.7786C26.0575 62.7264 26.9668 59.528 28.8927 58.3517C31.7973 56.5649 41.1112 57.3597 47.9183 57.9383C50.002 58.1164 51.808 58.269 53.0077 58.3072C58.495 58.4852 61.7533 60.8188 62.6942 65.2381C62.9788 66.6084 62.977 68.0233 62.6889 69.3928C62.4008 70.7624 61.8328 72.0565 61.0208 73.1928C60.4928 73.9493 59.8086 74.5818 59.0152 75.0471C58.2217 75.5125 57.3378 75.7997 56.4239 75.8889C56.1839 75.9017 55.9124 75.9144 55.6219 75.9144ZM36.0912 57.8938C33.0224 57.8938 30.4082 58.1418 29.2021 58.8985C27.5287 59.9223 26.7205 62.8791 27.3646 65.6324C27.8129 67.54 29.6252 72.0356 36.8363 72.6269H36.8679C37.0194 72.6269 52.0858 75.5456 56.3607 75.2276C57.1863 75.1496 57.9849 74.8906 58.7004 74.4688C59.416 74.0469 60.0313 73.4726 60.503 72.7859C61.2626 71.7233 61.7937 70.5128 62.0622 69.2317C62.3308 67.9507 62.331 66.6273 62.0627 65.3462C61.1787 61.1876 58.2046 59.0893 52.9762 58.9176C51.7575 58.8794 49.9452 58.7205 47.8488 58.5424C44.3695 58.2754 39.8799 57.8938 36.0912 57.8938Z" fill="var(--fill-0, #263238)"/>
<path id="Vector_24" d="M36.3375 96.9108C36.3375 96.9108 33.0981 99.8485 29.7009 100.987C27.2256 101.82 26.4679 103.104 28.4064 104.249C30.345 105.393 41.187 105.222 43.7759 104.573C43.7759 104.573 46.207 105.063 46.207 103.428C46.207 101.794 44.2622 98.0553 44.2622 98.0553C44.2622 98.0553 39.4063 95.124 36.3375 96.9108Z" fill="var(--fill-0, black)"/>
<g id="Vector_25">
</g>
<path id="Vector_26" d="M27.7624 60.7425C27.7624 60.7425 25.8175 62.6946 26.3037 67.1012C26.79 71.5078 33.8811 86.9785 35.365 89.9162C36.849 92.8539 36.1733 93.4962 36.1733 93.4962C36.1733 93.4962 34.5568 93.6615 34.5568 94.7997C34.5951 95.5986 34.8109 96.3787 35.1882 97.0825C35.1882 97.0825 43.6055 99.6895 44.4137 99.8549C45.222 100.02 45.0452 98.2207 44.8999 97.0825C44.6978 96.0336 44.4278 94.9992 44.0917 93.9858C44.0917 93.9858 41.9826 79.488 41.9826 75.0877C41.9826 70.6875 41.0165 65.1491 38.0992 63.5213" fill="var(--fill-0, #263238)"/>
<path id="Vector_27" d="M44.5274 100.173C44.4728 100.179 44.4177 100.179 44.3632 100.173C43.5486 100.007 35.4534 97.5022 35.1061 97.3941C35.0308 97.3698 34.9675 97.3175 34.9293 97.2478C34.5168 96.4979 34.2813 95.6624 34.2411 94.8061C34.2411 93.6361 35.5039 93.2991 35.9712 93.2164C36.0344 92.9875 36.1228 92.1608 35.0809 90.037C34.039 87.9132 26.5058 71.7939 25.988 67.1457C25.4955 62.6438 27.453 60.6154 27.5351 60.5327C27.5644 60.5029 27.5993 60.4792 27.6378 60.4631C27.6763 60.447 27.7175 60.4386 27.7592 60.4386C27.8009 60.4386 27.8422 60.447 27.8806 60.4631C27.9191 60.4792 27.954 60.5029 27.9834 60.5327C28.0416 60.5932 28.0742 60.6741 28.0742 60.7584C28.0742 60.8427 28.0416 60.9237 27.9834 60.9842C27.9834 60.9842 26.1585 62.8918 26.6194 67.0821C27.093 71.3806 34.1653 86.7941 35.6492 89.7827C37.1331 92.7713 36.5332 93.5979 36.3943 93.7378C36.3433 93.7887 36.2763 93.8202 36.2049 93.8268C36.2049 93.8268 34.8725 93.9794 34.8725 94.8124C34.9084 95.5165 35.0959 96.2042 35.4219 96.8281C38.3581 97.7438 43.8706 99.4288 44.4895 99.556C44.5337 99.556 44.5463 99.556 44.5589 99.556C44.5716 99.556 44.8747 99.0918 44.5968 97.1524C44.3977 96.1229 44.132 95.1076 43.8012 94.113C43.7002 93.4771 41.6795 79.488 41.6795 75.1132C41.6795 70.7384 40.7071 65.3589 37.9603 63.8201C37.9236 63.8003 37.8913 63.7731 37.8653 63.7404C37.8393 63.7077 37.8202 63.67 37.809 63.6296C37.7978 63.5893 37.7948 63.547 37.8001 63.5055C37.8055 63.4639 37.8192 63.4239 37.8403 63.3877C37.8814 63.3145 37.9497 63.2606 38.0302 63.238C38.1107 63.2153 38.1968 63.2257 38.2697 63.2669C41.2501 64.9329 42.311 70.4777 42.311 75.1132C42.311 79.4371 44.3948 93.8205 44.4137 93.9667C44.7552 94.9785 45.0252 96.0133 45.222 97.0634C45.4619 98.7294 45.3861 99.645 44.9946 100.02C44.8631 100.128 44.6965 100.182 44.5274 100.173Z" fill="var(--fill-0, #263238)"/>
<path id="Vector_28" d="M41.3512 30.1127C41.3512 30.1127 39.0843 32.3891 39.7347 34.9962C40.3851 37.6032 42.8098 41.5138 42.8098 41.5138C42.8098 41.5138 41.8374 43.4723 42.9677 45.1001C43.6539 46.0851 44.1488 47.1919 44.4263 48.3621C44.4263 48.3621 43.1319 48.998 44.1043 50.6386L45.0704 52.2727C45.0704 52.2727 34.8788 54.3902 32.934 54.8798C30.9891 55.3694 29.2147 56.018 29.3789 57.1562C29.5431 58.2944 30.9954 58.9494 32.7761 58.9494C34.5568 58.9494 45.8787 60.5772 49.2759 60.5772C52.6731 60.5772 57.0427 60.0876 57.6931 56.6666C58.3435 53.2456 58.3246 51.9421 58.1793 51.4525C58.0341 50.9629 57.8573 50.4796 58.0151 47.8725C58.173 45.2655 56.5628 42.9827 56.3986 42.1497C56.2345 41.3167 57.6615 40.1912 57.2069 38.0738C56.9267 36.8283 56.4918 35.6234 55.9124 34.4875C55.9124 34.4875 56.8848 31.7214 55.5904 29.9283C54.2959 28.1351 53.6455 27.9762 53.6455 27.9762" fill="var(--fill-0, #892E00)"/>
<path id="Vector_29" d="M49.2759 60.8951C47.2868 60.8951 42.7467 60.361 38.737 59.8841C35.927 59.5534 33.5022 59.2482 32.7761 59.2482C30.6986 59.2482 29.2463 58.4407 29.0632 57.1816C28.8611 55.7573 30.8691 55.0515 32.8518 54.5492C34.5504 54.1231 42.5951 52.4381 44.5652 52.0057L43.8264 50.7339C43.6504 50.4843 43.5284 50.2002 43.4686 49.9C43.4088 49.5998 43.4124 49.2903 43.4792 48.9916C43.5835 48.6571 43.7861 48.3623 44.0601 48.1459C43.7748 47.0988 43.3158 46.1077 42.7025 45.2146C42.3567 44.6599 42.1522 44.0279 42.107 43.3746C42.0618 42.7213 42.1774 42.0669 42.4436 41.4693C41.9952 40.7253 40.0062 37.3807 39.4189 35.0089C38.737 32.2556 41.0228 29.9219 41.1238 29.8138C41.1829 29.7556 41.2622 29.7229 41.3449 29.7229C41.4275 29.7229 41.5068 29.7556 41.5659 29.8138C41.5955 29.8434 41.6189 29.8785 41.635 29.9173C41.651 29.956 41.6592 29.9976 41.6592 30.0396C41.6592 30.0815 41.651 30.1231 41.635 30.1618C41.6189 30.2006 41.5955 30.2357 41.5659 30.2653C41.5659 30.2653 39.4379 32.4527 40.0314 34.8499C40.6629 37.3934 43.0434 41.2404 43.0687 41.2786C43.0953 41.3261 43.1092 41.3798 43.1092 41.4343C43.1092 41.4889 43.0953 41.5426 43.0687 41.5901C43.0687 41.5901 42.2036 43.396 43.2076 44.8458C43.9172 45.8679 44.4292 47.0155 44.7168 48.2286C44.7294 48.2967 44.7196 48.3671 44.6888 48.4291C44.658 48.4911 44.608 48.5413 44.5463 48.572C44.3202 48.708 44.1516 48.923 44.0727 49.1761C44.0349 49.3899 44.0401 49.6093 44.0878 49.8211C44.1355 50.033 44.2248 50.2331 44.3505 50.4096L45.323 52.0375C45.3495 52.0807 45.3652 52.1297 45.3686 52.1804C45.3719 52.2311 45.363 52.2819 45.3424 52.3283C45.3219 52.3746 45.2904 52.4153 45.2507 52.4466C45.211 52.4779 45.1643 52.499 45.1146 52.508C45.0136 52.508 34.9104 54.6318 32.9971 55.1151C31.5006 55.4902 29.5367 56.1007 29.6693 57.0227C29.8019 57.9447 31.0396 58.5424 32.7571 58.5424C33.5212 58.5424 35.9649 58.8349 38.7938 59.1783C42.5825 59.6298 47.3057 60.183 49.2569 60.183C54.2454 60.183 56.8975 58.9875 57.3647 56.5331C57.9962 53.0867 57.9962 51.8849 57.8573 51.4779C57.6804 50.9438 57.5163 50.4414 57.6805 47.7772C57.7941 45.9904 57.049 44.3434 56.5123 43.2561C56.3279 42.9056 56.1798 42.537 56.0703 42.156C56.0481 41.7065 56.1674 41.2615 56.4112 40.8843C56.9133 40.0686 57.0977 39.0946 56.929 38.1501C56.6577 36.9349 56.2333 35.7596 55.6661 34.6528C55.6474 34.6119 55.6377 34.5675 55.6377 34.5224C55.6377 34.4774 55.6474 34.433 55.6661 34.3921C55.6661 34.3921 56.5628 31.7532 55.382 30.119C54.2012 28.4849 53.6139 28.2877 53.6076 28.2814C53.5307 28.2551 53.4665 28.2005 53.4279 28.1286C53.3892 28.0567 53.379 27.9727 53.3992 27.8935C53.4214 27.8156 53.4724 27.7491 53.5416 27.7077C53.6109 27.6664 53.6932 27.6532 53.7718 27.6709C53.9044 27.6709 54.599 27.9507 55.8934 29.7502C57.1184 31.4417 56.487 33.8643 56.3039 34.4684C56.8649 35.5935 57.289 36.7827 57.5668 38.0102C57.7908 39.098 57.6063 40.2308 57.049 41.1895C56.8792 41.4592 56.7793 41.7675 56.7585 42.0861C56.8599 42.4154 56.9909 42.7347 57.15 43.0399C57.9742 44.5156 58.409 46.1795 58.4129 47.8725C58.2551 50.416 58.4129 50.8865 58.5582 51.338C58.7918 52.0375 58.6339 53.7925 58.0846 56.7111C57.2132 60.8951 51.246 60.8951 49.2759 60.8951Z" fill="var(--fill-0, #263238)"/>
<path id="Vector_30" d="M45.0704 52.2727C45.0704 52.2727 48.4676 55.5284 52.6478 55.6937Z" fill="var(--fill-0, #892E00)"/>
<path id="Vector_31" d="M52.6794 56.0116C48.3981 55.8463 45.0073 52.6352 44.8683 52.5016C44.8381 52.4728 44.8137 52.4383 44.7967 52.4C44.7797 52.3617 44.7703 52.3205 44.7692 52.2785C44.768 52.2366 44.775 52.1949 44.7899 52.1557C44.8047 52.1165 44.8271 52.0806 44.8557 52.0502C44.8843 52.0197 44.9186 51.9952 44.9566 51.9781C44.9946 51.9609 45.0356 51.9515 45.0773 51.9503C45.1189 51.9491 45.1604 51.9562 45.1993 51.9712C45.2382 51.9861 45.2738 52.0086 45.304 52.0375C45.3356 52.0692 48.6697 55.2168 52.7046 55.3758C52.7461 55.3774 52.7868 55.3873 52.8245 55.4048C52.8622 55.4223 52.8961 55.4471 52.9243 55.4778C52.9524 55.5085 52.9743 55.5445 52.9886 55.5838C53.0029 55.623 53.0094 55.6647 53.0077 55.7064C53.0028 55.7902 52.9659 55.8688 52.9047 55.9257C52.8434 55.9826 52.7627 56.0134 52.6794 56.0116Z" fill="var(--fill-0, #263238)"/>
</g>
</svg>
