<svg preserveAspectRatio="none" width="100%" height="100%" overflow="visible" style="display: block;" viewBox="0 0 39.5255 41.2679" fill="none" xmlns="http://www.w3.org/2000/svg">
<g id="freepik--Fire--inject-2">
<path id="Vector" d="M23.7701 21.486C23.7701 21.486 15.6623 26.4267 12.9218 28.6141C10.1813 30.8015 7.66817 33.5612 5.38232 34.7121C3.09648 35.863 2.75549 37.8152 3.55744 38.3938C4.35938 38.9725 7.09355 40.8038 8.46379 39.8881C9.8124 38.8363 11.079 37.682 12.2525 36.4353C12.2525 36.4353 12.1388 38.6227 13.5154 38.7372C14.8919 38.8516 16.0412 39.5384 17.1715 38.8516C18.0627 38.2311 18.8694 37.4957 19.571 36.6642C19.571 36.6642 24.1364 39.7736 24.711 40.117C25.2856 40.4604 28.1398 40.9246 29.51 40.9246C30.8803 40.9246 32.7051 38.8516 32.9325 38.2794C33.1598 37.7071 33.0461 36.4353 31.5622 35.6278C30.0783 34.8202 24.8247 32.4103 23.9091 31.8126C22.9935 31.2148 21.0549 30.1975 21.0549 30.1975L20.3729 29.6252C20.3729 29.6252 25.2793 26.0579 26.3086 25.1359C27.3378 24.2139 27.7925 23.1838 27.3378 22.1474C26.8832 21.1109 25.273 20.7039 23.7701 21.486Z" fill="var(--fill-0, #84380D)"/>
<path id="Vector_2" d="M6.88517 31.6218C6.88517 31.6218 3.09647 29.3199 1.83357 29.6697C0.570676 30.0194 -0.104976 32.2132 0.570675 32.5438C1.24633 32.8745 7.51662 34.8457 7.51662 34.8457C7.51662 34.8457 2.46503 36.6833 2.94493 37.4909C3.42483 38.2984 4.65616 38.6418 6.26004 37.9487C7.86392 37.2556 9.6825 35.7613 10.0487 35.7613C10.415 35.7613 11.6463 34.1526 9.70144 32.4293C7.75658 30.7061 6.88517 31.6218 6.88517 31.6218Z" fill="var(--fill-0, #84380D)"/>
<g id="Vector_3">
</g>
<path id="Vector_4" d="M32.7493 36.8296C32.7493 36.8296 36.8411 38.4765 38.022 37.9296C39.2028 37.3828 39.5248 35.1127 38.7923 34.8838C38.0598 34.6549 31.5496 33.771 31.5496 33.771C31.5496 33.771 36.2034 31.1194 35.6224 30.4009C35.0415 29.6824 33.7281 29.5552 32.2821 30.4963C30.8361 31.4374 29.2574 33.2178 28.9164 33.2751C28.5755 33.3323 27.603 35.1318 29.8005 36.5116C31.9979 37.8915 32.7493 36.8296 32.7493 36.8296Z" fill="var(--fill-0, #84380D)"/>
<g id="Vector_5">
</g>
<path id="Vector_6" d="M8.14176 33.8156C8.14176 33.8156 5.17395 31.7426 5.06029 28.2962C4.94662 24.8498 7.4598 22.8913 8.36909 21.3907C8.86389 20.662 9.21345 19.8436 9.39835 18.9807C9.83651 19.9538 10.2181 20.9517 10.5413 21.9693C10.5413 22.3127 11.9115 20.3606 14.4247 18.2876C16.9379 16.2147 17.0515 12.7683 16.7105 11.1595C16.5251 10.2547 16.2566 9.36916 15.9086 8.5143C15.9086 8.5143 19.11 10.352 19.792 10.9243C20.319 11.458 20.7467 12.0826 21.0549 12.7683C21.0549 12.7683 18.8827 8.95304 20.6003 4.94707C22.3178 0.941088 27.4515 1.82442e-06 27.4515 1.82442e-06C27.4515 1.82442e-06 24.5973 3.81523 25.2793 6.67029C25.9613 9.52534 33.1661 15.9858 34.0754 19.4385C34.9847 22.8913 33.6208 23.9214 33.6208 23.9214L36.4749 21.7404C36.4749 21.7404 37.3905 28.4107 36.2476 31.2784C35.1047 34.1462 29.51 35.6468 29.51 35.6468C29.51 35.6468 21.1686 32.6583 19.1164 32.3149C17.0641 31.9715 14.3173 31.9715 12.1704 33.0016C10.9219 33.6249 9.53235 33.9056 8.14176 33.8156Z" fill="var(--fill-0, #FF774D)"/>
<g id="Vector_7">
</g>
</g>
</svg>
