<svg preserveAspectRatio="none" width="100%" height="100%" overflow="visible" style="display: block;" viewBox="0 0 112.077 29.5195" fill="none" xmlns="http://www.w3.org/2000/svg">
<g id="freepik--Trunk--inject-2">
<path id="Vector" d="M100.71 28.8558C100.71 28.8558 91.9207 27.4378 87.45 27.4378C82.9794 27.4378 74.1517 26.8528 67.0668 26.7065C59.982 26.5603 7.07911 24.9197 3.63139 22.7323C0.183678 20.545 -0.561435 11.3821 1.32028 5.99625C3.202 0.610435 8.97977 0.31794 8.97977 0.31794L101.904 0.953809L100.71 28.8558Z" fill="var(--fill-0, #CB9275)"/>
<path id="Vector_2" d="M100.71 29.1737H100.66C100.572 29.1737 91.8196 27.7557 87.4437 27.7557C85.1073 27.7557 81.5523 27.5967 77.7952 27.4251C74.1833 27.2661 70.4577 27.0944 67.0605 27.0245C66.4669 27.0245 7.30643 25.4221 3.46722 23.0058C-0.0878428 20.7675 -0.921363 11.4647 1.0235 5.88814C2.96837 0.311563 8.90399 0.0063587 8.96714 0L101.904 0.63587C101.989 0.641498 102.07 0.677569 102.131 0.737611C102.189 0.802279 102.22 0.886129 102.22 0.97288L101.032 28.8812C101.031 28.9262 101.02 28.9704 101 29.0109C100.981 29.0514 100.953 29.0873 100.919 29.1165C100.857 29.1578 100.784 29.1779 100.71 29.1737ZM8.97345 0.63587C8.93556 0.63587 3.39776 0.985602 1.61076 6.10435C-0.220449 11.3566 0.524657 20.405 3.79557 22.4653C7.19276 24.6018 60.0641 26.2487 67.0668 26.3886C70.4767 26.4585 74.2085 26.6302 77.8015 26.7892C81.5586 26.9609 85.101 27.1198 87.4248 27.1198C91.365 27.1198 98.7088 28.2262 100.388 28.4869L101.544 1.25901L8.97345 0.63587Z" fill="var(--fill-0, #263238)"/>
<path id="Vector_3" d="M75.3957 7.1281H73.6086C73.5249 7.1281 73.4446 7.0946 73.3854 7.03497C73.3262 6.97535 73.2929 6.89448 73.2929 6.81016C73.2929 6.72584 73.3262 6.64498 73.3854 6.58535C73.4446 6.52573 73.5249 6.49223 73.6086 6.49223H75.3957C75.4794 6.49223 75.5597 6.52573 75.6189 6.58535C75.6781 6.64498 75.7114 6.72584 75.7114 6.81016C75.7114 6.89448 75.6781 6.97535 75.6189 7.03497C75.5597 7.0946 75.4794 7.1281 75.3957 7.1281Z" fill="var(--fill-0, #263238)"/>
<path id="Vector_4" d="M81.7607 7.1281H77.972C77.8882 7.1281 77.8079 7.0946 77.7487 7.03497C77.6895 6.97535 77.6562 6.89449 77.6562 6.81016C77.6562 6.72584 77.6895 6.64498 77.7487 6.58535C77.8079 6.52573 77.8882 6.49223 77.972 6.49223H81.7607C82.292 6.47622 82.8216 6.4231 83.3456 6.33326C84.2683 6.17964 85.2014 6.09884 86.1366 6.09163H90.0895C91.6776 6.02451 93.2514 5.75968 94.7748 5.30316C94.8586 5.2787 94.9485 5.28875 95.0249 5.33108C95.1013 5.37341 95.1578 5.44456 95.1821 5.52888C95.2064 5.6132 95.1964 5.70378 95.1544 5.7807C95.1124 5.85761 95.0417 5.91457 94.958 5.93903C93.3757 6.41607 91.7399 6.68955 90.0895 6.75294H86.1114C85.2078 6.75878 84.3061 6.83745 83.4151 6.98821C82.8676 7.07427 82.3147 7.12102 81.7607 7.1281Z" fill="var(--fill-0, #263238)"/>
<path id="Vector_5" d="M89.3191 9.73516H85.9408C84.9785 9.78357 84.0144 9.68712 83.0804 9.44901L82.4995 9.32819C81.6365 9.13695 80.7458 9.10891 79.8726 9.24553C79.5109 9.30041 79.1459 9.33016 78.7802 9.33456H70.8239C70.7402 9.33456 70.6599 9.30106 70.6007 9.24143C70.5415 9.18181 70.5082 9.10095 70.5082 9.01662C70.5082 8.9323 70.5415 8.85144 70.6007 8.79181C70.6599 8.73219 70.7402 8.69869 70.8239 8.69869H78.7802C79.1185 8.69483 79.4561 8.6672 79.7905 8.61602C80.7304 8.46263 81.6909 8.49287 82.6194 8.70505L83.2067 8.82587C84.0995 9.05347 85.021 9.14562 85.9408 9.09929H89.3191C89.4028 9.09929 89.4831 9.13279 89.5424 9.19242C89.6016 9.25204 89.6348 9.3329 89.6348 9.41722C89.6348 9.50155 89.6016 9.58241 89.5424 9.64203C89.4831 9.70166 89.4028 9.73516 89.3191 9.73516Z" fill="var(--fill-0, #263238)"/>
<path id="Vector_6" d="M8.8598 12.6474H0.505722C0.422493 12.6458 0.343121 12.6118 0.284258 12.5525C0.225395 12.4932 0.191614 12.4133 0.189997 12.3295C0.189997 12.2452 0.223256 12.1643 0.282466 12.1047C0.341676 12.0451 0.421987 12.0116 0.505722 12.0116H11.2404L13.3999 11.8081C13.4837 11.8042 13.5658 11.8321 13.6301 11.8862C13.6945 11.9404 13.7362 12.0169 13.7472 12.1006C13.7525 12.1846 13.7252 12.2674 13.671 12.3315C13.6168 12.3955 13.54 12.4359 13.4568 12.444L11.2719 12.6474H8.8598Z" fill="var(--fill-0, #263238)"/>
<path id="Vector_7" d="M69.6305 16.3482C69.5468 16.3482 69.4665 16.3147 69.4073 16.2551C69.3481 16.1955 69.3148 16.1146 69.3148 16.0303C69.3148 15.9459 69.3481 15.8651 69.4073 15.8055C69.4665 15.7458 69.5468 15.7123 69.6305 15.7123L72.0174 15.5152C72.0998 15.5098 72.1812 15.5364 72.2447 15.5897C72.3081 15.6429 72.3488 15.7187 72.3584 15.8014C72.3618 15.8431 72.3571 15.8852 72.3443 15.9251C72.3316 15.965 72.3111 16.002 72.2841 16.0339C72.2571 16.0658 72.2241 16.092 72.187 16.1111C72.1499 16.1301 72.1094 16.1415 72.0679 16.1447L69.681 16.3482H69.6305Z" fill="var(--fill-0, #263238)"/>
<path id="Vector_8" d="M66.8458 16.3482H66.2459C65.6145 16.3482 33.2085 15.4389 19.304 15.0765C19.2197 15.0732 19.14 15.0367 19.0822 14.9748C19.0243 14.913 18.9929 14.8308 18.9946 14.7458C19.0023 14.6631 19.0402 14.5863 19.1008 14.5299C19.1614 14.4736 19.2405 14.4418 19.3229 14.4406C33.2148 14.8285 65.6334 15.7123 66.2459 15.7123H66.8458C66.9296 15.7123 67.0099 15.7458 67.0691 15.8055C67.1283 15.8651 67.1616 15.9459 67.1616 16.0303C67.1599 16.1141 67.1261 16.194 67.0673 16.2533C67.0084 16.3126 66.9291 16.3466 66.8458 16.3482Z" fill="var(--fill-0, #263238)"/>
<path id="Vector_9" d="M15.7615 14.9493L12.2444 14.8476L7.26854 14.6504C7.18535 14.6455 7.1073 14.6083 7.05077 14.5467C6.99425 14.485 6.96367 14.4037 6.96545 14.3198C6.96707 14.278 6.97686 14.237 6.99424 14.199C7.01163 14.1611 7.03628 14.127 7.06678 14.0986C7.09728 14.0703 7.13302 14.0482 7.17197 14.0338C7.21093 14.0194 7.25233 14.0128 7.2938 14.0145L12.2696 14.2117L15.7805 14.3134C15.8642 14.3134 15.9445 14.3469 16.0037 14.4065C16.0629 14.4662 16.0962 14.547 16.0962 14.6313C16.0962 14.7157 16.0629 14.7965 16.0037 14.8562C15.9445 14.9158 15.8642 14.9493 15.7805 14.9493H15.7615Z" fill="var(--fill-0, #263238)"/>
<path id="Vector_10" d="M93.4993 23.559H86.9322L84.4948 23.152H82.7584L78.1677 22.9485C78.1262 22.9469 78.0855 22.937 78.0478 22.9195C78.0101 22.902 77.9762 22.8772 77.9481 22.8465C77.9199 22.8158 77.8981 22.7798 77.8837 22.7406C77.8694 22.7013 77.8629 22.6596 77.8646 22.6179C77.8725 22.5341 77.9112 22.4564 77.9731 22.3999C78.0351 22.3434 78.1157 22.3123 78.1993 22.3127L82.771 22.5162H84.5453L86.9891 22.9231H93.4993C93.583 22.9231 93.6633 22.9566 93.7225 23.0162C93.7818 23.0758 93.815 23.1567 93.815 23.241C93.815 23.3254 93.7818 23.4062 93.7225 23.4658C93.6633 23.5255 93.583 23.559 93.4993 23.559Z" fill="var(--fill-0, #263238)"/>
<path id="Vector_11" d="M73.2108 21.9566C72.516 22.0103 71.8173 21.9414 71.146 21.7531C71.0675 21.7255 71.0026 21.6684 70.9649 21.5937C70.9272 21.5191 70.9197 21.4326 70.9439 21.3525C70.9568 21.3121 70.9775 21.2747 71.0049 21.2425C71.0323 21.2103 71.0658 21.184 71.1034 21.165C71.1411 21.1461 71.1821 21.1349 71.2241 21.1321C71.2661 21.1294 71.3083 21.1351 71.3481 21.149C71.9638 21.3226 72.6051 21.385 73.2424 21.3334C73.3261 21.3334 73.4064 21.3669 73.4657 21.4265C73.5249 21.4862 73.5581 21.567 73.5581 21.6513C73.5566 21.6948 73.5463 21.7375 73.5277 21.7768C73.5091 21.8161 73.4828 21.8512 73.4502 21.8798C73.4176 21.9084 73.3796 21.93 73.3384 21.9432C73.2973 21.9564 73.2538 21.961 73.2108 21.9566Z" fill="var(--fill-0, #263238)"/>
<path id="Vector_12" d="M87.9299 22.1537C87.8794 22.1537 83.1498 21.9566 82.3732 21.9566H75.8061C75.7229 21.955 75.6435 21.9209 75.5846 21.8617C75.5258 21.8024 75.492 21.7225 75.4904 21.6386C75.4904 21.5543 75.5236 21.4735 75.5828 21.4138C75.6421 21.3542 75.7224 21.3207 75.8061 21.3207H82.3732C83.1625 21.3207 87.7594 21.5115 87.9552 21.5178C88.0384 21.5227 88.1164 21.5599 88.1729 21.6216C88.2295 21.6833 88.2601 21.7646 88.2583 21.8485C88.2567 21.8902 88.2469 21.9313 88.2295 21.9692C88.2121 22.0072 88.1874 22.0413 88.1569 22.0696C88.1264 22.098 88.0907 22.12 88.0517 22.1344C88.0128 22.1489 87.9714 22.1554 87.9299 22.1537Z" fill="var(--fill-0, #263238)"/>
<path id="Vector_13" d="M40.1608 6.79745H32.2803C32.197 6.79582 32.1177 6.7618 32.0588 6.70252C31.9999 6.64325 31.9662 6.56333 31.9645 6.47952C31.9645 6.3952 31.9978 6.31431 32.057 6.25469C32.1162 6.19506 32.1965 6.16158 32.2803 6.16158H40.1608C40.2445 6.16158 40.3248 6.19506 40.384 6.25469C40.4432 6.31431 40.4765 6.3952 40.4765 6.47952C40.4749 6.56333 40.4411 6.64325 40.3822 6.70252C40.3234 6.7618 40.244 6.79582 40.1608 6.79745Z" fill="var(--fill-0, #263238)"/>
<path id="Vector_14" d="M27.3423 6.44772H27.3107C26.7557 6.37521 26.197 6.33487 25.6374 6.3269H19.7713C17.7057 6.20366 15.6621 5.83223 13.6841 5.2205C12.5348 4.87713 9.78171 5.08061 8.45567 5.18235C8.04523 5.21414 7.73582 5.23321 7.5969 5.23321C7.117 5.23321 3.56825 5.53843 1.75599 5.6974C1.71449 5.70179 1.67254 5.69785 1.63256 5.68581C1.59258 5.67378 1.55536 5.65388 1.52307 5.62727C1.49077 5.60066 1.46404 5.56786 1.44441 5.53079C1.42477 5.49371 1.41263 5.45308 1.40869 5.41125C1.40524 5.36947 1.41003 5.32743 1.42278 5.28752C1.43553 5.24761 1.45599 5.21063 1.48299 5.17872C1.50998 5.1468 1.54298 5.12058 1.58008 5.10156C1.61718 5.08254 1.65765 5.0711 1.69916 5.06789C1.91385 5.06789 6.97176 4.59734 7.5969 4.59734C7.7295 4.59734 8.01996 4.59735 8.41146 4.54648C9.87643 4.43838 12.6043 4.22854 13.8672 4.61007C15.7947 5.20216 17.7849 5.56286 19.7965 5.68469H25.6627C26.2453 5.69532 26.8269 5.73564 27.4055 5.8055C27.4892 5.81056 27.5675 5.8489 27.6232 5.9121C27.6788 5.9753 27.7073 6.05819 27.7023 6.14251C27.6972 6.22684 27.6592 6.30569 27.5964 6.36174C27.5336 6.41778 27.4513 6.44643 27.3676 6.44137L27.3423 6.44772Z" fill="var(--fill-0, #263238)"/>
<path id="Vector_15" d="M57.4562 20.0172C57.2857 20.0172 56.8247 19.9599 55.9659 19.8455C54.703 19.6802 53.0423 19.464 51.8931 19.4067C51.8105 19.4018 51.7331 19.3644 51.6775 19.3025C51.622 19.2407 51.5929 19.1594 51.5963 19.0761C51.5962 19.0338 51.6048 18.9919 51.6215 18.9531C51.6383 18.9143 51.663 18.8795 51.6938 18.8508C51.7247 18.8221 51.7612 18.8001 51.8009 18.7864C51.8407 18.7726 51.8828 18.7673 51.9247 18.7709C53.0992 18.8281 54.8041 19.0507 56.048 19.216C56.6795 19.2986 57.3109 19.3813 57.4562 19.3813C57.5399 19.3813 57.6202 19.4148 57.6794 19.4744C57.7386 19.534 57.7719 19.6149 57.7719 19.6992C57.7719 19.7835 57.7386 19.8644 57.6794 19.9241C57.6202 19.9837 57.5399 20.0172 57.4562 20.0172Z" fill="var(--fill-0, #263238)"/>
<path id="Vector_16" d="M48.2054 19.2096L46.9425 19.1206C45.4965 19.0125 44.1326 18.9171 43.5769 18.9171C42.8128 18.9171 30.7648 18.7709 29.2998 18.4402C27.3333 18.1026 25.3399 17.9494 23.3452 17.9824C21.072 17.9824 17.4601 18.1413 16.4372 18.2876C15.9762 18.3575 14.8017 18.3703 13.4378 18.383C11.9299 18.3406 10.421 18.4086 8.92295 18.5865C7.96946 18.9044 3.44828 18.6373 2.9368 18.5865C2.89531 18.584 2.85471 18.5734 2.81733 18.5551C2.77994 18.5368 2.74649 18.5113 2.71892 18.48C2.69135 18.4487 2.67019 18.4122 2.65665 18.3726C2.64311 18.3331 2.63746 18.2912 2.64002 18.2494C2.64158 18.2074 2.6516 18.1661 2.66945 18.128C2.68731 18.0899 2.71265 18.0559 2.74392 18.028C2.7752 18.0001 2.81178 17.9788 2.85144 17.9655C2.89111 17.9522 2.93302 17.9471 2.97469 17.9506C4.9385 18.0714 8.08943 18.1795 8.72719 17.9506C9.36496 17.7217 11.0257 17.7344 13.4315 17.7153C14.6944 17.7153 15.9257 17.7153 16.3488 17.6263C17.4728 17.4673 21.2425 17.3147 23.3452 17.3147C25.3844 17.2821 27.4221 17.4396 29.4324 17.7853C30.7711 18.0905 42.2824 18.2494 43.5769 18.2494C44.1578 18.2494 45.5281 18.3448 46.9867 18.4529L48.2496 18.542C48.3334 18.542 48.4137 18.5754 48.4729 18.6351C48.5321 18.6947 48.5653 18.7756 48.5653 18.8599C48.5653 18.9442 48.5321 19.0251 48.4729 19.0847C48.4137 19.1443 48.3334 19.1778 48.2496 19.1778L48.2054 19.2096Z" fill="var(--fill-0, #263238)"/>
<path id="Vector_17" d="M111.109 15.6535C111.643 7.99561 107.849 1.48847 102.635 1.11943C97.4198 0.75038 92.7592 6.65918 92.2248 14.3171C91.6903 21.975 95.4844 28.4822 100.699 28.8512C105.914 29.2203 110.575 23.3115 111.109 15.6535Z" fill="var(--fill-0, #FFBE9D)"/>
<path id="Vector_18" d="M101.178 29.1928H100.685C95.3053 28.8112 91.3713 22.141 91.9207 14.3198C92.099 10.7778 93.3238 7.37021 95.4379 4.53375C97.4711 1.95848 100.035 0.642219 102.668 0.826621C105.301 1.01102 107.656 2.677 109.317 5.51298C110.95 8.6439 111.685 12.1712 111.438 15.6991C111.192 19.2269 109.974 22.6159 107.922 25.4856C106.015 27.8829 103.634 29.1928 101.178 29.1928ZM102.182 1.40526C99.9212 1.40526 97.7174 2.6325 95.9304 4.88984C93.8966 7.62649 92.7203 10.9122 92.5521 14.3261C92.028 21.7976 95.7094 28.1627 100.761 28.5188C103.186 28.6968 105.554 27.4568 107.454 25.0533C109.492 22.3185 110.671 19.032 110.839 15.617C111.145 12.2129 110.435 8.79433 108.799 5.79913C107.252 3.14755 105.074 1.59603 102.655 1.42434C102.479 1.40526 102.327 1.40526 102.182 1.40526Z" fill="var(--fill-0, #263238)"/>
<path id="Vector_19" d="M102.788 25.9816H102.434C101.254 25.891 100.111 25.5199 99.1 24.8987C98.0891 24.2775 97.2388 23.424 96.6187 22.408C94.1434 18.7136 94.5538 12.781 97.5279 9.19468C98.0385 8.51355 98.7015 7.96336 99.4629 7.5888C100.224 7.21425 101.063 7.02589 101.91 7.03907C102.68 7.10011 103.424 7.34331 104.082 7.74884C104.741 8.15437 105.295 8.71077 105.699 9.37272C107.309 11.7763 107.044 15.636 105.105 17.9633C104.769 18.4131 104.331 18.7766 103.829 19.0241C103.326 19.2716 102.773 19.3961 102.213 19.3877C101.701 19.3508 101.204 19.1914 100.765 18.9227C100.326 18.654 99.9562 18.2837 99.6875 17.8425C99.1785 16.9744 98.9428 15.9712 99.0115 14.9654C99.0803 13.9596 99.4503 12.9984 100.073 12.2087C100.301 11.9082 100.595 11.6655 100.933 11.4999C101.271 11.3343 101.642 11.2504 102.018 11.2549C102.363 11.281 102.698 11.389 102.994 11.5703C103.291 11.7515 103.54 12.0008 103.722 12.2977C104.068 12.8712 104.229 13.5382 104.184 14.2075C104.139 14.8767 103.889 15.5156 103.47 16.0366C103.309 16.2382 103.106 16.4002 102.874 16.5104C102.642 16.6206 102.388 16.676 102.131 16.6725C101.892 16.6554 101.66 16.5813 101.455 16.4564C101.25 16.3315 101.077 16.1593 100.95 15.954C100.713 15.5647 100.602 15.1106 100.633 14.6548C100.663 14.1991 100.834 13.7642 101.121 13.4105C101.174 13.3459 101.25 13.3051 101.333 13.2967C101.416 13.2884 101.498 13.3133 101.563 13.366C101.626 13.4214 101.666 13.499 101.674 13.5829C101.682 13.6668 101.658 13.7507 101.607 13.8174C101.412 14.0652 101.296 14.3659 101.272 14.6809C101.248 14.9959 101.319 15.3108 101.475 15.5852C101.547 15.7078 101.647 15.8115 101.766 15.8878C101.886 15.964 102.022 16.0107 102.163 16.0239C102.323 16.0237 102.482 15.985 102.624 15.9109C102.767 15.8368 102.89 15.7295 102.984 15.5979C103.315 15.181 103.513 14.6728 103.551 14.1403C103.589 13.6079 103.466 13.0763 103.198 12.6157C103.069 12.4026 102.893 12.223 102.682 12.0916C102.471 11.9601 102.233 11.8804 101.986 11.859C101.707 11.858 101.432 11.9231 101.183 12.049C100.934 12.1749 100.718 12.3582 100.553 12.5839C100.013 13.2658 99.6922 14.0964 99.6313 14.9659C99.5704 15.8355 99.7728 16.7032 100.212 17.4546C100.425 17.8143 100.722 18.1174 101.075 18.3386C101.429 18.5598 101.83 18.6927 102.245 18.7264C102.707 18.7278 103.163 18.6205 103.576 18.4129C103.989 18.2054 104.349 17.9033 104.625 17.5309C106.387 15.4008 106.64 11.8908 105.175 9.70337C104.822 9.12077 104.337 8.6308 103.76 8.27375C103.182 7.91669 102.529 7.70276 101.853 7.64952C101.107 7.63957 100.368 7.80712 99.6977 8.13857C99.0273 8.47003 98.444 8.95604 97.9952 9.55713C95.1853 12.9463 94.8001 18.5292 97.1238 22.0074C97.6898 22.9407 98.4672 23.7258 99.3925 24.2983C100.318 24.8708 101.364 25.2145 102.447 25.3012C104.695 25.4157 106.867 24.322 108.623 22.2173C108.678 22.1537 108.755 22.1137 108.838 22.1054C108.921 22.0971 109.005 22.1212 109.071 22.1728C109.134 22.2282 109.174 22.3064 109.181 22.3907C109.188 22.4751 109.162 22.5589 109.109 22.6242C107.341 24.8116 105.105 25.9816 102.788 25.9816Z" fill="var(--fill-0, #263238)"/>
</g>
</svg>
