<svg width="24" height="24" viewBox="0 0 24 24" fill="none" xmlns="http://www.w3.org/2000/svg">
<path d="M3.97091 13H20.029C20.2036 13 20.3654 12.9553 20.5145 12.8659C20.6636 12.7765 20.7818 12.6555 20.8691 12.5028C20.9564 12.3501 21 12.1806 21 11.9944C21 11.8156 20.9564 11.6499 20.8691 11.4972C20.7818 11.3445 20.6636 11.2235 20.5145 11.1341C20.3654 11.0447 20.2036 11 20.029 11H3.97091C3.79636 11 3.63636 11.0447 3.49091 11.1341C3.34545 11.2235 3.22727 11.3445 3.13636 11.4972C3.04545 11.6499 3 11.8156 3 11.9944C3 12.1806 3.04545 12.3501 3.13636 12.5028C3.22727 12.6555 3.34545 12.7765 3.49091 12.8659C3.63636 12.9553 3.79636 13 3.97091 13Z" fill="#EEEEFB"/>
</svg>
