<svg width="24" height="24" viewBox="0 0 24 24" fill="none" xmlns="http://www.w3.org/2000/svg">
<path d="M1 12C1 12.3289 1.11778 12.6089 1.35333 12.84C1.58889 13.0711 1.86667 13.1867 2.18667 13.1867H10.8133V21.8133C10.8133 22.1333 10.9289 22.4111 11.16 22.6467C11.3911 22.8822 11.6711 23 12 23C12.3289 23 12.6111 22.8822 12.8467 22.6467C13.0822 22.4111 13.2 22.1333 13.2 21.8133V13.1867H21.8133C22.1333 13.1867 22.4111 13.0711 22.6467 12.84C22.8822 12.6089 23 12.3289 23 12C23 11.6711 22.8822 11.3889 22.6467 11.1533C22.4111 10.9178 22.1333 10.8 21.8133 10.8H13.2V2.18667C13.2 1.86667 13.0822 1.58889 12.8467 1.35333C12.6111 1.11778 12.3289 1 12 1C11.6711 1 11.3911 1.11778 11.16 1.35333C10.9289 1.58889 10.8133 1.86667 10.8133 2.18667V10.8H2.18667C1.86667 10.8 1.58889 10.9178 1.35333 11.1533C1.11778 11.3889 1 11.6711 1 12Z" fill="#EEEEFB"/>
</svg>
