<svg preserveAspectRatio="none" width="100%" height="100%" overflow="visible" style="display: block;" viewBox="0 0 465.013 206.408" fill="none" xmlns="http://www.w3.org/2000/svg">
<g id="freepik--mountains--inject-6">
<path id="Vector" d="M257.161 206.408V108.109C257.161 108.109 243.296 93.3804 225.424 74.8118C194.639 42.8202 151.935 -0.56933 147.431 0.0060987C140.305 0.913505 103.776 39.5668 103.776 39.5668C103.776 39.5668 92.5444 30.1386 86.5688 29.8066C82.9059 29.6185 41.1985 62.3405 1.72961e-06 95.5051V206.408H257.161Z" fill="var(--fill-0, #3FD0D4)"/>
<path id="Vector_2" opacity="0.2" d="M257.161 206.408V108.109C257.161 108.109 243.296 93.3804 225.424 74.8118C194.639 42.8202 151.935 -0.56933 147.431 0.0060987C140.305 0.913505 103.776 39.5668 103.776 39.5668C103.776 39.5668 92.5444 30.1386 86.5688 29.8066C82.9059 29.6185 41.1985 62.3405 1.72961e-06 95.5051V206.408H257.161Z" fill="var(--fill-0, black)"/>
<path id="Vector_3" d="M139.386 15.2216C134.573 21.4959 144.089 16.6269 148.66 18.0434C153.23 19.4598 131.773 34.9742 135.58 38.6703C137.693 40.7285 151.404 35.2177 148.859 40.2195C148.029 41.8351 133.92 53.399 140.504 54.2843C144.433 54.8044 149.811 52.6687 147.553 58.5225C146.044 62.3659 143.787 65.8714 140.914 68.836L103.776 39.5666C103.776 39.5666 138.656 2.65065 146.933 0.127621L147.465 0.00589475C148.925 0.514928 144.211 8.94717 139.386 15.2216Z" fill="var(--fill-0, #3FD0D4)"/>
<path id="Vector_4" d="M86.8122 83.3987C81.2129 85.468 73.9647 87.3824 74.1085 84.8262C74.3963 80.1674 94.0272 64.1993 93.5735 61.964C93.1198 59.7287 76.2443 64.5645 76.4434 62.0636C76.6426 59.5627 95.167 45.5753 94.6248 43.5503C94.0825 41.5252 80.8256 44.5462 82.2309 41.5031C83.5256 38.6923 89.7004 31.0236 87.2991 29.906C87.0557 29.906 86.8012 29.8175 86.5688 29.8064C82.917 29.6183 41.1985 62.3402 1.40974e-06 95.5159V181.52C43.2235 138.695 89.7447 92.5059 91.4931 90.3481C97.1589 83.3987 90.7074 81.9269 86.8122 83.3987Z" fill="var(--fill-0, #3FD0D4)"/>
<path id="Vector_5" d="M150.286 23.5652C145.783 23.9415 138.457 28.4785 135.392 25.6124C132.326 22.7464 125.432 17.6339 122.467 20.5774C132.614 10.6181 143.813 0.470642 147.431 0.0058733C149.811 -0.303973 162.857 11.6804 179.168 27.7039C172.319 23.521 167.627 28.6334 163.554 29.7622C159.482 30.8909 154.801 23.189 150.286 23.5652Z" fill="var(--fill-0, #3FD0D4)"/>
<path id="Vector_6" opacity="0.55" d="M150.286 23.5652C145.783 23.9415 138.457 28.4785 135.392 25.6124C132.326 22.7464 125.432 17.6339 122.467 20.5774C132.614 10.6181 143.813 0.470642 147.431 0.0058733C149.811 -0.303973 162.857 11.6804 179.168 27.7039C172.319 23.521 167.627 28.6334 163.554 29.7622C159.482 30.8909 154.801 23.189 150.286 23.5652Z" fill="var(--fill-0, #434343)"/>
<path id="Vector_7" d="M103.776 39.5666L117.598 50.4555C113.426 47.1357 109.63 52.5027 103.776 52.2814C97.9224 52.0601 94.6248 46.8259 89.0033 48.4747C84.3888 49.8247 82.574 51.9051 79.3206 52.4474C73.3561 53.4433 75.0159 50.0461 71.6408 49.3046C69.3613 48.7956 58.3617 50.9424 53.6587 53.0117C70.6228 39.9429 83.8466 29.6626 86.5688 29.7733C87.2907 29.8318 88.0036 29.9728 88.6934 30.1938C90.0901 30.6481 91.4421 31.2297 92.7325 31.9311L93.8391 32.5508C96.3133 33.9976 98.6969 35.5941 100.977 37.3313C102.659 38.615 103.765 39.5445 103.765 39.5445L103.776 39.5666Z" fill="var(--fill-0, #3FD0D4)"/>
<path id="Vector_8" opacity="0.55" d="M103.776 39.5666L117.598 50.4555C113.426 47.1357 109.63 52.5027 103.776 52.2814C97.9224 52.0601 94.6248 46.8259 89.0033 48.4747C84.3888 49.8247 82.574 51.9051 79.3206 52.4474C73.3561 53.4433 75.0159 50.0461 71.6408 49.3046C69.3613 48.7956 58.3617 50.9424 53.6587 53.0117C70.6228 39.9429 83.8466 29.6626 86.5688 29.7733C87.2907 29.8318 88.0036 29.9728 88.6934 30.1938C90.0901 30.6481 91.4421 31.2297 92.7325 31.9311L93.8391 32.5508C96.3133 33.9976 98.6969 35.5941 100.977 37.3313C102.659 38.615 103.765 39.5445 103.765 39.5445L103.776 39.5666Z" fill="var(--fill-0, #434343)"/>
<path id="Vector_9" d="M465.012 206.408V66.4347C424.378 42.5987 393.969 25.4907 390.871 25.7785C380.602 26.8076 322.793 68.7143 322.793 68.7143C322.793 68.7143 273.196 39.0244 264.664 38.6592C259.374 38.4489 217.49 66.2687 174.344 95.9918C125.078 129.931 74.1639 166.338 74.1639 166.338V206.408H465.012Z" fill="var(--fill-0, #3FD0D4)"/>
<path id="Vector_10" opacity="0.2" d="M465.012 206.408V66.4347C424.378 42.5987 393.969 25.4907 390.871 25.7785C380.602 26.8076 322.793 68.7143 322.793 68.7143C322.793 68.7143 273.196 39.0244 264.664 38.6592C259.374 38.4489 217.49 66.2687 174.344 95.9918C125.078 129.931 74.1639 166.338 74.1639 166.338V206.408H465.012Z" fill="var(--fill-0, black)"/>
<path id="Vector_11" d="M379.296 42.7316C372.358 49.7142 386.068 44.3029 392.652 45.8743C399.237 47.4457 369.691 61.2449 375.157 65.3503C378.211 67.641 392.973 62.1523 389.255 67.7185C385.537 73.2846 361.458 90.0052 361.458 90.0052L322.804 68.7365C322.804 68.7365 378.256 28.8106 390.118 25.9556L390.882 25.8118C393.029 26.3872 386.245 35.749 379.296 42.7316Z" fill="var(--fill-0, #3FD0D4)"/>
<path id="Vector_12" d="M128.553 206.408C185.941 166.515 268.537 108.95 271.658 105.984C279.813 98.2382 270.551 96.6669 264.918 98.2382C256.829 100.54 246.405 102.665 246.626 99.8428C247.036 94.6418 275.398 76.8921 274.656 74.3912C273.915 71.8903 252.989 80.9311 253.288 78.1536C253.587 75.376 276.936 56.1656 276.15 53.8971C275.365 51.6285 258.71 57.2943 260.735 53.8971C262.583 50.7986 268.924 40.2196 265.704 38.7921C265.34 38.7083 264.97 38.6528 264.597 38.6261C258.223 38.3605 217.778 65.1843 183.816 88.6551C157.678 106.682 74.1307 166.294 74.1307 166.294V206.363L128.553 206.408Z" fill="var(--fill-0, #3FD0D4)"/>
<path id="Vector_13" d="M247.512 68.7363C255.357 67.7625 262.417 61.3111 268.537 58.777C274.656 56.2429 281.174 62.1631 289.728 62.3955C294.697 62.5394 301.071 59.8504 305.541 58.7106C290.348 50.057 269.865 38.9247 264.597 38.7034C261.012 38.5595 240.131 50.2783 213.24 68.7584C216.837 68.4375 222.514 68.2051 226.265 67.5633C233.004 66.3461 234.93 70.3077 247.512 68.7363Z" fill="var(--fill-0, #3FD0D4)"/>
<path id="Vector_14" opacity="0.55" d="M247.512 68.7363C255.357 67.7625 262.417 61.3111 268.537 58.777C274.656 56.2429 281.174 62.1631 289.728 62.3955C294.697 62.5394 301.071 59.8504 305.541 58.7106C290.348 50.057 269.865 38.9247 264.597 38.7034C261.012 38.5595 240.131 50.2783 213.24 68.7584C216.837 68.4375 222.514 68.2051 226.265 67.5633C233.004 66.3461 234.93 70.3077 247.512 68.7363Z" fill="var(--fill-0, #434343)"/>
<path id="Vector_15" d="M392.055 26.0332C391.651 25.9149 391.235 25.8443 390.815 25.8229C384.984 26.5533 364.954 39.5004 348.134 50.9868C350.912 50.3229 354.608 49.4376 357.54 48.7737C362.94 47.5785 368.661 49.8802 373.121 52.9566C377.581 56.0329 388.259 51.186 394.832 50.7434C401.406 50.3008 408.311 55.9001 417.717 57.4825C425.917 58.8658 429.247 51.7172 440.17 51.9496C415.161 37.5417 397.09 27.7041 392.055 26.0332Z" fill="var(--fill-0, #3FD0D4)"/>
<path id="Vector_16" opacity="0.55" d="M392.055 26.0332C391.651 25.9149 391.235 25.8443 390.815 25.8229C384.984 26.5533 364.954 39.5004 348.134 50.9868C350.912 50.3229 354.608 49.4376 357.54 48.7737C362.94 47.5785 368.661 49.8802 373.121 52.9566C377.581 56.0329 388.259 51.186 394.832 50.7434C401.406 50.3008 408.311 55.9001 417.717 57.4825C425.917 58.8658 429.247 51.7172 440.17 51.9496C415.161 37.5417 397.09 27.7041 392.055 26.0332Z" fill="var(--fill-0, #434343)"/>
</g>
</svg>
