<svg width="18" height="24" viewBox="0 0 18 24" fill="none" xmlns="http://www.w3.org/2000/svg">
<path d="M12.7316 6.85714C13.4262 6.85714 14.1053 6.65606 14.6829 6.27932C15.2605 5.90259 15.7107 5.36712 15.9765 4.74063C16.2423 4.11414 16.3119 3.42477 16.1764 2.75969C16.0408 2.09461 15.7063 1.4837 15.2151 1.00421C14.7239 0.524712 14.0981 0.198173 13.4168 0.0658806C12.7355 -0.0664116 12.0293 0.00148553 11.3875 0.260986C10.7457 0.520486 10.1971 0.959935 9.8112 1.52376C9.42526 2.08759 9.21927 2.75047 9.21927 3.42857C9.21927 4.33789 9.58932 5.20996 10.248 5.85294C10.9067 6.49592 11.8 6.85714 12.7316 6.85714ZM12.7316 1.71429C13.0789 1.71429 13.4184 1.81483 13.7072 2.0032C13.996 2.19156 14.2211 2.4593 14.354 2.77254C14.4869 3.08579 14.5217 3.43047 14.454 3.76301C14.3862 4.09555 14.2189 4.40101 13.9733 4.64076C13.7277 4.8805 13.4148 5.04377 13.0742 5.10992C12.7335 5.17606 12.3804 5.14212 12.0595 5.01237C11.7386 4.88262 11.4643 4.66289 11.2714 4.38098C11.0784 4.09907 10.9754 3.76763 10.9754 3.42857C10.9754 2.97392 11.1604 2.53788 11.4898 2.21639C11.8191 1.8949 12.2658 1.71429 12.7316 1.71429ZM18 13.7143V23.1429C18 23.3702 17.9075 23.5882 17.7428 23.7489C17.5781 23.9097 17.3548 24 17.1219 24C16.889 24 16.6657 23.9097 16.501 23.7489C16.3364 23.5882 16.2439 23.3702 16.2439 23.1429V14.535C13.4176 14.2939 12.4736 12.8721 11.634 11.6036C11.3212 11.1332 11.0237 10.6854 10.6319 10.2975L9.1611 13.5986L13.2441 16.4454C13.3575 16.5249 13.4497 16.6297 13.5133 16.751C13.5769 16.8723 13.6099 17.0066 13.6096 17.1429V23.1429C13.6096 23.3702 13.5171 23.5882 13.3525 23.7489C13.1878 23.9097 12.9644 24 12.7316 24C12.4987 24 12.2753 23.9097 12.1107 23.7489C11.946 23.5882 11.8535 23.3702 11.8535 23.1429V17.5843L8.44327 15.2057L4.75646 23.4846C4.68823 23.6378 4.57563 23.7682 4.4325 23.8598C4.28937 23.9513 4.12196 24.0001 3.95083 24C3.83026 24.0003 3.71097 23.9758 3.6007 23.9282C3.38744 23.8374 3.21981 23.6677 3.13461 23.4564C3.04941 23.2451 3.05362 23.0094 3.1463 22.8011L9.45964 8.625C9.50757 8.51746 9.5776 8.42066 9.6654 8.3406C9.75319 8.26053 9.85689 8.19891 9.97006 8.15954C10.0832 8.12017 10.2035 8.10389 10.3234 8.11171C10.4432 8.11953 10.5602 8.15128 10.667 8.205C10.9824 8.36572 11.2772 8.56245 11.5451 8.79107C12.2442 9.3825 12.6986 10.0671 13.0993 10.6714C13.9422 11.94 14.5503 12.8571 17.1164 12.8571C17.2322 12.8564 17.347 12.8781 17.4541 12.9208C17.5613 12.9636 17.6588 13.0266 17.7409 13.1063C17.823 13.186 17.8882 13.2807 17.9326 13.385C17.9771 13.4894 18 13.6013 18 13.7143ZM3.95083 14.5714C4.12263 14.5713 4.29064 14.5221 4.43403 14.4297C4.57743 14.3373 4.68992 14.2059 4.75756 14.0518L7.39178 8.05179C7.48337 7.84292 7.48627 7.6071 7.39983 7.39614C7.31339 7.18519 7.14468 7.01638 6.93079 6.92679L3.85754 5.64107C3.64357 5.55166 3.40199 5.54884 3.18589 5.63322C2.96978 5.7176 2.79684 5.88228 2.70507 6.09107L0.0708482 12.0911C-0.020744 12.2999 -0.0236382 12.5358 0.0628025 12.7467C0.149243 12.9577 0.317946 13.1265 0.531836 13.2161L3.60509 14.5018C3.71432 14.5476 3.83194 14.5713 3.95083 14.5714ZM2.03115 11.9786L3.97278 7.55357L5.43258 8.16429L3.48985 12.5882L2.03115 11.9786Z" fill="#5856D6"/>
</svg>
