<svg preserveAspectRatio="none" width="100%" height="100%" overflow="visible" style="display: block;" viewBox="0 0 92.8438 101.001" fill="none" xmlns="http://www.w3.org/2000/svg">
<g id="freepik--character-1--inject-2">
<path id="Vector" d="M43.0986 59.7625C43.0986 59.7625 55.3867 58.0139 59.289 58.7451C63.1914 59.4764 62.7557 64.131 61.1834 68.6393C59.611 73.1476 49.4763 88.8726 49.4763 88.8726L47.3104 86.8379L49.7667 71.577C49.7667 71.577 37.9144 74.1968 33.4311 74.4893C28.9479 74.7818 29.8193 70.5596 30.9748 66.3374C32.1304 62.1153 39.1963 59.47 43.0986 59.7625Z" fill="var(--fill-0, #FFBE9D)"/>
<path id="Vector_2" d="M49.4573 89.1906C49.3783 89.1894 49.3023 89.1601 49.2426 89.1079L47.0768 87.0668C47.0394 87.0313 47.0108 86.9876 46.9932 86.939C46.9757 86.8904 46.9697 86.8383 46.9757 86.787L49.3626 71.9331C47.1399 72.4163 37.3651 74.4766 33.4311 74.7563C32.0293 74.8454 31.0127 74.5083 30.4002 73.7517C29.1373 72.2001 29.8382 69.1734 30.6528 66.2039C31.8273 61.8991 38.9879 59.1267 43.086 59.4192C43.9385 59.2984 55.5003 57.6896 59.3458 58.4081C59.8934 58.4845 60.4168 58.6842 60.8771 58.9925C61.3373 59.3007 61.7226 59.7096 62.0042 60.1886C63.2671 62.395 62.4084 66.0449 61.4612 68.7219C59.8826 73.2175 50.1393 88.3767 49.7225 89.0189C49.6981 89.059 49.6649 89.093 49.6255 89.1183C49.5862 89.1436 49.5416 89.1596 49.4952 89.1652L49.4573 89.1906ZM47.6261 86.717L49.4005 88.383C50.8402 86.1257 59.4342 72.6071 60.8676 68.5375C61.7706 65.9941 62.5978 62.5286 61.4549 60.5319C61.2214 60.131 60.8995 59.7894 60.5142 59.5336C60.1288 59.2779 59.6901 59.1147 59.2322 59.0567C55.4435 58.3445 43.2628 60.0614 43.1428 60.0741H43.0734C39.19 59.7816 32.3387 62.3632 31.259 66.3883C30.5265 69.078 29.8256 72.0539 30.8927 73.3829C31.3726 73.9806 32.1556 74.2349 33.4185 74.1523C37.8387 73.8661 49.5899 71.2718 49.7036 71.2463C49.7541 71.2357 49.8064 71.2377 49.8559 71.2521C49.9054 71.2665 49.9507 71.2929 49.9878 71.329C50.0253 71.3641 50.0536 71.408 50.0702 71.4569C50.0867 71.5057 50.0909 71.5579 50.0825 71.6088L47.6261 86.717Z" fill="var(--fill-0, #263238)"/>
<path id="Vector_3" d="M57.9882 64.8559C55.7024 67.5959 52.9157 69.8688 49.7794 71.5516C52.8016 70.6233 55.71 69.3541 58.4492 67.7681" fill="var(--fill-0, #FFBE9D)"/>
<path id="Vector_4" d="M49.7794 71.8695C49.7078 71.8698 49.6383 71.8456 49.5821 71.8009C49.526 71.7561 49.4866 71.6935 49.4705 71.6233C49.4543 71.5531 49.4624 71.4794 49.4933 71.4144C49.5241 71.3494 49.576 71.2968 49.6405 71.2654C52.7437 69.6035 55.5039 67.3612 57.7735 64.6587C57.7988 64.6256 57.8305 64.5979 57.8666 64.5773C57.9027 64.5567 57.9426 64.5436 57.9838 64.5389C58.0251 64.5342 58.0668 64.5378 58.1067 64.5497C58.1465 64.5615 58.1835 64.5813 58.2155 64.6079C58.2806 64.6603 58.3224 64.7365 58.3319 64.8199C58.3413 64.9033 58.3177 64.9871 58.2661 65.053C56.6142 67.0717 54.6709 68.8293 52.5009 70.2671C54.5092 69.5233 56.4454 68.5952 58.285 67.4947C58.3206 67.4728 58.3602 67.4582 58.4014 67.4518C58.4426 67.4453 58.4847 67.4472 58.5253 67.4572C58.5658 67.4673 58.6039 67.4853 58.6374 67.5103C58.671 67.5353 58.6993 67.5667 58.7207 67.6028C58.7636 67.6749 58.777 67.7609 58.7582 67.8427C58.7393 67.9246 58.6897 67.9958 58.6197 68.0416C55.8537 69.6398 52.9179 70.9196 49.8678 71.8568L49.7794 71.8695Z" fill="var(--fill-0, #263238)"/>
<path id="Vector_5" d="M50.2972 100.337C50.2972 100.337 41.5074 98.9194 37.0367 98.9194C32.5661 98.9194 23.7384 98.3344 16.6535 98.1881C9.56867 98.0419 7.11233 97.8956 3.64567 95.7146C0.17901 93.5336 -0.54716 84.3643 1.32825 78.9785C3.20365 73.5927 8.99405 73.3002 8.99405 73.3002L51.4906 72.4227L50.2972 100.337Z" fill="var(--fill-0, #AF5426)"/>
<path id="Vector_6" d="M50.2972 100.655H50.2467C50.1583 100.655 41.4064 99.2373 37.0304 99.2373C34.694 99.2373 31.139 99.0784 27.3819 98.9067C23.77 98.7477 20.0444 98.576 16.6472 98.5061C9.44869 98.3598 7.00498 98.2072 3.47517 95.9626C-0.0546304 93.718 -0.944971 84.4279 1.03147 78.8513C3.0079 73.2748 8.91827 72.9632 8.9751 72.9632L51.4843 72.0857C51.5277 72.0857 51.5706 72.0944 51.6105 72.1115C51.6504 72.1286 51.6865 72.1536 51.7166 72.1851C51.7467 72.2166 51.7701 72.2539 51.7855 72.2947C51.801 72.3355 51.808 72.3791 51.8063 72.4227L50.6192 100.331C50.6175 100.376 50.6066 100.42 50.587 100.461C50.5674 100.501 50.5397 100.537 50.5055 100.566C50.4482 100.619 50.3747 100.65 50.2972 100.655ZM51.1496 72.7534L8.99405 73.6181C8.94353 73.6181 3.40571 73.9679 1.62503 79.0803C-0.212493 84.3325 0.526306 93.3873 3.80353 95.4603C7.19441 97.5904 9.58761 97.7367 16.6535 97.8829C20.0634 97.9529 23.7952 98.1246 27.3882 98.2835C31.1769 98.4552 34.6877 98.6142 37.0115 98.6142C40.9517 98.6142 48.2955 99.7206 49.9751 99.9813L51.1496 72.7534Z" fill="var(--fill-0, #263238)"/>
<path id="Vector_7" d="M24.9824 78.6161H23.1953C23.1116 78.6161 23.0313 78.5826 22.9721 78.523C22.9129 78.4633 22.8796 78.3825 22.8796 78.2981C22.8796 78.2138 22.9129 78.1329 22.9721 78.0733C23.0313 78.0137 23.1116 77.9802 23.1953 77.9802H24.9824C25.0661 77.9802 25.1464 78.0137 25.2056 78.0733C25.2648 78.1329 25.2981 78.2138 25.2981 78.2981C25.2981 78.3825 25.2648 78.4633 25.2056 78.523C25.1464 78.5826 25.0661 78.6161 24.9824 78.6161Z" fill="var(--fill-0, #263238)"/>
<path id="Vector_8" d="M31.3474 78.6161H27.5587C27.4749 78.6161 27.3946 78.5826 27.3354 78.523C27.2762 78.4633 27.2429 78.3825 27.2429 78.2982C27.2429 78.2138 27.2762 78.1329 27.3354 78.0733C27.3946 78.0137 27.4749 77.9802 27.5587 77.9802H31.3474C31.8787 77.9642 32.4083 77.9111 32.9323 77.8212C33.855 77.6676 34.7881 77.5868 35.7233 77.5796H39.6762C41.2643 77.5125 42.838 77.2477 44.3615 76.7911C44.4009 76.7784 44.4424 76.7738 44.4836 76.7775C44.5248 76.7813 44.5648 76.7933 44.6013 76.8128C44.6378 76.8324 44.67 76.8591 44.6961 76.8914C44.7221 76.9237 44.7415 76.961 44.753 77.001C44.7657 77.041 44.7704 77.0833 44.7668 77.1252C44.7631 77.1671 44.7513 77.2078 44.7319 77.2451C44.7125 77.2823 44.686 77.3154 44.6539 77.3422C44.6217 77.3691 44.5846 77.3893 44.5447 77.4016C42.9624 77.8786 41.3266 78.1521 39.6762 78.2155H35.698C34.7945 78.2213 33.8928 78.3 33.0018 78.4508C32.4549 78.5453 31.902 78.6006 31.3474 78.6161Z" fill="var(--fill-0, #263238)"/>
<path id="Vector_9" d="M38.9058 81.2168H35.5276C34.5673 81.2655 33.6053 81.1691 32.6734 80.9306L32.0988 80.8353C31.2362 80.6409 30.3449 80.6128 29.472 80.7526C29.1103 80.8075 28.7453 80.8372 28.3795 80.8416H20.4233C20.3395 80.8416 20.2592 80.8081 20.2 80.7485C20.1408 80.6889 20.1076 80.608 20.1076 80.5237C20.1076 80.4394 20.1408 80.3585 20.2 80.2989C20.2592 80.2392 20.3395 80.2058 20.4233 80.2058H28.3795C28.7178 80.2019 29.0554 80.1743 29.3899 80.1231C30.3298 79.9697 31.2902 79.9999 32.2188 80.2121L32.806 80.3329C33.6988 80.5605 34.6204 80.6527 35.5402 80.6064H38.9184C39.0022 80.6064 39.0825 80.6398 39.1417 80.6995C39.2009 80.7591 39.2342 80.84 39.2342 80.9243C39.2277 81.0064 39.1899 81.0827 39.1286 81.1373C39.0674 81.1918 38.9875 81.2203 38.9058 81.2168Z" fill="var(--fill-0, #263238)"/>
<path id="Vector_10" d="M8.87407 85.6234H0.526306C0.44257 85.6234 0.362264 85.5899 0.303054 85.5302C0.243844 85.4706 0.210581 85.3897 0.210581 85.3054C0.210581 85.2211 0.243844 85.1402 0.303054 85.0806C0.362264 85.021 0.44257 84.9875 0.526306 84.9875H11.2609L13.4205 84.7904C13.5033 84.7833 13.5855 84.8094 13.6494 84.8629C13.7132 84.9165 13.7535 84.9932 13.7615 85.0765C13.7658 85.1183 13.7619 85.1605 13.75 85.2008C13.738 85.2411 13.7183 85.2785 13.6919 85.311C13.6654 85.3436 13.6329 85.3705 13.596 85.3903C13.5592 85.41 13.5189 85.4223 13.4773 85.4262L11.2862 85.6234H8.87407Z" fill="var(--fill-0, #263238)"/>
<path id="Vector_11" d="M19.2172 87.8298C19.1335 87.8298 19.0532 87.7963 18.994 87.7367C18.9348 87.6771 18.9015 87.5962 18.9015 87.5119C18.9015 87.4276 18.9348 87.3467 18.994 87.2871C19.0532 87.2274 19.1335 87.1939 19.2172 87.1939L21.6041 86.9968C21.6453 86.9925 21.6869 86.9964 21.7265 87.0086C21.7661 87.0207 21.8028 87.0406 21.8346 87.0673C21.8664 87.094 21.8926 87.1268 21.9116 87.1639C21.9305 87.2009 21.9419 87.2414 21.9451 87.283C21.9485 87.3248 21.9437 87.3668 21.931 87.4067C21.9182 87.4466 21.8978 87.4836 21.8708 87.5155C21.8438 87.5474 21.8108 87.5736 21.7737 87.5927C21.7366 87.6117 21.6961 87.6231 21.6546 87.6263L19.2677 87.8298H19.2172Z" fill="var(--fill-0, #263238)"/>
<path id="Vector_12" d="M16.4325 87.8298H12.2523L7.27019 87.6263C7.22872 87.6247 7.18797 87.6148 7.15029 87.5973C7.1126 87.5798 7.07871 87.555 7.05056 87.5243C7.02241 87.4936 7.00055 87.4576 6.98622 87.4184C6.9719 87.3791 6.9654 87.3374 6.96709 87.2957C6.96872 87.2539 6.97851 87.2129 6.9959 87.1749C7.01329 87.137 7.03793 87.1029 7.06843 87.0745C7.09892 87.0462 7.13467 87.0242 7.17363 87.0097C7.21258 86.9953 7.25398 86.9888 7.29545 86.9905L12.265 87.1939H16.4325C16.5163 87.1939 16.5966 87.2274 16.6558 87.2871C16.715 87.3467 16.7483 87.4276 16.7483 87.5119C16.7466 87.5957 16.7128 87.6756 16.654 87.7349C16.5951 87.7942 16.5158 87.8282 16.4325 87.8298Z" fill="var(--fill-0, #263238)"/>
<path id="Vector_13" d="M43.086 95.0406H36.5189L34.0815 94.6336H32.3451L27.7544 94.4302C27.7129 94.4285 27.6722 94.4187 27.6345 94.4012C27.5968 94.3836 27.5629 94.3588 27.5348 94.3281C27.5066 94.2974 27.4848 94.2614 27.4705 94.2222C27.4561 94.1829 27.4496 94.1413 27.4513 94.0995C27.4592 94.0157 27.4979 93.938 27.5598 93.8815C27.6218 93.825 27.7024 93.7939 27.786 93.7943L32.3577 93.9978H34.1321L36.5758 94.4047H43.086C43.1697 94.4047 43.2501 94.4382 43.3093 94.4978C43.3685 94.5575 43.4017 94.6383 43.4017 94.7227C43.4017 94.807 43.3685 94.8878 43.3093 94.9475C43.2501 95.0071 43.1697 95.0406 43.086 95.0406Z" fill="var(--fill-0, #263238)"/>
<path id="Vector_14" d="M22.7975 93.4382C22.0936 93.4908 21.386 93.4176 20.7074 93.222C20.6289 93.1944 20.564 93.1373 20.5263 93.0626C20.4887 92.988 20.4812 92.9015 20.5054 92.8214C20.5182 92.781 20.5389 92.7436 20.5663 92.7114C20.5937 92.6793 20.6272 92.6529 20.6649 92.6339C20.7025 92.615 20.7436 92.6038 20.7856 92.6011C20.8276 92.5983 20.8697 92.604 20.9095 92.6179C21.5252 92.7915 22.1665 92.8539 22.8038 92.8023C22.8876 92.8023 22.9679 92.8358 23.0271 92.8954C23.0863 92.9551 23.1196 93.0359 23.1196 93.1203C23.1196 93.1625 23.1112 93.2044 23.0949 93.2434C23.0787 93.2824 23.0549 93.3177 23.0249 93.3473C22.9949 93.3769 22.9593 93.4002 22.9203 93.4158C22.8813 93.4314 22.8395 93.439 22.7975 93.4382Z" fill="var(--fill-0, #263238)"/>
<path id="Vector_15" d="M37.5166 93.6353C37.4661 93.6353 32.7365 93.4382 31.9599 93.4382H25.3928C25.3096 93.4366 25.2302 93.4025 25.1713 93.3433C25.1125 93.284 25.0787 93.2041 25.0771 93.1203C25.0771 93.0359 25.1103 92.9551 25.1695 92.8955C25.2287 92.8358 25.3091 92.8023 25.3928 92.8023H31.9599C32.7555 92.8023 37.3461 92.9931 37.5419 92.9994C37.6251 93.0044 37.7031 93.0416 37.7596 93.1032C37.8162 93.1649 37.8468 93.2462 37.845 93.3301C37.8434 93.3719 37.8336 93.4129 37.8162 93.4508C37.7988 93.4888 37.7741 93.5229 37.7436 93.5513C37.7131 93.5796 37.6774 93.6016 37.6384 93.616C37.5995 93.6305 37.5581 93.637 37.5166 93.6353Z" fill="var(--fill-0, #263238)"/>
<path id="Vector_16" d="M60.7042 87.1356C61.2386 79.4776 57.4445 72.9705 52.2297 72.6014C47.015 72.2324 42.3543 78.1412 41.8199 85.7991C41.2854 93.4571 45.0796 99.9642 50.2943 100.333C55.5091 100.702 60.1697 94.7935 60.7042 87.1356Z" fill="var(--fill-0, #FFBE9D)"/>
<path id="Vector_17" d="M50.7644 100.674H50.2719C47.6451 100.49 45.2834 98.824 43.6291 95.9817C41.9957 92.8519 41.261 89.3256 41.5075 85.7987C41.754 82.2718 42.972 78.8839 45.0246 76.0154C47.0578 73.4401 49.6278 72.1302 52.2547 72.3082C54.8815 72.4863 57.2431 74.1586 58.8975 76.9946C60.5963 80.0972 61.3372 83.6395 61.0255 87.1685C60.8434 90.7097 59.619 94.1162 57.5083 96.9546C55.6013 99.3645 53.2208 100.674 50.7644 100.674ZM51.7684 72.906C49.5078 72.906 47.3041 74.1332 45.5171 76.3905C43.5484 79.1615 42.3806 82.4275 42.1431 85.8262C41.9057 89.2249 42.608 92.6235 44.1721 95.6447C45.7191 98.2962 47.904 99.8478 50.3161 100.019C52.7282 100.191 55.1088 98.9575 57.0095 96.5539C58.9849 93.786 60.1569 90.5193 60.3944 87.119C60.6319 83.7188 59.9256 80.319 58.3545 77.2998C56.8074 74.6482 54.6289 73.0967 52.2105 72.925C52.0652 72.9123 51.9137 72.906 51.7684 72.906Z" fill="var(--fill-0, #263238)"/>
<path id="Vector_18" d="M52.3746 97.4632H52.021C50.8402 97.3726 49.6976 97.0015 48.6867 96.3803C47.6758 95.7591 46.8255 94.9056 46.2054 93.8897C43.7301 90.1953 44.1405 84.2626 47.1147 80.6763C47.6245 79.9944 48.2873 79.4436 49.049 79.069C49.8106 78.6944 50.6494 78.5065 51.4969 78.5207C52.2663 78.5817 53.0105 78.8249 53.6689 79.2304C54.3273 79.636 54.8812 80.1924 55.2856 80.8543C56.8958 83.2579 56.6306 87.1176 54.6921 89.4449C54.3574 89.897 53.9204 90.2621 53.4174 90.5099C52.9144 90.7576 52.3599 90.8808 51.8 90.8693C51.2873 90.8324 50.7908 90.673 50.3515 90.4043C49.9123 90.1356 49.5429 89.7653 49.2742 89.3241C48.7652 88.456 48.5295 87.4528 48.5983 86.447C48.667 85.4412 49.037 84.48 49.6594 83.6903C49.8868 83.3891 50.1812 83.1459 50.519 82.9802C50.8568 82.8145 51.2286 82.731 51.6043 82.7365C51.9499 82.7631 52.2844 82.8714 52.5806 83.0525C52.8768 83.2337 53.1265 83.4827 53.3092 83.7793C53.6529 84.3534 53.8131 85.02 53.7679 85.6889C53.7227 86.3577 53.4744 86.9963 53.0566 87.5182C52.8972 87.7209 52.6934 87.8837 52.4612 87.994C52.229 88.1043 51.9746 88.1591 51.7179 88.1541C51.4787 88.137 51.2469 88.0629 51.0416 87.938C50.8363 87.8131 50.6634 87.6409 50.5371 87.4356C50.2998 87.0463 50.1887 86.5922 50.2193 86.1364C50.2498 85.6807 50.4205 85.2458 50.7076 84.8921C50.7606 84.8275 50.8368 84.7867 50.9195 84.7783C51.0023 84.77 51.085 84.7949 51.1496 84.8476C51.2128 84.903 51.2525 84.9806 51.2607 85.0645C51.269 85.1484 51.245 85.2323 51.1938 85.299C50.9991 85.5468 50.8824 85.8475 50.8588 86.1625C50.8352 86.4775 50.9057 86.7924 51.0612 87.0668C51.1334 87.1894 51.2334 87.2931 51.353 87.3694C51.4727 87.4457 51.6085 87.4923 51.7495 87.5055C51.9096 87.5028 52.067 87.463 52.2094 87.3891C52.3517 87.3152 52.4753 87.2093 52.5704 87.0795C52.9015 86.6626 53.0993 86.1544 53.1377 85.622C53.176 85.0895 53.053 84.5579 52.7851 84.0973C52.6561 83.8842 52.4792 83.7046 52.2686 83.5732C52.058 83.4417 51.8196 83.362 51.5727 83.3406C51.294 83.3396 51.019 83.4047 50.77 83.5306C50.521 83.6566 50.3049 83.8398 50.1393 84.0655C49.6001 84.7474 49.2789 85.578 49.218 86.4475C49.1572 87.3171 49.3595 88.1848 49.7983 88.9362C50.0122 89.2959 50.3083 89.599 50.6619 89.8202C51.0156 90.0414 51.4166 90.1743 51.8316 90.208C52.2939 90.212 52.7506 90.1058 53.1644 89.898C53.5781 89.6902 53.9372 89.3868 54.2122 89.0125C55.9739 86.8824 56.2265 83.3724 54.7615 81.185C54.4088 80.6024 53.9238 80.1124 53.3464 79.7554C52.769 79.3983 52.1156 79.1844 51.4401 79.1311C50.6934 79.1217 49.955 79.2895 49.2847 79.6209C48.6145 79.9523 48.0311 80.438 47.5819 81.0387C44.772 84.4279 44.3805 90.0108 46.7105 93.4891C47.2765 94.4223 48.0539 95.2074 48.9792 95.7799C49.9044 96.3524 50.9511 96.6961 52.0337 96.7829C54.269 96.8973 56.4538 95.8036 58.2092 93.6989C58.2642 93.6353 58.3413 93.5953 58.4246 93.587C58.508 93.5787 58.5913 93.6028 58.6576 93.6544C58.7211 93.7098 58.7607 93.788 58.7678 93.8723C58.7749 93.9567 58.7489 94.0405 58.6954 94.1058C56.9274 96.2932 54.6921 97.4632 52.3746 97.4632Z" fill="var(--fill-0, #263238)"/>
<path id="Vector_19" d="M23.2964 27.1551C23.2964 27.1551 22.4313 27.0089 18.9583 33.2722C15.4853 39.5355 13.1553 51.3182 14.4813 59.1775C15.8074 67.0369 21.9956 74.1713 27.6344 74.6101C33.2733 75.0488 38.5901 72.7025 40.9328 70.5342C44.2542 67.4756 46.4201 63.2534 44.5447 60.2013C42.6693 57.1491 36.8852 51.7569 36.0138 48.8447C35.1424 45.9324 37.3146 37.4944 35.4392 33.4185C33.5637 29.3425 29.5098 27.0089 27.1987 26.7227C25.8826 26.5319 24.5399 26.6807 23.2964 27.1551Z" fill="var(--fill-0, #0D7BB1)"/>
<path id="Vector_20" d="M28.9794 74.9789C28.5248 74.9789 28.0638 74.9789 27.6092 74.928C21.7556 74.4766 15.4727 67.1386 14.1656 59.2157C12.7954 50.9494 15.4285 39.0268 18.6805 33.0942C20.8527 29.1836 22.4692 26.9835 23.208 26.8309C24.4928 26.3458 25.8779 26.1927 27.2366 26.3857C29.5793 26.6782 33.7595 29.0055 35.7233 33.2595C36.8599 35.7267 36.5695 39.6182 36.3106 43.1028C36.1401 45.411 35.9759 47.5856 36.3106 48.7366C36.8094 50.4025 39.0195 52.9587 41.1601 55.4323C42.4816 56.8688 43.6992 58.3988 44.8036 60.0105C46.9379 63.4824 44.1721 67.9653 41.1348 70.7504C38.7669 72.9568 33.9931 74.9789 28.9794 74.9789ZM23.2964 27.4731C23.1827 27.5239 22.1724 28.0772 19.2109 33.4248C15.9716 39.2621 13.4142 50.9812 14.7908 59.1267C16.0537 66.7571 22.0651 73.8598 27.6534 74.2922C32.9323 74.6991 38.2238 72.5944 40.7181 70.2989C43.5659 67.6791 46.2054 63.5078 44.2731 60.3666C43.1837 58.7833 41.9852 57.279 40.6865 55.8647C38.508 53.3212 36.2664 50.7332 35.7107 48.9337C35.3381 47.6619 35.496 45.5445 35.7107 43.071C35.9633 39.6945 36.2474 35.8666 35.1803 33.5329C33.3427 29.5397 29.3267 27.2823 27.1924 27.0153C25.9316 26.8383 24.6469 26.9804 23.4542 27.4286C23.4148 27.4551 23.369 27.4704 23.3216 27.4731H23.2964Z" fill="var(--fill-0, #263238)"/>
<path id="Vector_21" d="M41.9431 11.4364C41.9431 11.4364 41.078 13.91 40.9328 14.6158C40.7875 15.3216 41.5074 16.3581 41.5074 18.1067C41.5074 19.8554 40.2066 21.2861 39.9161 21.8901C39.6257 22.4942 39.1963 24.0775 37.4598 24.2174C36.0975 24.2555 34.7363 24.1101 33.4122 23.785L32.2567 27.861L26.1884 23.785L27.344 18.1067C28.0655 15.6055 29.3636 13.3112 31.1327 11.411C33.8795 8.64499 37.3461 8.64499 38.9374 8.64499C40.5286 8.64499 41.9431 11.4364 41.9431 11.4364Z" fill="var(--fill-0, #FFBE9D)"/>
<path id="Vector_22" d="M32.2567 28.2043C32.1933 28.2039 32.1316 28.184 32.0798 28.1471L26.0116 24.0712C25.9597 24.0368 25.9193 23.9874 25.8957 23.9296C25.872 23.8718 25.8662 23.8081 25.879 23.7469L27.0346 18.0686C27.753 15.5066 29.0718 13.1559 30.8801 11.2139C33.7153 8.35249 37.3524 8.35249 38.9058 8.35249C40.6676 8.35249 42.1578 11.1694 42.2209 11.2902C42.2395 11.33 42.2491 11.3734 42.2491 11.4174C42.2491 11.4613 42.2395 11.5048 42.2209 11.5446C42.2209 11.5446 41.3622 14.0054 41.2232 14.7239C41.2089 15.089 41.2713 15.453 41.4064 15.7922C41.6572 16.5558 41.7914 17.3534 41.8042 18.1576C41.7078 19.4115 41.249 20.6096 40.4844 21.604C40.3742 21.759 40.273 21.9204 40.1813 22.0873C40.1435 22.1572 40.1056 22.2462 40.0614 22.348C39.752 23.0792 39.1647 24.4464 37.4661 24.5862C36.1712 24.6382 34.8753 24.512 33.6143 24.2111L32.5408 28.0263C32.5264 28.0741 32.5013 28.1179 32.4673 28.1543C32.4334 28.1907 32.3915 28.2187 32.3451 28.2361C32.3141 28.2303 32.2843 28.2196 32.2567 28.2043ZM26.5357 23.6642L32.0735 27.3777L33.1091 23.7214C33.1327 23.643 33.1848 23.5765 33.2551 23.5352C33.3254 23.4939 33.4086 23.4809 33.488 23.4989C34.7791 23.8161 36.1059 23.9615 37.4345 23.9313C38.7543 23.8168 39.2026 22.7676 39.5057 22.0682C39.5439 21.968 39.5881 21.8703 39.6383 21.7757C39.7419 21.5852 39.8557 21.4005 39.9793 21.2225C40.6734 20.3331 41.0948 19.2591 41.1917 18.1322C41.1764 17.3884 41.0508 16.6511 40.8191 15.9448C40.6454 15.5116 40.5783 15.0426 40.6234 14.5776C40.7496 13.9418 41.4127 11.996 41.5958 11.4619C41.1601 10.6734 39.9919 8.98836 38.9058 8.98836C37.3082 8.98836 33.9805 8.98835 31.3284 11.659C29.6263 13.5318 28.3772 15.7755 27.6786 18.2148L26.5357 23.6642Z" fill="var(--fill-0, #263238)"/>
<path id="Vector_23" d="M33.1217 17.6934C33.1217 17.6934 30.3812 21.6231 28.4995 21.6231C26.6178 21.6231 24.0162 15.2199 22.8607 10.8515C21.7051 6.48303 24.8876 3.72336 26.763 2.99211C27.7287 2.583 28.755 2.33804 29.8003 2.26722C30.0959 1.65672 30.5778 1.15758 31.1755 0.842906C31.7732 0.528234 32.4552 0.414578 33.1217 0.518577L35.5844 0.811071C35.5844 0.811071 36.3042 0.0861881 38.6154 0.372329C38.9059 0.375499 39.1926 0.4404 39.4566 0.562791C39.7205 0.685183 39.9559 0.862298 40.1472 1.08257C40.3385 1.30284 40.4815 1.56131 40.5668 1.84105C40.6521 2.1208 40.6779 2.41553 40.6423 2.70597C40.6423 2.70597 41.9431 1.82847 42.8082 3.86961C43.6733 5.91075 43.3891 6.78189 43.3891 6.78189C43.3891 6.78189 44.8351 8.23168 44.5447 9.54157C44.2542 10.8515 41.9431 11.4492 41.9431 11.4492C41.9431 11.4492 42.5177 12.3203 40.4971 12.3203C39.8888 12.2955 39.2985 12.105 38.7892 11.769C38.2799 11.4331 37.8707 10.9643 37.605 10.4127C37.605 10.4127 38.0407 12.4475 37.605 13.325C37.1693 14.2025 35.7107 14.7811 35.7107 14.7811C35.4914 15.1439 35.1609 15.425 34.7691 15.5821C34.3773 15.7392 33.9454 15.7638 33.5385 15.6523C31.9662 15.3407 33.1217 17.6934 33.1217 17.6934Z" fill="var(--fill-0, #263238)"/>
<path id="Vector_24" d="M28.4995 21.941C26.0306 21.941 23.3153 13.7955 22.5576 10.9341C22.1159 9.29508 22.2889 7.54964 23.0436 6.03085C23.7983 4.51205 25.0818 3.32622 26.6494 2.69961C27.5942 2.31092 28.5893 2.06039 29.6046 1.95564C29.952 1.33628 30.4777 0.837577 31.1124 0.525379C31.7471 0.213181 32.461 0.102169 33.1596 0.206998L35.4897 0.480427C35.8054 0.257873 36.7084 -0.155445 38.6469 0.0607506C39.0014 0.0833137 39.3474 0.179065 39.6635 0.342058C39.9796 0.505052 40.2591 0.731805 40.4844 1.0082C40.7517 1.36677 40.9116 1.79476 40.9454 2.24178C41.1954 2.17248 41.4594 2.17248 41.7095 2.24178C42.0337 2.37044 42.3254 2.57015 42.5635 2.8264C42.8016 3.08265 42.9801 3.38904 43.086 3.72336C43.5478 4.6302 43.7655 5.6431 43.7175 6.66108C44.0774 7.06804 45.113 8.35248 44.8414 9.59243C44.5699 10.8324 43.0039 11.411 42.3156 11.6336C42.3231 11.7659 42.2947 11.8978 42.2336 12.0151C42.0189 12.4157 41.4442 12.6065 40.4781 12.6065C40.0303 12.6086 39.5867 12.5202 39.1734 12.3465C38.7602 12.1729 38.3858 11.9174 38.0723 11.5954C38.1556 12.2217 38.0863 12.8589 37.8702 13.4522C37.3938 14.1569 36.7186 14.7017 35.9317 15.0164C35.6652 15.4036 35.2884 15.7002 34.8509 15.8671C34.4135 16.034 33.936 16.0633 33.4817 15.9511C33.3806 15.9511 33.147 15.9003 33.0712 16.002C32.8944 16.2309 33.147 17.0385 33.3869 17.5345C33.4165 17.5833 33.4321 17.6394 33.4321 17.6966C33.4321 17.7538 33.4165 17.8099 33.3869 17.8587C33.0902 18.2975 30.4823 21.941 28.4995 21.941ZM32.6545 0.811072C32.1218 0.801741 31.5975 0.945797 31.1433 1.22629C30.6892 1.50677 30.324 1.91203 30.0908 2.39439C30.0655 2.45078 30.0247 2.49871 29.9732 2.53251C29.9218 2.56631 29.8618 2.58458 29.8003 2.58515C28.7942 2.65899 27.8067 2.89739 26.8767 3.29097C25.4532 3.86165 24.2879 4.93991 23.6032 6.32018C22.9184 7.70045 22.762 9.28621 23.1638 10.7752C24.4835 15.7477 27.0472 21.3052 28.4995 21.3052C29.8445 21.3052 31.9346 18.8062 32.7618 17.6616C32.5597 17.2101 32.1809 16.1864 32.585 15.6396C32.7084 15.4935 32.8721 15.3877 33.0554 15.3356C33.2387 15.2835 33.4332 15.2875 33.6143 15.3471C33.9542 15.4445 34.3164 15.4284 34.6466 15.3011C34.9767 15.1739 35.257 14.9424 35.4455 14.6412C35.4804 14.5723 35.5386 14.5181 35.6096 14.4886C36.2954 14.2339 36.8908 13.7803 37.3209 13.1851C37.6366 12.5492 37.4093 11.0231 37.3209 10.4826C37.3058 10.4062 37.3186 10.3269 37.3569 10.2592C37.3951 10.1914 37.4563 10.1399 37.5293 10.1138C37.6032 10.0897 37.6834 10.0939 37.7544 10.1255C37.8255 10.1572 37.8825 10.2142 37.9144 10.2855C38.1564 10.7798 38.5264 11.1991 38.9855 11.4991C39.4445 11.799 39.9755 11.9685 40.5223 11.9897C41.3622 11.9897 41.6716 11.8307 41.7221 11.7353C41.7361 11.6963 41.7361 11.6535 41.7221 11.6145C41.6944 11.5719 41.6772 11.5232 41.672 11.4726C41.6669 11.4219 41.6739 11.3708 41.6924 11.3234C41.711 11.2761 41.7406 11.2339 41.7787 11.2005C41.8168 11.167 41.8624 11.1433 41.9115 11.1312C42.4988 10.9786 44.0774 10.3873 44.2794 9.47798C44.5257 8.35249 43.2186 7.01716 43.206 7.00444C43.1654 6.96235 43.1369 6.90995 43.1236 6.85284C43.1102 6.79573 43.1125 6.73606 43.1302 6.68015C43.1302 6.68015 43.3575 5.85352 42.5619 3.99042C42.4888 3.74469 42.3641 3.51762 42.1963 3.32456C42.0286 3.1315 41.8216 2.97693 41.5895 2.87129C41.4682 2.8375 41.3415 2.82854 41.2168 2.84492C41.0921 2.8613 40.9719 2.9027 40.8633 2.96667C40.8112 2.99936 40.751 3.0167 40.6897 3.0167C40.6283 3.0167 40.5681 2.99936 40.516 2.96667C40.4652 2.93369 40.4246 2.88699 40.399 2.83189C40.3733 2.77679 40.3635 2.71553 40.3708 2.6551C40.4125 2.20464 40.2939 1.7539 40.0361 1.38336C39.8587 1.17759 39.6421 1.00968 39.3991 0.889547C39.1562 0.769416 38.8919 0.699494 38.6217 0.6839C36.5379 0.423194 35.8496 1.02727 35.8433 1.03363C35.8091 1.06455 35.7692 1.08834 35.7259 1.10362C35.6825 1.11891 35.6366 1.12537 35.5907 1.12265L33.1344 0.830147C32.975 0.812705 32.8147 0.806332 32.6545 0.811072Z" fill="var(--fill-0, #263238)"/>
<path id="Vector_25" d="M34.4288 16.8223C34.4288 16.8223 34.5678 13.7637 32.8376 14.2025C31.1074 14.6412 31.1011 17.261 31.682 18.4247C31.8968 18.7842 32.1907 19.0893 32.541 19.3164C32.8913 19.5435 33.2888 19.6865 33.7027 19.7346" fill="var(--fill-0, #FFBE9D)"/>
<path id="Vector_26" d="M33.7027 20.0525H33.6711C33.2033 19.9997 32.7543 19.8377 32.3597 19.5794C31.965 19.3211 31.6357 18.9736 31.3979 18.5645C31.1621 18.0249 31.035 17.4435 31.0242 16.8541C31.0134 16.2646 31.1189 15.6789 31.3347 15.1309C31.4621 14.8277 31.657 14.5581 31.9045 14.3431C32.152 14.1281 32.4453 13.9733 32.7618 13.8909C32.9634 13.8269 33.1778 13.815 33.3852 13.8561C33.5926 13.8972 33.7864 13.99 33.9489 14.1262C34.8077 14.832 34.7509 16.6315 34.7382 16.835C34.7382 16.9193 34.705 17.0002 34.6458 17.0598C34.5866 17.1194 34.5063 17.1529 34.4225 17.1529C34.3388 17.1529 34.2585 17.1194 34.1993 17.0598C34.1401 17.0002 34.1068 16.9193 34.1068 16.835C34.1068 16.3708 34.0689 15.0736 33.5448 14.6412C33.4563 14.5726 33.3522 14.5273 33.2419 14.5095C33.1316 14.4917 33.0187 14.502 32.9134 14.5395C32.6883 14.5958 32.4798 14.7054 32.3052 14.8591C32.1306 15.0128 31.9949 15.2063 31.9094 15.4234C31.55 16.3551 31.5681 17.3917 31.9599 18.3102C32.1528 18.6204 32.4123 18.8832 32.7194 19.079C33.0265 19.2749 33.3733 19.399 33.7342 19.4421C33.7758 19.446 33.8161 19.4582 33.8529 19.478C33.8898 19.4978 33.9223 19.5247 33.9488 19.5572C33.9752 19.5897 33.9949 19.6272 34.0069 19.6675C34.0188 19.7077 34.0228 19.75 34.0184 19.7918C34.0038 19.8653 33.9644 19.9314 33.9068 19.979C33.8492 20.0265 33.7771 20.0525 33.7027 20.0525Z" fill="var(--fill-0, #263238)"/>
<path id="Vector_27" d="M25.317 23.8105C25.317 23.8105 25.8979 21.6231 28.9352 23.8105C31.9725 25.9979 33.8479 30.9386 33.8479 30.9386C33.8479 30.9386 28.4995 27.8864 26.4726 27.8864C24.4456 27.8864 21.5599 30.9386 20.9853 29.4888C20.4107 28.039 25.317 23.8105 25.317 23.8105Z" fill="var(--fill-0, #024768)"/>
<path id="Vector_28" d="M33.8479 31.2374C33.7925 31.2355 33.7384 31.2202 33.69 31.1929C33.6395 31.1611 28.3922 28.1789 26.4726 28.1789C25.658 28.1789 24.6161 28.7639 23.6942 29.2853C22.7723 29.8067 21.7998 30.3408 21.2189 30.1183C21.0966 30.0728 20.9857 30.0008 20.894 29.9074C20.8024 29.814 20.7322 29.7015 20.6885 29.5778C20.057 28.0263 24.0667 24.4463 25.0455 23.6006C25.1299 23.3716 25.2621 23.1634 25.4331 22.9901C25.6041 22.8168 25.81 22.6824 26.0369 22.596C26.8262 22.3098 27.8618 22.596 29.1183 23.5243C32.1935 25.7371 34.0626 30.5952 34.1699 30.805C34.1921 30.8655 34.1956 30.9313 34.1798 30.9938C34.164 31.0562 34.1297 31.1124 34.0815 31.1548C34.017 31.2114 33.9334 31.241 33.8479 31.2374ZM26.4726 27.543C28.0954 27.543 31.6063 29.3362 33.1975 30.1946C32.5219 28.7067 30.9306 25.61 28.7774 24.0457C27.7165 23.2827 26.883 22.9902 26.2516 23.1937C26.103 23.2515 25.9692 23.342 25.86 23.4586C25.7507 23.5753 25.6688 23.715 25.6201 23.8677C25.6012 23.9289 25.5663 23.9838 25.5191 24.0267C23.549 25.7181 20.9284 28.4777 21.2694 29.3425C21.3199 29.4697 21.3768 29.5015 21.421 29.5142C21.7683 29.6478 22.627 29.1581 23.3848 28.7321C24.3762 28.198 25.4938 27.5685 26.4726 27.5685V27.543Z" fill="var(--fill-0, #263238)"/>
<path id="Vector_29" d="M61.8906 50.3135C61.8336 50.3144 61.7776 50.2994 61.7286 50.2702C61.6795 50.241 61.6395 50.1988 61.6127 50.1482C61.574 50.0737 61.5655 49.987 61.5891 49.9063C61.6127 49.8256 61.6664 49.7573 61.739 49.7158C61.8274 49.6713 70.6298 44.8768 76.7802 41.7102C82.9305 38.5436 91.013 34.6139 91.0951 34.5694C91.1329 34.5514 91.1737 34.5411 91.2154 34.5391C91.2571 34.537 91.2988 34.5433 91.3381 34.5575C91.3773 34.5716 91.4135 34.5934 91.4444 34.6217C91.4753 34.6499 91.5004 34.684 91.5182 34.722C91.536 34.76 91.5463 34.8011 91.5483 34.8431C91.5503 34.8851 91.5441 34.9271 91.53 34.9666C91.516 35.0062 91.4943 35.0425 91.4663 35.0737C91.4382 35.1048 91.4044 35.1301 91.3667 35.148C91.2909 35.1862 83.2083 39.1095 77.0643 42.2761C70.9203 45.4427 62.1305 50.2436 62.0421 50.3135C61.9923 50.3252 61.9404 50.3252 61.8906 50.3135Z" fill="var(--fill-0, #263238)"/>
<path id="Vector_30" d="M55.6771 50.3135C55.6771 50.3135 58.9985 48.4059 60.4446 48.4059C61.8906 48.4059 64.3469 50.0083 64.3469 50.0083C64.3469 50.0083 64.9279 50.7395 64.4922 51.0257L63.6271 51.6107C63.6271 51.6107 63.6271 52.7743 62.7557 53.0668C61.8843 53.3593 60.5898 53.6455 60.5898 53.6455C60.5898 53.6455 57.843 55.1016 55.9613 54.523C54.0795 53.9443 55.6771 50.3135 55.6771 50.3135Z" fill="var(--fill-0, #FFBE9D)"/>
<path id="Vector_31" d="M56.959 54.9744C56.5919 54.978 56.2261 54.9287 55.8729 54.8282C55.6642 54.7673 55.4714 54.6611 55.3078 54.5172C55.1441 54.3733 55.0137 54.1952 54.9257 53.9952C54.2942 52.6535 55.3425 50.2754 55.3867 50.18C55.4146 50.1168 55.4608 50.0636 55.5193 50.0274C55.6582 49.9511 58.9354 48.1198 60.4446 48.1198C61.9537 48.1198 64.4164 49.7094 64.5174 49.773C64.5469 49.7913 64.5726 49.815 64.5932 49.843C64.8355 50.1276 64.9658 50.4918 64.9594 50.8667C64.9452 50.9592 64.912 51.0476 64.862 51.1264C64.812 51.2052 64.7463 51.2727 64.669 51.3245L63.9302 51.8205C63.9202 52.1594 63.8137 52.4882 63.6234 52.7678C63.4331 53.0473 63.1669 53.2659 62.8567 53.3975C62.0611 53.6646 60.9308 53.9316 60.6971 53.9825C59.5333 54.5717 58.26 54.9096 56.959 54.9744ZM55.9234 50.5233C55.6392 51.2101 55.1088 52.8761 55.5003 53.7027C55.5517 53.8203 55.6281 53.9251 55.7241 54.0097C55.8201 54.0943 55.9334 54.1567 56.056 54.1923C57.7862 54.7265 60.413 53.3593 60.4446 53.3403C60.4697 53.3366 60.4952 53.3366 60.5203 53.3403C60.5203 53.3403 61.8148 53.0478 62.6546 52.7616C63.2861 52.5454 63.2861 51.6171 63.2861 51.6107C63.286 51.5582 63.2987 51.5064 63.3229 51.4599C63.3471 51.4134 63.3821 51.3735 63.425 51.3436L64.2901 50.765C64.2926 50.5767 64.2276 50.3938 64.107 50.2499C63.766 50.0337 61.6506 48.7238 60.4193 48.7238C59.3648 48.7238 56.9021 49.9765 55.9234 50.5233Z" fill="var(--fill-0, #263238)"/>
<path id="Vector_32" d="M52.4946 50.5933C52.4946 50.5933 54.951 50.3008 55.6519 50.3008C56.3528 50.3008 56.5169 53.2131 56.5169 54.2305C56.5169 55.2479 54.3448 55.3941 54.3448 55.3941L52.4946 50.5933Z" fill="var(--fill-0, #FFBE9D)"/>
<path id="Vector_33" d="M54.37 55.712C54.3077 55.7117 54.2468 55.6928 54.1951 55.6578C54.1435 55.6227 54.1032 55.573 54.0795 55.5149L52.1852 50.7078C52.1674 50.6623 52.1603 50.6134 52.1644 50.5647C52.1684 50.5161 52.1836 50.469 52.2086 50.4272C52.2337 50.3854 52.2679 50.3499 52.3088 50.3236C52.3496 50.2973 52.3959 50.2808 52.4441 50.2754C52.5451 50.2754 54.9257 49.9829 55.6582 49.9829C56.7316 49.9829 56.8453 52.9524 56.8453 54.2305C56.8453 55.5086 54.6352 55.693 54.3826 55.712H54.37ZM52.9366 50.8604L54.5784 55.0571C55.2098 54.9744 56.2265 54.7137 56.2265 54.2305C56.2265 52.4946 55.955 50.7713 55.6582 50.6124C55.1467 50.6187 53.6628 50.7777 52.9366 50.8604Z" fill="var(--fill-0, #263238)"/>
<path id="Vector_34" d="M26.1884 41.4113C26.1884 41.4113 28.2091 49.6776 29.3457 53.4929C30.4823 57.3081 32.5029 59.1648 35.275 59.4573C38.047 59.7498 46.2622 57.5497 47.9924 57.5497C49.7225 57.5497 53.9217 56.6722 54.3511 55.3623C54.7805 54.0524 54.2122 50.854 52.4567 50.5615C50.7013 50.269 43.6164 50.5615 43.6164 50.5615L41.8799 50.4153C41.8799 50.4153 38.407 44.5907 37.9776 42.1489C37.5482 39.7072 37.5419 33.2468 33.7848 31.6698C32.8063 31.183 31.6962 31.0333 30.625 31.2435C29.5538 31.4537 28.5808 32.0123 27.8554 32.8335" fill="var(--fill-0, #0D7BB1)"/>
<path id="Vector_35" d="M35.8875 59.8134C35.6877 59.8239 35.4874 59.8239 35.2876 59.8134C32.3324 59.5018 30.236 57.4162 29.0931 53.6201C27.9502 49.8239 25.9358 41.6085 25.9358 41.5385C25.9167 41.456 25.9304 41.3691 25.9741 41.2966C26.0178 41.2241 26.0879 41.1717 26.1695 41.1506C26.2507 41.1315 26.3361 41.1455 26.4071 41.1896C26.4781 41.2337 26.5289 41.3043 26.5483 41.3859C26.5483 41.4686 28.5816 49.7158 29.7056 53.4674C30.798 57.0474 32.6482 58.9232 35.3886 59.1903C37.0115 59.3683 40.7307 58.6243 43.7111 58.0266C45.1485 57.6902 46.606 57.448 48.0745 57.3017C49.8552 57.3017 53.7891 56.3861 54.1364 55.3305C54.3827 54.1392 54.1968 52.8984 53.6123 51.8333C53.5053 51.6116 53.3506 51.4166 53.1595 51.2626C52.9683 51.1086 52.7455 50.9995 52.5072 50.943C50.8213 50.6632 43.8248 50.943 43.7554 50.943L41.981 50.7968C41.9313 50.7911 41.8835 50.7744 41.841 50.7481C41.7984 50.7217 41.7621 50.6862 41.7347 50.6442C41.5895 50.4025 38.2302 44.7433 37.7945 42.238C37.7187 41.8056 37.6555 41.2715 37.5861 40.6547C37.2451 37.7106 36.7399 33.2531 33.7974 31.9941C32.8828 31.5396 31.846 31.398 30.8442 31.5908C29.8425 31.7836 28.9306 32.3003 28.2469 33.0624C28.2211 33.0957 28.1889 33.1236 28.1522 33.1442C28.1156 33.1649 28.0752 33.178 28.0334 33.1827C27.9916 33.1874 27.9494 33.1838 27.9091 33.1718C27.8687 33.1599 27.8312 33.14 27.7986 33.1133C27.7336 33.0608 27.6917 32.9846 27.6823 32.9012C27.6728 32.8178 27.6965 32.734 27.7481 32.6681C28.5194 31.7925 29.5536 31.1944 30.6934 30.9649C31.8331 30.7353 33.0162 30.8869 34.0626 31.3964C37.3525 32.7953 37.8892 37.4753 38.2428 40.572C38.3123 41.2079 38.3754 41.7039 38.4449 42.1108C38.83 44.2918 41.6968 49.2643 42.2336 50.1609L43.8059 50.2944C44.0584 50.2944 50.9034 50.0019 52.6462 50.2944C52.9747 50.3666 53.2835 50.5105 53.5508 50.716C53.8181 50.9214 54.0374 51.1834 54.1932 51.4835C54.88 52.7071 55.0872 54.1452 54.7741 55.5149C54.2564 57.0728 49.8173 57.9185 48.1124 57.9185C46.6871 58.0703 45.2722 58.3082 43.8753 58.6307C41.0591 59.1521 37.7818 59.8134 35.8875 59.8134Z" fill="var(--fill-0, #263238)"/>
<path id="Vector_36" d="M90.0785 33.7046C90.0785 33.7046 86.7508 34.7284 86.2898 35.0145C85.8288 35.3006 86.435 37.2019 87.1612 37.7805C87.8874 38.3592 91.7834 36.4706 92.3643 35.7457C92.9453 35.0209 91.8087 32.541 90.0785 33.7046Z" fill="var(--fill-0, white)"/>
<path id="Vector_37" d="M87.6158 38.232C87.3919 38.2504 87.1686 38.1897 86.9844 38.0603C86.2906 37.3552 85.8849 36.4134 85.8478 35.4214C85.8401 35.2995 85.8626 35.1776 85.9133 35.0666C85.964 34.9556 86.0413 34.8591 86.1382 34.7856C87.3725 34.2621 88.6379 33.8161 89.9269 33.4503C90.2694 33.1927 90.6964 33.0763 91.1211 33.1247C91.5458 33.1731 91.9362 33.3828 92.2128 33.711C92.7748 34.3468 93.0779 35.4024 92.6232 35.9747C92.1686 36.5469 89.1061 38.232 87.6158 38.232ZM90.9752 33.7491C90.7133 33.7587 90.4602 33.8473 90.249 34.0035C90.2249 34.0225 90.1968 34.0355 90.1669 34.0416C88.9203 34.3995 87.6936 34.824 86.4919 35.3134C86.4919 36.1507 86.8105 36.9562 87.3822 37.5643C87.8179 37.9141 91.5119 36.3752 92.1433 35.5804C92.3328 35.3388 92.1939 34.6139 91.7645 34.137C91.6697 34.015 91.5503 33.9146 91.4143 33.8423C91.2783 33.7699 91.1286 33.7274 90.9752 33.7173V33.7491Z" fill="var(--fill-0, white)"/>
</g>
</svg>
