<svg preserveAspectRatio="none" width="100%" height="100%" overflow="visible" style="display: block;" viewBox="0 0 245.228 153" fill="none" xmlns="http://www.w3.org/2000/svg">
<g id="freepik--Character--inject-2">
<path id="Vector" d="M222.953 13.4581L237.382 84.0939" stroke="var(--stroke-0, #263238)" stroke-linecap="round" stroke-linejoin="round"/>
<g id="Vector_2">
<path d="M224.614 152.475C224.614 152.475 228.635 148.308 228.063 143.799C227.492 139.291 222.701 134.807 222.507 131.298C222.313 127.79 226.339 127.131 228.635 131.94C230.931 136.749 230.553 143.824 231.701 143.824C232.849 143.824 232.466 135.49 235.722 134.507C238.977 133.523 240.13 138.04 238.405 141.257C236.681 144.474 235.533 146.391 236.492 146.716C237.451 147.041 241.089 142.549 241.462 145.433C241.835 148.316 239.355 150.892 239.355 150.892L240.885 152.5" fill="var(--fill-0, white)"/>
<path d="M224.614 152.475C224.614 152.475 228.635 148.308 228.063 143.799C227.492 139.291 222.701 134.807 222.507 131.298C222.313 127.79 226.339 127.131 228.635 131.94C230.931 136.749 230.553 143.824 231.701 143.824C232.849 143.824 232.466 135.49 235.722 134.507C238.977 133.523 240.13 138.04 238.405 141.257C236.681 144.474 235.533 146.391 236.492 146.716C237.451 147.041 241.089 142.549 241.462 145.433C241.835 148.316 239.355 150.892 239.355 150.892L240.885 152.5" stroke="var(--stroke-0, #263238)" stroke-linecap="round" stroke-linejoin="round"/>
</g>
<path id="Vector_3" d="M235.959 114.573C235.959 114.887 235.866 115.194 235.691 115.455C235.517 115.717 235.269 115.92 234.978 116.04C234.688 116.161 234.369 116.192 234.061 116.131C233.753 116.069 233.47 115.918 233.248 115.696C233.025 115.474 232.874 115.191 232.813 114.883C232.752 114.575 232.783 114.256 232.903 113.965C233.024 113.675 233.227 113.427 233.488 113.253C233.749 113.078 234.057 112.985 234.371 112.985C234.792 112.985 235.196 113.152 235.494 113.45C235.791 113.748 235.959 114.152 235.959 114.573Z" fill="var(--fill-0, white)" stroke="var(--stroke-0, #263238)" stroke-linecap="round" stroke-linejoin="round"/>
<path id="Vector_4" d="M243.048 107.204C243.048 107.388 242.993 107.569 242.89 107.723C242.787 107.876 242.641 107.996 242.471 108.067C242.3 108.138 242.112 108.156 241.931 108.12C241.749 108.084 241.583 107.995 241.452 107.864C241.322 107.734 241.233 107.567 241.196 107.386C241.16 107.205 241.179 107.017 241.25 106.846C241.32 106.675 241.44 106.529 241.594 106.427C241.748 106.324 241.928 106.269 242.113 106.269C242.236 106.268 242.358 106.292 242.471 106.339C242.585 106.386 242.688 106.454 242.775 106.541C242.862 106.628 242.931 106.732 242.978 106.845C243.024 106.959 243.048 107.081 243.048 107.204Z" fill="var(--fill-0, white)" stroke="var(--stroke-0, #263238)" stroke-linecap="round" stroke-linejoin="round"/>
<path id="Vector_5" d="M244.074 103.843C244.435 103.843 244.728 103.55 244.728 103.189C244.728 102.828 244.435 102.536 244.074 102.536C243.713 102.536 243.42 102.828 243.42 103.189C243.42 103.55 243.713 103.843 244.074 103.843Z" fill="var(--fill-0, white)" stroke="var(--stroke-0, #263238)" stroke-linecap="round" stroke-linejoin="round"/>
<path id="Vector_6" d="M227.185 98.3377C227.186 98.5047 227.137 98.6683 227.045 98.8076C226.953 98.9469 226.821 99.0556 226.667 99.12C226.513 99.1843 226.343 99.2015 226.179 99.1691C226.015 99.1367 225.865 99.0564 225.747 98.9383C225.629 98.8202 225.548 98.6696 225.516 98.5057C225.484 98.3418 225.501 98.172 225.565 98.0179C225.629 97.8637 225.738 97.7322 225.877 97.64C226.017 97.5478 226.18 97.4991 226.347 97.5C226.458 97.4994 226.567 97.5206 226.669 97.5625C226.771 97.6044 226.863 97.666 226.941 97.7439C227.019 97.8219 227.081 97.9145 227.123 98.0164C227.164 98.1183 227.186 98.2275 227.185 98.3377Z" fill="var(--fill-0, white)" stroke="var(--stroke-0, #263238)" stroke-linecap="round" stroke-linejoin="round"/>
<path id="Vector_7" d="M229.33 106.08C229.587 106.08 229.795 105.872 229.795 105.615C229.795 105.359 229.587 105.151 229.33 105.151C229.073 105.151 228.865 105.359 228.865 105.615C228.865 105.872 229.073 106.08 229.33 106.08Z" fill="var(--fill-0, white)" stroke="var(--stroke-0, #263238)" stroke-linecap="round" stroke-linejoin="round"/>
<path id="Vector_8" d="M239.876 121.57C240.392 121.57 240.811 121.152 240.811 120.636C240.811 120.12 240.392 119.701 239.876 119.701C239.36 119.701 238.942 120.12 238.942 120.636C238.942 121.152 239.36 121.57 239.876 121.57Z" fill="var(--fill-0, white)" stroke="var(--stroke-0, #263238)" stroke-linecap="round" stroke-linejoin="round"/>
<path id="Vector_9" d="M36.9558 24.1495C36.9558 24.1495 41.9673 26.6044 44.6207 29.7469C47.2742 32.8894 53.3703 41.0483 53.8593 41.639C54.3484 42.2297 58.9677 45.9629 58.9677 46.849C58.9729 47.34 58.9076 47.8292 58.774 48.3016C59.642 48.6843 60.3888 49.2972 60.9336 50.0738L61.8197 51.3521C61.8197 51.3521 62.7881 51.7443 62.2119 55.5744C61.6357 59.4044 56.7113 61.7674 55.1376 61.8691C53.564 61.9707 51.7966 60.2954 51.7966 60.2954C51.7966 60.2954 50.1261 60.0049 49.9276 59.7095C49.7291 59.4141 46.3929 54.8917 46.3929 54.8917C46.3929 54.8917 41.8704 42.6074 37.9387 36.0077C34.0069 29.408 34.5977 23.8542 36.9558 24.1495Z" fill="var(--fill-0, #556DC2)" stroke="var(--stroke-0, #263238)" stroke-linecap="round" stroke-linejoin="round"/>
<path id="Vector_10" d="M58.774 48.3208C58.774 48.3208 55.0408 48.5193 52.7796 52.8432C50.5183 57.1672 50.9105 58.8377 50.9105 58.8377" stroke="var(--stroke-0, #263238)" stroke-linecap="round" stroke-linejoin="round"/>
<path id="Vector_11" d="M50.5522 50.5966C50.5776 51.4952 50.4331 52.3906 50.1261 53.2355" stroke="var(--stroke-0, #263238)" stroke-linecap="round" stroke-linejoin="round"/>
<path id="Vector_12" d="M46.0975 35.7411C46.0975 35.7411 49.487 42.6604 50.3585 48.2869" stroke="var(--stroke-0, #263238)" stroke-linecap="round" stroke-linejoin="round"/>
<path id="Vector_13" d="M15.0795 95.0763C15.0795 95.0763 13.1303 103.356 13.8954 105.775C14.6604 108.194 16.7022 112.906 16.7022 112.906C16.7022 112.906 17.131 117.876 17.6768 119.272C18.2226 120.668 20.3764 125.133 20.3764 125.133C20.3764 125.133 23.617 138.762 23.8362 139.526C24.0555 140.29 21.9991 142.836 21.8871 144.743C21.775 146.651 22.8616 152.5 22.8616 152.5L49.0442 152.46C49.0442 152.46 50.0821 151.494 50.5061 146.657C50.93 141.819 50.3989 127.695 50.3989 127.695L62.0648 147.053L62.8201 152.437H83.8811C83.8811 152.437 84.7485 142.726 83.6667 137.883C82.5849 133.039 79.8853 122.605 79.2372 121.329C78.589 120.053 64.9788 95.7313 64.9788 95.7313C64.9788 95.7313 64.55 92.2838 63.9019 91.6575C63.3774 91.2056 62.7928 90.86 62.172 90.6347C62.0175 89.408 61.7276 88.2103 61.3095 87.0723C60.6613 85.4175 56.0174 76.5 56.0174 76.5L15.406 91.9103L15.0795 95.0763Z" fill="var(--fill-0, #5D8123)" stroke="var(--stroke-0, #263238)" stroke-linecap="round" stroke-linejoin="round"/>
<path id="Vector_14" d="M50.0729 120.138L50.1406 112.996L53.8642 124.69L50.0729 120.138Z" fill="var(--fill-0, #263238)" stroke="var(--stroke-0, #263238)" stroke-linecap="round" stroke-linejoin="round"/>
<path id="Vector_15" d="M27.9641 90.9453C27.9641 90.9453 25.7125 96.3151 21.4176 98.8911" stroke="var(--stroke-0, #263238)" stroke-linecap="round" stroke-linejoin="round"/>
<path id="Vector_16" d="M32.903 95.9859C29.6546 98.7148 26.2036 101.193 22.5797 103.399" stroke="var(--stroke-0, #263238)" stroke-linecap="round" stroke-linejoin="round"/>
<path id="Vector_17" d="M35.8082 93.5117C35.8082 93.5117 35.1836 94.0831 34.1232 94.9644" stroke="var(--stroke-0, #263238)" stroke-linecap="round" stroke-linejoin="round"/>
<path id="Vector_18" d="M45.715 96.7268C45.715 97.5645 45.715 98.4602 45.6714 99.4238" stroke="var(--stroke-0, #263238)" stroke-linecap="round" stroke-linejoin="round"/>
<path id="Vector_19" d="M44.4948 88.5873C44.4948 88.5873 45.2599 90.4418 45.5794 94.1217" stroke="var(--stroke-0, #263238)" stroke-linecap="round" stroke-linejoin="round"/>
<path id="Vector_20" d="M57.5974 83.6485C57.5974 83.6485 57.0599 87.4059 56.4159 91.7008C55.7719 95.9957 60.2896 92.5578 60.5995 91.1633" stroke="var(--stroke-0, #263238)" stroke-linecap="round" stroke-linejoin="round"/>
<path id="Vector_21" d="M63.0592 92.1268C63.0592 92.1268 55.4378 100.823 52.7553 105.132C50.0729 109.442 52.9732 107.602 52.9732 107.602" stroke="var(--stroke-0, #263238)" stroke-linecap="round" stroke-linejoin="round"/>
<path id="Vector_22" d="M20.5606 108.44C23.3496 105.113 33.0095 98.891 30.54 101.661C28.0706 104.43 23.5675 108.527 23.5675 108.527" stroke="var(--stroke-0, #263238)" stroke-linecap="round" stroke-linejoin="round"/>
<path id="Vector_23" d="M19.3791 112.396C19.3791 112.396 18.4737 112.037 19.2 110.459" stroke="var(--stroke-0, #263238)" stroke-linecap="round" stroke-linejoin="round"/>
<path id="Vector_24" d="M13.2636 86.3309L14.9874 92.6642C14.9874 92.6642 33.9827 89.8752 44.1801 85.1542C54.3774 80.4332 55.6606 76.9954 55.6606 76.9954L52.3341 72.4874L12.9441 85.0429L13.2636 86.3309Z" fill="var(--fill-0, #263238)" stroke="var(--stroke-0, #263238)" stroke-linecap="round" stroke-linejoin="round"/>
<path id="Vector_25" d="M9.07042 76.7001C9.07042 76.7001 8.10201 78.2835 8.75568 79.1212C9.40936 79.9588 11.2251 85.2415 11.6609 86.2051C12.0967 87.1686 11.6609 87.7109 15.2053 86.7425C18.7497 85.7741 36.9945 82.3411 43.967 78.8016C50.9396 75.262 52.765 74.0806 53.0895 72.9911C53.4139 71.9017 50.6684 64.4013 50.2956 62.0433C49.9228 59.6852 48.1893 55.5549 48.1893 55.5549C48.1893 55.5549 40.1999 60.4696 30.1139 65.4279C20.028 70.3861 9.39968 74.3372 9.39968 74.3372C9.11667 75.0908 9.00422 75.8978 9.07042 76.7001Z" fill="var(--fill-0, #5D8123)" stroke="var(--stroke-0, #263238)" stroke-linecap="round" stroke-linejoin="round"/>
<path id="Vector_26" d="M9.91778 31.2137C9.91778 31.2137 6.95445 36.7143 5.26457 40.7332C3.5747 44.7521 1.66693 49.6184 4.29616 58.5035C6.92539 67.3887 5.88435 72.8892 6.41214 74.6905C6.93992 76.4917 7.57423 76.8064 9.05589 76.6999C10.5376 76.5934 19.0015 72.5745 29.2617 68.3425C39.522 64.1106 44.0687 62.2077 45.6569 60.3047C47.2451 58.4018 48.4072 57.1284 48.1941 53.6373C47.9811 50.1461 46.3977 38.4042 42.5871 31.848C38.7764 25.2919 39.8368 25.9262 37.6191 24.5511C35.4015 23.1759 31.8087 22.4351 27.7801 23.9168C23.7515 25.3984 12.6681 28.6765 9.91778 31.2137Z" fill="var(--fill-0, #556DC2)" stroke="var(--stroke-0, #263238)" stroke-linecap="round" stroke-linejoin="round"/>
<path id="Vector_27" d="M30.5594 29.5966C33.773 33.8796 36.6852 38.3806 39.2751 43.0672C42.834 49.7589 45.6618 60.3194 45.6618 60.3194C45.6618 60.3194 47.2354 58.5714 47.6615 57.2979C48.0876 56.0245 48.1699 55.6032 48.1699 55.6032C48.1699 55.6032 47.2354 50.8629 42.4951 40.3556C37.7547 29.8484 31.5666 24.4301 31.5666 24.4301L30.5594 29.5966Z" fill="var(--fill-0, #263238)" stroke="var(--stroke-0, #263238)" stroke-linecap="round" stroke-linejoin="round"/>
<path id="Vector_28" d="M43.4247 41.7984L39.706 44.3211L41.7397 48.6451L45.1291 45.9335L43.4247 41.7984ZM40.8149 44.6068L43.2359 42.9315L44.2043 45.6575L41.9479 47.2941L40.8149 44.6068Z" fill="var(--fill-0, white)" stroke="var(--stroke-0, #263238)" stroke-linecap="round" stroke-linejoin="round"/>
<path id="Vector_29" d="M0.945467 50.7854C0.945467 50.7854 3.80227 42.215 4.54311 41.4742C5.28394 40.7334 9.30284 39.2517 14.5903 41.4742C19.8779 43.6967 32.1524 54.5913 35.4111 59.351C38.6698 64.1107 38.5343 64.6434 38.5343 64.6434L30.6369 67.9118C30.6369 67.9118 23.3738 53.2161 15.6265 49.512C7.87928 45.8078 0.945467 50.7854 0.945467 50.7854Z" fill="var(--fill-0, #263238)" stroke="var(--stroke-0, #263238)" stroke-linecap="round" stroke-linejoin="round"/>
<path id="Vector_30" d="M29.591 52.6882L24.6182 57.0218L27.6881 61.1521L33.1886 56.1793L29.591 52.6882ZM27.5767 59.5784L25.7319 57.2349L29.7217 53.8938L31.6198 55.9856L27.5767 59.5784Z" fill="var(--fill-0, white)" stroke="var(--stroke-0, #263238)" stroke-linecap="round" stroke-linejoin="round"/>
<path id="Vector_31" d="M60.5995 50.9019C60.1069 50.8216 59.6022 50.865 59.1306 51.0281C58.659 51.1912 58.2353 51.469 57.8976 51.8364C56.8614 53.0808 54.9924 56.9205 55.0989 58.7895C55.2054 60.6586 57.2778 61.0701 57.6942 61.0701C58.1106 61.0701 66.2017 61.4866 66.2017 61.4866C66.2017 61.4866 71.6393 62.8423 72.4625 62.5228C73.2856 62.2032 75.3919 57.4144 75.7647 56.2862C76.1376 55.158 75.6146 53.4342 75.6146 53.4342C75.6146 53.4342 77.9437 51.1052 78.0938 50.3547C78.2439 49.6042 77.8662 49.5316 76.9656 49.7543C76.0649 49.977 75.542 50.132 74.714 50.2821C73.886 50.4322 74.0361 50.0545 71.8621 50.3547C70.1127 50.6103 68.4576 51.3087 67.0539 52.3835C66.376 52.9839 65.3253 53.2115 64.875 52.9113C64.4247 52.6111 60.5995 50.9019 60.5995 50.9019Z" fill="var(--fill-0, white)" stroke="var(--stroke-0, #263238)" stroke-linecap="round" stroke-linejoin="round"/>
<path id="Vector_32" d="M71.9783 54.8429C77.1205 50.335 82.3451 45.9142 87.7924 41.7306C90.5184 39.6486 93.2978 37.6246 96.2127 35.7556C97.6653 34.8114 99.1906 33.9592 100.677 33.1215C102.164 32.2838 103.689 31.4752 105.214 30.7005C111.314 27.5546 117.595 24.7752 124.025 22.377C127.231 21.1616 130.485 20.0819 133.748 19.0505C135.39 18.5663 137.026 18.0434 138.677 17.5979C139.505 17.3703 140.324 17.1137 141.157 16.9152L143.641 16.276C156.932 12.9629 170.533 11.0464 184.222 10.5576C197.886 10.0841 211.565 10.8605 225.089 12.8769C225.152 12.8876 225.208 12.9224 225.246 12.9739C225.284 13.0253 225.3 13.0895 225.292 13.1529C225.282 13.2155 225.249 13.2719 225.198 13.3099C225.147 13.348 225.084 13.3646 225.021 13.3563C211.519 11.5302 197.879 10.9418 184.27 11.5986C170.681 12.2672 157.198 14.3541 144.042 17.8255L141.583 18.4598C140.764 18.6874 139.956 18.944 139.162 19.1716C137.525 19.6558 135.913 20.169 134.295 20.6774C131.075 21.7475 127.87 22.8564 124.713 24.1056C118.391 26.5614 112.221 29.3909 106.236 32.5792C104.74 33.3781 103.263 34.2013 101.791 35.0389C100.319 35.8766 98.8855 36.7288 97.4813 37.6633C94.6778 39.513 91.9662 41.537 89.3031 43.6336C83.9769 47.8365 78.8491 52.296 73.8086 56.8523C73.6763 56.9719 73.5218 57.0642 73.3538 57.124C73.1859 57.1839 73.0078 57.21 72.8298 57.201C72.6517 57.1921 72.4772 57.1481 72.3161 57.0716C72.1551 56.9952 72.0107 56.8878 71.8911 56.7555C71.7716 56.6232 71.6792 56.4687 71.6194 56.3008C71.5596 56.1329 71.5334 55.9548 71.5424 55.7767C71.5514 55.5987 71.5954 55.4241 71.6718 55.2631C71.7483 55.102 71.8557 54.9576 71.9879 54.8381L71.9783 54.8429Z" fill="var(--fill-0, #A1A1A1)" stroke="var(--stroke-0, #263238)" stroke-linecap="round" stroke-linejoin="round"/>
<path id="Vector_33" d="M77.0915 68.5993C76.6073 66.7787 74.4187 64.9532 73.3244 65.2099C72.2301 65.4665 68.7099 68.3717 67.9981 68.8559C67.2863 69.3401 66.2598 68.2652 65.6739 67.8875C65.0926 67.383 64.5754 66.809 64.1342 66.1783C67.5575 62.9777 70.8888 59.932 74.0265 57.1333C74.1927 56.9852 74.3282 56.8057 74.4251 56.6052C74.5221 56.4047 74.5785 56.1871 74.5914 55.9647C74.6042 55.7424 74.5731 55.5197 74.4998 55.3094C74.4266 55.0991 74.3126 54.9052 74.1645 54.7389C74.0163 54.5727 73.8368 54.4372 73.6363 54.3403C73.4358 54.2433 73.2182 54.1869 72.9958 54.1741C72.7735 54.1612 72.5508 54.1923 72.3405 54.2656C72.1302 54.3388 71.9363 54.4528 71.7701 54.6009C68.4775 57.5401 64.9912 60.7358 61.3839 64.1107C61.0607 64.4152 60.8696 64.834 60.8513 65.2777C59.7182 66.3429 58.5755 67.4243 57.4231 68.5218C56.9777 68.52 56.5497 68.694 56.2319 69.006C49.4531 75.4798 44.7321 80.2589 44.6837 80.3074C44.3678 80.6284 44.1923 81.0618 44.196 81.5122C44.1996 81.9626 44.382 82.3931 44.703 82.709C45.0241 83.0249 45.4575 83.2004 45.9079 83.1967C46.3583 83.1931 46.7888 83.0107 47.1047 82.6896C47.1531 82.6412 51.8499 77.896 58.5852 71.4561C58.9025 71.149 59.0883 70.7306 59.1033 70.2892C60.2492 69.1949 61.3887 68.1151 62.5218 67.0498H62.5557C62.8328 67.0467 63.1052 66.977 63.3497 66.8465L64.9718 69.2239L63.7565 77.2423C63.7565 77.2423 66.6617 80.6318 67.1459 80.5204C67.6301 80.4091 75.7696 73.5963 76.3748 72.1388C76.9801 70.6814 76.1327 69.9551 76.1327 69.9551C76.1327 69.9551 77.5757 70.4199 77.0915 68.5993Z" fill="var(--fill-0, #263238)"/>
<path id="Vector_34" d="M77.6435 53.3227C77.6435 53.3227 73.7359 52.7997 72.8353 52.7997C71.9347 52.7997 71.1067 53.4001 71.1067 53.9231C71.1067 54.446 73.8134 55.4241 74.7867 55.8599C75.7599 56.2957 76.3652 56.3102 76.9656 55.9374C77.566 55.5645 78.4666 54.1313 77.6435 53.3227Z" fill="var(--fill-0, white)" stroke="var(--stroke-0, #263238)" stroke-linecap="round" stroke-linejoin="round"/>
<path id="Vector_35" d="M71.4844 54.5043C71.4844 54.5043 70.516 54.2816 70.1335 54.9546C70.0303 55.1811 69.9831 55.4291 69.9957 55.6777C70.0084 55.9263 70.0805 56.1682 70.2061 56.383C70.2061 56.383 68.7825 56.0054 68.4048 56.8333C68.1898 57.2502 68.0864 57.7156 68.1046 58.1843C68.1046 58.1843 67.0539 58.0342 67.1362 59.0849C67.2185 60.1356 68.7147 61.5059 69.7655 61.7916C70.8162 62.0773 72.4722 62.6922 73.1549 62.3145C73.625 62.0225 74.033 61.6408 74.3557 61.1912C74.6001 61.196 74.8387 61.1162 75.0311 60.9653C75.2234 60.8144 75.3577 60.6017 75.4113 60.3632C75.5841 59.8802 75.6852 59.3745 75.7115 58.8622C75.7115 58.8622 76.9123 58.6346 76.9849 57.8114C77.0284 57.186 77.0284 56.5582 76.9849 55.9327C75.1194 55.5895 73.2811 55.1122 71.4844 54.5043Z" fill="var(--fill-0, white)" stroke="var(--stroke-0, #263238)" stroke-linecap="round" stroke-linejoin="round"/>
<g id="Vector_36">
<path d="M70.1867 56.3831C70.1867 56.3831 71.9928 58.3199 75.6728 58.8622Z" fill="var(--fill-0, white)"/>
<path d="M70.1867 56.3831C70.1867 56.3831 71.9928 58.3199 75.6728 58.8622" stroke="var(--stroke-0, #263238)" stroke-linecap="round" stroke-linejoin="round"/>
</g>
<g id="Vector_37">
<path d="M68.1046 58.1647C68.1046 58.1647 69.7558 60.0434 71.0341 60.4938C72.1123 60.8182 73.2175 61.0451 74.3363 61.1716" fill="var(--fill-0, white)"/>
<path d="M68.1046 58.1647C68.1046 58.1647 69.7558 60.0434 71.0341 60.4938C72.1123 60.8182 73.2175 61.0451 74.3363 61.1716" stroke="var(--stroke-0, #263238)" stroke-linecap="round" stroke-linejoin="round"/>
</g>
<path id="Vector_38" d="M9.28347 19.1525C9.28347 19.1525 10.7651 23.3844 11.5011 25.2873C12.2371 27.1903 12.0337 27.8294 11.8207 28.1441C11.6076 28.4589 10.7651 28.9915 11.3994 29.9454C12.0337 30.8993 18.8029 36.395 23.1414 38.6175C27.4799 40.84 32.2348 43.169 32.2348 43.169C32.2348 43.169 28.4289 36.2933 28.2159 34.7051C28.0028 33.1169 30.2253 23.2779 30.5449 20.7407C30.8645 18.2034 30.2253 12.0686 30.1188 11.6425C30.0123 11.2164 9.28347 19.1525 9.28347 19.1525Z" fill="var(--fill-0, white)" stroke="var(--stroke-0, #263238)" stroke-linecap="round" stroke-linejoin="round"/>
<g id="Vector_39">
<path d="M10.2325 19.9996C10.2325 19.9996 10.5521 22.009 11.9272 22.6433C13.3024 23.2777 14.2514 22.8564 14.3482 21.8008" fill="var(--fill-0, white)"/>
<path d="M10.2325 19.9996C10.2325 19.9996 10.5521 22.009 11.9272 22.6433C13.3024 23.2777 14.2514 22.8564 14.3482 21.8008" stroke="var(--stroke-0, #263238)" stroke-linecap="round" stroke-linejoin="round"/>
</g>
<path id="Vector_40" d="M31.0727 40.3123C31.0727 40.3123 30.7579 35.8673 31.2857 35.6542C31.8135 35.4412 32.9756 38.4045 32.9756 37.2424C32.9756 36.0803 32.1331 33.33 31.3923 31.8484C30.6514 30.3667 28.642 30.3667 28.1093 32.3762C27.7812 33.4398 27.7461 34.5723 28.0077 35.6542L31.0727 40.3123Z" fill="var(--fill-0, #556DC2)" stroke="var(--stroke-0, #263238)" stroke-linecap="round" stroke-linejoin="round"/>
<path id="Vector_41" d="M32.5543 11.5358C32.5543 11.5358 33.7164 14.2861 33.5227 15.5596C33.3291 16.833 33.0966 16.8282 33.3097 17.356C33.5227 17.8838 35.1061 21.9027 34.8979 22.4353C34.6897 22.9679 32.4769 23.8104 32.4769 23.8104C32.1638 25.565 31.9424 27.3348 31.8135 29.1125C31.8135 30.5941 33.2952 30.7006 32.3413 33.1314C31.3874 35.5621 28.4289 35.9882 24.594 35.6686C20.7591 35.349 15.1811 30.8265 15.0746 29.3255C14.968 27.8245 14.5468 21.709 14.4402 20.7551C14.3746 20.1757 14.233 19.6076 14.019 19.0652C14.019 19.0652 23.8822 13.5501 32.5543 11.5358Z" fill="var(--fill-0, white)" stroke="var(--stroke-0, #263238)" stroke-linecap="round" stroke-linejoin="round"/>
<path id="Vector_42" d="M31.8135 29.1125C31.9333 27.3402 32.145 25.5753 32.4478 23.825C27.1603 21.9172 21.8679 26.4687 20.7059 26.4687C19.5438 26.4687 18.1686 25.2001 17.7425 22.8711C17.4229 21.0941 18.8417 16.7072 18.5608 15.7049C17.0259 16.4845 14.0432 19.0653 14.0432 19.0653C14.2572 19.6076 14.3989 20.1758 14.4645 20.7551C14.571 21.7235 14.9922 27.8439 15.0988 29.3256C15.2053 30.8072 20.8124 35.3539 24.6182 35.6686C28.4241 35.9834 31.3971 35.567 32.3655 33.1314C33.3339 30.6959 31.8135 30.5651 31.8135 29.1125Z" fill="var(--fill-0, #263238)" stroke="var(--stroke-0, #263238)" stroke-linecap="round" stroke-linejoin="round"/>
<path id="Vector_43" d="M31.0727 26.5604C30.1973 26.8474 29.2637 26.9091 28.3581 26.7399C27.4526 26.5706 26.6043 26.1758 25.8917 25.592" stroke="var(--stroke-0, white)" stroke-linecap="round" stroke-linejoin="round"/>
<path id="Vector_44" d="M7.3757 15.24C7.58767 14.0143 7.72994 12.7776 7.80181 11.5358C7.80181 10.3737 7.8018 4.66011 12.455 2.12288C17.1082 -0.41435 21.4467 0.544378 24.5165 1.51279C27.5864 2.4812 29.4845 4.05002 30.2253 5.11042C30.7314 5.871 31.1566 6.68242 31.4939 7.53145C31.4939 7.53145 23.1414 8.90659 19.6503 10.4948C16.1592 12.083 12.9828 14.3006 11.0799 14.9398C9.88313 15.3156 8.61734 15.4182 7.3757 15.24Z" fill="var(--fill-0, #263238)" stroke="var(--stroke-0, #263238)" stroke-linecap="round" stroke-linejoin="round"/>
<path id="Vector_45" d="M7.3757 15.2402C7.3757 15.2402 8.11654 20.1064 8.75085 20.8472C9.38515 21.5881 15.0988 19.6852 18.5899 17.7774C22.081 15.8696 29.3828 13.4195 30.7579 13.1242C31.803 12.9205 32.8648 12.8152 33.9295 12.8095C34.2349 11.9896 34.2349 11.0872 33.9295 10.2674C33.4017 8.99876 32.3413 5.82722 31.707 5.61417C31.0727 5.40112 22.7153 5.93374 18.6964 8.36445C14.6775 10.7952 9.38999 13.4438 8.85737 13.652C8.32474 13.8602 7.3757 13.5503 7.3757 15.2402Z" fill="var(--fill-0, #263238)" stroke="var(--stroke-0, #263238)" stroke-linecap="round" stroke-linejoin="round"/>
<path id="Vector_46" d="M10.9733 27.5096L9.91778 31.2138C11.5642 34.742 14.0739 37.798 17.2147 40.099C22.5071 44.0113 26.0999 46.8778 26.0999 45.8126C26.0999 44.7473 25.1315 38.8303 25.1315 38.8303C25.1315 38.8303 14.1304 31.3203 13.5106 30.5989C12.8908 29.8774 11.3994 26.9819 10.9733 27.5096Z" fill="var(--fill-0, #556DC2)" stroke="var(--stroke-0, #263238)" stroke-linecap="round" stroke-linejoin="round"/>
<path id="Vector_47" d="M29.959 18.213C29.959 18.9974 29.6685 19.6317 29.3053 19.6317C28.9422 19.6317 28.6516 18.9974 28.6516 18.213C28.6516 17.4286 28.9422 16.7943 29.3053 16.7943C29.6685 16.7943 29.959 17.4286 29.959 18.213Z" fill="var(--fill-0, #263238)"/>
<path id="Vector_48" d="M27.4847 15.5984C27.4847 15.5984 29.2521 13.9086 31.3583 14.7317" stroke="var(--stroke-0, #263238)" stroke-width="2" stroke-linecap="round" stroke-linejoin="round"/>
<g id="Vector_49">
<path d="M30.5449 20.7405C29.288 21.5656 27.8551 22.0847 26.3614 22.256Z" fill="var(--fill-0, white)"/>
<path d="M30.5449 20.7405C29.288 21.5656 27.8551 22.0847 26.3614 22.256" stroke="var(--stroke-0, #263238)" stroke-linecap="round" stroke-linejoin="round"/>
</g>
<path id="Vector_50" d="M42.7565 77.4119C42.7565 77.4119 59.7569 73.1848 60.8367 72.594C61.9165 72.0033 65.6546 67.8779 65.6546 67.8779C65.6546 67.8779 68.4048 66.2074 68.9956 66.1105C69.5863 66.0137 70.8597 65.2244 71.252 65.5198C71.9168 65.869 72.6081 66.1653 73.3195 66.4059C73.3195 66.4059 74.3509 66.2461 74.6172 67.1128C74.9271 68.1103 74.6559 69.0496 74.3751 68.977C74.3751 68.977 75.0869 70.3376 74.8883 70.9138C74.7624 71.2765 74.5208 71.5879 74.2008 71.7999C74.4142 72.3292 74.4828 72.9059 74.3993 73.4704C74.2483 73.9342 74.0154 74.3671 73.7117 74.7487C73.5192 75.3543 73.2191 75.9202 72.8256 76.4193C72.2349 77.1068 69.8768 77.6976 69.4846 77.7944C69.0924 77.8912 67.9109 78.5836 66.2404 79.1695C64.9224 79.588 63.5761 79.9117 62.2119 80.1379L38.6263 90.6549L42.7565 77.4119Z" fill="var(--fill-0, white)" stroke="var(--stroke-0, #263238)" stroke-linecap="round" stroke-linejoin="round"/>
<path id="Vector_51" d="M73.3195 66.3963C72.2836 66.3776 71.248 66.4522 70.2254 66.619C69.32 66.8611 68.0562 67.1032 67.8771 67.2194" stroke="var(--stroke-0, #263238)" stroke-linecap="round" stroke-linejoin="round"/>
<path id="Vector_52" d="M74.3751 68.977C74.3751 68.977 72.3317 68.6768 71.068 69.098" stroke="var(--stroke-0, #263238)" stroke-linecap="round" stroke-linejoin="round"/>
<path id="Vector_53" d="M74.2008 71.8095L71.4263 71.9257" stroke="var(--stroke-0, #263238)" stroke-linecap="round" stroke-linejoin="round"/>
<path id="Vector_54" d="M73.7117 74.7585C73.0359 74.6368 72.3537 74.5543 71.6684 74.5115" stroke="var(--stroke-0, #263238)" stroke-linecap="round" stroke-linejoin="round"/>
<path id="Vector_55" d="M31.2857 66.9675C31.2857 66.9675 27.0538 60.1887 23.2431 55.1191C19.4324 50.0494 15.0988 45.1783 8.96389 44.8588C2.82902 44.5392 0.5 49.7008 0.5 54.0587C0.5 58.4165 3.99111 66.2219 7.06097 70.3473C10.1308 74.4727 19.8585 83.784 23.4561 86.5342C27.0538 89.2845 31.8135 90.9744 32.4478 90.9744C33.0821 90.9744 33.0821 92.1413 35.6194 92.4561C38.1566 92.7708 40.0644 89.7058 41.9673 86.1081C43.8702 82.5105 45.2502 76.0609 43.662 75.8479C42.0738 75.6348 38.0549 75.0005 37.6336 76.1674C37.6336 76.1674 35.4111 74.0515 34.985 74.0515C34.5589 74.0515 33.4017 74.0515 33.4017 73.7319C33.4017 73.4123 31.2857 66.9675 31.2857 66.9675Z" fill="var(--fill-0, #556DC2)" stroke="var(--stroke-0, #263238)" stroke-linecap="round" stroke-linejoin="round"/>
<path id="Vector_56" d="M37.6336 76.1723C37.6336 76.1723 37.4206 82.0942 35.5177 85.2705C34.548 86.9395 33.4504 88.5309 32.2348 90.0303" stroke="var(--stroke-0, #263238)" stroke-linecap="round" stroke-linejoin="round"/>
<path id="Vector_57" d="M36.152 75.9592C36.152 75.9592 25.0443 76.9276 25.9837 77.5474C26.923 78.1672 30.3415 77.6539 30.3415 77.6539" stroke="var(--stroke-0, #263238)" stroke-linecap="round" stroke-linejoin="round"/>
<path id="Vector_58" d="M12.61 51.3375C15.9994 52.3059 20.6526 54.204 23.8822 57.5547" stroke="var(--stroke-0, #263238)" stroke-linecap="round" stroke-linejoin="round"/>
<path id="Vector_59" d="M8.32959 50.3594C8.32959 50.3594 9.41421 50.5095 11.0702 50.9211" stroke="var(--stroke-0, #263238)" stroke-linecap="round" stroke-linejoin="round"/>
<path id="Vector_60" d="M17.5343 55.3321C17.5343 55.3321 23.8822 57.5546 25.3591 58.7215" stroke="var(--stroke-0, #263238)" stroke-linecap="round" stroke-linejoin="round"/>
<path id="Vector_61" d="M75.4549 65.762L89.2837 43.6387C89.2837 43.6387 105.219 39.0484 115.286 27.8875C115.286 27.8875 130.683 28.7397 141.583 18.4649C141.583 18.4649 156.424 19.1331 163.856 14.107C163.856 14.107 179.176 14.9786 187.49 11.9184C187.49 11.9184 197.121 14.5428 205.435 11.9184C205.435 11.9184 217.056 15.4192 222.944 13.4485" stroke="var(--stroke-0, #263238)" stroke-linecap="round" stroke-linejoin="round"/>
<path id="Vector_62" d="M89.7486 44.7427C89.6562 44.7423 89.5649 44.7218 89.4813 44.6824C89.3977 44.6431 89.3236 44.586 89.2644 44.5151L87.2065 41.9924C87.1547 41.9306 87.116 41.8589 87.0928 41.7816C87.0695 41.7044 87.0622 41.6233 87.0713 41.5431C87.0803 41.463 87.1056 41.3855 87.1455 41.3154C87.1854 41.2453 87.2391 41.1841 87.3033 41.1354C87.4347 41.0356 87.5993 40.99 87.7633 41.008C87.9272 41.026 88.0781 41.1063 88.1846 41.2322L90.2425 43.7549C90.2933 43.8173 90.3311 43.8893 90.3536 43.9667C90.3761 44.044 90.3828 44.125 90.3733 44.205C90.3638 44.2849 90.3383 44.3622 90.2984 44.4321C90.2584 44.502 90.2048 44.5632 90.1408 44.6119C90.0283 44.6981 89.8902 44.7441 89.7486 44.7427Z" fill="var(--fill-0, white)" stroke="var(--stroke-0, #263238)" stroke-linecap="round" stroke-linejoin="round"/>
<path id="Vector_63" d="M115.799 29.3496C115.706 29.3334 115.618 29.2961 115.541 29.2407C115.465 29.1854 115.402 29.1133 115.358 29.03L113.818 26.1635C113.78 26.0926 113.756 26.0147 113.749 25.9344C113.741 25.8542 113.75 25.7733 113.774 25.6965C113.799 25.6196 113.838 25.5485 113.891 25.4873C113.943 25.4262 114.008 25.3762 114.08 25.3404C114.228 25.2677 114.398 25.2549 114.555 25.3045C114.711 25.3541 114.843 25.4623 114.922 25.6067L116.467 28.4732C116.506 28.5439 116.53 28.6217 116.537 28.702C116.545 28.7823 116.536 28.8632 116.511 28.9399C116.486 29.0165 116.445 29.0873 116.392 29.1477C116.339 29.2082 116.274 29.2571 116.201 29.2915C116.077 29.3558 115.935 29.3763 115.799 29.3496Z" fill="var(--fill-0, white)" stroke="var(--stroke-0, #263238)" stroke-linecap="round" stroke-linejoin="round"/>
<path id="Vector_64" d="M141.646 20.1352C141.556 20.1057 141.474 20.0564 141.407 19.991C141.339 19.9256 141.286 19.8458 141.253 19.7576L140.13 16.7022C140.102 16.627 140.089 16.5468 140.093 16.4666C140.097 16.3864 140.116 16.3077 140.151 16.2353C140.186 16.163 140.235 16.0984 140.296 16.0455C140.356 15.9926 140.427 15.9524 140.503 15.9275C140.659 15.8742 140.83 15.8838 140.979 15.9543C141.128 16.0248 141.244 16.1507 141.302 16.3052L142.425 19.3605C142.454 19.4357 142.467 19.516 142.464 19.5964C142.461 19.6769 142.441 19.7558 142.406 19.8283C142.371 19.9009 142.322 19.9655 142.261 20.0183C142.2 20.0711 142.129 20.1109 142.052 20.1352C141.921 20.1814 141.777 20.1814 141.646 20.1352Z" fill="var(--fill-0, white)" stroke="var(--stroke-0, #263238)" stroke-linecap="round" stroke-linejoin="round"/>
<path id="Vector_65" d="M163.812 15.5208C163.732 15.4725 163.664 15.4071 163.612 15.3292C163.56 15.2514 163.526 15.163 163.512 15.0705L163.028 11.8505C163.017 11.7708 163.021 11.6896 163.042 11.6118C163.062 11.5339 163.098 11.461 163.147 11.3973C163.197 11.3336 163.258 11.2804 163.328 11.241C163.398 11.2016 163.476 11.1767 163.556 11.1678C163.72 11.1496 163.884 11.1954 164.015 11.2955C164.146 11.3956 164.233 11.5424 164.258 11.7052L164.742 14.93C164.754 15.0094 164.749 15.0904 164.729 15.1679C164.708 15.2455 164.672 15.3181 164.623 15.3814C164.573 15.4447 164.512 15.4974 164.442 15.5364C164.371 15.5753 164.294 15.5996 164.214 15.6079C164.074 15.6267 163.932 15.5958 163.812 15.5208Z" fill="var(--fill-0, white)" stroke="var(--stroke-0, #263238)" stroke-linecap="round" stroke-linejoin="round"/>
<path id="Vector_66" d="M186.943 13.3613C186.878 13.3102 186.826 13.2455 186.789 13.1719C186.752 13.0983 186.732 13.0175 186.73 12.9352L186.701 10.0784C186.7 10.008 186.714 9.93829 186.741 9.87332C186.767 9.80834 186.807 9.74946 186.857 9.70018C186.908 9.65091 186.967 9.61227 187.033 9.58656C187.098 9.56085 187.168 9.54861 187.238 9.55057C187.383 9.55183 187.521 9.60988 187.624 9.71222C187.726 9.81456 187.784 9.95299 187.785 10.0977L187.814 12.9545C187.815 13.0244 187.802 13.0938 187.775 13.1584C187.749 13.2231 187.709 13.2817 187.66 13.3309C187.61 13.3801 187.551 13.4189 187.486 13.4449C187.421 13.4709 187.352 13.4836 187.282 13.4823C187.158 13.4813 187.039 13.4387 186.943 13.3613Z" fill="var(--fill-0, white)" stroke="var(--stroke-0, #263238)" stroke-linecap="round" stroke-linejoin="round"/>
<path id="Vector_67" d="M205.352 13.0659C205.301 13.0268 205.259 12.9762 205.231 12.9183C205.202 12.8603 205.187 12.7964 205.188 12.7318L205.164 10.4851C205.162 10.4296 205.172 10.3744 205.193 10.323C205.214 10.2715 205.245 10.2249 205.284 10.1859C205.324 10.1468 205.371 10.1163 205.422 10.0962C205.474 10.076 205.529 10.0666 205.585 10.0686C205.698 10.0723 205.805 10.1188 205.885 10.1989C205.966 10.2789 206.012 10.3864 206.016 10.4996L206.04 12.7463C206.04 12.8014 206.029 12.8559 206.008 12.9068C205.987 12.9576 205.955 13.0037 205.916 13.0425C205.877 13.0812 205.831 13.1118 205.78 13.1324C205.728 13.1531 205.674 13.1634 205.619 13.1627C205.522 13.1596 205.429 13.1257 205.352 13.0659Z" fill="var(--fill-0, white)" stroke="var(--stroke-0, #263238)" stroke-linecap="round" stroke-linejoin="round"/>
</g>
</svg>
