<svg preserveAspectRatio="none" width="100%" height="100%" overflow="visible" style="display: block;" viewBox="0 0 64.2817 142.623" fill="none" xmlns="http://www.w3.org/2000/svg">
<g id="freepik--group--inject-24">
<path id="Vector" d="M12.5359 106.308L15.808 108.859L16.2557 108.747L12.9835 105.753L10.4589 99.4142C10.3739 98.519 10.2754 97.5924 10.1411 96.6613C10.0874 96.2853 10.0024 95.8601 9.91732 95.4796C9.83227 95.0991 9.72932 94.7366 9.63084 94.374C9.42941 93.6444 9.21903 92.9282 9.00417 92.212C8.16264 89.3964 7.26738 86.6167 6.34976 83.8324L5.26203 62.0914L2.52705 62.2659L4.21012 84.101V84.2532L4.2504 84.3741C5.21727 87.1762 6.16623 89.9918 7.05253 92.8073C7.27186 93.5101 7.50015 94.2173 7.68815 94.9201C7.79558 95.2692 7.88958 95.6184 7.97911 95.9675C8.06863 96.3167 8.12234 96.6121 8.18054 96.9702C8.40435 98.3847 8.55206 99.8708 8.70425 101.335C9.2235 106.796 9.5995 112.288 9.96656 117.78L8.9415 122.404L9.66665 127.807L8.9415 131.871L9.3354 131.983L10.3963 127.717L9.77407 122.914L10.5395 120.788L13.1447 129.548L14.0399 142.623L15.3828 142.543L14.6666 129.365V129.289L14.6397 129.199L11.7257 118.904C11.4616 113.693 11.1707 108.492 10.7723 103.277L12.5359 106.308Z" fill="var(--fill-0, #263238)"/>
<path id="Vector_2" d="M9.46969 55.95L5.69174 59.2713L3.21191 58.7566C3.21191 58.7566 -0.328794 61.5811 0.0248283 61.9973C0.378451 62.4136 1.56018 64.6115 2.38828 64.6383C3.21638 64.6652 6.65861 62.5614 6.65861 62.5614L11.1348 59.513L9.46969 55.95Z" fill="var(--fill-0, #E4897B)"/>
<path id="Vector_3" d="M27.4194 23.6136C25.4187 25.1533 23.6868 27.0138 22.2941 29.1194C20.0067 32.5885 17.1598 44.9071 15.5797 47.7763C13.9996 50.6456 7.12857 57.2436 7.12857 57.2436L9.18764 61.9481C9.18764 61.9481 18.7668 56.5139 22.7417 51.1022C26.7166 45.6904 30.7989 28.439 30.7989 28.439L27.4194 23.6136Z" fill="var(--fill-0, #407BFF)"/>
<path id="Vector_4" opacity="0.6" d="M27.4194 23.6136C25.4187 25.1533 23.6868 27.0138 22.2941 29.1194C20.0067 32.5885 17.1598 44.9071 15.5797 47.7763C13.9996 50.6456 7.12857 57.2436 7.12857 57.2436L9.18764 61.9481C9.18764 61.9481 18.7668 56.5139 22.7417 51.1022C26.7166 45.6904 30.7989 28.439 30.7989 28.439L27.4194 23.6136Z" fill="var(--fill-0, white)"/>
<path id="Vector_5" d="M49.1828 6.02202L44.1873 5.04173C43.3666 4.51422 42.4564 4.14105 41.5016 3.94057C39.7111 3.49295 38.3682 3.09904 37.849 3.67648C37.3297 4.25391 36.4345 6.33088 36.9224 6.63974C38.5167 7.30747 40.1637 7.84197 41.8463 8.23776C42.2855 8.24368 42.7231 8.18332 43.1444 8.05871L48.574 9.60749L49.1828 6.02202Z" fill="var(--fill-0, #E4897B)"/>
<path id="Vector_6" d="M45.0289 139.136L48.8202 139.535L49.0127 137.337L49.532 131.357L45.7406 130.954L45.1632 137.561L45.0289 139.136Z" fill="var(--fill-0, #E4897B)"/>
<path id="Vector_7" d="M26.0989 138.657H29.7739L29.8052 137.825L29.8097 137.722L29.9977 132.391L30.0022 132.283L30.0783 130.238H26.3988L26.0989 138.657Z" fill="var(--fill-0, #E4897B)"/>
<path id="Vector_8" opacity="0.2" d="M45.7406 130.954L45.1632 137.561L49.0127 137.337L49.532 131.357L45.7406 130.954Z" fill="var(--fill-0, black)"/>
<path id="Vector_9" opacity="0.2" d="M26.1213 138.187H26.1257L29.8052 137.722H29.8097L30.0022 132.579H29.9977L26.3137 132.87L26.1257 138.026L26.1213 138.187Z" fill="var(--fill-0, black)"/>
<path id="Vector_10" d="M30.2841 138.434H25.8079C25.7346 138.435 25.6639 138.461 25.6071 138.507C25.5502 138.553 25.5106 138.617 25.4946 138.689L24.7694 141.961C24.7544 142.031 24.7533 142.103 24.7664 142.173C24.7794 142.244 24.8062 142.311 24.8454 142.371C24.8845 142.431 24.9351 142.482 24.9943 142.523C25.0535 142.563 25.1201 142.591 25.1902 142.605C25.2288 142.61 25.2679 142.61 25.3066 142.605C26.7524 142.583 27.8043 142.493 29.6172 142.493C30.7362 142.493 34.0934 142.61 35.6512 142.61C37.2089 142.61 37.3969 141.088 36.7657 140.945C33.9323 140.331 31.7971 139.472 30.8929 138.662C30.7258 138.512 30.5085 138.431 30.2841 138.434Z" fill="var(--fill-0, #263238)"/>
<path id="Vector_11" d="M49.2231 138.317H44.7469C44.6736 138.318 44.6029 138.344 44.546 138.39C44.4892 138.437 44.4496 138.501 44.4335 138.572L43.7173 141.844C43.6882 141.986 43.716 142.133 43.7949 142.253C43.8737 142.374 43.9971 142.459 44.1381 142.489H44.2545C45.7003 142.489 46.7522 142.377 48.5696 142.377C49.6842 142.377 53.0458 142.493 54.5991 142.493C56.1523 142.493 56.3448 140.972 55.7137 140.828C52.8802 140.211 50.7495 139.356 49.8408 138.541C49.6707 138.391 49.4499 138.311 49.2231 138.317Z" fill="var(--fill-0, #263238)"/>
<path id="Vector_12" d="M49.8812 136.786H44.4873C44.4873 136.786 44.9349 90.3678 39.1158 74.692C38.704 79.8755 38.2206 85.2514 37.7729 89.7321C37.4865 92.5029 37.2045 94.8888 36.9404 96.7016C35.2394 108.394 30.9556 137.252 30.9556 137.252H25.6289C25.6289 137.252 26.2601 109.598 26.8912 98.1072C27.585 85.6364 27.8849 58.2194 27.9163 55.8828H47.4237C49.2813 65.7037 54.0441 104.987 49.8812 136.786Z" fill="var(--fill-0, #263238)"/>
<path id="Vector_13" d="M40.3557 14.6656C40.3065 14.8447 40.2572 15.0193 40.1946 15.1894C39.8482 16.1621 39.2144 17.0066 38.3772 17.611C38.1653 17.7644 37.9424 17.9021 37.7102 18.0228C37.1011 18.3467 36.4273 18.5305 35.7381 18.5607C35.0488 18.5909 34.3615 18.4668 33.7264 18.1974C33.1538 17.9545 32.6373 17.5965 32.209 17.1455C30.3647 15.2878 30.4185 13.1392 30.2081 9.50454C30.1457 8.65594 30.3015 7.8055 30.6607 7.03414C31.0198 6.26277 31.5704 5.59614 32.26 5.09767C32.9496 4.59921 33.7553 4.2855 34.6004 4.18639C35.4454 4.08727 36.3018 4.20606 37.0881 4.53144C40.6377 5.98622 41.1301 11.3935 40.3557 14.6656Z" fill="var(--fill-0, #E4897B)"/>
<path id="Vector_14" opacity="0.2" d="M38.3638 17.611C38.1518 17.7645 37.9289 17.9021 37.6968 18.0229C37.0876 18.3467 36.4139 18.5305 35.7246 18.5607C35.0354 18.5909 34.3481 18.4668 33.7129 18.1974C33.8747 17.7606 34.0929 17.3467 34.362 16.9665C35.7301 16.793 37.1193 17.0168 38.3638 17.611Z" fill="var(--fill-0, black)"/>
<path id="Vector_15" d="M31.0451 22.3289C32.8356 23.9538 37.2268 23.354 37.2268 23.354C37.2268 23.354 39.9618 22.602 39.3888 21.747C37.7729 21.4785 36.994 20.7265 36.6717 19.7641C36.4951 19.1663 36.4389 18.5395 36.5061 17.9199C36.5348 17.576 36.5811 17.2339 36.6449 16.8948L31.2197 12.8662C31.9314 15.5295 32.7998 20.4042 31.0451 22.3289Z" fill="var(--fill-0, #E4897B)"/>
<path id="Vector_16" d="M36.0406 2.96031C36.0406 2.96031 38.3996 1.97106 40.0423 3.51537C41.4255 4.82243 40.5258 6.83226 41.3628 8.50189C42.1999 10.1715 39.1784 11.2637 39.1784 11.2637C39.1784 11.2637 38.3772 12.9826 36.9895 12.8752C36.9895 12.8752 35.8571 14.2494 36.0406 15.6639C36.2241 17.0784 34.1829 18.2064 31.4077 18.1706C28.6324 18.1348 29.7425 16.3801 29.7425 16.3801C28.9388 15.4526 28.289 14.4022 27.8177 13.2691C27.2558 11.8908 26.9874 10.4105 27.0299 8.92266C27.0041 8.15003 27.1326 7.38 27.4077 6.65756C27.6829 5.93512 28.0992 5.27474 28.6324 4.715C30.508 2.63355 34.8991 1.60401 36.0406 2.96031Z" fill="var(--fill-0, #263238)"/>
<path id="Vector_17" d="M36.2957 11.6174C36.366 11.959 36.5108 12.2809 36.7197 12.5602C36.9286 12.8395 37.1965 13.0693 37.5043 13.2333C38.2474 13.5466 38.7353 12.5037 38.6279 11.4115C38.5249 10.4401 38.0236 9.07934 37.2313 9.25839C36.439 9.43744 36.0361 10.6415 36.2957 11.6174Z" fill="var(--fill-0, #E4897B)"/>
<path id="Vector_18" d="M40.6646 3.45267C41.7568 4.79554 38.3861 14.1688 33.3414 15.0551C28.2967 15.9414 26.6271 16.295 27.3746 12.4857C27.3746 12.4857 25.8303 9.20911 27.021 5.77136C27.021 5.77136 26.4391 5.68183 26.5734 4.53144C26.7077 3.38104 30.9601 0.279014 33.704 0.0149163C36.4479 -0.249182 39.4604 3.08114 39.4604 3.08114C39.4604 3.08114 40.02 2.6559 40.6646 3.45267Z" fill="var(--fill-0, #407BFF)"/>
<path id="Vector_19" opacity="0.2" d="M39.0979 74.6696C38.6861 79.8531 38.2026 85.2425 37.755 89.7232C37.0925 83.255 36.2778 78.64 36.2778 78.64C36.2778 78.64 35.5124 78.0133 33.4175 74.6696C31.3226 71.3259 33.4175 65.086 33.4175 65.086C33.3683 70.8827 39.0979 74.6696 39.0979 74.6696Z" fill="var(--fill-0, black)"/>
<path id="Vector_20" d="M50.4854 135.264L50.2213 136.786H43.8516V135.381L50.4854 135.264Z" fill="var(--fill-0, #407BFF)"/>
<path id="Vector_21" d="M31.5644 135.851L30.9556 137.252H25.611L25.2618 135.851H31.5644Z" fill="var(--fill-0, #407BFF)"/>
<path id="Vector_22" d="M27.7371 59.0788V61.9481L48.1801 60.5157V57.9732L27.7371 59.0788Z" fill="var(--fill-0, #407BFF)"/>
<path id="Vector_23" opacity="0.2" d="M27.7371 59.0788V61.9481L48.1801 60.5157V57.9732L27.7371 59.0788Z" fill="var(--fill-0, white)"/>
<path id="Vector_24" d="M49.1784 56.7109C49.1978 56.9684 49.1654 57.227 49.083 57.4717C49.0007 57.7163 48.8701 57.942 48.6989 58.1352C48.5278 58.3285 48.3196 58.4854 48.0867 58.5968C47.8538 58.7081 47.601 58.7716 47.3431 58.7834L28.1579 59.719C28.0116 59.7269 27.8652 59.705 27.7276 59.6546C27.59 59.6043 27.464 59.5266 27.3573 59.4261C27.2506 59.3257 27.1654 59.2047 27.1068 59.0703C27.0482 58.936 27.0175 58.7912 27.0165 58.6447C26.8956 46.9662 22.8984 25.7264 25.6289 23.6137C28.4534 21.4293 42.3073 20.2833 42.3073 20.2833C42.9575 21.811 43.5253 23.3725 44.0083 24.961C44.0665 25.1624 44.1336 25.3639 44.1873 25.5698C44.9841 28.1973 45.6511 31.0353 46.2285 33.9045C46.2688 34.097 46.3091 34.294 46.3449 34.4864C47.7085 41.8351 48.6545 49.2552 49.1784 56.7109Z" fill="var(--fill-0, #407BFF)"/>
<path id="Vector_25" opacity="0.6" d="M49.1784 56.7109C49.1978 56.9684 49.1654 57.227 49.083 57.4717C49.0007 57.7163 48.8701 57.942 48.6989 58.1352C48.5278 58.3285 48.3196 58.4854 48.0867 58.5968C47.8538 58.7081 47.601 58.7716 47.3431 58.7834L28.1579 59.719C28.0116 59.7269 27.8652 59.705 27.7276 59.6546C27.59 59.6043 27.464 59.5266 27.3573 59.4261C27.2506 59.3257 27.1654 59.2047 27.1068 59.0703C27.0482 58.936 27.0175 58.7912 27.0165 58.6447C26.8956 46.9662 22.8984 25.7264 25.6289 23.6137C28.4534 21.4293 42.3073 20.2833 42.3073 20.2833C42.8713 21.5904 43.3906 23.0138 43.8695 24.5179C43.9143 24.6656 43.9635 24.8133 44.0083 24.9655C44.0531 25.1177 44.1336 25.3683 44.1873 25.5743C44.9304 28.0183 45.5571 30.6458 46.1077 33.3137L46.2285 33.909C46.2688 34.1015 46.3091 34.2984 46.3449 34.4909C47.7083 41.8381 48.6543 49.2567 49.1784 56.7109Z" fill="var(--fill-0, white)"/>
<path id="Vector_26" d="M20.0917 32.0156C20.0917 32.0156 18.0685 25.3549 21.0362 22.0291C24.004 18.7032 34.4112 19.2941 35.5437 19.5313C39.0307 20.2565 40.2661 25.9682 41.5105 32.0648C42.7549 38.1614 44.1739 59.0252 42.0477 60.3501C39.9215 61.6751 25.5214 63.2597 23.0416 61.9347C20.5617 60.6098 20.0917 32.0156 20.0917 32.0156Z" fill="var(--fill-0, #263238)"/>
<path id="Vector_27" d="M18.2028 31.8051C18.2028 31.8051 16.184 25.0147 19.1473 21.5859C22.1105 18.1571 32.5267 18.7883 33.6547 19.03C37.1417 19.773 37.4014 24.209 38.3637 34.84C40.0692 53.7118 41.5911 59.7727 39.4694 61.1245C37.3476 62.4763 23.6325 63.8102 21.1526 62.4405C18.6728 61.0708 18.2028 31.8051 18.2028 31.8051Z" fill="var(--fill-0, #407BFF)"/>
<path id="Vector_28" d="M37.4282 22.4901C37.4282 22.4901 38.1713 19.5761 42.3073 20.2833C42.3073 20.2833 39.7559 20.252 39.8678 28.6763C39.9797 37.1005 43.0414 48.2911 43.0414 48.2911C43.0414 48.2911 46.7567 48.121 47.7012 42.7943L48.1488 44.4102C48.1488 44.4102 47.5669 52.1855 41.985 53.7253C42.0164 53.7119 39.4828 26.8276 37.4282 22.4901Z" fill="var(--fill-0, #263238)"/>
<path id="Vector_29" opacity="0.2" d="M46.1076 33.3091C41.2554 29.0254 42.9161 24.1821 42.9161 24.1821L43.8695 24.5178C43.9143 24.6655 43.9635 24.8132 44.0083 24.9654C44.053 25.1176 44.1336 25.3683 44.1873 25.5742C44.9304 28.0138 45.5571 30.6413 46.1076 33.3091Z" fill="var(--fill-0, black)"/>
<path id="Vector_30" d="M64.2408 13.8241C63.3053 7.58425 49.4693 5.46699 46.1748 5.0507C45.6258 6.72307 45.4457 8.49449 45.6466 10.2431C45.6466 10.2431 55.6554 13.0005 55.7405 13.7077C55.8255 14.415 43.968 19.1106 42.3118 20.2654C42.3118 20.2654 41.515 22.0291 42.8086 25.4847C43.8874 28.3585 45.1766 29.1508 45.1766 29.1508C45.1766 29.1508 65.3062 20.8966 64.2408 13.8241Z" fill="var(--fill-0, #407BFF)"/>
<path id="Vector_31" opacity="0.6" d="M64.2408 13.8241C63.3053 7.58425 49.4693 5.46699 46.1748 5.0507C45.6258 6.72307 45.4457 8.49449 45.6466 10.2431C45.6466 10.2431 55.6554 13.0005 55.7405 13.7077C55.8255 14.415 43.968 19.1106 42.3118 20.2654C42.3118 20.2654 41.515 22.0291 42.8086 25.4847C43.8874 28.3585 45.1766 29.1508 45.1766 29.1508C45.1766 29.1508 65.3062 20.8966 64.2408 13.8241Z" fill="var(--fill-0, white)"/>
</g>
</svg>
