<svg width="176" height="55" viewBox="0 0 176 55" fill="none" xmlns="http://www.w3.org/2000/svg">
<rect x="0.5" y="0.5" width="156" height="54" rx="13.5" fill="#FAFAFA"/>
<rect x="0.5" y="0.5" width="156" height="54" rx="13.5" stroke="#EEEEFB"/>
<path d="M28.64 13.8708C28.3495 13.8708 28.0708 13.7556 27.865 13.5505C27.6593 13.3453 27.5432 13.067 27.5424 12.7764C27.5432 10.7407 28.3523 8.78852 29.7918 7.34903C31.2313 5.90953 33.1834 5.10046 35.2192 5.09961C35.8272 5.09961 36.3136 5.59241 36.3136 6.19721C36.3111 8.23075 35.5021 10.1803 34.0642 11.6182C32.6263 13.0561 30.6767 13.8651 28.6432 13.8676L28.64 13.8708ZM44.6496 36.962C45.072 37.2788 45.2096 37.858 44.9696 38.3284C41.1136 46.0532 38.032 49.8996 35.2192 49.8996C33.9093 49.8953 32.6261 49.4793 31.3696 48.6516C30.4738 48.0607 29.4294 47.735 28.3565 47.7117C27.2837 47.6885 26.2261 47.9688 25.3056 48.5204C23.7888 49.4292 22.3392 49.8996 20.9664 49.8996C16.8256 49.8996 10 37.1572 10 30.162C10 22.6996 13.9136 17.0036 19.8688 17.0036C22.6699 17.0036 25.0869 17.4196 27.12 18.2516C27.9808 18.61 28.9536 18.5844 29.7952 18.1812C31.4432 17.3876 33.616 17.0036 36.3168 17.0036C39.6128 17.0036 42.48 18.6452 44.8672 21.8292C45.0419 22.0618 45.1171 22.3542 45.0763 22.6422C45.0355 22.9302 44.882 23.1903 44.6496 23.3652C41.984 25.362 40.7008 27.6084 40.7008 30.162C40.7008 32.7188 41.984 34.962 44.6496 36.962Z" stroke="#9B9AE6" stroke-width="2.75"/>
<path d="M61.4839 22.612C61.0359 22.612 60.5972 22.57 60.1679 22.486C59.7386 22.3927 59.3419 22.248 58.9779 22.052C58.6232 21.856 58.3339 21.5993 58.1099 21.282C57.8859 20.9647 57.7599 20.5773 57.7319 20.12H58.7539C58.7912 20.4187 58.8939 20.6707 59.0619 20.876C59.2299 21.072 59.4446 21.2353 59.7059 21.366C59.9672 21.4873 60.2472 21.576 60.5459 21.632C60.8539 21.6787 61.1479 21.702 61.4279 21.702C61.7079 21.702 62.0019 21.6787 62.3099 21.632C62.6179 21.5853 62.9072 21.4967 63.1779 21.366C63.4486 21.226 63.6679 21.03 63.8359 20.778C64.0039 20.5167 64.0879 20.1807 64.0879 19.77C64.0879 19.378 64.0179 19.0607 63.8779 18.818C63.7472 18.5753 63.5559 18.3887 63.3039 18.258C63.0612 18.118 62.7766 18.0293 62.4499 17.992C62.1326 17.9453 61.7919 17.922 61.4279 17.922H60.1819V17.012H60.9519C61.2879 17.012 61.6146 16.9793 61.9319 16.914C62.2586 16.8487 62.5526 16.746 62.8139 16.606C63.0846 16.4567 63.2992 16.2653 63.4579 16.032C63.6166 15.7987 63.6959 15.514 63.6959 15.178C63.6959 14.702 63.5792 14.338 63.3459 14.086C63.1219 13.834 62.8372 13.6567 62.4919 13.554C62.1466 13.4513 61.7872 13.4 61.4139 13.4C61.0499 13.4 60.6859 13.4513 60.3219 13.554C59.9672 13.6567 59.6686 13.82 59.4259 14.044C59.1832 14.268 59.0479 14.562 59.0199 14.926H57.9979C58.0072 14.5247 58.0959 14.184 58.2639 13.904C58.4319 13.624 58.6466 13.3953 58.9079 13.218C59.1786 13.0313 59.4679 12.8867 59.7759 12.784C60.0839 12.672 60.3872 12.5973 60.6859 12.56C60.9939 12.5133 61.2646 12.49 61.4979 12.49C61.9086 12.49 62.3006 12.5367 62.6739 12.63C63.0472 12.714 63.3832 12.854 63.6819 13.05C63.9899 13.246 64.2326 13.5073 64.4099 13.834C64.5872 14.1513 64.6759 14.5433 64.6759 15.01C64.6759 15.2807 64.6292 15.556 64.5359 15.836C64.4519 16.116 64.2932 16.382 64.0599 16.634C63.8266 16.886 63.4859 17.1053 63.0379 17.292C63.7099 17.3947 64.2232 17.6793 64.5779 18.146C64.9419 18.6033 65.1239 19.1447 65.1239 19.77C65.1146 20.2833 65.0026 20.722 64.7879 21.086C64.5826 21.45 64.3072 21.744 63.9619 21.968C63.6166 22.192 63.2292 22.3553 62.7999 22.458C62.3799 22.5607 61.9412 22.612 61.4839 22.612ZM69.1279 22.584C68.8292 22.584 68.5259 22.5467 68.2179 22.472C67.9099 22.388 67.6299 22.262 67.3779 22.094C67.1259 21.9167 66.9206 21.6927 66.7619 21.422C66.6126 21.142 66.5379 20.8153 66.5379 20.442C66.5379 20.022 66.6126 19.672 66.7619 19.392C66.9206 19.112 67.1306 18.888 67.3919 18.72C67.6532 18.552 67.9519 18.4353 68.2879 18.37C68.6239 18.2953 68.9786 18.258 69.3519 18.258H71.6899C71.6899 17.8007 71.6246 17.3993 71.4939 17.054C71.3726 16.6993 71.1672 16.4193 70.8779 16.214C70.5979 16.0087 70.2199 15.906 69.7439 15.906C69.4919 15.906 69.2492 15.934 69.0159 15.99C68.7826 16.046 68.5726 16.1393 68.3859 16.27C68.2086 16.3913 68.0686 16.5593 67.9659 16.774H66.9019C66.9859 16.4473 67.1259 16.172 67.3219 15.948C67.5272 15.724 67.7652 15.5467 68.0359 15.416C68.3066 15.276 68.5912 15.178 68.8899 15.122C69.1886 15.066 69.4732 15.038 69.7439 15.038C70.4439 15.038 71.0086 15.1827 71.4379 15.472C71.8672 15.752 72.1752 16.1533 72.3619 16.676C72.5579 17.1893 72.6559 17.796 72.6559 18.496V22.5H71.8019L71.7599 21.492C71.5546 21.772 71.3072 21.9913 71.0179 22.15C70.7379 22.3087 70.4346 22.4207 70.1079 22.486C69.7906 22.5513 69.4639 22.584 69.1279 22.584ZM69.2259 21.716C69.6832 21.716 70.0986 21.6413 70.4719 21.492C70.8452 21.3333 71.1392 21.1 71.3539 20.792C71.5779 20.484 71.6899 20.1013 71.6899 19.644V19.084H70.0379C69.7486 19.084 69.4546 19.0933 69.1559 19.112C68.8572 19.1213 68.5866 19.168 68.3439 19.252C68.1012 19.3267 67.9052 19.4527 67.7559 19.63C67.6066 19.798 67.5319 20.0407 67.5319 20.358C67.5319 20.6753 67.6112 20.9367 67.7699 21.142C67.9286 21.338 68.1386 21.4827 68.3999 21.576C68.6612 21.6693 68.9366 21.716 69.2259 21.716ZM74.5558 22.5V15.122H79.5818V15.99H75.5498V22.5H74.5558ZM80.8996 25.23V15.122H81.8516L81.8936 16.368C82.1829 15.9107 82.5469 15.5747 82.9856 15.36C83.4336 15.1453 83.9329 15.038 84.4836 15.038C85.2303 15.038 85.8416 15.206 86.3176 15.542C86.7936 15.878 87.1483 16.3353 87.3816 16.914C87.6149 17.4833 87.7316 18.1227 87.7316 18.832C87.7316 19.56 87.6103 20.2087 87.3676 20.778C87.1343 21.3473 86.7703 21.7907 86.2756 22.108C85.7903 22.4253 85.1743 22.584 84.4276 22.584C84.0823 22.584 83.7509 22.5467 83.4336 22.472C83.1163 22.3973 82.8269 22.276 82.5656 22.108C82.3043 21.9307 82.0803 21.7113 81.8936 21.45V25.23H80.8996ZM84.3856 21.716C84.9643 21.716 85.4216 21.5853 85.7576 21.324C86.1029 21.0533 86.3503 20.6987 86.4996 20.26C86.6583 19.8213 86.7376 19.3407 86.7376 18.818C86.7376 18.286 86.6583 17.8007 86.4996 17.362C86.3409 16.9233 86.0843 16.5733 85.7296 16.312C85.3749 16.0413 84.9083 15.906 84.3296 15.906C83.7976 15.906 83.3449 16.0413 82.9716 16.312C82.6076 16.5827 82.3323 16.942 82.1456 17.39C81.9589 17.838 81.8656 18.3187 81.8656 18.832C81.8656 19.3827 81.9543 19.8773 82.1316 20.316C82.3183 20.7453 82.5983 21.086 82.9716 21.338C83.3543 21.59 83.8256 21.716 84.3856 21.716ZM89.5591 25.748V24.81C90.0165 24.81 90.3851 24.74 90.6651 24.6C90.9545 24.46 91.1925 24.2453 91.3791 23.956C91.5751 23.6667 91.7618 23.3073 91.9391 22.878L88.6491 15.122H89.8251L92.4851 21.702L94.6831 15.122H95.8171L93.5911 21.366C93.4978 21.6367 93.3858 21.9447 93.2551 22.29C93.1338 22.626 92.9985 22.9713 92.8491 23.326C92.6998 23.6807 92.5365 24.012 92.3591 24.32C92.1818 24.628 91.9858 24.8753 91.7711 25.062C91.5751 25.2393 91.3791 25.3747 91.1831 25.468C90.9965 25.5707 90.7771 25.6407 90.5251 25.678C90.2731 25.7247 89.9511 25.748 89.5591 25.748ZM99.6237 22.584C99.2877 22.584 98.9471 22.556 98.6017 22.5C98.2657 22.444 97.9484 22.346 97.6497 22.206C97.3604 22.066 97.1177 21.8747 96.9217 21.632C96.7257 21.38 96.6091 21.0627 96.5717 20.68H97.5517C97.6264 20.9507 97.7804 21.1653 98.0137 21.324C98.2564 21.4733 98.5224 21.576 98.8117 21.632C99.1104 21.688 99.3764 21.716 99.6097 21.716C99.8991 21.716 100.198 21.6833 100.506 21.618C100.814 21.5527 101.07 21.4267 101.276 21.24C101.49 21.0533 101.598 20.778 101.598 20.414C101.598 20.0593 101.509 19.798 101.332 19.63C101.154 19.462 100.926 19.35 100.646 19.294C100.366 19.238 100.072 19.21 99.7637 19.21H98.4757V18.356H99.4417C99.6377 18.356 99.8431 18.3373 100.058 18.3C100.282 18.2627 100.487 18.1973 100.674 18.104C100.86 18.0107 101.01 17.88 101.122 17.712C101.243 17.544 101.304 17.3293 101.304 17.068C101.304 16.7787 101.22 16.55 101.052 16.382C100.884 16.2047 100.669 16.0833 100.408 16.018C100.146 15.9433 99.8851 15.906 99.6237 15.906C99.3904 15.906 99.1431 15.9293 98.8817 15.976C98.6204 16.0227 98.3917 16.116 98.1957 16.256C97.9997 16.396 97.8737 16.606 97.8177 16.886H96.8237C96.8611 16.41 97.0244 16.0413 97.3137 15.78C97.6124 15.5093 97.9671 15.318 98.3777 15.206C98.7977 15.094 99.2084 15.038 99.6097 15.038C99.9271 15.038 100.24 15.0707 100.548 15.136C100.865 15.192 101.15 15.2947 101.402 15.444C101.663 15.5933 101.868 15.794 102.018 16.046C102.176 16.2887 102.26 16.592 102.27 16.956C102.279 17.3107 102.195 17.628 102.018 17.908C101.85 18.188 101.57 18.412 101.178 18.58C101.691 18.7013 102.055 18.93 102.27 19.266C102.484 19.602 102.592 19.9847 102.592 20.414C102.592 20.8153 102.503 21.1513 102.326 21.422C102.158 21.6927 101.929 21.9167 101.64 22.094C101.36 22.2713 101.042 22.3973 100.688 22.472C100.342 22.5467 99.9877 22.584 99.6237 22.584ZM104.183 22.5V15.122H105.177V21.184C105.242 21.0627 105.321 20.9367 105.415 20.806C105.517 20.666 105.601 20.5493 105.667 20.456L109.433 15.122H110.525V22.5H109.531V16.438C109.456 16.5687 109.377 16.6947 109.293 16.816C109.209 16.9373 109.125 17.054 109.041 17.166L105.275 22.5H104.183ZM114.218 22.5V15.99H111.586V15.122H117.816V15.99H115.198V22.5H114.218ZM122.072 22.584C121.297 22.584 120.653 22.4253 120.14 22.108C119.626 21.7813 119.244 21.3333 118.992 20.764C118.74 20.1947 118.614 19.546 118.614 18.818C118.614 18.09 118.744 17.446 119.006 16.886C119.267 16.3167 119.654 15.8687 120.168 15.542C120.681 15.206 121.311 15.038 122.058 15.038C122.599 15.038 123.07 15.1407 123.472 15.346C123.882 15.542 124.223 15.8127 124.494 16.158C124.764 16.5033 124.96 16.8953 125.082 17.334C125.212 17.7727 125.278 18.2253 125.278 18.692C125.278 18.776 125.278 18.8553 125.278 18.93C125.278 19.0047 125.273 19.0793 125.264 19.154H119.608C119.645 19.6487 119.757 20.092 119.944 20.484C120.13 20.8667 120.401 21.17 120.756 21.394C121.12 21.6087 121.572 21.716 122.114 21.716C122.366 21.716 122.622 21.688 122.884 21.632C123.145 21.5667 123.383 21.4593 123.598 21.31C123.812 21.1513 123.971 20.946 124.074 20.694H125.11C124.979 21.1327 124.76 21.492 124.452 21.772C124.144 22.052 123.78 22.2573 123.36 22.388C122.94 22.5187 122.51 22.584 122.072 22.584ZM119.636 18.3H124.284C124.274 17.8427 124.176 17.4367 123.99 17.082C123.803 16.718 123.546 16.4333 123.22 16.228C122.893 16.0133 122.492 15.906 122.016 15.906C121.521 15.906 121.101 16.018 120.756 16.242C120.41 16.466 120.144 16.76 119.958 17.124C119.78 17.488 119.673 17.88 119.636 18.3ZM130.72 22.5V15.122H133.562C133.87 15.122 134.183 15.1453 134.5 15.192C134.817 15.2293 135.107 15.3133 135.368 15.444C135.639 15.5653 135.853 15.7473 136.012 15.99C136.18 16.2233 136.264 16.5407 136.264 16.942C136.264 17.1567 136.227 17.3667 136.152 17.572C136.077 17.7773 135.961 17.964 135.802 18.132C135.653 18.3 135.443 18.44 135.172 18.552C135.704 18.664 136.091 18.8833 136.334 19.21C136.577 19.5273 136.698 19.91 136.698 20.358C136.698 20.7313 136.628 21.0533 136.488 21.324C136.357 21.5947 136.171 21.8187 135.928 21.996C135.695 22.164 135.419 22.29 135.102 22.374C134.794 22.458 134.467 22.5 134.122 22.5H130.72ZM131.728 21.646H133.856C134.155 21.646 134.444 21.618 134.724 21.562C135.013 21.4967 135.247 21.38 135.424 21.212C135.611 21.0347 135.704 20.778 135.704 20.442C135.704 20.1247 135.634 19.882 135.494 19.714C135.354 19.5367 135.172 19.4107 134.948 19.336C134.724 19.2613 134.481 19.2147 134.22 19.196C133.959 19.1773 133.711 19.168 133.478 19.168H131.728V21.646ZM131.728 18.342H133.072C133.277 18.342 133.506 18.328 133.758 18.3C134.01 18.272 134.253 18.216 134.486 18.132C134.719 18.048 134.911 17.9267 135.06 17.768C135.209 17.6 135.284 17.3807 135.284 17.11C135.284 16.7367 135.181 16.4753 134.976 16.326C134.78 16.1673 134.537 16.0693 134.248 16.032C133.968 15.9947 133.697 15.976 133.436 15.976H131.728V18.342Z" fill="#111111"/>
<path d="M57.2479 41.5L61.4559 30.188H63.4559L67.6479 41.5H66.1439L65.2479 39.068H59.6479L58.7519 41.5H57.2479ZM60.1119 37.804H64.7839L62.4479 31.404L60.1119 37.804ZM68.8786 44.54V33.068H70.1746L70.2386 34.332C70.5266 33.8947 70.916 33.5587 71.4066 33.324C71.908 33.0893 72.4466 32.972 73.0226 32.972C73.876 32.972 74.5746 33.164 75.1186 33.548C75.6626 33.9213 76.0626 34.4333 76.3186 35.084C76.5853 35.7347 76.7186 36.4707 76.7186 37.292C76.7186 38.1133 76.5853 38.8493 76.3186 39.5C76.052 40.1507 75.6413 40.6627 75.0866 41.036C74.532 41.4093 73.8226 41.596 72.9586 41.596C72.532 41.596 72.148 41.5533 71.8066 41.468C71.4653 41.372 71.1666 41.2387 70.9106 41.068C70.6546 40.8867 70.4306 40.6787 70.2386 40.444V44.54H68.8786ZM72.8466 40.396C73.4653 40.396 73.956 40.2573 74.3186 39.98C74.6813 39.692 74.9426 39.3133 75.1026 38.844C75.2733 38.3747 75.3586 37.8573 75.3586 37.292C75.3586 36.716 75.2733 36.1933 75.1026 35.724C74.9426 35.2547 74.676 34.8813 74.3026 34.604C73.9293 34.3267 73.4333 34.188 72.8146 34.188C72.26 34.188 71.7853 34.332 71.3906 34.62C71.0066 34.8973 70.7133 35.276 70.5106 35.756C70.308 36.2253 70.2066 36.7427 70.2066 37.308C70.2066 37.8947 70.3026 38.4227 70.4946 38.892C70.6866 39.3613 70.98 39.7293 71.3746 39.996C71.7693 40.2627 72.26 40.396 72.8466 40.396ZM78.5349 44.54V33.068H79.8309L79.8949 34.332C80.1829 33.8947 80.5722 33.5587 81.0629 33.324C81.5642 33.0893 82.1029 32.972 82.6789 32.972C83.5322 32.972 84.2309 33.164 84.7749 33.548C85.3189 33.9213 85.7189 34.4333 85.9749 35.084C86.2416 35.7347 86.3749 36.4707 86.3749 37.292C86.3749 38.1133 86.2416 38.8493 85.9749 39.5C85.7082 40.1507 85.2976 40.6627 84.7429 41.036C84.1882 41.4093 83.4789 41.596 82.6149 41.596C82.1882 41.596 81.8042 41.5533 81.4629 41.468C81.1216 41.372 80.8229 41.2387 80.5669 41.068C80.3109 40.8867 80.0869 40.6787 79.8949 40.444V44.54H78.5349ZM82.5029 40.396C83.1216 40.396 83.6122 40.2573 83.9749 39.98C84.3376 39.692 84.5989 39.3133 84.7589 38.844C84.9296 38.3747 85.0149 37.8573 85.0149 37.292C85.0149 36.716 84.9296 36.1933 84.7589 35.724C84.5989 35.2547 84.3322 34.8813 83.9589 34.604C83.5856 34.3267 83.0896 34.188 82.4709 34.188C81.9162 34.188 81.4416 34.332 81.0469 34.62C80.6629 34.8973 80.3696 35.276 80.1669 35.756C79.9642 36.2253 79.8629 36.7427 79.8629 37.308C79.8629 37.8947 79.9589 38.4227 80.1509 38.892C80.3429 39.3613 80.6362 39.7293 81.0309 39.996C81.4256 40.2627 81.9162 40.396 82.5029 40.396ZM95.5756 41.596C95.1916 41.596 94.8023 41.5587 94.4076 41.484C94.0236 41.4093 93.661 41.2813 93.3196 41.1C92.989 40.9187 92.7116 40.6733 92.4876 40.364C92.2636 40.0547 92.1196 39.6707 92.0556 39.212H93.4316C93.5383 39.5 93.709 39.7347 93.9436 39.916C94.189 40.0867 94.461 40.2093 94.7596 40.284C95.069 40.3587 95.3623 40.396 95.6396 40.396C95.8103 40.396 96.0076 40.3853 96.2316 40.364C96.4556 40.3427 96.669 40.2947 96.8716 40.22C97.085 40.1347 97.2556 40.012 97.3836 39.852C97.5223 39.692 97.5916 39.468 97.5916 39.18C97.5916 38.9667 97.5436 38.7907 97.4476 38.652C97.3516 38.5133 97.2183 38.4013 97.0476 38.316C96.877 38.22 96.669 38.1507 96.4236 38.108C95.9223 38.0013 95.3836 37.9 94.8076 37.804C94.2423 37.708 93.741 37.5267 93.3036 37.26C93.1543 37.164 93.0156 37.0573 92.8876 36.94C92.7703 36.812 92.669 36.6733 92.5836 36.524C92.4983 36.364 92.429 36.1933 92.3756 36.012C92.333 35.82 92.3116 35.612 92.3116 35.388C92.3116 34.972 92.3916 34.6147 92.5516 34.316C92.7223 34.0067 92.957 33.756 93.2556 33.564C93.5543 33.3613 93.8956 33.212 94.2796 33.116C94.6743 33.02 95.0956 32.972 95.5436 32.972C96.0983 32.972 96.5943 33.0627 97.0316 33.244C97.4796 33.4147 97.8476 33.6707 98.1356 34.012C98.4236 34.3427 98.5943 34.7533 98.6476 35.244H97.3836C97.309 34.9347 97.1063 34.684 96.7756 34.492C96.445 34.2893 96.0236 34.188 95.5116 34.188C95.341 34.188 95.149 34.204 94.9356 34.236C94.7223 34.2573 94.5196 34.3107 94.3276 34.396C94.1356 34.4707 93.9756 34.588 93.8476 34.748C93.7196 34.8973 93.6556 35.1 93.6556 35.356C93.6556 35.5907 93.7143 35.788 93.8316 35.948C93.9596 36.108 94.1356 36.236 94.3596 36.332C94.5836 36.428 94.8396 36.508 95.1276 36.572C95.501 36.6467 95.9116 36.7267 96.3596 36.812C96.8076 36.8867 97.1596 36.9667 97.4156 37.052C97.757 37.1587 98.0396 37.308 98.2636 37.5C98.4983 37.692 98.669 37.9213 98.7756 38.188C98.893 38.4547 98.9516 38.764 98.9516 39.116C98.9516 39.6173 98.8503 40.028 98.6476 40.348C98.4556 40.668 98.1943 40.9187 97.8636 41.1C97.533 41.2813 97.165 41.4093 96.7596 41.484C96.365 41.5587 95.9703 41.596 95.5756 41.596ZM103.812 41.596C102.927 41.596 102.303 41.356 101.94 40.876C101.588 40.396 101.412 39.7133 101.412 38.828V34.268H100.036V33.068H101.412V30.54H102.772V33.068H105.364V34.268H102.772V38.652C102.772 38.972 102.799 39.2653 102.852 39.532C102.906 39.788 103.018 39.996 103.188 40.156C103.359 40.3053 103.615 40.3853 103.956 40.396C104.202 40.396 104.415 40.3533 104.596 40.268C104.788 40.1827 104.948 40.0813 105.076 39.964L105.668 40.956C105.487 41.1053 105.295 41.228 105.092 41.324C104.9 41.42 104.698 41.4893 104.484 41.532C104.282 41.5747 104.058 41.596 103.812 41.596ZM110.668 41.596C109.783 41.596 109.041 41.4147 108.444 41.052C107.847 40.6787 107.399 40.1667 107.1 39.516C106.812 38.8653 106.668 38.124 106.668 37.292C106.668 36.4493 106.817 35.708 107.116 35.068C107.415 34.4173 107.863 33.9053 108.46 33.532C109.057 33.1587 109.804 32.972 110.7 32.972C111.585 32.972 112.321 33.1587 112.908 33.532C113.505 33.9053 113.948 34.4173 114.236 35.068C114.535 35.708 114.684 36.4493 114.684 37.292C114.684 38.124 114.535 38.8653 114.236 39.516C113.937 40.1667 113.489 40.6787 112.892 41.052C112.305 41.4147 111.564 41.596 110.668 41.596ZM110.668 40.396C111.287 40.396 111.788 40.2573 112.172 39.98C112.567 39.7027 112.855 39.3293 113.036 38.86C113.228 38.3907 113.324 37.868 113.324 37.292C113.324 36.716 113.228 36.1933 113.036 35.724C112.855 35.2547 112.567 34.8813 112.172 34.604C111.788 34.3267 111.287 34.188 110.668 34.188C110.06 34.188 109.559 34.3267 109.164 34.604C108.78 34.8813 108.492 35.2547 108.3 35.724C108.119 36.1933 108.028 36.716 108.028 37.292C108.028 37.868 108.119 38.3907 108.3 38.86C108.492 39.3293 108.78 39.7027 109.164 39.98C109.559 40.2573 110.06 40.396 110.668 40.396ZM116.504 41.5V33.068H117.816L117.88 34.38C118.093 34.0493 118.338 33.7827 118.616 33.58C118.904 33.3773 119.218 33.228 119.56 33.132C119.912 33.0253 120.29 32.972 120.696 32.972C120.77 32.972 120.84 32.972 120.904 32.972C120.978 32.972 121.053 32.972 121.128 32.972V34.252H120.632C119.97 34.252 119.432 34.396 119.016 34.684C118.61 34.9613 118.317 35.34 118.136 35.82C117.954 36.2893 117.864 36.812 117.864 37.388V41.5H116.504ZM125.964 41.596C125.068 41.596 124.327 41.4147 123.74 41.052C123.153 40.6787 122.716 40.1667 122.428 39.516C122.14 38.8653 121.996 38.124 121.996 37.292C121.996 36.4493 122.145 35.708 122.444 35.068C122.753 34.4173 123.201 33.9053 123.788 33.532C124.375 33.1587 125.095 32.972 125.948 32.972C126.609 32.972 127.175 33.1 127.644 33.356C128.124 33.6013 128.519 33.932 128.828 34.348C129.137 34.764 129.361 35.2227 129.5 35.724C129.639 36.2147 129.697 36.7107 129.676 37.212C129.665 37.308 129.655 37.404 129.644 37.5C129.644 37.596 129.639 37.692 129.628 37.788H123.372C123.415 38.2787 123.537 38.7213 123.74 39.116C123.943 39.5107 124.231 39.8253 124.604 40.06C124.977 40.284 125.441 40.396 125.996 40.396C126.273 40.396 126.551 40.364 126.828 40.3C127.116 40.2253 127.372 40.1027 127.596 39.932C127.831 39.7613 127.996 39.532 128.092 39.244H129.484C129.356 39.788 129.116 40.236 128.764 40.588C128.412 40.9293 127.991 41.1853 127.5 41.356C127.009 41.516 126.497 41.596 125.964 41.596ZM123.404 36.604H128.284C128.273 36.124 128.167 35.7027 127.964 35.34C127.761 34.9773 127.484 34.6947 127.132 34.492C126.791 34.2893 126.38 34.188 125.9 34.188C125.377 34.188 124.935 34.3 124.572 34.524C124.22 34.748 123.948 35.0413 123.756 35.404C123.564 35.7667 123.447 36.1667 123.404 36.604Z" fill="#111111"/>
</svg>
