<svg width="157" height="54" viewBox="0 0 157 54" fill="none" xmlns="http://www.w3.org/2000/svg">
<rect x="0.5" y="0.5" width="156" height="53" rx="13.5" fill="#FAFAFA"/>
<rect x="0.5" y="0.5" width="156" height="53" rx="13.5" stroke="#EEEEFB"/>
<path d="M44.9663 24.4102L13.5001 6.40455C13.0413 6.13704 12.5198 5.99609 11.9888 5.99609C11.4578 5.99609 10.9363 6.13704 10.4776 6.40455C10.0256 6.66369 9.65065 7.03828 9.39103 7.48996C9.13142 7.94165 8.9965 8.45421 9.00007 8.97517V45.0239C8.99858 45.5444 9.13527 46.0559 9.39617 46.5062C9.65707 46.9565 10.0328 47.3295 10.4851 47.587C10.9438 47.8545 11.4653 47.9955 11.9963 47.9955C12.5273 47.9955 13.0488 47.8545 13.5076 47.587L44.9663 29.587C45.4305 29.3325 45.8178 28.9578 46.0875 28.5023C46.3572 28.0468 46.4996 27.5271 46.4996 26.9977C46.4996 26.4683 46.3572 25.9486 46.0875 25.493C45.8178 25.0375 45.4305 24.6628 44.9663 24.4083V24.4102ZM12.0001 42.8752V11.1239L27.8794 26.9995L12.0001 42.8752ZM30.0001 29.1202L33.5476 32.6677L16.9538 42.1664L30.0001 29.1202ZM16.9501 11.8308L33.5494 21.3314L30.0001 24.8789C24.9037 19.7833 22.0464 16.9264 16.9501 11.8308ZM36.2457 31.1245L32.1207 26.9995L36.2457 22.8745L43.4513 26.9995L36.2457 31.1245Z" fill="#9B9AE6"/>
<path d="M60.396 22.112C59.948 22.112 59.5093 22.07 59.08 21.986C58.6507 21.8927 58.254 21.748 57.89 21.552C57.5353 21.356 57.246 21.0993 57.022 20.782C56.798 20.4647 56.672 20.0773 56.644 19.62H57.666C57.7033 19.9187 57.806 20.1707 57.974 20.376C58.142 20.572 58.3567 20.7353 58.618 20.866C58.8793 20.9873 59.1593 21.076 59.458 21.132C59.766 21.1787 60.06 21.202 60.34 21.202C60.62 21.202 60.914 21.1787 61.222 21.132C61.53 21.0853 61.8193 20.9967 62.09 20.866C62.3607 20.726 62.58 20.53 62.748 20.278C62.916 20.0167 63 19.6807 63 19.27C63 18.878 62.93 18.5607 62.79 18.318C62.6593 18.0753 62.468 17.8887 62.216 17.758C61.9733 17.618 61.6887 17.5293 61.362 17.492C61.0447 17.4453 60.704 17.422 60.34 17.422H59.094V16.512H59.864C60.2 16.512 60.5267 16.4793 60.844 16.414C61.1707 16.3487 61.4647 16.246 61.726 16.106C61.9967 15.9567 62.2113 15.7653 62.37 15.532C62.5287 15.2987 62.608 15.014 62.608 14.678C62.608 14.202 62.4913 13.838 62.258 13.586C62.034 13.334 61.7493 13.1567 61.404 13.054C61.0587 12.9513 60.6993 12.9 60.326 12.9C59.962 12.9 59.598 12.9513 59.234 13.054C58.8793 13.1567 58.5807 13.32 58.338 13.544C58.0953 13.768 57.96 14.062 57.932 14.426H56.91C56.9193 14.0247 57.008 13.684 57.176 13.404C57.344 13.124 57.5587 12.8953 57.82 12.718C58.0907 12.5313 58.38 12.3867 58.688 12.284C58.996 12.172 59.2993 12.0973 59.598 12.06C59.906 12.0133 60.1767 11.99 60.41 11.99C60.8207 11.99 61.2127 12.0367 61.586 12.13C61.9593 12.214 62.2953 12.354 62.594 12.55C62.902 12.746 63.1447 13.0073 63.322 13.334C63.4993 13.6513 63.588 14.0433 63.588 14.51C63.588 14.7807 63.5413 15.056 63.448 15.336C63.364 15.616 63.2053 15.882 62.972 16.134C62.7387 16.386 62.398 16.6053 61.95 16.792C62.622 16.8947 63.1353 17.1793 63.49 17.646C63.854 18.1033 64.036 18.6447 64.036 19.27C64.0267 19.7833 63.9147 20.222 63.7 20.586C63.4947 20.95 63.2193 21.244 62.874 21.468C62.5287 21.692 62.1413 21.8553 61.712 21.958C61.292 22.0607 60.8533 22.112 60.396 22.112ZM68.04 22.084C67.7413 22.084 67.438 22.0467 67.13 21.972C66.822 21.888 66.542 21.762 66.29 21.594C66.038 21.4167 65.8327 21.1927 65.674 20.922C65.5247 20.642 65.45 20.3153 65.45 19.942C65.45 19.522 65.5247 19.172 65.674 18.892C65.8327 18.612 66.0427 18.388 66.304 18.22C66.5653 18.052 66.864 17.9353 67.2 17.87C67.536 17.7953 67.8907 17.758 68.264 17.758H70.602C70.602 17.3007 70.5367 16.8993 70.406 16.554C70.2847 16.1993 70.0793 15.9193 69.79 15.714C69.51 15.5087 69.132 15.406 68.656 15.406C68.404 15.406 68.1613 15.434 67.928 15.49C67.6947 15.546 67.4847 15.6393 67.298 15.77C67.1207 15.8913 66.9807 16.0593 66.878 16.274H65.814C65.898 15.9473 66.038 15.672 66.234 15.448C66.4393 15.224 66.6773 15.0467 66.948 14.916C67.2187 14.776 67.5033 14.678 67.802 14.622C68.1007 14.566 68.3853 14.538 68.656 14.538C69.356 14.538 69.9207 14.6827 70.35 14.972C70.7793 15.252 71.0873 15.6533 71.274 16.176C71.47 16.6893 71.568 17.296 71.568 17.996V22H70.714L70.672 20.992C70.4667 21.272 70.2193 21.4913 69.93 21.65C69.65 21.8087 69.3467 21.9207 69.02 21.986C68.7027 22.0513 68.376 22.084 68.04 22.084ZM68.138 21.216C68.5953 21.216 69.0107 21.1413 69.384 20.992C69.7573 20.8333 70.0513 20.6 70.266 20.292C70.49 19.984 70.602 19.6013 70.602 19.144V18.584H68.95C68.6607 18.584 68.3667 18.5933 68.068 18.612C67.7693 18.6213 67.4987 18.668 67.256 18.752C67.0133 18.8267 66.8173 18.9527 66.668 19.13C66.5187 19.298 66.444 19.5407 66.444 19.858C66.444 20.1753 66.5233 20.4367 66.682 20.642C66.8407 20.838 67.0507 20.9827 67.312 21.076C67.5733 21.1693 67.8487 21.216 68.138 21.216ZM73.468 22V14.622H78.494V15.49H74.462V22H73.468ZM79.8117 24.73V14.622H80.7637L80.8057 15.868C81.095 15.4107 81.459 15.0747 81.8977 14.86C82.3457 14.6453 82.845 14.538 83.3957 14.538C84.1424 14.538 84.7537 14.706 85.2297 15.042C85.7057 15.378 86.0604 15.8353 86.2937 16.414C86.527 16.9833 86.6437 17.6227 86.6437 18.332C86.6437 19.06 86.5224 19.7087 86.2797 20.278C86.0464 20.8473 85.6824 21.2907 85.1877 21.608C84.7024 21.9253 84.0864 22.084 83.3397 22.084C82.9944 22.084 82.663 22.0467 82.3457 21.972C82.0284 21.8973 81.739 21.776 81.4777 21.608C81.2164 21.4307 80.9924 21.2113 80.8057 20.95V24.73H79.8117ZM83.2977 21.216C83.8764 21.216 84.3337 21.0853 84.6697 20.824C85.015 20.5533 85.2624 20.1987 85.4117 19.76C85.5704 19.3213 85.6497 18.8407 85.6497 18.318C85.6497 17.786 85.5704 17.3007 85.4117 16.862C85.253 16.4233 84.9964 16.0733 84.6417 15.812C84.287 15.5413 83.8204 15.406 83.2417 15.406C82.7097 15.406 82.257 15.5413 81.8837 15.812C81.5197 16.0827 81.2444 16.442 81.0577 16.89C80.871 17.338 80.7777 17.8187 80.7777 18.332C80.7777 18.8827 80.8664 19.3773 81.0437 19.816C81.2304 20.2453 81.5104 20.586 81.8837 20.838C82.2664 21.09 82.7377 21.216 83.2977 21.216ZM88.4713 25.248V24.31C88.9286 24.31 89.2973 24.24 89.5773 24.1C89.8666 23.96 90.1046 23.7453 90.2913 23.456C90.4873 23.1667 90.6739 22.8073 90.8513 22.378L87.5613 14.622H88.7373L91.3972 21.202L93.5953 14.622H94.7293L92.5033 20.866C92.4099 21.1367 92.2979 21.4447 92.1673 21.79C92.0459 22.126 91.9106 22.4713 91.7613 22.826C91.6119 23.1807 91.4486 23.512 91.2713 23.82C91.0939 24.128 90.8979 24.3753 90.6833 24.562C90.4873 24.7393 90.2913 24.8747 90.0953 24.968C89.9086 25.0707 89.6893 25.1407 89.4373 25.178C89.1853 25.2247 88.8633 25.248 88.4713 25.248ZM98.5358 22.084C98.1998 22.084 97.8592 22.056 97.5138 22C97.1778 21.944 96.8605 21.846 96.5618 21.706C96.2725 21.566 96.0298 21.3747 95.8338 21.132C95.6378 20.88 95.5212 20.5627 95.4838 20.18H96.4638C96.5385 20.4507 96.6925 20.6653 96.9258 20.824C97.1685 20.9733 97.4345 21.076 97.7238 21.132C98.0225 21.188 98.2885 21.216 98.5218 21.216C98.8112 21.216 99.1098 21.1833 99.4178 21.118C99.7258 21.0527 99.9825 20.9267 100.188 20.74C100.402 20.5533 100.51 20.278 100.51 19.914C100.51 19.5593 100.421 19.298 100.244 19.13C100.066 18.962 99.8378 18.85 99.5578 18.794C99.2778 18.738 98.9838 18.71 98.6758 18.71H97.3878V17.856H98.3538C98.5498 17.856 98.7552 17.8373 98.9698 17.8C99.1938 17.7627 99.3992 17.6973 99.5858 17.604C99.7725 17.5107 99.9218 17.38 100.034 17.212C100.155 17.044 100.216 16.8293 100.216 16.568C100.216 16.2787 100.132 16.05 99.9638 15.882C99.7958 15.7047 99.5812 15.5833 99.3198 15.518C99.0585 15.4433 98.7972 15.406 98.5358 15.406C98.3025 15.406 98.0552 15.4293 97.7938 15.476C97.5325 15.5227 97.3038 15.616 97.1078 15.756C96.9118 15.896 96.7858 16.106 96.7298 16.386H95.7358C95.7732 15.91 95.9365 15.5413 96.2258 15.28C96.5245 15.0093 96.8792 14.818 97.2898 14.706C97.7098 14.594 98.1205 14.538 98.5218 14.538C98.8392 14.538 99.1518 14.5707 99.4598 14.636C99.7772 14.692 100.062 14.7947 100.314 14.944C100.575 15.0933 100.78 15.294 100.93 15.546C101.088 15.7887 101.172 16.092 101.182 16.456C101.191 16.8107 101.107 17.128 100.93 17.408C100.762 17.688 100.482 17.912 100.09 18.08C100.603 18.2013 100.967 18.43 101.182 18.766C101.396 19.102 101.504 19.4847 101.504 19.914C101.504 20.3153 101.415 20.6513 101.238 20.922C101.07 21.1927 100.841 21.4167 100.552 21.594C100.272 21.7713 99.9545 21.8973 99.5998 21.972C99.2545 22.0467 98.8998 22.084 98.5358 22.084ZM103.095 22V14.622H104.089V20.684C104.154 20.5627 104.234 20.4367 104.327 20.306C104.43 20.166 104.514 20.0493 104.579 19.956L108.345 14.622H109.437V22H108.443V15.938C108.368 16.0687 108.289 16.1947 108.205 16.316C108.121 16.4373 108.037 16.554 107.953 16.666L104.187 22H103.095ZM113.13 22V15.49H110.498V14.622H116.728V15.49H114.11V22H113.13ZM120.984 22.084C120.209 22.084 119.565 21.9253 119.052 21.608C118.539 21.2813 118.156 20.8333 117.904 20.264C117.652 19.6947 117.526 19.046 117.526 18.318C117.526 17.59 117.657 16.946 117.918 16.386C118.179 15.8167 118.567 15.3687 119.08 15.042C119.593 14.706 120.223 14.538 120.97 14.538C121.511 14.538 121.983 14.6407 122.384 14.846C122.795 15.042 123.135 15.3127 123.406 15.658C123.677 16.0033 123.873 16.3953 123.994 16.834C124.125 17.2727 124.19 17.7253 124.19 18.192C124.19 18.276 124.19 18.3553 124.19 18.43C124.19 18.5047 124.185 18.5793 124.176 18.654H118.52C118.557 19.1487 118.669 19.592 118.856 19.984C119.043 20.3667 119.313 20.67 119.668 20.894C120.032 21.1087 120.485 21.216 121.026 21.216C121.278 21.216 121.535 21.188 121.796 21.132C122.057 21.0667 122.295 20.9593 122.51 20.81C122.725 20.6513 122.883 20.446 122.986 20.194H124.022C123.891 20.6327 123.672 20.992 123.364 21.272C123.056 21.552 122.692 21.7573 122.272 21.888C121.852 22.0187 121.423 22.084 120.984 22.084ZM118.548 17.8H123.196C123.187 17.3427 123.089 16.9367 122.902 16.582C122.715 16.218 122.459 15.9333 122.132 15.728C121.805 15.5133 121.404 15.406 120.928 15.406C120.433 15.406 120.013 15.518 119.668 15.742C119.323 15.966 119.057 16.26 118.87 16.624C118.693 16.988 118.585 17.38 118.548 17.8ZM129.632 22V14.622H132.474C132.782 14.622 133.095 14.6453 133.412 14.692C133.729 14.7293 134.019 14.8133 134.28 14.944C134.551 15.0653 134.765 15.2473 134.924 15.49C135.092 15.7233 135.176 16.0407 135.176 16.442C135.176 16.6567 135.139 16.8667 135.064 17.072C134.989 17.2773 134.873 17.464 134.714 17.632C134.565 17.8 134.355 17.94 134.084 18.052C134.616 18.164 135.003 18.3833 135.246 18.71C135.489 19.0273 135.61 19.41 135.61 19.858C135.61 20.2313 135.54 20.5533 135.4 20.824C135.269 21.0947 135.083 21.3187 134.84 21.496C134.607 21.664 134.331 21.79 134.014 21.874C133.706 21.958 133.379 22 133.034 22H129.632ZM130.64 21.146H132.768C133.067 21.146 133.356 21.118 133.636 21.062C133.925 20.9967 134.159 20.88 134.336 20.712C134.523 20.5347 134.616 20.278 134.616 19.942C134.616 19.6247 134.546 19.382 134.406 19.214C134.266 19.0367 134.084 18.9107 133.86 18.836C133.636 18.7613 133.393 18.7147 133.132 18.696C132.871 18.6773 132.623 18.668 132.39 18.668H130.64V21.146ZM130.64 17.842H131.984C132.189 17.842 132.418 17.828 132.67 17.8C132.922 17.772 133.165 17.716 133.398 17.632C133.631 17.548 133.823 17.4267 133.972 17.268C134.121 17.1 134.196 16.8807 134.196 16.61C134.196 16.2367 134.093 15.9753 133.888 15.826C133.692 15.6673 133.449 15.5693 133.16 15.532C132.88 15.4947 132.609 15.476 132.348 15.476H130.64V17.842Z" fill="#111111"/>
<path d="M61.984 41.128C60.8107 41.128 59.8347 40.8827 59.056 40.392C58.288 39.8907 57.712 39.208 57.328 38.344C56.9547 37.48 56.768 36.4933 56.768 35.384C56.768 34.552 56.8693 33.784 57.072 33.08C57.2853 32.376 57.6053 31.7627 58.032 31.24C58.4587 30.7067 58.992 30.296 59.632 30.008C60.2827 29.7093 61.0453 29.56 61.92 29.56C62.752 29.56 63.4773 29.688 64.096 29.944C64.7147 30.2 65.2213 30.5573 65.616 31.016C66.0213 31.4747 66.304 32.0187 66.464 32.648H64.944C64.8373 32.2747 64.6453 31.9547 64.368 31.688C64.0907 31.4107 63.744 31.1973 63.328 31.048C62.912 30.8987 62.4373 30.824 61.904 30.824C61.2427 30.824 60.6773 30.9413 60.208 31.176C59.7387 31.4107 59.3547 31.736 59.056 32.152C58.7573 32.5573 58.5387 33.0373 58.4 33.592C58.2613 34.136 58.192 34.7227 58.192 35.352C58.192 36.184 58.3253 36.9413 58.592 37.624C58.8587 38.3067 59.2693 38.8507 59.824 39.256C60.3787 39.6613 61.0933 39.864 61.968 39.864C62.6933 39.864 63.312 39.736 63.824 39.48C64.336 39.2133 64.7307 38.8347 65.008 38.344C65.2853 37.8427 65.424 37.2453 65.424 36.552H61.712V35.288H66.752V36.232C66.752 37.2133 66.56 38.072 66.176 38.808C65.792 39.544 65.2427 40.1147 64.528 40.52C63.824 40.9253 62.976 41.128 61.984 41.128ZM72.2676 41.096C71.3823 41.096 70.641 40.9147 70.0436 40.552C69.4463 40.1787 68.9983 39.6667 68.6996 39.016C68.4116 38.3653 68.2676 37.624 68.2676 36.792C68.2676 35.9493 68.417 35.208 68.7156 34.568C69.0143 33.9173 69.4623 33.4053 70.0596 33.032C70.657 32.6587 71.4036 32.472 72.2996 32.472C73.185 32.472 73.921 32.6587 74.5076 33.032C75.105 33.4053 75.5476 33.9173 75.8356 34.568C76.1343 35.208 76.2836 35.9493 76.2836 36.792C76.2836 37.624 76.1343 38.3653 75.8356 39.016C75.537 39.6667 75.089 40.1787 74.4916 40.552C73.905 40.9147 73.1636 41.096 72.2676 41.096ZM72.2676 39.896C72.8863 39.896 73.3876 39.7573 73.7716 39.48C74.1663 39.2027 74.4543 38.8293 74.6356 38.36C74.8276 37.8907 74.9236 37.368 74.9236 36.792C74.9236 36.216 74.8276 35.6933 74.6356 35.224C74.4543 34.7547 74.1663 34.3813 73.7716 34.104C73.3876 33.8267 72.8863 33.688 72.2676 33.688C71.6596 33.688 71.1583 33.8267 70.7636 34.104C70.3796 34.3813 70.0916 34.7547 69.8996 35.224C69.7183 35.6933 69.6276 36.216 69.6276 36.792C69.6276 37.368 69.7183 37.8907 69.8996 38.36C70.0916 38.8293 70.3796 39.2027 70.7636 39.48C71.1583 39.7573 71.6596 39.896 72.2676 39.896ZM81.7833 41.096C80.8979 41.096 80.1566 40.9147 79.5593 40.552C78.9619 40.1787 78.5139 39.6667 78.2153 39.016C77.9273 38.3653 77.7833 37.624 77.7833 36.792C77.7833 35.9493 77.9326 35.208 78.2313 34.568C78.5299 33.9173 78.9779 33.4053 79.5753 33.032C80.1726 32.6587 80.9193 32.472 81.8153 32.472C82.7006 32.472 83.4366 32.6587 84.0233 33.032C84.6206 33.4053 85.0633 33.9173 85.3513 34.568C85.6499 35.208 85.7993 35.9493 85.7993 36.792C85.7993 37.624 85.6499 38.3653 85.3513 39.016C85.0526 39.6667 84.6046 40.1787 84.0073 40.552C83.4206 40.9147 82.6793 41.096 81.7833 41.096ZM81.7833 39.896C82.4019 39.896 82.9033 39.7573 83.2873 39.48C83.6819 39.2027 83.9699 38.8293 84.1513 38.36C84.3433 37.8907 84.4393 37.368 84.4393 36.792C84.4393 36.216 84.3433 35.6933 84.1513 35.224C83.9699 34.7547 83.6819 34.3813 83.2873 34.104C82.9033 33.8267 82.4019 33.688 81.7833 33.688C81.1753 33.688 80.6739 33.8267 80.2793 34.104C79.8953 34.3813 79.6073 34.7547 79.4153 35.224C79.2339 35.6933 79.1432 36.216 79.1432 36.792C79.1432 37.368 79.2339 37.8907 79.4153 38.36C79.6073 38.8293 79.8953 39.2027 80.2793 39.48C80.6739 39.7573 81.1753 39.896 81.7833 39.896ZM91.2829 44.776C90.7069 44.776 90.1735 44.6853 89.6829 44.504C89.1922 44.3333 88.7762 44.0613 88.4349 43.688C88.0935 43.3147 87.8642 42.84 87.7469 42.264H89.1549C89.2402 42.584 89.4002 42.84 89.6349 43.032C89.8695 43.224 90.1415 43.3573 90.4509 43.432C90.7602 43.5173 91.0642 43.56 91.3629 43.56C91.9389 43.56 92.4029 43.4427 92.7549 43.208C93.1175 42.984 93.3789 42.6693 93.5389 42.264C93.6989 41.8693 93.7789 41.416 93.7789 40.904V39.736C93.5975 40.056 93.3575 40.3173 93.0589 40.52C92.7602 40.7227 92.4349 40.872 92.0829 40.968C91.7309 41.0533 91.3682 41.096 90.9949 41.096C90.1415 41.096 89.4429 40.9093 88.8989 40.536C88.3549 40.152 87.9495 39.64 87.6829 39C87.4269 38.3493 87.2989 37.6187 87.2989 36.808C87.2989 35.9973 87.4322 35.2667 87.6989 34.616C87.9655 33.9547 88.3762 33.432 88.9309 33.048C89.4855 32.664 90.1949 32.472 91.0589 32.472C91.5495 32.472 92.0455 32.5627 92.5469 32.744C93.0482 32.9253 93.4589 33.2187 93.7789 33.624L93.8429 32.568H95.1389V40.936C95.1389 41.7253 94.9949 42.408 94.7069 42.984C94.4295 43.56 94.0029 44.0027 93.4269 44.312C92.8615 44.6213 92.1469 44.776 91.2829 44.776ZM91.1869 39.896C91.7522 39.896 92.2269 39.752 92.6109 39.464C92.9949 39.176 93.2882 38.792 93.4909 38.312C93.6935 37.832 93.7949 37.3093 93.7949 36.744C93.7949 36.1573 93.6935 35.6347 93.4909 35.176C93.2989 34.7173 93.0109 34.3547 92.6269 34.088C92.2429 33.8213 91.7575 33.688 91.1709 33.688C90.5629 33.688 90.0722 33.8267 89.6989 34.104C89.3362 34.3813 89.0695 34.7547 88.8989 35.224C88.7389 35.6933 88.6589 36.216 88.6589 36.792C88.6589 37.3893 88.7442 37.9227 88.9149 38.392C89.0855 38.8613 89.3575 39.2293 89.7309 39.496C90.1042 39.7627 90.5895 39.896 91.1869 39.896ZM97.2751 41V29.688H98.6351V41H97.2751ZM104.423 41.096C103.527 41.096 102.786 40.9147 102.199 40.552C101.612 40.1787 101.175 39.6667 100.887 39.016C100.599 38.3653 100.455 37.624 100.455 36.792C100.455 35.9493 100.604 35.208 100.903 34.568C101.212 33.9173 101.66 33.4053 102.247 33.032C102.834 32.6587 103.554 32.472 104.407 32.472C105.068 32.472 105.634 32.6 106.103 32.856C106.583 33.1013 106.978 33.432 107.287 33.848C107.596 34.264 107.82 34.7227 107.959 35.224C108.098 35.7147 108.156 36.2107 108.135 36.712C108.124 36.808 108.114 36.904 108.103 37C108.103 37.096 108.098 37.192 108.087 37.288H101.831C101.874 37.7787 101.996 38.2213 102.199 38.616C102.402 39.0107 102.69 39.3253 103.063 39.56C103.436 39.784 103.9 39.896 104.455 39.896C104.732 39.896 105.01 39.864 105.287 39.8C105.575 39.7253 105.831 39.6027 106.055 39.432C106.29 39.2613 106.455 39.032 106.551 38.744H107.943C107.815 39.288 107.575 39.736 107.223 40.088C106.871 40.4293 106.45 40.6853 105.959 40.856C105.468 41.016 104.956 41.096 104.423 41.096ZM101.863 36.104H106.743C106.732 35.624 106.626 35.2027 106.423 34.84C106.22 34.4773 105.943 34.1947 105.591 33.992C105.25 33.7893 104.839 33.688 104.359 33.688C103.836 33.688 103.394 33.8 103.031 34.024C102.679 34.248 102.407 34.5413 102.215 34.904C102.023 35.2667 101.906 35.6667 101.863 36.104ZM114.26 44.04V32.568H115.556L115.62 33.832C115.908 33.3947 116.297 33.0587 116.788 32.824C117.289 32.5893 117.828 32.472 118.404 32.472C119.257 32.472 119.956 32.664 120.5 33.048C121.044 33.4213 121.444 33.9333 121.7 34.584C121.966 35.2347 122.1 35.9707 122.1 36.792C122.1 37.6133 121.966 38.3493 121.7 39C121.433 39.6507 121.022 40.1627 120.468 40.536C119.913 40.9093 119.204 41.096 118.34 41.096C117.913 41.096 117.529 41.0533 117.188 40.968C116.846 40.872 116.548 40.7387 116.292 40.568C116.036 40.3867 115.812 40.1787 115.62 39.944V44.04H114.26ZM118.228 39.896C118.846 39.896 119.337 39.7573 119.7 39.48C120.062 39.192 120.324 38.8133 120.484 38.344C120.654 37.8747 120.74 37.3573 120.74 36.792C120.74 36.216 120.654 35.6933 120.484 35.224C120.324 34.7547 120.057 34.3813 119.684 34.104C119.31 33.8267 118.814 33.688 118.196 33.688C117.641 33.688 117.166 33.832 116.772 34.12C116.388 34.3973 116.094 34.776 115.892 35.256C115.689 35.7253 115.588 36.2427 115.588 36.808C115.588 37.3947 115.684 37.9227 115.876 38.392C116.068 38.8613 116.361 39.2293 116.756 39.496C117.15 39.7627 117.641 39.896 118.228 39.896ZM123.916 41V29.688H125.276V41H123.916ZM130.12 41.096C129.736 41.096 129.362 41.048 129 40.952C128.648 40.8453 128.328 40.6907 128.04 40.488C127.762 40.2747 127.538 40.0133 127.368 39.704C127.208 39.384 127.128 39.016 127.128 38.6C127.128 38.12 127.213 37.7147 127.384 37.384C127.565 37.0533 127.805 36.792 128.104 36.6C128.402 36.408 128.749 36.2693 129.144 36.184C129.538 36.0987 129.949 36.056 130.376 36.056H132.856C132.856 35.576 132.786 35.16 132.648 34.808C132.52 34.456 132.306 34.184 132.008 33.992C131.709 33.7893 131.314 33.688 130.824 33.688C130.525 33.688 130.248 33.72 129.992 33.784C129.736 33.848 129.517 33.9493 129.336 34.088C129.154 34.2267 129.021 34.4133 128.936 34.648H127.48C127.554 34.264 127.698 33.9387 127.912 33.672C128.136 33.3947 128.402 33.1707 128.712 33C129.032 32.8187 129.373 32.6853 129.736 32.6C130.098 32.5147 130.461 32.472 130.824 32.472C132.04 32.472 132.904 32.8293 133.416 33.544C133.928 34.2587 134.184 35.224 134.184 36.44V41H133.048L132.968 39.928C132.733 40.248 132.45 40.4933 132.12 40.664C131.789 40.8347 131.448 40.9467 131.096 41C130.754 41.064 130.429 41.096 130.12 41.096ZM130.248 39.896C130.781 39.896 131.24 39.8107 131.624 39.64C132.018 39.4587 132.322 39.1973 132.536 38.856C132.749 38.5147 132.856 38.0987 132.856 37.608V37.192H131.368C131.016 37.192 130.669 37.1973 130.328 37.208C129.986 37.2187 129.677 37.2613 129.4 37.336C129.122 37.4107 128.898 37.5387 128.728 37.72C128.568 37.9013 128.488 38.1627 128.488 38.504C128.488 38.824 128.568 39.0853 128.728 39.288C128.898 39.4907 129.117 39.6453 129.384 39.752C129.661 39.848 129.949 39.896 130.248 39.896ZM140.003 44.776C139.352 44.776 138.723 44.6853 138.115 44.504C137.517 44.3227 136.979 44.008 136.499 43.56L137.091 42.488C137.507 42.8187 137.949 43.08 138.419 43.272C138.899 43.464 139.4 43.56 139.923 43.56C140.797 43.56 141.421 43.304 141.795 42.792C142.179 42.2907 142.371 41.6507 142.371 40.872V39.864C142.179 40.152 141.933 40.392 141.635 40.584C141.347 40.7653 141.027 40.904 140.675 41C140.323 41.0853 139.96 41.128 139.587 41.128C138.755 41.128 138.099 40.9627 137.619 40.632C137.139 40.3013 136.797 39.8427 136.595 39.256C136.392 38.6693 136.291 37.992 136.291 37.224V32.568H137.651V36.84C137.651 37.224 137.672 37.6027 137.715 37.976C137.768 38.3387 137.869 38.6693 138.019 38.968C138.168 39.256 138.387 39.4907 138.675 39.672C138.963 39.8427 139.347 39.928 139.827 39.928C140.435 39.928 140.92 39.7787 141.283 39.48C141.656 39.1813 141.923 38.7813 142.083 38.28C142.253 37.7787 142.339 37.224 142.339 36.616V32.568H143.699V41C143.699 41.608 143.619 42.1467 143.459 42.616C143.299 43.0853 143.059 43.48 142.739 43.8C142.419 44.12 142.029 44.36 141.571 44.52C141.123 44.6907 140.6 44.776 140.003 44.776Z" fill="#111111"/>
</svg>
