<svg preserveAspectRatio="none" width="100%" height="100%" overflow="visible" style="display: block;" viewBox="0 0 132.078 147.861" fill="none" xmlns="http://www.w3.org/2000/svg">
<g id="freepik--character-1--inject-6">
<path id="Vector" d="M17.8928 89.2052L115.382 71.1561C115.382 71.1561 131.492 75.9433 131.492 91.5092C131.492 107.075 122.95 112.863 118.468 114.659L21.0779 134.932L17.8928 89.2052Z" fill="var(--fill-0, #005F65)"/>
<path id="Vector_2" d="M19.8207 89.2052C13.8581 89.2052 8.53638 92.2308 4.91406 97.023L8.59601 103.114L2.90166 100.128C1.12309 103.565 0.136057 107.358 0.0130957 111.227C-0.109865 115.096 0.63437 118.943 2.19111 122.487L12.1786 118.421L2.90166 123.98C6.37989 130.543 12.6606 134.928 19.8207 134.928C30.7523 134.928 39.6466 124.691 39.6466 112.066C39.6466 99.4414 30.7722 89.2052 19.8207 89.2052Z" fill="var(--fill-0, #FF725E)"/>
<g id="Group">
<path id="Vector_3" d="M19.8207 89.2052C13.8581 89.2052 8.53638 92.2308 4.91406 97.023L8.59601 103.114L2.90166 100.128C1.12309 103.565 0.136057 107.358 0.0130957 111.227C-0.109865 115.096 0.63437 118.943 2.19111 122.487L12.1786 118.421L2.90166 123.98C6.37989 130.543 12.6606 134.928 19.8207 134.928C30.7523 134.928 39.6466 124.691 39.6466 112.066C39.6466 99.4414 30.7722 89.2052 19.8207 89.2052Z" fill="var(--fill-0, #21787D)"/>
</g>
<path id="Vector_4" d="M39.269 110.524C39.269 110.524 39.3137 110.449 39.4081 110.315L39.8404 109.713C40.4213 108.951 41.0882 108.26 41.8279 107.652C43.0107 106.716 44.3594 106.012 45.8031 105.577C47.7282 105.056 49.7077 104.762 51.7011 104.701C52.8042 104.647 53.962 104.607 55.1793 104.572L58.9358 104.448C61.5296 104.378 64.3072 104.388 67.219 104.234C68.6748 104.159 70.1605 104.02 71.691 103.801C73.2293 103.593 74.7481 103.26 76.2325 102.805C77.7683 102.327 79.2503 101.69 80.6548 100.904C82.0933 100.079 83.476 99.1598 84.7939 98.1526C87.4871 96.1372 90.0113 93.9924 92.769 92.3701C94.1174 91.567 95.5422 90.9002 97.0224 90.3796L98.1006 89.9964L99.1838 89.668C99.8993 89.4391 100.615 89.2499 101.32 89.0658C106.345 87.8049 111.458 86.9266 116.615 86.4383C120.079 86.0607 123.565 85.9144 127.049 86.0004C128.287 86.0701 129.246 86.1198 129.887 86.2194L130.622 86.3139L130.87 86.3587H130.617L129.882 86.2891C129.241 86.2045 128.282 86.1696 127.049 86.1149C123.564 86.0628 120.079 86.229 116.615 86.6125C111.472 87.1266 106.375 88.0215 101.365 89.2898C100.66 89.4739 99.9441 89.663 99.2335 89.8919L98.1602 90.2253L97.087 90.6085C95.6205 91.1192 94.2089 91.7761 92.8733 92.5692C90.1404 94.1815 87.6262 96.3213 84.9231 98.3417C83.594 99.3538 82.2015 100.28 80.7542 101.113C79.3344 101.907 77.8355 102.549 76.2822 103.029C74.7849 103.486 73.2527 103.819 71.7009 104.025C70.1854 104.239 68.6898 104.378 67.2289 104.448C64.3072 104.597 61.5346 104.582 58.9408 104.642L55.1843 104.751C53.9785 104.781 52.8191 104.818 51.7061 104.861C49.732 104.918 47.7712 105.203 45.8627 105.712C44.4235 106.129 43.0752 106.812 41.8876 107.727C41.1516 108.322 40.4848 108.998 39.9 109.742L39.4478 110.33L39.269 110.524Z" fill="var(--fill-0, #263238)"/>
<path id="Vector_5" d="M93.3553 103.821C93.3852 103.78 93.4203 103.743 93.4597 103.711C93.5342 103.636 93.6435 103.527 93.7926 103.393C94.2492 103.011 94.7496 102.685 95.2832 102.422C96.1525 102.01 97.0912 101.763 98.0509 101.696C99.3489 101.602 100.648 101.86 101.812 102.442L101.902 102.487L101.832 102.562C100.306 104.161 98.4834 105.448 96.4658 106.349C94.0126 107.46 91.3358 107.988 88.6448 107.891C88.2821 107.891 87.9194 107.836 87.5566 107.807C87.1834 107.779 86.8139 107.714 86.4535 107.613C86.0799 107.511 85.7245 107.352 85.4001 107.14C85.0573 106.919 84.7983 106.59 84.6647 106.204C84.5445 105.807 84.5764 105.38 84.7542 105.005C84.9238 104.64 85.1502 104.304 85.425 104.01C85.9615 103.421 86.5287 102.861 87.1243 102.333C89.6354 100.098 92.5978 98.4311 95.8099 97.4459C97.2125 97.012 98.6509 96.704 100.108 96.5253C101.524 96.3692 102.95 96.3342 104.371 96.4208C105.067 96.5004 105.763 96.5403 106.438 96.6746C107.123 96.7925 107.79 96.993 108.426 97.2718C109.054 97.5428 109.61 97.9569 110.051 98.481C110.48 99.0003 110.749 99.6329 110.826 100.302C110.915 101.586 110.564 102.862 109.832 103.92C109.173 104.914 108.348 105.786 107.392 106.498C105.697 107.787 103.778 108.752 101.733 109.344C100.057 109.845 98.3362 110.178 96.595 110.34C95.0596 110.489 93.733 110.529 92.6497 110.549C91.5665 110.568 90.7268 110.549 90.1653 110.549H89.5144C89.4416 110.553 89.3685 110.553 89.2957 110.549H89.5144H90.1653L92.6497 110.494C93.733 110.459 95.0547 110.404 96.5851 110.245C98.3141 110.078 100.023 109.745 101.688 109.25C103.707 108.65 105.599 107.687 107.273 106.408C108.207 105.709 109.012 104.851 109.653 103.875C110.352 102.854 110.685 101.627 110.597 100.392C110.526 99.7635 110.272 99.17 109.867 98.685C109.448 98.1914 108.921 97.8014 108.327 97.5455C107.714 97.277 107.072 97.0832 106.414 96.9682C105.748 96.8388 105.057 96.799 104.371 96.7194C102.963 96.637 101.55 96.6736 100.148 96.8289C98.7072 97.0042 97.2854 97.309 95.8994 97.7395C91.9569 98.9403 88.406 101.174 85.6138 104.209C85.3558 104.484 85.1428 104.798 84.9827 105.139C84.8294 105.466 84.7993 105.837 84.8983 106.184C85.0168 106.521 85.2442 106.808 85.5442 107C85.8516 107.197 86.1866 107.346 86.538 107.443C86.8855 107.541 87.2416 107.604 87.6013 107.632C87.9641 107.662 88.3218 107.712 88.6796 107.717C91.3385 107.819 93.9853 107.308 96.4161 106.224C98.4157 105.338 100.226 104.074 101.748 102.502V102.621C100.609 102.041 99.3358 101.778 98.0608 101.86C97.114 101.916 96.1858 102.147 95.323 102.542C94.7905 102.791 94.2899 103.103 93.8323 103.472L93.4895 103.771L93.3553 103.821Z" fill="var(--fill-0, #263238)"/>
<path id="Vector_6" d="M117.509 73.4502H117.281H116.615C116.317 73.4502 115.954 73.4153 115.527 73.4203H114.036C110.882 73.5308 107.755 74.0323 104.724 74.9132C100.226 76.2099 96.0114 78.3438 92.3019 81.2033C90.1457 82.9387 88.0949 84.8015 86.1604 86.7817C84.0827 88.9186 81.8287 90.8762 79.4225 92.6338C76.989 94.3853 74.17 95.5239 71.204 95.953C68.4513 96.3212 65.6781 96.5156 62.901 96.5353C57.6091 96.6199 52.844 96.5601 48.8539 96.7791C44.8639 96.9981 41.6491 97.441 39.5075 98.0779C38.6813 98.3088 37.8754 98.6067 37.0976 98.9687L36.5063 99.2772C36.3721 99.3469 36.2976 99.3767 36.2976 99.3767C36.2976 99.3767 36.3622 99.332 36.4913 99.2573L37.0777 98.9239C37.8494 98.5423 38.6523 98.2277 39.4776 97.9834C41.6242 97.3215 44.849 96.8239 48.844 96.6049C52.839 96.386 57.6091 96.4109 62.896 96.3113C65.6579 96.2896 68.4158 96.0985 71.1543 95.7391C74.0893 95.3184 76.8786 94.1914 79.2834 92.4547C81.6777 90.7066 83.9216 88.7607 85.9914 86.6374C87.9355 84.6578 89.9964 82.7966 92.1628 81.0639C98.4591 76.2547 106.11 73.5572 114.026 73.3556H115.517C115.949 73.3556 116.312 73.3904 116.605 73.4054L117.276 73.4452C117.353 73.4421 117.431 73.4438 117.509 73.4502Z" fill="var(--fill-0, #263238)"/>
<path id="Vector_7" d="M132.078 91.7481C132.078 91.7481 132.033 91.8277 131.934 91.9819L131.497 92.6488C131.254 93.007 130.994 93.3525 130.716 93.6838C130.351 94.1489 129.961 94.5941 129.549 95.0175C127.745 96.9831 124.749 99.4365 120.853 102.168C118.905 103.542 116.734 104.985 114.433 106.568C113.281 107.357 112.111 108.201 110.925 109.1C109.743 110.011 108.481 110.892 107.139 111.728C104.339 113.474 101.335 114.868 98.195 115.878C94.8146 116.961 91.2847 117.504 87.7355 117.486C84.1948 117.396 80.67 116.978 77.2064 116.236C73.8475 115.58 70.6376 114.813 67.5469 114.246C64.6323 113.674 61.6759 113.341 58.7073 113.251C56.1209 113.165 53.5339 113.401 51.0055 113.952C46.3596 114.948 42.8764 116.794 40.7944 118.431C40.3313 118.793 39.8868 119.178 39.4627 119.586C39.105 119.949 38.8218 120.272 38.5882 120.536C38.3547 120.8 38.2156 121.034 38.0913 121.168L37.9224 121.377C37.9682 121.3 38.018 121.225 38.0715 121.153L38.5385 120.501C38.7671 120.237 39.0354 119.904 39.4031 119.536C39.8217 119.119 40.2629 118.725 40.7248 118.356C42.8018 116.694 46.295 114.833 50.9558 113.793C52.1736 113.518 53.4063 113.313 54.6477 113.181C55.9931 113.046 57.3455 112.993 58.6973 113.022C61.679 113.114 64.6485 113.446 67.5767 114.017C70.6723 114.584 73.8872 115.341 77.2412 116.008C80.6889 116.742 84.1969 117.157 87.7206 117.247C91.2442 117.265 94.7488 116.728 98.1056 115.654C101.232 114.653 104.224 113.271 107.015 111.539C108.34 110.713 109.597 109.845 110.786 108.936C111.974 108.036 113.156 107.195 114.309 106.408C116.62 104.826 118.781 103.393 120.769 102.034C124.669 99.322 127.675 96.8985 129.494 94.9578C129.956 94.4601 130.359 94.0471 130.672 93.644C130.956 93.3183 131.223 92.9777 131.472 92.6239L131.929 91.972C132.018 91.8227 132.078 91.7481 132.078 91.7481Z" fill="var(--fill-0, #263238)"/>
<path id="Vector_8" d="M74.0065 78.6753L73.9319 78.7798L73.6885 79.0734C73.4649 79.3222 73.1667 79.7203 72.7245 80.1682C71.495 81.4813 70.1348 82.6652 68.6649 83.7014C66.4795 85.2286 64.1126 86.4773 61.619 87.4187C58.5563 88.5513 55.396 89.3992 52.1781 89.9516C50.4738 90.2651 48.7943 90.4791 47.1695 90.6334C45.5447 90.7876 43.9646 90.8722 42.4689 90.917C39.4876 91.0066 36.7646 90.917 34.5187 90.8225C32.2728 90.7279 30.4243 90.5836 29.1573 90.4841L27.7064 90.3547L27.3287 90.3149C27.2858 90.3205 27.2424 90.3205 27.1995 90.3149H27.3287H27.7064L29.1672 90.3945C30.4293 90.4691 32.2628 90.5736 34.5237 90.6582C36.7845 90.7428 39.4926 90.8025 42.4739 90.698C43.9646 90.6533 45.5397 90.5637 47.1596 90.4044C48.7794 90.2452 50.4539 90.0362 52.1284 89.7227C55.3253 89.1764 58.4666 88.3437 61.5147 87.2345C63.9971 86.3117 66.3568 85.0866 68.5407 83.5869C70.0109 82.5693 71.3803 81.4128 72.6301 80.1333C73.0822 79.6954 73.3903 79.3073 73.6239 79.0684L73.8872 78.7897C73.9717 78.7002 74.0015 78.6703 74.0065 78.6753Z" fill="var(--fill-0, #263238)"/>
<path id="Vector_9" d="M83.348 122.118H83.2088H82.8163L81.2958 122.004C79.9741 121.905 78.066 121.755 75.7009 121.651C72.938 121.513 70.1691 121.561 67.4127 121.795C64.0364 122.07 60.721 122.855 57.5793 124.124C54.2502 125.512 51.2639 127.254 48.3272 128.389C46.9443 128.938 45.5161 129.366 44.059 129.668C42.7898 129.926 41.5021 130.084 40.2081 130.14C38.3344 130.229 36.4567 130.099 34.6131 129.752C33.9622 129.628 33.4603 129.513 33.1224 129.419L32.7398 129.309L32.6107 129.269C32.655 129.262 32.7004 129.262 32.7448 129.269L33.1324 129.349C33.4703 129.429 33.9771 129.528 34.6231 129.638C36.4624 129.949 38.3306 130.054 40.1932 129.951C41.4775 129.882 42.7549 129.715 44.0142 129.454C45.456 129.144 46.8689 128.713 48.2378 128.165C51.1496 127.025 54.1309 125.278 57.4799 123.885C60.6427 122.606 63.9825 121.821 67.3829 121.556C70.1517 121.332 72.9327 121.3 75.7058 121.462C78.071 121.591 79.9791 121.765 81.2958 121.895L82.8163 122.054L83.2088 122.099C83.2558 122.101 83.3024 122.107 83.348 122.118Z" fill="var(--fill-0, #263238)"/>
<path id="Vector_10" d="M16.1736 102.079H16.3276L16.7748 102.049C17.1673 102.049 17.7686 101.999 18.494 102.019C19.4068 102.028 20.3137 102.167 21.1872 102.432C22.3568 102.791 23.402 103.472 24.2033 104.398C25.1217 105.559 25.7487 106.925 26.0318 108.379C26.3933 110.025 26.5205 111.714 26.4095 113.395C26.3116 115.26 25.8578 117.09 25.0728 118.784C24.6495 119.681 24.0933 120.508 23.4232 121.238C22.7135 121.979 21.8595 122.567 20.9139 122.964C20.4358 123.159 19.9348 123.291 19.4232 123.358C18.9155 123.416 18.4023 123.404 17.8978 123.323C16.9131 123.125 16.0008 122.662 15.2593 121.984C13.8034 120.67 12.8693 119.023 11.9401 117.505C11.4859 116.768 11.1 115.99 10.7873 115.182C10.4955 114.408 10.3278 113.594 10.2904 112.768C10.2532 111.994 10.3838 111.222 10.673 110.504C10.9723 109.859 11.3808 109.272 11.8804 108.767C12.3255 108.318 12.7421 107.841 13.1276 107.339C13.4526 106.876 13.7196 106.374 13.9227 105.846C14.2248 104.983 14.6075 104.149 15.0655 103.358C15.362 102.854 15.8037 102.451 16.3326 102.203C16.4724 102.147 16.6197 102.112 16.7698 102.099H16.9239C16.7271 102.117 16.5343 102.166 16.3524 102.243C15.8477 102.506 15.4288 102.909 15.145 103.403C14.706 104.197 14.3401 105.03 14.0519 105.891C13.8472 106.426 13.5803 106.936 13.2568 107.409C12.8683 107.914 12.4519 108.398 12.0096 108.857C11.5281 109.352 11.1348 109.926 10.8469 110.554C10.5723 111.248 10.4503 111.993 10.4892 112.738C10.6253 114.396 11.1867 115.99 12.1189 117.366C13.0481 118.859 13.9873 120.486 15.4034 121.76C16.1099 122.409 16.9817 122.85 17.9226 123.034C18.404 123.113 18.8939 123.125 19.3785 123.069C19.8698 123.005 20.3508 122.878 20.8095 122.691C21.7242 122.309 22.5499 121.741 23.2344 121.024C23.8915 120.315 24.4361 119.509 24.8492 118.635C25.623 116.969 26.0733 115.17 26.1759 113.335C26.294 111.668 26.1753 109.993 25.8231 108.359C25.5532 106.936 24.9504 105.597 24.0642 104.453C23.2858 103.547 22.2731 102.874 21.1375 102.507C20.2762 102.236 19.3816 102.085 18.4791 102.059C17.7388 102.024 17.1574 102.059 16.7649 102.059H16.1636L16.1736 102.079Z" fill="var(--fill-0, #263238)"/>
<path id="Vector_11" d="M18.5934 107.319C18.6586 107.248 18.734 107.188 18.817 107.14C19.0562 107.002 19.3192 106.911 19.5922 106.871C20.0293 106.815 20.4736 106.87 20.8841 107.03C21.4276 107.251 21.8918 107.631 22.2157 108.12C22.6127 108.715 22.8584 109.399 22.9313 110.111C23.0074 110.908 22.9706 111.712 22.8219 112.499C22.7042 113.374 22.4875 114.232 22.176 115.057C21.8316 115.973 21.1559 116.727 20.2828 117.167C19.8327 117.386 19.3285 117.469 18.8319 117.406C18.3503 117.331 17.8992 117.123 17.5301 116.804C16.8771 116.19 16.3797 115.429 16.0792 114.584C15.4677 113.201 15.3314 111.654 15.6916 110.185C15.9582 109.196 16.5412 108.322 17.3512 107.697C17.5728 107.536 17.811 107.399 18.0617 107.289C18.147 107.249 18.2372 107.221 18.3301 107.204C18.0073 107.367 17.6996 107.559 17.4108 107.777C16.6465 108.405 16.1017 109.261 15.8556 110.22C15.5352 111.653 15.6868 113.151 16.2879 114.49C16.5809 115.296 17.0592 116.022 17.6841 116.61C18.0202 116.897 18.4298 117.085 18.8667 117.152C19.3176 117.211 19.7757 117.135 20.1835 116.933C21.0024 116.516 21.6341 115.806 21.9524 114.943C22.2627 114.141 22.4811 113.306 22.6033 112.454C22.7511 111.688 22.7929 110.904 22.7275 110.126C22.6653 109.451 22.4402 108.802 22.0716 108.235C21.7754 107.764 21.3441 107.395 20.8344 107.175C20.4476 107.009 20.0259 106.943 19.6071 106.981C19.2487 107.018 18.9028 107.134 18.5934 107.319Z" fill="var(--fill-0, #263238)"/>
<path id="Vector_12" d="M8.69042 101.78C8.68507 101.707 8.68507 101.634 8.69042 101.561C8.67156 101.344 8.67156 101.126 8.69042 100.909C8.72315 100.067 8.92954 99.24 9.29662 98.481C9.86418 97.2752 10.717 96.2264 11.7811 95.4255C12.4408 94.9193 13.1706 94.5119 13.9475 94.2163C14.825 93.8981 15.7438 93.7087 16.6754 93.654C18.8133 93.5523 20.945 93.9581 22.8965 94.8383C25.1348 95.8334 27.1738 97.2279 28.9138 98.9537C30.8338 100.859 32.3705 103.116 33.4405 105.602C34.5876 108.271 35.1468 111.157 35.0802 114.062C34.956 120.033 32.3225 125.642 28.2629 128.881C26.3764 130.473 24.0714 131.485 21.6244 131.797C20.5184 131.914 19.4008 131.85 18.3152 131.608C17.316 131.374 16.3509 131.013 15.4431 130.533C13.8983 129.695 12.4921 128.622 11.2742 127.354C10.3585 126.4 9.5054 125.387 8.72023 124.323C8.06434 123.452 7.58732 122.76 7.25938 122.288L6.89168 121.75C6.81218 121.631 6.77243 121.561 6.77243 121.561L6.91156 121.735L7.29913 122.258C7.63701 122.721 8.1339 123.407 8.7898 124.248C9.58651 125.296 10.4478 126.294 11.3687 127.234C12.581 128.486 13.9809 129.54 15.5177 130.359C16.4134 130.827 17.3652 131.178 18.3499 131.404C19.4169 131.637 20.5144 131.694 21.5996 131.573C24.0042 131.258 26.2673 130.256 28.1188 128.687C32.0939 125.482 34.7125 119.934 34.8317 114.037C34.9005 111.158 34.3479 108.298 33.2119 105.652C32.1572 103.19 30.6389 100.955 28.7399 99.0682C27.0207 97.3768 25.0087 96.0127 22.8021 95.0424C20.8809 94.1647 18.7804 93.7521 16.6705 93.8381C15.7547 93.8891 14.8511 94.0718 13.9873 94.3805C13.2209 94.665 12.4996 95.0589 11.8457 95.5499C10.7883 96.329 9.93569 97.3536 9.36122 98.5357C8.98972 99.2811 8.77013 100.093 8.71526 100.924C8.67054 101.477 8.70533 101.78 8.69042 101.78Z" fill="var(--fill-0, #263238)"/>
<path id="Vector_13" d="M4.88425 121.75C4.82912 121.702 4.78215 121.645 4.74512 121.581C4.6197 121.422 4.50357 121.256 4.3973 121.083C3.98857 120.428 3.65519 119.729 3.40352 118.998C2.62968 116.563 2.47931 113.973 2.96625 111.464C3.46361 108.979 4.26292 106.564 5.34635 104.273C5.74386 103.393 6.08175 102.686 6.34013 102.198L6.62336 101.646C6.69292 101.517 6.72771 101.452 6.73764 101.457C6.65448 101.725 6.5515 101.986 6.42957 102.238C6.201 102.776 5.89293 103.482 5.52026 104.343C4.49275 106.639 3.72444 109.042 3.22961 111.509C2.75057 113.975 2.87158 116.52 3.5824 118.929C3.91947 119.911 4.35567 120.856 4.88425 121.75Z" fill="var(--fill-0, #263238)"/>
<g id="Group_2" opacity="0.3">
<path id="Vector_14" d="M52.039 82.9201C51.8005 85.254 52.8241 87.553 54.1657 89.4789C55.5073 91.4047 57.1868 93.0817 58.5284 95.0075C61.2513 98.909 62.4786 103.646 63.3432 108.329C64.2078 113.012 64.7643 117.784 66.3593 122.263C66.737 123.338 67.2686 124.487 68.3071 124.955C69.1121 125.318 70.0413 125.179 70.9158 125.035L76.4909 124.119C78.1157 123.855 79.8697 123.522 80.9629 122.308C82.4536 120.68 82.225 118.162 81.902 115.973L80.0983 103.855C79.8548 102.223 79.6014 100.506 80.1778 98.9537C80.7542 97.4011 82.389 96.1023 83.979 96.5303C84.5239 96.719 85.0121 97.043 85.398 97.4721C85.7838 97.9011 86.0546 98.4212 86.1852 98.9836C86.4288 100.111 86.4792 101.273 86.3343 102.417L85.2461 117.704C85.1815 118.615 85.1765 119.67 85.8672 120.262C86.1542 120.475 86.4953 120.602 86.8512 120.63C87.2072 120.657 87.5636 120.583 87.8796 120.417C88.5034 120.065 89.019 119.548 89.3703 118.924C90.682 116.849 91.0348 114.331 91.4721 111.907C92.6313 105.501 94.5877 99.2647 97.2956 93.3455C98.031 91.7331 98.836 90.1208 99.159 88.3691C99.482 86.6175 99.2683 84.6817 98.1403 83.3082C96.9528 81.8601 95.0099 81.3177 93.1715 80.8201L83.661 78.3319C80.6499 77.5506 77.594 76.7594 74.4785 76.8042C67.5916 76.9087 61.4054 81.0589 54.6029 82.1786" fill="var(--fill-0, black)"/>
</g>
<path id="Vector_15" d="M71.845 8.71334L69.3059 28.9669L79.4176 30.3056C79.7306 29.156 80.6101 24.6425 80.6101 24.6425C80.6101 24.6425 84.8834 24.8864 85.8225 20.751C86.2796 18.7605 86.8808 14.5257 87.3777 10.7138C87.6445 8.68184 87.1065 6.62601 85.8788 4.98632C84.6511 3.34664 82.8313 2.2534 80.8089 1.94058C79.7744 1.78143 78.7185 1.83144 77.7036 2.08768C76.6887 2.34392 75.7353 2.80118 74.8998 3.43248C74.0643 4.06378 73.3635 4.85632 72.8388 5.76332C72.3141 6.67032 71.9762 7.6734 71.845 8.71334Z" fill="var(--fill-0, #FFBE9D)"/>
<path id="Vector_16" d="M80.6449 24.5828C78.726 24.2093 76.9617 23.2721 75.5766 21.8906C75.5766 21.8906 76.2176 25.1451 80.4213 25.6577L80.6449 24.5828Z" fill="var(--fill-0, #EB996E)"/>
<path id="Vector_17" d="M85.7479 13.4309C85.7212 13.589 85.633 13.7302 85.5026 13.8234C85.3723 13.9167 85.2104 13.9544 85.0523 13.9285C84.9759 13.9175 84.9024 13.8916 84.836 13.8521C84.7697 13.8126 84.7117 13.7604 84.6656 13.6984C84.6194 13.6365 84.5859 13.566 84.567 13.4911C84.5481 13.4161 84.5442 13.3382 84.5554 13.2617C84.5878 13.1071 84.6791 12.9712 84.8099 12.883C84.9408 12.7947 85.1008 12.761 85.256 12.7889C85.4062 12.8088 85.5425 12.8875 85.6347 13.0079C85.727 13.1283 85.7677 13.2804 85.7479 13.4309Z" fill="var(--fill-0, #263238)"/>
<path id="Vector_18" d="M86.0461 12.6148C85.9566 12.6745 85.584 12.2465 84.948 12.1171C84.3119 11.9878 83.7753 12.2017 83.7256 12.1171C83.6759 12.0325 83.8001 11.9529 84.0337 11.8484C84.3482 11.7184 84.6948 11.6872 85.0275 11.7588C85.3598 11.8282 85.6611 12.0027 85.8871 12.2565C86.056 12.4356 86.1107 12.5849 86.0461 12.6148Z" fill="var(--fill-0, #263238)"/>
<path id="Vector_19" d="M79.4971 12.2565C79.4703 12.4146 79.3821 12.5558 79.2518 12.649C79.1214 12.7422 78.9595 12.78 78.8014 12.7541C78.7248 12.7438 78.6509 12.7182 78.5842 12.6789C78.5175 12.6396 78.4593 12.5874 78.413 12.5253C78.3668 12.4632 78.3333 12.3925 78.3147 12.3172C78.2961 12.242 78.2926 12.1638 78.3045 12.0873C78.3358 11.9331 78.4261 11.7973 78.5562 11.7089C78.6862 11.6205 78.8456 11.5867 79.0002 11.6145C79.1508 11.6344 79.2874 11.713 79.3804 11.8332C79.4735 11.9534 79.5154 12.1055 79.4971 12.2565Z" fill="var(--fill-0, #263238)"/>
<path id="Vector_20" d="M79.7753 11.3906C79.6859 11.4503 79.3083 11.0223 78.6722 10.893C78.0362 10.7636 77.4996 10.9776 77.4499 10.893C77.4002 10.8084 77.5244 10.7238 77.7629 10.6193C78.0773 10.4881 78.4247 10.4585 78.7567 10.5347C79.0873 10.6051 79.3867 10.7794 79.6114 11.0323C79.7803 11.2114 79.8151 11.3657 79.7753 11.3906Z" fill="var(--fill-0, #263238)"/>
<path id="Vector_21" d="M81.0722 16.6058C81.4301 16.5742 81.7904 16.5859 82.1455 16.6406C82.3095 16.6406 82.4685 16.6406 82.5182 16.556C82.5699 16.3942 82.5699 16.2202 82.5182 16.0584C82.4536 15.6304 82.379 15.1825 82.3045 14.7148C82.0819 13.5661 81.954 12.401 81.9219 11.2314C82.2322 12.355 82.4532 13.5015 82.5828 14.66C82.6523 15.1278 82.7169 15.5757 82.7766 16.0036C82.8372 16.2221 82.8178 16.4551 82.7219 16.6605C82.6867 16.7133 82.6396 16.7571 82.5843 16.7882C82.5291 16.8194 82.4672 16.837 82.4039 16.8397C82.31 16.8532 82.2146 16.8532 82.1207 16.8397C81.7624 16.8087 81.4098 16.73 81.0722 16.6058Z" fill="var(--fill-0, #263238)"/>
<path id="Vector_22" d="M79.1045 16.6456C79.2089 16.6456 79.0648 17.3522 79.5468 17.9693C80.0288 18.5863 80.784 18.6709 80.7691 18.7705C80.7542 18.87 80.5803 18.865 80.2722 18.8103C79.8662 18.7294 79.5019 18.5073 79.2437 18.1833C79.1193 18.0307 79.0262 17.855 78.97 17.6662C78.9137 17.4775 78.8952 17.2794 78.9157 17.0835C78.9455 16.7849 79.0598 16.6307 79.1045 16.6456Z" fill="var(--fill-0, #263238)"/>
<path id="Vector_23" d="M80.471 8.95221C80.3716 9.11145 79.7555 8.89249 78.9803 8.82282C78.2052 8.75316 77.5691 8.82282 77.4896 8.64865C77.4648 8.56405 77.6039 8.42472 77.8822 8.31026C78.2511 8.17559 78.6457 8.12623 79.0363 8.16587C79.427 8.20551 79.8036 8.33313 80.1381 8.53917C80.4064 8.68846 80.5157 8.85268 80.471 8.95221Z" fill="var(--fill-0, #263238)"/>
<path id="Vector_24" d="M86.2101 10.7188C86.066 10.8382 85.6585 10.5944 85.1368 10.475C84.615 10.3555 84.143 10.3655 84.0734 10.1913C84.0436 10.1067 84.143 9.97732 84.3666 9.88277C84.6625 9.77264 84.9848 9.75528 85.2908 9.83301C85.6032 9.91024 85.8832 10.0844 86.0908 10.3306C86.2448 10.4998 86.2746 10.6591 86.2101 10.7188Z" fill="var(--fill-0, #263238)"/>
<path id="Vector_25" d="M77.3108 5.13538H77.281C76.5106 5.51329 75.916 6.17478 75.6214 6.98158L75.5915 7.06121C75.1791 8.21073 74.9506 9.41998 74.5232 10.5446C74.1556 11.7201 73.4028 12.737 72.3866 13.4309C71.9593 13.6847 71.2736 13.7792 71.0649 13.3264C71.0029 13.1419 70.9926 12.944 71.0351 12.7541C71.4226 9.85292 71.1891 7.15078 71.8301 4.16997C71.9151 3.76915 72.0948 3.39458 72.3542 3.07768C72.6135 2.76077 72.945 2.51077 73.3208 2.34864C74.0412 2.03513 74.9009 1.73158 75.522 2.2093C76.1431 2.68703 76.7692 4.19983 77.1866 4.84675" fill="var(--fill-0, #263238)"/>
<path id="Vector_26" d="M72.8388 10.888C72.7742 10.8432 70.1754 9.43491 69.6636 12.2913C69.1518 15.1477 72.1133 15.0731 72.1481 14.9885C72.1829 14.9039 72.8388 10.888 72.8388 10.888Z" fill="var(--fill-0, #FFBE9D)"/>
<path id="Vector_27" d="M71.4574 13.7543C71.4574 13.7543 71.4028 13.7543 71.3084 13.7991C71.1811 13.8291 71.0472 13.8076 70.9357 13.7394C70.7734 13.5893 70.6538 13.3987 70.5892 13.1871C70.5246 12.9755 70.5173 12.7505 70.568 12.5351C70.6058 12.2892 70.6974 12.0547 70.8363 11.8484C70.8791 11.7641 70.9417 11.6915 71.0187 11.6369C71.0958 11.5823 71.185 11.5473 71.2785 11.5349C71.3382 11.5304 71.3976 11.5468 71.4465 11.5813C71.4955 11.6158 71.5309 11.6663 71.5469 11.724C71.5717 11.8136 71.5469 11.8633 71.5469 11.8733C71.5469 11.8832 71.6164 11.8385 71.6164 11.7141C71.6113 11.6269 71.5728 11.5452 71.5089 11.4858C71.445 11.4265 71.3607 11.3941 71.2736 11.3956C71.1531 11.3966 71.0349 11.4288 70.9305 11.4889C70.826 11.5491 70.7388 11.6352 70.6773 11.7389C70.5112 11.965 70.4021 12.2279 70.3593 12.5053C70.2985 12.7563 70.3133 13.0197 70.4017 13.2624C70.4901 13.505 70.6483 13.716 70.8562 13.8688C70.9288 13.9048 71.0087 13.9235 71.0897 13.9235C71.1707 13.9235 71.2507 13.9048 71.3233 13.8688C71.4376 13.819 71.4674 13.7593 71.4574 13.7543Z" fill="var(--fill-0, #EB996E)"/>
<path id="Vector_28" d="M75.3232 2.65717C74.871 1.37328 77.1269 0.169011 78.6176 0.0147454C80.1083 -0.13952 81.8027 0.950294 83.0896 1.71167C83.9045 2.2093 84.6896 2.78158 85.6237 2.94082C86.2531 3.01203 86.8895 2.98854 87.5119 2.87115C88.1367 2.75154 88.7794 2.7617 89.4001 2.90101C89.7087 2.97534 89.9914 3.13217 90.2181 3.35477C90.4447 3.57737 90.6068 3.8574 90.687 4.16499C90.7147 4.31867 90.7095 4.4765 90.6716 4.62798C90.6336 4.77946 90.5639 4.92111 90.4671 5.04352C90.3703 5.16592 90.2485 5.26627 90.1099 5.33788C89.9714 5.40949 89.8192 5.45072 89.6634 5.45883C89.8836 5.39278 90.1164 5.38118 90.342 5.42503C90.5676 5.46887 90.7792 5.56685 90.9587 5.71057C91.1382 5.85429 91.2802 6.03946 91.3726 6.2502C91.4649 6.46094 91.5049 6.69097 91.489 6.92056C91.4731 7.15016 91.4018 7.37248 91.2813 7.56845C91.1609 7.76442 90.9947 7.9282 90.7971 8.04575C90.5996 8.1633 90.3765 8.23112 90.147 8.24339C89.9175 8.25565 89.6885 8.21201 89.4796 8.11619C89.9467 7.89723 90.4734 8.53419 90.2994 9.02684C90.1915 9.26199 90.0243 9.46499 89.8144 9.61591C89.6044 9.76684 89.3589 9.86052 89.1019 9.88775C87.815 10.1565 86.4734 9.69367 85.3405 9.02187C84.2076 8.35007 83.2138 7.46429 82.0958 6.76263C80.9778 6.06097 79.1145 4.83182 77.8176 5.00101C76.8536 5.12542 75.999 6.07092 75.5468 5.72257C75.3357 5.54479 75.1695 5.31966 75.0615 5.06545C74.9536 4.81125 74.9071 4.53514 74.9257 4.25955C74.9714 3.7075 75.1056 3.16644 75.3232 2.65717Z" fill="var(--fill-0, #263238)"/>
<path id="Vector_29" d="M90.0212 5.46879C90.0212 5.46879 89.8274 5.64793 89.4547 5.91168C88.9219 6.27879 88.3081 6.51102 87.6659 6.58846C86.7189 6.71549 85.7598 6.46731 84.9927 5.89675C84.1231 5.25978 83.502 4.21973 82.712 3.20456C82.0092 2.19222 81.0139 1.41948 79.8598 0.990107C79.3799 0.825418 78.8688 0.772095 78.3652 0.834164C77.8617 0.896233 77.3788 1.07207 76.953 1.3484C76.6758 1.54725 76.4414 1.79999 76.2638 2.09154C76.0863 2.38308 75.9692 2.70747 75.9195 3.04533C75.8955 3.227 75.8955 3.41104 75.9195 3.59272C75.9493 3.71215 75.9692 3.77186 75.9791 3.77186C75.9732 3.53397 75.9865 3.296 76.0189 3.06025C76.1528 2.43089 76.525 1.87797 77.0574 1.51759C77.4609 1.27303 77.9138 1.12157 78.383 1.07422C78.8523 1.02688 79.3263 1.08484 79.7704 1.2439C80.8647 1.66807 81.8065 2.41186 82.4735 3.37874C83.2337 4.374 83.8946 5.4439 84.8287 6.11073C85.5172 6.5984 86.3441 6.85109 87.1871 6.83137C88.0302 6.81165 88.8444 6.52058 89.5094 6.00126C89.6517 5.88764 89.7831 5.76102 89.9019 5.62305C89.9508 5.57935 89.9912 5.52706 90.0212 5.46879Z" fill="var(--fill-0, #BF844D)"/>
<path id="Vector_30" d="M72.1481 10.6093C72.1481 10.6093 72.2872 10.5596 72.4413 10.3555C72.6519 10.0642 72.7759 9.71918 72.799 9.36027C72.9332 8.43467 72.3369 7.28514 72.5058 6.00126C72.5625 5.40129 72.8019 4.83325 73.1916 4.374C73.5211 4.01552 73.9594 3.77589 74.4387 3.69224C74.7707 3.6273 75.114 3.65309 75.4325 3.76689C75.6512 3.85149 75.7605 3.93111 75.7754 3.9112C75.7903 3.89129 75.6959 3.78679 75.4772 3.66238C75.1526 3.5019 74.7873 3.44294 74.4288 3.49319C73.8907 3.55725 73.3917 3.80713 73.0176 4.19983C72.5818 4.69193 72.3153 5.3112 72.2574 5.96642C72.1934 6.60447 72.2473 7.24888 72.4164 7.86737C72.5556 8.35297 72.6292 8.85508 72.635 9.36027C72.6036 9.81659 72.4337 10.2524 72.1481 10.6093Z" fill="var(--fill-0, #BF844D)"/>
<path id="Vector_31" d="M81.3853 126.219L83.6511 137.605L88.0386 146.094C88.1141 146.239 88.159 146.398 88.1704 146.56C88.1818 146.723 88.1595 146.886 88.1049 147.04C88.0503 147.194 87.9646 147.335 87.8532 147.454C87.7417 147.573 87.6069 147.667 87.4572 147.732C87.2843 147.808 87.0952 147.842 86.9064 147.829C86.7176 147.816 86.5349 147.757 86.374 147.657C84.2772 146.388 76.5853 141.685 76.4661 140.824C76.3269 139.829 72.7941 127.438 72.7941 127.438L81.3853 126.219Z" fill="var(--fill-0, #FF725E)"/>
<g id="Group_3" opacity="0.6">
<path id="Vector_32" d="M87.4572 147.732L76.2971 140.063L76.4015 140.561C76.4941 140.976 76.732 141.345 77.0723 141.601C77.9766 142.287 80.5207 144.124 86.3392 147.687C86.5061 147.788 86.6952 147.847 86.8902 147.859C87.0851 147.87 87.2798 147.833 87.4572 147.751V147.732Z" fill="var(--fill-0, white)"/>
</g>
<g id="Group_4" opacity="0.6">
<path id="Vector_33" d="M77.8027 135.888C77.9653 135.958 78.0961 136.085 78.1696 136.246C78.2431 136.407 78.254 136.59 78.2002 136.759C78.1355 136.924 78.0095 137.059 77.8485 137.134C77.6875 137.209 77.5038 137.219 77.3356 137.162C77.165 137.084 77.0288 136.947 76.9528 136.775C76.8768 136.604 76.8663 136.41 76.9232 136.231C77.0092 136.067 77.1558 135.942 77.332 135.883C77.5081 135.825 77.7001 135.837 77.8673 135.918" fill="var(--fill-0, white)"/>
</g>
<path id="Vector_34" d="M83.7654 143.357C83.9601 142.943 84.2296 142.569 84.5604 142.253C84.9377 141.995 85.3612 141.812 85.8076 141.715C85.8076 141.685 85.6486 141.626 85.3753 141.651C85.0115 141.684 84.6657 141.824 84.3815 142.054C84.1017 142.279 83.8915 142.579 83.7753 142.919C83.7157 143.183 83.7355 143.352 83.7654 143.357Z" fill="var(--fill-0, #263238)"/>
<path id="Vector_35" d="M84.9132 144.696C84.9778 144.731 85.256 144.283 85.8026 143.984C86.1524 143.832 86.5108 143.701 86.8759 143.591C86.6771 143.523 86.465 143.502 86.2569 143.532C86.0487 143.561 85.8505 143.64 85.6784 143.76C85.0573 144.104 84.8436 144.676 84.9132 144.696Z" fill="var(--fill-0, #263238)"/>
<path id="Vector_36" d="M81.8325 141.75C82.5861 140.827 83.5932 140.145 84.7293 139.789C84.1101 139.806 83.5084 139.999 82.9952 140.346C82.4819 140.694 82.0785 141.181 81.8325 141.75Z" fill="var(--fill-0, #263238)"/>
<path id="Vector_37" d="M80.8536 138.336C80.8983 138.396 81.4648 137.993 82.2747 137.784C83.0846 137.575 83.7654 137.625 83.7654 137.55C83.2531 137.402 82.71 137.396 82.195 137.535C81.6799 137.674 81.2126 137.951 80.8436 138.336H80.8536Z" fill="var(--fill-0, #263238)"/>
<path id="Vector_38" d="M80.1033 135.017C80.5613 134.75 81.0525 134.544 81.5641 134.405C82.092 134.347 82.6254 134.362 83.1492 134.45C83.1492 134.42 83.0101 134.305 82.712 134.211C82.3236 134.1 81.9147 134.081 81.5179 134.156C81.1211 134.232 80.7473 134.398 80.4263 134.644C80.1878 134.853 80.0834 134.997 80.1033 135.017Z" fill="var(--fill-0, #263238)"/>
<path id="Vector_39" d="M81.4051 133.778C81.4112 133.63 81.3841 133.482 81.3256 133.345C81.2004 132.961 80.9993 132.605 80.7343 132.3C80.5592 132.062 80.3116 131.887 80.0287 131.802C79.9331 131.787 79.8352 131.8 79.7469 131.84C79.6587 131.88 79.5839 131.945 79.5319 132.026C79.4447 132.197 79.4218 132.393 79.4673 132.579C79.5776 132.954 79.8153 133.278 80.1392 133.496C80.4631 133.714 80.8529 133.812 81.2412 133.773C81.623 133.727 81.9826 133.569 82.2745 133.318C82.5664 133.067 82.7774 132.736 82.8809 132.365C82.9065 132.272 82.9118 132.174 82.8963 132.079C82.8809 131.983 82.8451 131.893 82.7915 131.812C82.7289 131.736 82.6438 131.681 82.5482 131.656C82.4527 131.631 82.3517 131.637 82.2598 131.673C81.9944 131.797 81.7664 131.99 81.5989 132.23C81.3477 132.544 81.1527 132.9 81.0225 133.28C80.9624 133.417 80.9335 133.564 80.9381 133.713C81.1336 133.219 81.4034 132.757 81.7381 132.345C81.8918 132.143 82.0932 131.982 82.3244 131.877C82.3734 131.855 82.4282 131.85 82.4803 131.863C82.5324 131.875 82.5789 131.905 82.6126 131.947C82.6447 132.002 82.6649 132.063 82.6718 132.127C82.6786 132.19 82.672 132.254 82.6523 132.315C82.5542 132.634 82.3659 132.918 82.1103 133.133C81.8546 133.347 81.5424 133.483 81.2114 133.524C80.8826 133.556 80.5528 133.475 80.2763 133.294C79.9999 133.113 79.7934 132.843 79.6909 132.529C79.6547 132.402 79.6653 132.266 79.7207 132.146C79.7469 132.098 79.7874 132.06 79.8365 132.037C79.8855 132.014 79.9406 132.006 79.994 132.016C80.2336 132.091 80.4449 132.237 80.6002 132.434C80.9434 132.833 81.2157 133.287 81.4051 133.778Z" fill="var(--fill-0, #263238)"/>
<g id="Group_5" opacity="0.3">
<path id="Vector_40" d="M73.4549 129.767L81.8275 128.433L81.5095 126.856L73.2264 128.971L73.4549 129.767Z" fill="var(--fill-0, black)"/>
</g>
<path id="Vector_41" d="M97.6137 122.412L95.6708 131.29C95.6708 131.29 104.024 136.241 103.825 137.918L86.5132 134.768L88.9678 120.835L97.6137 122.412Z" fill="var(--fill-0, #FF725E)"/>
<g id="Group_6" opacity="0.6">
<path id="Vector_42" d="M90.4535 129.538C90.2778 129.558 90.1156 129.642 89.9982 129.774C89.8807 129.907 89.8164 130.078 89.8175 130.255C89.8314 130.431 89.9123 130.596 90.0436 130.714C90.1748 130.832 90.3464 130.896 90.523 130.892C90.7092 130.871 90.881 130.781 91.005 130.641C91.1289 130.5 91.1963 130.318 91.1939 130.13C91.161 129.947 91.058 129.783 90.9068 129.675C90.7556 129.566 90.568 129.521 90.3839 129.548" fill="var(--fill-0, white)"/>
</g>
<g id="Group_7" opacity="0.6">
<path id="Vector_43" d="M86.5132 134.743L86.8113 133.345L103.303 136.888C103.303 136.888 104.014 137.386 103.8 137.883L86.5132 134.743Z" fill="var(--fill-0, white)"/>
</g>
<path id="Vector_44" d="M95.9689 131.225C95.9689 131.31 95.5217 131.27 95.0547 131.469C94.5876 131.668 94.3044 131.967 94.2298 131.932C94.1553 131.897 94.3739 131.434 94.9404 131.19C95.5068 130.946 95.9988 131.151 95.9689 131.225Z" fill="var(--fill-0, #263238)"/>
<path id="Vector_45" d="M97.6484 132.31C97.6484 132.395 97.2609 132.469 96.9081 132.778C96.5553 133.086 96.4112 133.45 96.3217 133.43C96.2323 133.41 96.272 132.932 96.7143 132.549C97.1565 132.166 97.6584 132.225 97.6484 132.31Z" fill="var(--fill-0, #263238)"/>
<path id="Vector_46" d="M98.2844 134.674C98.2049 134.674 98.1652 134.231 98.4633 133.808C98.7615 133.385 99.1938 133.27 99.2186 133.35C99.2434 133.43 98.9503 133.629 98.7217 133.982C98.4931 134.335 98.3689 134.679 98.2844 134.674Z" fill="var(--fill-0, #263238)"/>
<path id="Vector_47" d="M96.1876 129.155C96.1379 129.225 95.7702 129.036 95.2882 128.981C94.8062 128.926 94.4038 129.011 94.369 128.931C94.3342 128.851 94.7516 128.613 95.323 128.687C95.8944 128.762 96.2373 129.095 96.1876 129.155Z" fill="var(--fill-0, #263238)"/>
<g id="Group_8" opacity="0.3">
<path id="Vector_48" d="M97.2261 124.149L96.8832 125.726L88.3864 124.104L88.6349 122.666L97.2261 124.149Z" fill="var(--fill-0, black)"/>
</g>
<path id="Vector_49" d="M96.5453 127.359C96.2461 127.382 95.9458 127.326 95.6758 127.194C95.1933 127.016 94.7509 126.744 94.3739 126.393C94.2845 126.324 94.2072 126.239 94.1454 126.144C94.1015 126.074 94.0822 125.991 94.0902 125.908C94.0983 125.825 94.1334 125.747 94.1901 125.686C94.2433 125.635 94.308 125.597 94.3788 125.575C94.4497 125.553 94.5246 125.549 94.5975 125.562C94.7064 125.579 94.8121 125.612 94.9106 125.662C95.0836 125.743 95.2498 125.837 95.4075 125.945C95.6746 126.133 95.9124 126.359 96.113 126.617C96.3188 126.839 96.4522 127.119 96.4956 127.418C96.4509 127.418 96.3019 127.135 95.9491 126.756C95.7461 126.533 95.5137 126.339 95.2584 126.179C95.108 126.085 94.9501 126.004 94.7863 125.935C94.6124 125.851 94.4534 125.821 94.3938 125.896C94.3342 125.97 94.369 125.935 94.3938 125.995C94.4402 126.065 94.4972 126.127 94.5628 126.179C94.6923 126.302 94.8283 126.419 94.9702 126.527C95.2149 126.716 95.476 126.883 95.7503 127.025C96.0228 127.117 96.2885 127.229 96.5453 127.359Z" fill="var(--fill-0, #263238)"/>
<path id="Vector_50" d="M96.4112 127.458C96.294 127.18 96.2678 126.871 96.3366 126.577C96.3812 126.253 96.4785 125.939 96.6248 125.647C96.715 125.471 96.8215 125.305 96.9428 125.149C97.0108 125.044 97.1045 124.958 97.215 124.9C97.3254 124.842 97.449 124.813 97.5739 124.816C97.6512 124.83 97.7225 124.867 97.7791 124.922C97.8356 124.977 97.8748 125.047 97.8919 125.124C97.9196 125.233 97.9314 125.345 97.9267 125.458C97.922 125.656 97.8851 125.853 97.8174 126.04C97.7115 126.357 97.5288 126.642 97.2857 126.871C96.8683 127.259 96.4956 127.294 96.4956 127.264C96.4956 127.234 96.7988 127.11 97.1366 126.722C97.3301 126.499 97.4741 126.238 97.559 125.955C97.607 125.794 97.6321 125.626 97.6335 125.458C97.6335 125.268 97.5987 125.109 97.5242 125.114C97.4497 125.119 97.2658 125.209 97.1714 125.343C97.0566 125.477 96.9551 125.622 96.8683 125.776C96.7202 126.037 96.6114 126.319 96.5453 126.612C96.4261 127.12 96.4609 127.453 96.4112 127.458Z" fill="var(--fill-0, #263238)"/>
<path id="Vector_51" d="M76.1182 65.9558L103.969 71.599C105.283 71.8692 106.525 72.4168 107.611 73.2054C108.697 73.994 109.603 75.0055 110.269 76.1723C110.934 77.3392 111.343 78.6346 111.469 79.9723C111.595 81.3101 111.435 82.6594 111 83.9303L100.068 124.636L86.1107 123.328L94.5578 85.0101L64.8587 77.9637L76.1182 65.9558Z" fill="var(--fill-0, #263238)"/>
<path id="Vector_52" d="M54.7471 72.3355C53.8146 73.7032 53.2109 75.2685 52.9834 76.9088C52.7558 78.5491 52.9104 80.22 53.4353 81.7905C53.4711 81.902 53.5126 82.0116 53.5595 82.1189C53.8676 82.731 62.8463 88.7026 62.8463 88.7026L70.6723 129.608L83.3132 126.393L80.2275 89.1554C79.8359 84.4056 77.8701 79.9233 74.6425 76.421L70.6326 72.0618L55.9545 70.5689L54.7471 72.3355Z" fill="var(--fill-0, #263238)"/>
<path id="Vector_53" d="M98.5726 76.854C98.6025 76.8789 98.2497 77.3516 97.7329 78.1279C97.0538 79.145 96.4541 80.2131 95.9391 81.3227C95.3237 82.657 94.8249 84.0423 94.4485 85.463L94.3392 85.8561V85.453C94.3123 85.1916 94.3123 84.9282 94.3392 84.6668C94.4122 84.9196 94.4555 85.1802 94.4683 85.4431H94.3441C94.6426 83.9881 95.1113 82.5733 95.7404 81.2281C96.2621 80.1076 96.8894 79.0395 97.6136 78.0383C97.8919 77.6552 98.1105 77.3566 98.3093 77.1575C98.508 76.9585 98.5577 76.844 98.5726 76.854Z" fill="var(--fill-0, #BF844D)"/>
<path id="Vector_54" d="M95.0547 77.5307C94.9862 77.944 94.8933 78.3527 94.7764 78.7549C94.5498 79.7372 94.3987 80.7353 94.3242 81.7407C94.2583 82.7455 94.2732 83.754 94.369 84.7563C94.429 85.1719 94.4655 85.5906 94.4783 86.0104C94.3271 85.6142 94.2318 85.1988 94.1951 84.7762C94.0488 83.7664 94.0105 82.7438 94.0808 81.7258C94.1522 80.7067 94.3287 79.6978 94.6075 78.7151C94.7056 78.3029 94.8559 77.9048 95.0547 77.5307Z" fill="var(--fill-0, #BF844D)"/>
<path id="Vector_55" d="M81.0672 99.2772C81.0387 99.1888 81.0236 99.0965 81.0225 99.0035C81.0225 98.7995 80.9728 98.5358 80.943 98.2123L80.6797 95.3061C80.439 92.1069 79.9992 88.9258 79.3629 85.7815C78.9927 84.0605 78.3821 82.4003 77.5493 80.85C76.8289 79.6045 75.9974 78.4269 75.0648 77.3317C74.2897 76.3762 73.6338 75.6248 73.1965 75.0924C72.9928 74.8386 72.8239 74.6395 72.6996 74.4753C72.6363 74.4074 72.5813 74.3322 72.5357 74.2514C72.6092 74.3081 72.6759 74.3732 72.7344 74.4454C72.8785 74.5947 73.0524 74.7888 73.2711 75.0277C73.7332 75.5253 74.4089 76.2767 75.204 77.2222C76.1643 78.3086 77.0179 79.4851 77.753 80.7355C78.6063 82.2965 79.2305 83.9725 79.6064 85.7118C80.249 88.8663 80.6674 92.0625 80.8585 95.2763C80.9579 96.5054 81.0027 97.5057 81.0424 98.1924C81.0424 98.5158 81.0672 98.7796 81.0772 98.9886C81.0872 99.0848 81.0838 99.1819 81.0672 99.2772Z" fill="var(--fill-0, #BF844D)"/>
<path id="Vector_56" d="M70.6723 129.623C70.6584 129.582 70.6468 129.54 70.6376 129.498L70.5531 129.135C70.4835 128.797 70.3891 128.329 70.2649 127.737C70.0214 126.493 69.6736 124.751 69.2463 122.566C68.4065 118.177 67.2587 112.151 65.9867 105.493C64.7146 98.8343 63.5917 92.7981 62.7619 88.409C62.3494 86.2393 62.0165 84.4777 61.7681 83.2336C61.6488 82.6414 61.5594 82.1687 61.4898 81.8303C61.4203 81.4919 61.3855 81.3326 61.3855 81.3326C61.5981 81.9428 61.756 82.5706 61.8575 83.2087C62.1209 84.4229 62.4836 86.1945 62.9209 88.3691C63.7855 92.7334 64.9482 98.7647 66.2103 105.438C67.4724 112.111 68.5804 118.132 69.4003 122.522C69.7928 124.696 70.1158 126.463 70.3444 127.707C70.4487 128.304 70.5282 128.777 70.5879 129.12L70.6475 129.483C70.6624 129.528 70.6707 129.575 70.6723 129.623Z" fill="var(--fill-0, #BF844D)"/>
<path id="Vector_57" d="M105.31 99.1876C105.316 99.0915 105.332 98.9963 105.36 98.904C105.415 98.695 105.479 98.4312 105.559 98.1028C105.748 97.3763 106.006 96.376 106.324 95.1568C106.642 93.9376 107.055 92.4348 107.492 90.8026C107.929 89.1703 108.441 87.3639 108.863 85.458C109.293 83.674 109.528 81.8486 109.564 80.0139C109.572 79.2197 109.465 78.4285 109.246 77.6651C109.038 77.006 108.73 76.3831 108.332 75.8189C107.731 75.0089 107.05 74.262 106.299 73.5895L105.693 73.0272C105.619 72.9659 105.551 72.8976 105.489 72.8232C105.489 72.8232 105.574 72.8729 105.723 72.9924C105.872 73.1118 106.091 73.286 106.364 73.5198C107.147 74.1703 107.854 74.9083 108.471 75.7194C108.901 76.2979 109.236 76.9412 109.464 77.6253C109.7 78.4063 109.819 79.218 109.817 80.0338C109.793 81.8868 109.561 83.7313 109.127 85.5327C108.704 87.4485 108.187 89.245 107.73 90.8772C107.273 92.5094 106.866 93.9774 106.518 95.2215C106.17 96.4656 105.882 97.426 105.673 98.1476C105.579 98.4711 105.499 98.7298 105.435 98.9388C105.403 99.0263 105.361 99.1098 105.31 99.1876Z" fill="var(--fill-0, #FF725E)"/>
<path id="Vector_58" d="M82.9753 44.0999C82.9753 44.5975 86.056 66.3191 88.5603 67.822C91.0647 69.3248 109.514 67.1054 109.514 67.1054L108.247 58.9094L94.1205 58.4118L92.4261 40.1686C92.3167 38.9882 91.9295 37.8506 91.2964 36.849C90.6634 35.8474 89.8024 35.0102 88.7839 34.406L82.9753 44.0999Z" fill="var(--fill-0, #FF725E)"/>
<path id="Vector_59" d="M57.6886 25.374C61.5147 24.4236 65.7233 24.3489 70.0711 24.5927L79.6511 27.1954L89.4547 34.9286L80.2573 59.6459L80.8437 66.9113L71.05 72.5096L55.9595 70.5589L54.6576 37.5461L57.6886 25.374Z" fill="var(--fill-0, #FF725E)"/>
<path id="Vector_60" d="M68.7196 25.374C68.7196 25.2745 68.7543 25.18 68.7742 25.0804C68.7648 24.9559 68.7432 24.8325 68.7096 24.7122L68.7196 25.374Z" fill="var(--fill-0, #FF725E)"/>
<path id="Vector_61" d="M81.271 25.8717C81.1635 25.716 81.0086 25.5995 80.8295 25.5393C80.6503 25.4792 80.4566 25.4789 80.2772 25.5382C79.924 25.6558 79.5893 25.8234 79.2834 26.0359C78.5379 26.4319 77.7153 26.6606 76.8727 26.7061C76.0301 26.7517 75.1877 26.6129 74.404 26.2996C72.8593 25.6641 71.5162 24.62 70.5183 23.279C70.3835 23.0849 70.2152 22.9164 70.0214 22.7814C69.9182 22.7131 69.7973 22.6767 69.6736 22.6767C69.5499 22.6767 69.429 22.7131 69.3258 22.7814C69.1978 22.9175 69.119 23.0927 69.1022 23.279C68.9929 23.8762 68.8885 24.4783 68.7792 25.0804C68.4662 26.5733 67.4475 28.1409 68.0736 29.5591C68.4065 30.3155 69.2363 30.7385 70.0314 31.052C72.679 32.054 75.5304 32.3956 78.3393 32.0473C78.9469 32.0311 79.53 31.8042 79.989 31.4053C80.4859 30.8778 80.4263 30.1015 80.4859 29.4148C80.5443 28.5523 80.7634 27.7084 81.1319 26.9266C81.2511 26.5783 81.4399 26.1901 81.271 25.8717Z" fill="var(--fill-0, #FF725E)"/>
<path id="Vector_62" d="M68.9332 23.5875C68.9809 23.819 68.9809 24.0577 68.9332 24.2892C68.9028 24.8653 68.7211 25.4232 68.4065 25.9065C68.009 26.4539 67.5668 26.8321 67.3382 27.1804C67.1096 27.5288 67.045 27.7776 67.0053 27.7676C66.9655 27.7577 66.9705 27.474 67.1941 27.0859C67.5029 26.6297 67.8345 26.1896 68.1879 25.7672C68.4741 25.3132 68.6636 24.805 68.7444 24.2743C68.7741 24.0375 68.8377 23.8062 68.9332 23.5875Z" fill="var(--fill-0, #263238)"/>
<path id="Vector_63" d="M79.4126 28.1309C79.3226 28.2565 79.2136 28.3673 79.0896 28.4593C78.7634 28.723 78.4103 28.9516 78.0362 29.1411C76.7858 29.7812 75.3555 29.9777 73.9792 29.6984C72.6028 29.4191 71.3617 28.6805 70.4587 27.6034C70.1851 27.2855 69.9499 26.9364 69.7581 26.5634C69.6766 26.4332 69.6178 26.2902 69.5842 26.1404C69.8859 26.611 70.2178 27.0615 70.5779 27.489C71.4828 28.4996 72.6892 29.1908 74.0177 29.4598C75.3462 29.7287 76.726 29.5611 77.9518 28.9819C78.4584 28.7335 78.9466 28.4491 79.4126 28.1309Z" fill="var(--fill-0, #263238)"/>
<g id="Group_9" opacity="0.3">
<path id="Vector_64" d="M69.8674 26.6629C69.8674 26.6629 70.1307 29.8278 73.2909 30.3056C74.2582 30.4272 75.2402 30.3438 76.1733 30.0609C77.1063 29.778 77.9696 29.3019 78.707 28.6634C78.707 28.6634 76.1033 30.2956 73.3406 29.4048C70.5779 28.5141 69.8674 26.6629 69.8674 26.6629Z" fill="var(--fill-0, black)"/>
<path id="Vector_65" d="M74.2152 30.3902C73.9042 30.3883 73.5937 30.365 73.286 30.3205C72.6791 30.2437 72.0992 30.0231 71.5945 29.6769C71.0899 29.3307 70.6749 28.869 70.3841 28.33C70.1072 27.8187 69.9286 27.26 69.8574 26.6828V26.6032L69.8873 26.6778C70.0597 27.0594 70.2948 27.4093 70.5829 27.7129C71.3972 28.5665 72.4338 29.1746 73.5755 29.4684C74.7172 29.7621 75.9182 29.7298 77.0425 29.375C77.6179 29.2111 78.1705 28.9754 78.6872 28.6733C77.4335 29.7557 75.8403 30.3632 74.1853 30.3902H74.2152ZM69.8922 26.7375C69.9655 27.2835 70.1337 27.8123 70.3891 28.3001C70.6765 28.8388 71.0886 29.3006 71.5909 29.6469C72.0932 29.9933 72.671 30.214 73.276 30.2906C74.6074 30.4826 75.9656 30.2602 77.1667 29.6537C77.6791 29.4078 78.1596 29.1003 78.5977 28.738C78.1072 29.0072 77.5891 29.2224 77.0524 29.38C75.9217 29.7416 74.7121 29.7766 73.5624 29.4808C72.4128 29.1851 71.3698 28.5706 70.5531 27.7079C70.2845 27.4202 70.0616 27.093 69.8922 26.7375Z" fill="var(--fill-0, #263238)"/>
</g>
<path id="Vector_66" d="M76.0189 29.6885C76.4257 29.3353 76.7195 28.8698 76.8636 28.3502C77.0076 27.8307 76.9955 27.2801 76.8288 26.7674C76.8536 26.7674 76.9779 26.9018 77.0772 27.2003C77.2005 27.5946 77.2075 28.0161 77.0973 28.4143C76.9872 28.8124 76.7645 29.1702 76.4561 29.4446C76.2176 29.6487 76.0338 29.7134 76.0189 29.6885Z" fill="var(--fill-0, #263238)"/>
<path id="Vector_67" d="M79.1145 26.1702C79.3973 26.462 79.5587 26.8506 79.5661 27.2572C79.5735 27.6637 79.4263 28.0579 79.1542 28.3598C79.2389 27.998 79.297 27.6304 79.3281 27.26C79.2812 26.8924 79.2098 26.5284 79.1145 26.1702Z" fill="var(--fill-0, #263238)"/>
<path id="Vector_68" d="M73.5543 26.0458C73.6089 26.0906 73.1717 26.6629 72.9083 27.4939C72.645 28.325 72.645 29.0466 72.5754 29.0466C72.4251 28.5083 72.4601 27.9351 72.6748 27.4193C72.8055 26.8755 73.1153 26.3916 73.5543 26.0458Z" fill="var(--fill-0, #263238)"/>
<path id="Vector_69" d="M86.2101 41.5072C86.2746 41.5072 85.4597 44.4432 84.3914 48.0212C83.3231 51.5992 82.4039 54.4904 82.3393 54.4904C82.2747 54.4904 83.0896 51.5544 84.1579 47.9715C85.2262 44.3885 86.1455 41.4873 86.2101 41.5072Z" fill="var(--fill-0, #263238)"/>
<path id="Vector_70" d="M90.6572 63.393C90.5388 63.0859 90.4946 62.7551 90.528 62.4276C90.5567 61.6315 90.8105 60.8599 91.26 60.2027C91.7095 59.5455 92.3362 59.0297 93.0671 58.7153C93.3604 58.563 93.6858 58.4829 94.0162 58.4814C94.0162 58.5212 93.6634 58.6058 93.1416 58.8696C92.4651 59.2214 91.885 59.734 91.4522 60.3625C91.0311 60.9929 90.7717 61.7176 90.697 62.4724C90.6423 63.0198 90.6969 63.3881 90.6572 63.393Z" fill="var(--fill-0, #263238)"/>
<path id="Vector_71" d="M71.5469 24.6226C70.8701 25.2009 70.4443 26.0199 70.3593 26.9067C70.3295 26.9067 70.2698 26.7574 70.2698 26.5037C70.2673 26.1568 70.351 25.8148 70.5133 25.5084C70.6693 25.2108 70.8921 24.9536 71.1643 24.757C71.3779 24.6375 71.532 24.5977 71.5469 24.6226Z" fill="var(--fill-0, #263238)"/>
<g id="Group_10" opacity="0.2">
<path id="Vector_72" d="M89.0622 68.4241C90.1606 68.1926 91.1909 67.7103 92.0726 67.0145C92.9543 66.3188 93.6636 65.4286 94.1454 64.4132C94.3293 63.884 94.6033 63.3907 94.9553 62.9551C95.5301 62.4687 96.2387 62.1685 96.9876 62.0942L106.617 60.1485C106.587 59.7056 106.563 59.2926 106.533 58.8497L97.395 58.566L90.5131 61.2831L89.0622 68.021" fill="var(--fill-0, black)"/>
</g>
<g id="Group_11" opacity="0.3">
<path id="Vector_73" d="M54.752 39.9944L57.7334 38.2975L55.0253 47.0061L54.752 39.9944Z" fill="var(--fill-0, black)"/>
</g>
<path id="Vector_74" d="M112.177 50.0515C112.033 49.2106 112.868 48.479 113.703 48.2999C114.538 48.1207 115.412 48.2999 116.262 48.2203C118.627 48.0013 120.48 45.9262 122.836 45.5978C123.833 45.4832 124.842 45.6739 125.729 46.1447C126.616 46.6155 127.339 47.3444 127.805 48.2352C128.238 49.1389 128.416 50.1445 128.317 51.1423C128.219 52.14 127.849 53.0916 127.248 53.8933C126.626 54.6785 125.818 55.2959 124.897 55.6895C123.977 56.0831 122.973 56.2406 121.976 56.1475C121.022 56.058 120.043 55.7494 119.124 56.0331C118.585 56.2578 118.069 56.5345 117.584 56.8591C116.952 57.2221 116.218 57.364 115.497 57.2622C115.14 57.2038 114.805 57.05 114.528 56.8171C114.25 56.5841 114.041 56.2806 113.922 55.9385" fill="var(--fill-0, #5F3107)"/>
<path id="Vector_75" d="M62.5035 49.7132C58.906 48.0063 55.7408 47.2648 51.7707 47.5684C50.3611 47.6751 48.9622 47.8931 47.5869 48.2203C40.9733 49.8227 33.7783 56.4013 34.9162 65.075C35.6615 70.7729 40.6205 81.6262 51.5421 82.4125C54.6359 82.6033 57.7243 81.9607 60.4861 80.5514C62.467 79.5577 64.3913 78.4546 66.25 77.2471C68.1188 76.0368 70.3172 75.4386 72.5406 75.5352C75.83 75.6796 80.5654 75.0376 84.0486 73.1815C90.5081 69.7627 91.6261 64.9108 90.2448 59.5464C89.1417 55.2568 88.0436 49.8276 81.9567 47.1703C78.6375 45.7222 74.1307 45.5928 68.4562 49.3001C67.5602 49.8165 66.5587 50.122 65.5274 50.1935C64.4961 50.2651 63.462 50.1008 62.5035 49.7132Z" fill="var(--fill-0, #5F3107)"/>
<path id="Vector_76" d="M60.7693 51.858C59.311 51.7034 57.895 51.2746 56.5955 50.594C53.2138 48.8692 49.3373 48.38 45.6341 49.2106C39.0255 50.798 33.351 57.6703 34.469 66.2096C35.1945 71.6836 37.6094 81.6362 48.1235 82.726C51.4179 83.0321 54.7318 82.4062 57.6886 80.9196C59.7074 79.9167 61.6698 78.8037 63.5668 77.5855C65.3551 76.4395 67.4532 75.8747 69.5742 75.9682C72.8587 76.1125 77.9567 75.8985 81.2412 73.6293C86.4188 70.0663 88.1678 65.5428 86.5827 60.472C85.2809 56.3167 84.5703 50.8527 79.2089 48.076C76.004 46.4188 71.4723 47.1902 65.7929 50.8478C64.2756 51.7305 62.5093 52.0857 60.7693 51.858Z" fill="var(--fill-0, #BF844D)"/>
<path id="Vector_77" d="M70.6993 66.216C71.6419 62.7075 69.5661 59.0979 66.0628 58.1539C62.5595 57.2099 58.9554 59.2888 58.0128 62.7973C57.0701 66.3058 59.1459 69.9153 62.6492 70.8594C66.1525 71.8034 69.7566 69.7245 70.6993 66.216Z" fill="var(--fill-0, #263238)"/>
<path id="Vector_78" d="M57.4998 63.0347L119.889 48.6034C120.284 48.5115 120.694 48.4987 121.094 48.5659C121.494 48.6331 121.877 48.7789 122.221 48.9949C122.564 49.2109 122.862 49.4928 123.096 49.8245C123.33 50.1562 123.497 50.531 123.586 50.9274C123.764 51.7238 123.619 52.5584 123.183 53.2479C122.747 53.9374 122.056 54.4255 121.261 54.6049L59.0551 68.6381C57.6886 66.8466 57.0725 64.9954 57.4998 63.0347Z" fill="var(--fill-0, #BF844D)"/>
<path id="Vector_79" d="M62.6824 70.748C62.5214 70.7463 62.3619 70.7178 62.2103 70.6634C61.7913 70.5457 61.3876 70.3787 61.0078 70.1658C59.7223 69.4725 58.7244 68.3444 58.192 66.9828C57.6596 65.6211 57.6274 64.1144 58.1011 62.7312C58.2389 62.3181 58.424 61.9224 58.6526 61.5518C58.7299 61.411 58.827 61.282 58.9408 61.1686C58.6778 61.6894 58.452 62.2282 58.265 62.781C57.8518 64.1296 57.9063 65.5785 58.4196 66.8922C58.9329 68.2058 59.8749 69.307 61.0923 70.0165C61.604 70.2985 62.1354 70.5429 62.6824 70.748Z" fill="var(--fill-0, #263238)"/>
<path id="Vector_80" d="M124.257 53.7937C124.257 53.8584 109.773 57.1925 91.8746 61.2582C73.9766 65.3238 59.4526 68.5336 59.4377 68.4639C59.4228 68.3942 73.917 65.0651 91.8199 60.9994C109.723 56.9338 124.242 53.739 124.257 53.7937Z" fill="var(--fill-0, #263238)"/>
<path id="Vector_81" d="M96.123 53.8833C96.123 53.953 87.6311 55.9933 77.1269 58.4416C66.6227 60.89 58.0911 62.8257 58.0762 62.7611C58.0613 62.6964 66.5631 60.6561 77.0723 58.2028C87.5815 55.7494 96.1081 53.8186 96.123 53.8833Z" fill="var(--fill-0, #263238)"/>
<path id="Vector_82" d="M70.7071 65.712C70.345 64.8342 70.0591 63.9268 69.8525 62.9999C69.5621 62.089 69.3493 61.1551 69.2164 60.2082C69.5776 61.0863 69.8635 61.9936 70.0711 62.9203C70.3609 63.8314 70.5737 64.7652 70.7071 65.712Z" fill="var(--fill-0, #263238)"/>
<path id="Vector_83" d="M66.2947 66.767C65.9335 65.891 65.6492 64.9852 65.4451 64.0599C65.1571 63.1546 64.9508 62.2253 64.8289 61.2831C65.4798 63.0621 65.9784 64.8934 66.3196 66.757L66.2947 66.767Z" fill="var(--fill-0, #263238)"/>
<path id="Vector_84" d="M61.8923 67.822C61.5307 66.9457 61.2447 66.04 61.0377 65.1148C60.7553 64.2081 60.5492 63.2792 60.4215 62.3381C60.7827 63.2162 61.0686 64.1235 61.2762 65.0502C61.5582 65.9553 61.7643 66.8825 61.8923 67.822Z" fill="var(--fill-0, #263238)"/>
<path id="Vector_85" d="M75.045 64.8262C74.6833 63.95 74.3974 63.0443 74.1903 62.1191C73.9083 61.2139 73.7022 60.2868 73.5742 59.3473C74.2291 61.1251 74.7278 62.9566 75.0648 64.8212L75.045 64.8262Z" fill="var(--fill-0, #263238)"/>
<path id="Vector_86" d="M79.3878 63.9454C79.027 63.0676 78.7428 62.1602 78.5381 61.2333C78.2504 60.3297 78.0442 59.402 77.922 58.4615C78.281 59.34 78.5652 60.2472 78.7716 61.1736C79.057 62.0779 79.2632 63.0053 79.3878 63.9454Z" fill="var(--fill-0, #263238)"/>
<path id="Vector_87" d="M83.7107 62.8705C83.3464 61.9953 83.0604 61.0893 82.8561 60.1634C82.5709 59.2574 82.3647 58.3283 82.2399 57.3866C82.6011 58.2648 82.887 59.1721 83.0946 60.0987C83.3766 61.0039 83.5827 61.931 83.7107 62.8705Z" fill="var(--fill-0, #263238)"/>
<path id="Vector_88" d="M88.0336 61.8255C87.6725 60.9474 87.3865 60.0401 87.179 59.1134C86.8936 58.2092 86.6874 57.2817 86.5628 56.3416C86.9249 57.2194 87.2109 58.1268 87.4175 59.0537C87.7001 59.9587 87.9062 60.8859 88.0336 61.8255Z" fill="var(--fill-0, #263238)"/>
<path id="Vector_89" d="M92.3566 60.7954C91.7088 59.0153 91.2102 57.1844 90.8659 55.3215C91.2302 56.1967 91.5162 57.1027 91.7205 58.0286C92.0119 58.9307 92.2247 59.8565 92.3566 60.7954Z" fill="var(--fill-0, #263238)"/>
<path id="Vector_90" d="M97.0422 59.7106C96.6837 58.8337 96.3994 57.9281 96.1926 57.0035C95.8995 56.1015 95.685 55.1757 95.5516 54.2366C95.9128 55.1126 96.1971 56.0184 96.4012 56.9437C96.6971 57.845 96.9116 58.771 97.0422 59.7106Z" fill="var(--fill-0, #263238)"/>
<path id="Vector_91" d="M101.683 58.6407C101.028 56.8631 100.529 55.0314 100.192 53.1667C100.846 54.9448 101.345 56.7763 101.683 58.6407Z" fill="var(--fill-0, #263238)"/>
<path id="Vector_92" d="M106.344 57.5658C105.982 56.6895 105.696 55.7839 105.489 54.8587C105.207 53.9519 105.001 53.0231 104.873 52.0819C105.233 52.9604 105.519 53.8676 105.728 54.794C106.013 55.6984 106.219 56.6258 106.344 57.5658Z" fill="var(--fill-0, #263238)"/>
<path id="Vector_93" d="M111.005 56.4909C110.644 55.615 110.359 54.7092 110.155 53.7838C109.867 52.8785 109.661 51.9492 109.539 51.007C110.19 52.7861 110.688 54.6173 111.03 56.481L111.005 56.4909Z" fill="var(--fill-0, #263238)"/>
<path id="Vector_94" d="M115.671 55.416C115.307 54.5389 115.021 53.6313 114.816 52.7039C114.531 51.7997 114.324 50.8722 114.2 49.9321C114.561 50.8096 114.846 51.7171 115.049 52.6442C115.335 53.5487 115.543 54.4761 115.671 55.416Z" fill="var(--fill-0, #263238)"/>
<path id="Vector_95" d="M120.331 54.3411C119.678 52.563 119.179 50.7315 118.841 48.8672C119.202 49.7434 119.488 50.6491 119.695 51.5743C119.984 52.4772 120.197 53.4027 120.331 54.3411Z" fill="var(--fill-0, #263238)"/>
<path id="Vector_96" d="M116.023 46.9812C116.039 47.1052 116.018 47.231 115.962 47.3429C115.906 47.4547 115.819 47.5475 115.71 47.6095C115.602 47.6715 115.478 47.6999 115.353 47.6912C115.229 47.6824 115.11 47.6369 115.011 47.5603C114.912 47.4838 114.838 47.3797 114.799 47.2611C114.759 47.1426 114.756 47.015 114.789 46.8944C114.821 46.7738 114.889 46.6657 114.983 46.5837C115.078 46.5017 115.194 46.4495 115.318 46.4338C115.4 46.4233 115.484 46.4292 115.563 46.451C115.643 46.4729 115.718 46.5103 115.784 46.5611C115.849 46.6119 115.904 46.6752 115.945 46.7473C115.986 46.8193 116.013 46.8988 116.023 46.9812Z" fill="var(--fill-0, #263238)"/>
<path id="Vector_97" d="M118.006 46.2745C118.012 46.4337 117.958 46.5894 117.855 46.7108C117.753 46.8323 117.608 46.9107 117.45 46.9307C117.292 46.9507 117.133 46.9108 117.003 46.8188C116.873 46.7268 116.783 46.5894 116.749 46.4338C116.73 46.3474 116.73 46.2581 116.747 46.1716C116.765 46.085 116.8 46.003 116.851 45.9309C116.902 45.8588 116.968 45.7981 117.043 45.7526C117.119 45.7072 117.203 45.678 117.291 45.6669C117.378 45.6558 117.467 45.6631 117.552 45.6882C117.636 45.7134 117.715 45.7559 117.782 45.813C117.849 45.8702 117.904 45.9407 117.942 46.0202C117.981 46.0996 118.003 46.1863 118.006 46.2745Z" fill="var(--fill-0, #263238)"/>
<path id="Vector_98" d="M120.182 45.543C120.197 45.6669 120.175 45.7925 120.118 45.9038C120.062 46.015 119.974 46.1071 119.865 46.1683C119.757 46.2296 119.632 46.2573 119.508 46.2479C119.384 46.2385 119.265 46.1925 119.167 46.1156C119.069 46.0387 118.996 45.9345 118.957 45.816C118.917 45.6975 118.914 45.57 118.947 45.4497C118.98 45.3294 119.048 45.2216 119.143 45.1399C119.237 45.0582 119.353 45.0063 119.477 44.9907C119.643 44.9709 119.811 45.0179 119.943 45.1214C120.075 45.2248 120.161 45.3764 120.182 45.543Z" fill="var(--fill-0, #263238)"/>
<path id="Vector_99" d="M115.979 48.8025C115.914 48.8025 115.73 48.4492 115.571 47.9715C115.412 47.4937 115.333 47.0857 115.397 47.0608C115.462 47.0359 115.641 47.4141 115.805 47.8918C115.969 48.3696 116.043 48.7627 115.979 48.8025Z" fill="var(--fill-0, #263238)"/>
<path id="Vector_100" d="M118.046 48.3397C117.986 48.3397 117.802 47.9864 117.643 47.5087C117.484 47.0309 117.405 46.6229 117.469 46.603C117.534 46.5831 117.713 46.9513 117.872 47.429C118.031 47.9068 118.11 48.3198 118.046 48.3397Z" fill="var(--fill-0, #263238)"/>
<path id="Vector_101" d="M120.192 47.5087C120.128 47.5087 119.949 47.1553 119.785 46.6776C119.621 46.1999 119.546 45.7918 119.611 45.7719C119.676 45.752 119.859 46.1203 120.018 46.598C120.177 47.0757 120.257 47.4888 120.192 47.5087Z" fill="var(--fill-0, #263238)"/>
<path id="Vector_102" d="M121.847 57.2224C121.855 57.0543 121.929 56.8961 122.052 56.7824C122.176 56.6686 122.34 56.6085 122.508 56.6153C122.632 56.6213 122.752 56.664 122.852 56.7381C122.952 56.8121 123.029 56.9143 123.071 57.0315C123.113 57.1488 123.12 57.2761 123.09 57.3972C123.061 57.5183 122.996 57.628 122.904 57.7123C122.812 57.7966 122.698 57.8518 122.575 57.871C122.452 57.8902 122.326 57.8725 122.213 57.8201C122.099 57.7678 122.004 57.683 121.939 57.5767C121.874 57.4703 121.842 57.3471 121.847 57.2224Z" fill="var(--fill-0, #263238)"/>
<path id="Vector_103" d="M119.78 57.5509C119.799 57.3918 119.877 57.2457 119.999 57.1417C120.12 57.0377 120.277 56.9834 120.436 56.9897C120.596 56.9959 120.748 57.0623 120.861 57.1755C120.974 57.2888 121.041 57.4405 121.047 57.6006C121.028 57.7597 120.95 57.9058 120.828 58.0098C120.707 58.1138 120.55 58.1681 120.39 58.1618C120.231 58.1555 120.079 58.0892 119.966 57.9759C119.853 57.8627 119.786 57.7109 119.78 57.5509Z" fill="var(--fill-0, #263238)"/>
<path id="Vector_104" d="M117.514 57.939C117.519 57.8142 117.561 57.6936 117.634 57.5925C117.708 57.4915 117.809 57.4145 117.926 57.3713C118.044 57.3281 118.171 57.3207 118.292 57.3499C118.413 57.3791 118.523 57.4436 118.608 57.5354C118.693 57.6272 118.748 57.742 118.768 57.8654C118.787 57.9888 118.77 58.1153 118.718 58.2288C118.666 58.3423 118.581 58.4377 118.475 58.5031C118.368 58.5684 118.245 58.6007 118.12 58.5959C118.037 58.5927 117.956 58.5731 117.881 58.5384C117.805 58.5036 117.737 58.4543 117.681 58.3933C117.625 58.3323 117.581 58.2608 117.552 58.1828C117.524 58.1049 117.511 58.022 117.514 57.939Z" fill="var(--fill-0, #263238)"/>
<path id="Vector_105" d="M122.195 55.411C122.259 55.411 122.379 55.7992 122.458 56.2968C122.538 56.7945 122.548 57.2125 122.483 57.2224C122.418 57.2324 122.299 56.8343 122.22 56.3366C122.14 55.839 122.125 55.421 122.195 55.411Z" fill="var(--fill-0, #263238)"/>
<path id="Vector_106" d="M120.078 55.5255C120.143 55.5255 120.262 55.9136 120.341 56.4113C120.421 56.9089 120.431 57.3269 120.366 57.3369C120.302 57.3468 120.177 56.9537 120.098 56.4511C120.018 55.9485 120.008 55.5354 120.078 55.5255Z" fill="var(--fill-0, #263238)"/>
<path id="Vector_107" d="M117.822 55.9933C117.892 55.9933 118.011 56.3814 118.09 56.8791C118.17 57.3767 118.18 57.7947 118.09 57.8047C118.001 57.8146 117.907 57.4165 117.827 56.9189C117.748 56.6157 117.746 56.2973 117.822 55.9933Z" fill="var(--fill-0, #263238)"/>
<path id="Vector_108" d="M63.3283 51.7783C63.3283 51.7783 63.2637 51.8828 63.1246 52.0719L62.5035 52.8881L60.2079 55.8738C59.1142 57.3903 57.8725 58.7939 56.5011 60.0639C54.7493 61.543 52.7229 62.6609 50.5384 63.3532C48.2229 64.1345 45.8925 64.3485 43.8304 64.7018C42.8509 64.8594 41.8844 65.0889 40.9385 65.3885C40.1165 65.6515 39.3303 66.0159 38.5982 66.4734C37.5226 67.1203 36.6299 68.0316 36.0044 69.1208C35.8438 69.4222 35.7091 69.7369 35.6019 70.0613C35.5324 70.2802 35.4876 70.3997 35.4876 70.3997C35.4876 70.3997 35.4876 70.2753 35.5721 70.0513C35.6702 69.7225 35.7966 69.4029 35.9497 69.0959C36.5657 67.9841 37.4573 67.0501 38.5385 66.3838C39.2775 65.9183 40.07 65.544 40.8988 65.2691C41.8494 64.965 42.8209 64.7305 43.8056 64.5675C45.8776 64.2042 48.1931 63.9902 50.4937 63.2139C52.676 62.5333 54.7025 61.4273 56.4564 59.9594C57.8245 58.7007 59.066 57.3106 60.1631 55.8091L62.4985 52.8482L63.1395 52.0471C63.2538 51.8679 63.3283 51.7783 63.3283 51.7783Z" fill="var(--fill-0, #E0E0E0)"/>
<path id="Vector_109" d="M58.1656 51.3155C58.0834 51.3614 57.9988 51.4029 57.9122 51.4399C57.6667 51.5504 57.4278 51.675 57.1967 51.8132C56.3557 52.3325 55.5956 52.973 54.9408 53.7141C54.0812 54.6347 53.2315 55.8689 52.2179 57.1975C51.6876 57.8918 51.1045 58.544 50.4738 59.1482C49.7827 59.785 49.0129 60.3302 48.1831 60.7705C46.569 61.6015 44.8184 62.1341 43.0155 62.343C41.55 62.5183 40.0722 62.5683 38.5982 62.4923C37.346 62.4376 36.3324 62.343 35.6168 62.2734L34.8119 62.1937C34.628 62.1937 34.5336 62.1539 34.5336 62.1539H34.8119L35.6218 62.2087C36.3224 62.2584 37.3361 62.3331 38.6031 62.3779C40.0696 62.4395 41.5386 62.3812 42.9956 62.2037C44.7809 61.9863 46.5137 61.4539 48.1136 60.6312C48.9334 60.1975 49.6934 59.6588 50.3744 59.0288C51.0026 58.434 51.5825 57.79 52.1086 57.103C53.1272 55.7942 53.9918 54.5601 54.8613 53.6444C55.5313 52.9032 56.3105 52.2689 57.1719 51.7634C57.4862 51.5789 57.8193 51.4288 58.1656 51.3155Z" fill="var(--fill-0, #E0E0E0)"/>
<path id="Vector_110" d="M45.3658 54.3212C45.0549 54.5801 44.7042 54.7868 44.3273 54.9333C43.2982 55.3675 42.1565 55.4566 41.0727 55.1871C40.7085 55.1196 40.367 54.9623 40.0789 54.7293C39.9936 54.6599 39.9336 54.5641 39.9084 54.457C39.8833 54.3498 39.8943 54.2373 39.9398 54.1371C40.0482 53.9546 40.2024 53.8037 40.387 53.6992C41.0999 53.1828 41.892 52.7861 42.7323 52.5248C43.6584 52.2315 44.6291 52.1051 45.5993 52.1515C46.1147 52.1687 46.6258 52.2523 47.1198 52.4004C47.6271 52.5612 48.0842 52.851 48.4465 53.2414C48.82 53.6486 49.0274 54.1813 49.0279 54.7343C49.0143 55 48.9438 55.2598 48.8212 55.4959C48.6986 55.732 48.5268 55.939 48.3173 56.1027C47.5065 56.6456 46.5876 57.0056 45.6242 57.1577C44.0328 57.5342 42.3992 57.7015 40.7646 57.6553C39.6625 57.6198 38.5699 57.4391 37.5149 57.1179C37.1274 57.0036 36.7502 56.8572 36.387 56.68C36.387 56.68 36.4914 56.7098 36.6802 56.7845C36.869 56.8591 37.1771 56.9537 37.5298 57.0632C38.5849 57.3634 39.6732 57.5306 40.7696 57.5608C42.3942 57.5898 44.0158 57.4092 45.5944 57.0234C46.4739 56.7994 47.4577 56.6103 48.2279 55.9883C48.4211 55.8383 48.5794 55.648 48.6918 55.4306C48.8042 55.2132 48.868 54.9739 48.8788 54.7293C48.8771 54.2181 48.6838 53.7261 48.3372 53.3508C47.9833 52.9771 47.5379 52.7026 47.0453 52.5546C46.5609 52.4094 46.0599 52.3275 45.5546 52.3108C43.7235 52.2195 41.9147 52.7451 40.4168 53.8037C40.2507 53.8969 40.1106 54.0304 40.0093 54.1918C39.9754 54.2705 39.9677 54.358 39.9874 54.4414C40.0071 54.5248 40.0531 54.5995 40.1186 54.6546C40.3961 54.8765 40.7237 55.0269 41.0727 55.0926C42.1357 55.3654 43.2577 55.294 44.2776 54.8885C44.5544 54.7772 44.8219 54.6441 45.0776 54.4904C45.2565 54.371 45.3658 54.3212 45.3658 54.3212Z" fill="var(--fill-0, #E0E0E0)"/>
<path id="Vector_111" d="M87.0746 65.2293H86.538C86.0224 65.2492 85.509 65.3091 85.0026 65.4085C84.2036 65.5651 83.4216 65.7984 82.6672 66.1051C81.668 66.514 80.7027 67.0016 79.7803 67.5632C78.7468 68.1753 77.6636 68.9317 76.4909 69.7229C75.2548 70.5864 73.9634 71.3677 72.6251 72.0618C71.1295 72.8186 69.5106 73.3006 67.845 73.485C66.0614 73.6688 64.2618 73.627 62.4886 73.3606C58.8414 72.863 55.4874 71.808 52.3471 71.3253C50.8705 71.0699 49.3733 70.9533 47.8751 70.9769C46.5677 71.0031 45.2695 71.2022 44.0143 71.5691C42.1815 72.0742 40.5074 73.0384 39.1497 74.3708C38.7877 74.7439 38.4554 75.1449 38.1559 75.5701C37.9671 75.8686 37.8578 76.0179 37.8578 76.0179C37.8578 76.0179 37.9472 75.8587 38.1311 75.5551C38.4132 75.119 38.7342 74.7092 39.0901 74.331C40.4413 72.9721 42.1205 71.9864 43.9646 71.4696C45.2271 71.094 46.5336 70.8866 47.8502 70.8525C49.3597 70.8245 50.8686 70.9378 52.357 71.1909C55.5123 71.6886 58.8712 72.6838 62.4985 73.2163C64.2603 73.4794 66.0478 73.5229 67.8202 73.3457C69.4695 73.1609 71.0729 72.684 72.5556 71.9374C73.891 71.2513 75.1792 70.4766 76.4114 69.6184C77.589 68.8321 78.6772 68.0857 79.7157 67.4786C80.6453 66.919 81.6172 66.4331 82.6225 66.0255C83.3865 65.7267 84.1766 65.5001 84.9827 65.3487C85.4915 65.2586 86.0065 65.2087 86.5231 65.1994L87.0746 65.2293Z" fill="var(--fill-0, #E0E0E0)"/>
<path id="Vector_112" d="M44.695 79.8398H44.9385L45.6391 79.8796L48.208 80.0736L49.9819 80.208C50.6564 80.2858 51.3354 80.3174 52.0142 80.3026C52.3731 80.2863 52.7248 80.1965 53.0477 80.0388C53.2122 79.9586 53.358 79.8444 53.4753 79.7037C53.5926 79.5631 53.6789 79.3991 53.7284 79.2227C53.7944 78.8365 53.7367 78.4394 53.5635 78.0881C53.3903 77.7368 53.1107 77.4494 52.7645 77.267C52.0502 76.908 51.2713 76.6965 50.4738 76.645C47.5966 76.3259 44.6891 76.8588 42.1112 78.1777C41.8379 78.312 41.6143 78.4315 41.495 78.5061L41.2764 78.6206C41.3367 78.5662 41.4035 78.5194 41.4751 78.4812C41.6143 78.3966 41.813 78.2672 42.0814 78.1279C42.8399 77.7218 43.6352 77.3885 44.4565 77.1326C45.6758 76.7374 46.9426 76.5081 48.2229 76.4509C48.9789 76.4146 49.7367 76.4395 50.4887 76.5255C51.3091 76.5742 52.1107 76.791 52.844 77.1625C53.2176 77.3609 53.5182 77.6734 53.7023 78.0546C53.8864 78.4359 53.9443 78.866 53.8676 79.2824C53.811 79.4768 53.7147 79.6573 53.5846 79.8124C53.4546 79.9675 53.2937 80.0938 53.1123 80.1831C52.7728 80.35 52.402 80.4433 52.0241 80.4568C51.3385 80.4667 50.653 80.4318 49.972 80.3523L48.1981 80.1931L45.6341 79.9592L44.9335 79.8845C44.8526 79.8783 44.7726 79.8633 44.695 79.8398Z" fill="var(--fill-0, #E0E0E0)"/>
<path id="Vector_113" d="M85.2312 69.275C85.2312 69.275 85.2014 69.3248 85.1318 69.4044L84.8237 69.7478C84.6896 69.8971 84.5206 70.0762 84.3268 70.2753C84.1331 70.4743 83.8896 70.7032 83.6113 70.9371C82.983 71.4926 82.3191 72.0063 81.6238 72.4748C80.7592 73.0389 79.8541 73.5379 78.9157 73.9677C77.9714 74.3868 76.9983 74.7377 76.004 75.0177C75.1877 75.2384 74.3577 75.4046 73.5195 75.5153C73.1667 75.5751 72.8388 75.59 72.5555 75.6149C72.3113 75.6408 72.0658 75.6541 71.8202 75.6547H71.199C71.2507 75.6392 71.3042 75.6308 71.358 75.6298L71.8202 75.595C72.0189 75.595 72.2624 75.5701 72.5456 75.5352C72.8288 75.5004 73.1518 75.4755 73.5046 75.4108C74.3428 75.2888 75.1726 75.1143 75.9891 74.8883C76.9748 74.6048 77.9395 74.2523 78.876 73.8333C79.8086 73.3985 80.7101 72.8996 81.5741 72.3404C82.2745 71.8842 82.9466 71.3857 83.5865 70.8476C83.8647 70.6236 84.0834 70.3947 84.307 70.2056C84.5306 70.0165 84.6945 69.8423 84.8337 69.708L85.1666 69.3845C85.1854 69.3465 85.207 69.3099 85.2312 69.275Z" fill="var(--fill-0, #E0E0E0)"/>
<path id="Vector_114" d="M84.1728 53.7689C84.1728 53.7689 84.1132 53.8435 83.989 53.9729C83.8043 54.1619 83.6085 54.3398 83.4026 54.5054C82.6371 55.1078 81.7729 55.5725 80.8486 55.8788C79.4757 56.3207 78.0423 56.5457 76.6002 56.5457C74.842 56.5189 73.0867 56.391 71.3431 56.1625C69.6064 55.937 67.8505 55.9002 66.1059 56.053C64.6829 56.2039 63.3025 56.6297 62.0414 57.307C61.1951 57.7674 60.4473 58.3896 59.8402 59.1383C59.4228 59.6807 59.2638 60.0291 59.2439 60.0141C59.2809 59.9307 59.3223 59.8493 59.3681 59.7703C59.4949 59.5383 59.6377 59.3155 59.7954 59.1035C60.3922 58.3321 61.1394 57.6904 61.9917 57.2174C63.2578 56.5187 64.6492 56.0773 66.0861 55.9186C67.8417 55.7572 69.6097 55.7906 71.358 56.0182C73.0957 56.2414 74.8438 56.3726 76.5953 56.4113C78.0253 56.4164 79.4479 56.2033 80.8138 55.7793C81.7329 55.4861 82.5963 55.0403 83.3679 54.4606C83.9095 54.0426 84.1579 53.739 84.1728 53.7689Z" fill="var(--fill-0, #E0E0E0)"/>
<path id="Vector_115" d="M75.0102 50.2008C75.0301 50.2697 75.0567 50.3363 75.0897 50.3999C75.1457 50.4844 75.2189 50.556 75.3045 50.61C75.3902 50.6641 75.4863 50.6993 75.5866 50.7134C75.7412 50.7469 75.9023 50.7319 76.0481 50.6705C76.1939 50.609 76.3173 50.5041 76.4015 50.37C76.5001 50.1841 76.5483 49.9755 76.5414 49.7651C76.5344 49.5546 76.4725 49.3497 76.3617 49.1707C76.0704 48.7392 75.641 48.4198 75.1443 48.265C74.595 48.0334 74.0004 47.9297 73.4052 47.9615C73.0894 47.9861 72.7867 48.0981 72.5307 48.285C72.2638 48.4811 72.0572 48.7484 71.9344 49.0563C71.8033 49.379 71.7524 49.7287 71.7861 50.0755C71.8199 50.4222 71.9373 50.7556 72.1282 51.0468C72.5179 51.6381 73.0958 52.08 73.768 52.3008C74.3976 52.5047 75.0608 52.5842 75.7207 52.5347C76.8459 52.458 77.945 52.1604 78.9555 51.6589C79.6345 51.3177 80.2673 50.8913 80.8387 50.3899C81.0374 50.2058 81.1915 50.0665 81.2908 49.962C81.3403 49.9085 81.3934 49.8587 81.4499 49.8127C81.4104 49.8744 81.3637 49.9313 81.3107 49.9819C81.2213 50.0914 81.0722 50.2406 80.8784 50.4297C80.3147 50.9522 79.6829 51.3958 79.0002 51.7485C77.9843 52.275 76.8717 52.5883 75.7307 52.6691C75.0596 52.7222 74.3846 52.6444 73.7431 52.4402C73.0386 52.2088 72.4327 51.7459 72.0239 51.1264C71.8193 50.8148 71.6941 50.4576 71.6595 50.0863C71.6248 49.715 71.6817 49.3408 71.8251 48.9966C71.9582 48.6657 72.1801 48.3781 72.4661 48.1655C72.744 47.9676 73.0703 47.8489 73.4102 47.8221C74.0271 47.7902 74.643 47.9026 75.2089 48.1506C75.7267 48.3173 76.172 48.6561 76.471 49.111C76.5844 49.3086 76.644 49.5325 76.644 49.7604C76.644 49.9883 76.5844 50.2122 76.471 50.4098C76.377 50.5544 76.2404 50.6661 76.0801 50.7295C75.9199 50.7928 75.7439 50.8045 75.5766 50.7632C75.4734 50.7432 75.3756 50.7014 75.2899 50.6405C75.2042 50.5795 75.1325 50.5009 75.0797 50.4098C75.0387 50.3474 75.0148 50.2754 75.0102 50.2008Z" fill="var(--fill-0, #E0E0E0)"/>
<path id="Vector_116" d="M58.3545 67.9016C58.2751 67.9092 58.1953 67.9092 58.116 67.9016L57.4352 67.8518C57.142 67.8269 56.7793 67.7971 56.3619 67.7822C55.9446 67.7672 55.4626 67.7324 54.9309 67.7424C53.8775 67.7424 52.6154 67.7672 51.2241 67.8817C49.722 68.0257 48.229 68.2533 46.7521 68.5634C45.2705 68.8883 43.8088 69.2987 42.3745 69.7926C41.0578 70.2604 39.8901 70.7381 38.936 71.1909C38.4392 71.3999 38.0267 71.6288 37.6541 71.813C37.2814 71.9971 36.9584 72.1713 36.7 72.3106L36.0988 72.6341C36.0308 72.6751 35.9593 72.7101 35.8851 72.7386C35.9464 72.6881 36.013 72.6448 36.0839 72.6092L36.6702 72.2608C36.9236 72.1066 37.2367 71.9224 37.6143 71.7333C37.992 71.5442 38.4044 71.3054 38.8913 71.0864C40.0112 70.5477 41.159 70.0693 42.3298 69.6533C43.7681 69.1519 45.2348 68.7365 46.7223 68.4092C48.2112 68.0937 49.7179 67.8693 51.234 67.7374C52.4717 67.6334 53.7141 67.5968 54.9557 67.6279C55.4874 67.6279 55.9495 67.6677 56.3868 67.6926C56.824 67.7175 57.1669 67.7473 57.4601 67.7822L58.1408 67.8618L58.3545 67.9016Z" fill="var(--fill-0, #E0E0E0)"/>
<path id="Vector_117" d="M79.4375 64.8163C79.339 64.8833 79.2321 64.9368 79.1194 64.9755C78.9108 65.07 78.5977 65.1994 78.2151 65.3438C76.2021 66.0983 74.1074 66.6127 71.9742 66.8765C71.5667 66.9262 71.2338 66.9561 70.9804 66.971C70.8616 66.9851 70.7415 66.9851 70.6227 66.971C70.7381 66.9388 70.8561 66.9172 70.9754 66.9063L71.9344 66.767C72.7493 66.6426 73.8624 66.4435 75.0797 66.1449C76.2971 65.8464 77.3803 65.508 78.1555 65.2392L79.0747 64.9208C79.1924 64.8756 79.3138 64.8407 79.4375 64.8163Z" fill="var(--fill-0, #E0E0E0)"/>
<path id="Vector_118" d="M127.352 48.0461C127.439 48.1458 127.506 48.2605 127.551 48.3845C127.693 48.7041 127.801 49.0377 127.874 49.3797C128.126 50.5504 127.998 51.7712 127.506 52.8632C127.008 53.9429 126.182 54.8379 125.146 55.421C124.832 55.5971 124.498 55.7373 124.152 55.839C124.031 55.8875 123.901 55.9128 123.77 55.9136C123.77 55.8689 124.297 55.7345 125.037 55.2717C126.014 54.68 126.789 53.8066 127.262 52.7659C127.735 51.7251 127.882 50.5657 127.685 49.4395C127.561 48.5636 127.308 48.066 127.352 48.0461Z" fill="var(--fill-0, #FF725E)"/>
<path id="Vector_119" d="M90.846 61.4075C90.846 61.4075 90.846 61.4722 90.8758 61.5916C90.9056 61.711 90.9106 61.8852 90.9156 62.1141C90.9373 62.7614 90.9007 63.4093 90.8063 64.0499C90.5072 66.1816 89.6454 68.1947 88.3098 69.8814C86.9742 71.568 85.2133 72.867 83.2088 73.6442C82.6065 73.8805 81.9847 74.0637 81.3505 74.1916C81.1269 74.2414 80.948 74.2563 80.8287 74.2762C80.7095 74.2961 80.6499 74.2762 80.6449 74.2762C81.4888 74.0609 82.3185 73.7933 83.1293 73.4751C85.0808 72.6706 86.7942 71.3795 88.1067 69.7245C89.4191 68.0696 90.2869 66.1058 90.6274 64.0201C90.7511 63.1542 90.8241 62.2819 90.846 61.4075Z" fill="var(--fill-0, #FF725E)"/>
<path id="Vector_120" d="M59.4377 58.7999C59.4377 58.7999 62.0811 60.1783 62.8116 60.253C63.542 60.3276 66.101 60.253 66.101 60.253C66.101 60.253 66.4339 60.9596 64.8438 61.3776C64.4413 61.4871 63.6265 61.6911 62.9904 61.8753C62.8998 61.8981 62.8165 61.9439 62.7485 62.0082C62.6806 62.0726 62.6302 62.1533 62.6023 62.2426C62.5744 62.332 62.5698 62.427 62.5891 62.5187C62.6083 62.6103 62.6507 62.6955 62.7122 62.766C63.5668 63.7613 65.0724 65.4333 65.2811 65.4831C65.5743 65.5577 66.9059 64.1942 67.1494 63.9205C67.5121 63.5125 68.6798 63.7862 67.8401 65.075C67.0947 66.2096 65.4798 67.7274 64.9631 67.2646L63.0252 65.5677C63.0252 65.5677 65.5444 68.6182 65.7382 69.5487C65.932 70.4793 64.8786 70.6286 64.2476 69.9568C63.9395 69.6234 61.2364 66.4734 61.2364 66.4734C61.2364 66.4734 64.8736 71.4497 63.5569 71.5542C62.7867 71.6039 60.4762 67.9563 60.4762 67.9563L61.6637 70.753C61.7193 70.8759 61.7289 71.0147 61.6908 71.1441C61.6527 71.2735 61.5694 71.3848 61.4561 71.4578C61.3429 71.5308 61.2072 71.5606 61.0738 71.5418C60.9404 71.5229 60.8183 71.4567 60.7296 71.3551C60.2008 70.6909 59.7208 69.989 59.2936 69.2551C58.8762 68.5833 54.9557 63.3881 54.9557 63.3881L59.4377 58.7999Z" fill="var(--fill-0, #FFBE9D)"/>
<path id="Vector_121" d="M38.5038 55.2319L54.1756 64.1893L60.2725 57.934L44.8093 45.6425L57.7284 38.2975L57.6886 25.374L38.7522 35.5655C37.2565 36.3707 35.963 37.5059 34.9696 38.8853C33.9763 40.2646 33.3089 41.8521 33.0181 43.5276C32.614 45.807 32.9244 48.1558 33.9066 50.2515C34.8888 52.3471 36.4947 54.0869 38.5038 55.2319Z" fill="var(--fill-0, #FF725E)"/>
<path id="Vector_122" d="M41.3907 43.0449C42.1045 43.3073 42.7746 43.6764 43.3782 44.1397C44.0266 44.545 44.6083 45.0486 45.1024 45.6326C44.4561 45.2461 43.8339 44.8207 43.2391 44.3586C42.5974 43.958 41.9802 43.5193 41.3907 43.0449Z" fill="var(--fill-0, #263238)"/>
<path id="Vector_123" d="M43.7559 40.8802C44.3405 41.5133 44.7722 42.2723 45.0178 43.0989C45.2633 43.9254 45.316 44.7973 45.172 45.6475C45.1106 44.8086 44.9793 43.9763 44.7795 43.1594C44.5004 42.3732 44.158 41.611 43.7559 40.8802Z" fill="var(--fill-0, #263238)"/>
<path id="Vector_124" d="M109.693 67.2596C109.521 66.8808 109.392 66.4834 109.31 66.0753C109.112 65.3338 108.878 64.2987 108.679 63.1492C108.481 61.9997 108.361 60.9397 108.302 60.1634C108.241 59.7533 108.229 59.3373 108.267 58.9243C108.37 59.324 108.439 59.7319 108.471 60.1435C108.575 60.9049 108.724 61.9449 108.923 63.0945C109.122 64.244 109.325 65.2791 109.479 66.0255C109.584 66.4303 109.656 66.8431 109.693 67.2596Z" fill="var(--fill-0, #263238)"/>
<path id="Vector_125" d="M109.4 52.7437C109.4 54.0276 109.817 57.511 109.817 57.511L108.327 59.5016L109.355 66.1549L116.063 58.9542C116.524 58.466 116.829 57.8507 116.938 57.1876C117.295 54.988 118.08 49.9719 117.842 49.6833C117.464 49.2354 116.799 49.8226 116.55 50.9274C116.421 51.5096 115.363 54.789 115.363 54.789C115.363 54.789 114.731 50.2207 114.309 49.6982C113.648 48.8821 113.315 50.2705 113.36 51.2558C113.435 52.48 113.445 53.938 113.445 54.779C113.444 54.8026 113.436 54.8253 113.42 54.8431C113.405 54.8609 113.384 54.8726 113.36 54.8762C113.337 54.8798 113.313 54.875 113.293 54.8627C113.273 54.8503 113.258 54.8313 113.251 54.8089C112.818 53.316 111.725 49.8674 111.074 50.171C110.423 50.4745 110.722 51.9475 110.881 52.6591C111.541 55.5305 111.124 55.5553 111.124 55.5553L110.105 52.2461C110.08 52.1677 110.026 52.1019 109.954 52.0622C109.882 52.0224 109.798 52.0117 109.718 52.0321C109.375 52.1167 109.395 52.4601 109.4 52.7437Z" fill="var(--fill-0, #FFBE9D)"/>
<path id="Vector_126" d="M113.221 54.5252C113.251 54.5252 113.36 54.7293 113.484 55.1025C113.651 55.5952 113.715 56.1168 113.673 56.6352C113.625 57.1649 113.397 57.6622 113.027 58.0435C112.734 58.3272 112.481 58.3918 112.471 58.367C112.461 58.3421 112.664 58.2177 112.898 57.9291C113.199 57.5484 113.384 57.0887 113.43 56.6054C113.466 56.1163 113.428 55.6246 113.315 55.1473C113.251 54.9463 113.219 54.7363 113.221 54.5252Z" fill="var(--fill-0, #EB996E)"/>
<path id="Vector_127" d="M115.218 54.0326C115.248 54.0326 115.363 54.2416 115.487 54.6099C115.651 55.103 115.714 55.6244 115.671 56.1426C115.624 56.6739 115.396 57.173 115.025 57.5558C114.731 57.8395 114.478 57.8992 114.468 57.8743C114.458 57.8494 114.667 57.725 114.9 57.4364C115.2 57.0574 115.383 56.5992 115.427 56.1177C115.465 55.6273 115.429 55.1339 115.318 54.6546C115.253 54.4535 115.22 54.2438 115.218 54.0326Z" fill="var(--fill-0, #EB996E)"/>
<path id="Vector_128" d="M116.977 58.0435C117.027 58.0883 115.526 59.7653 113.623 61.7807C112.508 63.0301 111.329 64.221 110.091 65.3487C110.046 65.3039 111.546 63.6319 113.449 61.6115C115.353 59.5911 116.918 57.9987 116.977 58.0435Z" fill="var(--fill-0, #FF725E)"/>
<path id="Vector_129" d="M117.748 51.42C117.793 51.7503 117.793 52.0851 117.748 52.4153C117.713 53.0373 117.643 53.9082 117.529 54.8288C117.415 55.7494 117.276 56.6153 117.156 57.2274C117.118 57.5687 117.034 57.9034 116.908 58.2227C116.843 58.2227 117.057 56.6949 117.285 54.8189C117.514 52.9428 117.678 51.4151 117.748 51.42Z" fill="var(--fill-0, #FF725E)"/>
<path id="Vector_130" d="M49.8924 82.6016C49.7634 82.6103 49.6339 82.6103 49.5049 82.6016C49.138 82.6008 48.7715 82.5809 48.4067 82.5419C47.0598 82.4046 45.7405 82.0692 44.4913 81.5466C42.6324 80.7731 40.9338 79.6593 39.4826 78.2623C36.7493 75.6583 34.971 72.2085 34.4342 68.4689C34.2645 67.2927 34.2063 66.103 34.2603 64.9158C34.3558 62.9047 34.7494 60.919 35.428 59.0238C35.8738 57.7454 36.4693 56.5243 37.2019 55.3862C37.3929 55.0739 37.6019 54.7732 37.828 54.4854C37.8963 54.3774 37.9763 54.2773 38.0665 54.1869C38.0118 54.3014 37.9452 54.4098 37.8677 54.5103C37.7336 54.7243 37.5149 55.008 37.2814 55.4359C36.5882 56.5877 36.0202 57.8106 35.587 59.0836C34.9432 60.9684 34.5717 62.9357 34.4839 64.9258C34.4399 66.0901 34.5014 67.256 34.6678 68.4092C34.8656 69.6544 35.1988 70.8742 35.6615 72.0469C36.5534 74.3161 37.9227 76.3663 39.6764 78.0582C41.1001 79.4485 42.7678 80.5636 44.5956 81.3476C45.8263 81.8832 47.1259 82.2433 48.4564 82.4175C49.3409 82.5568 49.8924 82.5618 49.8924 82.6016Z" fill="var(--fill-0, #263238)"/>
</g>
</svg>
