<svg preserveAspectRatio="none" width="100%" height="100%" overflow="visible" style="display: block;" viewBox="0 0 125 140" fill="none" xmlns="http://www.w3.org/2000/svg">
<g id="freepik--character-2--inject-69">
<path id="Vector" d="M59.6275 66.222C59.6275 66.222 60.515 86.7152 60.4251 90.4304C60.3351 94.1456 56.3112 120.194 56.3112 120.194L49.4507 120.325C49.4507 120.325 48.9589 104.503 48.6291 99.9692C48.2993 95.4357 48.7191 91.3084 48.6291 89.8152C48.5392 88.3219 45.2169 73.282 44.5692 70.636C43.9215 67.99 43.7476 67.106 43.04 65.6964C42.3323 64.2867 40.8571 60.1953 40.7311 58.6961C40.2634 52.9501 42.6981 49.3782 42.6981 49.3782L56.1433 59.1619L59.6275 66.222Z" fill="var(--fill-0, #263238)"/>
<path id="Vector_2" d="M56.4671 120.976L57.4866 112.471L48.803 112.895L49.2108 121.072L51.8435 123.783L55.7235 123.073L56.4671 120.976Z" fill="var(--fill-0, #263238)"/>
<path id="Vector_3" d="M64.1191 130.312C62.3548 130.588 60.5582 130.588 58.7939 130.312C56.3533 129.725 53.9503 128.993 51.5976 128.12C50.3082 127.672 46.4162 127.69 46.2963 126.328C46.1763 124.966 49.2048 120.307 49.2048 120.307C49.2048 120.307 49.6605 121.836 51.0038 121.932C52.3508 121.94 53.6963 121.842 55.0278 121.639C55.0278 121.639 56.3531 120.026 57.1267 120.044C57.9003 120.062 57.3966 122.207 57.3966 122.207C57.3966 122.207 58.9738 125.032 60.1911 125.743C61.4085 126.453 61.4205 126.854 62.9138 127.063C63.6979 127.126 64.4462 127.417 65.0667 127.899C65.0667 127.899 65.6184 129.201 65.2106 129.601C64.8872 129.895 64.5187 130.135 64.1191 130.312Z" fill="var(--fill-0, #455A64)"/>
<path id="Vector_4" d="M65.2405 129.595C64.9263 129.922 64.5433 130.174 64.1191 130.336C62.355 130.613 60.558 130.613 58.7939 130.336C56.3533 129.749 53.9503 129.017 51.5976 128.144C50.3142 127.696 46.4162 127.72 46.3023 126.352C46.2669 125.97 46.3309 125.585 46.4882 125.235C46.4882 125.235 50.2602 126.722 52.1433 126.907C54.0263 127.092 57.8823 128.86 60.0052 129.087C61.5275 129.221 63.0586 129.221 64.5809 129.087L65.3185 128.795C65.3785 129.105 65.4624 129.332 65.2405 129.595Z" fill="var(--fill-0, #E0E0E0)"/>
<path id="Vector_5" d="M59.7414 125.336C59.6459 125.565 59.5336 125.787 59.4056 126C59.1657 126.341 58.8598 126.502 58.8838 126.532C59.1362 126.45 59.3556 126.29 59.51 126.075C59.6643 125.86 59.7454 125.601 59.7414 125.336Z" fill="var(--fill-0, white)"/>
<path id="Vector_6" d="M58.6679 124.118C58.5393 124.387 58.3846 124.643 58.2062 124.883C57.9971 125.105 57.7661 125.305 57.5165 125.481C57.8215 125.401 58.095 125.231 58.3006 124.993C58.5063 124.755 58.6344 124.46 58.6679 124.148V124.118Z" fill="var(--fill-0, white)"/>
<path id="Vector_7" d="M57.9423 122.983C57.9123 122.983 57.7084 123.228 57.3966 123.491C57.0847 123.754 56.7969 123.921 56.7969 123.951C57.0486 123.894 57.2793 123.768 57.4625 123.587C57.6786 123.437 57.8455 123.227 57.9423 122.983Z" fill="var(--fill-0, white)"/>
<path id="Vector_8" d="M50.2363 124.948C50.3914 125.026 50.5571 125.08 50.7281 125.109C51.0339 125.187 51.4657 125.277 51.9275 125.355C52.3892 125.432 52.845 125.474 53.1628 125.498C53.332 125.521 53.5034 125.521 53.6726 125.498C53.6726 125.462 52.899 125.384 51.9455 125.229C50.9919 125.074 50.2483 124.918 50.2363 124.948Z" fill="var(--fill-0, white)"/>
<path id="Vector_9" d="M97.9298 67.6854C97.9298 67.6854 102.679 65.7621 103.009 64.5317C103.339 63.3012 103.963 62.3038 104.856 63.1997C105.75 64.0957 106.182 65.4635 104.784 67.1299L100.077 70.1164L97.9298 68.3663V67.6854Z" fill="var(--fill-0, #263238)"/>
<path id="Vector_10" d="M106.577 75.1695C105.93 74.7762 105.392 74.228 105.012 73.5747C104.699 72.7438 104.647 71.8377 104.862 70.9765C105.036 69.8118 105.102 67.9004 103.705 67.3927C103.514 67.3357 103.353 67.2076 103.255 67.0352C103.156 66.8628 103.129 66.6592 103.177 66.4669C103.232 66.2753 103.36 66.1128 103.534 66.0144C103.708 65.9161 103.913 65.8898 104.107 65.9413C105.714 66.5386 106.451 68.1155 106.469 69.7341C106.469 70.5883 106.23 71.4245 106.236 72.2726C106.236 73.0133 106.781 73.4672 107.339 73.8555C107.509 73.9597 107.633 74.125 107.684 74.3173C107.735 74.5096 107.711 74.7141 107.615 74.8888C107.512 75.0607 107.346 75.1854 107.152 75.2358C106.957 75.2861 106.751 75.258 106.577 75.1576V75.1695Z" fill="var(--fill-0, #263238)"/>
<path id="Vector_11" d="M94.2297 78.2755C95.9205 78.1141 97.4788 77.294 98.5655 75.9938C99.0586 75.3971 99.3848 74.6814 99.5111 73.9189C99.6375 73.1565 99.5595 72.3743 99.2851 71.6515C98.6495 70.1343 97.2222 69.5012 95.657 69.3937C93.648 69.2563 91.5911 69.3937 89.5821 69.4594C87.1833 69.5271 84.7846 69.6226 82.3858 69.7461C81.0845 69.8118 81.0905 67.8049 82.3858 67.7392C84.8365 67.6078 87.2933 67.5102 89.756 67.4465C90.9554 67.4107 92.1548 67.3868 93.3542 67.3688C94.4595 67.3189 95.5671 67.3649 96.6645 67.5062C97.6812 67.6398 98.6423 68.0467 99.4442 68.6834C100.246 69.3201 100.859 70.1624 101.216 71.1199C101.555 72.0771 101.657 73.1021 101.512 74.1069C101.367 75.1117 100.979 76.0666 100.383 76.8897C99.6555 77.8585 98.7298 78.6621 97.6668 79.2471C96.6039 79.832 95.4282 80.1849 94.2177 80.2824C93.95 80.2824 93.6931 80.1769 93.5032 79.9888C93.3133 79.8008 93.2058 79.5456 93.2042 79.2789C93.2119 79.0142 93.3213 78.7624 93.5099 78.5757C93.6985 78.3889 93.9519 78.2815 94.2177 78.2755H94.2297Z" fill="var(--fill-0, #E0E0E0)"/>
<path id="Vector_12" d="M96.6525 138.286L97.9479 127.319L97.2942 138.346L96.6525 138.286ZM104.245 126.208L109.348 136.052L108.826 136.303L104.245 126.208ZM91.0934 126.208L98.0018 116.58L98.1638 116.699L91.1294 126.161L85.5282 134.039L91.0934 126.208ZM91.6931 125.354L91.0934 126.214L85.3663 133.914L91.6931 125.354ZM109.474 122.368L100.718 116.138L100.958 115.821L109.9 122.672L118.217 128.586L109.912 122.678L118.002 128.878L109.474 122.368ZM97.9299 127.319L99.1293 117.016L97.8939 127.654L97.9299 127.319ZM104.227 126.208L99.9568 116.783L104.401 126.537L104.227 126.208ZM77.8402 125.086L97.0843 115.529L77.8522 125.086H77.8402ZM111.333 116.18L101.408 114.711L111.369 116.168L101.45 114.424L112.047 116.269L122.709 117.84L122.661 118.163L111.333 116.18ZM75.2135 113.886H96.7185H75.2495H75.2135ZM101.198 112.453L111.993 109.604L121.84 106.534L111.999 109.598L121.966 106.97L111.585 109.729L101.372 112.919L101.198 112.453ZM86.1219 108.911L76.5988 105.65L86.1279 108.905L76.7127 105.393L86.7696 109.126L96.9644 112.614L96.8564 112.913L86.1219 108.911ZM100.227 111.121L108.514 103.816L116.31 96.929L108.317 104.037L100.712 111.611L100.227 111.121ZM89.7681 103.015L82.8836 95.8479L89.7441 102.968L83.0815 95.7165L90.3258 103.571L97.798 111.336L97.606 111.515L89.7681 103.015ZM95.4891 97.9504L93.5641 90.0362L95.4112 97.6278L93.6121 90.0243L95.9749 99.9693L98.6255 110.852H98.5356L95.4891 97.9504ZM99.4411 110.828L103.255 98.6672L105.786 90.3588L103.327 98.4521L105.918 90.3647L102.817 100.298L99.609 110.84L99.4411 110.828Z" fill="var(--fill-0, #E0E0E0)"/>
<path id="Vector_13" d="M74.8297 114.227C74.8297 109.441 76.2545 104.763 78.9239 100.784C81.5933 96.8048 85.3874 93.7035 89.8265 91.8721C94.2655 90.0407 99.1502 89.5616 103.863 90.4952C108.575 91.4288 112.904 93.7333 116.301 97.1173C119.699 100.501 122.013 104.813 122.95 109.506C123.887 114.2 123.406 119.065 121.568 123.486C119.729 127.908 116.615 131.687 112.62 134.345C108.625 137.004 103.928 138.423 99.1232 138.423C92.6821 138.417 86.5067 135.866 81.9521 131.329C77.3976 126.793 74.836 120.642 74.8297 114.227ZM76.029 114.227C76.0279 118.781 77.3827 123.233 79.9222 127.021C82.4618 130.808 86.0719 133.76 90.2961 135.504C94.5203 137.248 99.1688 137.705 103.654 136.817C108.139 135.929 112.258 133.736 115.492 130.516C118.726 127.296 120.928 123.194 121.821 118.727C122.713 114.26 122.256 109.63 120.506 105.423C118.757 101.215 115.794 97.6183 111.992 95.0879C108.19 92.5575 103.72 91.2069 99.1472 91.2069C93.0147 91.2069 87.133 93.6313 82.7938 97.9475C78.4547 102.264 76.013 108.119 76.0051 114.227H76.029Z" fill="var(--fill-0, #E0E0E0)"/>
<path id="Vector_14" d="M73.2465 114.227C73.2465 109.129 74.7641 104.146 77.6075 99.9078C80.4509 95.6694 84.4922 92.366 89.2206 90.4152C93.949 88.4645 99.1519 87.9541 104.171 88.9486C109.191 89.9431 113.802 92.3977 117.421 96.0022C121.04 99.6067 123.504 104.199 124.503 109.199C125.501 114.198 124.989 119.38 123.03 124.09C121.072 128.799 117.755 132.824 113.5 135.656C109.244 138.488 104.241 140 99.1232 140C92.2627 139.992 85.6855 137.274 80.8343 132.442C75.9832 127.611 73.2544 121.06 73.2465 114.227ZM74.8056 114.227C74.8045 119.017 76.2296 123.701 78.901 127.684C81.5723 131.668 85.3698 134.774 89.8131 136.608C94.2565 138.442 99.1461 138.922 103.864 137.988C108.581 137.054 112.915 134.748 116.316 131.361C119.718 127.974 122.034 123.658 122.973 118.96C123.912 114.262 123.431 109.391 121.59 104.965C119.75 100.539 116.633 96.7562 112.634 94.0946C108.635 91.433 103.933 90.0123 99.1232 90.0123C92.6772 90.0202 86.4975 92.5737 81.939 97.1129C77.3804 101.652 74.8152 107.807 74.8056 114.227Z" fill="var(--fill-0, #263238)"/>
<path id="Vector_15" d="M75.9691 114.304C75.9691 114.304 75.9691 114.179 75.9691 113.934C75.9691 113.689 75.9691 113.337 76.0171 112.835C76.1138 111.424 76.3366 110.025 76.6827 108.654C77.9814 103.608 80.955 99.1474 85.1204 95.9972C87.9814 93.8335 91.3101 92.365 94.8414 91.7086C98.1712 91.0873 101.597 91.2044 104.877 92.0516C108.156 92.8987 111.207 94.4551 113.814 96.61C116.421 98.765 118.519 101.466 119.959 104.52C121.399 107.574 122.145 110.906 122.145 114.28C122.146 117.656 121.4 120.99 119.96 124.045C118.52 127.1 116.422 129.802 113.814 131.958C111.207 134.113 108.154 135.67 104.874 136.517C101.594 137.364 98.1661 137.481 94.8354 136.858C93.0044 136.522 91.2218 135.962 89.5281 135.192C87.9654 134.484 86.487 133.604 85.1204 132.57C80.956 129.416 77.9828 124.954 76.6827 119.907C76.3362 118.536 76.1134 117.137 76.0171 115.726C75.9751 115.248 75.9811 114.878 75.9691 114.633C75.9571 114.388 75.9691 114.257 75.9691 114.257C75.9691 114.257 75.9691 114.764 75.9991 115.732C76.0681 117.141 76.2688 118.541 76.5988 119.913C77.8711 124.995 80.8427 129.495 85.0244 132.671C86.3933 133.723 87.8806 134.613 89.4562 135.323C91.16 136.105 92.9549 136.673 94.7995 137.013C98.1566 137.643 101.612 137.528 104.919 136.677C108.227 135.825 111.305 134.257 113.935 132.085C116.565 129.914 118.681 127.191 120.134 124.111C121.587 121.032 122.34 117.671 122.34 114.268C122.34 110.866 121.587 107.505 120.134 104.426C118.681 101.346 116.565 98.6234 113.935 96.4515C111.305 94.2797 108.227 92.712 104.919 91.8602C101.612 91.0084 98.1566 90.8934 94.7995 91.5234C91.2461 92.193 87.8988 93.6799 85.0244 95.8658C82.6637 97.6654 80.6674 99.8949 79.1415 102.436C77.9985 104.359 77.142 106.438 76.5988 108.606C76.2688 109.978 76.0681 111.378 75.9991 112.787C75.9331 113.797 75.9691 114.304 75.9691 114.304Z" fill="var(--fill-0, #263238)"/>
<path id="Vector_16" d="M48.2033 82.9403L45.0609 69.1129H42.6082L45.5946 83.7048L48.2033 82.9403Z" fill="var(--fill-0, #E0E0E0)"/>
<path id="Vector_17" d="M86.7935 78.9802L88.9344 80.7721L97.2162 69.5608L95.0753 67.769L86.7935 78.9802Z" fill="var(--fill-0, #E0E0E0)"/>
<path id="Vector_18" d="M23.406 137.945L24.7013 126.979L24.0537 138.005L23.406 137.945ZM30.9981 125.862L26.7583 116.443L31.202 126.197L36.1315 135.711L35.6097 135.962L30.9981 125.862ZM17.8528 125.892L24.7613 116.258L24.9292 116.383L17.8828 125.85L12.2577 133.693L17.8528 125.892ZM18.4525 125.038L17.8528 125.898L12.1258 133.597L18.4525 125.038ZM36.2394 122.051L27.4779 115.821L27.7178 115.499L36.6592 122.356L44.9769 128.269L36.6712 122.362L44.7491 128.538L36.2394 122.051ZM24.6893 127.003L25.8887 116.699L24.6533 127.337L24.6893 127.003ZM4.62361 124.769L23.8618 115.212L4.62961 124.769H4.62361ZM37.8286 115.81L28.2095 114.113L38.8001 115.959L49.4207 117.607L49.3847 117.834L37.8286 115.81ZM1.99695 113.564H23.4959H2.00895H1.99695ZM27.9817 112.13L38.7761 109.275L48.6231 106.211L38.7821 109.275L48.749 106.647L38.3683 109.407L28.1016 112.602L27.9817 112.13ZM12.8994 108.588L3.37025 105.309L12.8814 108.564L3.4662 105.046L13.565 108.785L23.7598 112.274L23.6519 112.566L12.8994 108.588ZM27.0041 110.798L35.2919 103.493L42.6741 96.1406L35.2979 103.493L43.0939 96.6065L35.052 103.714L27.4779 111.27L27.0041 110.798ZM16.5635 102.675L9.67901 95.5075L16.5635 102.651L9.87092 95.376L17.1212 103.225L24.5934 110.989L24.4015 111.175L16.5635 102.675ZM22.2846 97.604L20.3595 89.6958L22.2186 97.3292L20.3655 89.6958L22.2066 97.2814L20.4075 89.6838L22.7763 99.6228L25.421 110.512H25.331L22.2846 97.604ZM26.2425 110.482L30.0566 98.3267L32.5813 90.0183L30.1166 98.1356L26.3565 110.529L26.2425 110.482Z" fill="var(--fill-0, #E0E0E0)"/>
<path id="Vector_19" d="M1.57117 113.886C1.57117 109.102 2.9956 104.425 5.66435 100.447C8.3331 96.4685 12.1263 93.368 16.5643 91.5371C21.0022 89.7061 25.8857 89.2271 30.597 90.1605C35.3083 91.0939 39.6359 93.3978 43.0326 96.7809C46.4293 100.164 48.7425 104.474 49.6796 109.167C50.6168 113.859 50.1358 118.723 48.2975 123.143C46.4592 127.564 43.3462 131.342 39.3522 134C35.3581 136.658 30.6624 138.077 25.8587 138.077C19.4197 138.069 13.2467 135.518 8.6936 130.983C4.14052 126.448 1.5791 120.299 1.57117 113.886ZM2.77055 113.886C2.76937 118.44 4.12421 122.893 6.66374 126.68C9.20328 130.468 12.8134 133.42 17.0376 135.163C21.2618 136.907 25.9103 137.364 30.3952 136.476C34.88 135.588 38.9999 133.396 42.2336 130.176C45.4673 126.956 47.6697 122.853 48.5622 118.386C49.4547 113.92 48.9973 109.29 47.2477 105.082C45.4981 100.874 42.535 97.2777 38.7331 94.7473C34.9312 92.217 30.4613 90.8664 25.8887 90.8664C19.7609 90.8743 13.8862 93.3019 9.55258 97.6171C5.21898 101.932 2.78007 107.783 2.77055 113.886Z" fill="var(--fill-0, #E0E0E0)"/>
<path id="Vector_20" d="M0 113.886C0 108.789 1.51765 103.806 4.36102 99.5673C7.2044 95.3289 11.2458 92.0255 15.9741 90.0748C20.7025 88.1241 25.9055 87.6137 30.925 88.6081C35.9446 89.6026 40.5554 92.0573 44.1744 95.6617C47.7933 99.2662 50.2578 103.859 51.2563 108.858C52.2547 113.858 51.7423 119.04 49.7838 123.749C47.8252 128.459 44.5085 132.484 40.2531 135.316C35.9977 138.148 30.9947 139.66 25.8767 139.66C19.0162 139.652 12.439 136.934 7.58789 132.102C2.73677 127.27 0.00793581 120.719 0 113.886ZM1.56519 113.886C1.56519 118.675 2.99105 123.357 5.66244 127.339C8.33383 131.321 12.1308 134.425 16.5731 136.257C21.0155 138.09 25.9037 138.57 30.6197 137.635C35.3357 136.701 39.6676 134.395 43.0676 131.008C46.4676 127.622 48.7831 123.307 49.7212 118.61C50.6592 113.913 50.1778 109.044 48.3377 104.62C46.4976 100.195 43.3815 96.4134 39.3835 93.7527C35.3855 91.092 30.6851 89.6718 25.8767 89.6718C19.4319 89.6798 13.2534 92.2336 8.69677 96.7732C4.14014 101.313 1.57754 107.467 1.57119 113.886H1.56519Z" fill="var(--fill-0, #263238)"/>
<path id="Vector_21" d="M2.72854 113.964V113.588C2.72854 113.343 2.72854 112.99 2.78251 112.494C3.00337 109.205 3.93033 106.002 5.50079 103.1C7.07124 100.199 9.24863 97.6663 11.8859 95.6746C13.2516 94.6385 14.7301 93.7589 16.2936 93.0525C17.9862 92.2806 19.7691 91.7227 21.6009 91.392C24.9303 90.772 28.3559 90.8901 31.6343 91.7381C34.9127 92.586 37.9632 94.1428 40.5691 96.298C43.1749 98.4531 45.2721 101.154 46.7115 104.207C48.1508 107.261 48.897 110.593 48.897 113.967C48.897 117.34 48.1508 120.673 46.7115 123.726C45.2721 126.78 43.1749 129.481 40.5691 131.636C37.9632 133.791 34.9127 135.348 31.6343 136.196C28.3559 137.044 24.9303 137.162 21.6009 136.542C19.7694 136.207 17.9866 135.647 16.2936 134.875C14.7283 134.169 13.2477 133.289 11.8799 132.253C9.52805 130.462 7.53628 128.245 6.00886 125.719C4.13154 122.593 3.0258 119.068 2.78251 115.433C2.73454 114.955 2.74653 114.585 2.72854 114.34V113.964C2.72854 113.964 2.72855 114.472 2.75854 115.433C2.82131 116.843 3.02216 118.243 3.35823 119.614C3.89612 121.784 4.75293 123.864 5.90092 125.784C7.42304 128.326 9.41761 130.556 11.7779 132.355C14.6523 134.54 17.9995 136.027 21.5529 136.697C23.5288 137.067 25.5445 137.182 27.5498 137.037C29.6758 136.888 31.7706 136.446 33.7747 135.723C38.2656 134.102 42.1462 131.143 44.8888 127.247C47.6313 123.352 49.1027 118.71 49.1027 113.952C49.1027 109.194 47.6313 104.552 44.8888 100.657C42.1462 96.7611 38.2656 93.8016 33.7747 92.1805C29.861 90.7851 25.6456 90.4491 21.5589 91.2069C18.0045 91.8732 14.6566 93.3605 11.7839 95.5492C9.42005 97.3455 7.42315 99.5757 5.90092 102.119C4.75439 104.05 3.90155 106.14 3.37022 108.319C3.03712 109.691 2.83631 111.091 2.77052 112.5C2.71056 113.456 2.72854 113.964 2.72854 113.964Z" fill="var(--fill-0, #263238)"/>
<path id="Vector_22" d="M100.85 114.173L88.6586 82.0921L91.0934 78.8966L88.2988 76.8478L85.4382 80.2405L47.3038 81.3693L44.983 81.6561C44.983 81.6561 31.5559 103.427 29.1571 106.384C26.6264 109.544 23.6819 113.48 23.6819 113.48L26.1286 115.075C26.1286 115.075 32.8272 106.946 36.1675 101.45C39.5078 95.9553 45.8166 85.6997 45.8166 85.6997L54.4701 119.614L57.5346 119.095L49.5466 84.5052L83.4892 83.7048L56.2692 114.167L57.5166 119.124L86.1399 86.1537L97.7859 115.075L100.85 114.173Z" fill="var(--fill-0, #FF725E)"/>
<path id="Vector_23" d="M54.8359 116.544L26.3625 112.895L25.8768 115.033L54.8359 119.614V116.544Z" fill="var(--fill-0, #FF725E)"/>
<path id="Vector_24" d="M52.3412 68.8561C52.5229 68.8508 52.6985 68.7893 52.8435 68.6802C52.9886 68.571 53.0959 68.4195 53.1506 68.2469C53.2054 68.0742 53.2047 67.8888 53.1489 67.7165C53.093 67.5442 52.9847 67.3934 52.8389 67.2852C52.1936 66.826 51.4191 66.5814 50.626 66.5864C47.8135 66.4968 32.1675 66.5864 32.1675 66.5864C32.1675 66.5864 31.5678 67.3987 32.6892 68.3006C33.8107 69.2025 36.7911 70.0925 38.4163 70.0925C40.0415 70.0925 44.6171 69.3399 47.0938 69.095C48.6231 68.9636 50.8539 68.8919 52.3412 68.8561Z" fill="var(--fill-0, #455A64)"/>
<path id="Vector_25" d="M99.1352 116.783C100.553 116.783 101.702 115.639 101.702 114.227C101.702 112.815 100.553 111.67 99.1352 111.67C97.7177 111.67 96.5685 112.815 96.5685 114.227C96.5685 115.639 97.7177 116.783 99.1352 116.783Z" fill="var(--fill-0, #E0E0E0)"/>
<path id="Vector_26" d="M96.5685 114.227C96.5685 114.227 96.5685 114 96.6885 113.629C96.8393 113.084 97.1686 112.605 97.624 112.268C97.9575 112.023 98.3469 111.864 98.7571 111.805C99.1674 111.747 99.5857 111.791 99.9748 111.933C100.436 112.097 100.835 112.397 101.12 112.793C101.428 113.214 101.594 113.721 101.594 114.242C101.594 114.762 101.428 115.269 101.12 115.69C100.835 116.086 100.436 116.387 99.9748 116.55C99.5857 116.692 99.1674 116.736 98.7571 116.678C98.3469 116.619 97.9575 116.461 97.624 116.216C97.1686 115.878 96.8393 115.399 96.6885 114.854C96.5805 114.472 96.5865 114.257 96.5685 114.257C96.5598 114.312 96.5598 114.368 96.5685 114.424C96.5646 114.583 96.5828 114.742 96.6225 114.896C96.7497 115.472 97.0766 115.986 97.546 116.347C97.9382 116.648 98.4073 116.834 98.9001 116.883C99.3929 116.933 99.8898 116.843 100.334 116.626C100.779 116.408 101.153 116.071 101.415 115.652C101.677 115.233 101.815 114.75 101.815 114.257C101.815 113.763 101.677 113.28 101.415 112.861C101.153 112.442 100.779 112.105 100.334 111.887C99.8898 111.67 99.3929 111.58 98.9001 111.63C98.4073 111.679 97.9382 111.865 97.546 112.166C97.077 112.53 96.7503 113.045 96.6225 113.623C96.5828 113.777 96.5646 113.936 96.5685 114.095C96.5624 114.139 96.5624 114.183 96.5685 114.227Z" fill="var(--fill-0, #263238)"/>
<path id="Vector_27" d="M48.2033 81.8413L47.6876 79.5716H44.5092L44.989 82.1698L47.9275 82.8269L48.2033 81.8413Z" fill="var(--fill-0, #FF725E)"/>
<path id="Vector_28" d="M25.8888 116.443C27.3063 116.443 28.4555 115.298 28.4555 113.886C28.4555 112.474 27.3063 111.33 25.8888 111.33C24.4712 111.33 23.3221 112.474 23.3221 113.886C23.3221 115.298 24.4712 116.443 25.8888 116.443Z" fill="var(--fill-0, #E0E0E0)"/>
<path id="Vector_29" d="M23.3221 113.886C23.3221 113.886 23.3221 113.659 23.442 113.289C23.5973 112.746 23.9283 112.269 24.3835 111.933C24.6463 111.737 24.9455 111.595 25.2637 111.516C25.5819 111.436 25.9129 111.419 26.2375 111.468C26.562 111.516 26.8738 111.628 27.1546 111.797C27.4355 111.966 27.6799 112.189 27.8737 112.453C28.1854 112.873 28.3536 113.382 28.3536 113.904C28.3536 114.427 28.1854 114.935 27.8737 115.356C27.5873 115.75 27.1882 116.05 26.7283 116.216C26.3403 116.358 25.9228 116.402 25.5135 116.343C25.1042 116.285 24.7159 116.126 24.3835 115.881C23.9279 115.543 23.597 115.064 23.442 114.519C23.3341 114.131 23.346 113.922 23.3221 113.922C23.3133 113.977 23.3133 114.034 23.3221 114.089C23.3179 114.246 23.3361 114.403 23.376 114.555C23.5039 115.135 23.8331 115.651 24.3056 116.013C24.5843 116.228 24.9034 116.385 25.2441 116.475C25.5848 116.566 25.9403 116.587 26.2895 116.539C26.6387 116.491 26.9747 116.373 27.2776 116.193C27.5806 116.014 27.8444 115.776 28.0536 115.493C28.3913 115.038 28.5741 114.488 28.5754 113.922C28.5725 113.357 28.3898 112.807 28.0536 112.351C27.8444 112.069 27.5806 111.83 27.2776 111.651C26.9747 111.471 26.6387 111.354 26.2895 111.305C25.9403 111.257 25.5848 111.278 25.2441 111.369C24.9034 111.459 24.5843 111.617 24.3056 111.832C23.8343 112.194 23.5054 112.71 23.376 113.289C23.3363 113.443 23.3181 113.602 23.3221 113.761C23.3165 113.802 23.3165 113.845 23.3221 113.886Z" fill="var(--fill-0, #263238)"/>
<path id="Vector_30" d="M52.2074 132.4L59.3184 135.263L60.3455 132.732L53.2344 129.869L52.2074 132.4Z" fill="var(--fill-0, #263238)"/>
<path id="Vector_31" d="M52.2333 132.396L53.2647 129.852L60.3831 132.719L59.3516 135.263L52.2333 132.396ZM53.2707 129.87L52.2453 132.384L59.3396 135.24L60.3591 132.725L53.2707 129.87Z" fill="var(--fill-0, #455A64)"/>
<path id="Vector_32" d="M56.3952 132.546C56.5671 132.532 56.7346 132.485 56.888 132.407C57.0415 132.328 57.1779 132.221 57.2894 132.09C57.4009 131.959 57.4852 131.807 57.5376 131.643C57.59 131.48 57.6093 131.307 57.5946 131.136L56.689 120.731C56.6754 120.56 56.6279 120.393 56.5493 120.24C56.4707 120.088 56.3625 119.952 56.231 119.841C56.0994 119.73 55.9471 119.646 55.7829 119.593C55.6186 119.541 55.4455 119.522 55.2737 119.537C55.1016 119.549 54.9337 119.596 54.7798 119.674C54.6259 119.752 54.4892 119.86 54.3776 119.991C54.266 120.122 54.1817 120.274 54.1296 120.438C54.0775 120.602 54.0588 120.775 54.0743 120.946L54.9739 131.351C54.9875 131.523 55.0351 131.69 55.1141 131.844C55.1931 131.997 55.3019 132.133 55.4341 132.244C55.5663 132.355 55.7193 132.439 55.8843 132.491C56.0492 132.543 56.2229 132.561 56.3952 132.546Z" fill="var(--fill-0, #263238)"/>
<path id="Vector_33" d="M56.3951 132.546C56.3951 132.546 56.2932 132.546 56.1013 132.516C55.8257 132.471 55.5729 132.336 55.3816 132.134C55.2437 131.993 55.1428 131.821 55.0878 131.632C55.0367 131.398 55.0066 131.16 54.9978 130.921C54.9619 130.395 54.9139 129.804 54.8599 129.129C54.752 127.815 54.626 126.256 54.4881 124.524C54.4101 123.658 54.3382 122.732 54.2542 121.806C54.2542 121.567 54.2182 121.334 54.1942 121.096C54.1599 120.869 54.1784 120.638 54.2482 120.421C54.3249 120.203 54.4631 120.013 54.6461 119.872C54.8291 119.731 55.0492 119.645 55.2797 119.626C55.5089 119.605 55.7394 119.65 55.9435 119.756C56.1477 119.862 56.317 120.024 56.4311 120.223C56.5365 120.427 56.5939 120.652 56.599 120.881C56.599 121.119 56.641 121.358 56.659 121.591C56.7429 122.535 56.8269 123.443 56.8989 124.315C57.0608 126.041 57.1987 127.6 57.3246 128.914C57.3846 129.565 57.4386 130.157 57.4926 130.706C57.5273 130.943 57.5394 131.183 57.5285 131.423C57.5013 131.617 57.4317 131.802 57.3246 131.966C57.1675 132.198 56.9407 132.373 56.677 132.468C56.4971 132.528 56.3951 132.534 56.3951 132.546C56.4948 132.549 56.5943 132.535 56.689 132.504C56.9731 132.427 57.2214 132.254 57.3906 132.014C57.5155 131.836 57.5976 131.632 57.6305 131.417C57.654 131.17 57.654 130.922 57.6305 130.676C57.5885 130.151 57.5465 129.559 57.4926 128.884C57.3846 127.564 57.2587 126.005 57.1208 124.279C57.0428 123.413 56.9708 122.487 56.8869 121.555C56.8869 121.323 56.8509 121.084 56.8269 120.845C56.8245 120.586 56.7586 120.332 56.635 120.104C56.5026 119.868 56.3046 119.675 56.0648 119.548C55.8249 119.422 55.5534 119.367 55.2829 119.39C55.0124 119.413 54.7545 119.514 54.5401 119.68C54.3257 119.846 54.1639 120.07 54.0743 120.325C53.9924 120.571 53.9718 120.834 54.0143 121.09C54.0143 121.328 54.0563 121.561 54.0743 121.8C54.1583 122.744 54.2422 123.652 54.3202 124.518C54.4761 126.244 54.62 127.803 54.74 129.123C54.7999 129.774 54.8599 130.366 54.9079 130.885C54.9182 131.133 54.9544 131.379 55.0158 131.62C55.0823 131.82 55.1953 132.003 55.3457 132.151C55.5538 132.358 55.827 132.487 56.1193 132.516C56.2091 132.54 56.3022 132.55 56.3951 132.546Z" fill="var(--fill-0, #455A64)"/>
<path id="Vector_34" d="M57.5349 125.744C61.217 124.882 63.5007 121.211 62.6357 117.543C61.7707 113.876 58.0846 111.601 54.4025 112.463C50.7205 113.324 48.4367 116.996 49.3017 120.663C50.1667 124.331 53.8528 126.605 57.5349 125.744Z" fill="var(--fill-0, #E0E0E0)"/>
<path id="Vector_35" d="M59.9171 108.166L53.0793 104.705L51.8377 107.139L58.6754 110.6L59.9171 108.166Z" fill="var(--fill-0, #263238)"/>
<path id="Vector_36" d="M51.8254 107.155L53.0728 104.712L59.9153 108.176L58.6679 110.619L51.8254 107.155ZM53.0728 104.724L51.8434 107.143L58.662 110.589L59.8973 108.2L53.0728 104.724Z" fill="var(--fill-0, #455A64)"/>
<path id="Vector_37" d="M51.9454 119.089C51.9454 119.86 52.1752 120.615 52.6058 121.256C53.0363 121.898 53.6483 122.398 54.3642 122.693C55.0801 122.988 55.8678 123.065 56.6276 122.914C57.3873 122.763 58.0851 122.391 58.6325 121.845C59.1799 121.298 59.5524 120.603 59.7028 119.846C59.8533 119.089 59.7749 118.305 59.4776 117.592C59.1802 116.879 58.6774 116.271 58.0326 115.843C57.3879 115.415 56.6301 115.187 55.8554 115.188C55.3414 115.188 54.8325 115.289 54.3577 115.485C53.8829 115.681 53.4516 115.969 53.0885 116.331C52.7253 116.693 52.4374 117.123 52.2413 117.597C52.0451 118.07 51.9446 118.577 51.9454 119.089Z" fill="var(--fill-0, #263238)"/>
<path id="Vector_38" d="M55.7774 107.656C55.4302 107.656 55.097 107.793 54.8509 108.037C54.6048 108.281 54.4657 108.613 54.4641 108.958V119.405C54.4641 119.577 54.4981 119.746 54.5642 119.905C54.6303 120.063 54.7271 120.207 54.8491 120.328C54.9712 120.449 55.116 120.545 55.2753 120.61C55.4346 120.675 55.6053 120.708 55.7774 120.707C56.1242 120.707 56.4567 120.57 56.7019 120.326C56.947 120.082 57.0848 119.751 57.0848 119.405V108.958C57.0832 108.614 56.9449 108.283 56.7001 108.039C56.4553 107.796 56.1237 107.658 55.7774 107.656Z" fill="var(--fill-0, #263238)"/>
<path id="Vector_39" d="M55.7775 107.656C55.7775 107.656 55.8794 107.656 56.0653 107.71C56.3309 107.779 56.568 107.93 56.7429 108.14C56.8678 108.295 56.9541 108.477 56.9948 108.672C57.0198 108.908 57.0198 109.146 56.9948 109.383C56.9948 109.908 56.9948 110.506 56.9948 111.175C56.9948 112.495 56.9948 114.059 56.9948 115.792C56.9948 116.664 56.9948 117.584 56.9948 118.521V119.238C57.0128 119.467 56.9737 119.697 56.8809 119.907C56.7862 120.117 56.6326 120.296 56.4384 120.421C56.2442 120.546 56.0178 120.613 55.7864 120.613C55.5551 120.613 55.3287 120.546 55.1345 120.421C54.9403 120.296 54.7866 120.117 54.692 119.907C54.604 119.695 54.567 119.466 54.5841 119.238V118.521C54.5841 117.578 54.5841 116.664 54.5841 115.792C54.5841 114.059 54.5841 112.495 54.5841 111.175C54.5841 110.517 54.5841 109.92 54.5841 109.383C54.562 109.146 54.562 108.908 54.5841 108.672C54.6272 108.478 54.7133 108.297 54.8359 108.14C55.0107 107.924 55.2502 107.769 55.5196 107.698C55.7055 107.65 55.8134 107.656 55.8134 107.645C55.714 107.63 55.613 107.63 55.5136 107.645C55.2273 107.704 54.9683 107.855 54.776 108.075C54.6357 108.236 54.5369 108.428 54.4881 108.636C54.4466 108.879 54.4325 109.125 54.4461 109.371C54.4461 109.896 54.4461 110.494 54.4461 111.163C54.4461 112.483 54.4461 114.048 54.4461 115.78C54.4461 116.652 54.4461 117.572 54.4461 118.509V119.226C54.4282 119.484 54.4735 119.742 54.5781 119.979C54.6899 120.224 54.8704 120.433 55.098 120.579C55.3256 120.725 55.5907 120.802 55.8614 120.802C56.1321 120.802 56.3972 120.725 56.6248 120.579C56.8523 120.433 57.0329 120.224 57.1448 119.979C57.2475 119.742 57.2907 119.483 57.2707 119.226V118.509C57.2707 117.566 57.2707 116.652 57.2707 115.78C57.2707 114.048 57.2707 112.483 57.2707 111.163C57.2707 110.506 57.2707 109.908 57.2707 109.371C57.2794 109.125 57.2633 108.879 57.2227 108.636C57.1733 108.43 57.0769 108.238 56.9408 108.075C56.7477 107.856 56.4891 107.705 56.2032 107.645C56.062 107.619 55.917 107.623 55.7775 107.656Z" fill="var(--fill-0, #455A64)"/>
<path id="Vector_40" d="M83.3093 2.51448C83.3093 2.51448 81.822 2.82507 81.7021 3.29694C81.6181 3.63739 88.2448 5.58458 88.2448 5.58458L88.2987 4.25858L86.3017 2.80715L83.3093 2.51448Z" fill="var(--fill-0, #FF725E)"/>
<g id="Group" opacity="0.3">
<path id="Vector_41" d="M83.3093 2.51448C83.3093 2.51448 81.822 2.82507 81.7021 3.29694C81.6181 3.63739 88.2448 5.58458 88.2448 5.58458L88.2987 4.25858L86.3017 2.80715L83.3093 2.51448Z" fill="var(--fill-0, black)"/>
</g>
<path id="Vector_42" d="M78.116 14.4484C78.6166 12.8593 79.2547 11.3165 80.023 9.83724C80.7919 8.35288 81.9217 7.08386 83.3094 6.14595C83.5192 6.00857 85.1084 5.19027 85.2644 5.36349C85.4203 5.5367 84.1369 6.38486 84.113 6.55808C83.8473 8.27109 83.0675 9.86398 81.8761 11.1274C80.7488 12.3666 79.4879 13.4783 78.116 14.4424" fill="var(--fill-0, #263238)"/>
<path id="Vector_43" d="M93.1683 17.1841C94.258 15.657 94.7305 13.7771 94.4916 11.9188C94.2527 10.0604 93.3199 8.3598 91.879 7.15546L91.5851 6.9046C88.2208 4.41387 84.2209 5.86531 81.8161 9.29379L73.6663 20.4572L73.4204 28.1743L77.9601 30.0797C78.6797 29.1479 81.3304 25.7732 81.3364 25.7791C81.3424 25.7851 84.8146 27.8757 87.4412 24.8414C88.7066 23.3601 91.0694 20.1287 93.1683 17.1841Z" fill="var(--fill-0, #FFBF9D)"/>
<path id="Vector_44" d="M81.3304 25.7612C79.9187 24.5669 78.8785 22.9963 78.3319 21.2337C78.3319 21.2337 77.3544 24.3396 80.6587 26.6094L81.3304 25.7612Z" fill="var(--fill-0, #FF9A6C)"/>
<path id="Vector_45" d="M89.2343 18.8869C89.1352 18.9965 88.9989 19.0657 88.8516 19.0811C88.7044 19.0966 88.5565 19.0572 88.4367 18.9705C88.3772 18.9284 88.3267 18.8749 88.2883 18.813C88.25 18.7511 88.2244 18.6822 88.2132 18.6103C88.202 18.5384 88.2054 18.465 88.2232 18.3944C88.241 18.3239 88.2728 18.2576 88.3168 18.1995C88.4151 18.089 88.551 18.0186 88.6983 18.0021C88.8456 17.9855 88.9938 18.0239 89.1143 18.1098C89.1741 18.1525 89.2246 18.2066 89.2631 18.269C89.3016 18.3314 89.3271 18.4008 89.3383 18.4732C89.3495 18.5456 89.346 18.6195 89.3282 18.6905C89.3103 18.7615 89.2784 18.8283 89.2343 18.8869Z" fill="var(--fill-0, #263238)"/>
<path id="Vector_46" d="M91.3752 17.9905C91.2732 17.9905 91.1473 17.4768 90.6736 17.0826C90.1998 16.6884 89.6541 16.6346 89.6481 16.5331C89.6421 16.4315 89.786 16.4315 90.0319 16.4495C90.3526 16.4805 90.6563 16.608 90.9027 16.8149C91.149 17.0219 91.3263 17.2986 91.4112 17.6082C91.4591 17.8412 91.4232 17.9905 91.3752 17.9905Z" fill="var(--fill-0, #263238)"/>
<path id="Vector_47" d="M84.5208 15.5003C84.4227 15.6093 84.288 15.6786 84.1421 15.6951C83.9962 15.7116 83.8492 15.6742 83.7292 15.59C83.669 15.5478 83.6179 15.494 83.5788 15.4318C83.5398 15.3696 83.5137 15.3003 83.5019 15.2279C83.4902 15.1555 83.4931 15.0815 83.5105 15.0102C83.5279 14.939 83.5594 14.8719 83.6032 14.8129C83.7015 14.7024 83.8375 14.6321 83.9848 14.6155C84.132 14.599 84.2803 14.6374 84.4008 14.7233C84.4605 14.7659 84.5111 14.8201 84.5496 14.8825C84.588 14.9449 84.6136 15.0143 84.6248 15.0867C84.6359 15.159 84.6325 15.2329 84.6146 15.304C84.5968 15.375 84.5649 15.4417 84.5208 15.5003Z" fill="var(--fill-0, #263238)"/>
<path id="Vector_48" d="M86.6856 14.3648C86.5837 14.3648 86.4577 13.8512 85.984 13.4569C85.5102 13.0627 84.9645 13.009 84.9585 12.9074C84.9525 12.8059 85.0964 12.8059 85.3423 12.8238C85.6666 12.8502 85.9737 12.98 86.2179 13.1941C86.464 13.3984 86.64 13.674 86.7216 13.9826C86.7696 14.2394 86.7276 14.3648 86.6856 14.3648Z" fill="var(--fill-0, #263238)"/>
<path id="Vector_49" d="M85.2943 19.2627C85.6075 19.3938 85.9035 19.5622 86.1759 19.7644C86.3078 19.854 86.4397 19.9257 86.5297 19.86C86.6463 19.7451 86.7238 19.5968 86.7516 19.4359L87.1654 18.2413C87.4834 17.19 87.8845 16.1654 88.3647 15.1771C88.1308 16.2531 87.8079 17.308 87.3992 18.3309L86.9675 19.5255C86.9172 19.7329 86.7991 19.9178 86.6317 20.0511C86.5771 20.0762 86.5178 20.0892 86.4577 20.0892C86.3977 20.0892 86.3383 20.0762 86.2838 20.0511C86.2029 20.0116 86.1265 19.9635 86.0559 19.9077C85.7744 19.7274 85.5182 19.5105 85.2943 19.2627Z" fill="var(--fill-0, #263238)"/>
<path id="Vector_50" d="M87.5132 13.3195C87.3513 13.3912 87.0454 12.9313 86.5537 12.5131C86.0619 12.095 85.5642 11.8382 85.6182 11.6769C85.6721 11.5157 85.822 11.5635 86.0859 11.6053C86.4158 11.6753 86.7216 11.8297 86.9734 12.0532C87.2273 12.2685 87.4197 12.5466 87.5312 12.8596C87.6091 13.1045 87.5851 13.2837 87.5132 13.3195Z" fill="var(--fill-0, #263238)"/>
<path id="Vector_51" d="M92.8805 16.2164C92.6886 16.2164 92.3947 15.8162 91.9269 15.434C91.4592 15.0517 91.0034 14.8008 91.0034 14.6157C91.0034 14.5261 91.1593 14.4663 91.4172 14.5081C91.7601 14.5751 92.0788 14.7318 92.3407 14.9621C92.6151 15.1796 92.8229 15.4692 92.9404 15.7983C93.0004 16.0432 92.9644 16.1985 92.8805 16.2164Z" fill="var(--fill-0, #263238)"/>
<path id="Vector_52" d="M80.1309 11.7606C80.0949 11.6889 78.5418 9.37138 76.8446 11.5157C75.1475 13.66 77.6602 14.9262 77.7141 14.8665C77.7681 14.8068 80.1309 11.7606 80.1309 11.7606Z" fill="var(--fill-0, #FFBF9D)"/>
<path id="Vector_53" d="M77.7322 13.5345C77.7322 13.5345 77.6782 13.5345 77.5883 13.5345C77.5293 13.5193 77.4739 13.4924 77.4255 13.4555C77.3771 13.4186 77.3366 13.3723 77.3064 13.3195C77.2328 13.1188 77.2145 12.9022 77.2535 12.692C77.2926 12.4819 77.3874 12.2861 77.5283 12.1249C77.6716 11.9374 77.8536 11.7826 78.062 11.671C78.1348 11.6187 78.2195 11.5853 78.3086 11.5738C78.3976 11.5624 78.488 11.5732 78.5718 11.6053C78.6235 11.6276 78.6657 11.6674 78.691 11.7177C78.7162 11.7679 78.7228 11.8254 78.7097 11.88C78.7097 11.9637 78.6437 11.9995 78.6557 12.0114C78.6677 12.0234 78.7277 12.0115 78.7817 11.9099C78.8041 11.8441 78.8041 11.7727 78.7817 11.7068C78.7583 11.6167 78.7001 11.5394 78.6197 11.4918C78.5187 11.4364 78.4053 11.4073 78.2899 11.4073C78.1746 11.4073 78.0611 11.4364 77.9601 11.4918C77.7224 11.6055 77.5164 11.7758 77.3604 11.9876C77.1983 12.1711 77.0942 12.3983 77.0612 12.6405C77.0281 12.8828 77.0675 13.1294 77.1745 13.3494C77.2195 13.4112 77.2779 13.4621 77.3454 13.4983C77.4129 13.5345 77.4877 13.555 77.5643 13.5584C77.6782 13.5823 77.7322 13.5465 77.7322 13.5345Z" fill="var(--fill-0, #FF9A6C)"/>
<path id="Vector_54" d="M94.5236 12.5132C95.0213 12.5908 94.8474 10.6436 94.2837 9.58642C93.4381 7.99164 91.723 6.09224 90.2538 5.50092C88.4847 4.79611 86.7216 4.58705 84.9705 5.34562C83.2313 6.13537 81.7347 7.37238 80.6347 8.92939C80.2609 9.37668 80.0126 9.91455 79.9151 10.4883C79.8491 11.2051 80.1969 11.9517 79.6572 12.5968C79.4572 12.8258 79.3559 13.1241 79.3753 13.427C79.4413 14.1557 80.2389 14.1378 80.7726 13.9108C82.5521 12.7884 84.0007 11.2157 84.9705 9.35347C85.1444 8.91147 85.2403 8.43364 85.4382 8.00359C85.5228 7.78112 85.6551 7.57975 85.8261 7.41363C85.997 7.24751 86.2024 7.12065 86.4277 7.04194C86.5317 7.01559 86.6384 7.00155 86.7456 7.00013C87.2528 6.96949 87.759 7.07397 88.2123 7.30282C88.6655 7.53167 89.0493 7.87664 89.3243 8.30224C90.2118 9.67602 91.807 11.9278 92.6765 11.9338C93.2642 11.9782 93.8548 11.8988 94.4097 11.7009L94.5236 12.5132Z" fill="var(--fill-0, #263238)"/>
<path id="Vector_55" d="M83.5252 18.3846C83.6032 18.4384 83.2194 18.9341 83.3753 19.621C83.5312 20.3079 84.1129 20.6483 84.0589 20.726C84.005 20.8036 83.867 20.726 83.6391 20.5647C83.3391 20.3461 83.1266 20.0287 83.0395 19.6688C82.9554 19.325 83.0114 18.9621 83.1954 18.6594C83.3393 18.4384 83.4952 18.3547 83.5252 18.3846Z" fill="var(--fill-0, #263238)"/>
<path id="Vector_56" d="M80.053 9.67606C79.3693 7.10768 79.3393 5.68612 80.101 4.2108L96.7964 17.411C96.7964 17.411 94.5775 17.865 93.1982 17.1781L93.7979 16.1627C93.7979 16.1627 85.5822 9.35949 82.4698 8.94735L81.0964 8.70246L80.053 9.67606Z" fill="var(--fill-0, #455A64)"/>
<path id="Vector_57" d="M83.2194 7.92598C83.2194 7.92598 79.6692 12.0294 77.8222 15.7744C75.9091 19.6569 79.3874 23.5393 79.3874 23.5393C79.3874 23.5393 77.2405 18.5817 79.7592 15.0517C82.044 11.8622 84.4368 8.88166 84.4368 8.88166L83.2194 7.92598Z" fill="var(--fill-0, #455A64)"/>
<path id="Vector_58" d="M86.2658 0.0296985C86.2658 0.0296985 85.6122 0.137209 85.7261 0.979397L85.87 2.00078C84.9565 2.09533 84.0546 2.27939 83.1774 2.55029C83.1774 2.55029 86.0679 3.24315 87.3753 4.84988C87.3967 4.87506 87.4087 4.90681 87.4093 4.9398C87.4099 4.97278 87.3991 5.00498 87.3787 5.03095C87.3583 5.05691 87.3295 5.07506 87.2971 5.08233C87.2648 5.08961 87.231 5.08556 87.2013 5.07088C86.0019 4.47358 82.6976 3.01021 81.8041 3.14161C81.3387 3.18977 80.8982 3.37483 80.5387 3.67321C80.0801 4.10213 79.7424 4.64331 79.5593 5.24279C79.3762 5.84228 79.3541 6.4791 79.4953 7.08974L79.8071 8.59492L82.2059 8.2903C83.1293 8.17201 84.0622 8.42094 84.8025 8.98316C86.5117 10.2554 89.9359 12.3698 90.6736 12.9552C91.2733 13.439 95.561 17.3513 96.5685 17.3931C97.576 17.4349 98.6075 17.5782 98.4696 16.6703C98.3316 15.7625 97.5221 11.2947 95.9269 8.26043C94.96 6.44347 93.6171 4.85148 91.9869 3.58959C91.9869 3.58959 87.0034 -0.167405 86.2658 0.00581064" fill="var(--fill-0, #FF725E)"/>
<path id="Vector_59" d="M91.8969 6.48641C91.7023 6.16083 91.4687 5.85999 91.2013 5.59047C90.5912 4.91177 89.9163 4.29366 89.1863 3.74483C88.4545 3.19847 87.6736 2.72059 86.8535 2.31729C86.5184 2.13919 86.1644 1.99896 85.798 1.89919C86.1163 2.10235 86.4467 2.28587 86.7875 2.4487C87.5776 2.88455 88.337 3.37347 89.0604 3.91207C89.7793 4.46126 90.4586 5.06003 91.0933 5.70396C91.3451 5.98068 91.6134 6.24198 91.8969 6.48641Z" fill="var(--fill-0, #263238)"/>
<g id="Group_2" opacity="0.3">
<path id="Vector_60" d="M88.3108 6.07454C88.3321 6.01594 88.368 5.96375 88.4152 5.92294C88.4625 5.88213 88.5195 5.85407 88.5807 5.84143C88.7376 5.79139 88.9017 5.76717 89.0664 5.76971C89.2822 5.80764 89.4851 5.89854 89.6568 6.0342C89.8285 6.16986 89.9636 6.34601 90.0499 6.54674C90.2298 6.97112 89.6241 7.26997 89.2883 7.18031C88.9615 7.07196 88.6779 6.86258 88.4787 6.5826C88.4096 6.51916 88.358 6.4392 88.3286 6.3503C88.2992 6.26139 88.2931 6.16647 88.3108 6.07454Z" fill="var(--fill-0, black)"/>
</g>
<g id="Group_3" opacity="0.3">
<path id="Vector_61" d="M91.7531 8.57704C91.8603 8.59781 91.9599 8.64737 92.0409 8.72038C92.7391 9.28563 93.3007 10.0001 93.684 10.8109C94.1168 11.6588 94.4915 12.5348 94.8055 13.4331C93.43 12.15 92.325 10.6068 91.5551 8.8936C91.5285 8.84851 91.516 8.79651 91.5192 8.74428C91.5294 8.69196 91.5593 8.64551 91.6028 8.61442C91.6462 8.58334 91.7 8.56996 91.7531 8.57704Z" fill="var(--fill-0, black)"/>
</g>
<g id="Group_4" opacity="0.3">
<path id="Vector_62" d="M94.9614 8.23652C95.0559 8.28841 95.1347 8.36475 95.1893 8.45751C95.6707 9.21665 95.9741 10.0741 96.0768 10.9662C96.1798 11.8522 96.2139 12.7448 96.1788 13.6361C95.3226 12.0361 94.808 10.2771 94.6675 8.46946C94.6587 8.42008 94.6587 8.36952 94.6675 8.32014C94.6813 8.29541 94.6998 8.27363 94.722 8.25604C94.7443 8.23845 94.7698 8.22539 94.7971 8.21763C94.8244 8.20986 94.8529 8.20753 94.8811 8.21077C94.9093 8.21401 94.9366 8.22277 94.9614 8.23652Z" fill="var(--fill-0, black)"/>
</g>
<path id="Vector_63" d="M82.6197 3.18345C82.9877 3.39619 83.3728 3.578 83.7711 3.72699C84.4907 4.03758 85.4862 4.44971 86.5957 4.92158L87.4052 5.25009C87.4635 5.27041 87.5272 5.26817 87.5839 5.24383C87.6405 5.21949 87.686 5.17482 87.7111 5.11869C87.723 5.0903 87.729 5.05984 87.729 5.02909C87.729 4.99833 87.723 4.96789 87.7111 4.9395C87.7031 4.91257 87.6887 4.88798 87.6691 4.86782L87.6331 4.83198C87.5432 4.73044 87.4472 4.63488 87.3512 4.53931C87.0128 4.22151 86.6361 3.94664 86.2298 3.72101C85.955 3.56935 85.6657 3.4453 85.3663 3.35069C85.2598 3.30609 85.1459 3.28178 85.0304 3.27902C85.0304 3.31485 85.4922 3.44626 86.1519 3.84644C86.5368 4.08358 86.893 4.36418 87.2133 4.68265C87.3093 4.7703 87.3995 4.86407 87.4832 4.96338C87.5432 5.02909 87.5252 5.01117 87.5252 5.03507C87.5186 5.04094 87.51 5.04419 87.5012 5.04419C87.4923 5.04419 87.4838 5.04094 87.4772 5.03507L86.6736 4.70655C85.5642 4.25858 84.5567 3.86437 83.825 3.58961C83.4347 3.42254 83.0317 3.28672 82.6197 3.18345Z" fill="var(--fill-0, #263238)"/>
<path id="Vector_64" d="M59.0697 52.4066C59.0697 52.4066 84.9045 66.6521 82.5357 74.5065C80.1669 82.3609 59.0577 96.929 59.0577 96.929L54.2602 92.8495C54.2602 92.8495 62.506 81.9966 64.8148 78.5144C66.5419 75.8982 69.8822 73.9271 69.8822 73.9271C69.8822 73.9271 55.3036 68.9397 49.5946 66.1623C43.8855 63.3849 41.7506 61.5512 41.2948 57.4955C40.8391 53.4399 41.9425 51.4449 42.5902 49.6172C43.2378 47.7895 47.9874 44.361 47.9874 44.361L59.0697 52.4066Z" fill="var(--fill-0, #263238)"/>
<path id="Vector_65" d="M41.7506 58.8573C41.7506 58.8573 41.7506 58.8872 41.7506 58.941C41.7506 58.9947 41.7506 59.0843 41.7506 59.1918C41.7931 59.5118 41.8633 59.8276 41.9605 60.1356C42.3271 61.2714 42.9579 62.3049 43.8016 63.1519C44.3816 63.739 45.0466 64.2363 45.7745 64.6272C46.5741 65.0254 47.4157 65.4395 48.2993 65.8696C50.0983 66.7118 52.0893 67.5838 54.2062 68.4559C58.4401 70.1821 62.3441 71.5738 65.1926 72.5055C66.6139 72.9714 67.7773 73.3238 68.5809 73.5568L69.5104 73.8136C69.6179 73.8488 69.7283 73.8748 69.8402 73.8913C69.7373 73.844 69.631 73.8041 69.5224 73.7718L68.6049 73.4791C67.8073 73.2223 66.6558 72.852 65.2406 72.3682C62.404 71.4005 58.512 69.979 54.2842 68.2588C52.1733 67.3927 50.1763 66.5266 48.3832 65.6964C47.4837 65.2783 46.6401 64.8801 45.8525 64.5018C45.1392 64.1217 44.4847 63.6408 43.9095 63.0742C43.0697 62.2491 42.4298 61.244 42.0385 60.1356C41.9363 59.8326 41.8542 59.5233 41.7926 59.2097C41.7926 58.9708 41.7806 58.8573 41.7506 58.8573Z" fill="var(--fill-0, #455A64)"/>
<path id="Vector_66" d="M59.9692 96.3855L66.5659 91.422L59.9932 85.1922L55.0338 90.9979L54.554 94.3965L57.5825 96.9112L59.9692 96.3855Z" fill="var(--fill-0, #263238)"/>
<path id="Vector_67" d="M57.3787 107.967C56.0304 106.799 54.8731 105.429 53.9484 103.905C52.8398 101.666 51.8685 99.3627 51.0399 97.0067C50.5601 95.7404 48.0415 92.7718 49.0309 91.8042C50.0204 90.8366 55.6815 90.3468 55.6815 90.3468C55.6815 90.3468 54.6501 91.4996 55.4297 92.5867C56.2874 93.6205 57.2258 94.5851 58.2362 95.4716C58.2362 95.4716 60.3232 95.4716 60.8089 96.0689C61.2947 96.6662 59.3157 97.6637 59.3157 97.6637C59.3157 97.6637 58.1163 100.65 58.3802 102.066C58.644 103.481 58.3082 103.714 59.1058 104.993C59.5586 105.634 59.8129 106.394 59.8374 107.179C59.8374 107.179 59.1837 108.427 58.638 108.373C58.199 108.306 57.7738 108.169 57.3787 107.967Z" fill="var(--fill-0, #455A64)"/>
<path id="Vector_68" d="M58.6499 108.367C58.1965 108.335 57.756 108.202 57.3606 107.979C56.0126 106.814 54.857 105.446 53.9363 103.923C52.8298 101.683 51.8566 99.3792 51.0218 97.0246C50.5481 95.7524 48.0234 92.7898 49.0189 91.8222C49.2882 91.5403 49.6275 91.3343 50.0024 91.2249C50.0024 91.2249 51.2677 95.0595 52.3352 96.6005C53.4026 98.1415 54.5 102.239 55.6874 104.013C56.5654 105.259 57.5507 106.426 58.6319 107.501L59.3336 107.877C59.1417 108.14 58.9977 108.367 58.6499 108.367Z" fill="var(--fill-0, #E0E0E0)"/>
<path id="Vector_69" d="M58.4281 101.451C58.1894 101.527 57.9446 101.583 57.6964 101.618C57.4474 101.617 57.1988 101.597 56.9528 101.558C57.1787 101.698 57.443 101.762 57.708 101.743C57.9729 101.724 58.225 101.621 58.4281 101.451Z" fill="var(--fill-0, white)"/>
<path id="Vector_70" d="M58.662 99.8319C58.3729 99.9034 58.0778 99.9474 57.7804 99.9634C57.4818 99.9397 57.1864 99.8856 56.8989 99.802C57.1474 100.002 57.4612 100.104 57.7804 100.089C58.0962 100.116 58.4108 100.025 58.662 99.8319Z" fill="var(--fill-0, white)"/>
<path id="Vector_71" d="M59.0578 98.5299C59.0578 98.4941 58.7159 98.5 58.3141 98.4283C58.0733 98.3661 57.829 98.3182 57.5825 98.2849C57.7921 98.4364 58.0385 98.5292 58.2962 98.5539C58.5475 98.6148 58.8108 98.6066 59.0578 98.5299Z" fill="var(--fill-0, white)"/>
<path id="Vector_72" d="M52.623 93.9127C52.6619 94.0809 52.7266 94.2421 52.815 94.3906C52.9529 94.6773 53.1568 95.0655 53.4146 95.4776C53.6725 95.8898 53.9124 96.2601 54.0983 96.511C54.1896 96.6586 54.3005 96.7932 54.4281 96.9111C54.4581 96.9111 54.0203 96.2422 53.5226 95.4179C53.0248 94.5936 52.653 93.9008 52.623 93.9127Z" fill="var(--fill-0, white)"/>
<path id="Vector_73" d="M74.0081 72.5414C73.2048 72.4529 72.3921 72.568 71.6453 72.8759C71.1094 73.0654 70.6027 73.3288 70.1401 73.6584C70.0148 73.7663 69.878 73.8605 69.7323 73.9391C69.6304 73.9869 69.5644 73.969 69.5584 73.9869C69.5524 74.0048 69.6184 74.0466 69.7563 74.0168C69.9215 73.9635 70.0773 73.8849 70.2181 73.7838C70.6937 73.4995 71.1958 73.2614 71.7173 73.073C72.4668 72.8401 73.2325 72.6625 74.0081 72.5414Z" fill="var(--fill-0, #455A64)"/>
<path id="Vector_74" d="M45.4027 81.2022H17.0912V84.4634H45.4027V81.2022Z" fill="var(--fill-0, #FF725E)"/>
<path id="Vector_75" d="M9.9129 81.1724C9.9129 81.1724 11.1123 76.6748 12.2277 76.5792C13.3431 76.4836 39.8675 78.8728 39.8675 78.8728C39.8675 78.8728 42.2663 80.605 39.8675 82.576H37.9845C38.3409 82.8159 38.6353 83.1362 38.8438 83.5109C39.0522 83.8857 39.1688 84.3042 39.1839 84.7323C39.1839 86.1359 41.0789 108.744 38.5842 109.962C36.0895 111.181 13.4691 112.656 12.5276 108.529C11.586 104.401 9.9129 81.1724 9.9129 81.1724Z" fill="var(--fill-0, #455A64)"/>
<path id="Vector_76" d="M25.0852 77.4811C25.6009 77.4811 25.9248 78.0784 26.0987 78.6398C27.0702 81.6263 26.9562 84.9353 26.8243 88.1249L28.5814 87.8621C28.6903 87.8591 28.7954 87.8214 28.8813 87.7546C28.944 87.6755 28.9888 87.5838 29.0126 87.4859C29.0364 87.388 29.0386 87.2861 29.0192 87.1872C28.8932 83.9319 28.7553 80.6169 27.6159 77.5946C27.4634 77.4245 27.2692 77.2969 27.0522 77.2243C26.6204 77.0451 25.0612 76.7823 24.6894 77.4691L25.0852 77.4811Z" fill="var(--fill-0, #263238)"/>
<path id="Vector_77" d="M29.4809 85.3355H26.1046V89.3971H29.4809V85.3355Z" fill="var(--fill-0, #263238)"/>
<g id="Group_5" opacity="0.3">
<path id="Vector_78" d="M11.9699 77.8574C11.9159 78.3591 11.724 78.9743 12.0958 79.267C12.2466 79.3693 12.4233 79.4273 12.6056 79.4343L26.1526 81.1664C23.6879 81.5905 21.1752 81.3337 18.6805 81.2261C16.1857 81.1186 13.6251 81.1784 11.3042 82.1997C11.0824 82.3013 10.7945 82.3909 10.6266 82.1997C10.5743 82.1033 10.544 81.9966 10.5378 81.8872C10.5315 81.7777 10.5496 81.6683 10.5906 81.5666C10.8305 80.5632 11.0744 79.5577 11.3222 78.5503C11.4182 78.162 11.5741 77.7081 11.9219 77.6304C11.9279 77.6245 11.9939 77.6125 11.9699 77.8574Z" fill="var(--fill-0, black)"/>
</g>
<path id="Vector_79" d="M11.712 76.9793C11.712 76.9793 11.838 76.9793 11.9519 77.1525C12.0807 77.4119 12.1105 77.7091 12.0359 77.9887C11.9878 78.1855 11.9518 78.385 11.9279 78.586C11.9095 78.6936 11.9173 78.8041 11.9507 78.908C11.9841 79.012 12.0421 79.1064 12.1198 79.1833C12.3331 79.3243 12.5835 79.3991 12.8395 79.3984L13.751 79.4999C16.3117 79.7926 19.8499 80.2107 23.7479 80.6945C27.6459 81.1783 31.1781 81.6263 33.7328 81.9727L36.7312 82.3968L37.5528 82.4565C37.6485 82.47 37.7429 82.492 37.8347 82.5222C37.7393 82.5378 37.6421 82.5378 37.5468 82.5222L36.7192 82.4505L33.6848 82.122C31.1241 81.8353 27.5859 81.4172 23.6879 80.9275C19.7899 80.4377 16.2577 79.9897 13.703 79.6492L12.7915 79.5238C12.4979 79.5161 12.2144 79.4157 11.9819 79.2371C11.8874 79.1444 11.8172 79.0301 11.7774 78.904C11.7377 78.778 11.7297 78.6442 11.754 78.5144C11.788 78.3127 11.8341 78.1133 11.8919 77.9171C11.9787 77.6655 11.9787 77.3922 11.8919 77.1406C11.8436 77.0752 11.7824 77.0203 11.712 76.9793Z" fill="var(--fill-0, #263238)"/>
<g id="Group_6" opacity="0.3">
<path id="Vector_80" d="M30.1765 81.6204L30.2425 81.6682C32.7103 82.8154 35.4786 83.1564 38.1524 82.6424C35.5141 82.1592 32.8516 81.8181 30.1765 81.6204Z" fill="var(--fill-0, black)"/>
</g>
<path id="Vector_81" d="M16.2217 107.812C16.1112 107.497 16.0289 107.173 15.9758 106.844C15.8319 106.217 15.652 105.309 15.4481 104.18C15.0403 101.916 14.5786 98.8044 14.2487 95.2864C13.9189 91.7683 13.8469 88.6205 13.8529 86.3269C13.8529 85.1801 13.8529 84.2543 13.9069 83.6092C13.9043 83.2771 13.9303 82.9454 13.9849 82.6177C14.0242 82.9487 14.0383 83.2821 14.0268 83.6152C14.0268 84.3081 14.0568 85.2219 14.0748 86.3269C14.1228 88.6146 14.2547 91.7802 14.5606 95.2864C14.8664 98.7925 15.2862 101.904 15.64 104.168C15.8139 105.255 15.9578 106.163 16.0718 106.844C16.1499 107.162 16.2001 107.485 16.2217 107.812Z" fill="var(--fill-0, #263238)"/>
<path id="Vector_82" d="M38.6622 107.37C38.3868 107.457 38.1036 107.517 37.8166 107.549C37.2709 107.645 36.4793 107.758 35.4958 107.878C32.9321 108.186 30.3538 108.359 27.7718 108.398C25.188 108.438 22.6038 108.344 20.0297 108.117C19.0462 108.027 18.2307 107.938 17.6969 107.86C17.4114 107.834 17.1285 107.784 16.8514 107.71C17.1375 107.69 17.425 107.7 17.7089 107.74L20.0477 107.896C22.0207 108.021 24.7493 108.129 27.7658 108.087C30.7822 108.045 33.5048 107.842 35.4718 107.657L37.7986 107.429C38.0841 107.384 38.3731 107.364 38.6622 107.37Z" fill="var(--fill-0, #263238)"/>
<path id="Vector_83" d="M79.9091 28.3355C79.9751 28.5267 76.6468 39.5468 75.7113 41.3267C74.7757 43.1066 60.4311 53.189 60.4311 53.189C60.4311 53.189 55.1658 49.8203 53.7625 49.4081C52.3592 48.996 51.0879 46.7442 47.2918 47.7178C44.4133 48.4524 42.6082 49.0916 42.6082 49.0916C42.6082 49.0916 42.2964 45.466 48.809 37.7847C55.3217 30.1035 61.7804 24.3575 67.2316 22.4283L72.6768 20.505L79.9091 28.3355Z" fill="var(--fill-0, #EBEBEB)"/>
<path id="Vector_84" d="M60.0053 32.1105C60.0053 32.1105 64.527 36.7455 68.7128 36.3692C71.4986 36.0343 74.2007 35.2006 76.6887 33.9084L77.8881 37.737C77.8881 37.737 71.7892 39.2004 68.5749 39.4274C65.3605 39.6544 57.5885 35.6704 57.5885 35.6704L60.0053 32.1105Z" fill="var(--fill-0, #263238)"/>
<path id="Vector_85" d="M71.1356 19.1431C72.7189 19.5685 74.1309 20.472 75.1775 21.7294C76.4347 23.3815 77.5539 25.1335 78.5238 26.9677C78.5238 26.9677 75.6333 24.1246 71.8012 24.5785C67.9692 25.0325 66.9557 26.7646 65.5105 28.3773C64.0652 29.99 57.7804 37.5518 57.7804 37.5518L67.7113 49.2588L62.3681 53.3443L51.7655 44.0981L43.034 48.8765L52.3472 37.1337L68.1911 20.487L71.1356 19.1431Z" fill="var(--fill-0, #263238)"/>
<path id="Vector_86" d="M33.8287 28.8193C38.0536 24.3676 42.8507 20.4914 48.0954 17.2915C48.2933 17.5543 48.6231 18.1994 48.821 18.4861C44.0235 22.5417 38.974 26.0957 34.2964 30.3126" fill="var(--fill-0, #455A64)"/>
<path id="Vector_87" d="M49.5316 16.3089L47.8538 17.2737L48.6368 18.6245L50.3146 17.6597L49.5316 16.3089Z" fill="var(--fill-0, #263238)"/>
<path id="Vector_88" d="M18.2606 41.0102C18.3626 41.8225 18.4585 42.6288 18.5605 43.4412C21.4989 42.9107 24.2608 41.6675 26.6024 39.8215L28.3175 35.7599C25.7182 38.6705 22.1426 40.5371 18.2606 41.0102Z" fill="var(--fill-0, #455A64)"/>
<path id="Vector_89" d="M35.6458 29.2255C35.0915 28.9085 34.469 28.7284 33.8304 28.7004C33.1918 28.6723 32.5559 28.7971 31.9757 29.0642C30.8213 29.6146 29.7785 30.3719 28.8992 31.2981C27.3161 32.8212 25.7928 34.4996 25.0312 36.5543C24.2696 38.609 25.0312 41.2491 26.5664 42.8438L31.8018 40.4546L35.6458 29.2255Z" fill="var(--fill-0, #FF725E)"/>
<g id="Group_7" opacity="0.3">
<path id="Vector_90" d="M27.8797 32.3255C27.9397 32.2539 30.4284 33.8964 30.4284 33.8964L27.28 43.7936C27.28 43.7936 25.5709 41.942 25.0672 40.2815C24.7996 39.5742 24.6827 38.8191 24.724 38.0643C24.7653 37.3095 24.9638 36.5715 25.307 35.8973C25.9576 34.5716 26.8273 33.3642 27.8797 32.3255Z" fill="var(--fill-0, black)"/>
</g>
<path id="Vector_91" d="M71.1356 19.1431C71.1356 19.1431 67.6934 12.9074 65.1387 10.7511C62.584 8.59491 52.3592 9.72977 50.6861 12.8596C48.917 16.1567 49.4327 18.4324 49.4327 18.4324C49.4327 18.4324 33.6368 29.4047 30.3565 34.3145C26.8483 39.6005 26.5365 41.9957 26.5604 43.2142C26.6384 47.1264 31.1661 50.0652 35.4239 51.194C39.6817 52.3229 42.0625 49.8262 42.0625 49.8262C42.0625 49.8262 54.4461 36.2557 56.8089 33.5201C59.1717 30.7844 71.1356 19.1431 71.1356 19.1431Z" fill="var(--fill-0, #FF725E)"/>
<path id="Vector_92" d="M55.3096 19.3343C55.1537 19.5732 47.3037 26.6093 45.8045 28.891C44.815 30.3902 43.8015 31.7222 45.7145 33.8426C46.4258 34.6182 47.1913 35.3428 48.0054 36.0108C48.5305 36.4443 49.1958 36.673 49.8776 36.6543C50.5594 36.6356 51.2111 36.3708 51.7115 35.9092C54.6679 33.1975 60.515 27.78 61.8523 26.1255L55.3096 19.3343Z" fill="var(--fill-0, #263238)"/>
<path id="Vector_93" d="M55.3097 19.3343C55.3097 19.3343 55.5076 19.4716 55.8135 19.7703C56.1193 20.0689 56.569 20.493 57.1088 21.0366C58.1882 22.1117 59.6695 23.6229 61.3066 25.3013L62.0263 26.0419L62.1342 26.1554L62.0203 26.2629C60.509 27.7084 59.1537 28.9746 58.1762 29.8467L57.0128 30.8979C56.737 31.1428 56.5751 31.2682 56.5631 31.2503C56.6691 31.0925 56.7939 30.9481 56.9349 30.8203L58.0323 29.7033C58.9738 28.7596 60.2991 27.4635 61.8044 26.018V26.233C61.5705 25.9941 61.3306 25.7433 61.0788 25.4924C59.4596 23.814 58.0083 22.2849 56.9649 21.162C56.4491 20.6065 56.0293 20.1466 55.7655 19.83C55.5977 19.68 55.445 19.5139 55.3097 19.3343Z" fill="var(--fill-0, #455A64)"/>
<g id="Group_8" opacity="0.3">
<path id="Vector_94" d="M50.662 12.8298L56.0893 15.4818L49.4087 18.4026C49.4087 18.4026 48.9469 15.9895 50.662 12.8298Z" fill="var(--fill-0, black)"/>
</g>
<g id="Group_9" opacity="0.3">
<path id="Vector_95" d="M36.1855 32.3254C36.1855 32.3254 28.7433 40.162 30.1885 44.1639C31.6338 48.1657 37.013 49.9636 39.4658 48.9422C41.9185 47.9208 46.5002 41.7747 46.5002 41.7747L36.1855 32.3254Z" fill="var(--fill-0, black)"/>
</g>
<path id="Vector_96" d="M56.1073 15.4339C55.1365 15.1514 54.1979 14.7691 53.3067 14.2931C52.3727 13.9086 51.4806 13.4302 50.644 12.8655C51.6143 13.1518 52.5527 13.5361 53.4446 14.0123C54.3777 14.3963 55.2697 14.8726 56.1073 15.4339Z" fill="var(--fill-0, #263238)"/>
<path id="Vector_97" d="M64.7728 10.6316C64.7728 10.6794 64.1731 10.8586 63.1956 11.2289C61.949 11.8138 60.6362 12.247 59.2856 12.5191C58.5216 12.6499 57.7382 12.6153 56.9888 12.4175C56.3869 12.235 55.8195 11.9545 55.3096 11.5873C54.9664 11.3484 54.638 11.0891 54.3261 10.8108C54.1103 10.6137 53.9963 10.5002 54.0083 10.4823C54.4974 10.7648 54.9717 11.0718 55.4296 11.4021C55.9333 11.7269 56.4832 11.9746 57.0607 12.1368C57.7758 12.3081 58.5181 12.3345 59.2436 12.2145C60.5688 11.9345 61.8655 11.5346 63.1176 11.0199C63.6457 10.8054 64.2041 10.6744 64.7728 10.6316Z" fill="var(--fill-0, #263238)"/>
<path id="Vector_98" d="M46.4822 43.6322C46.4822 43.6322 49.0729 44.2773 51.4296 44.7193C52.8809 45.0001 54.3501 45.6272 55.7594 45.1733C56.7951 44.746 57.7213 44.0929 58.47 43.2619C59.0158 42.7423 59.6034 42.139 59.6394 41.3864C59.6195 40.8561 59.458 40.3407 59.1717 39.8932C58.2781 38.167 56.485 34.7266 55.5735 33.0004" fill="var(--fill-0, #FF725E)"/>
<path id="Vector_99" d="M55.5855 33.0004C55.7758 33.2598 55.9424 33.5356 56.0833 33.8246L57.3366 36.1242L59.1357 39.5467C59.3242 39.8779 59.4904 40.2211 59.6335 40.5741C59.8129 40.9717 59.851 41.4183 59.7414 41.8404C59.4715 42.6825 58.7699 43.2201 58.1762 43.7995C57.5816 44.3954 56.8851 44.8809 56.1192 45.233C55.3745 45.5213 54.5607 45.5837 53.7804 45.4122C53.0428 45.2868 52.3772 45.0777 51.7475 44.9403L49.9844 44.5342L47.4297 43.9369C47.1146 43.8744 46.8055 43.7844 46.5062 43.6681C46.8272 43.6946 47.1459 43.7445 47.4597 43.8174L50.0264 44.3311L51.8254 44.6954C52.4731 44.8328 53.1388 45.0299 53.8464 45.1434C54.5743 45.2929 55.3299 45.2307 56.0233 44.9642C56.7538 44.6236 57.4178 44.1564 57.9843 43.5845C58.6192 43.1044 59.1292 42.4797 59.4715 41.7627C59.7054 41.0519 59.2676 40.3531 58.9498 39.714C58.2901 38.4298 57.6964 37.2591 57.1867 36.2616L56.0233 33.9143C55.8499 33.6234 55.7034 33.3176 55.5855 33.0004Z" fill="var(--fill-0, #263238)"/>
<path id="Vector_100" d="M55.2737 15.9356C55.0903 16.1841 54.89 16.4195 54.674 16.6405C54.2542 17.0765 53.6365 17.6977 52.8749 18.4323C51.3037 19.9196 49.0429 21.8787 46.4402 23.9096C45.1449 24.9309 43.8916 25.8806 42.7521 26.7407L41.121 27.9353C40.6505 28.299 40.1556 28.6303 39.6397 28.9268C38.8808 29.3768 37.9854 29.542 37.115 29.3927C36.8846 29.3516 36.6594 29.2855 36.4434 29.1956C36.3645 29.1697 36.2912 29.1292 36.2275 29.0762C36.2275 29.0463 36.5453 29.2016 37.133 29.2733C37.9707 29.3707 38.8167 29.1811 39.5318 28.7357C40.4493 28.1981 41.4328 27.344 42.5782 26.4958L46.2483 23.6467C48.845 21.6159 51.1238 19.6926 52.725 18.2711L54.6141 16.5449C54.8135 16.3209 55.0344 16.1169 55.2737 15.9356Z" fill="var(--fill-0, #263238)"/>
<path id="Vector_101" d="M66.416 11.9756C65.9266 12.2102 65.4167 12.4001 64.8928 12.5431L61.1867 13.7675L57.4866 15.0338C56.9851 15.2385 56.465 15.3945 55.9334 15.4997C56.4014 15.2264 56.8956 15.0003 57.4086 14.8247C58.3382 14.4484 59.6395 13.9646 61.0848 13.4749C62.53 12.9851 63.8614 12.5849 64.8269 12.3161C65.3438 12.1497 65.8762 12.0357 66.416 11.9756Z" fill="var(--fill-0, #263238)"/>
<path id="Vector_102" d="M35.4059 29.3749C35.4358 29.4227 34.6383 29.9722 33.4748 31.0234C31.9659 32.3901 30.6343 33.9391 29.5109 35.6345C28.3726 37.3172 27.5329 39.1819 27.0282 41.1476C26.6623 42.6647 26.6863 43.6443 26.6203 43.6383C26.596 43.412 26.596 43.1837 26.6203 42.9574C26.6196 42.6894 26.6397 42.4219 26.6803 42.157C26.6803 41.9977 26.6983 41.8305 26.7343 41.6553C26.7703 41.4801 26.8063 41.2949 26.8422 41.0998C27.2927 39.0852 28.1186 37.1726 29.277 35.4613C30.4129 33.7435 31.7879 32.1949 33.3609 30.8621C33.8339 30.4551 34.3305 30.0762 34.8481 29.7273C35.0193 29.5882 35.2066 29.4699 35.4059 29.3749Z" fill="var(--fill-0, #263238)"/>
<path id="Vector_103" d="M77.0831 13.8122C77.5958 10.233 75.0983 6.9175 71.5047 6.40683C67.9111 5.89615 64.5823 8.38371 64.0696 11.9629C63.5569 15.5421 66.0544 18.8576 69.648 19.3683C73.2415 19.879 76.5703 17.3914 77.0831 13.8122Z" fill="var(--fill-0, #455A64)"/>
<path id="Vector_104" d="M75.7232 12.9074C75.6872 12.9074 75.7232 12.4654 75.5073 11.7128C75.2133 10.6399 74.5673 9.69579 73.6722 9.03093C73.0169 8.54327 72.2498 8.22614 71.4403 8.10828C70.6309 7.99043 69.8047 8.07557 69.0366 8.35598C68.6049 8.51408 68.2003 8.73772 67.8372 9.01897C67.44 9.30609 67.0917 9.65499 66.8058 10.0523C66.1902 10.8825 65.8581 11.8873 65.8581 12.9193C65.8581 13.9513 66.1902 14.9562 66.8058 15.7863C67.0896 16.1835 67.4359 16.5324 67.8312 16.8197C68.2062 17.1044 68.6228 17.33 69.0666 17.4886C69.8347 17.7691 70.6609 17.8542 71.4703 17.7363C72.2798 17.6185 73.0469 17.3014 73.7022 16.8137C74.5978 16.1467 75.2437 15.2006 75.5373 14.1259C75.7412 13.3673 75.7172 12.9313 75.7532 12.9313C75.7685 13.0382 75.7685 13.1468 75.7532 13.2538C75.7494 13.5617 75.7112 13.8682 75.6392 14.1677C75.3872 15.2906 74.7512 16.2913 73.8402 16.9989C73.1616 17.5275 72.3592 17.8756 71.5084 18.0104C70.6576 18.1452 69.7864 18.0623 68.9767 17.7694C68.5045 17.6072 68.0612 17.3713 67.6633 17.0705C67.2415 16.7689 66.871 16.4019 66.5659 15.9834C65.9082 15.1018 65.5531 14.0326 65.5531 12.9343C65.5531 11.8359 65.9082 10.7667 66.5659 9.88506C67.1676 9.06226 68.0031 8.43808 68.9647 8.09317C69.8332 7.78356 70.7692 7.71137 71.6753 7.88412C72.4606 8.03636 73.1985 8.37209 73.8282 8.86369C74.7373 9.57036 75.3729 10.5685 75.6272 11.6889C75.6993 11.9903 75.7375 12.2989 75.7412 12.6087C75.7492 12.7086 75.7432 12.8091 75.7232 12.9074Z" fill="var(--fill-0, #263238)"/>
<path id="Vector_105" d="M74.0741 12.8657C74.0741 12.8657 74.0741 12.567 73.9121 12.0593C73.7105 11.3425 73.276 10.7124 72.6768 10.2674C72.1947 9.90777 71.6216 9.68887 71.0216 9.63527C70.4217 9.58166 69.8186 9.69547 69.28 9.96393C68.7413 10.2324 68.2883 10.6449 67.9717 11.1553C67.6551 11.6657 67.4874 12.2538 67.4874 12.8537C67.4874 13.4536 67.6551 14.0417 67.9717 14.5521C68.2883 15.0625 68.7413 15.475 69.28 15.7435C69.8186 16.012 70.4217 16.1258 71.0216 16.0722C71.6216 16.0186 72.1947 15.7997 72.6768 15.44C73.276 14.9951 73.7105 14.365 73.9121 13.6481C74.0501 13.1404 74.0441 12.8418 74.0741 12.8418C74.1041 12.8418 74.0741 12.9194 74.0741 13.0568C74.0743 13.2577 74.0521 13.458 74.0081 13.6541C73.8449 14.4146 73.4208 15.0946 72.8087 15.5774C72.2907 15.9763 71.6708 16.2226 71.0194 16.2883C70.3679 16.3541 69.7111 16.2366 69.1233 15.9492C68.5355 15.6618 68.0403 15.2161 67.6941 14.6626C67.3478 14.1091 67.1642 13.47 67.1642 12.8179C67.1642 12.1657 67.3478 11.5266 67.6941 10.9731C68.0403 10.4196 68.5355 9.9739 69.1233 9.68654C69.7111 9.39918 70.3679 9.2817 71.0194 9.34743C71.6708 9.41315 72.2907 9.65945 72.8087 10.0584C73.4197 10.5421 73.8435 11.2218 74.0081 11.9817C74.0519 12.1778 74.074 12.3781 74.0741 12.579C74.0921 12.794 74.0861 12.8657 74.0741 12.8657Z" fill="var(--fill-0, #263238)"/>
<path id="Vector_106" d="M72.275 12.8954C72.275 12.8954 72.239 12.7521 72.167 12.5251C72.0557 12.2058 71.8458 11.9298 71.5673 11.7367C71.3711 11.5962 71.143 11.5062 70.9033 11.475C70.6637 11.4437 70.42 11.472 70.1941 11.5575C69.92 11.659 69.6837 11.8416 69.5168 12.0808C69.35 12.3199 69.2606 12.6042 69.2606 12.8954C69.2606 13.1866 69.35 13.4709 69.5168 13.71C69.6837 13.9492 69.92 14.1318 70.1941 14.2334C70.4203 14.3172 70.6637 14.3447 70.903 14.3135C71.1424 14.2823 71.3704 14.1932 71.5673 14.0542C71.8465 13.8592 72.0565 13.581 72.167 13.2598C72.239 13.0328 72.245 12.8954 72.275 12.8954C72.3127 13.0241 72.3127 13.1609 72.275 13.2896C72.2074 13.6599 72.0071 13.9932 71.7113 14.2274C71.4898 14.4049 71.2266 14.5233 70.9464 14.5713C70.6663 14.6194 70.3784 14.5956 70.1101 14.5021C69.7756 14.3855 69.4858 14.1683 69.2808 13.8804C69.0757 13.5926 68.9656 13.2484 68.9656 12.8954C68.9656 12.5425 69.0757 12.1982 69.2808 11.9104C69.4858 11.6225 69.7756 11.4053 70.1101 11.2887C70.3779 11.1944 70.6655 11.1696 70.9456 11.2167C71.2257 11.2637 71.4893 11.381 71.7113 11.5575C72.0071 11.7917 72.2074 12.1249 72.275 12.4952C72.3125 12.626 72.3125 12.7646 72.275 12.8954Z" fill="var(--fill-0, #263238)"/>
<path id="Vector_107" d="M75.2015 26.454C75.2015 26.454 79.8071 26.6213 80.5987 30.1095C81.3903 33.5977 84.4127 48.548 84.7965 49.3723C85.1803 50.1965 97.7139 63.5999 97.7139 63.5999L93.3721 67.0821C93.3721 67.0821 81.7741 57.3701 78.8835 53.189C75.7651 48.6973 70.3259 32.212 69.8522 30.1633C69.3784 28.1145 71.7892 25.797 75.2015 26.454Z" fill="var(--fill-0, #FFBF9D)"/>
<path id="Vector_108" d="M98.0618 63.8268C98.0618 63.8268 100.676 64.2151 100.892 64.2987C101.885 65.0543 102.825 65.8764 103.705 66.7596C104.047 67.1896 104.305 68.88 103.513 69.4534L103.039 69.758C103.039 69.758 102.883 71.0063 101.978 71.1497C101.072 71.293 101.12 71.1079 101.12 71.1079C101.12 71.1079 101.342 72.2188 100.341 72.1531L99.3391 72.0815C99.3391 72.0815 98.6315 73.1088 97.9898 72.7325C97.3482 72.3562 94.9194 70.3433 94.6795 69.5967C94.4396 68.8501 94.2297 68.1931 94.2297 68.1931L91.765 66.5027L96.6765 61.9035L98.0618 63.8268Z" fill="var(--fill-0, #263238)"/>
<path id="Vector_109" d="M83.0035 40.9325L73.6603 44.5939C73.6603 44.5939 69.1086 34.1592 68.7188 32.0089C68.329 29.8587 68.9407 25.3491 72.6108 24.7339C76.281 24.1186 79.4653 26.7647 80.6467 31.0234C81.8281 35.2821 83.0035 40.9325 83.0035 40.9325Z" fill="var(--fill-0, #EBEBEB)"/>
<path id="Vector_110" d="M83.0035 40.9325C83.0101 40.887 83.0101 40.8407 83.0035 40.7951L82.9255 40.4009L82.6197 38.8838C82.3439 37.5697 81.93 35.6763 81.3543 33.3409C81.2044 32.7436 81.0485 32.1463 80.8806 31.5132C80.7162 30.8477 80.5037 30.195 80.2449 29.56C79.6702 28.1241 78.7323 26.8607 77.5223 25.8926C76.8425 25.3644 76.0637 24.9765 75.2315 24.7518C74.3443 24.5196 73.4163 24.487 72.5149 24.6562C71.5856 24.8322 70.7416 25.3113 70.1161 26.0181C69.5026 26.7287 69.0669 27.5741 68.8448 28.4849C68.6359 29.2741 68.5351 30.0878 68.5449 30.9039C68.5489 31.3049 68.589 31.7047 68.6649 32.0985C68.753 32.4821 68.861 32.8609 68.9887 33.2334C69.4864 34.7087 70.0442 36.1004 70.5839 37.4144C71.6633 40.0903 72.7068 42.5154 73.6183 44.582L73.6543 44.6596L73.7323 44.6238L80.5627 41.9061L82.4098 41.1535C82.6137 41.0759 82.7696 41.0102 82.8895 40.9564L83.0395 40.8907L82.8656 40.9504L82.3678 41.1296L80.4848 41.8464L73.6663 44.4805L73.7742 44.5223C72.8747 42.4258 71.8492 40.0007 70.7758 37.3547C70.2421 36.0168 69.6903 34.6191 69.1926 33.1736C68.6682 31.6774 68.6221 30.0561 69.0606 28.5327C69.2647 27.6529 69.6758 26.834 70.26 26.1435C70.8572 25.4672 71.6668 25.0124 72.5569 24.8533C73.424 24.6892 74.3167 24.7178 75.1715 24.937C75.9789 25.1558 76.735 25.5313 77.3964 26.0419C78.5832 26.9883 79.5061 28.2223 80.077 29.6257C80.3339 30.2538 80.5483 30.8983 80.7187 31.555C80.8866 32.1881 81.0485 32.7973 81.1984 33.3767C81.7981 35.7002 82.2299 37.5936 82.5357 38.9017L82.8836 40.4069C82.9256 40.5682 82.9555 40.6996 82.9795 40.8011L83.0035 40.9325Z" fill="var(--fill-0, #263238)"/>
</g>
</svg>
