<svg preserveAspectRatio="none" width="100%" height="100%" overflow="visible" style="display: block;" viewBox="0 0 128 139" fill="none" xmlns="http://www.w3.org/2000/svg">
<g id="freepik--character-1--inject-69">
<path id="Vector" d="M89.1503 77.5888L91.3269 79.4148L96.9537 72.7372L94.3526 71.4124L89.1503 77.5888Z" fill="var(--fill-0, #E0E0E0)"/>
<path id="Vector_2" d="M60.9384 50.0131C60.9384 50.0131 87.2488 64.5379 84.8151 72.5224C82.3813 80.5069 60.9264 95.3659 60.9264 95.3659L56.0471 91.1886C56.0471 91.1886 64.4185 80.119 66.8104 76.5505C68.5624 73.889 71.9648 71.872 71.9648 71.872C71.9648 71.872 57.1294 66.7877 51.3231 63.9472C45.5169 61.1067 43.3164 59.3164 42.8799 55.1631C42.4434 51.0097 43.5317 48.9867 44.1894 47.1309C44.8472 45.275 49.6728 41.7601 49.6728 41.7601L60.9384 50.0131Z" fill="var(--fill-0, #263238)"/>
<path id="Vector_3" d="M99.1962 137.186L100.512 126.009L99.8479 137.246L99.1962 137.186ZM106.766 124.559L102.449 115.327L107.095 125.203L111.969 134.972L111.688 135.109L106.766 124.559ZM87.8468 132.853L100.607 115.1L87.8887 132.865L87.8468 132.853ZM112.262 120.96L103.352 114.611L103.591 114.283L112.692 121.271L121.153 127.298L112.704 121.277L120.938 127.59L112.262 120.96ZM100.512 126.009L101.749 115.5L100.494 126.349L100.512 126.009ZM89.6527 118.967L79.864 123.24L89.8739 118.848L99.531 113.71L99.9077 114.492L89.6527 118.967ZM114.468 114.706L104.082 112.874L114.845 114.754L125.722 116.109L125.638 116.67L114.468 114.706ZM77.3944 112.319H99.2739H77.4183H77.3944ZM103.914 111.126L115.491 107.73L124.861 104.806L115.556 107.724L124.921 104.979L114.492 108.059L103.986 111.335L103.914 111.126ZM89.1384 107.468L78.698 104.21L78.9013 103.613L89.4793 107.569L99.4114 111.299L89.1384 107.468ZM92.6066 101.638L85.0603 94.1008L92.6305 101.656L85.7181 93.504L92.7979 101.823L100.536 109.545L99.8479 110.171L92.6066 101.638ZM102.999 109.688L111.371 101.93L118.761 94.5543L111.424 101.93L119.096 94.8586L111.078 102.276L103.34 109.998L102.999 109.688ZM104.996 99.8952L102.078 109.204L105.325 98.7793L108.411 88.3064L108.602 88.366L105.014 99.8952L102.252 109.252L104.996 99.8952ZM98.6281 98.6181L95.9731 88.0259L96.1406 87.9901L98.9689 99.9847L101.277 109.21L98.9928 99.9608L101.205 109.216L98.6281 98.6181Z" fill="var(--fill-0, #E0E0E0)"/>
<path id="Vector_4" d="M76.9938 112.672C76.9938 107.794 78.4432 103.025 81.1588 98.9692C83.8744 94.9133 87.7342 91.7521 92.25 89.8854C96.7659 88.0187 101.735 87.5303 106.529 88.4819C111.323 89.4336 115.727 91.7825 119.183 95.2318C122.639 98.681 124.993 103.076 125.947 107.86C126.9 112.644 126.411 117.603 124.54 122.11C122.67 126.617 119.502 130.468 115.438 133.179C111.374 135.889 106.596 137.335 101.708 137.335C95.1555 137.327 88.874 134.726 84.241 130.103C79.608 125.479 77.0017 119.21 76.9938 112.672ZM78.1897 112.672C78.1909 117.313 79.5712 121.85 82.1561 125.709C84.741 129.568 88.4144 132.575 92.7118 134.351C97.0093 136.126 101.738 136.59 106.299 135.684C110.861 134.778 115.051 132.542 118.339 129.259C121.628 125.977 123.867 121.795 124.774 117.242C125.681 112.69 125.215 107.971 123.435 103.683C121.655 99.3944 118.64 95.7292 114.773 93.1505C110.905 90.5719 106.359 89.1955 101.708 89.1955C95.4716 89.2034 89.4935 91.6795 85.0846 96.0806C80.6756 100.482 78.196 106.448 78.1897 112.672Z" fill="var(--fill-0, #E0E0E0)"/>
<path id="Vector_5" d="M75.3792 112.671C75.3792 107.478 76.9223 102.402 79.8133 98.084C82.7043 93.766 86.8134 90.4006 91.621 88.4133C96.4286 86.426 101.719 85.906 106.822 86.9192C111.926 87.9323 116.614 90.433 120.294 94.1051C123.973 97.7772 126.479 102.456 127.494 107.549C128.51 112.642 127.989 117.922 125.997 122.72C124.006 127.517 120.634 131.618 116.307 134.503C111.98 137.388 106.893 138.928 101.69 138.928C94.716 138.914 88.0321 136.143 83.1011 131.222C78.17 126.301 75.3934 119.631 75.3792 112.671ZM76.9698 112.671C76.9698 117.554 78.4206 122.327 81.1389 126.387C83.8571 130.447 87.7206 133.611 92.2408 135.48C96.761 137.348 101.735 137.837 106.534 136.885C111.332 135.932 115.74 133.581 119.2 130.128C122.659 126.676 125.015 122.277 125.97 117.488C126.924 112.699 126.435 107.735 124.562 103.224C122.69 98.713 119.519 94.8574 115.451 92.1447C111.383 89.432 106.6 87.9841 101.708 87.9841C95.1491 87.992 88.8616 90.5955 84.224 95.2236C79.5865 99.8516 76.9777 106.126 76.9698 112.671Z" fill="var(--fill-0, #263238)"/>
<path id="Vector_6" d="M78.1538 112.743V112.361C78.1538 112.111 78.1538 111.735 78.2076 111.245C78.4343 107.892 79.3783 104.626 80.9761 101.668C82.5738 98.7097 84.7882 96.1273 87.4701 94.0948C90.3823 91.8959 93.7656 90.4007 97.3544 89.7266C100.744 89.091 104.231 89.2088 107.57 90.0715C110.908 90.9343 114.015 92.5207 116.669 94.7181C119.323 96.9154 121.459 99.6695 122.926 102.785C124.392 105.899 125.152 109.299 125.152 112.74C125.152 116.182 124.392 119.581 122.926 122.696C121.459 125.811 119.323 128.565 116.669 130.762C114.015 132.96 110.908 134.546 107.57 135.409C104.231 136.272 100.744 136.389 97.3544 135.754C93.7623 135.09 90.3765 133.594 87.4701 131.385C84.7855 129.357 82.5691 126.776 80.971 123.818C79.373 120.86 78.4305 117.594 78.2076 114.241C78.1658 113.752 78.1717 113.376 78.1538 113.119V112.743C78.1538 112.743 78.1538 113.256 78.1837 114.241C78.2618 115.676 78.476 117.101 78.8235 118.496C79.3749 120.707 80.2472 122.826 81.4127 124.785C83.8638 128.923 87.5263 132.211 91.907 134.208C93.6404 135.004 95.4662 135.581 97.3424 135.927C101.501 136.706 105.792 136.364 109.774 134.936C114.876 133.105 119.193 129.58 121.999 124.95C124.806 120.321 125.933 114.869 125.191 109.509C124.449 104.149 121.882 99.2065 117.923 95.5103C113.963 91.8141 108.85 89.5888 103.442 89.2074C101.402 89.056 99.3516 89.1723 97.3424 89.5536C95.4665 89.9003 93.6407 90.4776 91.907 91.2722C90.3069 92.001 88.7944 92.9078 87.3983 93.9755C84.9952 95.8155 82.9657 98.096 81.4187 100.695C80.2532 102.654 79.3809 104.773 78.8295 106.985C78.4824 108.38 78.2681 109.804 78.1897 111.239C78.1359 112.224 78.1538 112.743 78.1538 112.743Z" fill="var(--fill-0, #263238)"/>
<path id="Vector_7" d="M23.8169 137.263L25.1324 126.086L26.3702 115.584L25.1145 126.427L24.4746 137.323L23.8169 137.263ZM31.3931 124.636L36.6252 135.056L36.3442 135.193L31.3931 124.636ZM12.4675 132.961L25.2041 115.208L12.4855 132.961H12.4675ZM36.8824 121.026L27.9727 114.677L28.2119 114.348L37.3129 121.336L45.7741 127.369L37.3249 121.342L45.5588 127.662L36.8824 121.026ZM31.3931 124.607L27.0578 115.405L31.704 125.287L31.3931 124.607ZM14.2734 119.015L4.48473 123.288L14.5006 118.925L24.1517 113.787L24.5344 114.569L14.2734 119.045L4.84949 124.063L14.2734 119.015ZM39.1307 114.76L28.7022 112.922L39.4656 114.802L50.3306 116.079L50.2349 116.718L39.1307 114.76ZM2.057 112.373H23.9365H2.03906H2.057ZM28.5826 111.18L40.1592 107.784L49.5233 104.86L40.213 107.802L49.5771 105.057L39.1487 108.136L28.6424 111.412L28.5826 111.18ZM13.801 107.522L3.34262 104.317L3.55191 103.72L14.1239 107.683L24.068 111.377L13.801 107.522ZM17.2692 101.691L9.68103 94.1724L17.2512 101.721L10.3149 93.5757L17.4187 101.93L25.1563 109.652L24.4687 110.279L17.2692 101.691ZM27.6558 109.742L36.0273 101.984L43.4181 94.6081L36.0273 102.002L43.6992 94.9363L35.6984 102.348L27.9608 110.076L27.6558 109.742ZM23.2847 98.6719L23.6255 100.038L25.8081 109.294L23.2847 98.6719ZM29.9819 98.833L29.653 99.9489L26.7349 109.258L29.9819 98.833ZM20.6297 88.0916L20.7972 88.0558L23.6255 100.05L20.6297 88.0916ZM33.0674 88.3721L33.2647 88.4317L29.6769 99.9609L33.0674 88.3721Z" fill="var(--fill-0, #E0E0E0)"/>
<path id="Vector_8" d="M1.61444 112.743C1.61444 107.865 3.06388 103.097 5.77947 99.0409C8.49506 94.985 12.3548 91.8238 16.8707 89.9571C21.3866 88.0904 26.3557 87.6019 31.1497 88.5536C35.9437 89.5052 40.3473 91.8542 43.8036 95.3035C47.2599 98.7527 49.6136 103.147 50.5672 107.932C51.5208 112.716 51.0314 117.675 49.1609 122.182C47.2903 126.688 44.1227 130.54 40.0585 133.25C35.9944 135.96 31.2162 137.407 26.3283 137.407C19.7762 137.399 13.4947 134.798 8.86169 130.174C4.22866 125.551 1.62235 119.282 1.61444 112.743ZM2.81037 112.743C2.81037 117.387 4.19017 121.926 6.77527 125.786C9.36037 129.647 13.0347 132.656 17.3334 134.433C21.6322 136.209 26.3624 136.674 30.9257 135.768C35.4891 134.861 39.6806 132.625 42.9702 129.341C46.2599 126.057 48.4998 121.874 49.4068 117.32C50.3138 112.765 49.8471 108.045 48.0657 103.755C46.2844 99.4656 43.2683 95.7996 39.399 93.2207C35.5298 90.6419 30.9811 89.266 26.3283 89.2672C20.0918 89.2735 14.1127 91.7491 9.70349 96.1505C5.29423 100.552 2.81512 106.519 2.81037 112.743Z" fill="var(--fill-0, #E0E0E0)"/>
<path id="Vector_9" d="M0 112.743C0 107.55 1.54308 102.474 4.4341 98.1556C7.32512 93.8377 11.4342 90.4723 16.2418 88.485C21.0494 86.4977 26.3396 85.9777 31.4433 86.9908C36.547 88.004 41.2351 90.5047 44.9146 94.1768C48.5942 97.8488 51.1 102.527 52.1152 107.621C53.1304 112.714 52.6094 117.993 50.618 122.791C48.6266 127.589 45.2544 131.69 40.9276 134.575C36.6009 137.46 31.5141 139 26.3104 139C19.3363 138.987 12.6515 136.217 7.7201 131.296C2.78868 126.374 0.0126457 119.703 0 112.743ZM1.59058 112.743C1.59058 117.626 3.04142 122.399 5.75964 126.459C8.47786 130.519 12.3414 133.683 16.8616 135.551C21.3818 137.42 26.3558 137.909 31.1544 136.956C35.9531 136.004 40.3609 133.652 43.8205 130.2C47.2802 126.747 49.6362 122.348 50.5907 117.559C51.5452 112.771 51.0553 107.807 49.183 103.296C47.3107 98.7847 44.14 94.929 40.0719 92.2163C36.0038 89.5036 31.221 88.0558 26.3283 88.0558C19.7699 88.0636 13.4823 90.6672 8.84484 95.2952C4.20733 99.9233 1.5985 106.198 1.59058 112.743Z" fill="var(--fill-0, #263238)"/>
<path id="Vector_10" d="M2.77449 112.821C2.77449 112.821 2.77449 112.689 2.77449 112.439C2.77449 112.188 2.77449 111.812 2.82831 111.323C2.92761 109.893 3.15576 108.475 3.50999 107.086C4.07382 104.885 4.95613 102.779 6.12907 100.832C7.6813 98.2541 9.71054 95.994 12.1087 94.1724C15.02 91.967 18.4064 90.4693 21.999 89.7983C25.3882 89.1627 28.8761 89.2805 32.2145 90.1432C35.5529 91.0059 38.6597 92.5924 41.3138 94.7897C43.9679 96.987 46.104 99.7412 47.5702 102.856C49.0364 105.971 49.7965 109.37 49.7965 112.812C49.7965 116.253 49.0364 119.652 47.5702 122.767C46.104 125.882 43.9679 128.637 41.3138 130.834C38.6597 133.031 35.5529 134.618 32.2145 135.48C28.8761 136.343 25.3882 136.461 21.999 135.825C18.4053 135.165 15.0175 133.67 12.1087 131.463C9.71084 129.641 7.68165 127.381 6.12907 124.803C4.96143 122.858 4.08322 120.753 3.52195 118.555C3.16819 117.166 2.94005 115.748 2.84027 114.319C2.79841 113.829 2.80439 113.453 2.78646 113.203C2.76852 112.952 2.78646 112.821 2.78646 112.821C2.78646 112.821 2.78646 113.334 2.81636 114.319C3.02451 118.042 4.13237 121.66 6.04535 124.863C7.59085 127.463 9.62055 129.744 12.025 131.582C13.4211 132.65 14.9335 133.557 16.5336 134.286C18.2674 135.08 20.0931 135.658 21.9691 136.004C26.1275 136.783 30.4189 136.441 34.4008 135.014C39.9858 132.993 44.604 128.948 47.337 123.684C50.07 118.419 50.7176 112.322 49.151 106.603C47.5844 100.884 43.9184 95.9626 38.882 92.818C33.8456 89.6734 27.8077 88.5358 21.9691 89.6312C18.355 90.3136 14.9501 91.8276 12.025 94.0531C9.62186 95.8931 7.5924 98.1737 6.04535 100.772C4.13237 103.976 3.02451 107.594 2.81636 111.317C2.75656 112.302 2.77449 112.821 2.77449 112.821Z" fill="var(--fill-0, #263238)"/>
<path id="Vector_11" d="M98.2154 69.1747C98.2154 69.1747 102.401 66.0537 102.401 64.7588C102.401 63.4638 102.76 62.3121 103.872 62.9685C104.984 63.625 105.762 64.8602 104.823 66.8653L100.637 71.4185H95.3392L98.2154 69.1747Z" fill="var(--fill-0, #263238)"/>
<path id="Vector_12" d="M108.692 74.3246C107.949 74.0993 107.276 73.6885 106.736 73.1311C106.21 72.3981 105.924 71.5205 105.917 70.6188C105.78 69.4253 105.349 67.5217 103.848 67.3964C103.645 67.3873 103.453 67.3015 103.311 67.1563C103.169 67.0112 103.087 66.8175 103.083 66.6146C103.089 66.4115 103.174 66.2187 103.321 66.0772C103.467 65.9357 103.663 65.8566 103.866 65.8567C105.594 66.0059 106.742 67.3964 107.179 68.9837C107.406 69.8251 107.376 70.7143 107.603 71.5497C107.801 72.2777 108.447 72.5761 109.104 72.8267C109.297 72.8863 109.459 73.0172 109.558 73.1925C109.657 73.3679 109.685 73.5743 109.637 73.7696C109.582 73.9655 109.452 74.1319 109.275 74.2325C109.098 74.3331 108.888 74.3598 108.692 74.3067V74.3246Z" fill="var(--fill-0, #263238)"/>
<path id="Vector_13" d="M49.8881 81.1155L46.689 67.0204H44.1895L47.2332 81.8913L49.8881 81.1155Z" fill="var(--fill-0, #E0E0E0)"/>
<path id="Vector_14" d="M103.454 112.958L91.0399 80.2444L93.5155 76.9861L90.6692 74.8975L87.7571 78.3586L48.9613 79.5104L46.5694 79.8028C46.5694 79.8028 32.894 101.996 30.4842 105.015C27.913 108.238 24.9112 112.248 24.9112 112.248L27.4047 113.871C27.4047 113.871 34.2035 105.582 37.5701 99.9788C40.9366 94.3753 47.3886 83.9263 47.3886 83.9263L56.1966 118.502L59.312 117.971L51.2036 82.7089L85.742 81.8914L58.0503 112.922L59.312 117.977L88.4388 84.3679L100.356 113.865L103.454 112.958Z" fill="var(--fill-0, #455A64)"/>
<path id="Vector_15" d="M56.639 115.375L27.6617 111.651L27.1714 113.829L56.639 118.502V115.375Z" fill="var(--fill-0, #455A64)"/>
<path id="Vector_16" d="M54.0977 66.7518C54.2822 66.7462 54.4603 66.6835 54.6076 66.5724C54.7548 66.4614 54.8638 66.3075 54.9196 66.1319C54.9754 65.9564 54.9752 65.7678 54.919 65.5924C54.8628 65.417 54.7535 65.2633 54.606 65.1526C53.9479 64.6855 53.1592 64.437 52.3517 64.4424C49.4874 64.3469 33.5696 64.4424 33.5696 64.4424C33.5696 64.4424 32.9717 65.2719 34.1018 66.1909C35.232 67.1099 38.2876 68.0289 39.926 68.0289C41.5644 68.0289 46.2345 67.265 48.7579 67.0204C50.3126 66.8652 52.5849 66.7876 54.0977 66.7518Z" fill="var(--fill-0, #455A64)"/>
<path id="Vector_17" d="M96.7026 82.1301C98.4219 81.9646 100.007 81.1307 101.116 79.8087C101.618 79.1997 101.951 78.469 102.08 77.6905C102.21 76.9119 102.13 76.1131 101.851 75.3749C101.205 73.8293 99.7522 73.1848 98.1556 73.0774C96.1106 72.9342 94.0237 73.0774 91.9787 73.1431C89.547 73.2107 87.1132 73.3082 84.6775 73.4355C83.356 73.5011 83.362 71.4543 84.6775 71.3886C87.177 71.2574 89.6765 71.1579 92.176 71.0903C93.3719 71.0545 94.6097 71.0306 95.8296 71.0127C96.9536 70.9628 98.0799 71.0087 99.1961 71.1499C100.23 71.2884 101.207 71.7038 102.023 72.3522C102.839 73.0005 103.463 73.8575 103.83 74.8319C104.175 75.8085 104.278 76.8541 104.129 77.8789C103.98 78.9037 103.584 79.8771 102.975 80.7158C102.236 81.7045 101.295 82.5246 100.213 83.1214C99.1313 83.7183 97.9346 84.0781 96.7026 84.1769C96.4319 84.1753 96.1727 84.0673 95.9813 83.8763C95.7899 83.6853 95.6816 83.4266 95.6801 83.1565C95.6861 82.8872 95.7956 82.6305 95.9859 82.4394C96.1762 82.2484 96.4328 82.1377 96.7026 82.1301Z" fill="var(--fill-0, #E0E0E0)"/>
<path id="Vector_18" d="M49.8881 79.9937L49.3619 77.6783H46.1269L46.6172 80.3278L49.607 80.9962L49.8881 79.9937Z" fill="var(--fill-0, #455A64)"/>
<path id="Vector_19" d="M84.4742 78.4541L83.0451 80.0952L65.3633 80.5428L66.5055 78.9852L84.4742 78.4541Z" fill="var(--fill-0, #E0E0E0)"/>
<path id="Vector_20" d="M81.8432 86.3312L82.7222 91.0335L80.408 93.707L79.5171 88.9449L81.8432 86.3312Z" fill="var(--fill-0, #E0E0E0)"/>
<path id="Vector_21" d="M78.4886 90.0967L79.4095 94.8587L77.0954 97.5261L76.1805 92.6746L78.4886 90.0967Z" fill="var(--fill-0, #263238)"/>
<path id="Vector_22" d="M26.3284 115.62C27.7715 115.62 28.9415 114.452 28.9415 113.012C28.9415 111.572 27.7715 110.404 26.3284 110.404C24.8852 110.404 23.7153 111.572 23.7153 113.012C23.7153 114.452 24.8852 115.62 26.3284 115.62Z" fill="var(--fill-0, #E0E0E0)"/>
<path id="Vector_23" d="M23.7152 113.012C23.7152 113.012 23.7152 112.779 23.8408 112.385C23.9957 111.83 24.3325 111.342 24.7976 111.001C25.1356 110.748 25.5316 110.585 25.9494 110.524C26.3671 110.464 26.7934 110.508 27.1894 110.655C27.6573 110.824 28.0634 111.13 28.3554 111.532C28.6758 111.963 28.8488 112.486 28.8488 113.024C28.8488 113.561 28.6758 114.084 28.3554 114.516C28.158 114.784 27.9092 115.011 27.6235 115.184C27.3377 115.356 27.0205 115.47 26.6903 115.519C26.3601 115.569 26.0234 115.552 25.6996 115.471C25.3757 115.39 25.0712 115.246 24.8035 115.047C24.3395 114.704 24.0029 114.217 23.8468 113.662C23.7392 113.268 23.7451 113.036 23.7212 113.036C23.7125 113.091 23.7125 113.147 23.7212 113.203C23.7234 113.363 23.7414 113.523 23.775 113.68C23.9079 114.27 24.2419 114.795 24.7198 115.166C25.0767 115.443 25.4976 115.625 25.9438 115.697C26.3899 115.769 26.847 115.728 27.2731 115.578C27.7798 115.398 28.2199 115.07 28.5348 114.635C28.8799 114.172 29.0663 113.61 29.0663 113.033C29.0663 112.455 28.8799 111.894 28.5348 111.43C28.3221 111.142 28.0536 110.898 27.745 110.715C27.4365 110.532 27.0942 110.412 26.7385 110.363C26.3828 110.314 26.0209 110.337 25.6741 110.43C25.3274 110.523 25.0029 110.685 24.7198 110.905C24.2408 111.275 23.9065 111.801 23.775 112.391C23.741 112.548 23.723 112.708 23.7212 112.868C23.7128 112.916 23.7108 112.964 23.7152 113.012Z" fill="var(--fill-0, #263238)"/>
<path id="Vector_24" d="M101.72 115.273C103.163 115.273 104.333 114.106 104.333 112.666C104.333 111.225 103.163 110.058 101.72 110.058C100.276 110.058 99.1064 111.225 99.1064 112.666C99.1064 114.106 100.276 115.273 101.72 115.273Z" fill="var(--fill-0, #E0E0E0)"/>
<path id="Vector_25" d="M99.1065 112.672C99.1065 112.672 99.1065 112.439 99.232 112.045C99.3878 111.488 99.7243 110.999 100.189 110.655C100.528 110.405 100.924 110.243 101.342 110.183C101.759 110.124 102.185 110.169 102.581 110.314C103.048 110.484 103.455 110.789 103.747 111.192C104.061 111.62 104.23 112.137 104.23 112.669C104.23 113.2 104.061 113.717 103.747 114.145C103.455 114.548 103.048 114.853 102.581 115.023C102.185 115.17 101.759 115.215 101.341 115.156C100.924 115.097 100.527 114.934 100.189 114.683C99.7243 114.338 99.3878 113.849 99.232 113.292C99.1244 112.898 99.1304 112.695 99.1065 112.695C99.0971 112.751 99.0971 112.807 99.1065 112.862C99.1089 113.023 99.1269 113.183 99.1603 113.34C99.2932 113.929 99.6271 114.455 100.105 114.826C100.389 115.045 100.714 115.206 101.061 115.298C101.407 115.39 101.769 115.412 102.125 115.362C102.48 115.313 102.822 115.193 103.131 115.01C103.439 114.826 103.707 114.583 103.92 114.295C104.265 113.831 104.452 113.27 104.452 112.692C104.452 112.115 104.265 111.553 103.92 111.09C103.707 110.802 103.439 110.559 103.131 110.375C102.822 110.192 102.48 110.072 102.125 110.022C101.769 109.973 101.407 109.995 101.061 110.087C100.714 110.179 100.389 110.34 100.105 110.559C99.6271 110.93 99.2932 111.455 99.1603 112.045C99.1269 112.202 99.1089 112.362 99.1065 112.522C99.0998 112.572 99.0998 112.622 99.1065 112.672Z" fill="var(--fill-0, #263238)"/>
<path id="Vector_26" d="M52.4787 130.39L59.7134 133.308L60.7599 130.725L53.5252 127.806L52.4787 130.39Z" fill="var(--fill-0, #263238)"/>
<path id="Vector_27" d="M52.4952 130.395L53.5477 127.805L60.795 130.729L59.7485 133.325L52.4952 130.395ZM53.5477 127.817L52.5072 130.383L59.7246 133.295L60.7651 130.729L53.5477 127.817Z" fill="var(--fill-0, #455A64)"/>
<path id="Vector_28" d="M56.7287 130.574C57.0775 130.539 57.3984 130.369 57.6222 130.1C57.8461 129.83 57.9547 129.484 57.9247 129.136L57.0098 118.526C56.9734 118.178 56.8023 117.859 56.533 117.636C56.2636 117.413 55.9175 117.304 55.5687 117.332C55.22 117.367 54.899 117.537 54.6752 117.806C54.4514 118.076 54.3427 118.422 54.3728 118.77L55.2877 129.38C55.324 129.728 55.4951 130.047 55.7645 130.27C56.0338 130.493 56.3799 130.602 56.7287 130.574Z" fill="var(--fill-0, #263238)"/>
<path id="Vector_29" d="M56.7287 130.574C56.7287 130.574 56.627 130.574 56.4297 130.574C56.1901 130.533 55.9667 130.426 55.784 130.266C55.6014 130.106 55.4669 129.899 55.3952 129.667C55.3433 129.43 55.3152 129.188 55.3115 128.945C55.2697 128.408 55.2218 127.805 55.168 127.155C55.0604 125.806 54.9288 124.219 54.7853 122.458C54.7135 121.567 54.6358 120.642 54.5521 119.683C54.5521 119.445 54.5102 119.2 54.4923 118.955C54.4523 118.726 54.4708 118.49 54.5461 118.269C54.6143 118.039 54.7504 117.835 54.9367 117.683C55.1229 117.531 55.3506 117.439 55.5901 117.419C55.8296 117.398 56.0698 117.45 56.2793 117.568C56.4888 117.685 56.6579 117.863 56.7646 118.078C56.875 118.284 56.9345 118.513 56.938 118.746C56.938 118.991 56.9798 119.23 56.9978 119.474C57.0815 120.435 57.1652 121.36 57.2429 122.243C57.4044 124.004 57.5479 125.591 57.6735 126.94C57.7333 127.602 57.7931 128.205 57.8469 128.73C57.8814 128.971 57.8934 129.215 57.8828 129.458C57.8526 129.699 57.7554 129.927 57.6022 130.116C57.4489 130.305 57.2458 130.447 57.0157 130.526C56.8363 130.592 56.7287 130.598 56.7287 130.61C56.832 130.613 56.9351 130.599 57.0337 130.568C57.2804 130.496 57.5013 130.355 57.6699 130.161C57.8384 129.968 57.9476 129.73 57.9844 129.476C58.0109 129.226 58.0109 128.974 57.9844 128.724C57.9485 128.187 57.9007 127.584 57.8469 126.934C57.7392 125.591 57.6077 124.004 57.4642 122.237C57.3924 121.354 57.3147 120.447 57.231 119.469C57.231 119.224 57.1891 118.985 57.1712 118.741C57.1658 118.476 57.0982 118.216 56.9739 117.983C56.8382 117.744 56.6367 117.549 56.3931 117.421C56.1496 117.293 55.8744 117.238 55.6003 117.262C55.3261 117.286 55.0647 117.388 54.847 117.556C54.6294 117.724 54.4648 117.951 54.3727 118.209C54.2866 118.459 54.264 118.725 54.3069 118.985C54.3069 119.23 54.3488 119.474 54.3667 119.713C54.4564 120.674 54.5342 121.599 54.6179 122.482C54.7733 124.272 54.9228 125.836 55.0424 127.178C55.1082 127.841 55.162 128.444 55.2158 128.969C55.2257 129.218 55.2618 129.466 55.3235 129.709C55.3924 129.914 55.5092 130.1 55.6643 130.252C55.8766 130.46 56.152 130.592 56.4476 130.628C56.5436 130.625 56.6384 130.607 56.7287 130.574Z" fill="var(--fill-0, #455A64)"/>
<path id="Vector_30" d="M62.7082 122.922C65.431 120.204 65.431 115.799 62.7082 113.081C59.9853 110.364 55.5707 110.364 52.8479 113.081C50.1251 115.799 50.1251 120.204 52.8479 122.922C55.5707 125.639 59.9853 125.639 62.7082 122.922Z" fill="var(--fill-0, #E0E0E0)"/>
<path id="Vector_31" d="M61.8104 106.835L54.8538 103.307L53.5886 105.792L60.5452 109.32L61.8104 106.835Z" fill="var(--fill-0, #263238)"/>
<path id="Vector_32" d="M53.5715 105.797L54.8451 103.309L61.8114 106.841L60.5437 109.324L53.5715 105.797ZM54.8451 103.321L53.5894 105.785L60.5258 109.306L61.7815 106.835L54.8451 103.321Z" fill="var(--fill-0, #455A64)"/>
<path id="Vector_33" d="M53.7031 117.965C53.7031 118.751 53.9366 119.519 54.3742 120.173C54.8118 120.826 55.4338 121.336 56.1615 121.636C56.8892 121.937 57.6899 122.016 58.4624 121.863C59.235 121.709 59.9446 121.331 60.5015 120.775C61.0585 120.219 61.4377 119.511 61.5914 118.74C61.7451 117.969 61.6662 117.17 61.3648 116.444C61.0634 115.718 60.5529 115.097 59.898 114.66C59.2431 114.223 58.4732 113.99 57.6855 113.99C56.6293 113.99 55.6163 114.409 54.8695 115.154C54.1226 115.9 53.7031 116.911 53.7031 117.965Z" fill="var(--fill-0, #263238)"/>
<path id="Vector_34" d="M57.5898 106.31C57.415 106.31 57.2419 106.345 57.0804 106.412C56.919 106.479 56.7724 106.577 56.649 106.7C56.5257 106.824 56.428 106.971 56.3617 107.132C56.2953 107.294 56.2616 107.467 56.2623 107.641V118.287C56.2616 118.461 56.2953 118.634 56.3617 118.796C56.428 118.957 56.5257 119.104 56.649 119.228C56.7724 119.351 56.919 119.449 57.0804 119.516C57.2419 119.583 57.415 119.618 57.5898 119.618C57.9435 119.618 58.2826 119.478 58.5327 119.228C58.7828 118.978 58.9233 118.64 58.9233 118.287V107.641C58.9233 107.288 58.7828 106.95 58.5327 106.7C58.2826 106.45 57.9435 106.31 57.5898 106.31Z" fill="var(--fill-0, #263238)"/>
<path id="Vector_35" d="M57.5899 106.31C57.5899 106.31 57.6975 106.31 57.8889 106.364C58.1612 106.441 58.4033 106.599 58.5825 106.817C58.709 106.974 58.7971 107.158 58.8396 107.355C58.8613 107.597 58.8613 107.84 58.8396 108.083C58.8396 108.62 58.8396 109.228 58.8396 109.873C58.8396 111.221 58.8396 112.815 58.8396 114.581C58.8396 115.47 58.8396 116.401 58.8396 117.362V118.096C58.8576 118.329 58.8186 118.562 58.726 118.776C58.6309 118.991 58.4748 119.172 58.277 119.298C58.0792 119.425 57.8486 119.49 57.6138 119.486C57.3801 119.485 57.1517 119.417 56.9549 119.292C56.7581 119.166 56.6009 118.987 56.5016 118.776C56.409 118.562 56.37 118.329 56.388 118.096V117.386C56.388 116.425 56.388 115.494 56.388 114.605C56.388 112.815 56.388 111.245 56.388 109.897C56.388 109.228 56.388 108.62 56.388 108.106C56.3603 107.865 56.3603 107.62 56.388 107.378C56.4269 107.181 56.5153 106.996 56.6451 106.841C56.8224 106.621 57.0653 106.462 57.3387 106.388C57.5301 106.34 57.6317 106.346 57.6317 106.334C57.5329 106.316 57.4316 106.316 57.3328 106.334C57.039 106.393 56.7736 106.548 56.5793 106.776C56.4398 106.94 56.3396 107.134 56.2863 107.343C56.2449 107.591 56.2309 107.843 56.2445 108.095C56.2445 108.632 56.2445 109.24 56.2445 109.885C56.2445 111.233 56.2445 112.827 56.2445 114.593C56.2445 115.482 56.2445 116.413 56.2445 117.374V118.108C56.2266 118.369 56.2717 118.631 56.376 118.872C56.49 119.122 56.6738 119.334 56.9055 119.483C57.1372 119.632 57.407 119.711 57.6826 119.711C57.9581 119.711 58.2279 119.632 58.4596 119.483C58.6913 119.334 58.8751 119.122 58.9891 118.872C59.0928 118.631 59.1379 118.369 59.1207 118.108V117.386C59.1207 116.425 59.1207 115.494 59.1207 114.605C59.1207 112.815 59.1207 111.245 59.1207 109.897C59.1207 109.228 59.1207 108.62 59.1207 108.106C59.1313 107.855 59.1172 107.603 59.0788 107.355C59.0255 107.146 58.9253 106.952 58.7858 106.788C58.5915 106.56 58.3261 106.405 58.0324 106.346C57.8907 106.295 57.7379 106.283 57.5899 106.31Z" fill="var(--fill-0, #455A64)"/>
<path id="Vector_36" d="M61.5125 64.0666C61.5125 64.0666 62.4154 84.9527 62.3257 88.748C62.236 92.5433 58.14 119.093 58.14 119.093L51.1558 119.236C51.1558 119.236 50.6535 103.124 50.3186 98.4869C49.9838 93.8502 50.4083 89.661 50.3186 88.1274C50.2289 86.5938 46.8445 71.2753 46.1927 68.578C45.5409 65.8807 45.3555 64.9975 44.632 63.5355C43.9085 62.0734 42.4136 57.9261 42.288 56.4043C41.8096 50.5443 44.2852 46.9042 44.2852 46.9042L57.9905 56.8698L61.5125 64.0666Z" fill="var(--fill-0, #263238)"/>
<path id="Vector_37" d="M58.2954 119.892L59.3298 111.222L50.4979 111.651L50.9105 119.988L53.5894 122.751L57.536 122.029L58.2954 119.892Z" fill="var(--fill-0, #263238)"/>
<path id="Vector_38" d="M66.0809 129.41C64.286 129.691 62.4583 129.691 60.6634 129.41C58.1892 128.82 55.753 128.08 53.3682 127.196C52.0587 126.737 48.1002 126.761 47.9866 125.364C47.8729 123.968 50.9166 119.236 50.9166 119.236C50.9166 119.236 51.377 120.793 52.7464 120.895C54.1155 120.905 55.4833 120.805 56.8364 120.596C56.8364 120.596 58.1818 118.949 58.9711 118.973C59.7605 118.997 59.2462 121.175 59.2462 121.175C59.2462 121.175 60.8487 124.051 62.0925 124.756C63.3363 125.46 63.3423 125.883 64.8611 126.098C65.6583 126.164 66.4189 126.461 67.0496 126.952C67.0496 126.952 67.6117 128.282 67.1991 128.688C66.8686 128.988 66.4908 129.232 66.0809 129.41Z" fill="var(--fill-0, #455A64)"/>
<path id="Vector_39" d="M67.223 128.676C66.9043 129.01 66.5137 129.267 66.0809 129.428C64.2861 129.71 62.4581 129.71 60.6633 129.428C58.1898 128.835 55.7538 128.096 53.3682 127.214C52.0646 126.761 48.1001 126.785 47.9865 125.382C47.9527 124.992 48.0186 124.6 48.1779 124.242C48.1779 124.242 52.0168 125.764 53.9303 125.949C55.8438 126.134 59.7724 127.936 61.931 128.169C63.4787 128.306 65.0355 128.306 66.5832 128.169L67.3366 127.871C67.3665 128.187 67.4443 128.408 67.223 128.676Z" fill="var(--fill-0, #E0E0E0)"/>
<path id="Vector_40" d="M61.6496 124.338C61.5539 124.571 61.4399 124.797 61.3089 125.012C61.0638 125.352 60.759 125.52 60.7769 125.555C61.041 125.489 61.2685 125.322 61.4105 125.09C61.4989 124.987 61.5657 124.867 61.6067 124.738C61.6478 124.609 61.6624 124.473 61.6496 124.338Z" fill="var(--fill-0, white)"/>
<path id="Vector_41" d="M60.5433 123.091C60.4145 123.364 60.2583 123.624 60.0771 123.867C59.8633 124.087 59.6292 124.287 59.3777 124.463C59.6943 124.397 59.9764 124.219 60.1727 123.962C60.4035 123.73 60.5361 123.418 60.5433 123.091Z" fill="var(--fill-0, white)"/>
<path id="Vector_42" d="M59.7659 121.939C59.7659 121.939 59.5269 122.184 59.2101 122.452C58.8933 122.721 58.6124 122.894 58.6124 122.924C58.8616 122.846 59.0925 122.719 59.2908 122.55C59.4892 122.381 59.6508 122.173 59.7659 121.939Z" fill="var(--fill-0, white)"/>
<path id="Vector_43" d="M51.957 123.944C52.1158 124.015 52.2824 124.067 52.4533 124.1C52.7703 124.183 53.2068 124.273 53.6911 124.351C54.1755 124.428 54.6239 124.476 54.9468 124.5C55.1215 124.523 55.2984 124.523 55.4731 124.5C55.4731 124.464 54.6837 124.38 53.715 124.225C52.7463 124.07 51.963 123.908 51.957 123.944Z" fill="var(--fill-0, white)"/>
<path id="Vector_44" d="M60.7889 101.22C60.8092 101.15 60.8232 101.078 60.8308 101.005C60.8607 100.844 60.8905 100.629 60.9324 100.361C61.0161 99.764 61.1296 98.9584 61.2731 97.932C61.56 95.8314 61.9545 92.8716 62.4267 89.3866C62.4267 86.8086 62.3789 83.9203 62.2772 80.871C62.086 75.2198 61.829 70.1295 61.7273 66.4118C61.6795 64.5738 61.6437 63.082 61.6198 62.0317C61.6198 61.5245 61.6198 61.1306 61.5899 60.8382C61.5899 60.7129 61.5899 60.6114 61.5899 60.5279C61.5899 60.4443 61.5899 60.4264 61.5899 60.4264C61.5874 60.4602 61.5874 60.4941 61.5899 60.5279C61.5899 60.6114 61.5899 60.7129 61.5899 60.8382C61.5899 61.1306 61.5899 61.5304 61.5899 62.0317C61.5899 63.07 61.5899 64.5679 61.6317 66.4178C61.6975 70.1236 61.9246 75.2317 62.1159 80.8769C62.2175 83.9263 62.2772 86.8146 62.2832 89.3866C61.8409 92.8835 61.4703 95.8434 61.2073 97.9439C61.0818 98.9763 60.9862 99.7998 60.9204 100.379L60.8487 101.029C60.8236 101.091 60.8036 101.155 60.7889 101.22Z" fill="var(--fill-0, #455A64)"/>
<path id="Vector_45" d="M98.8493 27.9634C98.2512 27.2152 97.5911 26.5185 96.876 25.8808C94.8609 23.6847 94.526 20.3609 95.2077 17.4547L78.668 12.448C73.2086 19.3106 78.7816 25.278 79.7025 27.4621C80.4978 29.3598 81.7774 31.9676 82.6086 33.8473C83.4398 35.7271 85.2576 37.3144 87.3265 37.3025C89.0008 37.3025 90.4897 36.288 91.8351 35.2855C92.153 35.7431 92.5928 36.1028 93.1048 36.324C93.6168 36.5451 94.1806 36.6189 94.7325 36.5369C95.2843 36.455 95.8022 36.2206 96.2275 35.8602C96.6528 35.4998 96.9686 35.0279 97.1391 34.4978C97.2064 34.1426 97.3295 33.8002 97.5038 33.4833C97.6764 33.2698 97.8776 33.081 98.1018 32.9224C98.7883 32.3138 99.2391 31.4842 99.3757 30.578C99.5122 29.6718 99.326 28.7466 98.8493 27.9634Z" fill="var(--fill-0, #263238)"/>
<path id="Vector_46" d="M85.413 4.48737C85.896 4.20012 86.4204 3.98878 86.9678 3.86079C87.2419 3.80081 87.526 3.8029 87.7992 3.86693C88.0723 3.93096 88.3277 4.05529 88.5464 4.23077C88.6489 4.31387 88.729 4.42134 88.7791 4.54333C88.8293 4.66531 88.8479 4.79791 88.8334 4.92896C88.8201 4.99152 88.7926 5.05021 88.753 5.1005C88.7134 5.15079 88.6628 5.19133 88.605 5.219C88.5473 5.24667 88.4839 5.26075 88.4198 5.26012C88.3557 5.2595 88.2927 5.24419 88.2354 5.21539H88.1637C87.3923 5.34668 86.6209 5.46603 85.8436 5.56748C85.6463 5.60783 85.4429 5.60783 85.2456 5.56748C85.1486 5.54654 85.0593 5.49923 84.9875 5.43077C84.9157 5.36231 84.8643 5.27538 84.839 5.17959C84.7912 4.88122 85.126 4.66043 85.413 4.48737Z" fill="var(--fill-0, #FF725E)"/>
<path id="Vector_47" d="M83.4637 5.53763C84.8483 5.02226 86.3313 4.82387 87.803 4.95711C89.2747 5.09035 90.6977 5.55182 91.9667 6.30743C93.4617 7.19062 93.8862 7.87688 94.7712 8.81377C95.6785 9.72699 96.2369 10.9282 96.3498 12.2093C96.5061 13.7413 96.2759 15.2881 95.6801 16.7087C95.0498 18.0327 94.203 19.2427 93.1746 20.2892C91.7898 21.5931 90.2 22.6615 88.4687 23.452L86.029 22.3301C84.0548 21.3201 82.2231 20.0539 80.5815 18.5646C79.0089 17.0071 77.8369 14.9244 77.8429 12.7105C77.8847 9.65518 80.5576 6.54613 83.4637 5.53763Z" fill="var(--fill-0, #263238)"/>
<path id="Vector_48" d="M86.5133 7.38165L92.182 8.37822L93.2822 9.2435C95.9551 10.8965 95.979 14.9782 94.6635 17.1504C93.1985 19.5374 91.3209 22.4555 89.8439 23.9891C86.8541 27.0743 83.6491 25.4989 83.6491 25.4989C83.6491 25.4989 82.5428 27.4383 81.8253 28.6437L75.1699 23.8698L84.558 7.87099C84.763 7.55961 85.0779 7.33649 85.44 7.24586C85.8022 7.15523 86.1852 7.20369 86.5133 7.38165Z" fill="var(--fill-0, #FFDACE)"/>
<path id="Vector_49" d="M85.0064 19.8655C85.1462 19.7003 85.3419 19.592 85.5563 19.5612C85.7541 19.5283 85.9572 19.562 86.1336 19.6571C86.31 19.7522 86.4497 19.9032 86.5306 20.0863C86.6064 20.2853 86.6275 20.5009 86.5918 20.7107C86.5561 20.9206 86.4648 21.1171 86.3274 21.2798C86.1826 21.3447 86.0258 21.3782 85.8671 21.3782C85.7085 21.3782 85.5516 21.3447 85.4069 21.2798L85.2814 21.2022C85.0647 21.0665 84.9085 20.8529 84.845 20.6055C84.8166 20.4779 84.8162 20.3455 84.8441 20.2178C84.8719 20.09 84.9274 19.9698 85.0064 19.8655Z" fill="var(--fill-0, #6F4439)"/>
<path id="Vector_50" d="M91.5836 19.4478C91.5046 19.565 91.3825 19.6464 91.2437 19.6743C91.105 19.7022 90.9608 19.6744 90.8425 19.597C90.7822 19.5631 90.7294 19.5173 90.6873 19.4626C90.6452 19.4078 90.6145 19.3452 90.5972 19.2783C90.5799 19.2114 90.5763 19.1418 90.5866 19.0735C90.5969 19.0052 90.6209 18.9397 90.6572 18.8809C90.7363 18.7639 90.8579 18.6823 90.9963 18.6534C91.1346 18.6244 91.2788 18.6504 91.3983 18.7257C91.4588 18.7602 91.5117 18.8065 91.5539 18.8618C91.5961 18.9171 91.6267 18.9803 91.644 19.0476C91.6613 19.1149 91.6649 19.1851 91.6545 19.2538C91.6441 19.3226 91.62 19.3885 91.5836 19.4478Z" fill="var(--fill-0, #263238)"/>
<path id="Vector_51" d="M93.1081 17.8485C93.0125 17.8485 92.8451 17.383 92.367 17.0548C91.8888 16.7266 91.3688 16.7206 91.3568 16.6251C91.3449 16.5296 91.4764 16.5117 91.7095 16.5117C92.0177 16.5074 92.3193 16.6015 92.5702 16.7803C92.8181 16.9538 93.006 17.1998 93.1081 17.4844C93.1739 17.6993 93.15 17.8425 93.1081 17.8485Z" fill="var(--fill-0, #263238)"/>
<path id="Vector_52" d="M87.5179 19.776C87.8249 19.8712 88.1184 20.0056 88.3909 20.1758C88.5225 20.2474 88.66 20.3011 88.7377 20.2355C88.8358 20.1147 88.8942 19.9668 88.9052 19.8118C88.9929 19.4379 89.0885 19.04 89.1922 18.6183C89.4061 17.6022 89.7 16.6046 90.0712 15.6346C89.9452 16.6708 89.7332 17.6947 89.4374 18.6959C89.3297 19.1076 89.2281 19.4955 89.1324 19.8894C89.1102 20.0914 89.0144 20.2783 88.8633 20.4145C88.8146 20.4445 88.7601 20.4638 88.7034 20.471C88.6467 20.4782 88.5891 20.4732 88.5344 20.4563C88.4544 20.4252 88.3782 20.3851 88.3072 20.3369C88.0228 20.1817 87.7579 19.9934 87.5179 19.776Z" fill="var(--fill-0, #263238)"/>
<path id="Vector_53" d="M83.661 25.4988C82.0055 24.3906 80.691 22.8452 79.8639 21.0352C79.8639 21.0352 79.4334 24.2994 83.1408 26.4059L83.661 25.4988Z" fill="var(--fill-0, #6F4439)"/>
<path id="Vector_54" d="M85.8733 19.1255C85.957 19.1793 85.5924 19.7223 85.7836 20.3727C85.9749 21.0232 86.5667 21.3813 86.5188 21.4529C86.471 21.5245 86.3276 21.4529 86.0885 21.3156C85.7824 21.1074 85.5585 20.7994 85.4549 20.4444C85.3537 20.1015 85.3924 19.7325 85.5625 19.418C85.694 19.1852 85.8434 19.1017 85.8733 19.1255Z" fill="var(--fill-0, #263238)"/>
<path id="Vector_55" d="M94.0289 15.9986C93.8676 16.0583 93.5508 15.7241 93.0965 15.4615C92.6422 15.1989 92.2119 15.0677 92.188 14.8946C92.188 14.817 92.3075 14.7335 92.5406 14.7215C92.8467 14.7148 93.148 14.7978 93.4073 14.9602C93.6619 15.1164 93.8686 15.3393 94.005 15.6047C94.0947 15.8255 94.0827 15.9986 94.0289 15.9986Z" fill="var(--fill-0, #263238)"/>
<path id="Vector_56" d="M86.2562 15.9986C86.1801 16.1172 86.1532 16.2607 86.1811 16.3988C86.209 16.5368 86.2895 16.6587 86.4056 16.7386C86.4602 16.7803 86.5226 16.8106 86.5891 16.8278C86.6557 16.845 86.725 16.8487 86.7929 16.8387C86.8609 16.8287 86.9262 16.8051 86.985 16.7695C87.0437 16.7339 87.0946 16.6868 87.1348 16.6312C87.1745 16.5728 87.2022 16.5072 87.2165 16.4381C87.2307 16.369 87.2312 16.2978 87.2178 16.2285C87.2045 16.1593 87.1777 16.0933 87.1388 16.0344C87.1 15.9755 87.0499 15.9248 86.9914 15.8852C86.936 15.8437 86.8728 15.8137 86.8055 15.7969C86.7383 15.7801 86.6684 15.7769 86.5999 15.7874C86.5314 15.798 86.4657 15.8221 86.4067 15.8584C86.3477 15.8947 86.2965 15.9423 86.2562 15.9986Z" fill="var(--fill-0, #263238)"/>
<path id="Vector_57" d="M86.5073 13.528C86.5073 13.6235 87.0333 13.5877 87.5235 13.904C88.0136 14.2203 88.2168 14.6917 88.3124 14.6678C88.4081 14.6439 88.3662 14.5127 88.2826 14.2978C88.1584 14.0134 87.9497 13.7739 87.6848 13.6116C87.4303 13.4495 87.1317 13.3703 86.8301 13.3848C86.6149 13.4087 86.4954 13.4803 86.5073 13.528Z" fill="var(--fill-0, #263238)"/>
<path id="Vector_58" d="M87.781 12.1198C87.8109 12.2928 88.2652 12.4241 88.7194 12.7165C89.1737 13.0089 89.5144 13.3133 89.6818 13.2655C89.7535 13.2357 89.7654 13.0865 89.6818 12.8717C89.5327 12.5969 89.3129 12.3668 89.0449 12.2052C88.7769 12.0436 88.4706 11.9565 88.1576 11.9527C87.9006 11.9587 87.775 12.0422 87.781 12.1198Z" fill="var(--fill-0, #263238)"/>
<path id="Vector_59" d="M81.4724 14.28C81.6518 14.0234 81.7774 13.2058 81.5442 12.985C80.9462 12.3883 79.6666 11.6065 78.4527 13.3311C76.7904 15.7181 79.5051 16.8639 79.559 16.8042C79.6128 16.7445 80.8326 15.1751 81.4724 14.28Z" fill="var(--fill-0, #FFDACE)"/>
<path id="Vector_60" d="M79.4929 15.4854C79.4929 15.4854 79.4332 15.4854 79.3435 15.4854C79.2158 15.457 79.103 15.3827 79.0267 15.2765C78.9427 15.0729 78.9145 14.8506 78.945 14.6325C78.9754 14.4143 79.0635 14.2082 79.2001 14.0353C79.3352 13.827 79.5174 13.6533 79.732 13.528C79.8064 13.4705 79.8934 13.4314 79.9858 13.4137C80.0783 13.3961 80.1736 13.4005 80.264 13.4266C80.3202 13.4479 80.3672 13.4883 80.3966 13.5406C80.4261 13.593 80.4363 13.654 80.4254 13.713C80.4254 13.8026 80.3596 13.8384 80.3716 13.8503C80.3835 13.8622 80.4493 13.8503 80.4971 13.7369C80.5217 13.6674 80.5217 13.5916 80.4971 13.5221C80.466 13.4275 80.3997 13.3484 80.3118 13.3013C80.201 13.2536 80.0798 13.2346 79.9597 13.2461C79.8395 13.2576 79.7242 13.2991 79.6244 13.3669C79.3834 13.5012 79.1783 13.6916 79.0267 13.9219C78.8683 14.1238 78.7725 14.3675 78.7513 14.6231C78.73 14.8787 78.7842 15.1349 78.9072 15.3601C78.9579 15.4238 79.0224 15.4751 79.096 15.5103C79.1695 15.5454 79.2501 15.5634 79.3316 15.5629C79.4511 15.5391 79.4989 15.4914 79.4929 15.4854Z" fill="var(--fill-0, #6F4439)"/>
<path id="Vector_61" d="M81.4246 12.9313L81.6518 13.9577C85.9273 13.0447 95.1598 9.84016 94.6276 10.0431C93.6841 8.83074 92.4504 7.87452 91.0399 7.26222C88.8274 6.37307 84.4204 5.04232 83.0212 7.42931C82.1268 9.13877 81.584 11.0094 81.4246 12.9313Z" fill="var(--fill-0, #263238)"/>
<path id="Vector_62" d="M84.4623 2.5062C84.4623 2.5062 82.9734 2.8165 82.8598 3.28793C82.7761 3.62808 89.3836 5.57347 89.3836 5.57347L89.4374 4.24869L87.4522 2.7986L84.4623 2.5062Z" fill="var(--fill-0, #FF725E)"/>
<g id="Group" opacity="0.3">
<path id="Vector_63" d="M84.4623 2.5062C84.4623 2.5062 82.9734 2.8165 82.8598 3.28793C82.7761 3.62808 89.3836 5.57347 89.3836 5.57347L89.4374 4.24869L87.4522 2.7986L84.4623 2.5062Z" fill="var(--fill-0, black)"/>
</g>
<path id="Vector_64" d="M79.0268 8.88543C78.3452 6.31941 80.4918 5.67493 81.2513 4.20096L97.8986 17.3891C97.8986 17.3891 95.8774 18.0992 94.5021 17.3891L95.1001 16.3925C95.1001 16.3925 86.7286 9.32105 83.6431 8.90929L82.2738 8.6706L79.0268 8.88543Z" fill="var(--fill-0, #455A64)"/>
<path id="Vector_65" d="M84.3607 7.9187C84.3607 7.9187 80.8207 12.0124 78.979 15.754C77.0715 19.6328 80.5337 23.5117 80.5337 23.5117C80.5337 23.5117 78.399 18.5527 80.9104 15.0319C83.1887 11.8393 85.5745 8.86155 85.5745 8.86155L84.3607 7.9187Z" fill="var(--fill-0, #455A64)"/>
<path id="Vector_66" d="M87.3923 0.0296803C87.3923 0.0296803 86.7406 0.137092 86.8602 0.978505L87.0037 1.99894C86.0922 2.09314 85.1927 2.27908 84.3188 2.55392C84.3188 2.55392 87.201 3.24017 88.5046 4.84542C88.5259 4.87057 88.5379 4.90231 88.5385 4.93527C88.5391 4.96822 88.5284 5.00038 88.508 5.02632C88.4876 5.05226 88.4589 5.0704 88.4267 5.07767C88.3945 5.08494 88.3607 5.08089 88.3311 5.06621C87.0993 4.46947 83.8404 3.00744 82.9495 3.13872C82.4825 3.18667 82.0407 3.37382 81.6818 3.6758C80.743 4.52318 78.7876 6.16423 78.9072 7.04742L78.9371 8.46768L83.3561 8.28269C84.2783 8.16934 85.2086 8.41749 85.9512 8.97491C87.6554 10.246 91.0698 12.3585 91.7993 12.9433C92.3973 13.4266 96.6787 17.3353 97.6833 17.3771C98.6878 17.4189 99.7104 17.5621 99.5788 16.655C99.4473 15.748 98.634 11.2843 97.0375 8.25881C96.0757 6.44204 94.7387 4.8495 93.1148 3.58628C93.1148 3.58628 88.1398 -0.167251 87.4043 0.0058053" fill="var(--fill-0, #FF725E)"/>
<path id="Vector_67" d="M93.0072 6.45072C92.815 6.12573 92.5841 5.82517 92.3195 5.5556C91.099 4.1971 89.6269 3.0867 87.9843 2.28543C87.6519 2.10523 87.2984 1.96692 86.9319 1.87367C87.247 2.07513 87.5745 2.25651 87.9125 2.41672C88.7032 2.85056 89.4625 3.33909 90.1848 3.87874C90.9004 4.42898 91.5776 5.02711 92.2119 5.66898C92.4581 5.94806 92.7238 6.2093 93.0072 6.45072Z" fill="var(--fill-0, #263238)"/>
<g id="Group_2" opacity="0.3">
<path id="Vector_68" d="M89.4314 6.06284C89.4549 6.00476 89.4923 5.95324 89.5402 5.91271C89.588 5.87218 89.645 5.84384 89.7063 5.83011C89.8633 5.7826 90.0264 5.75847 90.1904 5.7585C90.4048 5.79626 90.6063 5.88705 90.7765 6.02256C90.9467 6.15808 91.0802 6.334 91.1647 6.53427C91.344 6.95796 90.7463 7.2623 90.4116 7.16682C90.0843 7.05864 89.7997 6.84973 89.5987 6.57007C89.5308 6.50608 89.4799 6.42618 89.4507 6.33762C89.4215 6.24905 89.4148 6.15462 89.4314 6.06284Z" fill="var(--fill-0, black)"/>
</g>
<g id="Group_3" opacity="0.3">
<path id="Vector_69" d="M92.8697 8.56919C92.9767 8.58606 93.0765 8.63376 93.1567 8.70644C93.8508 9.27181 94.4086 9.98559 94.7891 10.7951C95.2232 11.6409 95.5968 12.5164 95.9073 13.4148C94.5376 12.1327 93.4378 10.5909 92.6723 8.8795C92.644 8.83495 92.6294 8.78307 92.6305 8.73031C92.6433 8.67867 92.6748 8.63359 92.719 8.60383C92.7632 8.57406 92.8169 8.56172 92.8697 8.56919Z" fill="var(--fill-0, black)"/>
</g>
<g id="Group_4" opacity="0.3">
<path id="Vector_70" d="M96.0627 8.24088C96.1589 8.29003 96.238 8.36697 96.2898 8.46167C96.7725 9.21874 97.0751 10.0761 97.1744 10.968C97.2761 11.8553 97.3121 12.7489 97.282 13.6414C96.4287 12.043 95.9158 10.2855 95.7758 8.47957C95.7609 8.42893 95.7609 8.37506 95.7758 8.32442C95.7889 8.29992 95.8068 8.27829 95.8284 8.26078C95.8501 8.24328 95.8749 8.23025 95.9017 8.22247C95.9284 8.21469 95.9564 8.21231 95.984 8.21547C96.0117 8.21863 96.0384 8.22727 96.0627 8.24088Z" fill="var(--fill-0, black)"/>
</g>
<path id="Vector_71" d="M83.7626 3.17455C84.127 3.38801 84.5091 3.5697 84.9047 3.71759C85.6223 4.0279 86.6209 4.44562 87.7212 4.91108L88.5344 5.23929C88.5916 5.25931 88.6543 5.25688 88.7098 5.23251C88.7653 5.20814 88.8095 5.16364 88.8334 5.10801C88.8452 5.07965 88.8513 5.04923 88.8513 5.0185C88.8513 4.98777 88.8452 4.95735 88.8334 4.92898L88.7915 4.85738L88.7556 4.82157C88.66 4.72013 88.5703 4.62464 88.4746 4.53513C88.1366 4.21385 87.7588 3.9371 87.3504 3.71162C87.0784 3.56033 86.7919 3.43639 86.4953 3.34164C86.3891 3.29748 86.2755 3.27321 86.1605 3.27003C86.1605 3.30583 86.6209 3.43712 87.2787 3.86678C87.6638 4.09944 88.0193 4.37798 88.3371 4.69625C88.4268 4.78576 88.5164 4.87528 88.6061 4.97672C88.6958 5.07817 88.642 5.02446 88.642 5.04833C88.642 5.0722 88.642 5.07817 88.6002 5.04833L87.7989 4.72013C86.6927 4.27257 85.6881 3.87871 84.9586 3.60421C84.5716 3.43047 84.1718 3.28682 83.7626 3.17455Z" fill="var(--fill-0, #263238)"/>
<path id="Vector_72" d="M46.3182 69.4075C45.7704 68.0442 45.3051 66.6493 44.9249 65.2303C44.7276 64.6753 44.1177 64.6872 43.5855 64.6335L42.1803 64.5022C41.7435 64.4873 41.31 64.4212 40.8887 64.3053C41.3217 64.2544 41.7592 64.2544 42.1922 64.3053L43.6034 64.371C43.8907 64.3736 44.177 64.4036 44.4585 64.4605C44.6252 64.5034 44.7796 64.5845 44.9094 64.6974C45.0391 64.8103 45.1407 64.9519 45.206 65.1109C45.6126 66.3044 45.8577 67.3666 46.067 68.1484C46.1991 68.557 46.2833 68.9795 46.3182 69.4075Z" fill="var(--fill-0, #263238)"/>
<path id="Vector_73" d="M81.0599 28.3095C81.1257 28.4944 78.2435 43.4787 77.3705 45.2869C75.2417 49.6849 68.3412 48.5511 68.3412 48.5511C65.8643 49.6914 63.5981 51.2409 61.638 53.1341C61.638 53.1341 56.3879 49.7625 54.9887 49.3507C53.5895 48.939 52.3158 46.6892 48.5307 47.6619C45.6664 48.3959 43.8666 49.0345 43.8666 49.0345C43.8666 49.0345 43.5556 45.4122 50.0435 37.738C56.5314 30.0639 62.9835 24.3232 68.413 22.3957L73.8484 20.4742L81.0599 28.3095Z" fill="var(--fill-0, #455A64)"/>
<path id="Vector_74" d="M61.2075 32.075C61.2075 32.075 65.7221 36.7058 69.8899 36.3298C72.6678 36.0051 75.364 35.1823 77.8488 33.9011L79.0447 37.7262C79.0447 37.7262 72.9634 39.1882 69.7583 39.415C66.5533 39.6418 58.8036 35.6615 58.8036 35.6615L61.2075 32.075Z" fill="var(--fill-0, #263238)"/>
<path id="Vector_75" d="M72.2759 19.0898C73.8566 19.514 75.2667 20.4167 76.3121 21.6737C77.5634 23.326 78.6792 25.0761 79.6488 26.9072C79.6488 26.9072 76.7606 24.0667 72.9456 24.5202C69.1306 24.9737 68.114 26.7043 66.667 28.3155C65.2199 29.9267 58.9652 37.4815 58.9652 37.4815L68.8675 49.1778L63.5336 53.2595L52.9975 44.0458L44.2912 48.8197L53.5716 37.0877L69.3698 20.4564L72.2759 19.0898Z" fill="var(--fill-0, #263238)"/>
<path id="Vector_76" d="M35.1124 28.7868C39.3241 24.3381 44.1075 20.4654 49.3379 17.2696C49.5293 17.5322 49.8641 18.1767 50.0555 18.4631C45.2718 22.5091 40.2429 26.0597 35.5788 30.2728" fill="var(--fill-0, #263238)"/>
<path id="Vector_77" d="M50.7754 16.3039L49.1033 17.2673L49.8835 18.616L51.5557 17.6526L50.7754 16.3039Z" fill="var(--fill-0, #E0E0E0)"/>
<path id="Vector_78" d="M19.5892 40.9665C19.6849 41.7781 19.7866 42.5837 19.8882 43.3953C22.8186 42.8667 25.5729 41.6245 27.9069 39.779L29.6111 35.7211C27.0208 38.6277 23.4579 40.4925 19.5892 40.9665Z" fill="var(--fill-0, #263238)"/>
<path id="Vector_79" d="M36.9182 29.1927C36.3655 28.876 35.7448 28.6961 35.1081 28.668C34.4714 28.64 33.8372 28.7646 33.2587 29.0315C32.1095 29.5816 31.0717 30.3382 30.1971 31.2634C28.6185 32.7851 27.0937 34.4619 26.3403 36.5147C25.5868 38.5676 26.3403 41.2111 27.8651 42.7985L33.0913 40.4115L36.9182 29.1927Z" fill="var(--fill-0, #455A64)"/>
<g id="Group_5" opacity="0.3">
<path id="Vector_80" d="M29.1746 32.2897C29.2404 32.2241 31.7219 33.8592 31.7219 33.8592L28.5766 43.7473C28.5766 43.7473 26.8724 41.9033 26.3701 40.2384C26.1042 39.5313 25.9887 38.7767 26.0309 38.0226C26.0731 37.2685 26.2721 36.5314 26.6153 35.8583C27.2628 34.5345 28.1279 33.3283 29.1746 32.2897Z" fill="var(--fill-0, black)"/>
</g>
<path id="Vector_81" d="M72.2758 19.0897C72.2758 19.0897 68.8435 12.8597 66.2962 10.7054C63.7488 8.55118 53.5536 9.68499 51.8793 12.8119C50.1213 16.106 50.6295 18.3856 50.6295 18.3856C50.6295 18.3856 34.9091 29.3717 31.6502 34.2829C28.1461 39.5581 27.8352 41.957 27.8591 43.1684C27.9368 47.0771 32.4514 50.0131 36.703 51.141C40.9545 52.2688 43.3164 49.7744 43.3164 49.7744C43.3164 49.7744 55.6703 36.2163 58.0263 33.4832C60.3823 30.7501 72.2758 19.0897 72.2758 19.0897Z" fill="var(--fill-0, #455A64)"/>
<path id="Vector_82" d="M56.5315 19.3105C56.5315 19.3105 56.7228 19.4478 57.0338 19.7462C57.3447 20.0445 57.7812 20.4742 58.3254 21.0113C59.4017 22.0914 60.8787 23.5952 62.5111 25.272C62.7563 25.5227 62.9955 25.7793 63.2227 26.018L63.3303 26.1254L63.2227 26.2328C61.7099 27.6769 60.3644 28.942 59.3898 29.8431L58.2118 30.9173C58.0761 31.0529 57.9257 31.173 57.7633 31.2753C57.7633 31.2753 57.8769 31.1082 58.134 30.8397L59.2283 29.7238C60.1671 28.7809 61.4886 27.4919 62.9895 26.0418V26.2567L62.2719 25.5167C60.6574 23.8398 59.2104 22.3122 58.1699 21.1903C57.6497 20.6353 57.2371 20.1758 56.974 19.8595C56.8035 19.6963 56.6547 19.5117 56.5315 19.3105Z" fill="var(--fill-0, #455A64)"/>
<g id="Group_6" opacity="0.3">
<path id="Vector_83" d="M51.8913 12.812L57.3088 15.4616L50.6415 18.3856C50.6415 18.3856 50.1751 15.9986 51.8913 12.812Z" fill="var(--fill-0, black)"/>
</g>
<g id="Group_7" opacity="0.3">
<path id="Vector_84" d="M37.4624 32.2898C37.4624 32.2898 30.0417 40.1191 31.4828 44.1173C32.9239 48.1155 38.2876 49.9117 40.7333 48.8912C43.179 47.8708 47.7414 41.7303 47.7414 41.7303L37.4624 32.2898Z" fill="var(--fill-0, black)"/>
</g>
<path id="Vector_85" d="M57.3267 15.4019C56.3592 15.1159 55.4235 14.732 54.5342 14.2561C53.6016 13.8733 52.7101 13.3975 51.8733 12.8359C52.842 13.1158 53.7781 13.4979 54.6658 13.9757C55.5993 14.359 56.4909 14.837 57.3267 15.4019Z" fill="var(--fill-0, #263238)"/>
<path id="Vector_86" d="M65.9673 10.6279C65.9673 10.6757 65.3693 10.8547 64.3946 11.2247C63.1502 11.8068 61.8417 12.2414 60.4959 12.5196C59.7334 12.6449 58.953 12.6083 58.2057 12.4122C57.6037 12.2299 57.036 11.9496 56.5254 11.5827C56.1861 11.3428 55.8606 11.0838 55.5507 10.807C55.3355 10.616 55.2219 10.4967 55.2338 10.4788C55.2458 10.4609 55.778 10.8428 56.645 11.3977C57.1508 11.7212 57.7006 11.9704 58.2775 12.1377C58.9893 12.3037 59.7268 12.328 60.4481 12.2093C61.7711 11.9286 63.066 11.5292 64.3169 11.0158C64.8454 10.8079 65.4013 10.6773 65.9673 10.6279Z" fill="var(--fill-0, #263238)"/>
<path id="Vector_87" d="M47.7234 43.5862C47.7234 43.5862 50.3126 44.2307 52.6626 44.6782C54.1097 44.9527 55.5747 45.5793 56.9739 45.1258C58.0076 44.6976 58.9328 44.0453 59.6827 43.2162C59.9679 43.0573 60.2156 42.839 60.4089 42.5761C60.6021 42.3133 60.7365 42.0121 60.8029 41.6928C60.8692 41.3736 60.866 41.0439 60.7935 40.726C60.7209 40.4082 60.5807 40.1096 60.3823 39.8505C59.4854 38.1259 57.6975 34.6887 56.7945 32.9641" fill="var(--fill-0, #455A64)"/>
<path id="Vector_88" d="M56.8065 32.9641C56.9909 33.2267 57.1567 33.5019 57.3028 33.7876L58.5466 36.0851L60.3405 39.5044C60.526 39.8365 60.6917 40.1792 60.8368 40.5308C60.9937 40.9263 61.0168 41.3622 60.9026 41.7721C60.5499 42.5434 60.0143 43.2172 59.3419 43.7354C58.7478 44.3304 58.0509 44.8135 57.2849 45.1616C56.5422 45.4489 55.7316 45.5132 54.9528 45.3466C54.2233 45.2153 53.5596 45.0064 52.9317 44.8692L51.1677 44.4634L48.6264 43.8666C48.3101 43.8046 47.9999 43.7148 47.6995 43.5981C48.0197 43.6241 48.3375 43.674 48.6503 43.7473L51.2155 44.2605L53.0094 44.6305C53.6493 44.7618 54.319 44.9587 55.0246 45.0721C55.7502 45.2242 56.5044 45.162 57.1952 44.8931C57.9236 44.5527 58.5856 44.0859 59.1505 43.5146C59.7799 43.0434 60.2881 42.4298 60.6335 41.7243C60.8667 41.0142 60.4302 40.322 60.1073 39.6775L58.3552 36.2283C57.8828 35.2735 57.4942 34.4858 57.1952 33.889C57.0389 33.5926 56.9089 33.2831 56.8065 32.9641Z" fill="var(--fill-0, #263238)"/>
<path id="Vector_89" d="M56.4895 15.915C56.3107 16.1663 56.1106 16.4019 55.8916 16.6192C55.473 17.0548 54.8571 17.6754 54.0977 18.4094C52.531 19.8894 50.2707 21.8467 47.6815 23.8756C46.3899 24.8961 45.1402 25.8449 43.9981 26.7042L42.3776 27.8977C41.9099 28.2631 41.4163 28.5942 40.9006 28.8883C40.143 29.3355 39.2518 29.5024 38.3832 29.3597C38.1512 29.317 37.9246 29.249 37.7075 29.1568C37.6307 29.127 37.5582 29.0868 37.4922 29.0375C37.4922 29.0375 37.8092 29.1628 38.4012 29.2344C39.2364 29.3317 40.08 29.1423 40.793 28.6973C41.7019 28.1603 42.6826 27.3069 43.8247 26.4595L47.4902 23.619C50.0734 21.5901 52.3457 19.6686 53.9482 18.2483L55.8258 16.5237C56.0297 16.3028 56.2518 16.0992 56.4895 15.915Z" fill="var(--fill-0, #263238)"/>
<path id="Vector_90" d="M67.5997 11.9646C67.1146 12.2089 66.6082 12.4086 66.0869 12.5614L62.3915 13.7967L58.702 15.0618C58.2017 15.2654 57.6831 15.4212 57.1533 15.5272C57.6199 15.2541 58.1127 15.0282 58.6243 14.8529C59.5511 14.4769 60.8428 13.9936 62.2898 13.5043C63.7369 13.0149 65.0584 12.6151 66.0211 12.3466C66.5329 12.1659 67.0619 12.0379 67.5997 11.9646Z" fill="var(--fill-0, #263238)"/>
<path id="Vector_91" d="M36.6851 29.3419C36.715 29.3896 35.9197 29.9386 34.7596 30.9889C33.2534 32.3527 31.9254 33.9006 30.8071 35.5958C29.6721 37.2769 28.8348 39.1399 28.3315 41.1038C27.9668 42.6195 27.9907 43.5982 27.9249 43.5922C27.8967 43.3663 27.8967 43.1378 27.9249 42.9119C27.9249 42.6445 27.9428 42.3773 27.9787 42.1123C27.9787 41.9512 28.0146 41.7841 28.0385 41.611C28.0624 41.438 28.1103 41.253 28.1462 41.056C28.5926 39.0424 29.4163 37.1311 30.5739 35.4227C31.7065 33.7065 33.0776 32.1594 34.646 30.8278C35.117 30.4229 35.61 30.0444 36.123 29.694C36.2961 29.5554 36.4847 29.4373 36.6851 29.3419Z" fill="var(--fill-0, #263238)"/>
<path id="Vector_92" d="M46.671 50.3534C46.6411 50.4369 46.0312 50.2818 45.2897 50.3832C44.5482 50.4847 44.0041 50.7771 43.9563 50.6995C43.9084 50.6219 44.4227 50.1744 45.2538 50.1028C45.4943 50.0408 45.7452 50.0312 45.9897 50.0744C46.2342 50.1177 46.4665 50.2128 46.671 50.3534Z" fill="var(--fill-0, #263238)"/>
<path id="Vector_93" d="M76.3659 26.4238C76.3659 26.4238 80.9582 26.5908 81.7475 30.0758C82.5369 33.5608 85.5446 48.4974 85.9333 49.3209C86.322 50.1444 98.8134 63.5354 98.8134 63.5354L94.4842 67.0145C94.4842 67.0145 82.9076 57.2935 80.0254 53.1341C76.916 48.6406 71.4925 32.1704 71.0201 30.1296C70.5477 28.0887 72.9575 25.7673 76.3659 26.4238Z" fill="var(--fill-0, #FFDACE)"/>
<path id="Vector_94" d="M84.1454 40.8889L74.8291 44.547C74.8291 44.547 70.2846 34.1218 69.9019 31.9735C69.5192 29.8252 70.1231 25.3198 73.7767 24.7052C77.4303 24.0905 80.6174 26.7341 81.7954 30.9889C82.9734 35.2437 84.1454 40.8889 84.1454 40.8889Z" fill="var(--fill-0, #455A64)"/>
<path id="Vector_95" d="M84.1453 40.8888C84.1533 40.8434 84.1533 40.797 84.1453 40.7516L84.0736 40.3577L83.7686 38.842C83.4876 37.5292 83.075 35.6375 82.5009 33.3042L82.0345 31.4841C81.8687 30.8198 81.6569 30.1678 81.4007 29.5328C80.8276 28.0981 79.8924 26.8359 78.6859 25.8687C78.0091 25.3379 77.2323 24.9483 76.4017 24.723C75.5166 24.4939 74.592 24.4614 73.6929 24.6275C72.7658 24.802 71.9239 25.2809 71.3011 25.9881C70.6882 26.6973 70.2536 27.5422 70.0334 28.4526C69.8223 29.2406 69.7217 30.054 69.7344 30.8695C69.7388 31.2698 69.7768 31.669 69.848 32.063C69.9317 32.4568 70.0573 32.8268 70.1709 33.1968C70.6732 34.6708 71.2293 36.0671 71.7615 37.4038C72.8438 40.0713 73.8783 42.4941 74.7932 44.5648L74.8231 44.6424H74.9008L81.7116 41.9212L83.5593 41.1753L84.0317 40.9783L84.1872 40.9067C84.1271 40.9193 84.0689 40.9394 84.0138 40.9664L83.5175 41.1514L81.6399 41.8615L74.841 44.4932L74.9486 44.535C74.0517 42.4464 73.0292 40.0176 71.9588 37.374C71.4266 36.0373 70.8765 34.6409 70.3802 33.1968C69.8546 31.7024 69.8086 30.0817 70.2487 28.5601C70.4535 27.6815 70.8632 26.8637 71.4446 26.1731C72.0245 25.4866 72.8182 25.0139 73.6989 24.8304C74.5655 24.6655 75.4578 24.6941 76.312 24.9139C77.1153 25.1326 77.8672 25.5078 78.5245 26.0179C79.7085 26.9642 80.6306 28.1967 81.2033 29.5984C81.4594 30.2254 81.6712 30.8694 81.8372 31.5259L82.3215 33.3161C82.9195 35.6434 83.35 37.5292 83.655 38.836L84.0018 40.3398C84.0377 40.5069 84.0736 40.6323 84.0975 40.7337C84.1042 40.7878 84.1204 40.8403 84.1453 40.8888Z" fill="var(--fill-0, #263238)"/>
<path id="Vector_96" d="M99.3396 63.8876C99.3396 63.8876 101.947 64.2754 102.162 64.365C103.151 65.1163 104.086 65.9358 104.96 66.8176C105.301 67.2472 105.558 68.936 104.775 69.5089L104.297 69.8133C104.297 69.8133 104.147 71.0605 103.244 71.2037C102.341 71.3469 102.359 71.144 102.359 71.144C102.359 71.144 102.581 72.2539 101.582 72.1823L100.607 72.0928C100.607 72.0928 99.9017 73.1192 99.2619 72.7433C98.622 72.3673 96.2003 70.3563 95.9551 69.6163C95.71 68.8764 95.5126 68.208 95.5126 68.208L93.055 66.5252L97.9523 61.9243L99.3396 63.8876Z" fill="var(--fill-0, #263238)"/>
<path id="Vector_97" d="M79.852 10.1922L79.3138 8.99873C78.6082 10.4011 77.0356 11.4275 75.8875 12.4957C74.7394 13.5638 73.6093 14.7931 73.2923 16.3268C73.0876 17.4467 73.2733 18.6029 73.8186 19.6029C74.3652 20.5933 75.1374 21.4416 76.0729 22.0794C76.2869 22.2708 76.5629 22.3788 76.8502 22.3838C77.0288 22.3559 77.1951 22.2758 77.3281 22.1536C77.4612 22.0315 77.555 21.8728 77.5977 21.6975C77.6902 21.3445 77.7005 20.975 77.6276 20.6174C76.8562 16.655 77.9266 13.5221 79.852 10.1922Z" fill="var(--fill-0, #263238)"/>
<path id="Vector_98" d="M50.1093 66.9011C49.4233 64.8843 48.442 62.98 47.1972 61.2499C46.1149 59.7461 44.8054 58.3259 44.315 56.5356C43.8835 54.6374 44.1868 52.6465 45.1641 50.962C46.1367 49.2986 47.3139 47.763 48.6682 46.3909C47.0683 46.7094 45.5894 47.468 44.3987 48.581C42.3537 50.3713 38.8855 54.1486 38.1859 56.7564C37.4863 59.3642 38.6463 63.3803 41.1757 64.4008C42.569 64.9677 44.2851 63.9472 45.2179 65.1288C45.4571 65.4272 45.5648 67.3427 45.8817 68.5661C46.1986 69.7894 47.8131 71.1917 49.0569 70.953C49.4396 70.8413 49.7806 70.619 50.037 70.3143C50.2935 70.0095 50.4538 69.6359 50.498 69.2404C50.5613 68.4407 50.4279 67.6376 50.1093 66.9011Z" fill="var(--fill-0, #FF725E)"/>
<path id="Vector_99" d="M65.3754 51.9705C63.2107 52.245 61.357 51.5349 59.5392 50.3295C57.7214 49.124 56.1009 47.6322 54.2054 46.564C53.1848 45.9542 52.0488 45.5621 50.8688 45.4123C49.6728 45.2929 47.8311 45.2512 46.8744 45.9553L43.5856 49.4165C49.2901 50.5443 57.3985 53.8204 63.1988 54.1904C63.8505 54.2322 64.6279 53.5937 65.178 53.2476C65.7281 52.9015 65.6923 52.5434 65.3754 51.9705Z" fill="var(--fill-0, #FF725E)"/>
<path id="Vector_100" d="M63.8565 52.8536C63.5673 53.0594 63.3277 53.3267 63.1549 53.6364C62.9822 53.9461 62.8807 54.2902 62.8579 54.6439C62.8436 54.9967 62.9342 55.3458 63.1183 55.6474C63.3024 55.949 63.5717 56.1895 63.8924 56.3386C64.4063 56.5157 64.9672 56.5008 65.471 56.2969C66.0854 56.1029 66.619 55.7129 66.9898 55.1869C67.1709 54.9221 67.2827 54.6164 67.3151 54.2974C67.3475 53.9785 67.2994 53.6565 67.1752 53.3609C67.0134 53.0567 66.7751 52.7999 66.4836 52.6158C66.1921 52.4316 65.8575 52.3264 65.5129 52.3106C64.8179 52.298 64.1371 52.5071 63.5695 52.9074" fill="var(--fill-0, #FF725E)"/>
<path id="Vector_101" d="M63.3781 56.0225C62.4154 57.7351 62.4692 59.8238 62.7383 61.7692C63.0074 63.7146 63.4857 65.6719 63.2585 67.6232C63.0971 69.0077 62.5948 70.3265 62.3197 71.693C62.0447 73.0596 62.0207 74.5634 62.7562 75.7509C64.4505 75.0309 66.1108 74.2352 67.7373 73.3639C68.0377 73.2281 68.3019 73.0237 68.5086 72.7672C68.7174 72.4258 68.8271 72.0333 68.8256 71.6334C69.0946 68.6496 69.3518 65.5645 68.3113 62.7597C67.7971 61.3634 66.9779 60.1042 66.3679 58.7496C65.758 57.395 64.6099 56.4999 64.9986 55.0677" fill="var(--fill-0, #FF725E)"/>
<path id="Vector_102" d="M65.8417 55.9807C65.8417 55.9807 65.74 56.0642 65.5307 56.1537C65.2296 56.2928 64.909 56.3854 64.58 56.4282C64.3233 56.4701 64.0604 56.4526 63.8116 56.3771C63.5628 56.3016 63.3347 56.17 63.1449 55.9926C62.9324 55.7573 62.7788 55.4751 62.6967 55.1691C62.6146 54.8631 62.6063 54.542 62.6725 54.2322C62.7871 53.6142 63.1255 53.0598 63.6232 52.6747C64.0295 52.3734 64.5121 52.1915 65.0165 52.1495C65.4695 52.0734 65.9349 52.1579 66.332 52.3883C65.9027 52.3417 65.4697 52.3417 65.0404 52.3883C64.5884 52.4581 64.1621 52.6431 63.8026 52.9253C63.3751 53.2774 63.0835 53.7668 62.9774 54.3098C62.9224 54.5735 62.9276 54.8462 62.9929 55.1076C63.0581 55.369 63.1816 55.6124 63.3542 55.8195C63.5118 55.9707 63.7002 56.0862 63.9066 56.1582C64.1129 56.2303 64.3324 56.2573 64.5501 56.2373C64.8639 56.2097 65.1743 56.1518 65.4769 56.0642C65.7101 55.9807 65.8357 55.9807 65.8417 55.9807Z" fill="var(--fill-0, #263238)"/>
<path id="Vector_103" d="M63.952 59.3224C63.7576 58.8314 63.6839 58.301 63.7369 57.7757C63.7899 57.2503 63.9682 56.7453 64.2569 56.3029C64.2209 56.8082 64.151 57.3106 64.0477 57.8067C64.0491 58.3135 64.0171 58.8198 63.952 59.3224Z" fill="var(--fill-0, #263238)"/>
<path id="Vector_104" d="M65.6021 59.0778C65.2617 58.7173 65.0154 58.2787 64.8848 57.8007C64.6627 57.3571 64.5578 56.8641 64.58 56.3686C64.8515 56.7718 65.0535 57.2176 65.1777 57.6874C65.3972 58.1234 65.5408 58.5936 65.6021 59.0778Z" fill="var(--fill-0, #263238)"/>
</g>
</svg>
