<svg width="24" height="25" viewBox="0 0 24 25" fill="none" xmlns="http://www.w3.org/2000/svg">
<path d="M15 11.25C15 9.59315 13.6569 8.25 12 8.25C10.3431 8.25 9 9.59315 9 11.25C9 12.9069 10.3431 14.25 12 14.25C13.6569 14.25 15 12.9069 15 11.25ZM16.5 11.25C16.5 13.7353 14.4853 15.75 12 15.75C9.51472 15.75 7.5 13.7353 7.5 11.25C7.5 8.76472 9.51472 6.75 12 6.75C14.4853 6.75 16.5 8.76472 16.5 11.25Z" fill="#111111"/>
<path d="M11.9996 14.2471C13.3845 14.2471 14.7422 14.6308 15.9225 15.3552C17.1028 16.0797 18.0597 17.1167 18.6867 18.3516C18.8741 18.7209 18.727 19.1725 18.3578 19.3601C17.9885 19.5476 17.5368 19.4004 17.3493 19.0312C16.8477 18.0433 16.0824 17.2129 15.1381 16.6333C14.1939 16.0538 13.1075 15.7471 11.9996 15.7471C10.8916 15.7471 9.8048 16.0537 8.86048 16.6333C7.91617 17.2129 7.15089 18.0433 6.6493 19.0312C6.4617 19.4004 6.01 19.5476 5.64076 19.3601C5.27162 19.1725 5.12444 18.7208 5.3119 18.3516C5.93889 17.1167 6.89575 16.0797 8.07606 15.3552C9.25645 14.6307 10.6146 14.2471 11.9996 14.2471Z" fill="#111111"/>
<path d="M22.7197 11.4697C23.0126 11.1768 23.4873 11.1768 23.7802 11.4697C24.0731 11.7626 24.0731 12.2373 23.7802 12.5302L21.5302 14.7802C21.2373 15.0731 20.7626 15.0731 20.4697 14.7802L18.2197 12.5302C17.9268 12.2373 17.9268 11.7626 18.2197 11.4697C18.5126 11.1768 18.9873 11.1768 19.2802 11.4697L20.9999 13.1894L22.7197 11.4697Z" fill="#111111"/>
<path d="M2.5268 9.16828C2.82138 8.92802 3.25563 8.94496 3.53022 9.21955L5.78022 11.4696C6.07311 11.7624 6.07311 12.2372 5.78022 12.5301C5.48732 12.823 5.01256 12.823 4.71967 12.5301L2.99994 10.8104L1.28022 12.5301C0.987324 12.823 0.512563 12.823 0.21967 12.5301C-0.0732233 12.2372 -0.0732233 11.7624 0.21967 11.4696L2.46967 9.21955L2.5268 9.16828Z" fill="#111111"/>
<path d="M2.25 12V9.75C2.25 9.33579 2.58579 9 3 9C3.41421 9 3.75 9.33579 3.75 9.75V12C3.74935 13.7466 4.30304 15.4485 5.3313 16.8604C6.35967 18.2722 7.80975 19.3216 9.47241 19.8567C11.1351 20.3918 12.9252 20.3854 14.584 19.8384C16.2427 19.2913 17.6849 18.2318 18.7031 16.8127C18.9446 16.4762 19.4132 16.3992 19.7498 16.6406C20.0863 16.8821 20.1633 17.3507 19.9219 17.6873C18.7185 19.3644 17.0139 20.6165 15.0535 21.2629C13.0931 21.9094 10.9782 21.9166 9.01318 21.2842C7.04818 20.6518 5.3345 19.4122 4.11914 17.7437C2.97973 16.1794 2.33302 14.314 2.25732 12.386L2.25 12Z" fill="#111111"/>
<path d="M20.25 14.2506V11.9999C20.2506 10.2532 19.697 8.55134 18.6687 7.13952C17.6403 5.72771 16.1902 4.67905 14.5276 4.14391C12.8649 3.60879 11.0748 3.61522 9.416 4.16223C7.75734 4.70927 6.31503 5.76879 5.29686 7.18786C5.05537 7.52417 4.58669 7.60129 4.25023 7.35998C3.91374 7.11855 3.8368 6.64988 4.07811 6.31335C5.28147 4.63617 6.98615 3.38414 8.94652 2.73766C10.9069 2.09122 13.0219 2.08335 14.9868 2.71569C16.9517 3.34808 18.6655 4.58779 19.8808 6.25622C21.0962 7.92478 21.7508 9.93634 21.75 12.0006V14.2506C21.7498 14.6647 21.4141 15.0006 21 15.0006C20.5859 15.0006 20.2502 14.6647 20.25 14.2506Z" fill="#111111"/>
</svg>
