<svg width="24" height="24" viewBox="0 0 24 24" fill="none" xmlns="http://www.w3.org/2000/svg">
<path d="M14.7946 6.81482C15.4271 6.81482 16.0453 6.61497 16.5712 6.24056C17.097 5.86615 17.5069 5.33399 17.7489 4.71137C17.9909 4.08875 18.0542 3.40363 17.9309 2.74266C17.8075 2.08168 17.5029 1.47454 17.0557 0.998008C16.6085 0.521473 16.0388 0.196949 15.4185 0.0654739C14.7982 -0.0660016 14.1552 0.00147637 13.5709 0.259375C12.9867 0.517274 12.4872 0.954009 12.1359 1.51435C11.7845 2.0747 11.597 2.73349 11.597 3.40741C11.597 4.31111 11.9339 5.1778 12.5336 5.81681C13.1332 6.45582 13.9466 6.81482 14.7946 6.81482ZM14.7946 1.7037C15.1109 1.7037 15.42 1.80363 15.6829 1.99083C15.9458 2.17804 16.1508 2.44412 16.2718 2.75543C16.3928 3.06674 16.4244 3.4093 16.3628 3.73978C16.3011 4.07027 16.1488 4.37384 15.9252 4.61211C15.7016 4.85038 15.4167 5.01264 15.1066 5.07838C14.7964 5.14411 14.4749 5.11037 14.1828 4.98143C13.8906 4.85248 13.6409 4.63411 13.4653 4.35394C13.2896 4.07376 13.1958 3.74437 13.1958 3.40741C13.1958 2.95556 13.3643 2.52221 13.6641 2.20271C13.9639 1.8832 14.3706 1.7037 14.7946 1.7037ZM21.5207 12.4243C21.4598 12.4541 20.7723 12.7735 19.5552 12.7735C18.1712 12.7735 16.1027 12.3604 13.4906 10.6439C13.093 11.8466 12.5768 13.0009 11.9507 14.0875C13.0753 14.4564 14.1332 15.0256 15.0794 15.771C16.985 17.3192 17.9923 19.5234 17.9923 22.1481C17.9923 22.3741 17.9081 22.5907 17.7582 22.7505C17.6082 22.9103 17.4049 23 17.1929 23C16.9809 23 16.7775 22.9103 16.6276 22.7505C16.4777 22.5907 16.3935 22.3741 16.3935 22.1481C16.3935 17.7079 12.927 16.1096 10.9834 15.5623C10.9285 15.6368 10.8715 15.7124 10.8146 15.7859C8.85198 18.3201 6.39278 19.6384 3.65678 19.6384C3.34515 19.6399 3.03364 19.6246 2.72346 19.5926C2.51145 19.57 2.31653 19.4586 2.18161 19.2829C2.04668 19.1071 1.98279 18.8815 2.00399 18.6556C2.02519 18.4296 2.12975 18.2219 2.29466 18.0782C2.45957 17.9344 2.67133 17.8663 2.88335 17.8889C5.47345 18.1636 7.72681 17.0913 9.57845 14.6944C10.8265 13.0823 11.6769 11.1156 12.1016 9.68982C8.21245 7.27801 5.72827 9.33097 5.70129 9.35333C5.61985 9.42743 5.52528 9.48334 5.42318 9.51774C5.32108 9.55214 5.21354 9.56433 5.10693 9.55359C5.00032 9.54285 4.89683 9.5094 4.80259 9.45522C4.70835 9.40104 4.62528 9.32724 4.55832 9.23819C4.49137 9.14914 4.44188 9.04667 4.4128 8.93685C4.38372 8.82703 4.37564 8.71211 4.38904 8.5989C4.40245 8.48569 4.43706 8.37651 4.49082 8.27783C4.54458 8.17915 4.6164 8.09298 4.70202 8.02445C4.85191 7.89667 8.4213 4.93648 13.6465 8.72403C18.1902 12.0154 20.8342 10.8867 20.8592 10.8739C20.955 10.8257 21.0588 10.7983 21.1646 10.7932C21.2704 10.7881 21.3761 10.8055 21.4756 10.8443C21.575 10.8831 21.6662 10.9426 21.7439 11.0193C21.8216 11.096 21.8842 11.1884 21.9281 11.2911C21.972 11.3939 21.9963 11.5048 21.9996 11.6177C22.0029 11.7305 21.9851 11.8428 21.9473 11.9483C21.9095 12.0537 21.8524 12.1501 21.7794 12.2318C21.7063 12.3135 21.6187 12.3789 21.5217 12.4243H21.5207Z" fill="#111111"/>
</svg>
