<svg width="28" height="24" viewBox="0 0 28 24" fill="none" xmlns="http://www.w3.org/2000/svg">
<path d="M12.5872 15.0252C13.7599 14.2444 14.6502 13.107 15.1265 11.7812C15.6028 10.4553 15.6398 9.01132 15.232 7.66281C14.8241 6.31429 13.9932 5.13282 12.8619 4.2931C11.7307 3.45338 10.3593 3 8.95043 3C7.5416 3 6.17016 3.45338 5.03893 4.2931C3.9077 5.13282 3.07673 6.31429 2.66891 7.66281C2.26108 9.01132 2.29805 10.4553 2.77435 11.7812C3.25065 13.107 4.14099 14.2444 5.31371 15.0252C3.19238 15.807 1.3807 17.2538 0.149026 19.1497C0.0842937 19.2459 0.0393302 19.354 0.0167497 19.4678C-0.00583087 19.5815 -0.00557805 19.6986 0.0174934 19.8122C0.0405649 19.9259 0.0859948 20.0338 0.151142 20.1297C0.21629 20.2257 0.299856 20.3077 0.396982 20.371C0.494109 20.4344 0.602859 20.4778 0.71691 20.4987C0.830962 20.5197 0.948041 20.5178 1.06134 20.4931C1.17464 20.4684 1.2819 20.4214 1.37689 20.3549C1.47188 20.2884 1.5527 20.2037 1.61465 20.1056C2.40914 18.8837 3.49629 17.8795 4.77738 17.1844C6.05847 16.4893 7.49291 16.1252 8.95043 16.1252C10.408 16.1252 11.8424 16.4893 13.1235 17.1844C14.4046 17.8795 15.4917 18.8837 16.2862 20.1056C16.4146 20.2964 16.6128 20.4289 16.8381 20.4747C17.0634 20.5204 17.2976 20.4757 17.4902 20.3501C17.6828 20.2245 17.8182 20.0281 17.8671 19.8035C17.9161 19.5789 17.8747 19.344 17.7518 19.1497C16.5202 17.2538 14.7085 15.807 12.5872 15.0252ZM4.13793 9.56516C4.13793 8.61334 4.42018 7.68289 4.94899 6.89148C5.47779 6.10007 6.2294 5.48324 7.10877 5.11899C7.98814 4.75475 8.95577 4.65944 9.88931 4.84513C10.8228 5.03083 11.6803 5.48917 12.3534 6.16221C13.0264 6.83525 13.4848 7.69276 13.6705 8.62629C13.8562 9.55982 13.7608 10.5275 13.3966 11.4068C13.0324 12.2862 12.4155 13.0378 11.6241 13.5666C10.8327 14.0954 9.90226 14.3777 8.95043 14.3777C7.67452 14.3762 6.45129 13.8687 5.54908 12.9665C4.64687 12.0643 4.13938 10.8411 4.13793 9.56516ZM27.122 20.3605C26.9276 20.4872 26.6909 20.5316 26.4638 20.4838C26.2368 20.436 26.038 20.3 25.9112 20.1056C25.1177 18.8829 24.0307 17.8784 22.7493 17.1835C21.468 16.4887 20.0331 16.1257 18.5754 16.1277C18.3434 16.1277 18.1208 16.0355 17.9567 15.8714C17.7926 15.7073 17.7004 15.4847 17.7004 15.2527C17.7004 15.0206 17.7926 14.798 17.9567 14.6339C18.1208 14.4698 18.3434 14.3777 18.5754 14.3777C19.2841 14.377 19.984 14.2198 20.6249 13.9173C21.2658 13.6148 21.832 13.1745 22.2831 12.6279C22.7341 12.0812 23.0588 11.4416 23.234 10.7549C23.4092 10.0682 23.4306 9.35126 23.2966 8.65532C23.1626 7.95939 22.8766 7.30164 22.4589 6.72906C22.0413 6.15649 21.5023 5.68323 20.8805 5.34311C20.2588 5.00298 19.5695 4.80437 18.8621 4.76148C18.1547 4.7186 17.4465 4.83248 16.7882 5.09501C16.6809 5.14141 16.5654 5.16582 16.4484 5.16681C16.3315 5.1678 16.2156 5.14534 16.1075 5.10076C15.9994 5.05618 15.9013 4.99039 15.819 4.90726C15.7368 4.82414 15.6721 4.72538 15.6286 4.61681C15.5852 4.50824 15.564 4.39206 15.5662 4.27515C15.5684 4.15824 15.5941 4.04296 15.6416 3.93613C15.6891 3.82929 15.7576 3.73307 15.843 3.65314C15.9283 3.57322 16.0288 3.51121 16.1386 3.47079C17.6452 2.86994 19.3209 2.84832 20.8425 3.41009C22.3641 3.97187 23.6237 5.07724 24.3784 6.51296C25.1331 7.94868 25.3294 9.61303 24.9294 11.1849C24.5293 12.7568 23.5613 14.1249 22.2122 15.0252C24.3335 15.807 26.1452 17.2538 27.3768 19.1497C27.5036 19.3441 27.5479 19.5808 27.5001 19.8079C27.4524 20.0349 27.3163 20.2337 27.122 20.3605Z" fill="#111111"/>
</svg>
