<svg width="24" height="24" viewBox="0 0 24 24" fill="none" xmlns="http://www.w3.org/2000/svg">
<g clip-path="url(#clip0_3442_21877)">
<path d="M25.9583 24.6545L20.1872 18.8846C21.8599 16.8765 22.694 14.3007 22.516 11.6933C22.338 9.08581 21.1615 6.64735 19.2314 4.88516C17.3013 3.12297 14.7662 2.17274 12.1533 2.23212C9.54044 2.2915 7.05106 3.35593 5.203 5.20398C3.35495 7.05203 2.29052 9.54142 2.23114 12.1543C2.17176 14.7671 3.122 17.3023 4.88418 19.2324C6.64637 21.1625 9.08483 22.3389 11.6923 22.517C14.2998 22.695 16.8755 21.8609 18.8837 20.1882L24.6536 25.9593C24.7392 26.0449 24.8409 26.1129 24.9529 26.1593C25.0648 26.2056 25.1848 26.2295 25.3059 26.2295C25.4271 26.2295 25.5471 26.2056 25.659 26.1593C25.7709 26.1129 25.8726 26.0449 25.9583 25.9593C26.044 25.8736 26.1119 25.7719 26.1583 25.66C26.2047 25.548 26.2285 25.4281 26.2285 25.3069C26.2285 25.1857 26.2047 25.0658 26.1583 24.9538C26.1119 24.8419 26.044 24.7402 25.9583 24.6545ZM4.09815 12.3978C4.09815 10.7565 4.58486 9.15202 5.49673 7.78731C6.4086 6.4226 7.70468 5.35893 9.22107 4.73082C10.7375 4.10271 12.406 3.93837 14.0158 4.25858C15.6256 4.57879 17.1043 5.36916 18.2649 6.52975C19.4255 7.69035 20.2159 9.16903 20.5361 10.7788C20.8563 12.3886 20.6919 14.0572 20.0638 15.5736C19.4357 17.09 18.3721 18.3861 17.0074 19.2979C15.6426 20.2098 14.0382 20.6965 12.3968 20.6965C10.1966 20.6941 8.08725 19.819 6.53147 18.2632C4.97569 16.7074 4.10059 14.598 4.09815 12.3978Z" fill="#111111"/>
</g>
<defs>
<clipPath id="clip0_3442_21877">
<rect width="24" height="24" fill="white"/>
</clipPath>
</defs>
</svg>
