<svg width="24" height="24" viewBox="0 0 24 24" fill="none" xmlns="http://www.w3.org/2000/svg">
<path d="M15.5716 7.41122C15.5716 7.61253 15.5119 7.80932 15.4001 7.9767C15.2882 8.14407 15.1293 8.27453 14.9433 8.35157C14.7573 8.42861 14.5527 8.44876 14.3552 8.40949C14.1578 8.37022 13.9764 8.27328 13.8341 8.13093C13.6917 7.98859 13.5948 7.80723 13.5555 7.60979C13.5162 7.41235 13.5364 7.2077 13.6134 7.02172C13.6905 6.83574 13.8209 6.67678 13.9883 6.56494C14.1557 6.4531 14.3525 6.3934 14.5538 6.3934C14.8237 6.3934 15.0826 6.50064 15.2735 6.69152C15.4644 6.88239 15.5716 7.14128 15.5716 7.41122ZM19.134 14.1187C17.855 15.8863 15.9508 17.0771 13.4766 17.659C11.7734 18.0593 9.78354 18.1679 7.52904 17.9923C7.66475 19 7.85475 20.0613 8.09903 21.1764C8.13738 21.3521 8.10443 21.5358 8.00742 21.6872C7.9104 21.8386 7.75726 21.9453 7.58163 21.9839C7.53375 21.9946 7.48482 22 7.43574 22C7.28105 21.9999 7.13103 21.9469 7.01055 21.8499C6.89007 21.7529 6.80637 21.6176 6.7733 21.4665C6.49679 20.2021 6.28728 18.9971 6.14479 17.8515C5.00142 17.7096 3.79755 17.5001 2.53317 17.223C2.44613 17.2039 2.36369 17.1679 2.29058 17.1169C2.21747 17.0659 2.15511 17.0011 2.10706 16.926C2.01003 16.7744 1.9772 16.5905 2.01578 16.4147C2.05436 16.2389 2.16119 16.0856 2.31278 15.9886C2.46438 15.8916 2.6483 15.8587 2.82411 15.8973C3.93807 16.1416 4.99831 16.3319 6.00484 16.4681C5.82756 14.2154 5.93868 12.2272 6.33818 10.5258C6.92004 8.0516 8.11175 6.14743 9.87854 4.86667C11.0762 3.99813 13.2094 2.97013 16.5275 3.00066C18.3249 3.01848 19.9907 3.36793 20.2435 3.51636C20.3425 3.57474 20.4251 3.65734 20.4835 3.7564C20.632 4.01085 20.9814 5.67245 20.9992 7.46975C21.0179 9.30352 20.7091 11.9439 19.134 14.1187ZM17.1187 14.3562C15.2728 13.9899 13.5771 13.0839 12.2465 11.753C10.9159 10.4222 10.0103 8.72628 9.64444 6.88026C7.7377 8.93796 6.97941 12.2009 7.37467 16.6225C11.798 17.0195 15.0627 16.262 17.1196 14.3562H17.1187ZM19.341 4.65971C18.2468 4.43618 17.1309 4.33631 16.0144 4.362C13.9499 4.41628 12.2221 4.91247 10.8608 5.83699C11.0458 7.71082 11.8746 9.46261 13.2059 10.7941C14.5373 12.1257 16.289 12.9546 18.1629 13.1399C19.0882 11.7828 19.5844 10.0508 19.6387 7.98629C19.6644 6.86978 19.5645 5.75393 19.341 4.65971Z" fill="#111111"/>
</svg>
