<svg width="24" height="24" viewBox="0 0 24 24" fill="none" xmlns="http://www.w3.org/2000/svg">
<path d="M14.7316 6.57143C15.4262 6.57143 16.1053 6.37873 16.6829 6.01769C17.2605 5.65665 17.7107 5.14349 17.9765 4.5431C18.2423 3.94272 18.3119 3.28207 18.1764 2.6447C18.0408 2.00734 17.7063 1.42188 17.2151 0.962365C16.7239 0.502849 16.0981 0.189916 15.4168 0.0631355C14.7355 -0.0636444 14.0293 0.00142363 13.3875 0.250111C12.7457 0.498799 12.1971 0.919937 11.8112 1.46027C11.4253 2.0006 11.2193 2.63586 11.2193 3.28572C11.2193 4.15714 11.5893 4.99287 12.248 5.60907C12.9067 6.22526 13.8 6.57143 14.7316 6.57143ZM14.7316 1.64286C15.0789 1.64286 15.4184 1.73921 15.7072 1.91973C15.996 2.10025 16.2211 2.35683 16.354 2.65702C16.4869 2.95721 16.5217 3.28754 16.454 3.60622C16.3862 3.9249 16.2189 4.21763 15.9733 4.44739C15.7277 4.67715 15.4148 4.83362 15.0742 4.89701C14.7335 4.9604 14.3804 4.92786 14.0595 4.80352C13.7386 4.67917 13.4643 4.4686 13.2714 4.19844C13.0784 3.92827 12.9754 3.61064 12.9754 3.28572C12.9754 2.85 13.1604 2.43214 13.4898 2.12404C13.8191 1.81594 14.2658 1.64286 14.7316 1.64286ZM20 13.1429V22.1786C20 22.3964 19.9075 22.6054 19.7428 22.7594C19.5781 22.9135 19.3548 23 19.1219 23C18.889 23 18.6657 22.9135 18.501 22.7594C18.3364 22.6054 18.2439 22.3964 18.2439 22.1786V13.9294C15.4176 13.6983 14.4736 12.3358 13.634 11.1201C13.3212 10.6693 13.0237 10.2401 12.6319 9.86844L11.1611 13.032L15.2441 15.7601C15.3575 15.8364 15.4497 15.9368 15.5133 16.053C15.5769 16.1692 15.6099 16.298 15.6096 16.4286V22.1786C15.6096 22.3964 15.5171 22.6054 15.3525 22.7594C15.1878 22.9135 14.9644 23 14.7316 23C14.4987 23 14.2753 22.9135 14.1107 22.7594C13.946 22.6054 13.8535 22.3964 13.8535 22.1786V16.8516L10.4433 14.5721L6.75646 22.5061C6.68823 22.6529 6.57563 22.7779 6.4325 22.8656C6.28937 22.9534 6.12196 23.0001 5.95083 23C5.83026 23.0003 5.71097 22.9768 5.6007 22.9312C5.38744 22.8442 5.21981 22.6816 5.13461 22.4791C5.04941 22.2765 5.05362 22.0507 5.1463 21.851L11.4596 8.26562C11.5076 8.16256 11.5776 8.0698 11.6654 7.99307C11.7532 7.91635 11.8569 7.85729 11.9701 7.81956C12.0832 7.78183 12.2035 7.76623 12.3234 7.77372C12.4432 7.78122 12.5602 7.81165 12.667 7.86312C12.9824 8.01714 13.2772 8.20568 13.5451 8.42478C14.2442 8.99156 14.6986 9.64768 15.0993 10.2268C15.9422 11.4425 16.5503 12.3214 19.1164 12.3214C19.2322 12.3208 19.347 12.3415 19.4541 12.3825C19.5613 12.4235 19.6588 12.4839 19.7409 12.5602C19.823 12.6365 19.8882 12.7273 19.9326 12.8273C19.9771 12.9273 20 13.0346 20 13.1429ZM5.95083 13.9643C6.12263 13.9642 6.29064 13.917 6.43403 13.8285C6.57743 13.74 6.68992 13.614 6.75756 13.4663L9.39178 7.71629C9.48337 7.51613 9.48627 7.29013 9.39983 7.08797C9.31339 6.88581 9.14468 6.72403 8.93079 6.63817L5.85754 5.40603C5.64357 5.32034 5.40199 5.31764 5.18589 5.3985C4.96978 5.47936 4.79684 5.63718 4.70507 5.83728L2.07085 11.5873C1.97926 11.7874 1.97636 12.0134 2.0628 12.2156C2.14924 12.4178 2.31795 12.5795 2.53184 12.6654L5.60509 13.8975C5.71432 13.9415 5.83194 13.9642 5.95083 13.9643ZM4.03115 11.4795L5.97278 7.23884L7.43258 7.82411L5.48985 12.0637L4.03115 11.4795Z" fill="#111111"/>
</svg>
