<svg preserveAspectRatio="none" width="100%" height="100%" overflow="visible" style="display: block;" viewBox="0 0 179.777 163.64" fill="none" xmlns="http://www.w3.org/2000/svg">
<g id="Group">
<path id="Vector" d="M51.7681 48.6624C51.7681 48.6624 63.4103 92.4549 72.2416 108.73C81.073 125.004 107.966 152.522 126.028 158.334C144.09 164.147 150.914 165.309 151.718 158.334C152.522 151.36 74.6533 75.7869 68.6327 65.3246C62.6121 54.8623 52.173 45.95 51.7739 48.6624H51.7681Z" fill="var(--fill-0, #263238)" stroke="var(--stroke-0, #263238)" stroke-miterlimit="10"/>
<g id="Group_2">
<g id="Group_3">
<path id="Vector_2" d="M87.6025 42.1965C87.6025 42.1965 75.7753 28.5996 68.8872 23.8687C61.9933 19.1378 52.7051 17.102 49.368 26.6101C46.0367 36.1239 56.1404 73.2306 75.4168 102.692C94.6931 132.153 121.893 149.995 132.396 155.824C142.898 161.654 150.463 163.603 157.947 159.48C165.431 155.356 155.489 131.54 151.065 117.827C146.64 104.114 135.125 90.0837 128.22 80.7896C121.314 71.4956 87.6025 42.2023 87.6025 42.2023V42.1965Z" fill="var(--fill-0, #52D6DE)" stroke="var(--stroke-0, #263238)" stroke-miterlimit="10"/>
<path id="Vector_3" d="M76.6948 55.2788C76.6948 55.2788 72.1317 56.4355 70.9229 63.873C69.7142 71.3106 74.3294 78.3317 82.8022 85.6478" stroke="var(--stroke-0, #263238)" stroke-miterlimit="10"/>
</g>
<g id="Group_4">
<path id="Vector_4" d="M89.4937 30.9534C89.4937 30.9534 83.4847 32.2489 82.9064 32.3472C82.328 32.4455 65.1916 36.7831 64.3009 37.1764C63.4161 37.5639 57.8234 47.4536 59.2173 48.645C60.6111 49.8364 76.0414 46.7943 76.0414 46.7943L77.7938 53.4742L114.16 54.3302C114.16 54.3302 118.29 58.9917 122.737 60.6168C127.185 62.2478 129.88 59.1652 130.14 56.499C130.4 53.8328 129.22 51.7681 128.191 50.6346C127.162 49.501 124.611 47.7891 124.143 47.1529C123.68 46.5167 119.805 44.0761 118.504 41.3174C117.202 38.5587 117.081 36.4361 113.906 33.8741C110.731 31.3178 105.3 30.9245 105.3 30.9245L89.488 30.9534H89.4937Z" fill="var(--fill-0, white)" stroke="var(--stroke-0, #263238)" stroke-miterlimit="10"/>
<path id="Vector_5" d="M112.46 45.6781C112.46 45.6781 114.143 42.6302 115.624 42.3815" stroke="var(--stroke-0, #263238)" stroke-miterlimit="10"/>
<path id="Vector_6" d="M76.0473 46.7885L80.0957 46.0136C80.0957 46.0136 81.5994 42.0577 80.0783 40.7911" stroke="var(--stroke-0, #263238)" stroke-miterlimit="10"/>
</g>
<path id="Vector_7" d="M127.057 54.174C127.428 56.3486 126.479 57.1757 123.946 57.6036C121.413 58.0316 118.255 57.9102 117.885 55.7298C117.515 53.5552 119.267 51.4385 121.8 51.0105C124.333 50.5825 126.687 51.9995 127.057 54.174Z" fill="var(--fill-0, #263238)" stroke="var(--stroke-0, #263238)" stroke-miterlimit="10"/>
<g id="Group_5">
<path id="Vector_8" d="M79.1355 61.6001C79.1355 61.6001 73.994 64.3414 73.8494 71.1254C73.7049 77.9094 90.6042 91.8708 98.0822 96.9313C105.56 101.992 118.394 106.428 124.547 105.387C130.701 104.346 135.322 98.5217 134.605 93.467C133.888 88.4122 111.234 65.9319 111.234 65.9319C111.234 65.9319 107.55 65.4056 104.351 65.2321C101.159 65.0528 79.1413 61.6001 79.1413 61.6001H79.1355Z" fill="var(--fill-0, #263238)" stroke="var(--stroke-0, #263238)" stroke-miterlimit="10"/>
<path id="Vector_9" d="M128.515 91.4775C128.515 91.4775 132.014 100.234 120.383 100.338C108.753 100.442 83.3054 81.8943 79.5577 76.7759C75.81 71.6575 78.8695 65.9608 78.8695 65.9608C78.8695 65.9608 75.2664 67.8115 75.677 73.1265C76.0876 78.4415 95.1789 95.7573 105.705 100.089C116.231 104.421 122.737 105.271 128.873 101.049C135.01 96.8272 128.515 91.4775 128.515 91.4775Z" fill="var(--fill-0, #454545)"/>
<path id="Vector_10" d="M113.512 72.5886C113.512 72.5886 125.45 88.684 126.421 93.5537C127.393 98.4234 118.758 96.7231 113.813 95.549C113.813 95.549 121.251 97.9318 121.829 92.692C122.407 87.4522 113.512 72.5829 113.512 72.5829V72.5886Z" fill="var(--fill-0, #454545)"/>
</g>
<g id="Group_6">
<path id="Vector_11" d="M82.9064 32.3414C82.9064 32.3414 85.5957 34.863 86.9606 37.9687C88.3255 41.0744 88.7014 44.7065 86.9317 46.91C85.1619 49.1135 82.6172 50.9757 80.7665 51.2938C78.9158 51.6061 76.8106 51.849 76.8106 51.849C76.8106 51.849 77.4815 55.7876 77.9904 58.8008C78.4994 61.814 80.4657 65.6484 80.4657 65.6484C80.4657 65.6484 83.8144 68.5344 91.9459 68.7021C100.078 68.8698 108.128 67.8635 110.21 66.7936C112.292 65.7236 113.368 63.6358 113.825 61.4149C114.282 59.1941 113.021 51.0683 112.466 45.6781C111.91 40.2937 109.557 35.5686 108.527 33.7179C107.498 31.8672 106.567 30.5948 106.567 30.5948L105.312 30.9244C105.312 30.9244 105.19 35.8288 105.219 38.0902C105.248 40.3515 104.363 42.1675 104.363 42.1675L94.8203 41.4041C94.8203 41.4041 92.0038 36.76 90.2803 34.3136C88.5568 31.8672 87.3365 30.9996 87.3365 30.9996C87.3365 30.9996 83.3806 31.5548 82.9179 32.3472L82.9064 32.3414Z" fill="var(--fill-0, #263238)" stroke="var(--stroke-0, #263238)" stroke-miterlimit="10"/>
<path id="Vector_12" d="M91.2057 46.8869L83.4095 53.3297C83.4095 53.3297 84.52 59.8766 85.3991 61.8834C86.2781 63.8903 89.7714 63.8382 89.7714 63.8382L99.9445 63.4565L95.4797 59.3676L88.1867 59.2577L87.082 54.3244L90.662 53.1793L90.61 51.2997L91.2057 46.8869Z" fill="var(--fill-0, #52D6DE)" stroke="var(--stroke-0, #263238)" stroke-miterlimit="10"/>
<path id="Vector_13" d="M84.572 32.8794C84.572 32.8794 87.8802 37.9804 88.6609 39.5188L92.5821 39.1082C92.5821 39.1082 89.0426 33.4057 87.886 31.9251L84.572 32.8736V32.8794Z" fill="var(--fill-0, #52D6DE)" stroke="var(--stroke-0, #263238)" stroke-miterlimit="10"/>
<path id="Vector_14" d="M105.514 33.4462C105.514 33.4462 106.191 36.6792 106.422 38.0556C106.653 39.4321 106.746 41.4737 106.746 41.4737L110.979 42.1677C110.979 42.1677 109.591 38.5414 108.77 35.9794C107.949 33.4173 107.59 32.8331 107.59 32.8331L105.508 33.4462H105.514Z" fill="var(--fill-0, #52D6DE)" stroke="var(--stroke-0, #263238)" stroke-miterlimit="10"/>
<path id="Vector_15" d="M111.465 56.2678L109.163 59.9229L108.556 62.433C108.556 62.433 113.426 60.7442 113.669 59.1595C113.917 57.5691 112.986 54.1221 111.459 56.2678H111.465Z" fill="var(--fill-0, #52D6DE)" stroke="var(--stroke-0, #263238)" stroke-miterlimit="10"/>
<path id="Vector_16" d="M107.874 48.4542L107.22 50.2066L105.595 49.9116L105.722 47.9163C103.519 47.471 100.355 47.1356 97.0123 47.7891L97.7525 50.1025H96.0349L95.0632 48.2865C94.1841 48.5641 93.305 48.9169 92.4317 49.3738L97.4402 59.8419L107.353 59.5064L108.764 48.7607C108.764 48.7607 108.44 48.6335 107.868 48.46L107.874 48.4542Z" fill="var(--fill-0, #52D6DE)" stroke="var(--stroke-0, #263238)" stroke-miterlimit="10"/>
</g>
<path id="Vector_17" d="M89.1467 23.325C89.1467 23.325 89.2913 30.323 89.4938 30.9534C89.6962 31.5838 98.9902 38.8305 100.517 39.4261C102.044 40.0218 102.992 40.0508 103.715 38.6916C104.432 37.3383 104.67 34.2615 104.67 34.2615L99.8867 34.0302L95.2599 29.12L94.4791 20.0457L89.1525 23.325H89.1467Z" fill="var(--fill-0, #263238)" stroke="var(--stroke-0, #263238)" stroke-miterlimit="10"/>
<g id="Group_7">
<path id="Vector_18" d="M94.0685 22.1105C94.0685 22.1105 93.7388 30.2305 94.6526 31.6879C95.5664 33.1453 99.343 36.3956 100.76 36.3436C102.177 36.2915 103.588 36.2453 104.675 34.2558C105.763 32.2662 107.307 29.6348 107.469 27.8014C107.631 25.968 107.307 25.1699 107.353 24.8807C107.399 24.5858 108.128 22.1856 107.278 19.959C106.428 17.7324 99.8751 18.276 97.446 19.0684C95.017 19.8607 94.9302 21.0116 94.0743 22.1105H94.0685Z" fill="var(--fill-0, white)" stroke="var(--stroke-0, #263238)" stroke-miterlimit="10"/>
<path id="Vector_19" d="M105.069 24.3257C105.069 24.3257 104.166 25.1412 104.352 25.679C104.537 26.2169 105.635 28.7848 104.976 29.3689C104.317 29.953 103.056 29.2185 103.056 29.2185" stroke="var(--stroke-0, #263238)" stroke-miterlimit="10"/>
<path id="Vector_20" d="M103.831 31.5549C103.831 31.5549 101.309 31.2253 99.9792 29.5538" stroke="var(--stroke-0, #263238)" stroke-miterlimit="10"/>
<path id="Vector_21" d="M101.529 25.9045C101.494 26.3672 101.234 26.7257 100.951 26.7026C100.667 26.6795 100.465 26.2862 100.5 25.8235C100.534 25.3608 100.795 25.0023 101.078 25.0254C101.361 25.0485 101.564 25.4418 101.529 25.9045Z" fill="var(--fill-0, #263238)"/>
<path id="Vector_22" d="M106.572 25.7137C106.538 26.1764 106.277 26.535 105.994 26.5119C105.711 26.4887 105.508 26.0955 105.543 25.6328C105.578 25.1701 105.838 24.8115 106.121 24.8347C106.405 24.8578 106.607 25.2511 106.572 25.7137Z" fill="var(--fill-0, #263238)"/>
<path id="Vector_23" d="M99.4703 24.3256C99.4703 24.3256 100.372 22.9375 102.356 23.4581" stroke="var(--stroke-0, #263238)" stroke-miterlimit="10"/>
<path id="Vector_24" d="M105.792 23.539C105.792 23.539 106.59 22.6426 107.394 23.4581" stroke="var(--stroke-0, #263238)" stroke-miterlimit="10"/>
</g>
<path id="Vector_25" d="M88.6783 19.9879C88.6783 19.9879 88.7187 23.0184 89.1525 23.3249C89.5863 23.6315 91.2172 24.3023 92.1657 23.7645C93.12 23.2208 94.0685 22.1104 94.0685 22.1104L106.723 20.6241C106.723 20.6241 106.925 21.2545 107.509 21.347C108.093 21.4395 108.383 20.3465 108.18 19.1435C107.978 17.9405 106.89 14.9042 103.871 12.7585C100.852 10.6129 95.3177 10.983 92.1831 13.227C89.0542 15.4652 88.5973 17.8191 88.684 19.9879H88.6783Z" fill="var(--fill-0, #52D6DE)" stroke="var(--stroke-0, #263238)" stroke-miterlimit="10"/>
<path id="Vector_26" d="M95.3582 21.8906C95.3582 21.8906 95.711 32.3645 96.191 32.9486C96.671 33.5328 97.7641 34.3887 97.7641 34.3887C97.7641 34.3887 96.4744 25.6904 96.4571 24.4585C96.4397 23.2266 96.5091 21.9832 96.5091 21.9832L95.3582 21.8964V21.8906Z" fill="var(--fill-0, #263238)" stroke="var(--stroke-0, #263238)" stroke-miterlimit="10"/>
<g id="Group_8">
<path id="Vector_27" d="M61.8488 31.0401C61.8488 31.0401 55.0069 36.9046 53.4049 41.0455C51.8029 45.1865 54.55 49.9752 57.8524 49.8769C61.1547 49.7786 63.8961 43.1334 64.2836 42.6996C64.6711 42.2659 66.4119 40.5886 66.649 39.2584C66.8862 37.9282 65.5386 37.6391 65.5386 37.6391L66.9614 34.597L61.843 31.0401H61.8488Z" fill="var(--fill-0, white)" stroke="var(--stroke-0, #263238)" stroke-miterlimit="10"/>
<path id="Vector_28" d="M61.8487 31.0402C61.8487 31.0402 60.1079 32.5324 58.1762 34.545C59.6568 36.2049 61.1489 37.7664 65.5501 37.6392C65.4981 36.5114 66.4234 35.7017 66.4234 35.7017L66.9729 34.5971L61.8545 31.0402H61.8487Z" fill="var(--fill-0, #263238)" stroke="var(--stroke-0, #263238)" stroke-miterlimit="10"/>
</g>
<g id="Group_9">
<path id="Vector_29" d="M42.1156 19.6525C42.1156 19.6525 41.2712 14.7944 37.0666 11.2202C32.8678 7.64021 12.348 0.318337 8.45573 0.503408C4.56346 0.688479 1.09337 6.20013 0.555509 9.79167C0.0176464 13.3832 3.45303 17.2466 8.58297 18.5999C13.7129 19.9532 26.6737 23.1573 31.3005 23.4812C35.9272 23.805 40.7333 22.978 42.104 19.6525H42.1156Z" fill="var(--fill-0, #52D6DE)" stroke="var(--stroke-0, #263238)" stroke-miterlimit="10"/>
<path id="Vector_30" d="M140.423 58.0374C140.423 58.0374 144.327 54.9895 151.07 55.7182C156.466 56.2965 173.516 64.3009 177.194 67.2504C181.191 70.4545 178.848 75.3126 175.106 78.6786C171.365 82.0446 164.609 80.8937 158.063 77.4004C147.623 71.8367 139.527 60.3508 139.527 60.3508L140.429 58.0374H140.423Z" fill="var(--fill-0, #52D6DE)" stroke="var(--stroke-0, #263238)" stroke-miterlimit="10"/>
<g id="Group_10">
<path id="Vector_31" d="M116.514 51.6178C116.514 51.6178 115.051 52.6357 115.675 53.4916C116.3 54.3476 117.492 55.886 117.85 54.949C118.203 54.0121 117.214 51.7855 117.214 51.7855L116.514 51.6178Z" fill="var(--fill-0, white)" stroke="var(--stroke-0, #263238)" stroke-miterlimit="10"/>
<path id="Vector_32" d="M175.268 72.8951C174.921 73.7858 173.915 74.2253 173.024 73.8667L139.515 60.3508L41.7512 22.4054L9.22492 10.3411C8.30535 9.99985 7.83689 8.97039 8.19546 8.05082C8.55404 7.13124 9.58928 6.68592 10.4973 7.05606L42.156 19.9012L140.417 58.0374L174.268 70.6685C175.164 71.0039 175.615 72.0045 175.268 72.8951Z" fill="var(--fill-0, #263238)" stroke="var(--stroke-0, #263238)" stroke-miterlimit="10"/>
<path id="Vector_33" d="M137.398 56.8633L136.415 59.1478L139.515 60.3507L173.024 73.8667C173.909 74.2253 174.921 73.7857 175.268 72.8951C175.615 72.0044 175.164 71.0039 174.268 70.6684L140.417 58.0373L137.398 56.8633Z" fill="var(--fill-0, #52D6DE)" stroke="var(--stroke-0, #263238)" stroke-miterlimit="10"/>
<path id="Vector_34" d="M42.1617 19.9011L10.503 7.05602C9.58922 6.68587 8.55398 7.13699 8.20119 8.05077C7.84839 8.96456 8.31107 9.99981 9.23065 10.341L41.7569 22.4054L43.8621 23.2208L45.0246 21.0058L42.1617 19.8953V19.9011Z" fill="var(--fill-0, #52D6DE)" stroke="var(--stroke-0, #263238)" stroke-miterlimit="10"/>
</g>
</g>
<g id="Group_11">
<path id="Vector_35" d="M61.8372 26.1531C61.8372 26.1531 60.4954 30.1957 60.906 30.4791C61.3109 30.7683 63.3119 34.1227 64.7405 34.8341C66.169 35.5454 67.424 35.21 68.1585 34.6085C68.893 34.007 69.1185 33.2552 69.1185 33.2552L68.2221 31.5028L69.026 30.2709C69.2284 29.9644 69.1648 29.5538 68.8699 29.3282C68.6617 29.1663 68.4014 28.9985 68.1354 28.8944C67.4992 28.6458 67.6843 28.7094 67.1059 28.0963C66.5276 27.4833 65.6022 26.5868 64.3241 26.0895C63.0459 25.5921 62.3345 25.5921 61.8314 26.1531H61.8372Z" fill="var(--fill-0, white)" stroke="var(--stroke-0, #263238)" stroke-miterlimit="10"/>
<path id="Vector_36" d="M67.5049 28.6456C67.5049 28.6456 66.4986 30.1956 66.3135 30.5252C66.1284 30.8607 66.1284 31.2193 66.1284 31.2193" stroke="var(--stroke-0, #263238)" stroke-miterlimit="10"/>
<path id="Vector_37" d="M66.0417 27.4889C66.0417 27.4889 64.3702 29.0447 64.2661 29.4842C64.162 29.9238 64.3876 30.5542 64.3876 30.5542" stroke="var(--stroke-0, #263238)" stroke-miterlimit="10"/>
<path id="Vector_38" d="M63.9481 26.2108C63.9481 26.2108 62.3981 28.8307 62.3808 29.438C62.3634 30.0452 62.7162 30.346 62.7162 30.346" stroke="var(--stroke-0, #263238)" stroke-miterlimit="10"/>
</g>
<g id="Group_12">
<path id="Vector_39" d="M127.659 52.6877C127.659 52.6877 126.595 50.7503 125.872 50.3165C125.155 49.8827 121.309 48.4195 120.129 48.5236C118.949 48.6335 117.966 49.3507 117.7 50.5016C117.434 51.6525 117.497 53.1157 118.203 54.0121C118.908 54.9086 120.285 55.4117 121.372 55.3192C122.465 55.2267 123.524 54.3996 123.524 54.3996C123.524 54.3996 125.027 52.948 125.554 52.7629C126.074 52.5836 127.659 52.6819 127.659 52.6819V52.6877Z" fill="var(--fill-0, white)" stroke="var(--stroke-0, #263238)" stroke-miterlimit="10"/>
<path id="Vector_40" d="M122.003 55.2151C122.003 55.2151 121.609 53.989 121.592 53.347C121.575 52.7051 123.9 50.6519 124.362 50.6635" stroke="var(--stroke-0, #263238)" stroke-miterlimit="10"/>
<path id="Vector_41" d="M119.973 55.192C119.973 55.192 119.099 53.3123 119.533 52.5952C119.967 51.878 121.794 50.1835 122.407 49.9868" stroke="var(--stroke-0, #263238)" stroke-miterlimit="10"/>
<path id="Vector_42" d="M118.203 54.0122C118.203 54.0122 118.029 51.9186 118.556 51.1899C119.076 50.4554 119.955 49.6631 119.955 49.6631" stroke="var(--stroke-0, #263238)" stroke-miterlimit="10"/>
</g>
</g>
</g>
</svg>
