<svg preserveAspectRatio="none" width="100%" height="100%" overflow="visible" style="display: block;" viewBox="0 0 53.9015 146.564" fill="none" xmlns="http://www.w3.org/2000/svg">
<g id="freepik--Character--inject-3">
<path id="Vector" d="M16.246 134.952C16.246 134.952 16.1202 138.914 17.5249 140.319C18.9297 141.724 22.6339 141.081 23.6542 140.955C24.3664 140.744 24.9894 140.305 25.4276 139.705C25.8657 139.105 26.0947 138.378 26.0794 137.635C25.8832 136.084 25.5844 134.548 25.1848 133.037C25.1848 133.037 23.2349 135.469 16.246 134.952Z" fill="var(--fill-0, white)" stroke="var(--stroke-0, #263238)" stroke-linecap="round" stroke-linejoin="round"/>
<path id="Vector_2" d="M25.7022 139.201C20.0341 140.55 16.987 139.424 16.987 139.424H16.945C17.0819 139.752 17.2759 140.053 17.5181 140.312C18.9159 141.71 22.627 141.074 23.6474 140.948C24.0956 140.822 24.5113 140.601 24.866 140.299C25.2206 139.998 25.5059 139.623 25.7022 139.201Z" fill="var(--fill-0, white)" stroke="var(--stroke-0, #263238)" stroke-width="0.75" stroke-linecap="round" stroke-linejoin="round"/>
<path id="Vector_3" d="M12.6188 70.22C12.6188 70.22 16.4697 88.8804 17.0637 92.7314C17.6578 96.5823 16.7632 100.734 15.8756 103.69C14.988 106.646 14.2472 115.571 14.6945 119.247C15.1418 122.924 15.7288 127.543 15.7288 128.871C15.7288 130.199 15.4353 131.667 15.7288 133.617L16.0224 135.539C17.7324 135.855 19.4692 136.005 21.2082 135.986C23.1371 135.839 24.7655 135.098 25.3596 134.057C25.9537 133.016 26.2472 130.507 26.2472 129.165C26.2472 127.823 25.0591 121.162 25.0591 117.283C25.0591 113.405 27.8547 104.55 28.4697 100.398C29.1242 95.2964 29.5184 90.1645 29.6508 85.0226C29.6508 81.7657 29.3573 77.4675 29.6508 77.0272C29.9443 76.5869 30.2449 70.9538 30.2449 70.9538C27.1724 71.0166 24.1002 70.8179 21.0614 70.3598C16.6164 69.6259 14.6945 69.0319 12.6188 70.22Z" fill="var(--fill-0, #263238)"/>
<path id="Vector_4" d="M24.3883 135.084C24.3883 135.084 21.8373 140.319 22.6061 141.465C23.3749 142.611 28.0924 144.911 31.0278 145.421C34.0728 145.847 37.1436 146.062 40.2182 146.064C41.8816 146.064 41.4972 144.666 40.987 144.016C40.4768 143.366 36.5211 140.319 35.6265 139.55C34.9396 138.912 34.3018 138.223 33.7185 137.489C33.7185 137.489 25.9259 134.952 24.3883 135.084Z" fill="var(--fill-0, white)" stroke="var(--stroke-0, #263238)" stroke-linecap="round" stroke-linejoin="round"/>
<path id="Vector_5" d="M31.2863 144.533C28.1094 143.762 25.1181 142.365 22.4873 140.424C22.4105 140.775 22.4523 141.141 22.6061 141.465C23.3679 142.618 28.0924 144.911 31.0277 145.421C34.0727 145.847 37.1435 146.062 40.2182 146.064C41.1477 146.064 41.4343 145.624 41.4203 145.127C38.0363 145.603 34.5915 145.401 31.2863 144.533Z" fill="var(--fill-0, white)" stroke="var(--stroke-0, #263238)" stroke-width="0.75" stroke-linecap="round" stroke-linejoin="round"/>
<path id="Vector_6" d="M24.0249 72.142C24.0249 72.142 34.096 91.5503 35.4308 94.8071C35.9169 95.9305 36.117 97.1568 36.0134 98.3763C35.9097 99.5959 35.5055 100.771 34.8368 101.796C33.2624 104.728 32.1162 107.87 31.4332 111.126C30.6227 115.371 29.4321 119.535 27.8758 123.567C26.5409 126.684 23.5776 131.716 23.8781 132.75C24.1046 133.826 24.2518 134.917 24.3184 136.014C24.3184 136.014 29.2107 138.236 31.3074 138.236C33.4041 138.236 34.5712 138.236 34.8647 137.496C35.1583 136.755 36.3464 134.826 36.3464 132.904C36.3464 130.982 35.8991 130.108 36.0529 128.459C36.2066 126.809 43.9014 113.349 44.195 108.89C44.4885 104.431 47.7523 99.7064 47.1583 96.0022C46.5642 92.2981 44.6423 74.0849 42.7133 72.0092C40.7844 69.9335 24.0249 72.142 24.0249 72.142Z" fill="var(--fill-0, #263238)"/>
<path id="Vector_7" d="M12.6188 64.7337C12.6188 64.7337 12.6188 64.9643 12.5489 65.3417C12.3182 67.3615 11.6054 73.7983 11.7312 73.9241C11.857 74.0499 14.6945 70.8071 18.0981 72.2887C21.7529 74.0156 25.7559 74.8788 29.7976 74.8117C34.9833 74.8117 38.5407 73.0296 40.91 73.0296C42.8121 73.124 44.6984 73.4239 46.536 73.9241C46.536 73.9241 43.1324 69.9195 42.2448 67.9975C41.7295 66.8895 41.2836 65.7504 40.91 64.5869C40.91 64.5869 28.1691 64.5869 21.6554 64.8874C15.1418 65.188 12.6188 64.7337 12.6188 64.7337Z" fill="var(--fill-0, white)"/>
<path id="Vector_8" d="M12.6188 64.7337C12.6188 64.7337 12.6188 64.9643 12.5489 65.3417C12.3182 67.3615 11.6054 73.7983 11.7312 73.9241C11.857 74.0499 14.6945 70.8071 18.0981 72.2887C21.7529 74.0156 25.7559 74.8788 29.7976 74.8117C34.9833 74.8117 38.5407 73.0296 40.91 73.0296C42.8121 73.124 44.6984 73.4239 46.536 73.9241C46.536 73.9241 43.1324 69.9195 42.2448 67.9975C41.7295 66.8895 41.2836 65.7504 40.91 64.5869C40.91 64.5869 28.1691 64.5869 21.6554 64.8874C15.1418 65.188 12.6188 64.7337 12.6188 64.7337Z" stroke="var(--stroke-0, #263238)" stroke-linecap="round" stroke-linejoin="round"/>
<path id="Vector_9" d="M38.0935 25.3371C38.0935 25.3371 45.0825 25.0435 46.2426 25.7774C47.4028 26.5112 47.7243 30.9632 48.9054 34.227C49.6909 36.5036 50.287 38.8412 50.6876 41.2159C50.6876 41.2159 52.4628 40.6219 53.2036 45.5071C53.9444 50.3924 52.4628 53.6562 51.1069 55.5782C49.7511 57.5001 47.7033 58.842 42.3708 56.1722C42.3708 56.1722 43.7056 58.9678 43.7056 60.3237C43.7056 61.6795 41.7767 63.1192 41.7767 63.1192C35.6807 63.8726 29.5506 64.3181 23.4098 64.4541C14.0796 64.6009 12.4511 63.7133 12.0038 62.3575C11.5565 61.0016 11.263 40.2864 11.7103 34.6603C12.1576 29.0342 16.1553 24.8758 19.1186 23.8484C22.0819 22.821 38.0935 25.3371 38.0935 25.3371Z" fill="var(--fill-0, white)"/>
<path id="Vector_10" d="M38.0935 25.3371C38.0935 25.3371 45.0825 25.0435 46.2426 25.7774C47.4028 26.5112 47.7243 30.9632 48.9054 34.227C49.6909 36.5036 50.287 38.8412 50.6876 41.2159C50.6876 41.2159 52.4628 40.6219 53.2036 45.5071C53.9444 50.3924 52.4628 53.6562 51.1069 55.5782C49.7511 57.5001 47.7033 58.842 42.3708 56.1722C42.3708 56.1722 43.7056 58.9678 43.7056 60.3237C43.7056 61.6795 41.7767 63.1192 41.7767 63.1192C35.6807 63.8726 29.5506 64.3181 23.4098 64.4541C14.0796 64.6009 12.4511 63.7133 12.0038 62.3575C11.5565 61.0016 11.263 40.2864 11.7103 34.6603C12.1576 29.0342 16.1553 24.8758 19.1186 23.8484C22.0819 22.821 38.0935 25.3371 38.0935 25.3371Z" stroke="var(--stroke-0, #263238)" stroke-linecap="round" stroke-linejoin="round"/>
<path id="Vector_11" d="M42.0213 11.9463C42.0213 11.9463 44.6561 11.52 44.8169 12.7081C45.0195 14.3784 45.1663 15.3219 43.489 15.5666C41.8116 15.8112 41.4063 13.2672 42.0213 11.9463Z" fill="var(--fill-0, #263238)" stroke="var(--stroke-0, #263238)" stroke-linecap="round" stroke-linejoin="round"/>
<path id="Vector_12" d="M42.6363 10.1851C42.6363 10.1851 42.0352 12.107 42.5175 13.1903C42.9997 14.2736 43.6008 17.3837 43.1185 18.9492C42.6363 20.5147 41.1966 23.1425 39.9945 23.513C38.7924 23.8834 36.5 22.6673 36.1576 22.4297C35.8151 22.192 38.3171 19.4314 36.9962 18.8304C35.6753 18.2293 35.1931 14.1478 36.2973 12.8269C37.1309 11.9302 38.1557 11.2327 39.2956 10.7861L42.6363 10.1851Z" fill="var(--fill-0, white)" stroke="var(--stroke-0, #263238)" stroke-linecap="round" stroke-linejoin="round"/>
<path id="Vector_13" d="M26.7924 14.6301C26.8609 14.6766 26.9171 14.739 26.9561 14.8121C26.995 14.8851 27.0156 14.9666 27.0161 15.0494C27.0161 15.3499 26.8553 15.8252 26.0726 16.545C24.514 17.9917 22.9485 18.9492 22.9485 20.7384C22.9485 22.5275 23.913 22.4157 29.0708 23.8554C34.2287 25.2952 39.5542 22.5345 39.8757 20.0185C40.1972 17.5025 37.2339 16.524 37.7161 14.8537C38.0272 13.8022 38.4711 12.7947 39.037 11.8554C39.037 11.8554 33.998 13.2952 31.7126 13.2952C29.4273 13.2952 26.5688 14.2037 26.7924 14.6301Z" fill="var(--fill-0, #263238)" stroke="var(--stroke-0, #263238)" stroke-linecap="round" stroke-linejoin="round"/>
<path id="Vector_14" d="M25.4716 5.14604C25.4716 5.14604 24.6329 7.94162 25.1152 8.86416C25.5974 9.7867 26.5549 14.029 26.7925 14.63C27.0301 15.2311 31.4751 14.1478 34.8368 13.9311C38.1985 13.7145 46.0191 9.60498 47.0814 8.28407C48.1437 6.96317 48.2835 7.08896 46.5991 7.08896C44.9148 7.08896 41.9166 7.32658 41.9166 7.32658C41.9166 7.32658 39.9946 3.36386 38.0796 1.92414C36.1647 0.48442 32.5584 0.246796 30.7552 0.722043C28.9521 1.19729 25.4716 3.60149 25.1152 4.44715C24.7587 5.29281 25.4716 5.14604 25.4716 5.14604Z" fill="var(--fill-0, #75EB96)" stroke="var(--stroke-0, #263238)" stroke-linecap="round" stroke-linejoin="round"/>
<path id="Vector_15" d="M36.2835 13.6516C40.0435 12.6871 46.1379 9.42328 47.0814 8.26312C48.1577 6.94221 48.2835 7.06801 46.5991 7.06801C44.9148 7.06801 41.9165 7.30563 41.9165 7.30563C41.9165 7.30563 38.9812 12.156 36.2835 13.6516Z" fill="var(--fill-0, white)" stroke="var(--stroke-0, #263238)" stroke-linecap="round" stroke-linejoin="round"/>
<path id="Vector_16" d="M25.4715 5.14603C26.6669 5.35181 27.8916 5.31138 29.0708 5.02722" stroke="var(--stroke-0, #263238)" stroke-linecap="round" stroke-linejoin="round"/>
<path id="Vector_17" d="M37.3597 13.7844L44.7889 12.3307" stroke="var(--stroke-0, #263238)" stroke-linecap="round" stroke-linejoin="round"/>
<path id="Vector_18" d="M20.9147 22.0802C22.7664 21.4269 24.7574 21.2726 26.6876 21.633C29.9514 22.227 37.2059 24.149 39.7219 24.4285C42.238 24.7081 41.2036 25.1694 39.2816 25.9102C37.3597 26.651 33.6556 28.8735 31.5938 29.6143C29.5321 30.3551 20.7819 27.8321 18.853 26.4973C16.924 25.1624 18.8739 23.4081 20.9147 22.0802Z" fill="var(--fill-0, #75EB96)" stroke="var(--stroke-0, #263238)" stroke-linecap="round" stroke-linejoin="round"/>
<path id="Vector_19" d="M42.3918 56.1443C41.0822 54.3486 40.2197 52.2666 39.8758 50.0709C39.4285 46.6673 38.2473 38.9655 38.0936 37.1833C37.9398 35.4011 37.6533 33.6329 38.8344 32.7453" stroke="var(--stroke-0, #263238)" stroke-linecap="round" stroke-linejoin="round"/>
<path id="Vector_20" d="M42.9789 62.5322C42.9789 62.5322 42.8391 64.8875 42.0983 65.9218C41.3575 66.9562 37.3528 66.8094 30.8391 67.11C25.1038 67.3506 19.3584 67.152 13.6533 66.5159C10.69 66.0686 12.4722 62.3645 12.7657 61.1833C13.0593 60.0022 17.0639 61.9242 25.6533 61.6236C34.2427 61.3231 42.9789 62.008 42.9789 62.5322Z" fill="var(--fill-0, #263238)" stroke="var(--stroke-0, #263238)" stroke-linecap="round" stroke-linejoin="round"/>
<path id="Vector_21" d="M32.0831 27.9719L40.358 25.2322L41.2176 25.3021L32.9497 30.3901L32.0831 27.9719Z" fill="var(--fill-0, #263238)" stroke="var(--stroke-0, #263238)" stroke-linecap="round" stroke-linejoin="round"/>
<path id="Vector_22" d="M30.9858 26.2247C30.9858 26.2247 28.6165 23.1146 22.0959 23.1146C15.5752 23.1146 8.76796 25.6306 6.7202 28.7407C6.1202 29.6492 5.74077 30.6853 5.61215 31.7665C5.48353 32.8476 5.60928 33.9439 5.97937 34.9678C5.97937 34.9678 2.72253 50.5182 1.08712 54.9632C-0.54829 59.4081 1.23389 63.259 6.41968 66.3691C11.6055 69.4792 22.2706 72.142 26.8623 70.0662C31.454 67.9905 33.6765 63.259 33.376 59.7016C33.0755 56.1443 32.1949 49.4838 32.0411 45.1856C31.8874 40.8874 35.3049 35.8554 34.4104 31.704C33.5158 27.5526 30.9858 26.2247 30.9858 26.2247Z" fill="var(--fill-0, #75EB96)" stroke="var(--stroke-0, #263238)" stroke-linecap="round" stroke-linejoin="round"/>
<path id="Vector_23" d="M23.1791 66.0616C16.3789 66.0616 10.9695 63.4477 5.90947 61.8682C1.71611 60.5683 2.415 62.7419 2.80639 63.5246C3.86411 64.635 5.07352 65.5903 6.3987 66.3621C11.5845 69.4722 22.2496 72.135 26.8413 70.0593C28.3417 69.3735 29.6735 68.3673 30.7433 67.1116C31.8131 65.8559 32.5948 64.381 33.0335 62.7908C30.2313 64.998 26.745 66.1552 23.1791 66.0616Z" fill="var(--fill-0, #263238)" stroke="var(--stroke-0, #263238)" stroke-linecap="round" stroke-linejoin="round"/>
<path id="Vector_24" d="M21.2084 31.8508C21.2084 31.8508 14.9882 50.0709 18.5456 54.5159C22.103 58.9608 30.5386 61.9242 31.58 59.5549C32.6213 57.1857 28.1694 46.9748 29.7978 41.9288C31.4262 36.8828 33.2084 35.4081 31.8945 33.1856C30.5805 30.9632 23.2841 28.5939 21.2084 31.8508Z" fill="var(--fill-0, white)"/>
<path id="Vector_25" d="M16.6166 35.4081C16.6166 35.4081 13.3598 51.4058 11.8781 54.6626C10.3964 57.9195 3.14193 57.6259 2.84141 53.6283C2.54089 49.6306 7.28637 35.1146 7.43313 34.5205C7.5799 33.9265 16.6166 35.4081 16.6166 35.4081Z" fill="var(--fill-0, white)"/>
<path id="Vector_26" d="M30.9858 26.2247C30.9858 26.2247 28.6166 23.1146 22.0959 23.1146C15.5752 23.1146 8.768 25.6306 6.72024 28.7407C6.12025 29.6492 5.74081 30.6853 5.61219 31.7665C5.48357 32.8476 5.60932 33.9439 5.97942 34.9678C6.88131 35.9003 7.97028 36.6315 9.1748 37.1133C10.3793 37.5951 11.6721 37.8167 12.9684 37.7634C17.4133 37.6166 20.8239 35.1006 23.1932 34.213C25.5624 33.3254 29.7069 35.2474 32.3766 35.2474C33.1464 35.2069 33.8822 34.9175 34.4733 34.4227C34.6126 33.5154 34.5937 32.5908 34.4174 31.69C33.5018 27.5595 30.9858 26.2247 30.9858 26.2247Z" fill="var(--fill-0, #263238)" stroke="var(--stroke-0, #263238)" stroke-linecap="round" stroke-linejoin="round"/>
</g>
</svg>
