<svg preserveAspectRatio="none" width="100%" height="100%" overflow="visible" style="display: block;" viewBox="0 0 380.413 167.024" fill="none" xmlns="http://www.w3.org/2000/svg">
<g id="freepik--Mountains--inject-3">
<path id="Vector" d="M345.18 50.6226C345.185 50.2501 345.222 49.8788 345.29 49.5126C345.96 46.1726 349.29 42.9226 353.95 39.3326C338.83 31.8226 320.08 22.6426 315.53 21.0226C307.61 18.1926 285.01 32.3226 279.36 34.5826C273.71 36.8426 258.44 40.2326 252.23 36.8426C246.02 33.4526 197.97 1.8426 187.23 0.1026C176.49 -1.6374 143.15 19.3226 138.06 19.8926C132.97 20.4626 101.89 10.2826 87.76 8.58261C78.28 7.44261 30.46 40.0526 0 61.6426C3.05136 80.8961 11.833 98.7835 25.2 112.973C32.68 111.083 38.52 109.323 40.29 108.623C45.94 106.363 61.77 101.273 66.85 97.8826C71.93 94.4926 206.45 71.8826 210.97 70.1926C215.49 68.5026 201.97 62.2726 204.75 58.8826C206.83 56.3926 297.29 52.5126 345.18 50.6226Z" fill="var(--fill-0, #75EB96)"/>
<path id="Vector_2" opacity="0.6" d="M345.18 50.6226C345.185 50.2501 345.222 49.8788 345.29 49.5126C345.96 46.1726 349.29 42.9226 353.95 39.3326C338.83 31.8226 320.08 22.6426 315.53 21.0226C307.61 18.1926 285.01 32.3226 279.36 34.5826C273.71 36.8426 258.44 40.2326 252.23 36.8426C246.02 33.4526 197.97 1.8426 187.23 0.1026C176.49 -1.6374 143.15 19.3226 138.06 19.8926C132.97 20.4626 101.89 10.2826 87.76 8.58261C78.28 7.44261 30.46 40.0526 0 61.6426C3.05136 80.8961 11.833 98.7835 25.2 112.973C32.68 111.083 38.52 109.323 40.29 108.623C45.94 106.363 61.77 101.273 66.85 97.8826C71.93 94.4926 206.45 71.8826 210.97 70.1926C215.49 68.5026 201.97 62.2726 204.75 58.8826C206.83 56.3926 297.29 52.5126 345.18 50.6226Z" fill="var(--fill-0, white)"/>
<path id="Vector_3" d="M360.16 34.7326C352.46 31.8226 346.79 29.9126 345.48 30.0626C340.39 30.6226 271.57 51.2126 271.57 51.2126C271.57 51.2126 223.4 55.4926 213.8 58.8826C204.2 62.2726 214.36 60.5826 223.97 68.4926C233.58 76.4026 174.23 84.3126 161.8 88.8426C149.37 93.3726 187.23 101.843 208.14 110.843C229.05 119.843 118.85 122.713 118.85 122.713L115.2 155.943C239.01 180.263 357.88 160.673 376.29 134.513C395.29 107.513 342.29 64.5126 345.29 49.5126C346.23 44.8026 352.5 40.2926 360.16 34.7326Z" fill="var(--fill-0, #75EB96)"/>
<path id="Vector_4" opacity="0.5" d="M360.16 34.7326C352.46 31.8226 346.79 29.9126 345.48 30.0626C340.39 30.6226 271.57 51.2126 271.57 51.2126C271.57 51.2126 223.4 55.4926 213.8 58.8826C204.2 62.2726 214.36 60.5826 223.97 68.4926C233.58 76.4026 174.23 84.3126 161.8 88.8426C149.37 93.3726 187.23 101.843 208.14 110.843C229.05 119.843 118.85 122.713 118.85 122.713L115.2 155.943C239.01 180.263 357.88 160.673 376.29 134.513C395.29 107.513 342.29 64.5126 345.29 49.5126C346.23 44.8026 352.5 40.2926 360.16 34.7326Z" fill="var(--fill-0, white)"/>
<path id="Vector_5" d="M269.86 136.343C281.36 125.703 196.66 97.1826 191.12 91.2226C185.58 85.2626 243.48 73.7726 252.84 69.5126C262.2 65.2526 235.39 61.4326 238.37 58.4526C241.35 55.4726 271.57 51.2126 271.57 51.2126C271.57 51.2126 181.34 52.9126 174.57 58.8726C167.8 64.8326 195.81 66.5126 187.72 69.5126C179.63 72.5126 97.49 77.1726 93.23 81.4326C88.97 85.6926 88.12 87.4326 81.31 88.2426C75.04 89.0326 41.99 91.6226 15.86 101.363C31.59 124.213 59.29 143.883 103.29 153.513C116.52 156.403 129.72 158.783 142.79 160.693C163.79 158.483 184.71 155.513 205.52 151.963C219.76 149.533 234.03 147.023 248.1 143.703C254.52 142.193 264.76 141.063 269.86 136.343Z" fill="var(--fill-0, white)"/>
</g>
</svg>
