<svg preserveAspectRatio="none" width="100%" height="100%" overflow="visible" style="display: block;" viewBox="0 0 104.002 47.5877" fill="none" xmlns="http://www.w3.org/2000/svg">
<g id="freepik--Rock--inject-3">
<path id="Vector" d="M104.002 47.5877C102.605 45.7146 99.809 41.8917 99.5434 41.2976C99.145 40.5079 96.5801 35.965 96.1817 34.1899C95.7833 32.4147 92.827 28.4589 92.233 27.4735C91.6389 26.4881 89.2697 23.5248 89.2697 23.5248C89.2697 23.5248 86.7047 17.4024 86.1107 14.4391C85.5166 11.4758 82.5533 10.6861 79.8206 8.91089C77.0879 7.1357 74.2924 4.56377 73.5655 4.2283C72.8387 3.89283 69.1555 3.96971 68.3657 3.96971C67.576 3.96971 59.8742 2.57192 59.8742 2.57192C59.8742 2.57192 53.5492 0 52.3681 0H45.6517C44.6663 0 42.297 1.97786 42.297 1.97786L33.4071 10.2737C33.4071 10.2737 25.3139 13.0344 23.7274 13.4327C22.1409 13.8311 20.5684 18.3669 19.7787 20.5405C18.9889 22.714 4.54281 33.7705 4.33314 34.3646C4.17938 34.8328 1.25801 43.7437 0 47.5667L104.002 47.5877Z" fill="var(--fill-0, #263238)"/>
<path id="Vector_2" opacity="0.18" d="M80.1631 44.7921L76.2283 47.5877H104.002C102.605 45.7146 99.809 41.8917 99.5434 41.2976C99.145 40.5079 96.5801 35.9651 96.1817 34.1899C95.7834 32.4147 92.8271 28.4589 92.233 27.4735C91.6389 26.4881 89.2697 23.5248 89.2697 23.5248C89.2697 23.5248 86.7047 17.4025 86.1107 14.4391C85.5166 11.4758 82.5533 10.6861 79.8206 8.9109C78.2314 7.84279 76.6987 6.69272 75.2289 5.46536L75.9837 6.49273L81.9593 11.8043L82.1829 16.6966L83.5108 20.0163C83.5108 20.0163 86.3833 24 87.4875 25.3279C88.5918 26.6558 81.7356 27.7601 81.7356 27.7601L83.9511 33.9592L89.703 39.7111L85.7193 40.8224L80.1631 44.7921Z" fill="var(--fill-0, white)"/>
</g>
</svg>
