<svg preserveAspectRatio="none" width="100%" height="100%" overflow="visible" style="display: block;" viewBox="0 0 77.2447 135.88" fill="none" xmlns="http://www.w3.org/2000/svg">
<g id="freepik--character-3--inject-4">
<path id="Vector" d="M3.17674 50.8804C3.17674 50.8804 0.712451 60.2252 0.53972 61.0773C0.366989 61.9295 1.30549 63.4553 2.75068 63.5416C4.19586 63.628 5.98075 62.6895 7.16683 60.7376C8.35292 58.7858 9.80386 53.4311 9.80386 53.4311L3.17674 50.8804Z" fill="var(--fill-0, white)" stroke="var(--stroke-0, #263238)" stroke-linecap="round" stroke-linejoin="round"/>
<path id="Vector_2" d="M41.7533 49.2683C41.7533 49.2683 44.897 59.2924 45.064 59.7991C45.2309 60.3058 43.9585 61.6704 41.7533 61.3307C39.5481 60.991 39.7957 61.5034 38.8744 59.8855C37.9532 58.2676 35.2183 52.9187 35.2183 52.9187C36.0595 52.1033 36.9709 51.3635 37.9417 50.7077C39.1211 50.0146 40.4101 49.5279 41.7533 49.2683Z" fill="var(--fill-0, white)" stroke="var(--stroke-0, #263238)" stroke-linecap="round" stroke-linejoin="round"/>
<path id="Vector_3" d="M36.6289 104.266C36.2485 105.138 35.9647 106.049 35.7825 106.983C35.5164 108.137 35.176 109.271 34.7634 110.381C34.7634 110.381 33.8249 122.529 33.9977 126.013C34.1704 129.496 34.1646 131.195 34.4237 131.454C34.6828 131.713 37.9071 132.559 39.692 133.152C41.4769 133.745 43.7685 134.764 42.9163 135.19C42.0642 135.617 29.236 135.19 29.236 135.19C29.236 135.19 28.3897 135.703 28.2169 134.258C28.0442 132.813 29.236 131.955 28.8963 129.922C28.5566 127.89 26.432 121.769 25.9254 117.255C25.4187 112.741 26.2651 108.423 26.2651 106.805C26.2651 105.187 26.0923 103.322 26.0923 103.322L36.6289 104.266Z" fill="var(--fill-0, white)" stroke="var(--stroke-0, #263238)" stroke-linecap="round" stroke-linejoin="round"/>
<path id="Vector_4" d="M28.24 134.235C28.2033 133.874 28.2385 133.51 28.3436 133.164C29.4951 133.267 32.1494 133.469 32.1494 133.469C32.4772 133.014 32.7624 132.531 33.0016 132.024C33.0574 131.89 33.1393 131.769 33.2426 131.667C33.3459 131.566 33.4685 131.486 33.6031 131.432C33.7377 131.378 33.8817 131.352 34.0265 131.355C34.1714 131.358 34.3143 131.389 34.4468 131.448C34.7001 131.701 37.9302 132.553 39.7151 133.147C41.4999 133.74 43.7915 134.759 42.9394 135.185C42.0872 135.611 29.2591 135.185 29.2591 135.185C29.2591 135.185 28.4127 135.68 28.24 134.235Z" fill="var(--fill-0, #263238)" stroke="var(--stroke-0, #263238)" stroke-linecap="round" stroke-linejoin="round"/>
<path id="Vector_5" d="M10.0802 104.266C10.4572 105.139 10.7409 106.05 10.9265 106.983C11.1927 108.137 11.5331 109.271 11.9456 110.381C11.9456 110.381 12.8841 122.529 12.7114 126.013C12.5387 129.496 12.5444 131.195 12.2853 131.454C12.0262 131.713 8.80194 132.559 7.01705 133.152C5.23216 133.745 2.94059 134.764 3.79273 135.19C4.64487 135.617 17.473 135.19 17.473 135.19C17.473 135.19 18.3194 135.703 18.4921 134.258C18.6649 132.813 17.473 131.955 17.8127 129.922C18.1524 127.89 20.277 121.769 20.7837 117.255C21.2904 112.741 20.444 108.423 20.444 106.805C20.444 105.187 20.6167 103.322 20.6167 103.322L10.0802 104.266Z" fill="var(--fill-0, white)" stroke="var(--stroke-0, #263238)" stroke-linecap="round" stroke-linejoin="round"/>
<path id="Vector_6" d="M18.4921 134.235C18.5289 133.874 18.4936 133.51 18.3885 133.164C17.237 133.267 14.5827 133.469 14.5827 133.469C14.255 133.014 13.9697 132.531 13.7305 132.024C13.6747 131.89 13.5928 131.769 13.4895 131.667C13.3862 131.566 13.2636 131.486 13.129 131.432C12.9944 131.378 12.8504 131.352 12.7056 131.355C12.5607 131.358 12.4178 131.389 12.2853 131.448C12.032 131.701 8.80194 132.553 7.01705 133.147C5.23216 133.74 2.94059 134.759 3.79273 135.185C4.64487 135.611 17.473 135.185 17.473 135.185C17.473 135.185 18.3194 135.68 18.4921 134.235Z" fill="var(--fill-0, #263238)" stroke="var(--stroke-0, #263238)" stroke-linecap="round" stroke-linejoin="round"/>
<path id="Vector_7" d="M40.6593 82.1505C40.6593 82.4902 40.9127 90.3898 40.0835 95.4911C39.2544 100.592 38.719 105.855 38.719 105.855H23.9908L23.2308 99.0839L22.7183 105.884H9.29134C9.29134 105.884 4.78883 92.1171 6.74644 80.0547L40.0835 80.0835L40.6593 82.1505Z" fill="var(--fill-0, #263238)" stroke="var(--stroke-0, #263238)" stroke-linecap="round" stroke-linejoin="round"/>
<path id="Vector_8" d="M23.2308 99.0551V89.5434" stroke="var(--stroke-0, #263238)" stroke-linecap="round" stroke-linejoin="round"/>
<path id="Vector_9" d="M13.2872 12.9832C13.0626 13.0983 10.4832 16.6393 10.7365 19.2706C10.9899 21.9019 13.1145 23.9458 13.1145 27.5156C13.1759 29.436 12.8286 31.3476 12.0954 33.1236C13.5233 33.7073 15.0924 33.8536 16.6036 33.5439C18.0244 33.2757 19.4177 32.8787 20.7665 32.3579L20.5937 28.9608C20.5937 28.9608 17.6228 29.3811 15.8379 25.7307C14.053 22.0804 14.7496 18.1651 15.4981 16.7487C15.9287 15.9678 16.2705 15.1413 16.5173 14.2844C16.5173 14.2844 15.9012 11.6244 13.2872 12.9832Z" fill="var(--fill-0, #263238)" stroke="var(--stroke-0, #263238)" stroke-linecap="round" stroke-linejoin="round"/>
<path id="Vector_10" d="M25.9484 34.4825C25.9484 34.4825 35.1262 38.7317 36.7383 39.2384C38.3505 39.745 42.3463 42.8945 42.5997 45.9518C42.853 49.0092 41.9203 50.6271 41.2409 51.1338C40.5614 51.6405 35.8056 53.8514 35.8056 53.8514L33.681 56.2351C34.6763 59.6991 35.8682 63.1036 37.2508 66.432C39.456 71.6945 40.4751 76.2201 40.6478 78.408C40.8205 80.5959 40.8148 83.0833 40.8148 83.0833C40.8148 83.0833 31.9825 83.5899 20.6628 83.423C9.34316 83.256 5.69279 82.9105 5.69279 82.9105C5.69279 82.9105 5.18035 76.5425 6.7925 71.4412C8.40466 66.3399 11.3987 63.795 11.6405 62.4362C11.8823 61.0773 12.2163 56.9145 11.9802 56.2351C11.7581 55.7493 11.4387 55.3143 11.0417 54.9569L2.80242 51.8132C2.80242 51.8132 0.677831 49.5101 3.22849 45.4394C5.77916 41.3687 6.96524 41.6163 10.4486 39.8314C13.9321 38.0465 18.1813 34.5631 18.8607 34.2234C19.5401 33.8837 21.1868 31.8455 25.9484 34.4825Z" fill="var(--fill-0, #66DE88)" stroke="var(--stroke-0, #263238)" stroke-linecap="round" stroke-linejoin="round"/>
<path id="Vector_11" d="M11.0762 45.1861C11.0762 45.1861 9.80379 48.4161 9.80379 50.794C9.80379 53.172 11.7556 55.4693 11.7556 55.4693" stroke="var(--stroke-0, #263238)" stroke-linecap="round" stroke-linejoin="round"/>
<path id="Vector_12" d="M34.3604 44.593C34.5274 44.9327 36.1453 48.9228 35.8056 50.7941C35.6325 52.036 35.3473 53.2597 34.9534 54.4502" stroke="var(--stroke-0, #263238)" stroke-linecap="round" stroke-linejoin="round"/>
<path id="Vector_13" d="M24.8429 33.544C24.8429 33.544 26.5702 33.9701 27.0539 34.7358C27.5375 35.5016 27.1345 43.2342 27.1345 43.2342L20.1676 39.6644L15.1584 44C15.1584 44 15.1584 38.392 16.0912 36.0083C17.0239 33.6246 19.7473 32.8646 19.7473 32.8646L24.8429 33.544Z" fill="var(--fill-0, white)" stroke="var(--stroke-0, #263238)" stroke-linecap="round" stroke-linejoin="round"/>
<path id="Vector_14" d="M18.5555 29.9915C18.5555 29.9915 18.8952 32.6227 18.4691 34.0679C18.043 35.5131 17.7897 35.0007 17.7897 36.371C17.7897 37.7413 19.4076 42.6584 20.9334 44.5297C22.4592 46.4009 24.2499 38.2422 24.7565 35.9507C25.2632 33.6591 25.3323 26.9399 25.3323 26.9399C25.3323 26.9399 22.7816 28.3851 22.1022 28.7248C21.4228 29.0645 18.5555 29.9915 18.5555 29.9915Z" fill="var(--fill-0, white)" stroke="var(--stroke-0, #263238)" stroke-linecap="round" stroke-linejoin="round"/>
<path id="Vector_15" d="M14.646 15.3612C14.646 15.3612 16.6842 17.0597 19.0679 18.6776C20.853 19.8465 22.6959 20.9245 24.5896 21.9077C24.5896 21.9077 25.1654 27.176 24.6702 27.936C24.175 28.696 17.9625 32.2715 16.6842 31.3906C15.406 30.5097 14.8188 29.1854 13.7133 24.2568C13.0717 21.2678 13.3983 18.1521 14.646 15.3612Z" fill="var(--fill-0, white)" stroke="var(--stroke-0, #263238)" stroke-linecap="round" stroke-linejoin="round"/>
<path id="Vector_16" d="M18.1294 22.2935C18.1294 22.8116 18.354 23.2262 18.6361 23.2262C18.9182 23.2262 19.137 22.8116 19.137 22.2935C19.137 21.7753 18.9125 21.3607 18.6361 21.3607C18.3597 21.3607 18.1294 21.781 18.1294 22.2935Z" fill="var(--fill-0, #263238)"/>
<path id="Vector_17" d="M14.8303 22.2934C14.8303 22.8116 15.0548 23.2261 15.3312 23.2261C15.6076 23.2261 15.8379 22.8116 15.8379 22.2934C15.8379 21.7752 15.6133 21.3549 15.3254 21.3549C15.0375 21.3549 14.8303 21.781 14.8303 22.2934Z" fill="var(--fill-0, #263238)"/>
<path id="Vector_18" d="M16.2639 21.6485C16.2701 22.4439 16.099 23.2306 15.763 23.9516C15.2621 24.7404 14.8303 25.0283 15.55 25.4601C15.8181 25.6044 16.1314 25.64 16.4251 25.5596C16.7188 25.4793 16.9703 25.289 17.1276 25.0283" stroke="var(--stroke-0, #263238)" stroke-linecap="round" stroke-linejoin="round"/>
<path id="Vector_19" d="M16.7706 26.9572C17.2372 27.133 17.7456 27.1655 18.2308 27.0506C18.7159 26.9357 19.1558 26.6787 19.494 26.3123" stroke="var(--stroke-0, #263238)" stroke-linecap="round" stroke-linejoin="round"/>
<path id="Vector_20" d="M19.9949 20.7791C19.9252 20.6221 19.825 20.4806 19.7002 20.3627C19.5753 20.2447 19.4282 20.1528 19.2674 20.0923C19.1067 20.0318 18.9355 20.0038 18.7639 20.01C18.5922 20.0162 18.4235 20.0565 18.2676 20.1285" stroke="var(--stroke-0, #263238)" stroke-linecap="round" stroke-linejoin="round"/>
<path id="Vector_21" d="M16.1948 20.5028C16.1021 20.3718 15.9766 20.2676 15.8309 20.2004C15.6851 20.1333 15.5243 20.1056 15.3645 20.1202C15.2048 20.1348 15.0516 20.1911 14.9205 20.2835C14.7893 20.3759 14.6847 20.5012 14.6172 20.6467" stroke="var(--stroke-0, #263238)" stroke-linecap="round" stroke-linejoin="round"/>
<path id="Vector_22" d="M13.3735 14.1751C13.3735 14.1751 11.9284 12.9832 13.4599 11.0314C14.9915 9.07952 24.5896 8.48072 27.9866 10.4556C31.3836 12.4305 33.9343 19.9731 33.848 26.9399C33.7616 33.9067 31.9824 33.8492 30.1112 34.3328C28.2399 34.8164 23.4841 34.1658 23.4841 34.1658C24.2034 32.1721 24.6037 30.0775 24.6702 27.959C24.6702 27.959 24.0944 22.2013 23.651 21.6716C23.2077 21.1419 15.1584 16.2133 13.3735 14.1751Z" fill="var(--fill-0, #263238)" stroke="var(--stroke-0, #263238)" stroke-linecap="round" stroke-linejoin="round"/>
<path id="Vector_23" d="M12.3544 38.7316L36.1453 67.1114L35.2068 69.829L10.4832 39.8314L12.3544 38.7316Z" fill="var(--fill-0, #263238)" stroke="var(--stroke-0, #263238)" stroke-linecap="round" stroke-linejoin="round"/>
<g id="Vector_24">
<path d="M3.61426 57.3866L19.5113 53.4484C20.7652 52.6944 21.9673 51.8577 23.1098 50.9438C24.6068 49.6886 24.5147 51.3929 25.4129 52.3717C26.3111 53.3505 27.716 54.3408 27.2554 54.7899C26.7948 55.239 25.8505 55.4175 25.6778 55.6823C24.8027 56.5023 23.6976 57.0348 22.511 57.2081C20.6686 57.5651 19.7934 56.6669 19.7934 56.6669C19.7934 56.6669 4.51246 64.8083 2.84273 64.9004C1.17299 64.9926 0.297822 62.9313 0.539646 60.87C0.781469 58.8088 1.5933 58.0948 1.5933 58.0948" fill="var(--fill-0, white)"/>
<path d="M3.61426 57.3866L19.5113 53.4484C20.7652 52.6944 21.9673 51.8577 23.1098 50.9438C24.6068 49.6886 24.5147 51.3929 25.4129 52.3717C26.3111 53.3505 27.716 54.3408 27.2554 54.7899C26.7948 55.239 25.8505 55.4175 25.6778 55.6823C24.8027 56.5023 23.6976 57.0348 22.511 57.2081C20.6686 57.5651 19.7934 56.6669 19.7934 56.6669C19.7934 56.6669 4.51246 64.8083 2.84273 64.9004C1.17299 64.9926 0.297822 62.9313 0.539646 60.87C0.781469 58.8088 1.5933 58.0948 1.5933 58.0948" stroke="var(--stroke-0, #263238)" stroke-linecap="round" stroke-linejoin="round"/>
</g>
<path id="Vector_25" d="M29.0921 57.2542C29.0921 57.2542 25.3553 60.3979 25.5223 60.9046C25.5653 61.1144 25.669 61.3071 25.8205 61.4585C25.972 61.61 26.1646 61.7137 26.3745 61.7567L27.2208 61.9237C27.2208 61.9237 28.666 64.388 29.4318 64.4743C30.1976 64.5607 33.3413 63.3689 33.3413 63.3689C33.3413 63.3689 40.3945 63.5416 41.9778 63.2019C43.5612 62.8622 45.0352 61.2443 45.0352 59.7991C45.0352 58.3539 42.7321 56.5748 40.786 57.1678C38.8399 57.7609 32.5467 59.7991 31.8673 59.7991C31.1879 59.7991 30.5373 56.5748 29.0921 57.2542Z" fill="var(--fill-0, white)" stroke="var(--stroke-0, #263238)" stroke-linecap="round" stroke-linejoin="round"/>
<path id="Vector_26" d="M34.274 64.9868L41.4942 65.2401C41.4942 65.2401 46.5091 81.9778 46.7625 82.6572C47.0158 83.3366 45.49 84.9603 43.8836 85.5361C42.2772 86.1118 37.5962 86.6415 36.9168 85.703C36.2374 84.7645 35.8919 82.4787 35.8919 81.6266C35.8919 80.7744 34.274 64.9868 34.274 64.9868Z" fill="var(--fill-0, #263238)" stroke="var(--stroke-0, #263238)" stroke-linecap="round" stroke-linejoin="round"/>
<path id="Vector_27" d="M61.5195 130.481C59.81 131.307 58.0343 131.989 56.2109 132.519C53.3723 133.319 52.1344 134.494 53.4932 134.989C54.8521 135.484 63.2813 135.357 64.5423 135.3C65.8032 135.242 66.4596 135.052 66.4596 134.373C66.4807 133.847 66.3965 133.323 66.212 132.83C66.0911 132.64 61.5195 130.481 61.5195 130.481Z" fill="var(--fill-0, white)" stroke="var(--stroke-0, #263238)" stroke-linecap="round" stroke-linejoin="round"/>
<path id="Vector_28" d="M65.4693 77.815C65.4693 77.815 64.1738 87.8794 65.7168 97.2645C67.2599 106.65 67.8184 113.565 66.9548 118.81C66.0911 124.055 65.7168 128.385 65.8032 129.496C65.8896 130.607 66.1717 132.582 66.1717 132.582C65.7362 132.757 65.268 132.837 64.7991 132.815C64.3301 132.793 63.8714 132.67 63.4541 132.456C62.101 131.719 60.9898 131.16 60.9898 131.16C60.9898 131.16 62.1413 124.861 61.4792 120.911C60.817 116.962 60.1203 114.86 59.8152 110.548C59.51 106.235 58.0879 98.0763 57.8403 91.2189C57.5927 84.3615 56.7291 79.6747 57.2185 76.0301C57.7079 72.3854 65.7168 75.6558 65.4693 77.815Z" fill="var(--fill-0, #66DE88)" stroke="var(--stroke-0, #263238)" stroke-linecap="round" stroke-linejoin="round"/>
<path id="Vector_29" d="M55.4048 130.481C53.6959 131.308 51.92 131.99 50.0962 132.519C47.2577 133.319 46.0255 134.494 47.3786 134.989C48.7316 135.484 57.1954 135.357 58.4333 135.3C59.6713 135.242 60.3449 135.052 60.3449 134.373C60.369 133.847 60.2848 133.322 60.0973 132.83C59.9764 132.64 55.4048 130.481 55.4048 130.481Z" fill="var(--fill-0, white)" stroke="var(--stroke-0, #263238)" stroke-linecap="round" stroke-linejoin="round"/>
<path id="Vector_30" d="M48.4898 72.5985C47.848 78.5848 47.6555 84.6108 47.914 90.6259C48.3459 100.754 51.6796 114.232 53.3493 118.597C55.019 122.961 55.1975 129.83 55.1975 130.204C55.1975 130.579 54.1496 130.204 56.0612 131.868C57.3169 132.912 58.7968 133.651 60.3852 134.027C60.3852 134.027 59.89 126.865 60.4485 122.299C60.9948 117.772 61.1181 113.203 60.817 108.653C60.5061 104.703 60.6328 96.5621 60.7537 92.1689C60.9451 88.582 61.5046 85.0243 62.4234 81.5517C62.6077 81.1775 65.9414 80.1296 66.4999 77.7862C66.8728 75.8304 67.0789 73.8464 67.116 71.8558L48.4898 72.5985Z" fill="var(--fill-0, #66DE88)" stroke="var(--stroke-0, #263238)" stroke-linecap="round" stroke-linejoin="round"/>
<path id="Vector_31" d="M57.0112 30.3369C57.0112 30.3369 54.4202 42.3187 53.5566 46.8846C52.6929 51.4504 48.7201 59.3558 48.4322 65.0386C48.1443 70.7215 47.7528 73.9918 47.7528 73.9918C47.7528 73.9918 49.9753 74.8555 55.3472 74.7288C60.7192 74.6022 68.6821 73.8652 68.6821 73.8652C68.6821 73.8652 68.993 70.8424 69.4824 64.791C69.9718 58.7397 71.3997 51.3929 71.3364 44.4779C71.273 37.5629 71.3997 37.9313 69.6666 33.5382C68.755 31.1441 67.6396 28.8325 66.3329 26.629C66.3329 26.629 60.2355 25.155 57.0112 30.3369Z" fill="var(--fill-0, white)" stroke="var(--stroke-0, #263238)" stroke-linecap="round" stroke-linejoin="round"/>
<path id="Vector_32" d="M57.3854 29.9915C57.3854 29.9915 54.8521 32.7724 54.6045 34.5976C54.3569 36.4228 54.7887 37.6262 55.2206 36.8201C55.6524 36.014 57.5236 32.9337 58.9861 32.6227C60.4485 32.3118 61.9513 33.3655 62.694 34.661C63.4368 35.9565 62.7574 38.1156 61.7037 45.5258C60.6501 52.9359 60.5925 56.5805 59.4006 58.1236C58.2088 59.6667 57.2415 59.4824 56.1936 58.8606C55.1457 58.2388 54.5872 58.4921 55.0421 59.73C55.4969 60.9679 57.823 63.1213 61.341 64.4801C64.859 65.8389 67.9451 66.8293 71.5897 64.6644C75.2343 62.4995 77.762 57.3175 76.3456 50.4659C74.9292 43.6142 72.39 38.1789 70.726 34.2291C69.6924 31.801 68.4519 29.4663 67.0181 27.2508L66.5287 27.1932C66.5287 27.1932 67.9451 30.3369 68.8318 32.6861C69.7184 35.0352 68.3423 35.6513 66.4884 35.6513C64.6344 35.6513 62.9704 31.2063 61.5483 30.1527C60.1261 29.099 58.37 28.8399 57.3854 29.9915Z" fill="var(--fill-0, #263238)" stroke="var(--stroke-0, #263238)" stroke-linecap="round" stroke-linejoin="round"/>
<path id="Vector_33" d="M53.3723 8.68795C53.3723 8.68795 51.5183 13.8123 51.8868 14.676C52.2553 15.5396 52.6929 15.4129 52.382 16.4033C52.0711 17.3936 50.528 17.2669 50.9023 18.2572C51.0525 18.7665 51.3537 19.2182 51.7659 19.5527C51.7659 19.5527 51.5183 22.5179 52.6296 24.1589C53.7408 25.7998 53.925 26.462 55.2839 25.9495C56.1882 25.6043 57.056 25.1703 57.8748 24.6541C57.8748 24.6541 58.2491 28.0511 58.4967 28.0511C58.7443 28.0511 64.9798 25.581 64.9798 25.581C64.9798 25.581 64.6689 21.3203 64.9165 20.4567C65.1641 19.593 67.3866 18.666 67.9393 15.5799C68.492 12.4938 62.2622 5.82061 58.37 5.57879C57.311 5.47506 56.2473 5.72349 55.3437 6.2856C54.4402 6.8477 53.7473 7.69209 53.3723 8.68795Z" fill="var(--fill-0, white)" stroke="var(--stroke-0, #263238)" stroke-linecap="round" stroke-linejoin="round"/>
<path id="Vector_34" d="M55.6293 0.765374C55.6293 0.765374 51.7429 1.50811 51.1844 4.16242C50.6259 6.81672 53.2226 9.53435 54.2705 9.96618C54.7633 10.1328 55.2231 10.3841 55.6293 10.7089C55.6293 10.7089 53.7178 12.5571 54.9499 13.5878C56.1821 14.6184 57.42 14.699 57.5467 15.1308C57.6733 15.5627 58.1224 16.4897 58.5946 16.6739C59.0667 16.8581 58.9055 19.6967 59.9534 20.5604C61.0013 21.424 62.0549 21.5507 64.1507 21.0555C66.2465 20.5604 70.8815 17.4109 71.3767 13.3978C71.8718 9.38465 69.4594 3.58089 64.9568 1.66933C60.4543 -0.242228 55.6293 0.765374 55.6293 0.765374Z" fill="var(--fill-0, #263238)" stroke="var(--stroke-0, #263238)" stroke-linecap="round" stroke-linejoin="round"/>
<g id="Vector_35">
<path d="M56.2742 15.77C56.2742 15.77 56.5794 13.5475 57.3854 14.4112C57.9405 14.9415 58.3466 15.6084 58.5628 16.3451C58.7791 17.0817 58.7979 17.8623 58.6176 18.6085C58.1858 20.7101 57.4661 19.6564 57.1379 18.9194" fill="var(--fill-0, white)"/>
<path d="M56.2742 15.77C56.2742 15.77 56.5794 13.5475 57.3854 14.4112C57.9405 14.9415 58.3466 15.6084 58.5628 16.3451C58.7791 17.0817 58.7979 17.8623 58.6176 18.6085C58.1858 20.7101 57.4661 19.6564 57.1379 18.9194" stroke="var(--stroke-0, #263238)" stroke-linecap="round" stroke-linejoin="round"/>
</g>
<path id="Vector_36" d="M55.7157 28.7363C55.7157 28.7363 55.5948 31.5748 55.7791 31.5748C55.9633 31.5748 61.151 29.0414 63.1892 28.3045C64.4588 27.8516 65.7916 27.601 67.139 27.5617L66.0278 24.5965C64.3778 24.6037 62.7435 24.9181 61.2086 25.5235C59.2815 26.4208 57.4425 27.4964 55.7157 28.7363Z" fill="var(--fill-0, white)" stroke="var(--stroke-0, #263238)" stroke-linecap="round" stroke-linejoin="round"/>
<path id="Vector_37" d="M53.1823 51.3928C51.7037 53.2816 50.4802 55.3569 49.5435 57.5651C47.8737 61.394 42.3809 67.8771 41.5172 68.8675C40.6536 69.8578 37.9993 72.5697 37.8092 73.3124C37.6192 74.0552 37.1299 75.8401 37.625 76.3985C38.159 76.8529 38.7951 77.171 39.479 77.3255C39.7266 77.3831 40.0548 77.2622 39.8475 76.8937L39.479 76.151C39.8801 75.5191 40.3797 74.9554 40.9587 74.4812C41.8792 73.73 42.619 72.7816 43.1236 71.706C43.4288 70.8999 43.7397 70.0363 43.7397 70.0363C43.7397 70.0363 54.2936 61.8891 55.9633 60.1618C57.633 58.4345 58.9861 56.6381 59.2337 55.7744C59.4303 54.405 59.5342 53.0239 59.5446 51.6404L53.1823 51.3928Z" fill="var(--fill-0, white)" stroke="var(--stroke-0, #263238)" stroke-linecap="round" stroke-linejoin="round"/>
<path id="Vector_38" d="M62.3831 46.6888C62.3831 46.6888 64.6862 38.628 63.1259 34.6494C61.5655 30.6709 59.4179 30.5672 57.0112 32.2945C54.6045 34.0219 54.1323 40.505 53.6775 42.0826C53.2226 43.6603 51.3744 51.295 51.3744 51.295C51.3744 51.295 54.403 52.7171 56.1303 53.3332C57.8576 53.9493 60.9495 54.8763 60.9495 54.8763L62.3831 46.6888Z" fill="var(--fill-0, white)" stroke="var(--stroke-0, #263238)" stroke-linecap="round" stroke-linejoin="round"/>
</g>
</svg>
