<svg preserveAspectRatio="none" width="100%" height="100%" overflow="visible" style="display: block;" viewBox="0 0 72.3973 164.898" fill="none" xmlns="http://www.w3.org/2000/svg">
<g id="freepik--character-1--inject-4">
<path id="Vector" d="M38.5235 34.4754C38.5235 34.4754 33.497 35.6269 31.0385 40.1467C28.5799 44.6665 29.5012 47.8505 31.1191 49.4684C32.536 50.9067 34.4502 51.7474 36.468 51.8176C38.0917 51.8176 39.3871 44.0389 41.172 43.3077C42.9569 42.5765 44.8167 44.6895 46.9297 44.9314C49.0428 45.1732 51.3862 44.6089 50.5801 40.901C49.774 37.193 42.5769 32.9323 38.5235 34.4754Z" fill="var(--fill-0, #263238)" stroke="var(--stroke-0, #263238)" stroke-linecap="round" stroke-linejoin="round"/>
<path id="Vector_2" d="M33.0134 117.225C33.0134 117.225 33.1746 123.875 32.9328 126.386C32.6909 128.896 31.7179 132.869 31.7179 137.325C31.7179 141.782 31.2285 157.995 31.2285 157.995C30.2943 159.135 29.2925 160.217 28.2287 161.237C27.1751 162.129 24.3423 162.452 24.3423 163.344C24.3423 164.237 25.4938 164.398 25.4938 164.398H34.7983C34.7983 164.398 35.4431 164.076 35.4431 162.452C35.4431 160.828 35.2013 159.21 35.2013 158.421C35.2013 157.633 38.5235 137.118 38.6847 133.704C38.8459 130.289 41.2814 117.899 41.2814 117.899L33.0134 117.225Z" fill="var(--fill-0, white)" stroke="var(--stroke-0, #263238)" stroke-linecap="round" stroke-linejoin="round"/>
<path id="Vector_3" d="M28.2287 161.237C27.1751 162.129 24.3423 162.452 24.3423 163.344C24.3423 164.237 25.4938 164.398 25.4938 164.398H34.7983C34.7983 164.398 35.4431 164.075 35.4431 162.452C35.4431 161.68 35.3913 160.915 35.3337 160.235L33.094 160.183C32.9712 159.587 32.7779 159.007 32.5182 158.456C32.1958 157.88 31.2227 157.972 31.2227 157.972C30.2911 159.12 29.2913 160.21 28.2287 161.237Z" fill="var(--fill-0, white)" stroke="var(--stroke-0, #263238)" stroke-linecap="round" stroke-linejoin="round"/>
<path id="Vector_4" d="M35.3452 163.425H24.3538C24.4229 164.242 25.4765 164.398 25.4765 164.398H34.7982C34.7982 164.398 35.1667 164.214 35.3452 163.425Z" fill="var(--fill-0, #66DE88)" stroke="var(--stroke-0, #263238)" stroke-linecap="round" stroke-linejoin="round"/>
<path id="Vector_5" d="M55.7908 117.225C55.7908 117.225 55.6239 123.875 55.8714 126.386C56.119 128.896 57.0863 132.869 57.0863 137.325C57.0863 141.782 57.57 157.995 57.57 157.995C58.5042 159.135 59.5059 160.217 60.5697 161.237C61.6234 162.129 64.4619 162.452 64.4619 163.344C64.4619 164.237 63.3104 164.398 63.3104 164.398H54.0059C54.0059 164.398 53.3553 164.076 53.3553 162.452C53.3553 160.828 53.5971 159.21 53.5971 158.421C53.5971 157.633 50.275 137.118 50.1137 133.704C49.9525 130.289 47.5228 117.876 47.5228 117.876L55.7908 117.225Z" fill="var(--fill-0, white)" stroke="var(--stroke-0, #263238)" stroke-linecap="round" stroke-linejoin="round"/>
<path id="Vector_6" d="M60.5697 161.237C61.6234 162.129 64.4619 162.452 64.4619 163.344C64.4619 164.237 63.3104 164.398 63.3104 164.398H54.0059C54.0059 164.398 53.3553 164.075 53.3553 162.452C53.3553 161.68 53.4129 160.915 53.4705 160.235L55.7045 160.183C55.8302 159.588 56.0234 159.008 56.2802 158.456C56.6027 157.88 57.5757 157.972 57.5757 157.972C58.5074 159.12 59.5072 160.21 60.5697 161.237Z" fill="var(--fill-0, white)" stroke="var(--stroke-0, #263238)" stroke-linecap="round" stroke-linejoin="round"/>
<path id="Vector_7" d="M53.4532 163.425H64.4447C64.3756 164.242 63.3277 164.398 63.3277 164.398H54.0059C54.0059 164.398 53.6375 164.214 53.4532 163.425Z" fill="var(--fill-0, #66DE88)" stroke="var(--stroke-0, #263238)" stroke-linecap="round" stroke-linejoin="round"/>
<path id="Vector_8" d="M34.067 88.8569L33.9691 89.3405L28.1481 118.849L58.9461 118.521L52.9523 89.1045L34.067 88.8569Z" fill="var(--fill-0, #263238)" stroke="var(--stroke-0, #263238)" stroke-linecap="round" stroke-linejoin="round"/>
<path id="Vector_9" d="M58.353 115.607L28.7757 115.682L28.1481 118.849L58.9518 118.526L58.353 115.607Z" fill="var(--fill-0, white)" stroke="var(--stroke-0, #263238)" stroke-linecap="round" stroke-linejoin="round"/>
<path id="Vector_10" d="M45.0297 114.709L45.0873 104.742L46.7915 104.259" stroke="var(--stroke-0, white)" stroke-linecap="round" stroke-linejoin="round"/>
<path id="Vector_11" d="M46.0603 99.3935V90.9642H47.3616L47.684 98.4262" stroke="var(--stroke-0, white)" stroke-linecap="round" stroke-linejoin="round"/>
<path id="Vector_12" d="M50.6838 63.6381C51.3773 63.767 52.0256 64.0735 52.5655 64.5276C53.1053 64.9816 53.5183 65.5679 53.7641 66.2291C54.5702 68.4976 57.9788 81.3027 57.9788 81.3027C57.9788 81.3027 66.1605 69.4707 66.5693 68.417C66.7165 67.9511 66.9924 67.5362 67.3653 67.2204C67.7382 66.9046 68.1928 66.7006 68.6766 66.6321C69.569 66.5515 71.5957 66.2291 71.6763 67.0409C71.7569 67.8528 72.4018 71.0713 71.0257 71.7392C69.6496 72.4071 66.5693 72.5511 66.5693 72.5511C66.5693 72.5511 58.14 88.4366 56.9251 88.6726C55.7102 88.9087 50.9256 78.6254 50.9256 78.6254L49.5495 63.3848L50.6838 63.6381Z" fill="var(--fill-0, white)" stroke="var(--stroke-0, #263238)" stroke-linecap="round" stroke-linejoin="round"/>
<path id="Vector_13" d="M61.6234 1.00009L70.2139 79.3739" stroke="var(--stroke-0, #263238)" stroke-width="2" stroke-linecap="round" stroke-linejoin="round"/>
<g id="Vector_14">
<path d="M66.5693 68.4343C66.5693 68.4343 67.4617 66.8164 68.1066 66.6494C68.7514 66.4824 70.1333 66.73 70.1333 67.2252C70.1333 67.7203 70.8645 69.9831 70.2139 70.225C69.5633 70.4668 69.2408 68.7625 69.2408 68.7625C69.2408 68.7625 68.8378 70.2249 67.6229 70.3056" fill="var(--fill-0, white)"/>
<path d="M66.5693 68.4343C66.5693 68.4343 67.4617 66.8164 68.1066 66.6494C68.7514 66.4824 70.1333 66.73 70.1333 67.2252C70.1333 67.7203 70.8645 69.9831 70.2139 70.225C69.5633 70.4668 69.2408 68.7625 69.2408 68.7625C69.2408 68.7625 68.8378 70.2249 67.6229 70.3056" stroke="var(--stroke-0, #263238)" stroke-linecap="round" stroke-linejoin="round"/>
</g>
<path id="Vector_15" d="M61.8652 2.94615C61.8652 2.94615 59.6773 7.73081 55.1402 8.94568C50.6031 10.1606 50.2922 8.69234 46.97 10.8803C43.6478 13.0682 43.239 16.0622 43.239 16.0622L45.2542 29.9325C45.2542 29.9325 46.7915 23.0233 52.0598 22.7987C57.3281 22.5742 59.8385 23.4436 61.7846 22.4763C63.7307 21.509 63.8113 20.9332 63.8113 20.9332L61.8652 2.94615Z" fill="var(--fill-0, #66DE88)" stroke="var(--stroke-0, #263238)" stroke-linecap="round" stroke-linejoin="round"/>
<path id="Vector_16" d="M52.532 81.9476L57.0345 77.8078C55.9636 73.8408 54.2996 67.7434 53.7641 66.2464C53.5183 65.5851 53.1053 64.9989 52.5655 64.5448C52.0256 64.0907 51.3773 63.7843 50.6838 63.6554L49.5322 63.4078L50.9083 78.6485C50.9083 78.6485 51.6107 80.1224 52.532 81.9476Z" fill="var(--fill-0, #263238)" stroke="var(--stroke-0, #263238)" stroke-linecap="round" stroke-linejoin="round"/>
<path id="Vector_17" d="M39.0129 61.6287L30.8254 64.139C30.8254 64.139 28.8793 65.5151 29.3687 68.5955C29.8581 71.6759 33.5776 88.6956 33.9749 89.3232C34.1442 89.6055 34.3803 89.8419 34.6625 90.0116C34.9446 90.1813 35.2641 90.279 35.5928 90.2963C36.4047 90.4575 51.6453 89.8875 52.4514 89.8875C53.2575 89.8875 53.6029 89.8069 53.672 88.3502C53.7411 86.8935 52.5205 78.6254 52.5205 78.6254C52.5205 78.6254 54.2478 78.136 53.9829 74.7332C53.7181 71.3304 51.225 64.3694 50.6607 63.6324C50.0965 62.8954 45.3924 61.6863 45.3924 61.6863L39.0129 61.6287Z" fill="var(--fill-0, #66DE88)" stroke="var(--stroke-0, black)" stroke-miterlimit="10"/>
<path id="Vector_18" d="M38.9323 54.5755L39.0935 61.3005L37.7923 62.3542C37.7923 62.3542 41.4426 69.1655 43.6306 68.1119C45.8185 67.0582 46.0603 62.0317 46.0603 62.0317L44.8454 60.6556V55.7904L38.9323 54.5755Z" fill="var(--fill-0, white)" stroke="var(--stroke-0, #263238)" stroke-linecap="round" stroke-linejoin="round"/>
<path id="Vector_19" d="M32.4433 49.3878C32.4433 49.3878 28.8793 49.3072 28.0675 51.737C27.2557 54.1667 29.6106 57.0053 32.524 57.0053C35.4374 57.0053 37.5504 53.9249 36.2549 51.4952C35.8985 50.807 35.3464 50.2396 34.6681 49.8646C33.9898 49.4896 33.2157 49.3237 32.4433 49.3878Z" fill="var(--fill-0, #263238)" stroke="var(--stroke-0, #263238)" stroke-linecap="round" stroke-linejoin="round"/>
<path id="Vector_20" d="M40.3084 38.4482C40.3084 38.4482 37.1474 41.851 35.7022 43.3883C34.257 44.9256 33.2725 45.9044 33.2725 45.9044L34.424 49.9348C34.424 49.9348 31.9136 47.9887 31.7524 49.8542C31.5912 51.7197 32.9673 52.687 34.021 53.0958C34.3051 53.2188 34.6134 53.2754 34.9227 53.2615C35.232 53.2475 35.534 53.1633 35.8058 53.0152C35.8058 53.0152 39.0474 56.418 41.4772 57.5522C43.9069 58.6865 45.7724 58.128 47.6379 55.3643C49.5034 52.6006 48.9334 49.123 48.3634 46.365C47.7934 43.6071 48.041 42.9622 46.2561 41.4249C44.4712 39.8876 40.3084 38.4482 40.3084 38.4482Z" fill="var(--fill-0, white)" stroke="var(--stroke-0, #263238)" stroke-linecap="round" stroke-linejoin="round"/>
<path id="Vector_21" d="M43.3887 46.1462C43.3887 46.1462 43.3887 48.0923 43.6306 48.2536C43.8724 48.4148 44.8454 48.2536 44.6036 48.9848C44.3618 49.716 42.9799 49.8772 42.9799 49.8772" stroke="var(--stroke-0, #263238)" stroke-linecap="round" stroke-linejoin="round"/>
<path id="Vector_22" d="M40.792 51.4145C41.4702 51.8067 42.2397 52.0132 43.0231 52.0132C43.8065 52.0132 44.5761 51.8067 45.2542 51.4145" stroke="var(--stroke-0, #263238)" stroke-linecap="round" stroke-linejoin="round"/>
<path id="Vector_23" d="M37.228 47.5166C37.228 47.5166 38.2817 46.6242 39.9859 47.8448" stroke="var(--stroke-0, #263238)" stroke-linecap="round" stroke-linejoin="round"/>
<path id="Vector_24" d="M44.6036 47.0386C44.7542 46.6675 45.0349 46.364 45.3931 46.1849C45.7513 46.0058 46.1625 45.9634 46.5497 46.0656" stroke="var(--stroke-0, #263238)" stroke-linecap="round" stroke-linejoin="round"/>
<path id="Vector_25" d="M36.658 44.7701C36.8768 44.2177 37.277 43.7561 37.7928 43.461C38.3086 43.166 38.9094 43.0551 39.4965 43.1465" stroke="var(--stroke-0, #263238)" stroke-linecap="round" stroke-linejoin="round"/>
<path id="Vector_26" d="M43.55 42.6628C43.55 42.6628 44.6036 41.6898 45.9797 43.3883" stroke="var(--stroke-0, #263238)" stroke-linecap="round" stroke-linejoin="round"/>
<path id="Vector_27" d="M33.0134 67.7031C33.0134 67.3001 31.6373 63.8166 30.8254 64.1391C30.0136 64.4615 19.31 81.487 19.31 81.487L7.96735 71.2729C7.92786 70.2093 7.79297 69.1514 7.56431 68.1119C7.24188 66.9604 5.837 66.9604 5.29578 65.924C4.75455 64.8876 3.83332 65.1121 3.83332 65.6764C3.83332 66.2406 4.24212 66.5688 4.64516 67.0582C4.91483 67.3907 5.15926 67.7429 5.37639 68.1119C5.37639 68.1119 3.02724 67.6225 2.77966 67.6225C2.53208 67.6225 0.672341 65.354 0.511125 66.327C0.349909 67.3001 1.97358 69.2462 2.86027 70.5416C3.74696 71.8371 6.26883 73.052 6.26883 73.052C6.26883 73.052 17.9397 86.5078 18.8321 86.9972C19.7246 87.4866 31.0673 75.6487 31.0673 75.6487C31.0673 75.6487 31.9597 78.4067 33.2552 77.376C34.5507 76.3454 33.0134 67.7031 33.0134 67.7031Z" fill="var(--fill-0, white)" stroke="var(--stroke-0, #263238)" stroke-linecap="round" stroke-linejoin="round"/>
<path id="Vector_28" d="M24.5783 82.1895C27.7623 79.0976 31.0673 75.6487 31.0673 75.6487C31.0673 75.6487 31.9597 78.4067 33.2552 77.376C34.5507 76.3454 33.0134 67.7261 33.0134 67.7261C33.0134 67.3231 31.6373 63.8397 30.8254 64.1621C30.2497 64.3867 24.9871 72.5741 21.7801 77.6179C22.7071 79.1091 23.8644 81.0207 24.5783 82.1895Z" fill="var(--fill-0, #263238)" stroke="var(--stroke-0, #263238)" stroke-linecap="round" stroke-linejoin="round"/>
</g>
</svg>
