<svg preserveAspectRatio="none" width="100%" height="100%" overflow="visible" style="display: block;" viewBox="0 0 34.1813 128.452" fill="none" xmlns="http://www.w3.org/2000/svg">
<g id="freepik--character-2--inject-4">
<path id="Vector" d="M26.7378 80.2456C26.7378 80.2456 25.0105 93.1313 26.2254 98.7221C27.4403 104.313 28.9027 116.709 28.4133 119.87C27.9239 123.031 27.4403 125.461 27.4403 125.461C25.7509 125.724 24.0475 125.887 22.339 125.95C20.3929 125.95 22.0914 108.205 21.1241 96.2923C20.1568 84.3796 25.2984 77.8159 26.7378 80.2456Z" fill="var(--fill-0, #263238)" stroke="var(--stroke-0, #263238)" stroke-linecap="round" stroke-linejoin="round"/>
<path id="Vector_2" d="M20.462 123.02C19.3776 123.513 18.2666 123.946 17.134 124.315C14.733 125.144 11.503 126.44 11.6872 127.269C11.8715 128.098 26.1909 128.006 26.9279 127.845C27.6648 127.683 27.7627 123.872 27.7627 123.872L20.462 123.02Z" fill="var(--fill-0, white)" stroke="var(--stroke-0, #263238)" stroke-linecap="round" stroke-linejoin="round"/>
<path id="Vector_3" d="M16.5755 123.02C15.4906 123.512 14.3796 123.944 13.2476 124.315C10.8466 125.144 7.61076 126.44 7.79501 127.269C7.97925 128.098 22.2987 128.006 23.0414 127.845C23.7841 127.683 23.8705 123.872 23.8705 123.872L16.5755 123.02Z" fill="var(--fill-0, white)" stroke="var(--stroke-0, #263238)" stroke-linecap="round" stroke-linejoin="round"/>
<path id="Vector_4" d="M8.81412 64.2622C8.81412 64.2622 7.79501 80.8904 8.81412 90.3158C9.83324 99.7412 16.1091 118.77 16.3855 119.68C16.5531 120.282 16.5846 120.913 16.4776 121.528C16.2686 121.96 16.1735 122.437 16.2012 122.916C16.2934 123.561 19.1607 124.488 20.5426 124.856C21.5445 125.098 22.5655 125.252 23.5941 125.317C24.5443 123.232 25.1974 121.025 25.5345 118.759C26.2715 114.51 25.4424 106.011 25.0739 101.486C24.7054 96.9602 26.7378 80.2398 26.7378 80.2398C28.6598 78.8826 30.034 76.8836 30.6128 74.603C31.724 70.6302 31.3555 64.4407 31.3555 64.4407C31.3555 64.4407 21.1011 65.5519 15.3721 64.2564C9.64323 62.961 8.4629 62.7767 8.4629 62.7767L8.81412 64.2622Z" fill="var(--fill-0, #263238)" stroke="var(--stroke-0, #263238)" stroke-linecap="round" stroke-linejoin="round"/>
<path id="Vector_5" d="M19.0571 72.3C18.2996 78.3042 18.0512 84.3618 18.3143 90.4079C18.6886 101.307 20.9974 110.364 21.0895 115.166C21.1817 119.968 20.9053 123.664 20.9053 123.664" stroke="var(--stroke-0, white)" stroke-linecap="round" stroke-linejoin="round"/>
<path id="Vector_6" d="M13.4318 71.563C13.4318 71.563 13.616 75.9043 14.2609 77.6604C14.9058 79.4165 17.681 80.4299 17.681 80.4299" stroke="var(--stroke-0, white)" stroke-linecap="round" stroke-linejoin="round"/>
<path id="Vector_7" d="M8.25562 64.9992C8.25562 64.9992 7.795 67.878 8.16349 68.6035C8.53198 69.329 14.4451 72.0236 21.2853 71.2808C28.1254 70.5381 31.0734 70.4517 31.5398 68.7878C31.8479 67.3301 32.0023 65.8442 32.0004 64.3543C32.0004 64.3543 23.502 66.6574 16.1091 65.7419C8.71623 64.8264 8.25562 64.9992 8.25562 64.9992Z" fill="var(--fill-0, #66DE88)" stroke="var(--stroke-0, #263238)" stroke-linecap="round" stroke-linejoin="round"/>
<path id="Vector_8" d="M17.2204 32.6697C17.2204 32.6697 14.2609 39.5789 12.9712 43.1084C11.6815 46.6379 8.62988 56.2244 7.42652 58.9939C6.22316 61.7634 6.68953 64.7228 8.53775 65.9031C10.386 67.0835 18.7001 68.068 25.7187 67.4923C32.7374 66.9165 33.4801 65.1892 33.6644 63.5195C33.8486 61.8497 32.5531 48.9179 29.5073 39.7747C26.4615 30.6314 25.903 28.599 24.6075 28.599C23.312 28.599 17.2204 32.6697 17.2204 32.6697Z" fill="var(--fill-0, #66DE88)" stroke="var(--stroke-0, #263238)" stroke-linecap="round" stroke-linejoin="round"/>
<path id="Vector_9" d="M11.0308 9.10917C11.0308 9.10917 9.64322 12.9899 9.64322 13.6347C9.64322 14.2796 10.4781 15.7593 10.4781 15.7593C10.4781 15.7593 7.88713 19.0873 8.34774 19.8243C8.80836 20.5612 10.8466 21.304 10.8466 21.304C10.8466 21.304 11.6757 26.198 12.7869 26.6644C13.8982 27.1308 17.4967 25.0004 17.4967 25.0004L18.3258 30.1824L23.9626 27.5972V22.5822C25.9958 21.3204 27.5297 19.3938 28.3039 17.1296C29.5994 13.3411 28.8797 11.7692 28.8797 11.7692L11.0308 9.10917Z" fill="var(--fill-0, white)" stroke="var(--stroke-0, #263238)" stroke-linecap="round" stroke-linejoin="round"/>
<path id="Vector_10" d="M28.3039 17.1469C29.5994 13.3584 28.8797 11.7865 28.8797 11.7865L17.9977 10.1513L17.7904 10.7732C17.7904 10.7732 16.4028 12.4371 16.8691 12.9899C17.4814 13.5148 18.1659 13.9492 18.9016 14.2796C18.9016 14.2796 18.5274 16.41 18.8095 16.5827C19.0916 16.7554 19.7307 17.6882 19.915 16.9512C20.0218 16.0237 20.2724 15.1185 20.6577 14.2681C21.3026 12.8862 23.9799 13.0705 24.072 15.1951C24.0921 15.9461 23.945 16.6921 23.6413 17.3792C23.3376 18.0663 22.8849 18.6773 22.3159 19.1679L21.9474 19.3521C21.9474 19.3521 22.4081 22.231 23.9799 22.588C26.0045 21.326 27.5318 19.4042 28.3039 17.1469Z" fill="var(--fill-0, #263238)" stroke="var(--stroke-0, #263238)" stroke-linecap="round" stroke-linejoin="round"/>
<path id="Vector_11" d="M11.4915 13.7269C11.4915 13.7269 12.8791 12.6214 14.1688 14.5617" stroke="var(--stroke-0, #263238)" stroke-linecap="round" stroke-linejoin="round"/>
<path id="Vector_12" d="M12.8157 16.9627C13.0956 16.9627 13.3224 16.5064 13.3224 15.9436C13.3224 15.3807 13.0956 14.9245 12.8157 14.9245C12.5359 14.9245 12.309 15.3807 12.309 15.9436C12.309 16.5064 12.5359 16.9627 12.8157 16.9627Z" fill="var(--fill-0, #263238)"/>
<path id="Vector_13" d="M12.7869 21.4882C12.7869 21.4882 14.4451 22.1331 15.5564 20.1928" stroke="var(--stroke-0, #263238)" stroke-linecap="round" stroke-linejoin="round"/>
<path id="Vector_14" d="M11.2151 8.37218C11.2151 8.37218 13.2475 3.65662 14.2609 2.08476C14.6008 1.54815 15.0838 1.11718 15.6556 0.840457C16.2273 0.563739 16.865 0.452283 17.4967 0.518668C18.3258 0.518668 27.567 2.73539 28.3961 4.30724C29.2252 5.87909 29.2309 13.3699 29.2309 13.3699L11.2151 8.37218Z" fill="var(--fill-0, white)" stroke="var(--stroke-0, #263238)" stroke-linecap="round" stroke-linejoin="round"/>
<path id="Vector_15" d="M11.2151 8.37216L29.2309 13.3698C29.2309 13.3698 29.2309 11.3949 29.1158 9.2646L12.7236 5.05572C11.9233 6.72545 11.2151 8.37216 11.2151 8.37216Z" fill="var(--fill-0, #263238)" stroke="var(--stroke-0, #263238)" stroke-linecap="round" stroke-linejoin="round"/>
<path id="Vector_16" d="M5.94678 8.64856L32.3689 15.3908C31.6504 13.9925 30.6057 12.7878 29.3231 11.8786C27.02 10.1513 15.6485 6.98458 11.9521 6.89246C9.8124 6.80759 7.70361 7.42426 5.94678 8.64856Z" fill="var(--fill-0, white)" stroke="var(--stroke-0, #263238)" stroke-linecap="round" stroke-linejoin="round"/>
<path id="Vector_17" d="M7.15014 48.0945H1.97396V55.9481H7.15014V48.0945Z" fill="var(--fill-0, white)" stroke="var(--stroke-0, #263238)" stroke-linecap="round" stroke-linejoin="round"/>
<path id="Vector_18" d="M2.07185 49.9428H0.5V53.7314H2.07185V49.9428Z" fill="var(--fill-0, #263238)" stroke="var(--stroke-0, #263238)" stroke-linecap="round" stroke-linejoin="round"/>
<path id="Vector_19" d="M24.1469 29.1575L4.38068 48.1867" stroke="var(--stroke-0, #263238)" stroke-width="2" stroke-linecap="round" stroke-linejoin="round"/>
<path id="Vector_20" d="M19.345 53.2707C19.345 53.2707 11.123 51.6067 10.5702 51.2382C10.0175 50.8698 8.34775 48.5552 7.51864 48.2788C6.68953 48.0024 4.63978 48.1867 4.38068 48.1867C4.12158 48.1867 3.73006 49.1137 4.47281 49.2979C5.21555 49.4822 6.13102 49.5743 6.50527 49.9428C6.89249 50.4497 7.1173 51.0619 7.15014 51.6989C7.15014 52.1595 5.67041 53.2707 4.84706 53.5471C4.02371 53.8235 2.07185 53.9156 1.96821 54.3762C1.93243 54.6114 1.9682 54.8519 2.07088 55.0665C2.17356 55.2811 2.3384 55.4599 2.54398 55.5796C3.34989 56.0669 4.22007 56.439 5.12918 56.685C6.14254 56.8693 10.1154 55.7638 10.1154 55.7638C10.1154 55.7638 17.9689 59.4602 20.0935 60.2894C22.2181 61.1185 24.9011 62.1376 26.4672 60.3815C28.0333 58.6254 26.3751 53.0865 26.3751 53.0865L19.345 53.2707Z" fill="var(--fill-0, white)" stroke="var(--stroke-0, #263238)" stroke-linecap="round" stroke-linejoin="round"/>
<g id="Vector_21">
<path d="M20.9168 34.7022C20.9168 34.7022 18.9765 37.1031 18.9765 39.7805V53.455L28.9546 55.2111C28.9546 55.2111 29.1388 44.1218 29.0467 41.3523C28.9546 38.5829 28.0276 36.8268 27.5669 36.4525" fill="var(--fill-0, #66DE88)"/>
<path d="M20.9168 34.7022C20.9168 34.7022 18.9765 37.1031 18.9765 39.7805V53.455L28.9546 55.2111C28.9546 55.2111 29.1388 44.1218 29.0467 41.3523C28.9546 38.5829 28.0276 36.8268 27.5669 36.4525" stroke="var(--stroke-0, #263238)" stroke-linecap="round" stroke-linejoin="round"/>
</g>
<path id="Vector_22" d="M16.3855 29.9866L16.1091 34.2358L26.7378 28.8811L25.6266 25.4611L16.3855 29.9866Z" fill="var(--fill-0, #66DE88)" stroke="var(--stroke-0, #263238)" stroke-linecap="round" stroke-linejoin="round"/>
</g>
</svg>
