<svg preserveAspectRatio="none" width="100%" height="100%" overflow="visible" style="display: block;" viewBox="0 0 109.34 157.45" fill="none" xmlns="http://www.w3.org/2000/svg">
<g id="freepik--character-1--inject-4">
<path id="Vector" d="M97.9943 155.143C97.9943 156.417 82.3091 157.45 62.9691 157.45C43.6292 157.45 27.9439 156.417 27.9439 155.143C27.9439 153.869 43.6292 152.843 62.9691 152.843C82.3091 152.843 97.9943 153.876 97.9943 155.143Z" fill="var(--fill-0, #263238)"/>
<path id="Vector_2" d="M98.0145 125.489C98.4213 127.928 98.6454 130.394 98.6851 132.866C98.5778 135.421 97.5853 139.854 98.504 140.692C99.4227 141.53 99.9659 140.276 101.656 138.11C103.346 135.944 105.981 130.62 107.021 128.722C108.06 126.824 109.576 125.154 108.67 123.994C107.765 122.834 105.384 122.257 104.11 122.197L99.7982 122.009L98.0145 125.489Z" fill="var(--fill-0, #263238)"/>
<path id="Vector_3" d="M99.0941 141.309C98.7995 141.298 98.5207 141.173 98.3162 140.96C97.5987 140.29 97.7596 138.486 98.1151 135.562C98.2358 134.576 98.3498 133.637 98.3833 132.879C98.3421 130.423 98.1179 127.973 97.7127 125.55V125.436L99.6507 121.721L104.177 121.915C105.592 121.976 108.02 122.586 108.985 123.84C109.844 124.933 108.985 126.301 108.08 127.756C107.839 128.138 107.597 128.534 107.369 128.936C107.141 129.339 106.786 130.023 106.39 130.774C105.156 133.121 103.285 136.675 101.978 138.345C101.636 138.781 101.307 139.176 101.086 139.532C100.294 140.605 99.8117 141.255 99.2014 141.316L99.0941 141.309ZM98.4235 125.543C98.8383 127.981 99.0625 130.447 99.0941 132.92C99.0941 133.718 98.9466 134.663 98.8259 135.662C98.5979 137.5 98.2961 140.021 98.8259 140.484C99.0338 140.672 99.1411 140.665 99.1746 140.658C99.4898 140.658 99.9726 139.988 100.583 139.143C100.844 138.787 101.139 138.385 101.488 137.942C102.756 136.32 104.613 132.799 105.84 130.472C106.236 129.721 106.571 129.077 106.826 128.628C107.081 128.179 107.309 127.803 107.55 127.414C108.362 126.113 109.066 124.993 108.496 124.269C107.678 123.223 105.438 122.653 104.184 122.599L100.087 122.425L98.4235 125.543Z" fill="var(--fill-0, #263238)"/>
<path id="Vector_4" d="M105.129 128.842C103.211 132.873 100.928 136.721 98.3095 140.336C98.3551 140.476 98.4307 140.604 98.5308 140.712C99.4562 141.55 99.9927 140.296 101.683 138.13C103.373 135.964 106.008 130.64 107.047 128.742C108.087 126.844 109.602 125.174 108.697 124.014C108.347 123.618 107.917 123.301 107.436 123.082C106.954 124.437 106.236 126.314 105.129 128.842Z" fill="var(--fill-0, white)"/>
<path id="Vector_5" d="M99.0941 141.309C98.7995 141.298 98.5207 141.173 98.3162 140.96C98.1709 140.819 98.0626 140.644 98.001 140.45L97.9407 140.29L98.0413 140.142C100.647 136.545 102.918 132.718 104.828 128.708C105.787 126.562 106.558 124.638 107.128 122.995L107.255 122.639L107.597 122.807C108.113 123.049 108.57 123.399 108.938 123.833C109.797 124.926 108.938 126.294 108.033 127.749C107.792 128.132 107.55 128.527 107.322 128.93C107.094 129.332 106.739 130.016 106.343 130.767C105.109 133.114 103.238 136.668 101.931 138.338C101.589 138.774 101.26 139.17 101.039 139.525C100.248 140.598 99.7647 141.248 99.1545 141.309H99.0941ZM98.6985 140.377C98.7166 140.409 98.7392 140.438 98.7655 140.464C98.9734 140.652 99.0807 140.645 99.1142 140.638C99.4294 140.638 99.9123 139.968 100.522 139.123C100.784 138.767 101.079 138.365 101.428 137.922C102.695 136.299 104.553 132.779 105.78 130.452C106.176 129.701 106.511 129.057 106.766 128.608C107.021 128.158 107.249 127.783 107.49 127.394C108.301 126.093 109.006 124.973 108.436 124.249C108.211 123.978 107.938 123.75 107.631 123.578C107.068 125.154 106.337 126.965 105.438 128.943C103.535 132.952 101.27 136.779 98.6716 140.377H98.6985Z" fill="var(--fill-0, #263238)"/>
<path id="Vector_6" d="M34.2609 139.672C34.2609 139.672 36.0112 144.823 36.1252 146.446C36.2392 148.068 36.3532 149.698 34.4889 149.55C32.6247 149.403 30.177 148.88 29.5601 149.081C27.9028 149.392 26.1989 149.353 24.5574 148.967C22.6287 148.562 20.7443 147.969 18.9311 147.197C18.1465 146.747 17.8783 145.185 19.1122 144.823C20.3461 144.461 25.047 143.528 26.3949 142.992C27.7428 142.455 30.0898 140.175 30.0898 140.175L34.2609 139.672Z" fill="var(--fill-0, #263238)"/>
<path id="Vector_7" d="M34.717 149.892H34.4621C33.7379 149.832 32.9399 149.725 32.1754 149.624C31.3423 149.466 30.4951 149.394 29.6473 149.41C27.9355 149.742 26.1724 149.703 24.477 149.296C22.5165 148.888 20.6023 148.284 18.7635 147.492C18.4757 147.303 18.2461 147.039 18.1004 146.727C17.9547 146.416 17.8987 146.07 17.9387 145.728C17.9727 145.439 18.0944 145.167 18.2874 144.949C18.4804 144.731 18.7354 144.577 19.0183 144.508C19.4408 144.394 20.2455 144.213 21.1709 143.998C22.9547 143.589 25.3957 143.032 26.2675 142.657C27.5349 142.154 29.8283 139.914 29.8551 139.894L29.9356 139.813L34.4957 139.284L34.5828 139.545C34.6499 139.753 36.3398 144.756 36.4605 146.405C36.541 147.572 36.6282 148.779 35.971 149.43C35.8033 149.586 35.606 149.708 35.3907 149.788C35.1753 149.867 34.9463 149.903 34.717 149.892ZM29.9356 148.712C30.7148 148.75 31.4915 148.828 32.2626 148.947C33.0204 149.054 33.8117 149.155 34.5158 149.215C34.6867 149.248 34.8627 149.243 35.0317 149.202C35.2007 149.16 35.3587 149.082 35.4949 148.974C35.9374 148.538 35.8637 147.485 35.7899 146.472C35.696 145.131 34.3817 141.108 34.033 140.035L30.2374 140.477C29.8015 140.9 27.7763 142.798 26.5156 143.301C24.8078 143.838 23.0731 144.286 21.3185 144.642C20.3997 144.85 19.6017 145.031 19.1994 145.145C19.0412 145.177 18.8979 145.259 18.7913 145.38C18.6847 145.502 18.6207 145.654 18.6093 145.815C18.5852 146.025 18.6179 146.237 18.7041 146.429C18.7902 146.621 18.9266 146.787 19.0988 146.908C20.8827 147.664 22.7354 148.246 24.6312 148.645C26.2171 149.02 27.8636 149.061 29.4662 148.766C29.6197 148.728 29.7775 148.71 29.9356 148.712Z" fill="var(--fill-0, #263238)"/>
<path id="Vector_8" d="M36.1587 146.942C34.8645 147.096 32.5442 147.371 29.9893 147.612C26.1199 148.008 22.0293 146.982 20.6546 146.197C19.8432 145.735 19.1591 145.306 18.6428 145.051C18.5059 145.202 18.4038 145.381 18.3438 145.576C18.2837 145.771 18.2672 145.977 18.2953 146.179C18.3235 146.381 18.3956 146.575 18.5066 146.746C18.6176 146.917 18.7648 147.062 18.9379 147.17C20.751 147.942 22.6354 148.535 24.5641 148.94C26.2056 149.326 27.9095 149.365 29.5668 149.054C30.1837 148.886 32.6314 149.369 34.4957 149.524C36.1655 149.684 36.2392 148.384 36.1587 146.942Z" fill="var(--fill-0, white)"/>
<path id="Vector_9" d="M34.717 149.892H34.4621C33.7379 149.832 32.9399 149.725 32.1754 149.624C31.3418 149.469 30.495 149.398 29.6473 149.41C27.9355 149.742 26.1724 149.703 24.477 149.296C22.5165 148.888 20.6023 148.284 18.7635 147.492C18.5339 147.345 18.3405 147.148 18.1976 146.915C18.0548 146.683 17.9663 146.422 17.9387 146.15C17.9078 145.912 17.9349 145.67 18.0178 145.445C18.1007 145.219 18.2369 145.018 18.4148 144.856L18.5824 144.709L18.7836 144.809C19.1323 144.977 19.5347 145.218 20.0041 145.48L20.8222 145.949C22.2238 146.754 26.2876 147.7 29.9557 147.324C32.5778 147.049 34.945 146.774 36.1185 146.653L36.4739 146.613V146.969C36.5276 147.887 36.5343 148.92 35.9441 149.503C35.6003 149.786 35.1608 149.925 34.717 149.892ZM29.9356 148.712C30.7148 148.75 31.4915 148.828 32.2626 148.947C33.0203 149.054 33.8117 149.155 34.5158 149.215C34.6867 149.25 34.8631 149.246 35.0324 149.204C35.2017 149.162 35.3596 149.084 35.4949 148.974C35.812 148.484 35.934 147.893 35.8369 147.317C34.5761 147.472 32.4101 147.726 30.0228 147.988C26.1736 148.39 22.0092 147.398 20.4869 146.533L19.6621 146.057C19.3067 145.849 18.9915 145.661 18.7165 145.513C18.6221 145.683 18.5845 145.878 18.6093 146.07C18.6203 146.24 18.6701 146.405 18.755 146.553C18.8399 146.7 18.9575 146.827 19.0988 146.922C20.8827 147.677 22.7354 148.259 24.6312 148.658C26.2171 149.033 27.8636 149.074 29.4662 148.779C29.619 148.736 29.7769 148.714 29.9356 148.712Z" fill="var(--fill-0, #263238)"/>
<path id="Vector_10" d="M53.2723 80.8613C50.6915 83.4023 47.9714 85.7978 45.1246 88.0367C40.075 92.0603 30.5391 97.2909 30.5391 97.2909C30.5391 97.2909 36.7757 105.707 36.9769 110.783C37.178 115.86 33.3959 137.165 34.0799 139.773C34.0799 139.773 31.9809 141.785 30.6263 140.444C29.2717 139.103 25.8852 109.596 23.7192 105.372C21.5532 101.147 20.0309 94.8098 20.896 92.8449C22.5524 89.0963 33.2819 77.9845 38.2778 74.8193C41.0998 73.0545 43.8118 71.1196 46.3987 69.0253" fill="var(--fill-0, #263238)"/>
<path id="Vector_11" d="M31.7596 141.235C31.5013 141.238 31.2453 141.187 31.0084 141.084C30.7715 140.981 30.559 140.829 30.3849 140.638C29.7143 139.968 28.8559 134.757 27.4075 125.637C26.0663 117.228 24.5507 107.692 23.4174 105.519C21.352 101.495 19.6285 94.8834 20.5875 92.704C22.2573 88.9352 33.0539 77.7229 38.0967 74.5308C40.9067 72.7737 43.6074 70.8478 46.1841 68.7637L46.62 69.2801C44.0152 71.3754 41.2902 73.3167 38.4589 75.0941C33.4763 78.2459 22.834 89.2772 21.2045 92.9789C20.4064 94.7761 21.8281 100.952 24.0142 105.211C25.2012 107.511 26.6564 116.684 28.0713 125.556C29.1175 132.142 30.3044 139.605 30.8677 140.202C31.3237 140.672 31.9273 140.719 32.7186 140.343C33.078 140.162 33.4136 139.936 33.7178 139.672C33.4562 137.916 34.2609 131.827 35.1193 125.395C35.9173 119.407 36.7354 113.217 36.6416 110.817C36.4471 105.901 30.3313 97.5993 30.2709 97.5121L30.0429 97.2037L30.3782 97.0226C30.4721 96.969 39.9409 91.745 44.9167 87.7952C47.7483 85.5628 50.457 83.1786 53.0309 80.6534L53.507 81.1161C50.9192 83.668 48.1901 86.0725 45.3325 88.3183C40.8462 91.8791 32.7655 96.4526 31.0354 97.425C32.1754 99.0143 37.1244 106.143 37.3122 110.79C37.4127 113.244 36.5812 119.467 35.7832 125.489C34.9382 131.84 34.0665 138.412 34.4085 139.706L34.4554 139.9L34.3146 140.035C33.9144 140.401 33.4625 140.706 32.9734 140.94C32.5955 141.127 32.181 141.227 31.7596 141.235Z" fill="var(--fill-0, #263238)"/>
<path id="Vector_12" d="M41.899 32.7326C41.899 32.7326 45.5001 29.1114 49.4768 28.7091C53.4534 28.3067 60.1661 29.6949 62.1175 29.7619C64.0689 29.829 68.3272 30.3185 68.5485 30.969C69.9528 35.2929 70.8859 39.7559 71.3315 44.2803C72.0021 51.288 71.4723 64.1702 71.4723 64.1702L68.4412 63.741C68.0733 59.0861 66.9569 54.5211 65.1352 50.2218C63.3889 46.3233 62.0235 42.2652 61.058 38.1041C61.058 38.1041 52.0317 39.2106 47.7668 38.7144" fill="var(--fill-0, #626262)"/>
<path id="Vector_13" d="M71.7942 64.5457L68.1193 64.0293V63.7544C67.7463 59.1386 66.6417 54.6114 64.8468 50.3425C63.1425 46.5116 61.7956 42.5314 60.8232 38.4528C59.1937 38.6406 51.6227 39.4788 47.76 39.0295L47.8338 38.3589C52.0049 38.8418 60.9507 37.7487 61.0445 37.742L61.3463 37.7018L61.4134 38.0035C62.366 42.1463 63.7134 46.1884 65.4369 50.0742C67.2304 54.3272 68.3481 58.8344 68.7497 63.4325L71.1504 63.7678C71.2242 61.6085 71.5863 50.537 70.9895 44.3205C70.5538 39.8288 69.6342 35.3973 68.2467 31.1031C67.9181 30.7142 64.4512 30.1978 62.1175 30.1173C61.4469 30.1173 60.3874 29.9497 59.0059 29.7619C56.1291 29.3663 52.186 28.8231 49.517 29.0913C45.7147 29.4467 42.1874 32.9539 42.1405 32.9875L41.6643 32.5181C41.8119 32.3638 45.3996 28.803 49.4432 28.4274C52.186 28.1659 56.1492 28.7158 59.0864 29.098C60.3941 29.2791 61.5207 29.4333 62.1309 29.4601C62.1913 29.4601 68.4814 29.7418 68.8369 30.8952C70.2502 35.2315 71.1901 39.7081 71.64 44.2468C72.3105 51.1941 71.7875 64.0494 71.7808 64.1836L71.7942 64.5457Z" fill="var(--fill-0, #263238)"/>
<path id="Vector_14" d="M71.4723 64.1635C71.4723 64.1635 72.0021 51.2814 71.3315 44.2737C70.8835 39.7606 69.9504 35.309 68.5485 30.9959C68.3339 30.3655 64.3036 29.8827 62.2851 29.7955C62.2878 32.6155 61.8511 35.4186 60.9909 38.1042H61.0579C62.0235 42.2653 63.3889 46.3234 65.1352 50.2218C66.9555 54.517 68.0718 59.0773 68.4412 63.7276C68.4412 63.7276 65.7588 66.0747 65.0882 66.5978C64.4176 67.1208 66.4294 69.6289 66.4294 69.6289C66.4294 69.6289 67.1 72.5728 68.696 72.9148C69.167 73.0028 69.6527 72.969 70.107 72.8164C70.5612 72.6638 70.9689 72.3976 71.2912 72.043C71.8787 71.1043 72.3155 70.0792 72.5855 69.0052C73.2158 66.752 71.4723 64.1635 71.4723 64.1635Z" fill="var(--fill-0, white)"/>
<path id="Vector_15" d="M69.199 73.3171C68.9871 73.317 68.7758 73.2946 68.5686 73.2501C66.9525 72.8947 66.1947 70.2726 66.0673 69.7898C65.7186 69.3405 64.4847 67.6975 64.5987 66.8258C64.6056 66.7297 64.6332 66.6362 64.6795 66.5518C64.7257 66.4673 64.7897 66.3938 64.8669 66.3362C65.4571 65.8936 67.5493 64.0629 68.0925 63.5935C67.7094 59.037 66.6095 54.5695 64.8334 50.3559C63.1297 46.5225 61.7828 42.5402 60.8098 38.4596L60.5014 38.4998L60.6891 37.9902C61.5349 35.3386 61.9647 32.572 61.9633 29.7888V29.4401H62.3053C62.3723 29.4401 68.4881 29.7351 68.8704 30.8684C70.2837 35.2048 71.2236 39.6814 71.6735 44.22C72.3038 50.8321 71.868 62.7955 71.821 64.0495C72.1362 64.5525 73.5109 66.9263 72.8537 69.0857C72.5816 70.2003 72.1285 71.2628 71.5125 72.2308C71.2208 72.5593 70.8652 72.825 70.4675 73.0118C70.0697 73.1986 69.6381 73.3024 69.199 73.3171ZM61.3798 38.0103C62.3325 42.1531 63.6799 46.1951 65.4034 50.081C67.2372 54.4187 68.3691 59.0207 68.7564 63.7142V63.8819L68.6357 63.9892C68.5217 64.083 65.9533 66.3496 65.2425 66.8727C65.1016 67.0739 65.6784 68.2608 66.5837 69.4277L66.6507 69.5551C66.8318 70.3196 67.5493 72.3515 68.6625 72.5929C69.0752 72.6693 69.5005 72.6392 69.8983 72.5054C70.2961 72.3716 70.6532 72.1386 70.9358 71.8284C71.4891 70.9232 71.9028 69.9398 72.163 68.9113C72.7934 66.8325 71.1638 64.3714 71.1504 64.3446L71.0901 64.2574V64.1501C71.0901 64.016 71.6131 51.2076 70.9492 44.3072C70.5257 39.8215 69.6196 35.3945 68.2467 31.1031C67.9651 30.7678 65.1419 30.285 62.6271 30.1442C62.5954 32.8129 62.1752 35.4627 61.3798 38.0103Z" fill="var(--fill-0, #263238)"/>
<path id="Vector_16" d="M43.2 16.853C43.2 16.853 42.6367 20.2529 43.2 22.3317C43.7633 24.4106 46.7944 28.005 46.4121 29.7083C46.0299 31.4116 40.7456 34.436 39.2301 33.6782C37.7145 32.9204 37.339 23.854 37.339 23.854C37.339 23.854 40.7523 17.7985 43.2 16.853Z" fill="var(--fill-0, white)"/>
<path id="Vector_17" d="M39.847 34.1275C39.5837 34.1356 39.3221 34.0829 39.0825 33.9733C37.4731 33.1685 37.0707 25.403 37.0104 23.8607V23.7601L37.0573 23.6796C37.1982 23.4315 40.5444 17.5168 43.0927 16.5378L43.6426 16.3232L43.5487 16.9066C43.5487 16.9066 42.9988 20.2596 43.5487 22.2714C43.9297 23.3162 44.4269 24.3149 45.0307 25.2488C46.05 27.0058 47.0425 28.6688 46.7609 29.8021C46.4792 30.9355 44.4741 32.4845 42.6032 33.363C41.7438 33.797 40.8071 34.0568 39.847 34.1275ZM37.681 23.9277C37.8419 27.6093 38.4723 32.9204 39.3843 33.3764C39.8403 33.6044 40.987 33.3764 42.2947 32.7058C44.2126 31.7938 45.9092 30.4057 46.0903 29.6144C46.2713 28.8231 45.299 27.0326 44.4272 25.5372C43.7909 24.5546 43.2711 23.5014 42.8781 22.3988C42.5624 20.7695 42.5239 19.0986 42.7641 17.4565C40.6786 18.7977 38.0699 23.2638 37.681 23.9277Z" fill="var(--fill-0, #263238)"/>
<path id="Vector_18" d="M45.0709 25.6177C45.0709 25.6177 39.5184 28.7091 36.2996 31.7335C33.0807 34.7579 32.7052 44.2133 33.8452 49.1288C34.9852 54.0442 37.7011 60.4082 39.1362 63.4929C41.5637 68.6968 39.619 74.8931 41.8186 80.0969C45.9226 89.787 59.5089 84.4893 60.9439 75.7581C61.7688 70.7153 57.9866 66.296 57.4635 61.4141C56.8935 56.1231 55.9346 37.5811 54.0435 32.4712C52.1524 27.3612 48.1289 25.7384 45.0709 25.6177Z" fill="var(--fill-0, #263238)"/>
<path id="Vector_19" d="M49.3695 85.6226C45.8153 85.6226 42.9988 83.7047 41.5235 80.2578C40.417 77.6559 40.3298 74.8059 40.236 72.0498C40.1421 69.2936 40.0482 66.2759 38.8344 63.6673C38.1638 62.2591 34.8108 54.9496 33.5166 49.2361C32.3363 44.106 32.7387 34.6573 36.0716 31.5257C39.277 28.508 44.8497 25.3897 44.91 25.3562L44.9905 25.3093H45.0844C46.6737 25.3696 52.0317 26.0603 54.3721 32.384C55.8139 36.2869 56.7192 47.8882 57.316 55.5665C57.5038 58.0075 57.6714 60.1199 57.8056 61.4074C58.1283 63.4188 58.7169 65.3785 59.5558 67.2349C60.6489 69.9709 61.7822 72.7941 61.2859 75.8386C60.4008 81.2369 55.1634 85.0258 50.6168 85.5757C50.2022 85.6141 49.7858 85.6297 49.3695 85.6226ZM45.1514 25.9396C44.4808 26.342 39.4648 29.2054 36.5343 31.975C33.4227 34.8988 33.0539 44.1865 34.1738 49.0416C35.4747 54.6947 38.7942 61.9506 39.4447 63.3454C40.7188 66.0747 40.7858 69.079 40.9065 71.9894C40.9937 74.6718 41.0876 77.4682 42.1405 79.9561C43.656 83.5371 46.7139 85.3208 50.5363 84.8715C54.8415 84.3552 59.7905 80.7809 60.5952 75.6978C61.0647 72.8411 60.0185 70.219 58.912 67.4495C58.0396 65.5294 57.4349 63.4987 57.1148 61.4141C56.974 60.1199 56.8131 58.0075 56.6186 55.5531C56.0285 47.915 55.1299 36.3741 53.7149 32.5584C51.5891 26.7779 46.7407 26.0402 45.1514 25.953V25.9396Z" fill="var(--fill-0, #263238)"/>
<path id="Vector_20" d="M36.2996 31.7335C39.5184 28.7091 45.071 25.6177 45.071 25.6177C48.1222 25.7384 52.1659 27.368 54.0569 32.4712C55.948 37.5744 56.907 56.1231 57.477 61.4141C57.782 63.4155 58.3619 65.3653 59.2004 67.208C55.4719 68.4084 47.8003 70.494 40.4975 70.0983C40.4843 67.8302 40.0287 65.5865 39.1563 63.4929C37.7212 60.4082 34.9986 54.0375 33.8653 49.1288C32.732 44.22 33.0874 34.7579 36.2996 31.7335Z" fill="var(--fill-0, #626262)"/>
<path id="Vector_21" d="M42.3617 70.4872C41.7314 70.4872 41.1077 70.4873 40.4774 70.4336H40.1756V70.1318C40.1534 67.9037 39.6979 65.7013 38.8344 63.6472C38.1638 62.2389 34.8108 54.9294 33.5166 49.216C32.3363 44.0859 32.7387 34.6372 36.0716 31.5055C39.277 28.4879 44.8497 25.3696 44.91 25.3361L44.9905 25.2891H45.0844C46.6737 25.3495 52.0317 26.0402 54.3721 32.3639C55.8139 36.2668 56.7192 47.8681 57.316 55.5464C57.5038 57.9874 57.6714 60.0997 57.8056 61.3873C58.124 63.3533 58.7036 65.2681 59.529 67.0806L59.6631 67.4159L59.3211 67.5299C55.7401 68.6767 49.0677 70.4872 42.3617 70.4872ZM40.8127 69.763C47.7198 70.0782 54.8952 68.2072 58.7511 66.98C57.9682 65.2097 57.4269 63.3421 57.1417 61.4275C57.0008 60.1333 56.8399 58.0209 56.6454 55.5665C56.0553 47.9284 55.1567 36.3875 53.7417 32.5718C51.5891 26.7577 46.7407 26.0201 45.1514 25.9329C44.4808 26.3352 39.4648 29.1987 36.5343 31.9682C33.4227 34.892 33.0539 44.1798 34.1738 49.0349C35.4747 54.688 38.7942 61.9439 39.4447 63.3387C40.3064 65.3733 40.7707 67.5539 40.8127 69.763Z" fill="var(--fill-0, #263238)"/>
<path id="Vector_22" d="M51.9714 66.2357C45.6812 66.2357 39.277 61.2196 39.0088 61.0051C38.9397 60.9497 38.8953 60.8693 38.8852 60.7814C38.8752 60.6935 38.9003 60.6051 38.9551 60.5356C38.982 60.5007 39.0156 60.4715 39.0539 60.4498C39.0923 60.428 39.1346 60.4143 39.1784 60.4093C39.2222 60.4043 39.2666 60.4081 39.3089 60.4206C39.3512 60.4331 39.3905 60.454 39.4245 60.482C39.4916 60.5289 45.9226 65.5651 51.9714 65.5651C52.0603 65.5651 52.1456 65.6004 52.2085 65.6633C52.2713 65.7262 52.3067 65.8115 52.3067 65.9004C52.305 65.9888 52.2691 66.0731 52.2066 66.1356C52.1441 66.1981 52.0598 66.234 51.9714 66.2357Z" fill="var(--fill-0, #263238)"/>
<path id="Vector_23" d="M51.1063 67.7914C48.9206 67.7989 46.7582 67.3417 44.7625 66.4502C44.6847 66.4087 44.626 66.3389 44.5985 66.2552C44.5711 66.1715 44.5769 66.0804 44.6149 66.0009C44.6343 65.9612 44.6612 65.9258 44.6943 65.8965C44.7273 65.8673 44.7658 65.8448 44.8076 65.8305C44.8493 65.8162 44.8935 65.8102 44.9375 65.813C44.9816 65.8158 45.0246 65.8272 45.0642 65.8467C47.7312 66.9997 50.6726 67.3651 53.5406 66.8995C53.6294 66.886 53.72 66.9079 53.7928 66.9606C53.8656 67.0133 53.9147 67.0925 53.9295 67.1812C53.9362 67.2248 53.9342 67.2693 53.9236 67.3121C53.9131 67.3549 53.8942 67.3952 53.868 67.4307C53.8418 67.4662 53.8089 67.4962 53.7712 67.519C53.7334 67.5418 53.6915 67.5569 53.6479 67.5634C52.8084 67.7091 51.9583 67.7854 51.1063 67.7914Z" fill="var(--fill-0, #263238)"/>
<path id="Vector_24" d="M48.8531 31.0561C48.8531 31.0561 51.2203 35.7838 50.2748 39.8074C49.3292 43.831 45.7818 49.9736 45.071 51.8781C44.3601 53.7826 42.469 57.7861 41.7582 57.7861C37.0629 57.7399 32.3863 57.1868 27.8098 56.1364C20.7149 54.48 7.69196 49.0415 7.69196 49.0415L8.87221 46.6743C8.87221 46.6743 16.6779 48.8001 24.0075 48.096C28.4096 47.6667 32.843 47.6667 37.2451 48.096C37.2451 48.096 39.1362 38.8686 41.0273 34.8517" fill="var(--fill-0, #626262)"/>
<path id="Vector_25" d="M41.7582 58.108C37.0354 58.0646 32.3314 57.507 27.7294 56.4449C20.6948 54.802 7.71208 49.3903 7.57796 49.3366L7.24936 49.1958L8.71797 46.2653L8.9795 46.3391C9.05997 46.3391 16.8121 48.4447 23.9941 47.7473C28.3215 47.3481 32.6764 47.3481 37.0037 47.7473C37.3457 46.1044 39.0155 38.359 40.7456 34.7311L41.3559 35.0127C39.4983 38.9558 37.6139 48.0893 37.5938 48.1832L37.5335 48.485L37.225 48.4447C32.845 48.0228 28.4345 48.0228 24.0545 48.4447C17.5095 49.1153 10.5085 47.4456 9.07338 47.1036L8.16808 48.9007C10.2469 49.7591 21.5263 54.3594 27.8836 55.8414C32.4354 56.8895 37.0875 57.4404 41.7582 57.4844C42.2477 57.3033 43.9041 54.071 44.7558 51.791C44.9905 51.1741 45.4934 50.1548 46.1372 48.8605C47.4784 46.1781 49.3091 42.4764 49.9462 39.7739C50.8515 35.918 48.605 31.2976 48.5513 31.2507L49.1549 30.9556C49.2555 31.1501 51.5623 35.8375 50.5967 39.9282C49.9261 42.7044 48.0953 46.433 46.7407 49.1556C46.1305 50.3828 45.6074 51.4423 45.3995 52.0257C45.3593 52.0458 42.9854 58.108 41.7582 58.108Z" fill="var(--fill-0, #263238)"/>
<path id="Vector_26" d="M66.3758 69.6356L70.453 70.0849C70.453 70.0849 71.5461 69.535 68.2601 67.3421" fill="var(--fill-0, white)"/>
<path id="Vector_27" d="M70.5133 70.4336L66.3422 69.9709L66.416 69.3003L70.292 69.7295C70.2384 69.4814 69.9366 68.8644 68.0724 67.6238L68.4412 67.0673C70.178 68.2207 71.0029 69.1193 70.9559 69.8033C70.9544 69.9234 70.9206 70.041 70.8581 70.1436C70.7956 70.2463 70.7066 70.3302 70.6005 70.3867L70.5133 70.4336Z" fill="var(--fill-0, #263238)"/>
<path id="Vector_28" d="M59.529 76.2208C60.4356 79.7258 61.1453 83.2788 61.6548 86.8632C62.6003 93.2472 62.3656 104.124 62.3656 104.124C62.3656 104.124 72.7665 102.937 77.2595 105.305C81.7525 107.672 98.3095 121.62 100.911 122.331C100.911 122.331 101.582 125.168 99.7245 125.637C97.8669 126.106 70.6408 114.291 65.9131 114.056C61.1854 113.821 54.5867 111.897 53.1717 109.087C52.1927 107.182 47.0224 92.0603 46.7877 86.1523C46.6755 82.8256 46.3597 79.5089 45.8421 76.2208" fill="var(--fill-0, #263238)"/>
<path id="Vector_29" d="M99.577 125.986C98.2358 125.986 93.4276 124.148 85.3 121.03C77.3467 117.972 68.3339 114.512 65.8527 114.384C61.5475 114.17 54.419 112.373 52.8029 109.241C51.7367 107.162 46.62 92.0468 46.3853 86.1657C46.2753 82.8525 45.9617 79.5491 45.4465 76.2744L46.1171 76.1604C46.6349 79.4644 46.9529 82.7966 47.0693 86.1389C47.2973 91.9462 52.3603 106.88 53.4132 108.939C54.7543 111.494 60.9305 113.479 65.8996 113.727C68.4814 113.855 77.1589 117.187 85.5481 120.433C91.7645 122.827 98.8192 125.55 99.6306 125.349C100.972 125.02 100.71 123.196 100.603 122.619C98.9533 121.949 94.0915 118.213 88.9547 114.257C84.1667 110.569 79.2177 106.753 77.0919 105.633C72.7397 103.346 62.493 104.48 62.3924 104.486L62.0102 104.533V104.151C62.0102 104.037 62.2382 93.227 61.3061 86.9436C60.7919 83.3738 60.0845 79.8346 59.187 76.3415L59.8576 76.1604C60.7678 79.6789 61.4819 83.2453 61.9968 86.843C62.835 92.5095 62.7411 101.797 62.7143 103.782C64.659 103.588 73.3298 102.884 77.4272 105.043C79.6066 106.19 84.5757 110.019 89.3839 113.727C94.4603 117.637 99.7111 121.687 101.005 122.036L101.193 122.089L101.24 122.284C101.515 123.377 101.569 125.556 99.8117 125.999C99.7332 126.007 99.654 126.002 99.577 125.986Z" fill="var(--fill-0, #263238)"/>
<path id="Vector_30" d="M56.0352 97.6999C55.9579 97.6999 55.883 97.6732 55.8231 97.6244C55.7632 97.5755 55.7221 97.5074 55.7066 97.4317L51.683 77.6223C51.6742 77.5791 51.674 77.5347 51.6823 77.4914C51.6907 77.4482 51.7075 77.407 51.7318 77.3703C51.7561 77.3335 51.7874 77.3019 51.8239 77.2773C51.8604 77.2526 51.9014 77.2354 51.9446 77.2266C52.0315 77.2106 52.1213 77.2289 52.1951 77.2777C52.2688 77.3264 52.3209 77.4019 52.3402 77.4882L56.3638 97.2976C56.3735 97.3408 56.3745 97.3855 56.3665 97.4291C56.3585 97.4727 56.3418 97.5142 56.3174 97.5512C56.293 97.5881 56.2613 97.6197 56.2243 97.6441C56.1874 97.6686 56.1458 97.6852 56.1022 97.6932L56.0352 97.6999Z" fill="var(--fill-0, white)"/>
<path id="Vector_31" d="M51.5959 75.966C51.5189 75.9648 51.4446 75.9377 51.3849 75.889C51.3253 75.8403 51.2838 75.773 51.2673 75.6978L50.5564 72.204C50.5386 72.1151 50.5569 72.0227 50.6072 71.9473C50.6575 71.8718 50.7357 71.8194 50.8247 71.8016C50.9136 71.7838 51.0059 71.8021 51.0814 71.8524C51.1569 71.9027 51.2092 71.9809 51.227 72.0699L51.9379 75.5637C51.9467 75.6068 51.9469 75.6513 51.9385 75.6945C51.9302 75.7378 51.9133 75.7789 51.8891 75.8157C51.8648 75.8524 51.8335 75.884 51.797 75.9087C51.7605 75.9333 51.7195 75.9505 51.6763 75.9593L51.5959 75.966Z" fill="var(--fill-0, white)"/>
<path id="Vector_32" d="M57.6647 97.1635C57.5878 97.1623 57.5135 97.1351 57.4538 97.0865C57.3942 97.0378 57.3527 96.9704 57.3361 96.8952L52.1524 71.6607C52.1364 71.5738 52.1547 71.484 52.2035 71.4102C52.2522 71.3365 52.3277 71.2844 52.414 71.2651C52.4571 71.2563 52.5016 71.2561 52.5448 71.2644C52.5881 71.2728 52.6292 71.2896 52.666 71.3139C52.7027 71.3382 52.7343 71.3695 52.759 71.406C52.7836 71.4425 52.8008 71.4835 52.8096 71.5266L57.9665 96.7611C57.9753 96.8043 57.9756 96.8488 57.9672 96.892C57.9588 96.9352 57.942 96.9764 57.9177 97.0131C57.8934 97.0499 57.8621 97.0815 57.8256 97.1061C57.7891 97.1308 57.7481 97.148 57.705 97.1568L57.6647 97.1635Z" fill="var(--fill-0, white)"/>
<path id="Vector_33" d="M53.1114 109.087C51.7197 105.681 50.5153 102.203 49.5036 98.6657C53.8623 98.9905 58.238 98.3281 62.3053 96.7277C62.4058 100.785 62.3053 104.104 62.3053 104.104C62.3053 104.104 72.7062 102.917 77.1992 105.284C81.6922 107.652 98.2492 121.6 100.851 122.311C100.851 122.311 101.522 125.148 99.6641 125.617C97.8066 126.086 70.5804 114.27 65.8527 114.036C61.125 113.801 54.5532 111.897 53.1114 109.087Z" fill="var(--fill-0, white)"/>
<path id="Vector_34" d="M99.5769 125.986C98.2358 125.986 93.4276 124.148 85.3 121.03C77.3467 117.972 68.3339 114.512 65.8527 114.384C61.5475 114.17 54.419 112.373 52.8029 109.241C51.4091 105.816 50.1981 102.319 49.175 98.7662L49.0342 98.29L49.5304 98.337C53.8484 98.6581 58.1831 98.0002 62.2114 96.4124L62.654 96.2447V96.7208C62.7277 99.9531 62.6942 102.756 62.654 103.749C64.5987 103.554 73.2695 102.85 77.3668 105.009C79.5463 106.156 84.5154 109.985 89.3235 113.694C94.3999 117.603 99.6507 121.654 100.945 122.002L101.133 122.056L101.18 122.25C101.455 123.343 101.508 125.523 99.7513 125.966C99.6942 125.979 99.6357 125.986 99.5769 125.986ZM49.9529 99.0411C50.9249 102.396 52.0732 105.698 53.393 108.932C54.7342 111.487 60.9104 113.472 65.8795 113.72C68.4613 113.848 77.1388 117.181 85.528 120.426C91.7444 122.82 98.7991 125.543 99.6105 125.342C100.952 125.013 100.69 123.189 100.583 122.613C98.9332 121.942 94.0714 118.207 88.9346 114.25C84.1466 110.562 79.1976 106.746 77.0718 105.626C72.7196 103.34 62.4729 104.473 62.3723 104.48L61.9901 104.527V104.144C61.9901 104.111 62.0571 101.026 61.9901 97.2372C58.1508 98.6667 54.056 99.281 49.9663 99.0411H49.9529Z" fill="var(--fill-0, #263238)"/>
<path id="Vector_35" d="M34.0799 139.773C34.0799 139.773 31.9809 141.785 30.6263 140.444C29.2717 139.103 25.8852 109.596 23.7192 105.372C21.5532 101.147 20.0309 94.8097 20.896 92.8449C21.6691 91.3859 22.6099 90.0221 23.6991 88.7811C26.5852 91.5495 29.8639 93.8769 33.4294 95.6882C31.6993 96.6874 30.5391 97.3245 30.5391 97.3245C30.5391 97.3245 36.7757 105.74 36.9769 110.817C37.178 115.893 33.3758 137.165 34.0799 139.773Z" fill="var(--fill-0, white)"/>
<path id="Vector_36" d="M31.7596 141.235C31.5013 141.238 31.2453 141.187 31.0084 141.084C30.7715 140.981 30.559 140.829 30.3849 140.638C29.7143 139.968 28.8559 134.757 27.4075 125.637C26.0663 117.228 24.5507 107.692 23.4174 105.519C21.352 101.496 19.6285 94.8835 20.5875 92.704C21.3739 91.2153 22.3327 89.8243 23.4442 88.5598L23.6789 88.2714L23.9405 88.5396C26.8026 91.2796 30.0517 93.5842 33.5836 95.3797L34.1201 95.6614L33.5971 95.9698C32.4168 96.6404 31.4981 97.1702 31.0354 97.4317C32.1754 99.021 37.1244 106.149 37.3122 110.797C37.4127 113.251 36.5812 119.474 35.7832 125.496C34.9382 131.847 34.0665 138.419 34.4085 139.713L34.4554 139.907L34.3146 140.041C33.9144 140.407 33.4625 140.712 32.9734 140.947C32.595 141.131 32.1805 141.23 31.7596 141.235ZM23.7125 89.2438C22.7308 90.3777 21.8846 91.6223 21.191 92.9521C20.393 94.7493 21.8147 100.926 24.0008 105.184C25.1878 107.484 26.643 116.658 28.0579 125.53C29.1041 132.115 30.291 139.579 30.8543 140.175C31.7865 141.141 33.2551 140.028 33.7044 139.652C33.4428 137.895 34.2475 131.806 35.1059 125.375C35.9039 119.387 36.722 113.197 36.6282 110.797C36.4337 105.881 30.3178 97.5793 30.2575 97.4921L30.0295 97.1836L30.3648 97.0025C30.3648 97.0025 31.2969 96.4862 32.7253 95.6614C29.4507 93.9364 26.4236 91.7777 23.7259 89.2438H23.7125Z" fill="var(--fill-0, #263238)"/>
<path id="Vector_37" d="M38.3784 43.2476C37.7078 45.93 37.2652 48.0826 37.2652 48.0826C32.8631 47.6533 28.4297 47.6533 24.0276 48.0826C16.698 48.7868 8.93925 45.0247 8.93925 45.0247L8.26865 44.2737C7.90653 43.3952 7.29629 41.8997 7.03476 41.1084C6.71958 40.1629 4.16461 41.6248 4.16461 41.6248C4.16461 41.6248 1.79741 40.4513 0.851868 42.0205C-0.0936721 43.5897 0.590336 46.6543 0.590336 46.6543C0.590336 46.6543 0.509862 47.3249 2.70942 48.9075C4.39261 50.1078 6.98781 50.2487 8.40277 50.0944C14.78 52.4307 21.2706 54.445 27.85 56.1298C32.4266 57.1802 37.1031 57.7333 41.7984 57.7795C42.5093 57.7795 44.4003 53.7559 45.1112 51.8715C45.3459 51.2479 45.8891 50.1548 46.5463 48.8337C44.0921 46.6067 41.3438 44.7272 38.3784 43.2476Z" fill="var(--fill-0, white)"/>
<path id="Vector_38" d="M41.7582 58.1079C37.0354 58.0645 32.3314 57.5069 27.7293 56.4449C21.3721 54.9628 10.4682 51.3081 8.32901 50.443C7.05488 50.5772 4.30545 50.4833 2.48813 49.1756C0.476345 47.7674 0.241635 46.9828 0.228223 46.6944C0.214811 46.4061 -0.442373 43.442 0.536696 41.846C1.36153 40.5048 3.15873 40.8267 4.12439 41.2492C4.66757 40.9541 6.13617 40.2366 6.86712 40.5249C6.97433 40.5644 7.07113 40.6278 7.15015 40.7103C7.22917 40.7928 7.28833 40.8922 7.32312 41.001C7.55783 41.6716 8.09431 43.0128 8.53019 44.0858L9.14044 44.7564C9.85127 45.0917 17.1876 48.4178 23.9941 47.7539C28.3215 47.3547 32.6764 47.3547 37.0037 47.7539C37.1445 47.0833 37.5334 45.2862 38.0565 43.2006L38.1571 42.7982L38.5326 42.986C41.5066 44.4847 44.2652 46.3772 46.734 48.6123L46.9218 48.7867L46.7541 49.1153C46.1372 50.3559 45.6074 51.4288 45.4129 52.0189C45.3593 52.0458 42.9854 58.1079 41.7582 58.1079ZM8.4229 49.7523L8.50337 49.7859C14.858 52.1218 21.3263 54.1361 27.8836 55.8212C32.4354 56.8693 37.0875 57.4202 41.7582 57.4642C42.2477 57.2831 43.9041 54.0508 44.7558 51.7708C44.9838 51.1673 45.4733 50.1815 46.097 48.9275C43.8244 46.9017 41.3081 45.1672 38.6064 43.7639C38.0029 46.2116 37.6005 48.1563 37.5938 48.1764L37.5334 48.4782L37.225 48.4379C32.845 48.016 28.4345 48.016 24.0545 48.4379C16.7115 49.1488 8.86549 45.3935 8.79173 45.3532L8.69114 45.2794L7.93336 44.4278C7.49077 43.3682 6.93418 41.9734 6.69277 41.2425C6.68748 41.2269 6.67867 41.2127 6.66704 41.2011C6.65542 41.1895 6.64127 41.1807 6.62571 41.1754C6.22335 41.0212 5.00286 41.5442 4.30544 41.9399L4.15121 42.0338L3.99026 41.9533C3.99026 41.9533 1.88459 40.934 1.11341 42.2215C0.255047 43.6566 0.885405 46.5804 0.892111 46.6072V46.7212C0.892111 46.7212 1.03294 47.3449 2.9039 48.6592C4.6005 49.873 7.21583 49.9334 8.36255 49.7926L8.4229 49.7523Z" fill="var(--fill-0, #263238)"/>
<path id="Vector_39" d="M32.6247 5.98929C32.041 5.92797 31.496 5.66805 31.0809 5.25301C30.6659 4.83798 30.406 4.29301 30.3447 3.70927C29.9624 1.52313 33.8586 -0.0930056 34.5292 0.356293C35.1998 0.805592 34.5292 1.87184 34.5292 1.87184C34.5292 1.87184 36.8092 0.161825 36.997 0.926304C37.1212 1.29616 37.1212 1.69646 36.997 2.06631C36.997 2.06631 41.8454 1.49631 44.5076 2.73691C47.1699 3.97751 50.4022 7.49143 49.1616 11.8637C47.921 16.236 45.3593 19.9109 43.6493 20.3199C41.9393 20.729 39.4715 19.9377 38.9953 18.8983C38.5192 17.8588 39.277 17.8521 37.3792 16.3299C35.4814 14.8076 33.2886 12.4337 34.2408 10.4353C35.1931 8.43697 33.8586 6.17706 32.6247 5.98929Z" fill="var(--fill-0, #263238)"/>
<path id="Vector_40" d="M42.6501 20.8095C40.9602 20.8095 39.1362 20.0718 38.6869 19.0793C38.5649 18.8145 38.4879 18.5312 38.4589 18.2411C38.4119 17.8723 38.3784 17.604 37.1646 16.6384C35.4814 15.2972 32.8259 12.6819 33.9391 10.3415C34.1445 9.88884 34.2424 9.39476 34.2249 8.89796C34.2075 8.40117 34.0752 7.91516 33.8385 7.47804C33.7234 7.21073 33.5517 6.97157 33.3352 6.77707C33.1187 6.58256 32.8625 6.43735 32.5845 6.35145C31.9314 6.27368 31.3233 5.97894 30.8576 5.51447C30.3919 5.05 30.0956 4.44267 30.0161 3.78977C29.8283 2.73693 30.4855 1.65728 31.7999 0.825737C32.8192 0.188671 34.1872 -0.247216 34.7237 0.155141C34.8741 0.261082 34.9937 0.40506 35.0703 0.57236C35.1469 0.739661 35.1777 0.924286 35.1596 1.10739C35.7832 0.71844 36.5343 0.356319 36.9567 0.510556C37.0484 0.540887 37.1306 0.594554 37.1953 0.666274C37.26 0.737994 37.3049 0.825299 37.3256 0.91962C37.395 1.19336 37.4243 1.47571 37.4128 1.75786C38.7003 1.65057 42.3886 1.44939 44.6485 2.50223C47.2236 3.69589 50.8113 7.33722 49.4835 12.018C48.2563 16.3836 45.6678 20.2864 43.7231 20.7357C43.369 20.798 43.0094 20.8227 42.6501 20.8095ZM34.1738 0.658088C33.3486 0.755545 32.5642 1.07026 31.9005 1.5701C31.3707 1.94563 30.5056 2.72352 30.6733 3.67577C30.7208 4.18653 30.9428 4.66535 31.3018 5.03172C31.6609 5.3981 32.1351 5.62969 32.6448 5.68755H32.7052C33.0897 5.78467 33.4471 5.96796 33.7503 6.22355C34.0535 6.47914 34.2946 6.80034 34.4554 7.16286C34.7424 7.69219 34.9021 8.2811 34.9219 8.88289C34.9417 9.48468 34.821 10.0828 34.5694 10.6299C33.6172 12.6416 36.38 15.1295 37.6139 16.1153C38.9551 17.195 39.0758 17.5973 39.1496 18.1271C39.1677 18.3592 39.2267 18.5862 39.3239 18.7977C39.7062 19.6292 41.9326 20.4071 43.6024 20.0316C45.0911 19.703 47.6259 16.2494 48.8665 11.8101C50.0803 7.52499 46.7676 4.18542 44.3936 3.09235C41.8454 1.9121 37.111 2.45529 37.064 2.45529L36.4471 2.52906L36.722 1.97246C36.8038 1.69446 36.8038 1.3988 36.722 1.1208C35.9937 1.34005 35.3134 1.69499 34.717 2.16693L33.2618 3.26L34.2274 1.72433C34.2274 1.72433 34.7102 0.933036 34.3146 0.651386C34.2692 0.636369 34.2215 0.629557 34.1738 0.631269V0.658088Z" fill="var(--fill-0, #263238)"/>
<path id="Vector_41" d="M32.0346 5.13103C30.9784 6.35193 30.2575 7.82619 29.9423 9.40943C29.4662 11.9778 30.3246 13.0239 29.5668 14.0701C28.809 15.1162 27.0923 16.3501 27.7562 17.1079C28.4111 17.6692 29.1942 18.0607 30.0362 18.2479C30.1134 19.5492 30.38 20.8324 30.8275 22.0569C31.4981 23.5724 32.0346 26.5163 33.8385 26.3286C35.6424 26.1408 40.2091 23.2908 40.4908 21.6746C40.6435 20.4407 40.6119 19.1909 40.3969 17.9662C40.3969 17.9662 42.4087 14.4456 41.7381 12.9301C41.0675 11.4145 39.1697 12.4539 38.5997 13.2117C38.0297 13.9695 38.3113 15.304 37.3658 14.3517C36.4203 13.3995 36.9836 12.5478 36.4136 12.1656C36.2173 12.0613 36.0464 11.9151 35.9129 11.7373C35.7795 11.5596 35.6867 11.3547 35.6413 11.1371C35.5959 10.9195 35.5989 10.6947 35.65 10.4784C35.7012 10.2621 35.7993 10.0597 35.9374 9.88556C36.7019 8.83943 37.9492 7.31717 36.608 6.08327C35.2668 4.84938 33.0069 5.03715 32.0346 5.13103Z" fill="var(--fill-0, white)"/>
<path id="Vector_42" d="M33.6842 26.6773C32.1486 26.6773 31.4847 24.7929 30.9482 23.2639C30.8074 22.875 30.68 22.4995 30.5458 22.191C30.0985 21.0099 29.8274 19.7694 29.7411 18.5094C28.9155 18.3095 28.1541 17.9034 27.5282 17.3292C26.8576 16.558 27.7428 15.6057 28.5341 14.7675C28.8112 14.4839 29.071 14.1838 29.312 13.8689C29.5981 13.3715 29.6798 12.7824 29.54 12.2259C29.4296 11.2676 29.4613 10.2982 29.6338 9.34908C29.954 7.7003 30.7061 6.16604 31.8133 4.90303L31.8937 4.81585H32.0212C32.846 4.72867 35.3741 4.48056 36.8427 5.84857C38.3113 7.21659 37.0842 8.9199 36.3398 9.9325L36.2258 10.0934C36.122 10.2196 36.0448 10.3654 35.9987 10.5221C35.9526 10.6788 35.9386 10.8432 35.9576 11.0055C36.058 11.3797 36.298 11.7013 36.6282 11.9041C36.7775 12.0203 36.8973 12.1701 36.9777 12.3414C37.0581 12.5128 37.0969 12.7007 37.0909 12.8898C37.102 13.1688 37.1752 13.4417 37.3051 13.6888C37.435 13.9359 37.6184 14.1509 37.8419 14.3182C37.8419 14.2377 37.9023 14.117 37.9291 14.0231C38.011 13.667 38.1564 13.3286 38.3583 13.0239C38.6546 12.6523 39.031 12.3525 39.4596 12.147C39.8881 11.9414 40.3575 11.8355 40.8328 11.837C41.1089 11.8697 41.3706 11.9777 41.5894 12.1492C41.8082 12.3207 41.9757 12.5491 42.0734 12.8094C42.744 14.3316 41.1614 17.356 40.7858 18.04C40.9911 19.2637 41.016 20.5108 40.8596 21.7417C40.5444 23.5389 35.8033 26.4761 33.9122 26.6773H33.6842ZM32.2156 5.45292C31.2538 6.61596 30.5928 7.99775 30.291 9.4765C30.1355 10.362 30.1061 11.2651 30.2038 12.1589C30.3691 12.875 30.2437 13.6274 29.8551 14.2511C29.5974 14.5871 29.3197 14.9073 29.0236 15.2101C28.4268 15.8807 27.7562 16.5513 28.0311 16.8732C28.638 17.3858 29.3608 17.7426 30.1368 17.9126L30.3782 17.9662V18.2211C30.4552 19.4807 30.7126 20.7228 31.1427 21.9093C31.2835 22.2312 31.4243 22.6202 31.5652 23.0292C32.0748 24.471 32.6582 26.1006 33.8116 25.9799C35.5753 25.7988 39.9275 22.9689 40.1689 21.6009C40.316 20.4069 40.2843 19.1978 40.075 18.0132V17.8925L40.1354 17.7852C40.6651 16.8463 41.9393 14.1707 41.4766 13.0508C41.4279 12.9033 41.3396 12.7721 41.2213 12.6716C41.103 12.571 40.9593 12.505 40.806 12.4808C40.4469 12.4882 40.0939 12.5743 39.7718 12.7331C39.4497 12.8918 39.1663 13.1193 38.9417 13.3995C38.7897 13.6379 38.6807 13.9012 38.6198 14.1774C38.5192 14.5462 38.4186 14.9016 38.0766 14.9888C37.7346 15.076 37.453 14.8279 37.1982 14.5797C36.7589 14.1453 36.5002 13.5608 36.4739 12.9435C36.4337 12.6216 36.4136 12.5076 36.2996 12.4338C35.8232 12.1268 35.4862 11.6453 35.3607 11.0926C35.3205 10.8421 35.3337 10.5859 35.3996 10.3409C35.4655 10.0958 35.5825 9.86752 35.743 9.67097L35.8637 9.50332C36.7891 8.2426 37.4195 7.20988 36.4471 6.31129C35.1998 5.22492 33.0807 5.38586 32.2156 5.45292Z" fill="var(--fill-0, #263238)"/>
<path id="Vector_43" d="M32.2827 13.4799C32.2827 14.003 32.0949 14.4321 31.8602 14.4321C31.6255 14.4321 31.4444 14.003 31.4444 13.4799C31.4444 12.9568 31.6322 12.5209 31.8602 12.5209C32.0882 12.5209 32.2827 12.9501 32.2827 13.4799Z" fill="var(--fill-0, #263238)"/>
<path id="Vector_44" d="M33.3758 11.904C33.3136 11.9047 33.2525 11.8882 33.1992 11.8562C33.1459 11.8243 33.1026 11.7781 33.074 11.7229C32.799 11.1797 32.4839 10.8646 32.1351 10.7908C31.9929 10.7673 31.8473 10.7736 31.7076 10.8094C31.5679 10.8452 31.4372 10.9096 31.3237 10.9987C31.2894 11.0269 31.2498 11.048 31.2073 11.0609C31.1648 11.0738 31.1202 11.0782 31.0759 11.0738C31.0317 11.0695 30.9888 11.0564 30.9496 11.0355C30.9105 11.0145 30.8758 10.9861 30.8476 10.9517C30.8194 10.9174 30.7983 10.8778 30.7854 10.8353C30.7725 10.7928 30.7681 10.7482 30.7725 10.704C30.7768 10.6597 30.7899 10.6168 30.8108 10.5776C30.8317 10.5385 30.8602 10.5038 30.8946 10.4756C31.0888 10.3265 31.3118 10.2191 31.5495 10.1603C31.7873 10.1014 32.0346 10.0924 32.276 10.1336C32.5914 10.2273 32.8812 10.3921 33.123 10.6153C33.3648 10.8385 33.5522 11.1142 33.6708 11.4212C33.6914 11.4602 33.704 11.503 33.7077 11.5469C33.7114 11.5909 33.7062 11.6352 33.6925 11.6771C33.6787 11.7191 33.6566 11.7578 33.6275 11.791C33.5985 11.8242 33.563 11.8512 33.5233 11.8705C33.4779 11.8943 33.427 11.9058 33.3758 11.904Z" fill="var(--fill-0, #263238)"/>
<path id="Vector_45" d="M31.6188 20.34H31.4109C31.3663 20.3375 31.3226 20.326 31.2824 20.3063C31.2422 20.2866 31.2064 20.2591 31.177 20.2254C31.1476 20.1916 31.1253 20.1523 31.1114 20.1098C31.0974 20.0673 31.0921 20.0225 31.0957 19.9779C31.1043 19.8895 31.1468 19.8079 31.2144 19.7504C31.282 19.6928 31.3693 19.6638 31.4579 19.6694C31.4579 19.6694 33.1612 19.77 33.3825 18.6568C33.3904 18.6132 33.4071 18.5717 33.4315 18.5347C33.4559 18.4977 33.4876 18.4661 33.5245 18.4417C33.5615 18.4172 33.603 18.4005 33.6466 18.3926C33.6902 18.3846 33.7349 18.3855 33.7781 18.3953C33.8213 18.4041 33.8623 18.4213 33.8988 18.4459C33.9353 18.4706 33.9666 18.5022 33.9909 18.5389C34.0151 18.5757 34.032 18.6168 34.0403 18.6601C34.0487 18.7033 34.0485 18.7478 34.0397 18.7909C33.7915 20.0248 32.4504 20.34 31.6188 20.34Z" fill="var(--fill-0, #263238)"/>
</g>
</svg>
