<svg preserveAspectRatio="none" width="100%" height="100%" overflow="visible" style="display: block;" viewBox="0 0 115.301 166.934" fill="none" xmlns="http://www.w3.org/2000/svg">
<g id="freepik--character-2--inject-4">
<path id="Vector" d="M105.782 163.937C105.782 165.593 85.9731 166.934 61.5232 166.934C37.0733 166.934 17.2639 165.593 17.2639 163.937C17.2639 162.28 37.0733 160.939 61.5232 160.939C85.9731 160.939 105.782 162.28 105.782 163.937Z" fill="var(--fill-0, #263238)"/>
<path id="Vector_2" d="M44.0542 82.0032C44.0542 82.0032 35.0816 96.8904 33.1771 102.235C31.1184 107.989 27.2624 110.182 27.068 116.17C26.4913 133.726 16.6335 150.069 15.6142 152.054C14.5949 154.039 11.9863 153.965 8.90823 152.818C5.8302 151.671 0.532503 150.33 0.344737 151.671C0.15697 153.013 3.77819 156.634 5.87715 157.78C7.97611 158.927 10.8396 159.122 11.9863 160.262C13.133 161.402 14.8497 162.944 16.9487 162.361C19.0476 161.777 20.1944 154.535 22.1056 151.671C24.0168 148.808 29.5492 140.03 33.7471 134.303C37.945 128.576 37.7707 116.74 38.3273 115.788C38.8839 114.836 47.4876 106.433 50.351 102.423C53.2145 98.4127 54.9312 92.498 54.9312 92.498C55.3938 90.3612 55.3938 88.1501 54.9312 86.0133C54.1734 82.3854 51.1155 78.3753 44.0542 82.0032Z" fill="var(--fill-0, #263238)"/>
<path id="Vector_3" d="M16.0165 162.823C14.3333 162.823 12.9318 161.677 11.7516 160.496C11.1748 159.926 10.0415 159.591 8.83446 159.236C7.7588 158.954 6.71414 158.566 5.7162 158.076C3.74464 156.996 -0.218572 153.254 0.00943083 151.624C0.0292368 151.498 0.077585 151.378 0.150803 151.274C0.22402 151.169 0.320166 151.083 0.431899 151.021C1.91392 150.149 7.28539 151.839 9.04906 152.503C11.3291 153.355 14.2663 153.945 15.3124 151.899L15.7617 151.075C22.6957 138.508 26.3571 126.759 26.7327 116.13C26.8534 112.455 28.3354 110.148 29.8979 107.707C31.1075 105.962 32.1026 104.077 32.8619 102.094C34.7597 96.7831 43.3969 82.4122 43.7658 81.802C43.7983 81.75 43.8448 81.7082 43.8999 81.6813C46.9846 80.0987 49.5865 79.7902 51.6453 80.7693C53.4358 81.6209 54.7501 83.4986 55.2598 85.9128C55.738 88.1021 55.738 90.369 55.2598 92.5584C55.2598 92.6254 53.4894 98.5937 50.626 102.617C48.8154 105.152 44.7784 109.377 41.8278 112.468C40.2116 114.165 38.8101 115.627 38.6156 115.955C38.4296 116.816 38.313 117.691 38.2669 118.571C37.878 122.641 37.1537 130.219 34.0153 134.491C30.8769 138.762 26.9674 144.804 24.3856 148.774C23.5473 150.075 22.8566 151.142 22.3738 151.852C21.5228 153.411 20.848 155.06 20.362 156.768C19.3896 159.611 18.4709 162.294 17.0627 162.676C16.7222 162.772 16.3703 162.822 16.0165 162.823ZM1.6725 151.423C1.36492 151.401 1.05661 151.454 0.773909 151.577C0.749419 151.589 0.72774 151.606 0.710376 151.627C0.693011 151.648 0.680367 151.672 0.673314 151.698C0.525783 152.731 3.78488 156.238 6.03808 157.465C6.99198 157.936 7.99202 158.307 9.02223 158.572C10.3165 158.947 11.5303 159.309 12.2277 160C13.4951 161.274 15.0442 162.508 16.8615 162.012C17.9277 161.717 18.8733 158.961 19.6981 156.526C20.2141 154.762 20.9272 153.062 21.8239 151.457C22.2933 150.753 22.9907 149.686 23.8357 148.392C26.4175 144.409 30.3136 138.394 33.4856 134.075C36.5099 129.951 37.2275 122.494 37.6097 118.484C37.7774 116.7 37.8645 115.895 38.0456 115.587C39.0843 114.33 40.1878 113.128 41.3516 111.986C44.2821 108.914 48.299 104.703 50.0694 102.202C52.8658 98.2853 54.5825 92.4376 54.5959 92.3773C55.0395 90.2927 55.0395 88.1381 54.5959 86.0536C54.1265 83.8406 52.9462 82.1373 51.3435 81.3594C49.5061 80.4809 47.1255 80.7693 44.2754 82.2111C43.5579 83.4114 35.2827 97.2525 33.4788 102.329C32.7072 104.361 31.6893 106.291 30.4478 108.076C28.8652 110.537 27.5038 112.663 27.3898 116.157C27.0411 126.886 23.3193 138.715 16.3384 151.376C16.1372 151.745 15.983 152.047 15.9025 152.188C15.1984 153.529 13.3945 154.837 8.80094 153.106C6.35997 152.208 3.28193 151.443 1.6725 151.443V151.423Z" fill="var(--fill-0, #263238)"/>
<path id="Vector_4" d="M56.2657 35.6583C58.6749 36.9837 60.7557 38.8331 62.3547 41.07C64.5543 44.423 69.4362 54.1667 70.1336 55.4409C71.1529 57.3051 70.3013 58.3177 68.2761 59.5047C67.3372 60.0479 58.2976 63.8971 56.44 64.742C55.2017 65.274 53.8907 65.6175 52.5506 65.7613L51.88 62.7168L61.0068 55.1056C61.0068 55.1056 59.4846 53.248 58.13 48.8489C56.7754 44.4498 51.8733 38.3407 56.2657 35.6583Z" fill="var(--fill-0, white)"/>
<path id="Vector_5" d="M52.5506 66.063C52.4739 66.0646 52.3991 66.0394 52.339 65.9916C52.279 65.9438 52.2376 65.8766 52.222 65.8015L51.5514 62.757C51.5372 62.696 51.5404 62.6323 51.5605 62.5731C51.5806 62.5138 51.617 62.4614 51.6654 62.4217L60.5508 55.0452C59.3375 53.1599 58.4152 51.1027 57.8148 48.9427C57.3825 47.6786 56.8626 46.4462 56.259 45.2545C54.5489 41.6265 52.6042 37.5158 56.098 35.3632C56.149 35.3337 56.2068 35.3182 56.2657 35.3182C56.3245 35.3182 56.3824 35.3337 56.4333 35.3632C58.8984 36.7062 61.0227 38.5965 62.643 40.8889C64.3598 43.531 67.6591 49.9151 69.4295 53.3485C69.919 54.3008 70.2811 54.9982 70.4354 55.2799C71.5888 57.3989 70.536 58.5792 68.4236 59.793C67.7932 60.1618 63.6892 61.9389 60.3764 63.3739C58.6664 64.1183 57.1777 64.7621 56.5406 65.0504C55.2611 65.6025 53.9039 65.9531 52.517 66.0899L52.5506 66.063ZM52.2421 62.8106L52.8121 65.3589C54.0129 65.204 55.1863 64.8835 56.2992 64.4067C56.9698 64.1183 58.425 63.4678 60.1484 62.7235C63.2533 61.3823 67.525 59.5247 68.1084 59.1827C70.261 57.922 70.6634 57.0771 69.8385 55.5682C69.6843 55.2866 69.3222 54.5824 68.8259 53.6235C67.0623 50.2034 63.7763 43.8328 62.073 41.2175C60.5477 39.0805 58.5722 37.3042 56.2858 36.0136C53.5229 37.8846 55.2195 41.4723 56.8625 44.9393C57.4753 46.1612 58.0063 47.4224 58.4518 48.7147C59.7595 52.9797 61.2482 54.844 61.2616 54.8574C61.2904 54.8906 61.3122 54.9292 61.3258 54.971C61.3393 55.0128 61.3444 55.0568 61.3406 55.1006C61.3369 55.1444 61.3244 55.1869 61.3039 55.2258C61.2834 55.2646 61.2554 55.299 61.2214 55.3268L52.2421 62.8106Z" fill="var(--fill-0, #263238)"/>
<path id="Vector_6" d="M58.8073 15.6678C58.8073 15.6678 62.3547 15.3325 63.5417 18.2094C64.7286 21.0862 64.5543 25.1367 63.374 30.2131C62.1938 35.2895 64.3866 39.6819 66.0564 40.3592C67.0211 40.7666 68.0973 40.8258 69.1009 40.5268L68.256 36.805C70.1684 39.3959 72.9158 41.2481 76.0348 42.0491C81.2789 43.3903 90.0704 40.0373 92.9473 36.1344C95.8241 32.2316 95.3145 27.6782 94.2885 28.6908C93.2624 29.7034 88.8768 30.8904 85.497 26.8333C82.1172 22.7761 80.7626 16.1775 77.5504 13.6426C74.3382 11.1078 66.385 12.7977 66.385 12.7977C66.385 12.7977 71.1261 10.9334 68.3968 10.9334C66.5373 10.9048 64.6978 11.3193 63.0303 12.1426C61.3628 12.9658 59.9152 14.1742 58.8073 15.6678Z" fill="var(--fill-0, #263238)"/>
<path id="Vector_7" d="M78.7038 42.6929C77.7862 42.6956 76.8718 42.5853 75.9812 42.3643C73.2758 41.6608 70.831 40.1915 68.9399 38.1329L69.463 40.4397C69.4798 40.5187 69.4682 40.601 69.4301 40.6722C69.3921 40.7434 69.3301 40.7988 69.2551 40.8287C68.1706 41.1547 67.0065 41.0931 65.9625 40.6543C64.0111 39.8764 61.8585 35.2895 63.0588 30.126C64.286 24.8618 64.3464 20.9992 63.2466 18.3235C62.1468 15.6478 58.8877 15.9898 58.8475 15.9898C58.7833 15.9966 58.7185 15.9843 58.6613 15.9545C58.604 15.9246 58.5568 15.8786 58.5256 15.8222C58.4909 15.7681 58.4725 15.7053 58.4725 15.6411C58.4725 15.5769 58.4909 15.5141 58.5256 15.46C59.6705 13.9173 61.1671 12.6702 62.8909 11.8222C64.6148 10.9743 66.5162 10.5501 68.437 10.5848C68.7857 10.5848 69.5099 10.5848 69.5971 11.0676C69.6307 11.2219 69.6843 11.5169 68.7321 12.0802C71.4144 11.7718 75.5788 11.6309 77.7784 13.3611C79.5689 14.7827 80.7759 17.3846 82.0568 20.067C83.1297 22.3605 84.2429 24.7612 85.7719 26.5785C86.3784 27.3627 87.1459 28.0079 88.0227 28.4706C88.8995 28.9333 89.8653 29.2028 90.855 29.2609C91.9985 29.3741 93.1438 29.0639 94.0739 28.3891C94.1255 28.3212 94.1904 28.2646 94.2648 28.2227C94.3392 28.1809 94.4213 28.1548 94.5062 28.146C94.591 28.1372 94.6768 28.1459 94.7581 28.1716C94.8395 28.1972 94.9147 28.2393 94.9791 28.2952C95.8241 29.0262 95.6498 32.9894 93.2289 36.2619C90.8081 39.5344 84.0753 42.6929 78.7038 42.6929ZM68.2761 36.4698C68.3318 36.4716 68.3864 36.4865 68.4353 36.5133C68.4842 36.5401 68.5261 36.578 68.5577 36.624C70.4272 39.14 73.1012 40.9408 76.1354 41.7273C81.346 43.0685 90.0235 39.5478 92.6924 35.9333C95.0462 32.748 94.9724 29.3749 94.5835 28.9055C93.5247 29.7237 92.1936 30.1075 90.8617 29.9784C89.7765 29.915 88.7177 29.6187 87.7573 29.1095C86.7968 28.6004 85.9573 27.8904 85.2958 27.0278C83.7065 25.1233 82.5731 22.7025 81.4801 20.3688C80.2395 17.6864 79.0659 15.1985 77.3961 13.8841C74.3382 11.47 66.5861 13.0861 66.5124 13.1062C66.4235 13.132 66.3279 13.1214 66.2468 13.0768C66.1657 13.0322 66.1056 12.9571 66.0798 12.8682C66.054 12.7793 66.0647 12.6837 66.1093 12.6026C66.1539 12.5215 66.229 12.4614 66.3179 12.4357C67.1762 12.1136 68.0025 11.7117 68.7857 11.2353H68.4705C66.7703 11.2061 65.0848 11.5555 63.5364 12.2584C61.988 12.9613 60.6153 14 59.5181 15.2991C60.6849 15.3729 62.9515 15.802 63.8769 18.0418C65.0371 20.8583 64.9834 24.8551 63.7227 30.2534C62.5827 35.1487 64.7286 39.4137 66.2307 40.0172C67.0298 40.3413 67.9061 40.4252 68.7522 40.2587L67.934 36.8856C67.9176 36.8083 67.9279 36.7277 67.9632 36.6571C67.9986 36.5864 68.0568 36.5298 68.1285 36.4966C68.176 36.4799 68.2258 36.4709 68.2761 36.4698Z" fill="var(--fill-0, #263238)"/>
<path id="Vector_8" d="M85.0342 40.2183C84.9701 40.2273 84.9049 40.2109 84.8527 40.1725C84.8005 40.1341 84.7654 40.0768 84.7549 40.0128C84.7444 39.9489 84.7593 39.8834 84.7965 39.8303C84.8336 39.7772 84.8901 39.7408 84.9538 39.7288C85.9881 39.385 86.9598 38.8754 87.8306 38.2199C87.8841 38.1794 87.9514 38.1615 88.018 38.1703C88.0845 38.1791 88.1449 38.2138 88.186 38.2669C88.225 38.3209 88.2418 38.3878 88.233 38.4539C88.2243 38.5199 88.1907 38.5802 88.1391 38.6223C87.2219 39.3078 86.2008 39.8421 85.1147 40.2049L85.0342 40.2183Z" fill="var(--fill-0, white)"/>
<path id="Vector_9" d="M80.9033 40.8756C76.6249 40.8756 72.655 38.9174 71.0657 35.8729C69.7245 33.2844 69.463 30.1259 69.2216 27.068C68.9802 24.0101 68.7387 20.9454 67.4311 18.4508C66.1234 15.9562 65.0974 15.4197 64.4335 15.3527C64.2135 15.337 63.9928 15.3717 63.7883 15.4542C63.5838 15.5367 63.4008 15.6648 63.2533 15.8288C63.2326 15.8543 63.2071 15.8756 63.1782 15.8912C63.1493 15.9069 63.1176 15.9167 63.0849 15.9202C63.0522 15.9236 63.0191 15.9205 62.9876 15.9112C62.9561 15.9018 62.9267 15.8864 62.9012 15.8657C62.8757 15.845 62.8545 15.8195 62.8388 15.7906C62.8231 15.7617 62.8133 15.73 62.8099 15.6973C62.8064 15.6646 62.8095 15.6316 62.8188 15.6C62.8282 15.5685 62.8436 15.5392 62.8643 15.5136C63.0623 15.283 63.3117 15.102 63.5924 14.9856C63.8732 14.8691 64.1774 14.8202 64.4805 14.843C65.6205 14.957 66.7672 16.0903 67.8804 18.196C69.2216 20.7845 69.4831 23.9497 69.7245 27.0076C69.9659 30.0656 70.2006 33.1235 71.5083 35.6181C73.225 38.8973 77.879 40.842 82.5866 40.2452C82.6197 40.2405 82.6534 40.2426 82.6857 40.2513C82.718 40.26 82.7483 40.2751 82.7746 40.2958C82.8009 40.3164 82.8227 40.3422 82.8388 40.3716C82.8549 40.4009 82.8649 40.4332 82.8682 40.4665C82.8759 40.5321 82.8578 40.5981 82.8178 40.6507C82.7778 40.7032 82.7189 40.7382 82.6536 40.7481C82.0734 40.8271 81.4889 40.8697 80.9033 40.8756Z" fill="var(--fill-0, white)"/>
<path id="Vector_10" d="M85.3226 36.691C85.0246 36.6922 84.7269 36.6766 84.4307 36.644C83.0912 36.5017 81.8021 36.0549 80.6619 35.3377C79.5216 34.6206 78.5606 33.6521 77.8522 32.5065C76.3903 30.1862 75.8404 27.0612 75.324 24.0368C74.8747 21.4618 74.4522 19.0208 73.4799 17.5924C73.4435 17.537 73.4301 17.4696 73.4427 17.4045C73.4552 17.3394 73.4926 17.2817 73.5469 17.2437C73.6034 17.2069 73.6719 17.1934 73.7381 17.2059C73.8043 17.2184 73.8631 17.256 73.9023 17.3108C74.9284 18.833 75.3575 21.3343 75.8135 23.9564C76.3299 26.9271 76.8664 29.9917 78.2746 32.2382C78.9425 33.3193 79.8486 34.2335 80.9236 34.9111C81.9986 35.5886 83.2142 36.0116 84.4776 36.1478C87.616 36.463 90.9422 34.9743 93.866 31.9499C93.9143 31.9051 93.9778 31.8802 94.0437 31.8802C94.1096 31.8802 94.1731 31.9051 94.2214 31.9499C94.2453 31.9736 94.2643 32.0018 94.2773 32.0328C94.2902 32.0639 94.2969 32.0973 94.2969 32.1309C94.2969 32.1646 94.2902 32.1979 94.2773 32.229C94.2643 32.2601 94.2453 32.2883 94.2214 32.312C91.4653 35.1553 88.3403 36.691 85.3226 36.691Z" fill="var(--fill-0, white)"/>
<path id="Vector_11" d="M71.4949 15.916C71.4572 15.9223 71.4187 15.9223 71.3809 15.916C70.7889 15.6233 70.1658 15.3983 69.5234 15.2454C69.4589 15.2294 69.4033 15.189 69.3682 15.1326C69.3331 15.0763 69.3214 15.0085 69.3356 14.9436C69.3418 14.9108 69.3548 14.8796 69.3737 14.852C69.3925 14.8245 69.4169 14.8011 69.4453 14.7835C69.4736 14.7658 69.5054 14.7543 69.5384 14.7495C69.5715 14.7447 69.6052 14.7469 69.6374 14.7558C70.3154 14.9051 70.9744 15.1301 71.6022 15.4264C71.6326 15.44 71.6598 15.4597 71.6822 15.4842C71.7046 15.5088 71.7217 15.5377 71.7324 15.5692C71.7431 15.6007 71.7472 15.634 71.7444 15.6672C71.7416 15.7003 71.732 15.7325 71.7162 15.7617C71.6997 15.8071 71.6696 15.8462 71.63 15.8738C71.5904 15.9014 71.5432 15.9161 71.4949 15.916Z" fill="var(--fill-0, white)"/>
<path id="Vector_12" d="M46.5353 27.41C46.5353 27.41 48.4465 30.8501 48.8288 32.5669C49.211 34.2836 49.3988 36.5904 45.7709 39.8227C42.143 43.055 39.0649 47.8363 40.044 50.8875C41.0231 53.9387 43.2897 60.6246 44.0676 66.157C44.8454 71.6894 43.1153 80.092 43.4975 83.3376C43.8798 86.5833 48.2655 92.1157 54.1868 94.9792C60.1082 97.8426 65.8284 90.399 66.3984 85.0544C66.9684 79.7097 62.7705 73.4128 60.4837 70.5494C58.197 67.6859 57.6203 68.0682 57.6203 66.3514C57.6203 64.6347 60.866 46.1196 59.7193 39.4405C58.5725 32.7613 55.5213 31.3933 54.9446 29.5156C54.3679 27.638 52.6579 19.3964 52.6579 19.3964L46.5353 27.41Z" fill="var(--fill-0, #263238)"/>
<path id="Vector_13" d="M56.8558 95.9515C55.8735 95.9482 54.9052 95.7187 54.0259 95.2809C47.9905 92.3772 43.5512 86.7778 43.1488 83.3778C43.0644 81.2609 43.1631 79.1406 43.4439 77.0407C43.7792 73.4463 44.1547 69.3624 43.7188 66.2039C43.0482 61.4292 41.251 55.7627 40.1647 52.3762C39.997 51.8598 39.8495 51.3904 39.7288 50.9881C38.6827 47.6351 42.0155 42.733 45.5496 39.588C49.0836 36.4429 48.9025 34.3908 48.5002 32.6607C48.0978 30.9306 46.2604 27.6312 46.2403 27.5977C46.2058 27.5424 46.1875 27.4785 46.1875 27.4133C46.1875 27.3481 46.2058 27.2842 46.2403 27.2289L52.3494 19.1817C52.388 19.1297 52.4408 19.09 52.5015 19.0674C52.5622 19.0448 52.6282 19.0403 52.6914 19.0543C52.7539 19.0701 52.8108 19.1029 52.8558 19.1491C52.9008 19.1952 52.9321 19.253 52.9462 19.3159C52.9462 19.3963 54.6629 27.5306 55.2262 29.3748C55.4927 30.0236 55.8744 30.6188 56.3529 31.1317C58.3218 33.4677 59.589 36.3136 60.0076 39.3398C60.8727 44.3827 59.2699 56.0377 58.4116 62.2943C58.1299 64.3061 57.9153 65.9021 57.9153 66.3179C57.9153 67.2836 58.0696 67.4378 58.8274 68.2023C59.4905 68.87 60.1173 69.573 60.705 70.3079C62.2675 72.2661 67.3305 79.1129 66.6934 85.061C66.2777 88.9103 63.5215 93.1685 60.2825 94.9657C59.2435 95.5823 58.0636 95.9218 56.8558 95.9515ZM46.931 27.4435C47.3467 28.2012 48.8153 30.9641 49.1506 32.4931C49.6134 34.5518 49.5463 36.8922 45.9921 40.0708C42.438 43.2494 39.4539 47.8765 40.3659 50.8003L40.8017 52.1817C41.8948 55.5884 43.7188 61.2884 44.3827 66.1301C44.832 69.3624 44.4498 73.5067 44.1078 77.1145C43.8338 79.1544 43.7284 81.2134 43.7926 83.2705C44.1681 86.4291 48.5739 91.881 54.2941 94.6707C55.1857 95.1024 56.171 95.3046 57.1606 95.2589C58.1501 95.2132 59.1126 94.9211 59.9606 94.4091C63.3136 92.5382 65.6942 88.1592 66.0295 85.0208C66.6398 79.3274 61.7109 72.6684 60.1887 70.7572C59.6165 70.0509 59.003 69.3791 58.3512 68.7454C57.5733 67.9474 57.2515 67.6256 57.2515 66.385C57.2515 65.929 57.4526 64.4738 57.7544 62.2742C58.6061 56.0511 60.2021 44.4699 59.3571 39.5276C58.9761 36.6012 57.7635 33.8456 55.8633 31.5877C55.3226 31.0044 54.9012 30.321 54.6227 29.576C54.1399 27.9866 52.906 22.1994 52.4701 20.1474L46.931 27.4435Z" fill="var(--fill-0, #263238)"/>
<path id="Vector_14" d="M57.513 33.3045C56.3864 31.5006 55.2598 30.6221 54.9312 29.5156C54.3612 27.6044 52.6445 19.3964 52.6445 19.3964L46.5353 27.41C46.5353 27.41 48.4465 30.8501 48.8288 32.5669C49.1373 33.9684 49.3183 35.7455 47.4138 38.1127L57.513 33.3045Z" fill="var(--fill-0, white)"/>
<path id="Vector_15" d="M47.4138 38.448C47.351 38.4477 47.2895 38.4297 47.2363 38.3962C47.1832 38.3626 47.1405 38.3148 47.1133 38.2581C47.086 38.2015 47.0752 38.1384 47.0821 38.0759C47.089 38.0134 47.1133 37.9541 47.1523 37.9048C48.9696 35.6449 48.802 34.0019 48.4935 32.6406C48.1247 30.991 46.2537 27.6112 46.2336 27.5776C46.1991 27.5223 46.1808 27.4584 46.1808 27.3932C46.1808 27.328 46.1991 27.2641 46.2336 27.2088L52.3427 19.1617C52.3819 19.1103 52.4348 19.0711 52.4953 19.0485C52.5558 19.026 52.6215 19.021 52.6847 19.0343C52.7472 19.05 52.8041 19.0828 52.8491 19.129C52.8941 19.1752 52.9254 19.2329 52.9396 19.2958C52.9396 19.3763 54.6563 27.5106 55.2196 29.3547C55.4861 30.0035 55.8677 30.5988 56.3462 31.1117C56.8561 31.7359 57.3286 32.3897 57.7611 33.0698C57.7869 33.1089 57.8039 33.1532 57.8109 33.1995C57.8178 33.2458 57.8146 33.2931 57.8014 33.338C57.7881 33.3837 57.765 33.426 57.7337 33.4619C57.7024 33.4978 57.6637 33.5265 57.6203 33.5459L47.5278 38.3541C47.4984 38.3946 47.4592 38.4269 47.4138 38.448ZM46.931 27.4435C47.3468 28.2013 48.8154 30.9641 49.1507 32.4931C49.3708 33.2942 49.4201 34.1327 49.2953 34.954C49.1706 35.7754 48.8745 36.5614 48.4264 37.261L57.0235 33.1637C56.6144 32.5534 56.212 32.0438 55.8566 31.5945C55.3178 31.0097 54.8967 30.3267 54.616 29.5827C54.1332 27.9934 52.8993 22.2062 52.4634 20.1541L46.931 27.4435Z" fill="var(--fill-0, #263238)"/>
<path id="Vector_16" d="M39.6618 13.6694C39.434 14.4113 39.37 15.1938 39.474 15.9628C39.6618 17.1028 40.4262 17.4851 39.474 18.444C38.5217 19.403 36.9928 20.1608 37.7573 20.7308C38.4878 21.2299 39.2518 21.678 40.044 22.072C40.044 22.072 40.6207 26.8466 41.3852 28.1811C42.1497 29.5156 44.8186 29.14 46.5354 28.3756C48.2521 27.6111 52.2622 25.5121 53.2413 23.6009C54.2204 21.6897 55.5348 16.734 55.1525 14.2461C54.7703 11.7582 48.6612 9.09593 45.2277 9.09593C41.7943 9.09593 39.2795 11.0004 39.6618 13.6694Z" fill="var(--fill-0, white)"/>
<path id="Vector_17" d="M43.4573 29.4016C43.004 29.4531 42.5452 29.3819 42.1288 29.1955C41.7124 29.0092 41.3537 28.7144 41.0901 28.3421C40.3793 27.1015 39.8495 23.1852 39.7489 22.3067C38.993 21.9295 38.2647 21.4993 37.5695 21.0192C37.4683 20.955 37.3842 20.8671 37.3247 20.7631C37.2651 20.6591 37.2317 20.5421 37.2275 20.4224C37.2275 19.9127 37.7371 19.4969 38.3943 18.9672C38.6894 18.7258 38.9911 18.4843 39.2527 18.2228C39.7489 17.7266 39.6684 17.5522 39.4538 16.9956C39.3144 16.6901 39.2152 16.3678 39.1588 16.0367C39.0492 15.2419 39.1086 14.433 39.3331 13.6628C39.261 13.1295 39.3046 12.587 39.4608 12.0721C39.617 11.5572 39.8822 11.0819 40.2385 10.6786C40.8874 10.0293 41.666 9.52411 42.5233 9.19595C43.3807 8.8678 44.2976 8.72406 45.2143 8.77412C48.6745 8.77412 55.0452 11.4565 55.4677 14.2126C55.8499 16.6871 54.5557 21.7166 53.5296 23.7686C52.3293 26.1627 46.9176 28.5902 46.6829 28.6908C45.6649 29.1375 44.5688 29.379 43.4573 29.4016ZM45.2009 9.4246C43.283 9.4246 41.6534 10.0348 40.728 11.1011C40.429 11.4422 40.2085 11.8449 40.0822 12.2806C39.9559 12.7162 39.9268 13.1744 39.997 13.6225C40.0073 13.6734 40.0073 13.7259 39.997 13.7768C39.7847 14.4641 39.723 15.1892 39.816 15.9025C39.8708 16.1837 39.9562 16.4581 40.0708 16.7207C40.2629 17.033 40.3335 17.4051 40.2692 17.7661C40.2049 18.1271 40.0102 18.4519 39.7221 18.6788C39.4346 18.9564 39.1324 19.2183 38.8168 19.4634C38.4479 19.7652 37.8914 20.2078 37.8981 20.3888C37.9155 20.4197 37.941 20.4452 37.9718 20.4626C38.6877 20.9491 39.436 21.386 40.2116 21.7703C40.2615 21.795 40.3042 21.8319 40.3359 21.8777C40.3676 21.9234 40.3871 21.9764 40.3927 22.0318C40.3927 22.0787 40.9627 26.726 41.6869 28.0068C42.3575 29.1334 44.8387 28.7579 46.4146 28.0604C48.2856 27.2289 52.0543 25.1903 52.9261 23.4467C53.7979 21.7032 55.1793 16.7408 54.8038 14.2931C54.4551 12.0802 48.6142 9.4246 45.2009 9.4246Z" fill="var(--fill-0, #263238)"/>
<path id="Vector_18" d="M42.2301 18.605C42.5079 18.605 42.7331 18.0916 42.7331 17.4583C42.7331 16.825 42.5079 16.3115 42.2301 16.3115C41.9524 16.3115 41.7272 16.825 41.7272 17.4583C41.7272 18.0916 41.9524 18.605 42.2301 18.605Z" fill="var(--fill-0, #263238)"/>
<path id="Vector_19" d="M43.5109 16.1709C43.4479 16.1718 43.386 16.1546 43.3325 16.1213C43.279 16.088 43.2362 16.04 43.2092 15.9831C43.1118 15.7156 42.9559 15.4732 42.7529 15.2736C42.5499 15.0741 42.3048 14.9224 42.0356 14.8297C41.6705 14.779 41.2999 14.8728 41.0029 15.0912C40.9693 15.1196 40.9303 15.1409 40.8883 15.1539C40.8463 15.167 40.8021 15.1714 40.7583 15.1671C40.7145 15.1627 40.672 15.1495 40.6334 15.1285C40.5948 15.1074 40.5608 15.0787 40.5335 15.0443C40.5051 15.0106 40.4838 14.9717 40.4707 14.9296C40.4577 14.8876 40.4533 14.8434 40.4576 14.7996C40.462 14.7558 40.4752 14.7134 40.4962 14.6748C40.5173 14.6362 40.546 14.6022 40.5804 14.5748C40.8031 14.399 41.0604 14.2723 41.3354 14.203C41.6105 14.1336 41.8971 14.1232 42.1765 14.1725C42.545 14.2834 42.8834 14.4769 43.1658 14.7384C43.4482 14.9999 43.6671 15.3224 43.806 15.6813C43.8267 15.7209 43.8394 15.7641 43.8432 15.8086C43.847 15.8531 43.8419 15.8979 43.8281 15.9404C43.8144 15.9828 43.7923 16.0221 43.7632 16.0559C43.734 16.0898 43.6984 16.1174 43.6585 16.1373C43.6119 16.1579 43.5618 16.1693 43.5109 16.1709Z" fill="var(--fill-0, #263238)"/>
<path id="Vector_20" d="M42.1161 23.7285H41.8613C41.7735 23.7216 41.692 23.6805 41.6342 23.614C41.5765 23.5475 41.5473 23.461 41.5528 23.3731C41.5613 23.2854 41.6026 23.2041 41.6686 23.1456C41.7345 23.0871 41.8201 23.0558 41.9082 23.0579C41.9082 23.0579 44.0139 23.1853 44.2956 21.7905C44.3036 21.7476 44.32 21.7067 44.344 21.6703C44.368 21.6338 44.399 21.6025 44.4352 21.5782C44.4714 21.5538 44.5121 21.5369 44.5549 21.5285C44.5977 21.52 44.6418 21.5202 44.6845 21.5289C44.7283 21.537 44.77 21.5536 44.8072 21.578C44.8445 21.6023 44.8765 21.6338 44.9015 21.6706C44.9265 21.7074 44.9439 21.7488 44.9527 21.7924C44.9614 21.836 44.9615 21.881 44.9528 21.9246C44.6577 23.3664 43.122 23.7285 42.1161 23.7285Z" fill="var(--fill-0, #263238)"/>
<path id="Vector_21" d="M45.5294 10.4172C45.5294 10.4172 44.3693 13.5958 47.2663 17.0695C50.1633 20.5432 54.207 18.2229 54.207 18.2229C54.207 18.2229 50.7735 23.4603 53.2145 23.5877C55.6554 23.7151 58.7737 21.4954 58.8072 15.6612C58.8408 9.82705 52.7652 5.48159 45.5294 10.4172Z" fill="var(--fill-0, #263238)"/>
<path id="Vector_22" d="M53.4157 23.9363H53.181C52.966 23.9429 52.7536 23.8892 52.5675 23.7813C52.3815 23.6735 52.2293 23.5158 52.1281 23.3261C51.6118 22.3001 52.6579 20.1743 53.362 18.9404C52.2612 19.3757 51.0507 19.4505 49.9047 19.1541C48.7587 18.8576 47.7363 18.2052 46.9847 17.2907C44.0072 13.7097 45.1472 10.4439 45.1942 10.3098C45.2187 10.2424 45.2631 10.1839 45.3216 10.1422C48.7818 7.79509 52.3829 7.30555 55.2061 8.80098C56.4242 9.47834 57.4333 10.4766 58.1237 11.6873C58.8142 12.8979 59.1596 14.2747 59.1224 15.6679C59.1224 19.4836 57.7812 21.5088 56.715 22.5348C55.8308 23.4006 54.6527 23.9011 53.4157 23.9363ZM54.207 17.901C54.268 17.8987 54.3285 17.9135 54.3816 17.9437C54.4347 17.9739 54.4783 18.0183 54.5076 18.072C54.5368 18.1256 54.5506 18.1863 54.5472 18.2473C54.5439 18.3084 54.5236 18.3672 54.4886 18.4173C53.6034 19.7585 52.3427 22.2263 52.7518 23.0243C52.7987 23.1182 52.8993 23.2523 53.2346 23.2657C53.7963 23.281 54.3553 23.1819 54.8775 22.9744C55.3998 22.7668 55.8743 22.4553 56.2724 22.0587C57.2649 21.1265 58.4518 19.2623 58.472 15.6746C58.5067 14.4041 58.1933 13.1483 57.5657 12.0431C56.938 10.9379 56.02 10.0255 54.9111 9.40452C52.3427 8.06333 49.03 8.48581 45.8111 10.6384C45.6502 11.1883 45.0399 13.8841 47.5211 16.8615C50.2035 20.0804 54.0058 17.9613 54.0393 17.9412C54.0908 17.9129 54.1482 17.8968 54.207 17.8943V17.901Z" fill="var(--fill-0, #263238)"/>
<path id="Vector_23" d="M40.044 10.0416C40.044 10.0416 28.2147 11.1883 29.5492 12.335C30.8837 13.4817 36.4161 13.6762 39.6617 13.6762C42.0464 13.5755 44.4033 13.1236 46.6561 12.335L40.044 10.0416Z" fill="var(--fill-0, #FFF386)"/>
<path id="Vector_24" d="M39.6617 14.0048C36.4227 14.0048 30.7696 13.8238 29.3278 12.5899C29.2374 12.5245 29.1699 12.4323 29.135 12.3263C29.1001 12.2204 29.0995 12.1061 29.1334 11.9998C29.4821 10.8866 36.1009 10.0886 40.0171 9.71302C40.0613 9.70272 40.1072 9.70272 40.1513 9.71302L46.7633 11.9662C46.8289 11.9894 46.8858 12.0319 46.9265 12.0882C46.9672 12.1445 46.9898 12.2119 46.9913 12.2814C46.9908 12.351 46.9694 12.4189 46.93 12.4762C46.8906 12.5336 46.8348 12.5779 46.77 12.6033C44.4835 13.4215 42.0877 13.8939 39.6617 14.0048ZM29.8509 12.1406C30.9104 12.8916 34.5451 13.3342 39.6617 13.3342C41.6802 13.2585 43.6789 12.9088 45.6032 12.2948L40.0037 10.3836C35.504 10.8463 30.6556 11.5773 29.8509 12.1406Z" fill="var(--fill-0, #263238)"/>
<path id="Vector_25" d="M40.044 10.0416L59.1358 17.4852C59.1358 17.4852 61.2348 11.5705 60.477 7.75486C59.7192 3.93917 54.5557 0.499017 49.4055 0.499017C44.2553 0.499017 41.0029 3.17469 40.044 10.0416Z" fill="var(--fill-0, #FFF386)"/>
<path id="Vector_26" d="M59.1358 17.8205C59.0937 17.8275 59.0506 17.8275 59.0084 17.8205L39.9233 10.3769C39.8542 10.3471 39.7966 10.2957 39.7591 10.2304C39.7217 10.1651 39.7063 10.0895 39.7154 10.0148C40.6475 3.30882 43.7389 0.183857 49.3988 0.183857C54.6697 0.183857 59.9942 3.69778 60.7989 7.70794C61.5701 11.5706 59.5382 17.3779 59.4577 17.6193C59.442 17.6622 59.4179 17.7015 59.3868 17.7349C59.3557 17.7683 59.3183 17.7951 59.2767 17.8138C59.2309 17.8271 59.1826 17.8294 59.1358 17.8205ZM40.4396 9.82701L58.9548 17.0493C59.3705 15.7618 60.8056 11.014 60.1686 7.82194C59.4242 4.10013 54.4014 0.834336 49.439 0.834336C44.195 0.834336 41.3315 3.69107 40.4396 9.82701Z" fill="var(--fill-0, #263238)"/>
<path id="Vector_27" d="M52.6445 14.6217L53.5967 0.311231L55.3135 0.881241L54.3612 15.1985L52.6445 14.6217Z" fill="var(--fill-0, white)"/>
<path id="Vector_28" d="M54.3612 15.5404C54.3257 15.5469 54.2894 15.5469 54.2539 15.5404L52.5372 14.9704C52.466 14.9478 52.4046 14.9017 52.3631 14.8395C52.3217 14.7773 52.3026 14.7029 52.3092 14.6284L53.2614 0.311215C53.265 0.260314 53.2802 0.210903 53.3057 0.166743C53.3313 0.122583 53.3666 0.0848454 53.409 0.056396C53.4521 0.0283218 53.501 0.0101541 53.552 0.00319732C53.603 -0.00375943 53.6549 0.000669022 53.704 0.0161619L55.4207 0.592874C55.4914 0.614144 55.5527 0.65906 55.5942 0.720105C55.6357 0.78115 55.6549 0.854613 55.6487 0.928172L54.6965 15.2454C54.6945 15.2967 54.68 15.3467 54.6543 15.3911C54.6286 15.4355 54.5925 15.473 54.549 15.5002C54.4921 15.5328 54.4265 15.5469 54.3612 15.5404ZM53.02 14.3937L54.0796 14.7491L54.9916 1.12264L53.932 0.773928L53.02 14.3937Z" fill="var(--fill-0, #263238)"/>
<path id="Vector_29" d="M57.2045 17.6796C57.2045 16.8838 56.9686 16.1059 56.5264 15.4442C56.0843 14.7825 55.4559 14.2668 54.7207 13.9623C53.9855 13.6578 53.1765 13.5781 52.396 13.7333C51.6155 13.8886 50.8986 14.2718 50.3359 14.8345C49.7732 15.3972 49.39 16.1141 49.2347 16.8946C49.0795 17.6751 49.1591 18.4841 49.4637 19.2193C49.7682 19.9546 50.2839 20.583 50.9456 21.0251C51.6072 21.4672 52.3852 21.7032 53.181 21.7032C54.2481 21.7032 55.2715 21.2793 56.0261 20.5247C56.7806 19.7701 57.2045 18.7467 57.2045 17.6796Z" fill="var(--fill-0, white)"/>
<path id="Vector_30" d="M53.2145 22.0251C52.355 22.0251 51.5149 21.7702 50.8003 21.2927C50.0857 20.8152 49.5287 20.1366 49.1998 19.3425C48.8709 18.5485 48.7849 17.6748 48.9525 16.8318C49.1202 15.9889 49.5341 15.2146 50.1418 14.6069C50.7495 13.9992 51.5238 13.5853 52.3667 13.4176C53.2097 13.25 54.0834 13.336 54.8774 13.6649C55.6715 13.9938 56.3501 14.5508 56.8276 15.2654C57.3051 15.98 57.56 16.8202 57.56 17.6796C57.56 18.8321 57.1021 19.9374 56.2872 20.7523C55.4723 21.5672 54.367 22.0251 53.2145 22.0251ZM53.2145 13.9779C52.4877 13.9779 51.7772 14.1934 51.1728 14.5972C50.5685 15.001 50.0975 15.575 49.8194 16.2465C49.5412 16.918 49.4684 17.6569 49.6102 18.3697C49.752 19.0826 50.102 19.7374 50.616 20.2513C51.1299 20.7652 51.7847 21.1152 52.4976 21.257C53.2104 21.3988 53.9493 21.3261 54.6208 21.0479C55.2923 20.7698 55.8662 20.2987 56.27 19.6944C56.6738 19.0901 56.8894 18.3796 56.8894 17.6528C56.8823 16.6828 56.492 15.755 55.8036 15.0716C55.1152 14.3882 54.1845 14.0047 53.2145 14.0047V13.9779Z" fill="var(--fill-0, #263238)"/>
<path id="Vector_31" d="M55.3738 17.6796C55.3738 17.2525 55.2471 16.8351 55.0099 16.48C54.7726 16.1249 54.4353 15.8481 54.0408 15.6847C53.6462 15.5212 53.2121 15.4785 52.7932 15.5618C52.3743 15.6451 51.9896 15.8508 51.6876 16.1527C51.3856 16.4547 51.18 16.8395 51.0966 17.2584C51.0133 17.6772 51.0561 18.1114 51.2195 18.5059C51.3829 18.9005 51.6597 19.2377 52.0148 19.475C52.3699 19.7123 52.7874 19.8389 53.2145 19.8389C53.498 19.8389 53.7788 19.7831 54.0408 19.6746C54.3028 19.566 54.5408 19.407 54.7413 19.2065C54.9418 19.006 55.1009 18.7679 55.2094 18.5059C55.3179 18.244 55.3738 17.9632 55.3738 17.6796Z" fill="var(--fill-0, white)"/>
<path id="Vector_32" d="M53.2145 20.1742C52.7211 20.1742 52.2388 20.0279 51.8286 19.7538C51.4183 19.4797 51.0986 19.0901 50.9098 18.6343C50.721 18.1784 50.6716 17.6768 50.7678 17.1929C50.8641 16.709 51.1017 16.2645 51.4505 15.9157C51.7994 15.5668 52.2439 15.3292 52.7278 15.2329C53.2117 15.1367 53.7133 15.1861 54.1691 15.3749C54.625 15.5637 55.0146 15.8834 55.2887 16.2937C55.5628 16.7039 55.7091 17.1862 55.7091 17.6796C55.7073 18.3407 55.444 18.9742 54.9765 19.4416C54.5091 19.9091 53.8756 20.1725 53.2145 20.1742ZM53.2145 15.8556C52.8537 15.8556 52.5011 15.9626 52.2011 16.163C51.9012 16.3634 51.6674 16.6483 51.5293 16.9816C51.3913 17.3149 51.3551 17.6816 51.4255 18.0355C51.4959 18.3893 51.6696 18.7143 51.9247 18.9694C52.1798 19.2245 52.5048 19.3982 52.8586 19.4686C53.2125 19.539 53.5792 19.5028 53.9125 19.3648C54.2458 19.2267 54.5307 18.9929 54.7311 18.693C54.9315 18.393 55.0385 18.0404 55.0385 17.6796C55.0385 17.1959 54.8463 16.7319 54.5043 16.3898C54.1622 16.0478 53.6983 15.8556 53.2145 15.8556Z" fill="var(--fill-0, #263238)"/>
<path id="Vector_33" d="M54.3612 88.1123C54.3612 88.1123 56.4602 103.536 58.3848 112.16C60.3094 120.784 64.4939 128.764 66.3984 129.723C68.3029 130.682 78.4222 132.204 86.248 133.344C94.0739 134.484 106.674 135.255 106.674 135.255C106.674 135.255 108.391 141.17 108.391 143.651C108.391 146.132 107.439 149.19 108.961 149.378C110.483 149.566 112.783 144.415 113.354 142.129C113.924 139.842 114.118 134.303 114.695 132.204C115.271 130.105 115.077 129.723 112.596 129.522C110.115 129.32 108.016 129.522 106.299 129.139C104.582 128.757 95.0395 127.04 90.4594 124.371C85.8792 121.702 77.4565 121.495 76.3098 121.495H73.0641C73.0641 121.495 71.5419 108.894 71.5419 104.314C71.5419 99.7337 71.7296 89.9967 68.8595 83.5254C65.9893 77.0542 62.7571 74.5528 61.8048 74.5528" fill="var(--fill-0, #263238)"/>
<path id="Vector_34" d="M109.028 149.72H108.907C107.499 149.546 107.687 147.748 107.888 145.851C107.962 145.12 108.042 144.362 108.042 143.658C108.042 141.525 106.701 136.684 106.406 135.611C104.629 135.497 93.3496 134.759 86.1876 133.713C76.9066 132.372 68.0816 130.97 66.2374 130.051C64.0915 128.978 59.8869 120.562 58.0427 112.267C56.1517 103.764 54.0527 88.3403 54.0192 88.186C54.0095 88.0983 54.0341 88.0103 54.0879 87.9403C54.1416 87.8703 54.2203 87.8238 54.3075 87.8105C54.3512 87.8039 54.3958 87.8062 54.4386 87.8173C54.4814 87.8283 54.5216 87.8479 54.5566 87.8748C54.5917 87.9017 54.621 87.9355 54.6427 87.974C54.6644 88.0125 54.6781 88.0549 54.6831 88.0989C54.6831 88.2531 56.8088 103.643 58.7066 112.12C60.6178 120.73 64.742 128.569 66.5459 129.454C68.5577 130.447 80.5278 132.204 86.2949 133.049C94.0135 134.182 106.56 134.947 106.688 134.953C106.756 134.959 106.821 134.986 106.875 135.028C106.929 135.071 106.969 135.129 106.99 135.195C107.057 135.443 108.72 141.19 108.72 143.685C108.706 144.442 108.652 145.199 108.559 145.951C108.371 147.782 108.297 148.996 109.001 149.083C110.094 149.197 112.354 144.751 113.025 142.082C113.342 140.457 113.566 138.816 113.695 137.166C113.809 135.479 114.033 133.801 114.366 132.144C114.607 131.265 114.715 130.668 114.527 130.393C114.339 130.118 113.588 129.978 112.562 129.897C111.536 129.817 110.705 129.81 109.833 129.79C108.622 129.818 107.411 129.723 106.218 129.508L105.313 129.32C102.322 128.71 94.3689 127.087 90.2783 124.7C85.5036 121.917 76.4171 121.883 76.3232 121.883H73.0775C72.9963 121.882 72.9182 121.852 72.8578 121.798C72.7973 121.743 72.7586 121.669 72.7489 121.588C72.7489 121.461 71.2199 108.914 71.2199 104.368V103.523C71.2199 98.701 71.22 89.7284 68.5711 83.6662C65.6339 76.9938 62.4553 74.8948 61.8182 74.8948C61.7293 74.8948 61.644 74.8595 61.5811 74.7966C61.5182 74.7338 61.4829 74.6485 61.4829 74.5595C61.4829 74.4706 61.5182 74.3853 61.5811 74.3224C61.644 74.2596 61.7293 74.2243 61.8182 74.2243C62.9783 74.2243 66.3246 76.9066 69.1948 83.3913C71.9241 89.5876 71.8771 98.654 71.8771 103.509V104.321C71.8771 108.445 73.1379 119.241 73.3659 121.166H76.3098C76.4036 121.166 85.6981 121.199 90.6069 124.076C94.5969 126.403 102.47 128.013 105.434 128.616L106.352 128.804C107.501 129.009 108.667 129.099 109.833 129.072C110.711 129.072 111.617 129.106 112.602 129.18C113.91 129.28 114.688 129.434 115.057 129.964C115.426 130.494 115.312 131.131 115.003 132.278C114.67 133.897 114.446 135.537 114.333 137.186C114.212 138.868 113.988 140.541 113.662 142.196C113.199 144.06 110.959 149.72 109.028 149.72Z" fill="var(--fill-0, #263238)"/>
<path id="Vector_35" d="M86.4023 128.569H86.3218L83.6394 127.899C83.5965 127.889 83.5558 127.871 83.5201 127.846C83.4844 127.82 83.4543 127.787 83.4317 127.75C83.409 127.712 83.3944 127.67 83.3886 127.627C83.3828 127.583 83.386 127.539 83.398 127.496C83.4074 127.453 83.4254 127.412 83.451 127.376C83.4765 127.341 83.509 127.31 83.5465 127.287C83.5841 127.264 83.6259 127.248 83.6695 127.242C83.7131 127.235 83.7576 127.237 83.8004 127.248L86.4827 127.919C86.5681 127.942 86.641 127.998 86.686 128.075C86.7311 128.151 86.7447 128.242 86.7242 128.328C86.7048 128.398 86.6628 128.46 86.6045 128.504C86.5462 128.547 86.4751 128.57 86.4023 128.569Z" fill="var(--fill-0, white)"/>
<path id="Vector_36" d="M80.7089 127.175H80.6284L72.0649 125.076C71.8197 125.215 71.5459 125.295 71.2644 125.312C70.983 125.328 70.7016 125.279 70.4421 125.169C70.2022 124.998 70.0133 124.764 69.8953 124.494C69.7772 124.224 69.7344 123.926 69.7715 123.634C69.7715 122.896 69.5368 120.328 69.2417 117.069C68.665 110.718 67.9005 102.014 67.9005 97.0447C67.9005 94.0605 66.8812 90.1375 64.9499 85.6982C64.9192 85.6171 64.921 85.5273 64.9551 85.4476C64.9892 85.3679 65.0528 85.3045 65.1326 85.2707C65.2124 85.2368 65.3022 85.2352 65.3831 85.2662C65.4641 85.2971 65.5299 85.3582 65.5668 85.4366C67.5786 90.0168 68.5711 93.9264 68.5711 97.0447C68.5711 101.98 69.3624 110.671 69.9123 117.008C70.2208 120.408 70.4421 122.863 70.4421 123.634C70.4421 123.982 70.4957 124.432 70.764 124.586C71.0322 124.74 71.6625 124.526 71.8436 124.425L71.9576 124.365L80.7759 126.524C80.8649 126.535 80.9459 126.58 81.0013 126.651C81.0566 126.721 81.0817 126.811 81.071 126.9C81.0603 126.988 81.0148 127.07 80.9443 127.125C80.8739 127.18 80.7844 127.205 80.6955 127.195L80.7089 127.175Z" fill="var(--fill-0, white)"/>
<path id="Vector_37" d="M64.0446 83.2706C63.9814 83.2724 63.9191 83.2555 63.8654 83.2221C63.8118 83.1888 63.7691 83.1403 63.7428 83.0828C62.6229 80.8162 61.731 79.2873 61.6975 79.2739C61.6744 79.2361 61.659 79.194 61.6522 79.1503C61.6454 79.1065 61.6474 79.0618 61.658 79.0187C61.6686 78.9757 61.6876 78.9352 61.714 78.8996C61.7403 78.8639 61.7735 78.8339 61.8115 78.8112C61.8873 78.7666 61.9775 78.7535 62.0628 78.7749C62.1481 78.7962 62.2216 78.8501 62.2675 78.9251C62.2675 78.9251 63.2131 80.4876 64.3397 82.7878C64.3794 82.867 64.3862 82.9587 64.3586 83.0429C64.3309 83.1271 64.2711 83.1969 64.1921 83.2371C64.1454 83.257 64.0954 83.2684 64.0446 83.2706Z" fill="var(--fill-0, white)"/>
<path id="Vector_38" d="M112.576 129.542C110.094 129.354 107.995 129.542 106.279 129.159C104.562 128.777 95.0194 127.06 90.4392 124.392C89.5662 123.898 88.6449 123.496 87.6898 123.191C88.0612 125.381 87.8909 127.628 87.1936 129.736C86.7237 130.944 86.1795 132.122 85.564 133.263L86.2346 133.357C94.0605 134.504 106.661 135.269 106.661 135.269C106.661 135.269 108.378 141.183 108.378 143.664C108.378 146.146 107.425 149.204 108.948 149.391C110.47 149.579 112.77 144.429 113.34 142.142C113.91 139.855 114.105 134.316 114.681 132.217C115.258 130.118 115.057 129.723 112.576 129.542Z" fill="var(--fill-0, white)"/>
<path id="Vector_39" d="M109.028 149.72H108.907C107.499 149.546 107.687 147.748 107.888 145.851C107.962 145.12 108.042 144.362 108.042 143.658C108.042 141.525 106.701 136.683 106.406 135.611C104.629 135.497 93.3496 134.759 86.1877 133.713L85.5171 133.612C85.4637 133.606 85.4129 133.586 85.3695 133.554C85.326 133.522 85.2914 133.48 85.269 133.431C85.2443 133.383 85.2314 133.331 85.2314 133.277C85.2314 133.223 85.2443 133.17 85.269 133.123C85.8792 131.993 86.4168 130.826 86.8784 129.629C87.5683 127.579 87.7321 125.388 87.3545 123.258C87.3473 123.201 87.3546 123.143 87.3756 123.09C87.3967 123.037 87.4308 122.989 87.4749 122.953C87.519 122.916 87.5716 122.891 87.6279 122.88C87.6842 122.869 87.7424 122.872 87.7971 122.889C88.7736 123.203 89.7152 123.617 90.6069 124.123C94.5969 126.45 102.47 128.06 105.434 128.663L106.352 128.851C107.501 129.056 108.667 129.146 109.833 129.119C110.711 129.119 111.617 129.153 112.602 129.226C113.91 129.327 114.688 129.481 115.057 130.011C115.426 130.541 115.312 131.178 115.003 132.325C114.67 133.944 114.446 135.584 114.333 137.233C114.212 138.915 113.988 140.588 113.662 142.243C113.199 144.06 110.959 149.72 109.028 149.72ZM86.0871 132.989H86.2883C94.0068 134.122 106.554 134.886 106.681 134.893C106.75 134.899 106.815 134.925 106.868 134.968C106.922 135.011 106.962 135.069 106.983 135.134C107.05 135.383 108.713 141.13 108.713 143.624C108.699 144.382 108.645 145.139 108.552 145.891C108.364 147.721 108.291 148.935 108.995 149.022C110.088 149.136 112.348 144.69 113.018 142.021C113.335 140.397 113.559 138.756 113.689 137.106C113.802 135.419 114.026 133.741 114.359 132.083C114.601 131.205 114.708 130.608 114.52 130.333C114.333 130.058 113.582 129.917 112.555 129.837C111.59 129.763 110.698 129.75 109.826 129.729C108.615 129.757 107.404 129.663 106.212 129.448L105.306 129.26C102.316 128.65 94.3622 127.027 90.2716 124.64C89.576 124.243 88.8467 123.909 88.0922 123.64C88.3983 125.716 88.1982 127.835 87.5087 129.817C87.0916 130.898 86.6171 131.957 86.0871 132.989Z" fill="var(--fill-0, #263238)"/>
<path id="Vector_40" d="M112.576 129.542C111.905 129.495 111.315 129.468 110.718 129.455C110.803 129.797 110.85 130.148 110.859 130.501C110.859 132.023 109.712 134.699 108.378 134.699C107.043 134.699 106.661 135.269 106.661 135.269C106.661 135.269 108.378 141.183 108.378 143.664C108.378 146.146 107.425 149.204 108.948 149.391C110.47 149.579 112.77 144.429 113.34 142.142C113.91 139.856 114.105 134.316 114.681 132.217C115.258 130.118 115.057 129.723 112.576 129.542Z" fill="var(--fill-0, #FFF386)"/>
<path id="Vector_41" d="M109.028 149.72H108.907C107.499 149.545 107.687 147.748 107.888 145.851C107.962 145.12 108.042 144.362 108.042 143.658C108.042 141.257 106.352 135.416 106.339 135.356C106.326 135.309 106.322 135.259 106.329 135.211C106.336 135.162 106.353 135.116 106.379 135.074C106.433 135 106.902 134.357 108.391 134.357C109.457 134.357 110.537 131.875 110.537 130.494C110.527 130.166 110.482 129.84 110.403 129.522C110.393 129.472 110.394 129.421 110.407 129.372C110.42 129.323 110.444 129.278 110.477 129.24C110.506 129.198 110.545 129.165 110.591 129.143C110.637 129.12 110.687 129.11 110.738 129.112C111.476 129.112 112.079 129.159 112.616 129.2C113.924 129.3 114.701 129.454 115.07 129.984C115.439 130.514 115.325 131.151 115.017 132.298C114.684 133.917 114.46 135.557 114.346 137.207C114.225 138.888 114.001 140.561 113.675 142.216C113.199 144.06 110.959 149.72 109.028 149.72ZM107.016 135.356C107.318 136.415 108.693 141.391 108.693 143.651C108.679 144.409 108.625 145.165 108.532 145.918C108.344 147.748 108.27 148.962 108.975 149.049C110.068 149.163 112.328 144.717 112.998 142.048C113.315 140.424 113.539 138.783 113.669 137.133C113.782 135.446 114.006 133.768 114.339 132.11C114.581 131.232 114.688 130.635 114.5 130.36C114.312 130.085 113.561 129.944 112.535 129.864C112.1 129.83 111.65 129.803 111.114 129.79C111.155 130.011 111.178 130.235 111.181 130.46C111.181 132.009 109.994 134.994 108.364 134.994C107.894 134.97 107.429 135.097 107.036 135.356H107.016Z" fill="var(--fill-0, #263238)"/>
<path id="Vector_42" d="M114.675 132.224C115.157 130.467 115.097 129.91 113.615 129.669C113.253 132.452 112.193 139.835 111.141 143.262C110.528 145.104 109.484 146.773 108.096 148.131C108.15 148.841 108.371 149.331 108.948 149.398C110.477 149.592 112.77 144.436 113.34 142.149C113.91 139.862 114.105 134.303 114.675 132.224Z" fill="var(--fill-0, #263238)"/>
<path id="Vector_43" d="M109.028 149.72H108.907C108.237 149.633 107.835 149.103 107.761 148.144V147.99L107.868 147.883C109.218 146.563 110.232 144.94 110.825 143.148C112.006 139.326 113.159 130.595 113.286 129.609L113.333 129.267L113.675 129.32C113.945 129.326 114.211 129.389 114.455 129.504C114.699 129.62 114.915 129.786 115.09 129.991C115.406 130.487 115.305 131.171 115.01 132.264C114.677 133.884 114.453 135.524 114.339 137.173C114.218 138.855 113.994 140.528 113.669 142.182C113.199 144.06 110.959 149.72 109.028 149.72ZM108.445 148.238C108.539 148.989 108.84 149.029 108.995 149.049C110.088 149.163 112.348 144.717 113.018 142.048C113.335 140.424 113.559 138.783 113.689 137.133C113.802 135.446 114.026 133.768 114.359 132.11C114.594 131.252 114.708 130.662 114.527 130.38C114.366 130.198 114.144 130.079 113.903 130.045C113.649 131.989 112.562 139.762 111.469 143.343C110.855 145.187 109.819 146.863 108.445 148.238Z" fill="var(--fill-0, #263238)"/>
<path id="Vector_44" d="M23.4266 134.806C21.3546 140.779 18.7442 146.552 15.6276 152.054C14.6083 154.065 11.9997 153.965 8.92165 152.818C5.84362 151.671 0.532503 150.33 0.344737 151.671C0.15697 153.013 3.77819 156.634 5.87715 157.78C7.97611 158.927 10.8396 159.122 11.9863 160.262C13.133 161.402 14.8497 162.944 16.9487 162.361C19.0476 161.777 20.1944 154.535 22.1056 151.671C23.6546 149.351 27.5843 143.135 31.2592 137.81C28.438 137.48 25.7448 136.447 23.4266 134.806Z" fill="var(--fill-0, white)"/>
<path id="Vector_45" d="M16.0165 162.823C14.3333 162.823 12.9318 161.677 11.7516 160.496C11.1748 159.926 10.0415 159.591 8.83446 159.236C7.7588 158.954 6.71414 158.566 5.7162 158.076C3.74464 156.996 -0.218572 153.254 0.00943083 151.624C0.0292368 151.498 0.077585 151.378 0.150803 151.274C0.22402 151.169 0.320166 151.083 0.431899 151.021C1.91392 150.149 7.28539 151.839 9.04906 152.503C11.3291 153.355 14.2663 153.945 15.3124 151.899L15.7617 151.075C18.7032 145.846 21.1719 140.366 23.1383 134.699C23.1551 134.649 23.1833 134.605 23.2206 134.569C23.2579 134.533 23.3032 134.506 23.3529 134.491C23.4021 134.474 23.4548 134.469 23.5063 134.477C23.5578 134.485 23.6065 134.506 23.6479 134.538C25.9201 136.146 28.5608 137.156 31.3262 137.475C31.3835 137.485 31.4375 137.509 31.4841 137.544C31.5306 137.579 31.5684 137.624 31.5945 137.676C31.6221 137.726 31.6365 137.783 31.6365 137.84C31.6365 137.898 31.6221 137.954 31.5945 138.005C29.0462 141.7 26.3907 145.797 24.4459 148.788C23.6077 150.082 22.917 151.148 22.4341 151.859C21.5832 153.418 20.9084 155.066 20.4223 156.775C19.45 159.618 18.5313 162.3 17.123 162.683C16.7628 162.782 16.3902 162.829 16.0165 162.823ZM1.6725 151.423C1.36492 151.401 1.05661 151.454 0.773909 151.577C0.749419 151.589 0.72774 151.606 0.710376 151.627C0.693011 151.648 0.680367 151.672 0.673314 151.698C0.525783 152.731 3.78488 156.238 6.03808 157.465C6.99198 157.936 7.99202 158.307 9.02223 158.572C10.3165 158.947 11.5303 159.309 12.2277 160C13.4951 161.274 15.0442 162.508 16.8615 162.012C17.9277 161.717 18.8733 158.961 19.6981 156.526C20.2141 154.762 20.9272 153.061 21.8239 151.457C22.2933 150.753 22.984 149.686 23.8357 148.392C25.6999 145.522 28.2281 141.626 30.6892 138.045C28.1572 137.669 25.7405 136.734 23.6144 135.309C21.6679 140.873 19.2425 146.258 16.3653 151.403C16.1641 151.765 16.0098 152.04 15.9294 152.208C15.2252 153.549 13.4213 154.857 8.82776 153.127C6.35997 152.208 3.28193 151.443 1.6725 151.443V151.423Z" fill="var(--fill-0, #263238)"/>
<path id="Vector_46" d="M16.9688 162.361C18.0351 162.072 18.8599 160.054 19.6512 157.767C15.4533 157.566 15.4398 155.547 15.4398 154.152C15.4273 153.689 15.265 153.242 14.9771 152.878C13.7164 153.978 11.4833 153.77 8.94178 152.818C5.88386 151.671 0.539216 150.337 0.351449 151.671C0.163682 153.006 3.7849 156.634 5.88386 157.78C7.98283 158.927 10.8463 159.122 11.993 160.262C13.1397 161.402 14.8497 162.931 16.9688 162.361Z" fill="var(--fill-0, #FFF386)"/>
<path id="Vector_47" d="M16.0165 162.823C14.3333 162.823 12.9318 161.677 11.7516 160.496C11.1748 159.926 10.0415 159.591 8.83446 159.236C7.7588 158.954 6.71414 158.566 5.7162 158.075C3.74464 156.996 -0.218572 153.254 0.00943083 151.624C0.0292368 151.498 0.077585 151.378 0.150803 151.274C0.22402 151.169 0.320166 151.083 0.431899 151.021C1.91392 150.149 7.28539 151.839 9.04906 152.503C10.9133 153.173 13.4079 153.79 14.7491 152.63C14.7823 152.598 14.8226 152.574 14.8669 152.56C14.9112 152.546 14.9581 152.542 15.0039 152.55C15.0501 152.555 15.0948 152.57 15.1351 152.593C15.1755 152.616 15.2107 152.647 15.2386 152.684C15.5658 153.105 15.7492 153.62 15.7617 154.153C15.7617 155.527 15.7617 157.244 19.6512 157.432C19.7031 157.435 19.7537 157.45 19.799 157.475C19.8443 157.501 19.8832 157.536 19.9127 157.579C19.9423 157.623 19.9613 157.673 19.9683 157.725C19.9752 157.778 19.97 157.831 19.9529 157.881C18.9739 160.684 18.1826 162.374 17.0359 162.682C16.7037 162.774 16.361 162.821 16.0165 162.823ZM1.6725 151.423C1.36492 151.401 1.05661 151.454 0.773909 151.577C0.749419 151.589 0.72774 151.606 0.710376 151.627C0.693011 151.648 0.680367 151.672 0.673314 151.698C0.525783 152.731 3.78488 156.238 6.03808 157.465C6.99198 157.936 7.99202 158.307 9.02223 158.572C10.3165 158.947 11.5303 159.309 12.2277 160C13.4951 161.274 15.0442 162.508 16.8615 162.012C17.7936 161.757 18.652 159.524 19.175 158.049C15.0911 157.7 15.0911 155.474 15.0911 154.126C15.0862 153.85 15.0124 153.581 14.8765 153.341C13.589 154.186 11.5236 154.112 8.84117 153.1C6.35997 152.208 3.28193 151.443 1.6725 151.443V151.423Z" fill="var(--fill-0, #263238)"/>
<path id="Vector_48" d="M16.9688 162.361C17.3892 162.199 17.7434 161.902 17.9747 161.516C14.7424 160.698 14.0919 159.397 12.3886 158.545C10.4774 157.586 8.1907 157.78 5.68267 155.487C4.01959 153.951 2.18886 152.168 1.16285 151.148C0.686727 151.215 0.378256 151.376 0.33802 151.671C0.143547 153.012 3.77147 156.634 5.87043 157.78C7.9694 158.927 10.8328 159.122 11.9796 160.262C13.1263 161.402 14.8497 162.931 16.9688 162.361Z" fill="var(--fill-0, #263238)"/>
<path id="Vector_49" d="M16.0165 162.823C14.3333 162.823 12.9318 161.677 11.7516 160.496C11.1748 159.926 10.0415 159.591 8.83446 159.236C7.7588 158.954 6.71414 158.566 5.7162 158.075C3.74464 156.996 -0.218572 153.254 0.00943083 151.624C0.0563725 151.316 0.284367 150.954 1.12261 150.82H1.28356L1.40426 150.94C2.58451 152.107 4.32807 153.804 5.91738 155.272C7.18242 156.406 8.72602 157.184 10.3902 157.526C11.1217 157.703 11.8337 157.952 12.516 158.27C13.0674 158.558 13.5905 158.897 14.0785 159.283C15.2314 160.226 16.5884 160.887 18.0417 161.214L18.5179 161.335L18.2295 161.737C17.9556 162.189 17.5339 162.532 17.0359 162.709C16.7025 162.792 16.3598 162.83 16.0165 162.823ZM1.05556 151.51C0.827556 151.557 0.686726 151.631 0.673314 151.718C0.525783 152.751 3.78488 156.258 6.03808 157.485C6.99198 157.956 7.99202 158.327 9.02223 158.592C10.3165 158.967 11.5303 159.33 12.2277 160.02C13.4951 161.294 15.0442 162.528 16.8615 162.032C17.0542 161.963 17.227 161.848 17.3644 161.697C16.0195 161.316 14.7651 160.668 13.6762 159.792C13.224 159.425 12.7365 159.104 12.221 158.833C11.5737 158.545 10.8999 158.32 10.2092 158.163C8.44208 157.789 6.80458 156.956 5.46137 155.749C3.919 154.313 2.21569 152.677 1.05556 151.51Z" fill="var(--fill-0, #263238)"/>
<path id="Vector_50" d="M61.6439 72.1119C61.2214 71.5217 60.8257 70.992 60.4703 70.5494C58.1769 67.6859 57.6069 68.0682 57.6069 66.3515C57.6069 64.6347 60.8526 46.1196 59.7058 39.4405C59.2862 36.3622 57.971 33.4752 55.9237 31.1385C54.4484 32.0974 51.6989 33.8678 48.7684 35.712C48.3996 36.8855 47.5412 38.2334 45.7709 39.8227C42.143 43.0617 39.0649 47.8363 40.044 50.8875C41.0231 53.9387 43.2897 60.6246 44.0676 66.157C44.3424 69.0151 44.3199 71.8939 44.0005 74.7473C49.9624 74.5399 55.8815 73.6557 61.6439 72.1119Z" fill="var(--fill-0, #FFF386)"/>
<path id="Vector_51" d="M43.9871 75.0826C43.9411 75.0834 43.8954 75.0749 43.8528 75.0576C43.8101 75.0403 43.7714 75.0146 43.739 74.982C43.6778 74.909 43.6466 74.8155 43.6518 74.7205C43.9684 71.8916 43.9909 69.0374 43.7188 66.2039C43.0482 61.4293 41.251 55.7627 40.1647 52.3762C39.997 51.8599 39.8495 51.3904 39.7288 50.9881C38.6827 47.6351 42.0155 42.7331 45.5496 39.588C46.8521 38.5481 47.8543 37.1801 48.4532 35.6247C48.4774 35.5497 48.5273 35.4856 48.5941 35.4437C51.5447 33.5928 54.3411 31.7889 55.7426 30.8769C55.8135 30.8319 55.8985 30.8146 55.9813 30.8282C56.0642 30.8418 56.1391 30.8854 56.1919 30.9507L56.3797 31.1921C58.3486 33.5281 59.6158 36.3739 60.0344 39.4002C60.8995 44.4431 59.2968 56.098 58.4384 62.3547C58.1567 64.3665 57.9422 65.9625 57.9422 66.3783C57.9422 67.3439 58.0964 67.4981 58.8542 68.2626C59.5173 68.9304 60.1441 69.6333 60.7318 70.3683C61.1074 70.8377 61.5164 71.3809 61.9188 71.9442C61.9497 71.9883 61.9696 72.0393 61.9767 72.0928C61.9837 72.1462 61.9778 72.2006 61.9594 72.2513C61.9409 72.3019 61.9105 72.3474 61.8708 72.3839C61.8311 72.4203 61.7831 72.4466 61.731 72.4606C55.9395 74.0245 49.9888 74.9244 43.9938 75.1429L43.9871 75.0826ZM49.0501 35.9265C48.4042 37.548 47.3509 38.9754 45.9921 40.0708C42.505 43.1891 39.4539 47.8765 40.3659 50.8003L40.8017 52.1817C41.8948 55.5884 43.7188 61.2884 44.3827 66.1301C44.6564 68.8846 44.6452 71.6599 44.3492 74.412C50.011 74.1912 55.6321 73.357 61.1141 71.9241C60.8123 71.515 60.5105 71.1194 60.2356 70.7706C59.6635 70.0643 59.0499 69.3925 58.3982 68.7589C57.6203 67.9608 57.2984 67.639 57.2984 66.3984C57.2984 65.9424 57.4996 64.4872 57.8013 62.2876C58.653 56.0645 60.249 44.4833 59.4041 39.541C59.012 36.6049 57.7828 33.8438 55.8633 31.5878C54.4014 32.5266 51.7995 34.2031 49.0501 35.9265Z" fill="var(--fill-0, #263238)"/>
<path id="Vector_52" d="M48.688 72.1388C48.6439 72.1427 48.5996 72.138 48.5574 72.1248C48.5152 72.1116 48.476 72.0902 48.442 72.0619C48.4081 72.0336 48.3801 71.9988 48.3596 71.9597C48.3391 71.9205 48.3265 71.8777 48.3225 71.8336C48.3185 71.7896 48.3233 71.7452 48.3365 71.703C48.3497 71.6608 48.371 71.6217 48.3994 71.5877C48.4277 71.5538 48.4624 71.5258 48.5016 71.5052C48.5408 71.4847 48.5836 71.4721 48.6276 71.4682C51.5179 70.9384 56.8759 67.7396 56.9296 67.7128C57.0042 67.6806 57.0879 67.6765 57.1653 67.7014C57.2427 67.7263 57.3084 67.7784 57.3502 67.8481C57.392 67.9178 57.4071 68.0003 57.3926 68.0802C57.3782 68.1602 57.3352 68.2322 57.2716 68.2828C57.0503 68.417 51.7593 71.5822 48.7483 72.1254L48.688 72.1388Z" fill="var(--fill-0, #263238)"/>
<path id="Vector_53" d="M49.7743 69.4227C49.6854 69.4307 49.5969 69.4031 49.5284 69.3459C49.4599 69.2887 49.4169 69.2065 49.4089 69.1176C49.4009 69.0287 49.4285 68.9402 49.4857 68.8717C49.543 68.8031 49.6251 68.7602 49.714 68.7521C51.5563 68.4193 53.3557 67.8817 55.0787 67.1494C55.1188 67.1309 55.1621 67.1205 55.2062 67.1188C55.2503 67.117 55.2943 67.1239 55.3357 67.1392C55.3772 67.1545 55.4152 67.1777 55.4476 67.2077C55.48 67.2376 55.5062 67.2736 55.5247 67.3137C55.5432 67.3538 55.5536 67.3971 55.5554 67.4412C55.5571 67.4853 55.5502 67.5293 55.5349 67.5707C55.5196 67.6121 55.4964 67.6501 55.4664 67.6825C55.4365 67.715 55.4005 67.7412 55.3604 67.7597C53.5899 68.514 51.7412 69.0695 49.8481 69.416L49.7743 69.4227Z" fill="var(--fill-0, #263238)"/>
<path id="Vector_54" d="M56.3059 34.1226C56.3059 34.1226 51.1088 35.6046 47.8967 42.0423C44.6845 48.4801 47.6486 54.6629 52.1013 55.1525C56.5541 55.642 59.0286 48.4465 59.0286 43.0281C59.0286 37.6097 58.5457 34.3707 56.3059 34.1226Z" fill="var(--fill-0, white)"/>
<path id="Vector_55" d="M52.5104 55.5147C52.3518 55.5245 52.1928 55.5245 52.0342 55.5147C51.0214 55.372 50.0588 54.9841 49.2302 54.3845C48.4015 53.7849 47.732 52.9919 47.2797 52.0745C45.7172 49.1977 45.8245 45.4021 47.5681 41.915C50.8138 35.4236 55.9706 33.8679 56.1852 33.8276C56.2297 33.821 56.2749 33.821 56.3193 33.8276C58.8341 34.1093 59.337 37.5695 59.337 43.0684C59.337 46.8372 58.13 51.9672 55.4878 54.3344C54.6782 55.0869 53.6156 55.5081 52.5104 55.5147ZM56.3126 34.4647C55.7225 34.6592 51.0887 36.3491 48.1649 42.19C46.5219 45.4826 46.4079 49.0434 47.8698 51.7258C48.2712 52.5479 48.8669 53.2597 49.6054 53.7995C50.3439 54.3394 51.2029 54.691 52.108 54.824C52.6422 54.8749 53.181 54.809 53.6871 54.6306C54.1931 54.4523 54.6543 54.1658 55.0385 53.7912C57.4191 51.6588 58.6664 46.7634 58.6664 43.0617C58.6932 38.0993 58.2909 34.753 56.3395 34.4647H56.3126Z" fill="var(--fill-0, #263238)"/>
<path id="Vector_56" d="M51.0418 40.2854C51.0418 40.2854 48.9696 42.8873 47.7357 47.8363C46.5018 52.7853 44.2352 59.1292 44.2352 59.1292C44.2352 59.1292 37.5292 56.1584 31.8627 54.1802C26.1962 52.2019 20.7308 47.2529 20.7308 47.2529C20.7308 47.2529 19.9865 42.7935 18.719 42.7935C17.4516 42.7935 12.8983 42.599 12.6435 43.6317C12.3886 44.6644 13.0324 47.2596 13.314 47.9101C13.5957 48.5606 14.6083 49.0769 15.5203 49.2043C15.9984 49.2671 16.4729 49.3543 16.942 49.4659C16.9847 49.7701 17.1019 50.0592 17.2832 50.3072C17.4646 50.5552 17.7044 50.7546 17.9814 50.8875C18.7787 51.3136 19.666 51.5435 20.5699 51.5581C20.5699 51.5581 27.9464 57.7746 31.0647 59.9741C34.183 62.1737 41.9418 65.8083 44.2754 66.841C46.6091 67.8737 48.1649 68.1353 49.0702 67.3574C49.9755 66.5795 56.8022 48.7819 57.7075 46.3208C58.6128 43.8597 58.6128 38.1596 56.6681 36.349" fill="var(--fill-0, white)"/>
<path id="Vector_57" d="M47.6955 68.1151C46.4558 68.0185 45.2477 67.6766 44.1413 67.1092C41.6802 66.0162 33.9617 62.4151 30.8702 60.2088C27.9733 58.1568 21.3008 52.5707 20.4425 51.8465C19.5213 51.8337 18.6161 51.604 17.8003 51.1759C17.2442 50.8653 16.8306 50.3507 16.6469 49.7408C16.4189 49.6939 16.0165 49.6134 15.4734 49.5396C14.4876 49.3988 13.3275 48.869 13.0056 48.0308C12.7776 47.4742 12.0399 44.7516 12.335 43.5512C12.5831 42.5722 14.7625 42.4112 18.2027 42.4515H18.7392C20.0804 42.4515 20.818 45.8447 21.0326 47.0719C21.7434 47.7022 26.793 52.0544 31.9633 53.8516C36.8855 55.5683 42.6124 58.0428 44.034 58.6664C44.5168 57.3253 46.3409 51.994 47.387 47.7693C48.6276 42.8069 50.6729 40.1983 50.74 40.091C50.7668 40.056 50.8004 40.0268 50.8388 40.0051C50.8772 39.9834 50.9195 39.9696 50.9633 39.9646C51.0071 39.9596 51.0515 39.9634 51.0937 39.9759C51.136 39.9884 51.1754 40.0093 51.2094 40.0373C51.2785 40.0926 51.3229 40.173 51.3329 40.261C51.343 40.3489 51.3179 40.4372 51.2631 40.5067C49.7135 42.7493 48.6114 45.2699 48.0174 47.9302C46.7902 52.839 44.537 59.1694 44.5102 59.2297C44.4787 59.3181 44.4136 59.3904 44.3291 59.4309C44.2868 59.4494 44.2411 59.4589 44.195 59.4589C44.1488 59.4589 44.1031 59.4494 44.0608 59.4309C43.9938 59.4309 37.3549 56.4468 31.7152 54.4953C26.0755 52.5439 20.5162 47.548 20.4626 47.501C20.408 47.4485 20.3706 47.3807 20.3553 47.3066C20.02 45.2948 19.2756 43.1288 18.7056 43.1288H18.1625C13.7633 43.0684 13.0123 43.4775 12.9519 43.7256C12.7239 44.651 13.3275 47.1389 13.6225 47.7894C13.8103 48.2655 14.6821 48.755 15.5605 48.8825C16.439 49.0099 16.9956 49.1373 17.0157 49.144C17.0884 49.1632 17.1528 49.2057 17.1988 49.2651C17.2449 49.3245 17.2701 49.3974 17.2706 49.4726C17.2706 49.4726 17.2706 50.0828 18.149 50.6126C18.8974 50.994 19.7234 51.1982 20.5632 51.2094C20.6423 51.2084 20.7189 51.2371 20.7778 51.2899C20.8515 51.3503 28.1878 57.5197 31.2525 59.6858C34.3171 61.8518 41.982 65.4395 44.4029 66.5191C46.7298 67.5585 48.0978 67.7329 48.8422 67.0891C49.6603 66.2978 55.8901 50.2572 57.3856 46.1934C58.2842 43.7457 58.2171 38.2401 56.4333 36.577C56.4021 36.5464 56.3773 36.5099 56.3604 36.4696C56.3434 36.4293 56.3347 36.386 56.3347 36.3423C56.3347 36.2986 56.3434 36.2553 56.3604 36.215C56.3773 36.1747 56.4021 36.1382 56.4333 36.1076C56.496 36.0462 56.5803 36.0118 56.6681 36.0118C56.7558 36.0118 56.8401 36.0462 56.9027 36.1076C59.0621 38.1194 58.9145 44.0206 58.0294 46.4482C57.9556 46.6427 50.3846 66.6868 49.3116 67.6189C48.8551 67.9829 48.2776 68.1602 47.6955 68.1151Z" fill="var(--fill-0, #263238)"/>
</g>
</svg>
