<svg preserveAspectRatio="none" width="100%" height="100%" overflow="visible" style="display: block;" viewBox="0 0 214.329 103.92" fill="none" xmlns="http://www.w3.org/2000/svg">
<g id="freepik--Character--inject-3">
<path id="Vector" d="M86.7089 85.6914C84.8216 86.325 83.0677 87.3021 81.5357 88.5733L103.809 82.9851C97.606 83.488 90.3413 84.3342 86.7089 85.6914Z" fill="var(--fill-0, white)" stroke="var(--stroke-0, #263238)" stroke-linecap="round" stroke-linejoin="round"/>
<path id="Vector_2" d="M81.7831 31.4053C81.7831 31.4053 96.0332 36.323 102.388 41.8793C108.742 47.4357 111.058 52.5449 116.231 52.8643C121.404 53.1836 123.512 49.9584 129.419 52.2575C135.327 54.5567 143.661 58.5483 143.661 58.5483C143.661 58.5483 142.799 68.232 142.464 68.2959C142.128 68.3597 133.012 68.1841 120.733 67.1144C108.455 66.0446 104.384 65.9568 97.9731 62.8753C91.5625 59.7937 86.3974 58.5883 78.1587 54.7164C69.9199 50.8445 62.5514 48.0104 62.5514 48.0104C62.5514 48.0104 70.7901 43.6835 75.9952 39.5961C81.2003 35.5087 81.7831 31.4053 81.7831 31.4053Z" fill="var(--fill-0, #92E3A9)" stroke="var(--stroke-0, #263238)" stroke-linecap="round" stroke-linejoin="round"/>
<path id="Vector_3" d="M118.514 62.0211C129.81 60.2887 134.001 56.9198 135.542 54.8361C133.483 53.934 131.327 53.0239 129.419 52.2815C123.512 49.9823 121.436 53.2076 116.231 52.8882C114.622 52.7743 113.086 52.1759 111.824 51.1718C101.326 53.8223 94.8357 52.2416 89.4709 47.8508C85.144 44.2903 85.623 36.2511 86.0142 33.0418C83.4915 32.028 81.7671 31.4452 81.7671 31.4452C81.7671 31.4452 81.1444 35.5326 75.9393 39.6201C70.7343 43.7075 62.5514 48.0104 62.5514 48.0104C62.5514 48.0104 69.9679 50.8046 78.1986 54.6765C86.0302 58.3567 91.0915 59.6341 97.071 62.3963C104.206 63.1696 111.41 63.0435 118.514 62.0211Z" fill="var(--fill-0, #263238)" stroke="var(--stroke-0, #263238)" stroke-linecap="round" stroke-linejoin="round"/>
<path id="Vector_4" d="M29.3572 29.4015C29.3572 29.4015 25.9483 32.8023 25.9084 35.7881C25.8685 38.7738 26.3794 41.3764 26.3156 42.1108C26.2517 42.8453 23.705 51.7626 23.6971 53.2874C23.6503 54.4765 23.5034 55.6595 23.258 56.824C20.562 59.6402 18.2336 62.7867 16.3285 66.1883C13.3188 71.6489 10.2453 77.3249 9.4709 79.0972C8.69652 80.8695 13.8936 82.514 13.8936 82.514C16.365 78.4461 19.1517 74.5783 22.2281 70.9463C26.563 66.0446 31.5845 61.5181 33.6202 55.7382C35.656 49.9584 36.2866 46.8928 37.1329 45.5037C37.9791 44.1146 39.8791 42.3104 40.2703 42.2625C40.6615 42.2146 42.793 41.6717 42.793 41.6717C39.9512 39.9403 37.4532 37.6994 35.4245 35.0616C33.8482 32.8132 32.0799 30.7058 30.1395 28.7628L29.3572 29.4015Z" fill="var(--fill-0, #263238)" stroke="var(--stroke-0, #263238)" stroke-linecap="round" stroke-linejoin="round"/>
<path id="Vector_5" d="M31.1215 60.5522C29.3014 60.616 26.3715 60.4643 24.8307 58.9555C24.0752 58.1511 23.5776 57.1391 23.4017 56.0496C23.3219 56.4967 23.258 56.7841 23.258 56.7841C23.258 56.7841 22.308 57.7341 20.9908 59.3387C21.3945 60.6555 21.8662 61.9505 22.4038 63.2186C23.5454 65.9408 24.7269 66.8908 25.661 67.1543C27.6472 65.0964 29.4728 62.8892 31.1215 60.5522Z" fill="var(--fill-0, #92E3A9)" stroke="var(--stroke-0, #263238)" stroke-linecap="round" stroke-linejoin="round"/>
<path id="Vector_6" d="M50.4011 67.9686C50.0897 68.0324 49.8742 68.3677 49.8103 68.8068C49.1397 69.0144 47.7666 69.4614 45.4754 70.3556C42.0905 71.6888 38.2186 73.1657 28.9102 78.5624C20.5916 83.3922 14.1491 84.6615 12.9437 84.8611H12.8718C12.6706 84.9071 12.495 85.0293 12.3818 85.2019C12.2687 85.3746 12.2269 85.5843 12.2651 85.7872C12.2842 85.8914 12.3239 85.9907 12.3818 86.0794C12.4397 86.1681 12.5146 86.2444 12.6023 86.3038C12.69 86.3633 12.7886 86.4047 12.8925 86.4256C12.9963 86.4466 13.1033 86.4467 13.2071 86.4259L13.7101 86.338C19.3573 85.0938 24.7638 82.9366 29.7165 79.9514C38.9212 74.6027 42.6254 72.8623 45.9464 71.5531C48.078 70.7547 49.3952 70.2837 50.0738 70.0762C50.142 70.2309 50.2539 70.3623 50.3957 70.4545C50.5374 70.5466 50.703 70.5955 50.8721 70.5951C51.3271 70.5072 51.5826 69.8526 51.4469 69.1261C51.3112 68.3997 50.8561 67.8807 50.4011 67.9686Z" fill="var(--fill-0, #263238)"/>
<path id="Vector_7" d="M1.50362 85.859C1.50362 85.859 -0.0451346 88.254 0.705291 90.2019C1.45572 92.1498 5.54315 92.7566 7.25954 92.4293C8.97594 92.1019 5.3196 90.4015 4.01833 88.8687C2.71707 87.3359 2.34984 85.0048 1.50362 85.859Z" fill="var(--fill-0, #92E3A9)" stroke="var(--stroke-0, #263238)" stroke-linecap="round" stroke-linejoin="round"/>
<path id="Vector_8" d="M14.6999 84.5737L18.1806 79.4245C18.1806 79.4245 18.8272 79.0972 15.8335 76.2312C12.8398 73.3652 10.9957 73.8362 10.9957 73.8362L7.64271 80.6779C7.64271 80.6779 2.4536 83.3044 1.80696 86.2662C1.16032 89.228 5.00026 91.7427 8.65659 92.2616C12.3129 92.7805 14.1091 91.0002 14.652 88.5574C14.9959 87.2537 15.0124 85.8853 14.6999 84.5737Z" fill="var(--fill-0, #92E3A9)" stroke="var(--stroke-0, #263238)" stroke-linecap="round" stroke-linejoin="round"/>
<path id="Vector_9" d="M10.4928 87.0086C10.5705 87.4148 10.5261 87.8349 10.3652 88.2158C10.2042 88.5967 9.93395 88.9214 9.58855 89.1488C9.24314 89.3762 8.83809 89.4961 8.42456 89.4933C8.01103 89.4906 7.60761 89.3653 7.26525 89.1334C6.92289 88.9014 6.65697 88.5732 6.5011 88.1902C6.34523 87.8071 6.3064 87.3865 6.38952 86.9814C6.47264 86.5763 6.67397 86.2049 6.96808 85.9142C7.26219 85.6235 7.63588 85.4265 8.04191 85.3481C8.58693 85.245 9.15059 85.3618 9.60979 85.6729C10.069 85.984 10.3864 86.4642 10.4928 87.0086Z" fill="var(--fill-0, #263238)" stroke="var(--stroke-0, #263238)" stroke-linecap="round" stroke-linejoin="round"/>
<path id="Vector_10" d="M10.4928 87.0086C10.8044 88.0287 10.7707 89.1231 10.397 90.1221C9.74239 91.5591 10.5407 92.5171 11.9937 91.7587" stroke="var(--stroke-0, #263238)" stroke-linecap="round" stroke-linejoin="round"/>
<path id="Vector_11" d="M34.7618 23.8452C34.7618 23.8452 29.9718 28.3796 29.6844 29.4973C29.397 30.6149 32.9735 37.8478 39.5996 42.031C46.2257 46.2142 61.0027 48.4176 64.204 49.0004C67.4053 49.5832 72.4028 48.5693 78.031 43.5159C79.6518 42.1356 80.9224 40.3906 81.7383 38.4242C82.5543 36.4578 82.8925 34.326 82.7251 32.2036C82.7251 32.2036 80.2583 25.817 71.0376 19.5661C61.817 13.3153 59.4539 13.8741 55.3186 14.848C51.1833 15.822 41.8988 17.4506 34.7618 23.8452Z" fill="var(--fill-0, #92E3A9)" stroke="var(--stroke-0, #263238)" stroke-linecap="round" stroke-linejoin="round"/>
<path id="Vector_12" d="M44.6211 31.549C44.6929 32.0998 48.9161 36.4427 53.73 34.902C58.5439 33.3612 57.3065 22.4002 54.0254 17.746C50.7443 13.0917 48.3173 16.4766 46.7766 18.5443C45.2358 20.612 43.9904 26.9107 44.6211 31.549Z" fill="var(--fill-0, white)" stroke="var(--stroke-0, #263238)" stroke-linecap="round" stroke-linejoin="round"/>
<path id="Vector_13" d="M46.2576 30.0002C46.2576 30.0002 50.0736 33.7603 51.6383 33.1935C53.2031 32.6267 54.5522 27.7809 53.6182 22.9351C52.6841 18.0892 52.1892 16.4287 50.0816 19.2149C47.974 22.001 46.2576 30.0002 46.2576 30.0002Z" fill="var(--fill-0, #263238)" stroke="var(--stroke-0, #263238)" stroke-linecap="round" stroke-linejoin="round"/>
<path id="Vector_14" d="M34.8735 1.77947C33.0846 2.52119 31.5473 3.76277 30.4458 5.35561C29.3442 6.94844 28.7251 8.82502 28.6626 10.7606C28.2874 17.6901 36.1668 27.8448 39.3921 30.0242C42.6173 32.2036 43.7429 33.2175 46.7845 31.2456C49.8262 29.2738 51.3031 23.9889 51.6623 19.4065C52.0216 14.8241 51.9337 10.3215 49.0039 4.81309C46.074 -0.695349 38.011 0.0471028 34.8735 1.77947Z" fill="var(--fill-0, white)" stroke="var(--stroke-0, #263238)" stroke-linecap="round" stroke-linejoin="round"/>
<path id="Vector_15" d="M48.98 4.81309C46.0502 -0.695358 37.9871 0.0231445 34.8497 1.77946C33.0607 2.52118 31.5235 3.76277 30.4219 5.3556C29.3204 6.94843 28.7013 8.82501 28.6387 10.7606C28.4791 13.7144 29.8202 17.251 31.6564 20.5002C33.5724 19.0552 37.9552 16.6762 47.3594 14.8001C47.3594 14.8001 47.8225 20.8834 49.8422 21.2825C50.168 21.2972 50.4924 21.2322 50.7874 21.0931C51.0823 20.9539 51.3388 20.7449 51.5347 20.4842C51.5746 20.125 51.6145 19.7577 51.6385 19.4065C52.0296 14.8161 51.9338 10.3215 48.98 4.81309Z" fill="var(--fill-0, #263238)" stroke="var(--stroke-0, #263238)" stroke-linecap="round" stroke-linejoin="round"/>
<path id="Vector_16" d="M30.6185 18.3367C30.6185 18.3367 34.7219 13.8022 46.9682 11.9022C47.4909 12.2266 47.8854 12.7218 48.0847 13.3038C48.284 13.8858 48.276 14.5188 48.0619 15.0955C47.4153 17.4027 45.667 22.8792 44.222 23.4699C42.777 24.0607 40.0068 22.5678 39.5199 23.2863C39.0329 24.0048 39.2883 26.1363 37.5161 26.6313C35.7438 27.1263 29.3731 21.6817 30.6185 18.3367Z" fill="var(--fill-0, white)" stroke="var(--stroke-0, #263238)" stroke-linecap="round" stroke-linejoin="round"/>
<path id="Vector_17" d="M32.303 18.2888C32.303 18.2888 35.6959 14.9678 45.6031 13.3871C46.004 13.5944 46.3102 13.9475 46.4586 14.3737C46.6071 14.7999 46.5867 15.2667 46.4015 15.6783C45.8426 17.3468 44.3338 21.3065 43.1603 21.7536C41.9867 22.2006 39.5598 20.9552 38.6657 22.1208C38.2585 22.6397 38.4342 24.1725 36.9892 24.5557C35.5442 24.9389 31.2572 20.7157 32.303 18.2888Z" fill="var(--fill-0, #92E3A9)" stroke="var(--stroke-0, #263238)" stroke-linecap="round" stroke-linejoin="round"/>
<path id="Vector_18" d="M46.9444 11.9022L51.3751 11.7425L51.7822 13.8661L48.1818 13.9459C48.1818 13.9459 47.9024 12.0858 46.9444 11.9022Z" fill="var(--fill-0, white)" stroke="var(--stroke-0, #263238)" stroke-linecap="round" stroke-linejoin="round"/>
<path id="Vector_19" d="M39.4959 23.3103C39.4959 23.3103 39.2324 25.0985 39.6236 25.2901C40.1601 25.4452 40.7112 25.5442 41.2682 25.5855" stroke="var(--stroke-0, #263238)" stroke-linecap="round" stroke-linejoin="round"/>
<path id="Vector_20" d="M41.7951 27.254C42.7966 26.9983 43.7583 26.6061 44.6531 26.0884" stroke="var(--stroke-0, #263238)" stroke-linecap="round" stroke-linejoin="round"/>
<path id="Vector_21" d="M49.523 21.3544C49.523 21.3544 50.8562 27.3498 47.2557 31.0381" stroke="var(--stroke-0, #263238)" stroke-linecap="round" stroke-linejoin="round"/>
<g id="Vector_22">
<path d="M84.3218 54.1975C84.3218 54.1975 79.7235 52.7046 69.4091 49.0563C59.0948 45.4079 55.0393 43.468 51.9977 49.6869C48.9561 55.9059 55.63 60.2648 60.5876 64.0568C65.5452 67.8488 77.6638 73.972 78.8453 74.1875C80.0269 74.4031 84.8647 67.0026 84.8647 67.0026C84.8647 67.0026 89.8942 66.1165 91.2513 63.6497C92.6085 61.1828 90.2774 57.2631 90.2774 57.2631" fill="var(--fill-0, #263238)"/>
<path d="M84.3218 54.1975C84.3218 54.1975 79.7235 52.7046 69.4091 49.0563C59.0948 45.4079 55.0393 43.468 51.9977 49.6869C48.9561 55.9059 55.63 60.2648 60.5876 64.0568C65.5452 67.8488 77.6638 73.972 78.8453 74.1875C80.0269 74.4031 84.8647 67.0026 84.8647 67.0026C84.8647 67.0026 89.8942 66.1165 91.2513 63.6497C92.6085 61.1828 90.2774 57.2631 90.2774 57.2631" stroke="var(--stroke-0, #263238)" stroke-linecap="round" stroke-linejoin="round"/>
</g>
<path id="Vector_23" d="M66.2877 49.7428L82.3421 63.5618" stroke="var(--stroke-0, white)" stroke-linecap="round" stroke-linejoin="round"/>
<path id="Vector_24" d="M83.2202 62.1568C83.2202 62.1568 78.4302 63.7933 75.8356 67.745C73.2411 71.6967 73.8877 74.9938 74.6621 75.8081C75.4365 76.6224 82.813 80.143 83.0126 79.7997C83.2122 79.4565 84.3298 79.2808 84.3298 79.2808C84.3298 79.2808 84.3298 76.1913 87.7626 73.3333C91.1954 70.4753 92.816 70.3316 92.816 70.3316C92.9317 69.7104 92.9878 69.0795 92.9837 68.4476C92.8879 68.0484 83.6752 62.2446 83.2202 62.1568Z" fill="var(--fill-0, #92E3A9)" stroke="var(--stroke-0, #263238)" stroke-linecap="round" stroke-linejoin="round"/>
<path id="Vector_25" d="M84.3299 79.3048L86.0144 80.3027C86.4441 78.4011 87.4741 76.6881 88.9522 75.417C90.7237 73.8629 92.8259 72.7326 95.0993 72.1119L92.8161 70.3556C92.8161 70.3556 85.2719 72.3354 84.3299 79.3048Z" fill="var(--fill-0, #263238)" stroke="var(--stroke-0, #263238)" stroke-linecap="round" stroke-linejoin="round"/>
<path id="Vector_26" d="M86.0142 80.3027L87.1079 81.8515C87.1079 81.8515 81.7591 82.8813 80.9129 85.3401C80.0667 87.799 80.5297 88.8448 80.5297 88.8448L112.127 80.9014C112.127 80.9014 110.978 77.2451 108.216 76.1913C105.453 75.1375 102.436 75.4569 101.27 74.8901C100.105 74.3232 96.5601 71.9203 96.5601 71.9203C96.5601 71.9203 87.4991 71.9921 86.0142 80.3027Z" fill="var(--fill-0, #92E3A9)" stroke="var(--stroke-0, #263238)" stroke-linecap="round" stroke-linejoin="round"/>
<path id="Vector_27" d="M86.8286 83.1367C82.5735 84.7334 81.0168 86.3939 80.442 87.5675C80.385 87.9963 80.4232 88.4324 80.5537 88.8448L112.128 80.9014C112.011 80.5641 111.875 80.2336 111.72 79.9115C105.661 80.2069 92.2333 81.0851 86.8286 83.1367Z" fill="var(--fill-0, #263238)" stroke="var(--stroke-0, #263238)" stroke-linecap="round" stroke-linejoin="round"/>
<path id="Vector_28" d="M141.586 55.9139C141.586 55.9139 138.999 56.7122 136.963 61.2147C134.928 65.7173 136.668 70.611 136.668 70.611C136.668 70.611 146.32 70.4195 146.695 70.0842C147.07 69.7489 146.184 68.3358 147.861 63.7774C149.537 59.2189 150.615 59.7857 149.609 58.245C148.603 56.7042 141.586 55.9139 141.586 55.9139Z" fill="var(--fill-0, #92E3A9)" stroke="var(--stroke-0, #263238)" stroke-linecap="round" stroke-linejoin="round"/>
<path id="Vector_29" d="M149.816 58.9076L152.97 59.2668C152.97 59.2668 151.062 60.5521 149.832 64.4559C149.308 66.3531 148.916 68.2844 148.659 70.2358L146.687 70.0841C146.687 70.0841 145.09 65.9009 149.816 58.9076Z" fill="var(--fill-0, #263238)" stroke="var(--stroke-0, #263238)" stroke-linecap="round" stroke-linejoin="round"/>
<path id="Vector_30" d="M152.97 59.2668C151.224 61.758 149.943 64.5435 149.186 67.4896C148.188 71.9123 148.771 70.8266 148.771 70.8266L164.953 66.5316C164.953 66.5316 166.933 62.1807 163.196 60.145C159.46 58.1093 154.135 57.5424 152.97 59.2668Z" fill="var(--fill-0, #92E3A9)" stroke="var(--stroke-0, #263238)" stroke-linecap="round" stroke-linejoin="round"/>
<path id="Vector_31" d="M74.6382 9.51521C74.6382 9.51521 65.1382 10.1299 61.9608 12.6367C58.7835 15.1434 60.1566 21.522 62.6873 24.8271C65.218 28.1322 71.6525 26.3519 73.1853 24.4279C74.1039 23.274 74.9568 22.0693 75.7399 20.8195L82.5257 16.6682C82.5257 16.6682 87.0123 16.748 89.4951 15.5905C90.987 14.8987 92.4161 14.0787 93.7661 13.1396C93.7661 13.1396 100.632 16.4207 103.346 17.6661C104.783 18.2349 106.013 19.2258 106.875 20.5082L112.926 17.4426C112.926 17.4426 108.136 7.93453 104.144 4.2303C100.153 0.526074 97.614 0.613893 94.7401 1.16474C91.8661 1.71558 83.0127 3.55971 80.3702 5.30005C77.7278 7.0404 74.6382 9.51521 74.6382 9.51521Z" fill="var(--fill-0, #263238)" stroke="var(--stroke-0, #263238)" stroke-linecap="round" stroke-linejoin="round"/>
<path id="Vector_32" d="M97.111 0.885318C96.306 0.908292 95.5046 1.00179 94.716 1.16474C93.758 1.35633 92.1294 1.68364 90.2933 2.10675C89.2827 3.41086 88.7225 5.0076 88.6966 6.65722C88.7006 8.08237 88.9959 9.49167 89.5642 10.7986C90.1326 12.1055 90.962 13.2825 92.0017 14.2573C93.0795 13.6186 93.7421 13.1396 93.7421 13.1396C93.7421 13.1396 92.5605 5.16434 97.111 0.885318Z" fill="var(--fill-0, #92E3A9)" stroke="var(--stroke-0, #263238)" stroke-linecap="round" stroke-linejoin="round"/>
<path id="Vector_33" d="M196.199 5.52357L194.483 5.0845C194.491 4.81719 194.473 4.54968 194.427 4.28618C194.203 3.10466 193.261 4.53366 193.261 4.53366C174.964 3.28827 149.481 9.32361 137.163 15.7821C124.845 22.2405 117.452 21.3703 117.381 21.3304C117.169 21.304 116.955 21.3627 116.787 21.4937C116.618 21.6247 116.509 21.8172 116.482 22.029C116.456 22.2407 116.515 22.4543 116.646 22.6227C116.777 22.7911 116.969 22.9006 117.181 22.9271C119.354 23.0718 121.537 22.9051 123.663 22.4321C128.638 21.3853 133.435 19.624 137.905 17.2031C149.984 10.8883 174.94 4.95676 192.95 6.12232C192.942 6.29414 192.972 6.46556 193.039 6.62429C193.105 6.78302 193.206 6.92514 193.333 7.04041C193.82 7.42361 194.187 6.82486 194.371 6.01856L196.199 5.52357Z" fill="var(--fill-0, #263238)"/>
<path id="Vector_34" d="M108.24 14.409C104.48 16.4766 103.506 20.0691 103.578 21.1389C103.615 21.7671 103.781 22.3811 104.065 22.943C104.065 22.943 102.739 25.2263 103.546 26.5675C104.257 27.528 105.15 28.339 106.175 28.9541C107.199 29.5691 108.335 29.9762 109.517 30.1519C112.311 30.5671 115.568 30.615 117.069 28.5553C118.043 27.2064 118.66 25.6336 118.863 23.9827C119.067 22.3318 118.851 20.6562 118.235 19.1111C116.694 15.343 113.948 15.1993 113.948 15.1993C113.948 15.1993 112.048 12.3253 108.24 14.409Z" fill="var(--fill-0, #92E3A9)" stroke="var(--stroke-0, #263238)" stroke-linecap="round" stroke-linejoin="round"/>
<g id="Vector_35">
<path d="M113.948 15.2073C113.948 15.2073 105.525 15.0716 104.064 22.943Z" fill="var(--fill-0, #92E3A9)"/>
<path d="M113.948 15.2073C113.948 15.2073 105.525 15.0716 104.064 22.943" stroke="var(--stroke-0, #263238)" stroke-linecap="round" stroke-linejoin="round"/>
</g>
<path id="Vector_36" d="M108.854 16.8678C108.854 16.8678 106.97 21.1628 112.527 21.1708C118.083 21.1787 118.913 19.9334 117.141 17.706C116.672 17.0787 116.078 16.5556 115.397 16.1699C114.715 15.7842 113.961 15.5444 113.182 15.4656C112.403 15.3868 111.616 15.4707 110.871 15.7121C110.126 15.9535 109.439 16.347 108.854 16.8678Z" fill="var(--fill-0, #263238)" stroke="var(--stroke-0, #263238)" stroke-linecap="round" stroke-linejoin="round"/>
<path id="Vector_37" d="M107.465 25.1305C107.713 26.4317 107.218 27.6132 106.356 27.7809C105.493 27.9485 104.583 27.0305 104.328 25.7372C104.072 24.4439 104.575 23.2464 105.446 23.0788C106.316 22.9111 107.258 23.8292 107.465 25.1305Z" fill="var(--fill-0, #263238)" stroke="var(--stroke-0, #263238)" stroke-linecap="round" stroke-linejoin="round"/>
<path id="Vector_38" d="M107.346 29.3696C107.333 28.2323 107.514 27.1013 107.88 26.0246C108.479 24.2603 108.735 23.446 108.351 22.6876" stroke="var(--stroke-0, #263238)" stroke-linecap="round" stroke-linejoin="round"/>
<path id="Vector_39" d="M110.02 30.096C110.02 30.096 111.034 29.5452 112.072 26.9826C113.109 24.4199 112.934 23.5178 112.934 23.5178" stroke="var(--stroke-0, #263238)" stroke-linecap="round" stroke-linejoin="round"/>
<path id="Vector_40" d="M113.237 30.2956C113.237 30.2956 116.51 28.8985 116.43 24.0846" stroke="var(--stroke-0, #263238)" stroke-linecap="round" stroke-linejoin="round"/>
<path id="Vector_41" d="M126.322 74.7384C126.322 74.7384 50.864 93.6747 46.0661 93.6268C41.2681 93.5789 36.9173 89.9066 35.2248 91.6469C33.5324 93.3873 33.8517 97.7381 36.087 100.516C38.3223 103.294 43.6391 103.71 46.3854 103.271C49.1316 102.831 127.12 78.5224 127.12 78.5224L126.322 74.7384Z" fill="var(--fill-0, #263238)" stroke="var(--stroke-0, #263238)" stroke-linecap="round" stroke-linejoin="round"/>
<path id="Vector_42" d="M112.279 82.7775C114.396 82.7775 116.111 81.0619 116.111 78.9455C116.111 76.8292 114.396 75.1136 112.279 75.1136C110.163 75.1136 108.447 76.8292 108.447 78.9455C108.447 81.0619 110.163 82.7775 112.279 82.7775Z" fill="var(--fill-0, white)"/>
<path id="Vector_43" d="M131.782 77.0296C131.782 77.7527 131.568 78.4596 131.166 79.0609C130.764 79.6622 130.193 80.1308 129.525 80.4076C128.857 80.6843 128.122 80.7567 127.413 80.6156C126.703 80.4746 126.052 80.1263 125.541 79.615C125.029 79.1036 124.681 78.4521 124.54 77.7429C124.399 77.0336 124.471 76.2985 124.748 75.6304C125.025 74.9622 125.493 74.3912 126.095 73.9894C126.696 73.5877 127.403 73.3732 128.126 73.3732C129.096 73.3732 130.026 73.7585 130.711 74.4441C131.397 75.1298 131.782 76.0598 131.782 77.0296Z" fill="var(--fill-0, white)"/>
<path id="Vector_44" d="M121.684 82.2506C121.684 82.9738 121.469 83.6807 121.067 84.282C120.666 84.8832 120.095 85.3519 119.426 85.6286C118.758 85.9054 118.023 85.9778 117.314 85.8367C116.605 85.6956 115.953 85.3474 115.442 84.836C114.93 84.3247 114.582 83.6732 114.441 82.9639C114.3 82.2547 114.372 81.5195 114.649 80.8514C114.926 80.1833 115.395 79.6123 115.996 79.2105C116.597 78.8087 117.304 78.5943 118.027 78.5943C118.997 78.5943 119.927 78.9795 120.613 79.6652C121.298 80.3509 121.684 81.2809 121.684 82.2506Z" fill="var(--fill-0, white)"/>
<path id="Vector_45" d="M107.05 81.9951C107.05 82.4265 106.922 82.8482 106.682 83.2068C106.443 83.5654 106.102 83.8447 105.703 84.0094C105.304 84.1741 104.866 84.2168 104.443 84.1321C104.02 84.0473 103.631 83.839 103.327 83.5334C103.022 83.2278 102.815 82.8387 102.732 82.4154C102.649 81.9921 102.693 81.5537 102.86 81.1556C103.026 80.7575 103.306 80.4176 103.666 80.1791C104.025 79.9406 104.447 79.8142 104.879 79.8157C105.165 79.8157 105.448 79.8721 105.712 79.9818C105.976 80.0914 106.215 80.2521 106.417 80.4546C106.619 80.657 106.779 80.8973 106.887 81.1617C106.996 81.4261 107.051 81.7093 107.05 81.9951Z" fill="var(--fill-0, white)"/>
<path id="Vector_46" d="M101.566 85.9069C101.567 86.3386 101.441 86.7611 101.202 87.1208C100.963 87.4804 100.622 87.761 100.224 87.9269C99.8254 88.0928 99.3865 88.1367 98.963 88.0528C98.5395 87.969 98.1504 87.7613 97.8451 87.456C97.5399 87.1507 97.3321 86.7616 97.2483 86.3381C97.1644 85.9146 97.2083 85.4757 97.3742 85.0772C97.5402 84.6786 97.8207 84.3383 98.1804 84.0995C98.54 83.8606 98.9625 83.7339 99.3942 83.7355C99.9701 83.7355 100.522 83.9643 100.93 84.3715C101.337 84.7787 101.566 85.331 101.566 85.9069Z" fill="var(--fill-0, white)"/>
<path id="Vector_47" d="M111.752 85.2124C111.754 85.6441 111.627 86.0666 111.388 86.4262C111.149 86.7859 110.809 87.0664 110.41 87.2324C110.012 87.3983 109.573 87.4421 109.15 87.3583C108.726 87.2745 108.337 87.0667 108.032 86.7615C107.726 86.4562 107.519 86.0671 107.435 85.6436C107.351 85.2201 107.395 84.7812 107.561 84.3827C107.727 83.9841 108.007 83.6438 108.367 83.4049C108.727 83.1661 109.149 83.0394 109.581 83.041C110.157 83.041 110.709 83.2697 111.116 83.677C111.523 84.0842 111.752 84.6365 111.752 85.2124Z" fill="var(--fill-0, white)"/>
<path id="Vector_48" d="M122.115 79.6401C122.116 80.0718 121.99 80.4943 121.751 80.8539C121.512 81.2135 121.172 81.4941 120.773 81.66C120.374 81.826 119.936 81.8698 119.512 81.786C119.089 81.7021 118.699 81.4944 118.394 81.1891C118.089 80.8839 117.881 80.4948 117.797 80.0713C117.714 79.6478 117.757 79.2089 117.923 78.8103C118.089 78.4118 118.37 78.0715 118.729 77.8326C119.089 77.5937 119.512 77.4671 119.943 77.4686C120.519 77.4686 121.071 77.6974 121.479 78.1046C121.886 78.5119 122.115 79.0642 122.115 79.6401Z" fill="var(--fill-0, white)"/>
<path id="Vector_49" d="M117.508 83.1048C117.508 83.5362 117.38 83.9579 117.14 84.3164C116.9 84.675 116.56 84.9544 116.161 85.1191C115.762 85.2838 115.324 85.3265 114.901 85.2417C114.478 85.157 114.089 84.9486 113.785 84.643C113.48 84.3374 113.273 83.9484 113.19 83.5251C113.107 83.1018 113.151 82.6633 113.318 82.2652C113.484 81.8671 113.764 81.5273 114.124 81.2888C114.483 81.0503 114.905 80.9238 115.337 80.9254C115.913 80.9275 116.466 81.158 116.873 81.5665C117.28 81.975 117.508 82.5282 117.508 83.1048Z" fill="var(--fill-0, white)"/>
<path id="Vector_50" d="M197.061 55.355C197.061 55.355 137.187 71.6648 132.748 71.8245C128.31 71.9842 124.15 68.8148 122.61 70.4354C121.069 72.056 121.468 75.9359 123.607 78.3468C125.747 80.7577 130.72 80.9414 133.267 80.4464C135.814 79.9514 197.884 58.724 197.884 58.724L197.061 55.355Z" fill="var(--fill-0, #263238)" stroke="var(--stroke-0, #263238)" stroke-linecap="round" stroke-linejoin="round"/>
<path id="Vector_51" d="M194.826 58.3807C196.942 58.3807 198.658 56.6651 198.658 54.5487C198.658 52.4324 196.942 50.7168 194.826 50.7168C192.71 50.7168 190.994 52.4324 190.994 54.5487C190.994 56.6651 192.71 58.3807 194.826 58.3807Z" fill="var(--fill-0, white)"/>
<path id="Vector_52" d="M214.329 52.6328C214.329 53.3559 214.115 54.0628 213.713 54.6641C213.311 55.2654 212.74 55.734 212.072 56.0108C211.404 56.2875 210.669 56.3599 209.959 56.2188C209.25 56.0778 208.599 55.7295 208.087 55.2182C207.576 54.7068 207.228 54.0553 207.087 53.3461C206.946 52.6368 207.018 51.9016 207.295 51.2335C207.572 50.5654 208.04 49.9944 208.641 49.5926C209.243 49.1909 209.95 48.9764 210.673 48.9764C211.643 48.9764 212.573 49.3616 213.258 50.0473C213.944 50.733 214.329 51.663 214.329 52.6328Z" fill="var(--fill-0, white)"/>
<path id="Vector_53" d="M204.23 57.8538C204.23 58.5769 204.016 59.2838 203.614 59.8851C203.212 60.4864 202.641 60.955 201.973 61.2318C201.305 61.5085 200.57 61.581 199.861 61.4399C199.151 61.2988 198.5 60.9506 197.989 60.4392C197.477 59.9279 197.129 59.2763 196.988 58.5671C196.847 57.8578 196.919 57.1227 197.196 56.4546C197.473 55.7865 197.941 55.2154 198.543 54.8137C199.144 54.4119 199.851 54.1974 200.574 54.1974C201.544 54.1974 202.474 54.5827 203.159 55.2684C203.845 55.9541 204.23 56.8841 204.23 57.8538Z" fill="var(--fill-0, white)"/>
<path id="Vector_54" d="M189.605 57.5903C189.606 58.0217 189.48 58.4439 189.241 58.8033C189.003 59.1628 188.663 59.4434 188.265 59.6096C187.867 59.7757 187.428 59.8201 187.005 59.7369C186.582 59.6537 186.193 59.4467 185.887 59.1422C185.582 58.8378 185.373 58.4494 185.289 58.0265C185.204 57.6035 185.246 57.1649 185.411 56.7662C185.576 56.3675 185.855 56.0266 186.214 55.7868C186.572 55.5469 186.994 55.4189 187.425 55.4189C188.002 55.4189 188.555 55.6474 188.964 56.0544C189.372 56.4614 189.603 57.0137 189.605 57.5903Z" fill="var(--fill-0, white)"/>
<path id="Vector_55" d="M184.12 61.5101C184.12 61.9412 183.993 62.3626 183.753 62.721C183.514 63.0794 183.173 63.3587 182.775 63.5236C182.377 63.6886 181.939 63.7318 181.516 63.6477C181.093 63.5636 180.705 63.356 180.4 63.0512C180.095 62.7464 179.888 62.3581 179.803 61.9353C179.719 61.5125 179.763 61.0743 179.927 60.6761C180.092 60.2779 180.372 59.9375 180.73 59.698C181.089 59.4585 181.51 59.3307 181.941 59.3307C182.519 59.3307 183.073 59.5603 183.482 59.969C183.891 60.3778 184.12 60.9321 184.12 61.5101Z" fill="var(--fill-0, white)"/>
<path id="Vector_56" d="M194.275 60.8156C194.275 61.2466 194.147 61.668 193.908 62.0264C193.668 62.3848 193.328 62.6642 192.93 62.8291C192.532 62.9941 192.093 63.0372 191.671 62.9531C191.248 62.869 190.859 62.6615 190.555 62.3567C190.25 62.0519 190.042 61.6635 189.958 61.2408C189.874 60.818 189.917 60.3798 190.082 59.9816C190.247 59.5833 190.527 59.2429 190.885 59.0035C191.243 58.764 191.665 58.6362 192.096 58.6362C192.674 58.6362 193.228 58.8658 193.637 59.2745C194.046 59.6832 194.275 60.2376 194.275 60.8156Z" fill="var(--fill-0, white)"/>
<path id="Vector_57" d="M204.653 55.2433C204.653 55.6743 204.526 56.0957 204.286 56.4541C204.047 56.8125 203.706 57.0919 203.308 57.2568C202.91 57.4218 202.472 57.4649 202.049 57.3808C201.626 57.2967 201.238 57.0892 200.933 56.7844C200.628 56.4796 200.421 56.0912 200.336 55.6685C200.252 55.2457 200.296 54.8075 200.46 54.4092C200.625 54.011 200.905 53.6706 201.263 53.4312C201.622 53.1917 202.043 53.0639 202.474 53.0639C202.761 53.0628 203.044 53.1184 203.309 53.2276C203.574 53.3368 203.815 53.4973 204.017 53.6998C204.22 53.9024 204.381 54.1431 204.49 54.408C204.599 54.6729 204.654 54.9568 204.653 55.2433Z" fill="var(--fill-0, white)"/>
<path id="Vector_58" d="M200.063 58.708C200.063 59.1391 199.935 59.5604 199.696 59.9188C199.456 60.2772 199.116 60.5566 198.718 60.7215C198.319 60.8865 197.881 60.9296 197.458 60.8455C197.036 60.7615 196.647 60.5539 196.342 60.2491C196.038 59.9443 195.83 59.556 195.746 59.1332C195.662 58.7104 195.705 58.2722 195.87 57.874C196.035 57.4757 196.314 57.1354 196.673 56.8959C197.031 56.6564 197.453 56.5286 197.884 56.5286C198.17 56.5275 198.454 56.5832 198.719 56.6923C198.984 56.8015 199.224 56.962 199.427 57.1646C199.63 57.3672 199.79 57.6078 199.899 57.8727C200.008 58.1376 200.064 58.4215 200.063 58.708Z" fill="var(--fill-0, white)"/>
<path id="Vector_59" d="M171.579 59.7698C171.579 60.5277 171.354 61.2686 170.933 61.8987C170.512 62.5289 169.913 63.02 169.213 63.3101C168.513 63.6001 167.743 63.676 166.999 63.5281C166.256 63.3803 165.573 63.0153 165.037 62.4794C164.501 61.9435 164.136 61.2607 163.988 60.5174C163.841 59.774 163.917 59.0036 164.207 58.3034C164.497 57.6032 164.988 57.0047 165.618 56.5836C166.248 56.1626 166.989 55.9378 167.747 55.9378C168.25 55.9368 168.749 56.0352 169.214 56.2274C169.68 56.4196 170.103 56.7018 170.459 57.0578C170.815 57.4139 171.097 57.8367 171.289 58.3021C171.481 58.7675 171.58 59.2663 171.579 59.7698Z" fill="var(--fill-0, white)"/>
<path id="Vector_60" d="M187.258 57.8538C187.259 58.5789 187.046 59.2881 186.644 59.8918C186.243 60.4954 185.671 60.9663 185.001 61.2448C184.332 61.5234 183.595 61.5971 182.884 61.4566C182.172 61.3161 181.519 60.9678 181.005 60.4557C180.492 59.9435 180.142 59.2906 180 58.5796C179.858 57.8686 179.93 57.1314 180.207 56.4614C180.485 55.7913 180.954 55.2186 181.557 54.8156C182.16 54.4126 182.868 54.1975 183.594 54.1974C184.564 54.1974 185.495 54.5824 186.182 55.2679C186.869 55.9534 187.256 56.8833 187.258 57.8538Z" fill="var(--fill-0, white)"/>
<path id="Vector_61" d="M177.151 63.0749C177.151 63.798 176.937 64.5049 176.535 65.1062C176.133 65.7075 175.562 66.1761 174.894 66.4529C174.226 66.7296 173.491 66.802 172.781 66.6609C172.072 66.5198 171.421 66.1716 170.909 65.6603C170.398 65.1489 170.05 64.4974 169.909 63.7882C169.768 63.0789 169.84 62.3437 170.117 61.6756C170.393 61.0075 170.862 60.4365 171.463 60.0347C172.065 59.633 172.772 59.4185 173.495 59.4185C174.464 59.4185 175.394 59.8038 176.08 60.4894C176.766 61.1751 177.151 62.1051 177.151 63.0749Z" fill="var(--fill-0, white)"/>
<path id="Vector_62" d="M162.526 62.8194C162.526 63.2504 162.398 63.6718 162.158 64.0302C161.919 64.3886 161.579 64.6679 161.18 64.8329C160.782 64.9979 160.344 65.041 159.921 64.9569C159.498 64.8728 159.11 64.6653 158.805 64.3605C158.5 64.0557 158.293 63.6673 158.209 63.2446C158.125 62.8218 158.168 62.3836 158.333 61.9853C158.498 61.5871 158.777 61.2467 159.135 61.0072C159.494 60.7678 159.915 60.6399 160.346 60.6399C160.633 60.6389 160.917 60.6945 161.182 60.8037C161.446 60.9128 161.687 61.0733 161.89 61.2759C162.092 61.4785 162.253 61.7192 162.362 61.9841C162.471 62.249 162.527 62.5329 162.526 62.8194Z" fill="var(--fill-0, white)"/>
<path id="Vector_63" d="M157.041 66.7312C157.043 67.1626 156.916 67.5847 156.678 67.9442C156.439 68.3036 156.1 68.5842 155.701 68.7504C155.303 68.9166 154.865 68.9609 154.442 68.8777C154.018 68.7945 153.629 68.5875 153.324 68.2831C153.018 67.9786 152.81 67.5903 152.725 67.1673C152.64 66.7443 152.683 66.3057 152.848 65.907C153.012 65.5083 153.292 65.1674 153.65 64.9276C154.009 64.6878 154.431 64.5597 154.862 64.5597C155.439 64.5597 155.992 64.7882 156.4 65.1952C156.809 65.6022 157.039 66.1545 157.041 66.7312Z" fill="var(--fill-0, white)"/>
<path id="Vector_64" d="M167.228 66.0366C167.23 66.468 167.103 66.8902 166.865 67.2496C166.626 67.6091 166.286 67.8896 165.888 68.0558C165.49 68.222 165.052 68.2663 164.628 68.1831C164.205 68.0999 163.816 67.893 163.51 67.5885C163.205 67.284 162.996 66.8957 162.912 66.4727C162.827 66.0498 162.869 65.6111 163.034 65.2124C163.199 64.8137 163.478 64.4729 163.837 64.233C164.195 63.9932 164.617 63.8652 165.049 63.8652C165.625 63.8652 166.178 64.0937 166.587 64.5007C166.995 64.9077 167.226 65.46 167.228 66.0366Z" fill="var(--fill-0, white)"/>
<path id="Vector_65" d="M177.59 60.4643C177.592 60.8957 177.465 61.3179 177.227 61.6773C176.988 62.0368 176.648 62.3174 176.25 62.4835C175.852 62.6497 175.414 62.694 174.99 62.6108C174.567 62.5276 174.178 62.3207 173.873 62.0162C173.567 61.7117 173.359 61.3234 173.274 60.9004C173.189 60.4775 173.232 60.0388 173.396 59.6401C173.561 59.2414 173.841 58.9006 174.199 58.6607C174.558 58.4209 174.979 58.2929 175.411 58.2929C175.987 58.2929 176.541 58.5214 176.949 58.9284C177.358 59.3354 177.588 59.8877 177.59 60.4643Z" fill="var(--fill-0, white)"/>
<path id="Vector_66" d="M172.984 63.929C172.982 64.3597 172.853 64.7803 172.613 65.1377C172.372 65.495 172.031 65.7731 171.633 65.9369C171.235 66.1006 170.797 66.1426 170.374 66.0576C169.952 65.9726 169.565 65.7644 169.261 65.4593C168.957 65.1542 168.75 64.7659 168.666 64.3433C168.583 63.9208 168.626 63.483 168.792 63.0852C168.957 62.6874 169.236 62.3475 169.594 62.1084C169.953 61.8693 170.374 61.7416 170.804 61.7416C171.091 61.7416 171.375 61.7983 171.64 61.9083C171.905 62.0183 172.146 62.1796 172.348 62.3828C172.551 62.586 172.711 62.8272 172.82 63.0926C172.929 63.3579 172.985 63.6422 172.984 63.929Z" fill="var(--fill-0, white)"/>
</g>
</svg>
