<svg preserveAspectRatio="none" width="100%" height="100%" overflow="visible" style="display: block;" viewBox="0 0 271.4 224.241" fill="none" xmlns="http://www.w3.org/2000/svg">
<g id="Group 10">
<path id="Vector" d="M51.08 52.72L59.08 53.61L68.02 61.61L75.16 64.29L81.42 62.51L104.65 79.51L135.92 16.09H175.27L185.1 0L199.4 2.68001L271.4 101.13C266.939 117.26 259.748 132.507 250.14 146.21C248.38 148.65 246.55 151.043 244.65 153.39C207.41 199.17 142.29 224.39 84.91 224.24C57.17 224.19 25.78 218.37 0 204.31L51.08 52.72Z" fill="var(--fill-0, #3FD0D4)"/>
<path id="Vector_2" d="M175.28 16.09L185.1 0L199.4 2.68001L256.19 80.32L256.86 83.41L222.86 44.41L219.86 64.41L209.86 57.41L207.86 62.41L190.86 46.41L183.86 101.41L164.86 84.41L158.86 100.41L140.86 88.41L134.86 102.41L124.86 81.41L122.86 89.41L112.86 71.41L104.69 79.52L135.96 16.09H175.28Z" fill="var(--fill-0, #99FCFF)"/>
<path id="Vector_3" d="M75.86 121.41L69.86 104.41L63.86 116.41L50.86 91.4101L38.86 121.41L34.79 101.07L51.08 52.7201L59.12 53.6101L68.05 61.6501L75.2 64.3401L81.46 62.5501L104.69 79.5201L152.86 128.41L110.86 110.41L108.86 128.41L103.86 129.41L88.86 110.41L84.86 125.41L75.86 121.41Z" fill="var(--fill-0, #99FCFF)"/>
</g>
</svg>
