<svg width="24" height="24" viewBox="0 0 24 24" fill="none" xmlns="http://www.w3.org/2000/svg">
<path d="M8.25 21.75C9.07843 21.75 9.75 21.0784 9.75 20.25C9.75 19.4216 9.07843 18.75 8.25 18.75C7.42157 18.75 6.75 19.4216 6.75 20.25C6.75 21.0784 7.42157 21.75 8.25 21.75Z" fill="#111111"/>
<path d="M18 21.75C18.8284 21.75 19.5 21.0784 19.5 20.25C19.5 19.4216 18.8284 18.75 18 18.75C17.1716 18.75 16.5 19.4216 16.5 20.25C16.5 21.0784 17.1716 21.75 18 21.75Z" fill="#111111"/>
<path d="M3.75 2.25C4.08689 2.25 4.38272 2.47472 4.4729 2.79932L5.36206 6H21.75C21.9843 6 22.2051 6.10945 22.3469 6.2959C22.4888 6.4824 22.5355 6.7249 22.4729 6.95068L20.075 15.6013L20.0742 15.6021C19.9426 16.0759 19.6594 16.4939 19.2678 16.7915C18.9253 17.0518 18.5164 17.2078 18.0901 17.2427L17.9062 17.25H8.63965C8.14802 17.2498 7.67013 17.0884 7.27881 16.7908C6.88749 16.4932 6.60395 16.0758 6.47241 15.6021L3.17944 3.75H1.5C1.08579 3.75 0.75 3.41421 0.75 3C0.75 2.58579 1.08579 2.25 1.5 2.25H3.75ZM7.91821 15.2007C7.96204 15.3585 8.05599 15.4977 8.18628 15.5969C8.31673 15.6961 8.47649 15.7499 8.64038 15.75H17.9062C18.0702 15.75 18.2298 15.6961 18.3604 15.5969C18.4908 15.4977 18.5853 15.3586 18.6292 15.2007L20.7634 7.5H5.77881L7.91821 15.2007Z" fill="#111111"/>
</svg>
