<svg width="24" height="24" viewBox="0 0 24 24" fill="none" xmlns="http://www.w3.org/2000/svg">
<path d="M23.7 14.0766C23.6284 13.8754 23.5443 13.679 23.4482 13.4884L18.9921 3.27723C18.95 3.17888 18.8896 3.08952 18.8143 3.01391C18.4959 2.69315 18.1179 2.4387 17.7019 2.26511C17.2859 2.09151 16.84 2.00216 16.3896 2.00216C15.9393 2.00216 15.4934 2.09151 15.0774 2.26511C14.6614 2.4387 14.2834 2.69315 13.965 3.01391C13.8048 3.17543 13.7147 3.39427 13.7143 3.62257V6.32052H10.2857V3.62257C10.2858 3.50916 10.2637 3.39684 10.2207 3.29204C10.1777 3.18723 10.1146 3.09199 10.035 3.01175C9.71662 2.69099 9.33862 2.43655 8.9226 2.26295C8.50657 2.08935 8.06067 2 7.61036 2C7.16005 2 6.71414 2.08935 6.29812 2.26295C5.88209 2.43655 5.5041 2.69099 5.18571 3.01175C5.11037 3.08736 5.05001 3.17672 5.00786 3.27507L0.551786 13.4863C0.455665 13.6768 0.37157 13.8732 0.3 14.0744C0.0476788 14.7855 -0.0472293 15.5436 0.0219244 16.2956C0.091078 17.0475 0.322621 17.7751 0.700334 18.4275C1.07805 19.0798 1.59279 19.641 2.20852 20.0719C2.82424 20.5028 3.52604 20.7928 4.26477 20.9218C5.0035 21.0507 5.76128 21.0154 6.48504 20.8183C7.20879 20.6212 7.88101 20.2672 8.45461 19.7809C9.02821 19.2946 9.48931 18.6879 9.80562 18.0032C10.1219 17.3185 10.2858 16.5725 10.2857 15.8173V8.04721H13.7143V15.8173C13.7139 16.5726 13.8775 17.3188 14.1936 18.0036C14.5097 18.6885 14.9706 19.2955 15.5442 19.782C16.1177 20.2685 16.7899 20.6228 17.5137 20.8201C18.2375 21.0174 18.9953 21.0529 19.7342 20.9241C20.473 20.7953 21.175 20.5054 21.7908 20.0745C22.4067 19.6437 22.9216 19.0824 23.2994 18.4301C23.6772 17.7777 23.9088 17.05 23.9781 16.298C24.0473 15.546 23.9524 14.7878 23.7 14.0766ZM6.50464 4.13518C6.79041 3.89282 7.14696 3.75112 7.52004 3.73164C7.89312 3.71216 8.26231 3.81596 8.57143 4.02726V11.9603C7.90222 11.3551 7.08683 10.9376 6.20698 10.7497C5.32712 10.5618 4.4137 10.6101 3.55821 10.8898L6.50464 4.13518ZM5.14286 19.2707C4.46475 19.2707 3.80187 19.0682 3.23805 18.6887C2.67422 18.3092 2.23477 17.7699 1.97527 17.1389C1.71577 16.5078 1.64787 15.8135 1.78017 15.1436C1.91246 14.4737 2.239 13.8584 2.71849 13.3754C3.19799 12.8924 3.8089 12.5635 4.47398 12.4303C5.13905 12.297 5.82843 12.3654 6.45492 12.6268C7.08141 12.8882 7.61687 13.3308 7.99361 13.8987C8.37035 14.4666 8.57143 15.1343 8.57143 15.8173C8.57143 16.7332 8.21021 17.6116 7.56722 18.2592C6.92424 18.9069 6.05217 19.2707 5.14286 19.2707ZM15.4286 4.02618C15.7377 3.81488 16.1069 3.71108 16.48 3.73056C16.853 3.75004 17.2096 3.89174 17.4954 4.1341L20.4418 10.8876C19.5862 10.6081 18.6727 10.56 17.7929 10.748C16.913 10.9361 16.0977 11.3538 15.4286 11.9592V4.02618ZM18.8571 19.2707C18.179 19.2707 17.5162 19.0682 16.9523 18.6887C16.3885 18.3092 15.9491 17.7699 15.6896 17.1389C15.4301 16.5078 15.3622 15.8135 15.4945 15.1436C15.6267 14.4737 15.9533 13.8584 16.4328 13.3754C16.9123 12.8924 17.5232 12.5635 18.1883 12.4303C18.8533 12.297 19.5427 12.3654 20.1692 12.6268C20.7957 12.8882 21.3312 13.3308 21.7079 13.8987C22.0846 14.4666 22.2857 15.1343 22.2857 15.8173C22.2857 16.7332 21.9245 17.6116 21.2815 18.2592C20.6385 18.9069 19.7665 19.2707 18.8571 19.2707Z" fill="black"/>
</svg>
