<svg preserveAspectRatio="none" width="100%" height="100%" overflow="visible" style="display: block;" viewBox="0 0 16.7547 28.5098" fill="none" xmlns="http://www.w3.org/2000/svg">
<g id="freepik--Fish--inject-2">
<path id="Vector" d="M15.5655 9.99823C15.8556 11.4665 16.8096 12.5128 16.1545 14.258C15.4995 16.0033 13.3455 18.342 11.5431 19.1464C9.74068 19.9509 8.40425 19.9465 6.60187 20.074C8.67681 18.9706 10.8045 18.131 12.4003 16.3637C13.9961 14.5965 14.8005 12.2534 15.5655 9.99823Z" fill="var(--fill-0, #92E3A9)"/>
<path id="Vector_2" opacity="0.12" d="M15.5655 9.99823C15.8556 11.4665 16.8096 12.5128 16.1545 14.258C15.4995 16.0033 13.3455 18.342 11.5431 19.1464C9.74068 19.9509 8.40425 19.9465 6.60187 20.074C8.67681 18.9706 10.8045 18.131 12.4003 16.3637C13.9961 14.5965 14.8005 12.2534 15.5655 9.99823Z" fill="var(--fill-0, black)"/>
<path id="Vector_3" d="M15.5655 9.99823C15.8556 11.4665 16.8096 12.5128 16.1545 14.258C15.4995 16.0033 13.3455 18.342 11.5431 19.1464C9.74068 19.9509 8.40425 19.9465 6.60187 20.074C8.67681 18.9706 10.8045 18.131 12.4003 16.3637C13.9961 14.5965 14.8005 12.2534 15.5655 9.99823Z" stroke="var(--stroke-0, #263238)" stroke-width="0.75" stroke-linecap="round" stroke-linejoin="round"/>
<path id="Vector_4" d="M15.2753 11.484C15.4457 11.9153 15.5925 12.3556 15.7149 12.8029" stroke="var(--stroke-0, #263238)" stroke-width="0.75" stroke-linecap="round" stroke-linejoin="round"/>
<path id="Vector_5" d="M15.0335 12.9612C15.2094 13.4535 15.3808 13.9503 15.5567 14.447" stroke="var(--stroke-0, #263238)" stroke-width="0.75" stroke-linecap="round" stroke-linejoin="round"/>
<path id="Vector_6" d="M14.5148 13.5063C14.6511 13.8316 14.7962 14.1525 14.9192 14.4822" stroke="var(--stroke-0, #263238)" stroke-width="0.75" stroke-linecap="round" stroke-linejoin="round"/>
<path id="Vector_7" d="M13.8906 14.7987C14.0532 15.2867 14.2071 15.7702 14.3609 16.2626" stroke="var(--stroke-0, #263238)" stroke-width="0.75" stroke-linecap="round" stroke-linejoin="round"/>
<path id="Vector_8" d="M12.6509 16.5219C12.8355 16.8736 13.0069 17.2341 13.1828 17.5902" stroke="var(--stroke-0, #263238)" stroke-width="0.75" stroke-linecap="round" stroke-linejoin="round"/>
<path id="Vector_9" d="M11.8068 17.2561C11.9651 17.5727 12.1189 17.8892 12.2684 18.2101" stroke="var(--stroke-0, #263238)" stroke-width="0.75" stroke-linecap="round" stroke-linejoin="round"/>
<path id="Vector_10" d="M11.3672 18.3596C11.4463 18.509 11.5255 18.6629 11.6134 18.7992" stroke="var(--stroke-0, #263238)" stroke-width="0.75" stroke-linecap="round" stroke-linejoin="round"/>
<path id="Vector_11" d="M15.0643 14.7415C15.1039 14.8602 15.1434 14.9745 15.1786 15.0932" stroke="var(--stroke-0, #263238)" stroke-width="0.75" stroke-linecap="round" stroke-linejoin="round"/>
<path id="Vector_12" d="M10.299 18.9574C10.3385 19.0453 10.3825 19.1332 10.422 19.2255" stroke="var(--stroke-0, #263238)" stroke-width="0.75" stroke-linecap="round" stroke-linejoin="round"/>
<path id="Vector_13" d="M9.6967 0.463119C8.50097 3.97997 7.36238 8.07271 6.00399 11.4093C4.64561 14.7459 2.39044 16.7989 1.09799 19.9553C0.627616 21.0983 0.658393 21.7753 0.41661 23.1073C0.174826 24.4393 1.37494 26.4351 2.05633 27.3978C2.73772 28.3606 3.19052 28.277 3.59936 27.6792C4.00819 27.0813 2.03436 23.8502 3.2125 24.4085C4.39065 24.9668 3.39273 26.0658 4.13127 26.989C4.8698 27.9122 5.80179 26.4615 5.71827 25.2657C5.63474 24.07 3.9906 22.6545 4.35987 21.2697C4.72914 19.885 8.75594 19.8586 10.954 18.4255C13.152 16.9923 15.86 11.6775 15.4863 8.72333C15.101 6.04747 13.993 3.52744 12.2816 1.43466C11.0111 -0.00285416 11.2397 0.757657 10.2726 0.863163C10.3517 0.515874 10.1187 0.247712 9.6967 0.463119Z" fill="var(--fill-0, #92E3A9)" stroke="var(--stroke-0, #263238)" stroke-width="0.75" stroke-linecap="round" stroke-linejoin="round"/>
<path id="Vector_14" d="M5.68311 25.2745C5.43693 24.1096 4.41704 22.5797 4.22361 21.2829C4.21316 21.2396 4.21316 21.1943 4.22361 21.151C3.53343 21.4192 3.13339 22.9314 2.39046 22.7863C1.45849 22.6061 1.15956 21.5159 1.12439 20.6806C1.05845 20.6455 0.983701 20.6543 0.91776 20.6147C0.668681 21.4209 0.492157 22.2477 0.390254 23.0853C0.231995 24.5228 1.3398 26.3955 2.03878 27.3934C2.73775 28.3913 3.17295 28.2726 3.58618 27.6792C3.99941 27.0857 2.03436 23.8458 3.19492 24.4085C4.35548 24.9712 3.41912 26.057 4.10491 26.989C4.7907 27.921 5.93369 26.4307 5.68311 25.2745Z" fill="var(--fill-0, #92E3A9)"/>
<path id="Vector_15" opacity="0.12" d="M5.68311 25.2745C5.43693 24.1096 4.41704 22.5797 4.22361 21.2829C4.21316 21.2396 4.21316 21.1943 4.22361 21.151C3.53343 21.4192 3.13339 22.9314 2.39046 22.7863C1.45849 22.6061 1.15956 21.5159 1.12439 20.6806C1.05845 20.6455 0.983701 20.6543 0.91776 20.6147C0.668681 21.4209 0.492157 22.2477 0.390254 23.0853C0.231995 24.5228 1.3398 26.3955 2.03878 27.3934C2.73775 28.3913 3.17295 28.2726 3.58618 27.6792C3.99941 27.0857 2.03436 23.8458 3.19492 24.4085C4.35548 24.9712 3.41912 26.057 4.10491 26.989C4.7907 27.921 5.93369 26.4307 5.68311 25.2745Z" fill="var(--fill-0, black)"/>
<path id="Vector_16" d="M5.68311 25.2745C5.43693 24.1096 4.41704 22.5797 4.22361 21.2829C4.21316 21.2396 4.21316 21.1943 4.22361 21.151C3.53343 21.4192 3.13339 22.9314 2.39046 22.7863C1.45849 22.6061 1.15956 21.5159 1.12439 20.6806C1.05845 20.6455 0.983701 20.6543 0.91776 20.6147C0.668681 21.4209 0.492157 22.2477 0.390254 23.0853C0.231995 24.5228 1.3398 26.3955 2.03878 27.3934C2.73775 28.3913 3.17295 28.2726 3.58618 27.6792C3.99941 27.0857 2.03436 23.8458 3.19492 24.4085C4.35548 24.9712 3.41912 26.057 4.10491 26.989C4.7907 27.921 5.93369 26.4307 5.68311 25.2745Z" stroke="var(--stroke-0, #263238)" stroke-width="0.75" stroke-linecap="round" stroke-linejoin="round"/>
<path id="Vector_17" d="M1.15517 21.595C0.829863 22.439 1.02328 23.4501 1.25627 24.2898" stroke="var(--stroke-0, #263238)" stroke-width="0.75" stroke-linecap="round" stroke-linejoin="round"/>
<path id="Vector_18" d="M1.51563 22.1841C1.45775 22.6037 1.45035 23.0288 1.49363 23.4502" stroke="var(--stroke-0, #263238)" stroke-width="0.75" stroke-linecap="round" stroke-linejoin="round"/>
<path id="Vector_19" d="M2.00361 22.8259C1.98147 23.2111 2.03066 23.5972 2.14869 23.9645" stroke="var(--stroke-0, #263238)" stroke-width="0.75" stroke-linecap="round" stroke-linejoin="round"/>
<path id="Vector_20" d="M2.39923 22.8259C2.50034 23.1556 2.61466 23.4765 2.72456 23.8018" stroke="var(--stroke-0, #263238)" stroke-width="0.75" stroke-linecap="round" stroke-linejoin="round"/>
<path id="Vector_21" d="M3.07184 22.5973C3.19635 22.9555 3.35688 23.3002 3.55099 23.626" stroke="var(--stroke-0, #263238)" stroke-width="0.75" stroke-linecap="round" stroke-linejoin="round"/>
<path id="Vector_22" d="M3.52025 21.9071C3.86022 22.5962 4.28717 23.2389 4.79069 23.8194" stroke="var(--stroke-0, #263238)" stroke-width="0.75" stroke-linecap="round" stroke-linejoin="round"/>
<path id="Vector_23" d="M12.1937 1.31596C11.3452 0.507081 10.9848 0.388387 10.2814 0.876351C10.3342 0.46312 10.1231 0.265297 9.70549 0.436744C9.26588 1.65445 8.9142 2.87656 8.5845 4.12944C9.41535 5.15372 10.3429 6.06371 11.7672 6.01535C12.2732 5.9987 12.7676 5.86011 13.2084 5.61137C13.6493 5.36262 14.0236 5.01107 14.2994 4.58663C13.76 3.39993 13.0507 2.29814 12.1937 1.31596Z" fill="var(--fill-0, #92E3A9)"/>
<path id="Vector_24" opacity="0.12" d="M12.1937 1.31596C11.3452 0.507081 10.9848 0.388387 10.2814 0.876351C10.3342 0.46312 10.1231 0.265297 9.70549 0.436744C9.26588 1.65445 8.9142 2.87656 8.5845 4.12944C9.41535 5.15372 10.3429 6.06371 11.7672 6.01535C12.2732 5.9987 12.7676 5.86011 13.2084 5.61137C13.6493 5.36262 14.0236 5.01107 14.2994 4.58663C13.76 3.39993 13.0507 2.29814 12.1937 1.31596Z" fill="var(--fill-0, black)"/>
<path id="Vector_25" d="M12.1937 1.31596C11.3452 0.507081 10.9848 0.388387 10.2814 0.876351C10.3342 0.46312 10.1231 0.265297 9.70549 0.436744C9.26588 1.65445 8.9142 2.87656 8.5845 4.12944C9.41535 5.15372 10.3429 6.06371 11.7672 6.01535C12.2732 5.9987 12.7676 5.86011 13.2084 5.61137C13.6493 5.36262 14.0236 5.01107 14.2994 4.58663C13.76 3.39993 13.0507 2.29814 12.1937 1.31596Z" stroke="var(--stroke-0, #263238)" stroke-width="0.75" stroke-linecap="round" stroke-linejoin="round"/>
<path id="Vector_26" d="M12.075 2.30066C12.0665 2.3596 12.0462 2.41622 12.0152 2.46707C11.9842 2.51792 11.9433 2.56195 11.8947 2.59648C11.8462 2.63101 11.7912 2.65533 11.733 2.66796C11.6748 2.68058 11.6147 2.68126 11.5562 2.66994C11.431 2.64945 11.3189 2.58007 11.2447 2.47704C11.1705 2.37401 11.1403 2.24576 11.1606 2.12043C11.17 2.06137 11.1914 2.00484 11.2234 1.95431C11.2554 1.90378 11.2973 1.86031 11.3467 1.82656C11.3961 1.79282 11.4518 1.7695 11.5105 1.75805C11.5693 1.74659 11.6297 1.74725 11.6881 1.75995C11.7493 1.76954 11.8079 1.7912 11.8606 1.82369C11.9133 1.85618 11.9589 1.89884 11.995 1.94918C12.031 1.99952 12.0566 2.05652 12.0703 2.11687C12.0841 2.17721 12.0856 2.23969 12.075 2.30066Z" fill="var(--fill-0, white)" stroke="var(--stroke-0, #263238)" stroke-width="0.75" stroke-linecap="round" stroke-linejoin="round"/>
<path id="Vector_27" d="M11.8464 2.19074C11.8359 2.24379 11.8048 2.2905 11.7598 2.32059C11.7149 2.35068 11.6599 2.3617 11.6068 2.3512C11.5538 2.34071 11.5071 2.30957 11.477 2.26464C11.4469 2.21971 11.4359 2.16466 11.4464 2.11161C11.451 2.08595 11.4609 2.06152 11.4752 2.03976C11.4896 2.018 11.5083 1.99937 11.53 1.98499C11.5518 1.97062 11.5763 1.9608 11.6019 1.95612C11.6276 1.95144 11.6539 1.95199 11.6794 1.95775C11.7057 1.96201 11.7308 1.97144 11.7535 1.98548C11.7761 1.99951 11.7958 2.01788 11.8113 2.03953C11.8268 2.06118 11.8379 2.08569 11.8439 2.11164C11.85 2.13759 11.8508 2.16446 11.8464 2.19074Z" fill="var(--fill-0, #263238)"/>
<path id="Vector_28" d="M11.0419 8.0859C10.444 8.13865 9.39338 8.73212 8.97575 8.96511C8.55813 9.1981 6.83926 9.84432 7.05027 10.2839C7.26129 10.7235 8.14491 11.8006 8.90103 11.4269C9.65715 11.0532 10.7474 9.5454 11.2617 8.7629" fill="var(--fill-0, #92E3A9)"/>
<path id="Vector_29" opacity="0.12" d="M11.0419 8.0859C10.444 8.13865 9.39338 8.73212 8.97575 8.96511C8.55813 9.1981 6.83926 9.84432 7.05027 10.2839C7.26129 10.7235 8.14491 11.8006 8.90103 11.4269C9.65715 11.0532 10.7474 9.5454 11.2617 8.7629" fill="var(--fill-0, black)"/>
<path id="Vector_30" d="M11.0419 8.0859C10.444 8.13865 9.39338 8.73212 8.97575 8.96511C8.55813 9.1981 6.83926 9.84432 7.05027 10.2839C7.26129 10.7235 8.14491 11.8006 8.90103 11.4269C9.65715 11.0532 10.7474 9.5454 11.2617 8.7629" stroke="var(--stroke-0, #263238)" stroke-width="0.75" stroke-linecap="round" stroke-linejoin="round"/>
<path id="Vector_31" d="M11.1518 7.83969C11.1058 8.01386 11.1107 8.19759 11.166 8.36904C11.2214 8.54048 11.3248 8.69243 11.4639 8.80683C11.7101 8.93432 11.8596 8.87277 11.9035 8.69693" stroke="var(--stroke-0, #263238)" stroke-width="0.75" stroke-linecap="round" stroke-linejoin="round"/>
<path id="Vector_32" d="M11.0595 8.0771C10.3755 8.58686 9.6489 9.03691 8.88783 9.42229" stroke="var(--stroke-0, #263238)" stroke-width="0.75" stroke-linecap="round" stroke-linejoin="round"/>
<path id="Vector_33" d="M10.7913 8.54311C10.2387 9.1409 9.60541 9.65876 8.9098 10.0817" stroke="var(--stroke-0, #263238)" stroke-width="0.75" stroke-linecap="round" stroke-linejoin="round"/>
<path id="Vector_34" d="M11.0639 8.55191C10.8221 8.92118 10.5539 9.27726 10.2858 9.62895" stroke="var(--stroke-0, #263238)" stroke-width="0.75" stroke-linecap="round" stroke-linejoin="round"/>
<path id="Vector_35" d="M9.44173 12.8029C9.25709 14.6756 5.25668 16.9968 4.47858 17.4847C3.70048 17.9727 1.36615 20.8301 2.6542 20.1927C3.94225 19.5553 8.27238 16.5176 9.52966 15.6208C10.7869 14.724 10.9891 11.3918 9.44173 12.8029Z" fill="var(--fill-0, white)"/>
<path id="Vector_36" d="M12.7476 2.88096C12.9384 3.33726 12.9769 3.84292 12.8575 4.32287C12.7432 4.80643 11.587 5.03503 11.6881 5.42628C11.7892 5.81753 12.5674 5.36035 12.9454 5.19769C13.3235 5.03504 13.7895 4.38881 13.596 3.99316C13.4026 3.59751 12.9762 2.63917 12.7476 2.88096Z" fill="var(--fill-0, white)"/>
<path id="Vector_37" d="M13.9301 6.23514C15.1654 8.19579 14.3697 11.4709 13.7235 13.1809C13.0773 14.891 8.1273 17.2385 9.81979 17.9507C11.5123 18.6628 13.6839 14.5305 14.3521 12.9963C15.0203 11.4621 15.3676 8.11666 14.8357 6.81103C14.3038 5.5054 14.4445 5.71641 13.9301 6.23514Z" fill="var(--fill-0, white)"/>
</g>
</svg>
