<svg preserveAspectRatio="none" width="100%" height="100%" overflow="visible" style="display: block;" viewBox="0 0 46.3144 127.802" fill="none" xmlns="http://www.w3.org/2000/svg">
<g id="freepik--character-5--inject-4">
<path id="Vector" d="M20.4516 11.8052C20.4516 11.8052 18.4422 12.3292 17.3022 11.3677C16.1621 10.4061 16.1506 7.78061 17.4807 5.9439C18.8107 4.10719 24.649 0.761961 28.4951 0.520137C32.3413 0.278314 37.5059 2.24745 38.0299 4.63114C38.5538 7.01483 35.318 18.012 35.318 18.012L32.7846 19.5839C30.9282 18.2242 29.1465 16.7654 27.4472 15.2138C26.0445 13.842 24.4188 12.7186 22.6396 11.8916C21.9273 11.6905 21.1775 11.6609 20.4516 11.8052Z" fill="var(--fill-0, #263238)" stroke="var(--stroke-0, #263238)" stroke-linecap="round" stroke-linejoin="round"/>
<path id="Vector_2" d="M30.2282 92.6089C30.5895 93.4454 30.8616 94.3177 31.04 95.2113C31.2949 96.3134 31.62 97.398 32.0131 98.4587C32.0131 98.4587 32.9113 115.024 32.7443 118.352C32.5773 121.679 32.5831 123.309 32.3413 123.533C32.0994 123.758 29.0076 124.587 27.3033 125.157C25.599 125.727 23.3996 126.7 24.2114 127.109C25.0232 127.518 37.2986 127.109 37.2986 127.109C37.2986 127.109 38.1105 127.593 38.2717 126.211C38.4329 124.829 37.2986 124.017 37.6211 122.071C37.9435 120.125 39.9817 114.269 40.4654 109.98C40.949 105.69 40.143 96.5874 40.143 95.0443C40.143 93.5013 40.3042 91.7107 40.3042 91.7107L30.2282 92.6089Z" fill="var(--fill-0, white)" stroke="var(--stroke-0, #263238)" stroke-linecap="round" stroke-linejoin="round"/>
<path id="Vector_3" d="M38.2717 126.234C38.3101 125.891 38.2768 125.544 38.1738 125.215C37.0856 125.313 34.535 125.503 34.535 125.503C34.2219 125.068 33.9501 124.606 33.7231 124.121C33.672 123.991 33.5953 123.872 33.4976 123.773C33.3998 123.673 33.283 123.594 33.1541 123.54C33.0252 123.487 32.8869 123.459 32.7472 123.46C32.6076 123.461 32.4695 123.49 32.3413 123.545C32.0994 123.787 29.0076 124.599 27.3033 125.169C25.599 125.739 23.3996 126.712 24.2114 127.121C25.0232 127.529 37.2986 127.121 37.2986 127.121C37.2986 127.121 38.1105 127.616 38.2717 126.234Z" fill="var(--fill-0, #66DE88)" stroke="var(--stroke-0, #263238)" stroke-linecap="round" stroke-linejoin="round"/>
<path id="Vector_4" d="M28.5239 92.6089C28.8886 93.4442 29.1608 94.3169 29.3358 95.2113C29.5909 96.314 29.9179 97.3987 30.3146 98.4587C30.3146 98.4587 31.207 115.024 31.0458 118.352C30.8846 121.68 30.8846 123.309 30.637 123.533C30.3894 123.758 27.3091 124.587 25.599 125.157C23.889 125.727 21.701 126.7 22.5129 127.109C23.3247 127.518 35.5944 127.109 35.5944 127.109C35.5944 127.109 36.4062 127.593 36.5732 126.211C36.7402 124.829 35.5944 124.017 35.9226 122.071C36.2508 120.125 38.2775 114.269 38.7669 109.98C39.2563 105.69 38.456 96.5932 38.456 95.0674C38.456 93.5416 38.6172 91.7337 38.6172 91.7337L28.5239 92.6089Z" fill="var(--fill-0, white)" stroke="var(--stroke-0, #263238)" stroke-linecap="round" stroke-linejoin="round"/>
<path id="Vector_5" d="M36.5732 126.234C36.6059 125.891 36.5726 125.545 36.4753 125.215C35.3813 125.313 32.8307 125.503 32.8307 125.503C32.5176 125.068 32.2458 124.606 32.0189 124.121C31.9677 123.991 31.891 123.872 31.7933 123.773C31.6955 123.673 31.5787 123.594 31.4498 123.54C31.321 123.487 31.1826 123.459 31.043 123.46C30.9033 123.461 30.7653 123.49 30.637 123.545C30.3952 123.787 27.3091 124.599 25.599 125.169C23.889 125.739 21.701 126.712 22.5129 127.121C23.3247 127.529 35.5944 127.121 35.5944 127.121C35.5944 127.121 36.4062 127.616 36.5732 126.234Z" fill="var(--fill-0, #66DE88)" stroke="var(--stroke-0, #263238)" stroke-linecap="round" stroke-linejoin="round"/>
<path id="Vector_6" d="M5.82704 38.5556C5.82704 38.5556 8.57347 38.6362 10.5311 34.7958C10.5311 34.7958 16.9567 50.2322 19.231 52.7425C20.5829 54.2387 22.0498 55.6267 23.6184 56.8938C23.6184 56.8938 23.1462 60.2621 21.3153 61.7533C19.4843 63.2446 18.1831 61.2812 18.1831 61.2812C18.1831 61.2812 13.3236 52.2704 10.6578 49.19C7.99194 46.1097 3.44912 40.0986 3.44912 40.0986C4.15175 39.4573 4.95512 38.936 5.82704 38.5556Z" fill="var(--fill-0, #66DE88)" stroke="var(--stroke-0, #263238)" stroke-linecap="round" stroke-linejoin="round"/>
<path id="Vector_7" d="M28.0057 44.7451C28.0057 44.7451 19.5419 47.5664 19.3058 47.7218C19.0698 47.8773 16.4846 45.6893 16.0182 45.5281C15.5518 45.3669 13.7439 46.2363 13.8245 47.0194C13.9051 47.8024 15.7821 47.0194 15.7821 47.0194C16.1603 47.6478 16.4254 48.3376 16.5652 49.0576C16.6458 49.9213 16.4846 50.3128 17.1928 50.7043C17.901 51.0958 26.7506 49.7601 27.6142 49.6046C28.4779 49.4491 29.497 47.7218 29.497 45.9197C29.497 44.1175 28.0057 44.7451 28.0057 44.7451Z" fill="var(--fill-0, white)" stroke="var(--stroke-0, #263238)" stroke-linecap="round" stroke-linejoin="round"/>
<path id="Vector_8" d="M28.3224 35.9415C28.3224 35.9415 25.3514 40.398 25.2593 42.2347C25.1672 44.0714 27.3609 45.5626 27.3609 45.5626C27.3609 45.5626 26.2093 49.3224 25.0002 54.4813C23.7911 59.6402 21.2404 69.2613 21.5916 76.2569C21.9428 83.2526 23.6874 93.6625 23.6874 93.6625H41.7897C41.7897 93.6625 42.3136 83.955 42.3136 78.8825C42.3136 73.8099 45.8143 67.6837 45.8143 63.4864C45.7597 60.6812 45.3732 57.8923 44.6628 55.178C44.6628 55.178 44.0524 33.6672 43.3558 30.5178C42.6591 27.3683 41.1678 25.1804 40.2063 24.4837C39.2448 23.787 35.1337 23.7812 33.5561 25.8828C31.9785 27.9844 31.1955 33.1433 30.6773 33.6672C30.1591 34.1912 28.3224 35.9415 28.3224 35.9415Z" fill="var(--fill-0, #263238)" stroke="var(--stroke-0, #263238)" stroke-linecap="round" stroke-linejoin="round"/>
<path id="Vector_9" d="M42.3136 78.8825C42.3136 73.81 45.8143 67.6838 45.8143 63.4864C45.7597 60.6812 45.3732 57.8923 44.6628 55.178C44.6628 55.178 44.6628 54.7865 44.634 54.1014C36.7056 57.0954 28.4606 55.3565 25.0175 54.3662C25.0052 54.4039 24.9956 54.4424 24.9887 54.4814C23.7623 59.6633 21.2289 69.2614 21.5801 76.257C21.9314 83.2526 23.6759 93.6625 23.6759 93.6625H41.7782C41.7782 93.6625 42.3136 83.9551 42.3136 78.8825Z" stroke="var(--stroke-0, #263238)" stroke-linecap="round" stroke-linejoin="round"/>
<path id="Vector_10" d="M35.4044 68.2998C28.4088 63.0488 31.4719 57.7172 31.4719 57.7172" stroke="var(--stroke-0, white)" stroke-linecap="round" stroke-linejoin="round"/>
<path id="Vector_11" d="M37.2411 56.2317C37.2411 56.2317 36.0205 68.9965 34.0053 74.7715C31.9901 80.5464 33.0437 93.2249 33.0437 93.2249" stroke="var(--stroke-0, white)" stroke-linecap="round" stroke-linejoin="round"/>
<path id="Vector_12" d="M26.0481 5.59271C26.0481 5.59271 20.1004 9.27764 20.0313 10.4292C20.0289 12.2296 20.2651 14.0224 20.7337 15.7608C21.1713 17.2463 21.7816 18.4727 21.3441 19.1694C20.9065 19.8661 20.4689 20.1367 21.3441 20.5685C21.7469 20.8032 22.1938 20.9522 22.6568 21.0061C22.6568 21.0061 24.8448 25.2034 25.4551 25.4683C26.0654 25.7332 29.1285 23.8964 29.1285 23.8964L31.3164 25.2034L28.0921 36.8167C28.0921 36.8167 29.8194 38.7398 32.0246 35.5904C34.2298 32.4409 34.3277 27.9844 35.6116 26.5853C36.8956 25.1862 40.4193 25.0941 40.4193 25.0941L35.4332 17.0333L33.5965 15.8817C33.5965 15.8817 35.1741 11.4253 34.2125 9.93977C33.251 8.45429 31.2358 9.93978 30.7118 11.2468C30.1879 12.5538 29.923 13.4347 29.923 13.4347C28.8332 13.2342 27.794 12.8193 26.8657 12.2141C25.4666 11.2468 23.1923 12.1219 23.889 9.41006C24.2005 7.9464 24.9542 6.61382 26.0481 5.59271Z" fill="var(--fill-0, white)" stroke="var(--stroke-0, #263238)" stroke-linecap="round" stroke-linejoin="round"/>
<path id="Vector_13" d="M33.5677 15.9105L32.0822 16.3481C32.0822 16.3481 32.7846 18.3633 32.2607 19.4975C31.85 20.2696 31.2571 20.9297 30.5334 21.4206" stroke="var(--stroke-0, #263238)" stroke-linecap="round" stroke-linejoin="round"/>
<path id="Vector_14" d="M24.5108 15.6111C25.1384 16.9699 25.0232 18.3575 24.2575 18.7145C23.4917 19.0715 22.3574 18.2539 21.7298 16.8951C21.1023 15.5362 21.2117 14.1429 21.9832 13.7917C22.7547 13.4404 23.8775 14.2638 24.5108 15.6111Z" stroke="var(--stroke-0, #263238)" stroke-linecap="round" stroke-linejoin="round"/>
<path id="Vector_15" d="M24.5108 15.6226L30.2455 11.8053" stroke="var(--stroke-0, #263238)" stroke-linecap="round" stroke-linejoin="round"/>
<path id="Vector_16" d="M0.501172 41.9238L9.59259 50.2322L11.8611 52.1149L17.8204 65.9852L22.2883 62.617C22.2883 62.617 18.2119 56.7384 15.4655 53.6004C12.719 50.4625 4.18035 34.6345 4.1055 34.4042C4.03065 34.1739 0.420564 41.6129 0.501172 41.9238Z" fill="var(--fill-0, #66DE88)" stroke="var(--stroke-0, #263238)" stroke-linecap="round" stroke-linejoin="round"/>
<path id="Vector_17" d="M40.3905 27.4547C40.3905 27.4547 36.458 28.0708 35.6692 31.4851C34.8804 34.8994 35.5829 49.7658 35.5829 49.7658L18.6149 50.1113C18.6149 50.1113 15.9894 47.4051 14.9415 46.9675C13.8936 46.53 11.8842 46.8754 11.8842 46.8754L12.9321 47.6642C12.9321 47.6642 9.43137 49.5009 9.25864 50.0249C9.08591 50.5488 8.99378 50.7273 9.60985 51.2513C10.0802 51.6096 10.6133 51.8772 11.1817 52.0401C11.4995 52.5195 11.7916 53.0153 12.0569 53.5256C12.1432 53.7847 11.009 53.9632 11.9705 54.4871C12.9321 55.0111 14.7688 53.5256 16.0009 53.0016C16.7547 52.6796 17.5522 52.472 18.3673 52.3856C18.3673 52.3856 27.7236 54.5735 32.5313 54.6599C37.339 54.7462 42.9412 55.8114 43.6379 55.2759C44.3346 54.7405 44.4267 54.0495 44.4267 53.0016C44.4267 51.9537 45.3019 36.3043 44.513 32.6251C43.7242 28.9459 43.6379 27.1956 40.3905 27.4547Z" fill="var(--fill-0, white)" stroke="var(--stroke-0, #263238)" stroke-linecap="round" stroke-linejoin="round"/>
</g>
</svg>
