<svg width="308" height="20" viewBox="0 0 308 20" fill="none" xmlns="http://www.w3.org/2000/svg">
<rect x="0.5" y="0.5" width="19" height="19" fill="#5856D6"/>
<rect x="0.5" y="0.5" width="19" height="19" stroke="#9B9AE6"/>
<path d="M16.354 6.85378L8.35403 14.8538C8.30759 14.9003 8.25245 14.9372 8.19175 14.9623C8.13105 14.9875 8.06599 15.0004 8.00028 15.0004C7.93457 15.0004 7.86951 14.9875 7.80881 14.9623C7.74811 14.9372 7.69296 14.9003 7.64653 14.8538L4.14653 11.3538C4.05271 11.26 4 11.1327 4 11C4 10.8674 4.05271 10.7401 4.14653 10.6463C4.24035 10.5525 4.3676 10.4998 4.50028 10.4998C4.63296 10.4998 4.76021 10.5525 4.85403 10.6463L8.00028 13.7932L15.6465 6.14628C15.7403 6.05246 15.8676 5.99976 16.0003 5.99976C16.133 5.99976 16.2602 6.05246 16.354 6.14628C16.4478 6.2401 16.5006 6.36735 16.5006 6.50003C16.5006 6.63272 16.4478 6.75996 16.354 6.85378Z" fill="white"/>
<path d="M33.856 15.016V13.704C34.2933 13.704 34.6773 13.6667 35.008 13.592C35.3493 13.5173 35.6533 13.368 35.92 13.144C36.1973 12.92 36.4533 12.584 36.688 12.136L32.24 3.688H33.888L37.488 10.696L40.336 3.688H41.84L39.808 8.472C39.6693 8.81333 39.488 9.25067 39.264 9.784C39.04 10.3067 38.7893 10.856 38.512 11.432C38.2453 11.9973 37.9627 12.5253 37.664 13.016C37.376 13.5067 37.0827 13.8853 36.784 14.152C36.3893 14.504 35.9573 14.7387 35.488 14.856C35.0187 14.9627 34.4747 15.016 33.856 15.016ZM42.4158 18.04V6.568H43.7118L43.7758 7.864C44.0638 7.40533 44.4531 7.05867 44.9438 6.824C45.4451 6.58933 45.9838 6.472 46.5598 6.472C47.4131 6.472 48.1118 6.664 48.6558 7.048C49.1998 7.42133 49.5998 7.93333 49.8558 8.584C50.1224 9.23467 50.2558 9.97067 50.2558 10.792C50.2558 11.6133 50.1224 12.3493 49.8558 13C49.5891 13.6507 49.1784 14.1627 48.6238 14.536C48.0691 14.9093 47.3598 15.096 46.4958 15.096C46.0691 15.096 45.6851 15.0533 45.3438 14.968C45.0024 14.872 44.7038 14.7387 44.4478 14.568C44.1918 14.3973 43.9678 14.2053 43.7758 13.992V18.04H42.4158ZM46.3838 13.896C47.0024 13.896 47.4931 13.7573 47.8558 13.48C48.2184 13.192 48.4798 12.8133 48.6398 12.344C48.8104 11.8747 48.8958 11.3573 48.8958 10.792C48.8958 10.216 48.8104 9.69333 48.6398 9.224C48.4798 8.75467 48.2131 8.38133 47.8398 8.104C47.4664 7.82667 46.9704 7.688 46.3518 7.688C45.7971 7.688 45.3224 7.832 44.9278 8.12C44.5438 8.39733 44.2504 8.776 44.0478 9.256C43.8451 9.72533 43.7438 10.2427 43.7438 10.808C43.7438 11.3947 43.8398 11.9227 44.0318 12.392C44.2238 12.8613 44.5171 13.2293 44.9118 13.496C45.3064 13.7627 45.7971 13.896 46.3838 13.896ZM54.7135 15.096C54.3295 15.096 53.9562 15.048 53.5935 14.952C53.2415 14.8453 52.9215 14.6907 52.6335 14.488C52.3562 14.2747 52.1322 14.0133 51.9615 13.704C51.8015 13.384 51.7215 13.016 51.7215 12.6C51.7215 12.12 51.8068 11.7147 51.9775 11.384C52.1588 11.0533 52.3988 10.792 52.6975 10.6C52.9962 10.408 53.3428 10.2693 53.7375 10.184C54.1322 10.0987 54.5428 10.056 54.9695 10.056H57.4495C57.4495 9.576 57.3802 9.16 57.2415 8.808C57.1135 8.456 56.9002 8.184 56.6015 7.992C56.3028 7.78933 55.9082 7.688 55.4175 7.688C55.1188 7.688 54.8415 7.72 54.5855 7.784C54.3295 7.848 54.1108 7.94933 53.9295 8.088C53.7482 8.22667 53.6148 8.41333 53.5295 8.648H52.0735C52.1482 8.264 52.2922 7.93867 52.5055 7.672C52.7295 7.39467 52.9962 7.17067 53.3055 7C53.6255 6.81867 53.9668 6.68533 54.3295 6.6C54.6922 6.51467 55.0548 6.472 55.4175 6.472C56.2282 6.472 56.8788 6.63733 57.3695 6.968C57.8602 7.288 58.2175 7.74667 58.4415 8.344C58.6655 8.93067 58.7775 9.62933 58.7775 10.44V15H57.6415L57.5615 13.928C57.3268 14.248 57.0442 14.4933 56.7135 14.664C56.3828 14.8347 56.0415 14.9467 55.6895 15C55.3482 15.064 55.0228 15.096 54.7135 15.096ZM54.8415 13.896C55.3748 13.896 55.8335 13.8107 56.2175 13.64C56.6122 13.4587 56.9162 13.1973 57.1295 12.856C57.3428 12.5147 57.4495 12.0987 57.4495 11.608V11.192H55.9615C55.6095 11.192 55.2628 11.1973 54.9215 11.208C54.5802 11.2187 54.2708 11.2613 53.9935 11.336C53.7162 11.4107 53.4922 11.5387 53.3215 11.72C53.1615 11.9013 53.0815 12.1627 53.0815 12.504C53.0815 12.824 53.1615 13.0853 53.3215 13.288C53.4922 13.4907 53.7108 13.6453 53.9775 13.752C54.2548 13.848 54.5428 13.896 54.8415 13.896ZM60.1165 15.016V13.832C60.3298 13.832 60.5218 13.7893 60.6925 13.704C60.8632 13.608 61.0125 13.4693 61.1405 13.288C61.2898 13.0747 61.4072 12.7653 61.4925 12.36C61.5778 11.9547 61.6365 11.5227 61.6685 11.064C61.7112 10.552 61.7432 10.0507 61.7645 9.56C61.7858 9.05867 61.8018 8.56267 61.8125 8.072C61.8338 7.58133 61.8445 7.08 61.8445 6.568H67.7005V15H66.3405V7.768H63.1725C63.1618 8.13067 63.1458 8.49867 63.1245 8.872C63.1138 9.23467 63.0978 9.60267 63.0765 9.976C63.0658 10.3387 63.0498 10.7067 63.0285 11.08C63.0178 11.5067 62.9752 11.9867 62.9005 12.52C62.8258 13.0533 62.6658 13.5387 62.4205 13.976C62.1858 14.392 61.8978 14.6693 61.5565 14.808C61.2258 14.9467 60.7458 15.016 60.1165 15.016ZM69.8376 15V6.568H71.2296V9.784H73.0856C73.587 9.784 74.035 9.82667 74.4296 9.912C74.835 9.98667 75.1816 10.12 75.4696 10.312C75.7576 10.504 75.9763 10.7653 76.1256 11.096C76.2856 11.416 76.3656 11.8267 76.3656 12.328C76.3656 12.7867 76.2856 13.1867 76.1256 13.528C75.9656 13.8587 75.7416 14.136 75.4536 14.36C75.1656 14.5733 74.819 14.7333 74.4136 14.84C74.019 14.9467 73.5816 15 73.1016 15H69.8376ZM71.2296 13.816H72.0296C72.403 13.816 72.7603 13.8053 73.1016 13.784C73.4536 13.7627 73.7736 13.7093 74.0616 13.624C74.3496 13.5387 74.5736 13.4 74.7336 13.208C74.9043 13.0053 74.9896 12.728 74.9896 12.376C74.9896 12.0347 74.9203 11.7733 74.7816 11.592C74.6536 11.4 74.483 11.2613 74.2696 11.176C74.0563 11.08 73.8216 11.0213 73.5656 11C73.3203 10.9787 73.075 10.968 72.8296 10.968H71.2296V13.816ZM81.7345 15.096C80.8492 15.096 80.1132 14.9147 79.5265 14.552C78.9505 14.1787 78.5185 13.6667 78.2305 13.016C77.9532 12.3653 77.8145 11.6293 77.8145 10.808C77.8145 10.008 77.9585 9.28267 78.2465 8.632C78.5452 7.97067 78.9932 7.448 79.5905 7.064C80.1985 6.66933 80.9665 6.472 81.8945 6.472C82.4705 6.472 82.9825 6.568 83.4305 6.76C83.8892 6.952 84.2678 7.23467 84.5665 7.608C84.8652 7.97067 85.0732 8.42933 85.1905 8.984H83.7985C83.6385 8.51467 83.3825 8.184 83.0305 7.992C82.6892 7.78933 82.2838 7.688 81.8145 7.688C81.1745 7.688 80.6625 7.83733 80.2785 8.136C79.8945 8.43467 79.6118 8.824 79.4305 9.304C79.2598 9.77333 79.1745 10.2747 79.1745 10.808C79.1745 11.3627 79.2652 11.8747 79.4465 12.344C79.6278 12.8133 79.9105 13.192 80.2945 13.48C80.6785 13.7573 81.1745 13.896 81.7825 13.896C82.2305 13.896 82.6518 13.8 83.0465 13.608C83.4518 13.416 83.7185 13.0747 83.8465 12.584H85.2545C85.1478 13.16 84.9185 13.6347 84.5665 14.008C84.2252 14.3813 83.8038 14.6587 83.3025 14.84C82.8118 15.0107 82.2892 15.096 81.7345 15.096ZM86.9783 15V6.568H88.3383V10.2H89.8103L92.3063 6.568H93.8583L91.0423 10.584L94.0983 15H92.4983L89.9703 11.384H88.3383V15H86.9783Z" fill="black"/>
</svg>
