<svg width="24" height="24" viewBox="0 0 24 24" fill="none" xmlns="http://www.w3.org/2000/svg">
<path d="M23.9129 9.27643C23.8058 8.96326 23.6035 8.68724 23.3316 8.48315C23.0597 8.27906 22.7303 8.15603 22.385 8.12956L16.0631 7.64474L13.6223 2.03367C13.4903 1.72792 13.2656 1.46639 12.9768 1.28234C12.6881 1.09828 12.3482 1 12.0006 1C11.6529 1 11.3131 1.09828 11.0243 1.28234C10.7355 1.46639 10.5108 1.72792 10.3788 2.03367L7.94011 7.64373L1.61506 8.12956C1.26915 8.15737 0.939571 8.28159 0.667608 8.48667C0.395646 8.69174 0.193396 8.96854 0.0861984 9.28239C-0.0209994 9.59624 -0.0283775 9.93319 0.0649882 10.251C0.158354 10.5688 0.348311 10.8534 0.611061 11.069L5.43281 15.024L3.96378 20.9376C3.88162 21.2588 3.90174 21.5961 4.02158 21.9065C4.14141 22.2168 4.35557 22.4864 4.63685 22.6809C4.91814 22.8753 5.25387 22.986 5.60143 22.9988C5.949 23.0115 6.29271 22.9258 6.58895 22.7526L12 19.587L17.4143 22.7526C17.7107 22.9238 18.0537 23.0078 18.4002 22.9941C18.7466 22.9804 19.0811 22.8695 19.3614 22.6754C19.6418 22.4814 19.8554 22.2128 19.9755 21.9036C20.0956 21.5943 20.1167 21.2582 20.0363 20.9376L18.5619 15.023L23.3836 11.068C23.6485 10.8527 23.8402 10.5676 23.9344 10.2486C24.0287 9.92967 24.0212 9.59132 23.9129 9.27643ZM22.2693 9.83356L17.0511 14.1114C16.9321 14.2089 16.8435 14.3356 16.7952 14.4777C16.7468 14.6198 16.7404 14.7718 16.7768 14.917L18.3712 21.3134C18.3753 21.3222 18.3757 21.3322 18.3723 21.3413C18.3689 21.3504 18.362 21.3579 18.3529 21.3623C18.3337 21.3766 18.3283 21.3735 18.3122 21.3623L12.449 17.9349C12.3139 17.856 12.1585 17.8142 12 17.8142C11.8415 17.8142 11.6861 17.856 11.5511 17.9349L5.68782 21.3643C5.67175 21.3735 5.66746 21.3766 5.64711 21.3643C5.63806 21.36 5.63113 21.3524 5.62774 21.3433C5.62435 21.3342 5.62476 21.3243 5.62889 21.3154L7.22328 14.9191C7.25962 14.7738 7.25325 14.6218 7.20487 14.4797C7.1565 14.3376 7.06798 14.2109 6.94898 14.1134L1.73078 9.8356C1.71792 9.82541 1.70613 9.81625 1.71685 9.78467C1.72756 9.7531 1.73613 9.75717 1.75221 9.75514L8.60123 9.22958C8.75832 9.21677 8.90865 9.16302 9.03569 9.07425C9.16272 8.98548 9.26154 8.86512 9.32127 8.72642L11.9593 2.65497C11.9679 2.63765 11.9711 2.62951 11.9968 2.62951C12.0225 2.62951 12.0257 2.63765 12.0343 2.65497L14.6788 8.72642C14.7391 8.86518 14.8385 8.9854 14.9661 9.07383C15.0938 9.16226 15.2446 9.21545 15.402 9.22754L22.2511 9.7531C22.2671 9.7531 22.2768 9.7531 22.2864 9.78264C22.2961 9.81217 22.2864 9.82338 22.2693 9.83356Z" fill="#111111"/>
</svg>
